%TF.GenerationSoftware,KiCad,Pcbnew,9.0.4*%
%TF.CreationDate,2025-10-28T22:37:09+01:00*%
%TF.ProjectId,SparkFun_Thing_Plus_ESP32-S3,53706172-6b46-4756-9e5f-5468696e675f,rev?*%
%TF.SameCoordinates,Original*%
%TF.FileFunction,Legend,Top*%
%TF.FilePolarity,Positive*%
%FSLAX46Y46*%
G04 Gerber Fmt 4.6, Leading zero omitted, Abs format (unit mm)*
G04 Created by KiCad (PCBNEW 9.0.4) date 2025-10-28 22:37:09*
%MOMM*%
%LPD*%
G01*
G04 APERTURE LIST*
%ADD10C,0.200000*%
%ADD11C,0.203200*%
%ADD12C,0.000000*%
%ADD13C,0.120000*%
G04 APERTURE END LIST*
D10*
%TO.C,U3*%
X19280000Y52320000D02*
X19280000Y53120000D01*
X19267500Y37895000D02*
X18467500Y37895000D01*
X19267500Y38695000D02*
X19267500Y37895000D01*
X4405000Y37882500D02*
X3605000Y37882500D01*
X3605000Y37882500D02*
X3605000Y38682500D01*
X3592500Y52332500D02*
X3592500Y53132500D01*
D11*
%TO.C,SW2*%
X14140000Y25717500D02*
G75*
G02*
X12530000Y25717500I-805000J0D01*
G01*
X12530000Y25717500D02*
G75*
G02*
X14140000Y25717500I805000J0D01*
G01*
X15435000Y25587500D02*
X15435000Y25847500D01*
X14673000Y24317500D02*
X11997000Y24317500D01*
X11997000Y27117500D02*
X14673000Y27117500D01*
X11235000Y25847500D02*
X11235000Y25587500D01*
%TO.C,U4*%
D10*
X20455327Y8204760D02*
G75*
G02*
X20255327Y8204760I-100000J0D01*
G01*
X20255327Y8204760D02*
G75*
G02*
X20455327Y8204760I100000J0D01*
G01*
D12*
%TO.C,kibuzzard-656A35A5*%
G36*
X20278487Y29064982D02*
G01*
X20307062Y28963541D01*
X20278487Y28863528D01*
X20177046Y28834953D01*
X19694128Y28834953D01*
X19706987Y28820666D01*
X19748421Y28732798D01*
X19698414Y28647787D01*
X19604117Y28603496D01*
X19558397Y28619926D01*
X19509819Y28663503D01*
X19346942Y28844954D01*
X19328368Y28867814D01*
X19304079Y28964969D01*
X19333369Y29064982D01*
X19435524Y29093557D01*
X20178474Y29093557D01*
X20278487Y29064982D01*
G37*
G36*
X20063143Y29808249D02*
G01*
X20147201Y29774912D01*
X20220623Y29719349D01*
X20277376Y29647436D01*
X20311428Y29565044D01*
X20322778Y29472176D01*
X20316527Y29395023D01*
X20297775Y29323586D01*
X20248483Y29226431D01*
X20222766Y29196427D01*
X20135612Y29142134D01*
X20038457Y29194998D01*
X19989879Y29283581D01*
X20037028Y29380736D01*
X20059888Y29463603D01*
X20038457Y29532183D01*
X19978449Y29556472D01*
X19919156Y29530754D01*
X19895582Y29467889D01*
X19915584Y29412168D01*
X19949874Y29332158D01*
X19921299Y29239289D01*
X19878437Y29175710D01*
X19837003Y29157851D01*
X19431238Y29210714D01*
X19391233Y29217858D01*
X19351942Y29234289D01*
X19314081Y29274294D01*
X19301222Y29342159D01*
X19302651Y29669343D01*
X19305508Y29718635D01*
X19319081Y29757211D01*
X19359086Y29789358D01*
X19436953Y29799359D01*
X19508391Y29790073D01*
X19546253Y29759354D01*
X19559111Y29722207D01*
X19561254Y29676487D01*
X19561254Y29456459D01*
X19636978Y29446458D01*
X19634121Y29470747D01*
X19634121Y29477891D01*
X19645313Y29564727D01*
X19678888Y29644261D01*
X19734848Y29716492D01*
X19805571Y29773642D01*
X19883438Y29807932D01*
X19968448Y29819362D01*
X20063143Y29808249D01*
G37*
%TO.C,kibuzzard-656A35AD*%
G36*
X20292774Y26493549D02*
G01*
X20321349Y26392108D01*
X20292774Y26292096D01*
X20191333Y26263521D01*
X19708416Y26263521D01*
X19721274Y26249233D01*
X19762708Y26161365D01*
X19712702Y26076354D01*
X19618404Y26032063D01*
X19572684Y26048494D01*
X19524107Y26092071D01*
X19361229Y26273522D01*
X19342656Y26296382D01*
X19318367Y26393537D01*
X19347656Y26493549D01*
X19449812Y26522124D01*
X20192762Y26522124D01*
X20292774Y26493549D01*
G37*
G36*
X20236339Y27307937D02*
G01*
X20275629Y27293649D01*
X20307062Y27253644D01*
X20317063Y27177921D01*
X20307062Y27103626D01*
X20274201Y27063621D01*
X20234910Y27050048D01*
X20185618Y27047904D01*
X20037028Y27047904D01*
X20037028Y26700718D01*
X20027027Y26626423D01*
X19994166Y26586418D01*
X19954875Y26572845D01*
X19905583Y26570702D01*
X19859863Y26574988D01*
X19415522Y26685002D01*
X19321224Y26738580D01*
X19322653Y26846451D01*
X19364087Y26929318D01*
X19426952Y26949321D01*
X19791283Y26860738D01*
X19791283Y27047904D01*
X19441239Y27047904D01*
X19394091Y27050048D01*
X19356943Y27063621D01*
X19326225Y27104340D01*
X19316938Y27180778D01*
X19326939Y27255073D01*
X19359801Y27294364D01*
X19399806Y27307937D01*
X19448383Y27310794D01*
X20187047Y27310794D01*
X20236339Y27307937D01*
G37*
%TO.C,kibuzzard-65A99A9C*%
G36*
X9385300Y21742400D02*
G01*
X9444831Y21693584D01*
X9465072Y21635244D01*
X9468644Y21562616D01*
X9468644Y21407834D01*
X9625806Y21407834D01*
X9698434Y21404262D01*
X9756775Y21384022D01*
X9805591Y21323300D01*
X9821069Y21207809D01*
X9806781Y21095891D01*
X9760347Y21036359D01*
X9705578Y21016119D01*
X9637713Y21012547D01*
X9468644Y21012547D01*
X9468644Y20855384D01*
X9465072Y20782756D01*
X9444831Y20724416D01*
X9385300Y20675600D01*
X9271000Y20660122D01*
X9159081Y20675600D01*
X9099550Y20725606D01*
X9079309Y20785137D01*
X9075738Y20857766D01*
X9075738Y21012547D01*
X8904288Y21012547D01*
X8836422Y21016119D01*
X8781653Y21036359D01*
X8735219Y21095891D01*
X8720931Y21210191D01*
X8736409Y21324491D01*
X8786416Y21384022D01*
X8847137Y21404262D01*
X8920956Y21407834D01*
X9075738Y21407834D01*
X9075738Y21564997D01*
X9079309Y21637625D01*
X9099550Y21695966D01*
X9159081Y21743591D01*
X9273381Y21757878D01*
X9385300Y21742400D01*
G37*
D13*
%TO.C,R8*%
X18035000Y25563859D02*
X18035000Y25871141D01*
X18795000Y25563859D02*
X18795000Y25871141D01*
D12*
%TO.C,kibuzzard-6569BE28*%
G36*
X14637544Y23731538D02*
G01*
X14673263Y23718837D01*
X14703425Y23681531D01*
X14712950Y23611681D01*
X14703425Y23541831D01*
X14672469Y23504525D01*
X14635956Y23491825D01*
X14590713Y23489444D01*
X14371638Y23489444D01*
X14371638Y22762369D01*
X14369256Y22709187D01*
X14354175Y22667119D01*
X14309725Y22632194D01*
X14227175Y22621081D01*
X14145419Y22632194D01*
X14102556Y22667912D01*
X14088269Y22710775D01*
X14085888Y22763956D01*
X14085888Y23489444D01*
X13865225Y23489444D01*
X13819981Y23491825D01*
X13784263Y23504525D01*
X13754100Y23541831D01*
X13744575Y23613269D01*
X13754100Y23682325D01*
X13785056Y23718837D01*
X13821569Y23731538D01*
X13866813Y23733919D01*
X14592300Y23733919D01*
X14637544Y23731538D01*
G37*
G36*
X12486680Y23725981D02*
G01*
X12553156Y23706931D01*
X12619434Y23675975D01*
X12683331Y23633906D01*
X12740283Y23577748D01*
X12785725Y23504525D01*
X12815491Y23418602D01*
X12825412Y23324344D01*
X12809890Y23205458D01*
X12763324Y23102799D01*
X12685712Y23016369D01*
X12800012Y22863969D01*
X12842875Y22754431D01*
X12766675Y22660769D01*
X12653962Y22617113D01*
X12565062Y22690931D01*
X12395200Y22921119D01*
X12247562Y22921119D01*
X12247562Y22767131D01*
X12245181Y22712363D01*
X12230100Y22669500D01*
X12185650Y22633781D01*
X12101512Y22622669D01*
X12018962Y22633781D01*
X11974512Y22670294D01*
X11959431Y22713950D01*
X11957050Y22768719D01*
X11957050Y23210044D01*
X12247562Y23210044D01*
X12422187Y23210044D01*
X12498387Y23238619D01*
X12534900Y23325931D01*
X12500769Y23408481D01*
X12419012Y23441819D01*
X12247562Y23441819D01*
X12247562Y23210044D01*
X11957050Y23210044D01*
X11957050Y23587869D01*
X11959431Y23641050D01*
X11974512Y23684706D01*
X12018962Y23721219D01*
X12103100Y23732331D01*
X12422187Y23732331D01*
X12486680Y23725981D01*
G37*
G36*
X13396031Y23739210D02*
G01*
X13497101Y23707460D01*
X13579475Y23654544D01*
X13636625Y23572788D01*
X13598525Y23475156D01*
X13504863Y23398163D01*
X13398500Y23427531D01*
X13380244Y23442613D01*
X13358019Y23460869D01*
X13327062Y23472775D01*
X13274675Y23478331D01*
X13215937Y23458488D01*
X13190537Y23410069D01*
X13218319Y23358475D01*
X13281025Y23330694D01*
X13377862Y23310850D01*
X13479463Y23286244D01*
X13569355Y23244969D01*
X13639006Y23184644D01*
X13683655Y23098522D01*
X13698537Y22979856D01*
X13691791Y22904053D01*
X13671550Y22835394D01*
X13602494Y22728237D01*
X13504863Y22657594D01*
X13396119Y22617113D01*
X13290550Y22605206D01*
X13201650Y22612350D01*
X13127037Y22629812D01*
X13065919Y22656006D01*
X13016706Y22686169D01*
X12978606Y22717125D01*
X12950825Y22744906D01*
X12933363Y22767131D01*
X12923837Y22778244D01*
X12884150Y22881431D01*
X12950825Y22983031D01*
X13016794Y23019720D01*
X13085586Y23009137D01*
X13157200Y22951281D01*
X13221494Y22893337D01*
X13284200Y22878256D01*
X13377862Y22901275D01*
X13406438Y22975094D01*
X13365162Y23024306D01*
X13240544Y23061612D01*
X13164939Y23082052D01*
X13104812Y23103681D01*
X13015912Y23154481D01*
X12952412Y23222744D01*
X12914312Y23308469D01*
X12901612Y23411656D01*
X12913431Y23503467D01*
X12948885Y23584165D01*
X13007975Y23653750D01*
X13085057Y23707108D01*
X13174486Y23739122D01*
X13276262Y23749794D01*
X13396031Y23739210D01*
G37*
D11*
%TO.C,J1*%
X7110000Y4146250D02*
X7110000Y2346250D01*
X15750000Y4146250D02*
X15750000Y2346250D01*
D12*
%TO.C,kibuzzard-656A368C*%
G36*
X3277870Y44827904D02*
G01*
X3363119Y44793614D01*
X3442335Y44736464D01*
X3505835Y44660899D01*
X3543935Y44571364D01*
X3556635Y44467859D01*
X3544411Y44369276D01*
X3507740Y44281169D01*
X3446621Y44203541D01*
X3368040Y44143216D01*
X3278981Y44107021D01*
X3179445Y44094956D01*
X3107293Y44101921D01*
X3039427Y44122816D01*
X2978706Y44155142D01*
X2927985Y44196397D01*
X2852976Y44283551D01*
X2802255Y44369276D01*
X2802255Y44190682D01*
X2799397Y44141390D01*
X2785110Y44102814D01*
X2745105Y44070667D01*
X2669381Y44060666D01*
X2595801Y44070667D01*
X2556510Y44103528D01*
X2542222Y44144247D01*
X2539365Y44193539D01*
X2539365Y44709318D01*
X2578656Y44800758D01*
X2672239Y44839334D01*
X2744748Y44826476D01*
X2810827Y44787899D01*
X2861727Y44738250D01*
X2914412Y44669313D01*
X2963525Y44593947D01*
X3003709Y44525009D01*
X3043714Y44463037D01*
X3092291Y44408566D01*
X3145869Y44370526D01*
X3200876Y44357846D01*
X3238738Y44362846D01*
X3275886Y44394279D01*
X3295174Y44466431D01*
X3265527Y44550013D01*
X3176587Y44577873D01*
X3130867Y44580016D01*
X3094434Y44593589D01*
X3064431Y44633594D01*
X3055144Y44709318D01*
X3065145Y44783613D01*
X3098006Y44823618D01*
X3137297Y44837191D01*
X3186589Y44839334D01*
X3277870Y44827904D01*
G37*
%TO.C,kibuzzard-656A3D93*%
G36*
X19531330Y16922750D02*
G01*
X20193000Y16621760D01*
X20239355Y16577945D01*
X20256500Y16512540D01*
X20240625Y16441420D01*
X20193000Y16398240D01*
X19531330Y16097250D01*
X19443065Y16084550D01*
X19382740Y16155670D01*
X19363690Y16250920D01*
X19436080Y16309340D01*
X19930110Y16510000D01*
X19436080Y16710660D01*
X19364325Y16770350D01*
X19382740Y16864330D01*
X19443700Y16937355D01*
X19531330Y16922750D01*
G37*
G36*
X20052947Y17661255D02*
G01*
X20125126Y17628870D01*
X20187285Y17574895D01*
X20234910Y17504410D01*
X20263485Y17422495D01*
X20273010Y17329150D01*
X20263485Y17242367D01*
X20234910Y17163203D01*
X20187285Y17091660D01*
X20127101Y17035216D01*
X20060849Y17001349D01*
X19988530Y16990060D01*
X19928523Y17021810D01*
X19908520Y17117060D01*
X19922490Y17186910D01*
X19982180Y17223740D01*
X19989165Y17226280D01*
X20004405Y17235805D01*
X20023455Y17254855D01*
X20038695Y17285335D01*
X20045680Y17330420D01*
X20025995Y17409795D01*
X19973290Y17439640D01*
X19918045Y17415193D01*
X19899630Y17341850D01*
X19899630Y17306925D01*
X19893915Y17277715D01*
X19878040Y17249140D01*
X19845020Y17233900D01*
X19789140Y17226280D01*
X19725640Y17234535D01*
X19692620Y17261205D01*
X19681825Y17293590D01*
X19679920Y17334230D01*
X19679920Y17343120D01*
X19671665Y17402175D01*
X19639280Y17420590D01*
X19595465Y17399635D01*
X19579590Y17341850D01*
X19592290Y17287240D01*
X19630390Y17250410D01*
X19682742Y17211746D01*
X19697559Y17158406D01*
X19674840Y17090390D01*
X19604990Y17027525D01*
X19517360Y17045940D01*
X19512915Y17047845D01*
X19498945Y17054830D01*
X19477990Y17067530D01*
X19452590Y17087850D01*
X19425285Y17115790D01*
X19399250Y17153255D01*
X19377025Y17200245D01*
X19361785Y17258665D01*
X19356070Y17329150D01*
X19365666Y17421507D01*
X19394452Y17500459D01*
X19442430Y17566005D01*
X19502120Y17615041D01*
X19566043Y17644463D01*
X19634200Y17654270D01*
X19727228Y17632363D01*
X19790410Y17566640D01*
X19858990Y17637760D01*
X19909790Y17663478D01*
X19970750Y17672050D01*
X20052947Y17661255D01*
G37*
G36*
X20052947Y16019145D02*
G01*
X20125126Y15986760D01*
X20187285Y15932785D01*
X20234910Y15862300D01*
X20263485Y15780385D01*
X20273010Y15687040D01*
X20263485Y15600257D01*
X20234910Y15521093D01*
X20187285Y15449550D01*
X20127101Y15393106D01*
X20060849Y15359239D01*
X19988530Y15347950D01*
X19928523Y15379700D01*
X19908520Y15474950D01*
X19922490Y15544800D01*
X19982180Y15581630D01*
X19989165Y15584170D01*
X20004405Y15593695D01*
X20023455Y15612745D01*
X20038695Y15643225D01*
X20045680Y15688310D01*
X20025995Y15767685D01*
X19973290Y15797530D01*
X19918045Y15773083D01*
X19899630Y15699740D01*
X19899630Y15664815D01*
X19893915Y15635605D01*
X19878040Y15607030D01*
X19845020Y15591790D01*
X19789140Y15584170D01*
X19725640Y15592425D01*
X19692620Y15619095D01*
X19681825Y15651480D01*
X19679920Y15692120D01*
X19679920Y15701010D01*
X19671665Y15760065D01*
X19639280Y15778480D01*
X19595465Y15757525D01*
X19579590Y15699740D01*
X19592290Y15645130D01*
X19630390Y15608300D01*
X19682742Y15569636D01*
X19697559Y15516296D01*
X19674840Y15448280D01*
X19604990Y15385415D01*
X19517360Y15403830D01*
X19512915Y15405735D01*
X19498945Y15412720D01*
X19477990Y15425420D01*
X19452590Y15445740D01*
X19425285Y15473680D01*
X19399250Y15511145D01*
X19377025Y15558135D01*
X19361785Y15616555D01*
X19356070Y15687040D01*
X19365666Y15779397D01*
X19394452Y15858349D01*
X19442430Y15923895D01*
X19502120Y15972931D01*
X19566043Y16002353D01*
X19634200Y16012160D01*
X19727228Y15990253D01*
X19790410Y15924530D01*
X19858990Y15995650D01*
X19909790Y16021368D01*
X19970750Y16029940D01*
X20052947Y16019145D01*
G37*
%TO.C,kibuzzard-656A361F*%
G36*
X19407082Y12867640D02*
G01*
X19195415Y12867640D01*
X19195415Y15072360D01*
X19407082Y15072360D01*
X19407082Y12867640D01*
G37*
G36*
X19679285Y15064740D02*
G01*
X19709130Y15039975D01*
X19719290Y15010765D01*
X19721195Y14974570D01*
X19721195Y14799310D01*
X20302855Y14799310D01*
X20345400Y14797405D01*
X20379055Y14785340D01*
X20406995Y14749780D01*
X20415885Y14683740D01*
X20406995Y14618335D01*
X20378420Y14584045D01*
X20344130Y14572615D01*
X20301585Y14570710D01*
X19721195Y14570710D01*
X19721195Y14394180D01*
X19719290Y14357985D01*
X19709130Y14329410D01*
X19679285Y14305280D01*
X19622135Y14297660D01*
X19566890Y14305280D01*
X19537680Y14330045D01*
X19527520Y14359255D01*
X19525615Y14395450D01*
X19525615Y14975840D01*
X19527520Y15012035D01*
X19537680Y15040610D01*
X19567525Y15064740D01*
X19623405Y15072360D01*
X19679285Y15064740D01*
G37*
G36*
X20299045Y13100050D02*
G01*
X20342860Y13098145D01*
X20377150Y13086080D01*
X20405725Y13050520D01*
X20414615Y12983210D01*
X20405725Y12917170D01*
X20376515Y12881610D01*
X20341590Y12869545D01*
X20297775Y12867640D01*
X19642455Y12867640D01*
X19599910Y12869545D01*
X19564985Y12881610D01*
X19535775Y12917170D01*
X19526885Y12984480D01*
X19526885Y13237210D01*
X19759295Y13237210D01*
X19759295Y13100050D01*
X19944715Y13100050D01*
X19944715Y13239750D01*
X19921855Y13300710D01*
X19852005Y13329920D01*
X19785965Y13302615D01*
X19759295Y13237210D01*
X19526885Y13237210D01*
X19526885Y13239750D01*
X19531965Y13291344D01*
X19547205Y13344525D01*
X19571970Y13397547D01*
X19605625Y13448665D01*
X19650551Y13494226D01*
X19709130Y13530580D01*
X19777869Y13554392D01*
X19853275Y13562330D01*
X19948384Y13549912D01*
X20030511Y13512659D01*
X20099655Y13450570D01*
X20221575Y13542010D01*
X20309205Y13576300D01*
X20384135Y13515340D01*
X20419060Y13425170D01*
X20360005Y13354050D01*
X20175855Y13218160D01*
X20175855Y13100050D01*
X20299045Y13100050D01*
G37*
G36*
X20189508Y14255432D02*
G01*
X20244435Y14239240D01*
X20330160Y14183995D01*
X20386675Y14105890D01*
X20419060Y14018895D01*
X20428585Y13934440D01*
X20422870Y13863320D01*
X20408900Y13803630D01*
X20387945Y13754735D01*
X20363815Y13715365D01*
X20339050Y13684885D01*
X20316825Y13662660D01*
X20299045Y13648690D01*
X20290155Y13641070D01*
X20207605Y13609320D01*
X20126325Y13662660D01*
X20096974Y13715436D01*
X20105441Y13770469D01*
X20151725Y13827760D01*
X20198080Y13879195D01*
X20210145Y13929360D01*
X20191730Y14004290D01*
X20132675Y14027150D01*
X20093305Y13994130D01*
X20063460Y13894435D01*
X20047109Y13833951D01*
X20029805Y13785850D01*
X19989165Y13714730D01*
X19934555Y13663930D01*
X19865975Y13633450D01*
X19783425Y13623290D01*
X19709977Y13632744D01*
X19645418Y13661108D01*
X19589750Y13708380D01*
X19547064Y13770046D01*
X19521452Y13841589D01*
X19512915Y13923010D01*
X19521382Y14018824D01*
X19546782Y14099681D01*
X19589115Y14165580D01*
X19654520Y14211300D01*
X19732625Y14180820D01*
X19794220Y14105890D01*
X19770725Y14020800D01*
X19758660Y14006195D01*
X19744055Y13988415D01*
X19734530Y13963650D01*
X19730085Y13921740D01*
X19745960Y13874750D01*
X19784695Y13854430D01*
X19825970Y13876655D01*
X19848195Y13926820D01*
X19864070Y14004290D01*
X19883755Y14085570D01*
X19916775Y14157484D01*
X19965035Y14213205D01*
X20033932Y14248924D01*
X20128865Y14260830D01*
X20189508Y14255432D01*
G37*
D13*
%TO.C,R17*%
X9462500Y12853641D02*
X9462500Y12546359D01*
X10222500Y12853641D02*
X10222500Y12546359D01*
%TO.C,C9*%
X10920000Y14464420D02*
X10920000Y14745580D01*
X11940000Y14464420D02*
X11940000Y14745580D01*
D12*
%TO.C,kibuzzard-6569F8A4*%
G36*
X15359856Y18654713D02*
G01*
X15395575Y18642013D01*
X15425738Y18604706D01*
X15435263Y18534856D01*
X15425738Y18465006D01*
X15394781Y18427700D01*
X15358269Y18415000D01*
X15313025Y18412619D01*
X15093950Y18412619D01*
X15093950Y17685544D01*
X15091569Y17632362D01*
X15076488Y17590294D01*
X15032038Y17555369D01*
X14949488Y17544256D01*
X14867731Y17555369D01*
X14824869Y17591088D01*
X14810581Y17633950D01*
X14808200Y17687131D01*
X14808200Y18412619D01*
X14587538Y18412619D01*
X14542294Y18415000D01*
X14506575Y18427700D01*
X14476413Y18465006D01*
X14466888Y18536444D01*
X14476413Y18605500D01*
X14507369Y18642013D01*
X14543881Y18654713D01*
X14589125Y18657094D01*
X15314613Y18657094D01*
X15359856Y18654713D01*
G37*
G36*
X11841692Y18645893D02*
G01*
X11921596Y18612291D01*
X11991975Y18556288D01*
X12046656Y18484938D01*
X12079464Y18405299D01*
X12090400Y18317369D01*
X12077303Y18224500D01*
X12038012Y18139569D01*
X12101116Y18028047D01*
X12122150Y17906206D01*
X12109715Y17810780D01*
X12074525Y17725584D01*
X12016581Y17650619D01*
X11942762Y17592410D01*
X11859948Y17557485D01*
X11768137Y17545844D01*
X11525250Y17545844D01*
X11379200Y17545844D01*
X11296650Y17556956D01*
X11252200Y17593469D01*
X11237119Y17637919D01*
X11234737Y17693481D01*
X11234737Y17836356D01*
X11525250Y17836356D01*
X11752262Y17836356D01*
X11774487Y17837944D01*
X11799094Y17846675D01*
X11822906Y17873662D01*
X11831637Y17923669D01*
X11811000Y17989550D01*
X11744325Y18004631D01*
X11723687Y18004631D01*
X11633200Y18032413D01*
X11606212Y18126869D01*
X11634787Y18218150D01*
X11731625Y18244344D01*
X11750675Y18244344D01*
X11788775Y18255456D01*
X11799887Y18304669D01*
X11783219Y18353881D01*
X11717337Y18366581D01*
X11525250Y18366581D01*
X11525250Y17836356D01*
X11234737Y17836356D01*
X11234737Y18512631D01*
X11237119Y18565813D01*
X11252200Y18609469D01*
X11296650Y18645981D01*
X11380787Y18657094D01*
X11752262Y18657094D01*
X11841692Y18645893D01*
G37*
G36*
X12832159Y18657838D02*
G01*
X12934950Y18626733D01*
X13029009Y18574891D01*
X13114337Y18502313D01*
X13185180Y18414752D01*
X13235781Y18317964D01*
X13266142Y18211949D01*
X13276262Y18096706D01*
X13266291Y17983448D01*
X13236377Y17878623D01*
X13186519Y17782232D01*
X13116719Y17694275D01*
X13032929Y17621002D01*
X12941102Y17568664D01*
X12841238Y17537261D01*
X12733337Y17526794D01*
X12725400Y17527532D01*
X12622411Y17537112D01*
X12519819Y17568069D01*
X12425561Y17619662D01*
X12339637Y17691894D01*
X12268101Y17778710D01*
X12217003Y17874059D01*
X12186345Y17977941D01*
X12176125Y18090356D01*
X12176668Y18096706D01*
X12466637Y18096706D01*
X12485886Y17990344D01*
X12543631Y17899856D01*
X12627570Y17837944D01*
X12725400Y17817306D01*
X12826405Y17837348D01*
X12910344Y17897475D01*
X12966898Y17987367D01*
X12985750Y18096706D01*
X12966700Y18205252D01*
X12909550Y18295938D01*
X12825809Y18357255D01*
X12726987Y18377694D01*
X12626975Y18357255D01*
X12542837Y18295938D01*
X12485687Y18205252D01*
X12466637Y18096706D01*
X12176668Y18096706D01*
X12186047Y18206442D01*
X12215812Y18313400D01*
X12265422Y18411230D01*
X12334875Y18499931D01*
X12418516Y18573552D01*
X12510691Y18626138D01*
X12611398Y18657689D01*
X12720637Y18668206D01*
X12832159Y18657838D01*
G37*
G36*
X13976747Y18657838D02*
G01*
X14079538Y18626733D01*
X14173597Y18574891D01*
X14258925Y18502313D01*
X14329767Y18414752D01*
X14380369Y18317964D01*
X14410730Y18211949D01*
X14420850Y18096706D01*
X14410879Y17983448D01*
X14380964Y17878623D01*
X14331107Y17782232D01*
X14261306Y17694275D01*
X14177516Y17621002D01*
X14085689Y17568664D01*
X13985825Y17537261D01*
X13877925Y17526794D01*
X13869988Y17527532D01*
X13766998Y17537112D01*
X13664406Y17568069D01*
X13570148Y17619662D01*
X13484225Y17691894D01*
X13412688Y17778710D01*
X13361591Y17874059D01*
X13330932Y17977941D01*
X13320712Y18090356D01*
X13321255Y18096706D01*
X13611225Y18096706D01*
X13630473Y17990344D01*
X13688219Y17899856D01*
X13772158Y17837944D01*
X13869988Y17817306D01*
X13970992Y17837348D01*
X14054931Y17897475D01*
X14111486Y17987367D01*
X14130338Y18096706D01*
X14111287Y18205252D01*
X14054138Y18295938D01*
X13970397Y18357255D01*
X13871575Y18377694D01*
X13771563Y18357255D01*
X13687425Y18295938D01*
X13630275Y18205252D01*
X13611225Y18096706D01*
X13321255Y18096706D01*
X13330634Y18206442D01*
X13360400Y18313400D01*
X13410009Y18411230D01*
X13479462Y18499931D01*
X13563104Y18573552D01*
X13655278Y18626138D01*
X13755985Y18657689D01*
X13865225Y18668206D01*
X13976747Y18657838D01*
G37*
D13*
%TO.C,R13*%
X5868641Y23875000D02*
X5561359Y23875000D01*
X5868641Y23115000D02*
X5561359Y23115000D01*
%TO.C,C2*%
X21230000Y9632836D02*
X21230000Y9417164D01*
X21950000Y9632836D02*
X21950000Y9417164D01*
D12*
%TO.C,kibuzzard-656A3567*%
G36*
X20238482Y47750809D02*
G01*
X20277772Y47736522D01*
X20309205Y47696517D01*
X20319206Y47620793D01*
X20309205Y47546498D01*
X20276344Y47506493D01*
X20237053Y47492920D01*
X20187761Y47490777D01*
X20039171Y47490777D01*
X20039171Y47143591D01*
X20029170Y47069296D01*
X19996309Y47029291D01*
X19957018Y47015718D01*
X19907726Y47013574D01*
X19862006Y47017861D01*
X19417665Y47127874D01*
X19323367Y47181453D01*
X19324796Y47289323D01*
X19366230Y47372191D01*
X19429095Y47392193D01*
X19793426Y47303611D01*
X19793426Y47490777D01*
X19443382Y47490777D01*
X19396234Y47492920D01*
X19359086Y47506493D01*
X19328368Y47547213D01*
X19319081Y47623651D01*
X19329082Y47697946D01*
X19361944Y47737236D01*
X19401949Y47750809D01*
X19450526Y47753667D01*
X20189190Y47753667D01*
X20238482Y47750809D01*
G37*
G36*
X20238482Y46963568D02*
G01*
X20277772Y46949281D01*
X20309205Y46909276D01*
X20319206Y46833552D01*
X20309205Y46759257D01*
X20276344Y46719252D01*
X20237053Y46705679D01*
X20187761Y46703536D01*
X20039171Y46703536D01*
X20039171Y46356349D01*
X20029170Y46282054D01*
X19996309Y46242049D01*
X19957018Y46228476D01*
X19907726Y46226333D01*
X19862006Y46230619D01*
X19417665Y46340633D01*
X19323367Y46394211D01*
X19324796Y46502082D01*
X19366230Y46584949D01*
X19429095Y46604952D01*
X19793426Y46516369D01*
X19793426Y46703536D01*
X19443382Y46703536D01*
X19396234Y46705679D01*
X19359086Y46719252D01*
X19328368Y46759971D01*
X19319081Y46836409D01*
X19329082Y46910704D01*
X19361944Y46949995D01*
X19401949Y46963568D01*
X19450526Y46966426D01*
X20189190Y46966426D01*
X20238482Y46963568D01*
G37*
%TO.C,kibuzzard-656A3559*%
G36*
X20284916Y42398632D02*
G01*
X20313491Y42297191D01*
X20284916Y42197179D01*
X20183475Y42168604D01*
X19700557Y42168604D01*
X19713416Y42154316D01*
X19754850Y42066448D01*
X19704844Y41981438D01*
X19610546Y41937146D01*
X19564826Y41953577D01*
X19516249Y41997154D01*
X19353371Y42178605D01*
X19334797Y42201465D01*
X19310509Y42298620D01*
X19339798Y42398632D01*
X19441954Y42427208D01*
X20184904Y42427208D01*
X20284916Y42398632D01*
G37*
G36*
X20284916Y41857136D02*
G01*
X20313491Y41755695D01*
X20284916Y41655683D01*
X20183475Y41627107D01*
X19700557Y41627107D01*
X19713416Y41612820D01*
X19754850Y41524952D01*
X19704844Y41439941D01*
X19610546Y41395650D01*
X19564826Y41412081D01*
X19516249Y41455657D01*
X19353371Y41637109D01*
X19334797Y41659969D01*
X19310509Y41757124D01*
X19339798Y41857136D01*
X19441954Y41885711D01*
X20184904Y41885711D01*
X20284916Y41857136D01*
G37*
%TO.C,kibuzzard-656A47C5*%
G36*
X20236339Y52017851D02*
G01*
X20275629Y52003563D01*
X20307062Y51963558D01*
X20317063Y51887834D01*
X20307062Y51813539D01*
X20274201Y51773534D01*
X20234910Y51759961D01*
X20185618Y51757818D01*
X20037028Y51757818D01*
X20037028Y51410632D01*
X20027027Y51336337D01*
X19994166Y51296332D01*
X19954875Y51282759D01*
X19905583Y51280616D01*
X19859863Y51284902D01*
X19415522Y51394916D01*
X19321224Y51448494D01*
X19322653Y51556364D01*
X19364087Y51639232D01*
X19426952Y51659234D01*
X19791283Y51570652D01*
X19791283Y51757818D01*
X19441239Y51757818D01*
X19394091Y51759961D01*
X19356943Y51773534D01*
X19326225Y51814254D01*
X19316938Y51890692D01*
X19326939Y51964987D01*
X19359801Y52004278D01*
X19399806Y52017851D01*
X19448383Y52020708D01*
X20187047Y52020708D01*
X20236339Y52017851D01*
G37*
G36*
X20264914Y52849383D02*
G01*
X20304204Y52816522D01*
X20318492Y52775803D01*
X20321349Y52726511D01*
X20321349Y52210732D01*
X20282059Y52119292D01*
X20188476Y52080716D01*
X20115967Y52093574D01*
X20049887Y52132151D01*
X19998988Y52181800D01*
X19946302Y52250737D01*
X19897189Y52326103D01*
X19857006Y52395041D01*
X19817001Y52457013D01*
X19768423Y52511484D01*
X19714845Y52549524D01*
X19659838Y52562204D01*
X19621976Y52557204D01*
X19584829Y52525771D01*
X19565541Y52453619D01*
X19595187Y52370037D01*
X19684127Y52342177D01*
X19729847Y52340034D01*
X19766280Y52326461D01*
X19796284Y52286456D01*
X19805571Y52210732D01*
X19795569Y52136437D01*
X19762708Y52096432D01*
X19723418Y52082859D01*
X19674126Y52080716D01*
X19582844Y52092146D01*
X19497596Y52126436D01*
X19418379Y52183586D01*
X19354879Y52259151D01*
X19316779Y52348686D01*
X19304079Y52452191D01*
X19316303Y52550774D01*
X19352974Y52638881D01*
X19414093Y52716509D01*
X19492674Y52776834D01*
X19581733Y52813029D01*
X19681269Y52825094D01*
X19753421Y52818129D01*
X19821287Y52797234D01*
X19882009Y52764908D01*
X19932729Y52723653D01*
X20007739Y52636499D01*
X20058459Y52550774D01*
X20058459Y52729368D01*
X20061317Y52778660D01*
X20075604Y52817236D01*
X20115609Y52849383D01*
X20191333Y52859384D01*
X20264914Y52849383D01*
G37*
%TO.C,kibuzzard-656A3691*%
G36*
X2997994Y42275760D02*
G01*
X3442335Y42165746D01*
X3536633Y42112168D01*
X3535204Y42004298D01*
X3493770Y41921430D01*
X3430905Y41901427D01*
X3066574Y41990010D01*
X3066574Y41802844D01*
X3416618Y41802844D01*
X3463766Y41800701D01*
X3500914Y41787127D01*
X3531632Y41746408D01*
X3540919Y41669970D01*
X3530918Y41595675D01*
X3498056Y41556384D01*
X3458051Y41542811D01*
X3409474Y41539954D01*
X2670810Y41539954D01*
X2621518Y41542811D01*
X2582228Y41557099D01*
X2550795Y41597104D01*
X2540794Y41672827D01*
X2550795Y41747122D01*
X2583656Y41787127D01*
X2622947Y41800701D01*
X2672239Y41802844D01*
X2820829Y41802844D01*
X2820829Y42150030D01*
X2830830Y42224325D01*
X2863691Y42264330D01*
X2902982Y42277903D01*
X2952274Y42280046D01*
X2997994Y42275760D01*
G37*
%TO.C,kibuzzard-656A36C2*%
G36*
X3490913Y34645759D02*
G01*
X3530203Y34615755D01*
X3544491Y34578608D01*
X3547348Y34532888D01*
X3547348Y34054256D01*
X3537347Y33979961D01*
X3504486Y33939956D01*
X3465195Y33926383D01*
X3415903Y33924240D01*
X3332678Y33937277D01*
X3234452Y33976389D01*
X3132832Y34030860D01*
X3039428Y34089975D01*
X2945666Y34149090D01*
X2842974Y34203561D01*
X2743676Y34242673D01*
X2660094Y34255710D01*
X2615089Y34258568D01*
X2581513Y34273569D01*
X2556510Y34313574D01*
X2548652Y34387155D01*
X2555796Y34462164D01*
X2581513Y34501455D01*
X2615803Y34515743D01*
X2662952Y34518600D01*
X2766358Y34508599D01*
X2873693Y34478595D01*
X2973884Y34436625D01*
X3055858Y34390727D01*
X3127653Y34342864D01*
X3197304Y34295001D01*
X3285887Y34239994D01*
X3285887Y34525744D01*
X3288744Y34574321D01*
X3303032Y34613612D01*
X3343037Y34645759D01*
X3417332Y34655760D01*
X3490913Y34645759D01*
G37*
%TO.C,kibuzzard-656A3668*%
G36*
X2948226Y52425203D02*
G01*
X3017758Y52391389D01*
X3081576Y52335033D01*
X3083004Y52336462D01*
X3084433Y52335033D01*
X3160871Y52389683D01*
X3253026Y52407899D01*
X3336211Y52396787D01*
X3410506Y52363449D01*
X3475911Y52307887D01*
X3526711Y52236608D01*
X3557191Y52156122D01*
X3567351Y52066428D01*
X3557032Y51977846D01*
X3526076Y51898788D01*
X3474482Y51829256D01*
X3407966Y51775281D01*
X3332242Y51742896D01*
X3247311Y51732101D01*
X3165872Y51749960D01*
X3084433Y51803538D01*
X3083004Y51802109D01*
X3081576Y51803538D01*
X3015853Y51747976D01*
X2946321Y51714638D01*
X2872978Y51703526D01*
X2776696Y51716067D01*
X2693591Y51753691D01*
X2636408Y51804967D01*
X3083004Y51804967D01*
X3084433Y51803538D01*
X3088719Y51809253D01*
X3088719Y51812111D01*
X3083004Y51804967D01*
X2636408Y51804967D01*
X2623661Y51816397D01*
X2570877Y51894343D01*
X2539206Y51977687D01*
X2528649Y52066428D01*
X2528807Y52067857D01*
X2778681Y52067857D01*
X2802255Y51992133D01*
X2867263Y51964987D01*
X2930842Y51992847D01*
X2952175Y52067857D01*
X3194447Y52067857D01*
X3209449Y52012136D01*
X3254454Y51993562D01*
X3298746Y52013564D01*
X3314462Y52069286D01*
X3299460Y52125007D01*
X3254454Y52143581D01*
X3210163Y52123578D01*
X3194447Y52067857D01*
X2952175Y52067857D01*
X2952988Y52070714D01*
X2930128Y52147867D01*
X2867263Y52175013D01*
X2802255Y52146438D01*
X2778681Y52067857D01*
X2528807Y52067857D01*
X2539603Y52165568D01*
X2572464Y52253436D01*
X2625701Y52327889D01*
X3075861Y52327889D01*
X3077289Y52327889D01*
X3083004Y52333604D01*
X3093006Y52322174D01*
X3093006Y52323603D01*
X3084433Y52335033D01*
X3083004Y52333604D01*
X3081576Y52335033D01*
X3075861Y52327889D01*
X2625701Y52327889D01*
X2627233Y52330033D01*
X2698353Y52389167D01*
X2780268Y52424647D01*
X2872978Y52436474D01*
X2948226Y52425203D01*
G37*
D13*
%TO.C,R16*%
X14768859Y12445000D02*
X15076141Y12445000D01*
X14768859Y11685000D02*
X15076141Y11685000D01*
D12*
%TO.C,kibuzzard-65A99912*%
G36*
X3521631Y24962961D02*
G01*
X3543062Y24855805D01*
X3461623Y24790083D01*
X2905839Y24564340D01*
X3461623Y24338598D01*
X3542347Y24271446D01*
X3521631Y24165719D01*
X3453051Y24083566D01*
X3354467Y24099996D01*
X2610088Y24438610D01*
X2557939Y24487902D01*
X2538651Y24561483D01*
X2556510Y24641493D01*
X2610088Y24690070D01*
X3354467Y25028684D01*
X3453765Y25042971D01*
X3521631Y24962961D01*
G37*
G36*
X3456622Y23999269D02*
G01*
X3495913Y23985696D01*
X3528774Y23945691D01*
X3538776Y23869968D01*
X3538776Y23535640D01*
X3528695Y23455154D01*
X3498453Y23383240D01*
X3448050Y23319899D01*
X3383836Y23270686D01*
X3312160Y23241159D01*
X3233023Y23231316D01*
X3149441Y23243103D01*
X3073003Y23278465D01*
X2972633Y23221672D01*
X2862977Y23202741D01*
X2777093Y23213933D01*
X2700417Y23245604D01*
X2632948Y23297753D01*
X2580561Y23364190D01*
X2549128Y23438723D01*
X2538651Y23521353D01*
X2538651Y23535640D01*
X2800112Y23535640D01*
X2801541Y23515637D01*
X2809399Y23493492D01*
X2833687Y23472061D01*
X2878693Y23464203D01*
X2937986Y23482776D01*
X2951559Y23542784D01*
X2951559Y23561358D01*
X2976563Y23642796D01*
X3061573Y23667085D01*
X3143726Y23641368D01*
X3167301Y23554214D01*
X3167301Y23537069D01*
X3177302Y23502779D01*
X3221593Y23492778D01*
X3265884Y23507779D01*
X3277314Y23567073D01*
X3277314Y23739951D01*
X2800112Y23739951D01*
X2800112Y23535640D01*
X2538651Y23535640D01*
X2538651Y23739951D01*
X2538651Y23871396D01*
X2548652Y23945691D01*
X2581513Y23985696D01*
X2621518Y23999269D01*
X2671524Y24001413D01*
X3408759Y24001413D01*
X3456622Y23999269D01*
G37*
%TO.C,kibuzzard-656A367B*%
G36*
X3315573Y49871233D02*
G01*
X3393440Y49838372D01*
X3461623Y49783603D01*
X3514408Y49712801D01*
X3546078Y49631838D01*
X3556635Y49540716D01*
X3544491Y49435544D01*
X3508058Y49346723D01*
X3447336Y49274254D01*
X3365341Y49220676D01*
X3265091Y49188529D01*
X3146584Y49177813D01*
X3041656Y49183928D01*
X2945187Y49202273D01*
X2857176Y49232849D01*
X2777623Y49275654D01*
X2706529Y49330689D01*
X2646350Y49395783D01*
X2599544Y49468764D01*
X2566111Y49549631D01*
X2546052Y49638385D01*
X2539365Y49735026D01*
X2542222Y49780031D01*
X2556510Y49817179D01*
X2596515Y49847183D01*
X2670810Y49856469D01*
X2745105Y49846468D01*
X2785110Y49813607D01*
X2798683Y49773602D01*
X2800826Y49723596D01*
X2816860Y49616598D01*
X2864961Y49533731D01*
X2945130Y49474993D01*
X2933727Y49542144D01*
X3166586Y49542144D01*
X3184446Y49472136D01*
X3233737Y49446418D01*
X3293745Y49467135D01*
X3312319Y49535001D01*
X3294459Y49603581D01*
X3236595Y49625012D01*
X3185874Y49602152D01*
X3166586Y49542144D01*
X2933727Y49542144D01*
X2932271Y49550717D01*
X2942114Y49635569D01*
X2971641Y49712959D01*
X3020854Y49782889D01*
X3083242Y49838054D01*
X3152299Y49871154D01*
X3228022Y49882187D01*
X3315573Y49871233D01*
G37*
D13*
%TO.C,R11*%
X5335000Y4608859D02*
X5335000Y4916141D01*
X6095000Y4608859D02*
X6095000Y4916141D01*
D12*
%TO.C,kibuzzard-656A35B5*%
G36*
X20284202Y23933547D02*
G01*
X20312777Y23832106D01*
X20284202Y23732093D01*
X20182761Y23703518D01*
X19699843Y23703518D01*
X19712702Y23689231D01*
X19754136Y23601362D01*
X19704129Y23516352D01*
X19609832Y23472061D01*
X19564112Y23488491D01*
X19515534Y23532068D01*
X19352657Y23713519D01*
X19334083Y23736379D01*
X19309794Y23833534D01*
X19339084Y23933547D01*
X19441239Y23962122D01*
X20184189Y23962122D01*
X20284202Y23933547D01*
G37*
G36*
X20322421Y24336097D02*
G01*
X20304204Y24267874D01*
X20275094Y24209474D01*
X20236339Y24162861D01*
X20142041Y24092853D01*
X20088463Y24067314D01*
X20029170Y24049276D01*
X19915584Y24029273D01*
X19811286Y24023558D01*
X19751278Y24025344D01*
X19691271Y24030702D01*
X19627691Y24042310D01*
X19556968Y24062849D01*
X19487317Y24091602D01*
X19426952Y24127857D01*
X19375695Y24176077D01*
X19333369Y24240728D01*
X19304972Y24319309D01*
X19295657Y24407892D01*
X19556968Y24407892D01*
X19572952Y24354135D01*
X19620905Y24315738D01*
X19700825Y24292699D01*
X19812714Y24285019D01*
X19923353Y24292610D01*
X20002381Y24315380D01*
X20049798Y24353331D01*
X20065603Y24406463D01*
X20046315Y24465756D01*
X20002738Y24502189D01*
X19938444Y24520763D01*
X19875579Y24528621D01*
X19818429Y24529336D01*
X19811286Y24529336D01*
X19700022Y24521745D01*
X19620548Y24498975D01*
X19572863Y24461024D01*
X19556968Y24407892D01*
X19295657Y24407892D01*
X19295507Y24409321D01*
X19304794Y24496832D01*
X19332654Y24573627D01*
X19374267Y24637206D01*
X19424809Y24685069D01*
X19484459Y24721324D01*
X19553396Y24750078D01*
X19623941Y24770794D01*
X19688413Y24782939D01*
X19750207Y24788832D01*
X19812714Y24790797D01*
X19876830Y24788654D01*
X19940588Y24782224D01*
X20006310Y24769544D01*
X20076319Y24748649D01*
X20144006Y24719895D01*
X20202763Y24683641D01*
X20252412Y24636135D01*
X20292774Y24573627D01*
X20319563Y24498260D01*
X20328493Y24412178D01*
X20328037Y24406463D01*
X20322421Y24336097D01*
G37*
%TO.C,kibuzzard-656A3560*%
G36*
X20284916Y44253547D02*
G01*
X20313491Y44152106D01*
X20284916Y44052093D01*
X20183475Y44023518D01*
X19700557Y44023518D01*
X19713416Y44009231D01*
X19754850Y43921362D01*
X19704844Y43836352D01*
X19610546Y43792061D01*
X19564826Y43808491D01*
X19516249Y43852068D01*
X19353371Y44033519D01*
X19334797Y44056379D01*
X19310509Y44153534D01*
X19339798Y44253547D01*
X19441954Y44282122D01*
X20184904Y44282122D01*
X20284916Y44253547D01*
G37*
G36*
X20080208Y45098653D02*
G01*
X20161409Y45062219D01*
X20231338Y45001498D01*
X20284916Y44922202D01*
X20317063Y44830048D01*
X20327779Y44725034D01*
X20317063Y44627403D01*
X20284916Y44538344D01*
X20231338Y44457858D01*
X20163631Y44394358D01*
X20089098Y44356258D01*
X20007739Y44343558D01*
X19940230Y44379277D01*
X19917727Y44486433D01*
X19933444Y44565014D01*
X20000595Y44606448D01*
X20008453Y44609306D01*
X20025598Y44620021D01*
X20047029Y44641453D01*
X20064174Y44675743D01*
X20072032Y44726463D01*
X20049887Y44815760D01*
X19990594Y44849336D01*
X19928443Y44821832D01*
X19907726Y44739322D01*
X19907726Y44700031D01*
X19901297Y44667170D01*
X19883437Y44635023D01*
X19846290Y44617878D01*
X19783425Y44609306D01*
X19711988Y44618593D01*
X19674840Y44648596D01*
X19662696Y44685029D01*
X19660552Y44730749D01*
X19660552Y44740751D01*
X19651266Y44807188D01*
X19614833Y44827904D01*
X19565541Y44804330D01*
X19547681Y44739322D01*
X19561969Y44677886D01*
X19604831Y44636452D01*
X19663728Y44592954D01*
X19680396Y44532947D01*
X19654837Y44456429D01*
X19576256Y44385706D01*
X19477672Y44406423D01*
X19472672Y44408566D01*
X19456956Y44416424D01*
X19433381Y44430712D01*
X19404806Y44453572D01*
X19374088Y44485004D01*
X19344799Y44527153D01*
X19319796Y44580016D01*
X19302651Y44645739D01*
X19296221Y44725034D01*
X19307016Y44828936D01*
X19339401Y44917757D01*
X19393376Y44991496D01*
X19460527Y45046662D01*
X19532441Y45079761D01*
X19609118Y45090794D01*
X19713773Y45066148D01*
X19784854Y44992211D01*
X19862006Y45072221D01*
X19919156Y45101153D01*
X19987736Y45110797D01*
X20080208Y45098653D01*
G37*
%TO.C,kibuzzard-6569BE4A*%
G36*
X13846572Y32923163D02*
G01*
X13900944Y32858869D01*
X14299406Y32034956D01*
X14320838Y31922244D01*
X14232731Y31844456D01*
X14115256Y31821437D01*
X14037469Y31912719D01*
X13964444Y32063531D01*
X13692981Y32063531D01*
X13573919Y32063531D01*
X13500894Y31911131D01*
X13421519Y31823025D01*
X13305631Y31846044D01*
X13216731Y31923038D01*
X13237369Y32034956D01*
X13370701Y32311181D01*
X13692981Y32311181D01*
X13842206Y32311181D01*
X13767594Y32465169D01*
X13692981Y32311181D01*
X13370701Y32311181D01*
X13635831Y32860456D01*
X13691394Y32921575D01*
X13769181Y32944594D01*
X13846572Y32923163D01*
G37*
G36*
X13104813Y32943800D02*
G01*
X13140531Y32931100D01*
X13170694Y32893794D01*
X13180219Y32823944D01*
X13170694Y32754094D01*
X13139738Y32716788D01*
X13103225Y32704088D01*
X13057981Y32701706D01*
X12838906Y32701706D01*
X12838906Y31974631D01*
X12836525Y31921450D01*
X12821444Y31879381D01*
X12776994Y31844456D01*
X12694444Y31833344D01*
X12612688Y31844456D01*
X12569825Y31880175D01*
X12555537Y31923038D01*
X12553156Y31976219D01*
X12553156Y32701706D01*
X12332494Y32701706D01*
X12287250Y32704088D01*
X12251531Y32716788D01*
X12221369Y32754094D01*
X12211844Y32825531D01*
X12221369Y32894588D01*
X12252325Y32931100D01*
X12288838Y32943800D01*
X12334081Y32946181D01*
X13059569Y32946181D01*
X13104813Y32943800D01*
G37*
G36*
X15249525Y32943800D02*
G01*
X15285244Y32931100D01*
X15315406Y32893794D01*
X15324931Y32823944D01*
X15315406Y32754094D01*
X15284450Y32716788D01*
X15247938Y32704088D01*
X15202694Y32701706D01*
X14983619Y32701706D01*
X14983619Y31974631D01*
X14981238Y31921450D01*
X14966156Y31879381D01*
X14921706Y31844456D01*
X14839156Y31833344D01*
X14757400Y31844456D01*
X14714538Y31880175D01*
X14700250Y31923038D01*
X14697869Y31976219D01*
X14697869Y32701706D01*
X14477206Y32701706D01*
X14431963Y32704088D01*
X14396244Y32716788D01*
X14366081Y32754094D01*
X14356556Y32825531D01*
X14366081Y32894588D01*
X14397038Y32931100D01*
X14433550Y32943800D01*
X14478794Y32946181D01*
X15204281Y32946181D01*
X15249525Y32943800D01*
G37*
G36*
X11863299Y32951473D02*
G01*
X11964370Y32919723D01*
X12046744Y32866806D01*
X12103894Y32785050D01*
X12065794Y32687419D01*
X11972131Y32610425D01*
X11865769Y32639794D01*
X11847512Y32654875D01*
X11825288Y32673131D01*
X11794331Y32685038D01*
X11741944Y32690594D01*
X11683206Y32670750D01*
X11657806Y32622331D01*
X11685587Y32570738D01*
X11748294Y32542956D01*
X11845131Y32523113D01*
X11946731Y32498506D01*
X12036623Y32457231D01*
X12106275Y32396906D01*
X12150923Y32310784D01*
X12165806Y32192119D01*
X12159059Y32116316D01*
X12138819Y32047656D01*
X12069762Y31940500D01*
X11972131Y31869856D01*
X11863388Y31829375D01*
X11757819Y31817469D01*
X11668919Y31824613D01*
X11594306Y31842075D01*
X11533188Y31868269D01*
X11483975Y31898431D01*
X11445875Y31929388D01*
X11418094Y31957169D01*
X11400631Y31979394D01*
X11391106Y31990506D01*
X11351419Y32093694D01*
X11418094Y32195294D01*
X11484063Y32231983D01*
X11552855Y32221399D01*
X11624469Y32163544D01*
X11688763Y32105600D01*
X11751469Y32090519D01*
X11845131Y32113538D01*
X11873706Y32187356D01*
X11832431Y32236569D01*
X11707813Y32273875D01*
X11632208Y32294314D01*
X11572081Y32315944D01*
X11483181Y32366744D01*
X11419681Y32435006D01*
X11381581Y32520731D01*
X11368881Y32623919D01*
X11380699Y32715729D01*
X11416153Y32796427D01*
X11475244Y32866013D01*
X11552326Y32919370D01*
X11641755Y32951385D01*
X11743531Y32962056D01*
X11863299Y32951473D01*
G37*
D11*
%TO.C,U2*%
X14493100Y10795000D02*
X15351900Y10795000D01*
X15351900Y8255000D02*
X14493100Y8255000D01*
D10*
X16038500Y7924800D02*
G75*
G02*
X15838500Y7924800I-100000J0D01*
G01*
X15838500Y7924800D02*
G75*
G02*
X16038500Y7924800I100000J0D01*
G01*
D11*
%TO.C,U5*%
X14213700Y14336600D02*
X14213700Y14873400D01*
X14493100Y15875000D02*
X15351900Y15875000D01*
X15351900Y13335000D02*
X14493100Y13335000D01*
D10*
X16038500Y13004800D02*
G75*
G02*
X15838500Y13004800I-100000J0D01*
G01*
X15838500Y13004800D02*
G75*
G02*
X16038500Y13004800I100000J0D01*
G01*
D12*
%TO.C,kibuzzard-656A482A*%
G36*
X3256280Y31579264D02*
G01*
X3304857Y31535688D01*
X3467735Y31354236D01*
X3486309Y31331376D01*
X3510597Y31234221D01*
X3481308Y31134209D01*
X3379152Y31105634D01*
X2636202Y31105634D01*
X2536190Y31134209D01*
X2507615Y31235650D01*
X2536190Y31335663D01*
X2637631Y31364238D01*
X3120549Y31364238D01*
X3107690Y31378525D01*
X3066256Y31466393D01*
X3116262Y31551404D01*
X3210560Y31595695D01*
X3256280Y31579264D01*
G37*
G36*
X3246120Y32382936D02*
G01*
X3331369Y32348646D01*
X3410585Y32291496D01*
X3474085Y32215931D01*
X3512185Y32126396D01*
X3524885Y32022891D01*
X3512661Y31924308D01*
X3475990Y31836201D01*
X3414871Y31758573D01*
X3336290Y31698248D01*
X3247231Y31662053D01*
X3147695Y31649988D01*
X3075543Y31656953D01*
X3007677Y31677848D01*
X2946956Y31710174D01*
X2896235Y31751429D01*
X2821226Y31838583D01*
X2770505Y31924308D01*
X2770505Y31745714D01*
X2767647Y31696422D01*
X2753360Y31657846D01*
X2713355Y31625699D01*
X2637631Y31615698D01*
X2564051Y31625699D01*
X2524760Y31658560D01*
X2510472Y31699279D01*
X2507615Y31748571D01*
X2507615Y32264350D01*
X2546906Y32355790D01*
X2640489Y32394366D01*
X2712998Y32381508D01*
X2779077Y32342931D01*
X2829977Y32293282D01*
X2882662Y32224345D01*
X2931775Y32148978D01*
X2971959Y32080041D01*
X3011964Y32018069D01*
X3060541Y31963598D01*
X3114119Y31925558D01*
X3169126Y31912878D01*
X3206988Y31917878D01*
X3244136Y31949311D01*
X3263424Y32021463D01*
X3233777Y32105044D01*
X3144837Y32132905D01*
X3099117Y32135048D01*
X3062684Y32148621D01*
X3032681Y32188626D01*
X3023394Y32264350D01*
X3033395Y32338645D01*
X3066256Y32378650D01*
X3105547Y32392223D01*
X3154839Y32394366D01*
X3246120Y32382936D01*
G37*
%TO.C,G\u002A\u002A\u002A*%
G36*
X11995556Y34464749D02*
G01*
X12445056Y34932023D01*
X12866905Y34932023D01*
X12377091Y34454641D01*
X12921858Y33633831D01*
X12490017Y33633831D01*
X12133694Y34213917D01*
X11995556Y34080659D01*
X11995556Y33633831D01*
X11639000Y33633831D01*
X11639000Y35231071D01*
X11995556Y35426601D01*
X11995556Y34464749D01*
G37*
G36*
X11428377Y34967007D02*
G01*
X11433497Y34966829D01*
X11438565Y34966537D01*
X11443584Y34966136D01*
X11453488Y34965027D01*
X11463238Y34963538D01*
X11472863Y34961707D01*
X11482391Y34959568D01*
X11491852Y34957161D01*
X11501273Y34954520D01*
X11501273Y34623175D01*
X11488113Y34625777D01*
X11473440Y34628156D01*
X11457602Y34630274D01*
X11440946Y34632092D01*
X11423822Y34633572D01*
X11406579Y34634677D01*
X11389564Y34635368D01*
X11373126Y34635606D01*
X11348925Y34635066D01*
X11325736Y34633463D01*
X11303545Y34630824D01*
X11282335Y34627173D01*
X11262089Y34622536D01*
X11242793Y34616939D01*
X11224430Y34610408D01*
X11206984Y34602969D01*
X11190438Y34594647D01*
X11174777Y34585468D01*
X11159985Y34575457D01*
X11146045Y34564641D01*
X11132942Y34553045D01*
X11120660Y34540695D01*
X11109182Y34527617D01*
X11098492Y34513835D01*
X11088574Y34499377D01*
X11079413Y34484268D01*
X11070992Y34468533D01*
X11063295Y34452198D01*
X11056306Y34435289D01*
X11050009Y34417831D01*
X11044388Y34399851D01*
X11039427Y34381374D01*
X11035110Y34362426D01*
X11031420Y34343032D01*
X11025860Y34303011D01*
X11022618Y34261516D01*
X11021566Y34218754D01*
X11021566Y33633788D01*
X10665010Y33633788D01*
X10665010Y34871451D01*
X11004023Y34931981D01*
X11004023Y34690792D01*
X11008903Y34690792D01*
X11015555Y34705956D01*
X11022780Y34720814D01*
X11030560Y34735353D01*
X11038880Y34749562D01*
X11047721Y34763430D01*
X11057069Y34776945D01*
X11066905Y34790097D01*
X11077215Y34802873D01*
X11087980Y34815261D01*
X11099184Y34827252D01*
X11110811Y34838832D01*
X11122844Y34849991D01*
X11135267Y34860718D01*
X11148063Y34871000D01*
X11161214Y34880826D01*
X11174706Y34890185D01*
X11188520Y34899066D01*
X11202641Y34907457D01*
X11217052Y34915346D01*
X11231735Y34922723D01*
X11246676Y34929575D01*
X11261856Y34935891D01*
X11277259Y34941660D01*
X11292870Y34946870D01*
X11308670Y34951511D01*
X11324644Y34955569D01*
X11340775Y34959035D01*
X11357046Y34961896D01*
X11373440Y34964141D01*
X11389942Y34965759D01*
X11406534Y34966739D01*
X11423200Y34967068D01*
X11428377Y34967007D01*
G37*
G36*
X13596941Y35426238D02*
G01*
X13620718Y35425349D01*
X13644572Y35424049D01*
X13668403Y35422487D01*
X13715608Y35419166D01*
X13738786Y35417706D01*
X13761550Y35416576D01*
X13761550Y35150292D01*
X13745446Y35152122D01*
X13729158Y35153696D01*
X13712749Y35155015D01*
X13696286Y35156086D01*
X13679834Y35156912D01*
X13663458Y35157497D01*
X13647224Y35157845D01*
X13631196Y35157960D01*
X13613512Y35157482D01*
X13605189Y35156877D01*
X13597208Y35156021D01*
X13589563Y35154910D01*
X13582251Y35153538D01*
X13575267Y35151900D01*
X13568608Y35149990D01*
X13562269Y35147805D01*
X13556247Y35145339D01*
X13550536Y35142587D01*
X13545133Y35139543D01*
X13540034Y35136203D01*
X13535235Y35132562D01*
X13530731Y35128614D01*
X13526518Y35124355D01*
X13522593Y35119779D01*
X13518951Y35114882D01*
X13515588Y35109658D01*
X13512500Y35104102D01*
X13509683Y35098209D01*
X13507132Y35091975D01*
X13504844Y35085394D01*
X13502814Y35078460D01*
X13501039Y35071170D01*
X13499513Y35063517D01*
X13498234Y35055498D01*
X13497196Y35047106D01*
X13495830Y35029185D01*
X13495382Y35009714D01*
X13495382Y34931990D01*
X13741335Y34931990D01*
X13741335Y34693473D01*
X13495382Y34693473D01*
X13495382Y33633681D01*
X13138826Y33633681D01*
X13138826Y34693473D01*
X12787150Y34693473D01*
X13030198Y34931990D01*
X13138826Y34931990D01*
X13138826Y35032137D01*
X13139246Y35053610D01*
X13140506Y35074667D01*
X13142607Y35095291D01*
X13145550Y35115464D01*
X13149336Y35135170D01*
X13153966Y35154390D01*
X13159440Y35173107D01*
X13165760Y35191303D01*
X13172926Y35208962D01*
X13180939Y35226066D01*
X13189801Y35242597D01*
X13199511Y35258538D01*
X13210071Y35273871D01*
X13221482Y35288580D01*
X13233744Y35302645D01*
X13246859Y35316051D01*
X13260827Y35328780D01*
X13275649Y35340814D01*
X13291327Y35352136D01*
X13307860Y35362728D01*
X13325250Y35372572D01*
X13343498Y35381653D01*
X13362604Y35389951D01*
X13382570Y35397450D01*
X13403396Y35404132D01*
X13425083Y35409980D01*
X13447632Y35414976D01*
X13471044Y35419102D01*
X13495320Y35422342D01*
X13520460Y35424678D01*
X13546466Y35426092D01*
X13573339Y35426568D01*
X13596941Y35426238D01*
G37*
G36*
X14198191Y34198855D02*
G01*
X14198909Y34160083D01*
X14201110Y34123842D01*
X14204863Y34090129D01*
X14210237Y34058938D01*
X14217302Y34030266D01*
X14226128Y34004108D01*
X14231223Y33991971D01*
X14236784Y33980462D01*
X14242820Y33969578D01*
X14249339Y33959321D01*
X14256350Y33949690D01*
X14263862Y33940683D01*
X14271884Y33932301D01*
X14280424Y33924543D01*
X14289491Y33917409D01*
X14299094Y33910898D01*
X14309240Y33905009D01*
X14319940Y33899743D01*
X14331201Y33895098D01*
X14343033Y33891074D01*
X14355443Y33887670D01*
X14368441Y33884886D01*
X14382036Y33882722D01*
X14396235Y33881177D01*
X14411049Y33880250D01*
X14426484Y33879941D01*
X14444306Y33880259D01*
X14461484Y33881219D01*
X14478022Y33882829D01*
X14493927Y33885099D01*
X14509203Y33888036D01*
X14523855Y33891649D01*
X14537888Y33895948D01*
X14551309Y33900941D01*
X14564120Y33906636D01*
X14576329Y33913042D01*
X14587940Y33920169D01*
X14598958Y33928023D01*
X14609389Y33936615D01*
X14619236Y33945953D01*
X14628507Y33956046D01*
X14637205Y33966902D01*
X14645337Y33978529D01*
X14652906Y33990938D01*
X14659919Y34004136D01*
X14666380Y34018131D01*
X14672294Y34032934D01*
X14677667Y34048552D01*
X14682505Y34064993D01*
X14686811Y34082268D01*
X14690591Y34100384D01*
X14693850Y34119350D01*
X14696594Y34139175D01*
X14698827Y34159867D01*
X14700556Y34181435D01*
X14701784Y34203888D01*
X14702760Y34251484D01*
X14702760Y34931949D01*
X15059432Y34931949D01*
X15059432Y33633756D01*
X14720303Y33633756D01*
X14720303Y33814648D01*
X14712751Y33814648D01*
X14704109Y33800996D01*
X14695095Y33787812D01*
X14685722Y33775093D01*
X14676004Y33762839D01*
X14665953Y33751045D01*
X14655581Y33739711D01*
X14644903Y33728833D01*
X14633931Y33718410D01*
X14622677Y33708439D01*
X14611155Y33698917D01*
X14599378Y33689844D01*
X14587359Y33681216D01*
X14562645Y33665286D01*
X14537116Y33651111D01*
X14510878Y33638671D01*
X14484031Y33627949D01*
X14456682Y33618927D01*
X14428931Y33611586D01*
X14400885Y33605908D01*
X14372644Y33601875D01*
X14344314Y33599468D01*
X14315998Y33598670D01*
X14281283Y33599292D01*
X14248196Y33601144D01*
X14216703Y33604208D01*
X14186768Y33608463D01*
X14158358Y33613891D01*
X14131438Y33620473D01*
X14105973Y33628189D01*
X14081930Y33637020D01*
X14059272Y33646947D01*
X14037967Y33657950D01*
X14017980Y33670010D01*
X13999275Y33683108D01*
X13981819Y33697224D01*
X13965577Y33712340D01*
X13950515Y33728436D01*
X13936598Y33745492D01*
X13923791Y33763490D01*
X13912061Y33782410D01*
X13901372Y33802233D01*
X13891691Y33822940D01*
X13882982Y33844511D01*
X13875211Y33866927D01*
X13868344Y33890169D01*
X13862346Y33914218D01*
X13852821Y33964657D01*
X13846358Y34018092D01*
X13842683Y34074367D01*
X13841520Y34133329D01*
X13841520Y34931949D01*
X14198191Y34931949D01*
X14198191Y34198855D01*
G37*
G36*
X16034361Y34966365D02*
G01*
X16067448Y34964511D01*
X16098941Y34961446D01*
X16128876Y34957189D01*
X16157286Y34951758D01*
X16184206Y34945173D01*
X16209670Y34937454D01*
X16233714Y34928620D01*
X16256371Y34918690D01*
X16277676Y34907683D01*
X16297664Y34895620D01*
X16316369Y34882518D01*
X16333825Y34868398D01*
X16350066Y34853279D01*
X16365129Y34837180D01*
X16379046Y34820121D01*
X16391852Y34802120D01*
X16403583Y34783198D01*
X16414272Y34763373D01*
X16423953Y34742666D01*
X16432662Y34721094D01*
X16440433Y34698678D01*
X16447300Y34675437D01*
X16453297Y34651390D01*
X16462823Y34600956D01*
X16469286Y34547531D01*
X16472961Y34491270D01*
X16474124Y34432328D01*
X16474124Y33633708D01*
X16117569Y33633708D01*
X16117569Y34366802D01*
X16116849Y34405575D01*
X16114640Y34441819D01*
X16110876Y34475539D01*
X16105487Y34506737D01*
X16098404Y34535418D01*
X16089558Y34561585D01*
X16084453Y34573727D01*
X16078881Y34585243D01*
X16072835Y34596131D01*
X16066305Y34606394D01*
X16059282Y34616031D01*
X16051759Y34625043D01*
X16043727Y34633430D01*
X16035177Y34641193D01*
X16026100Y34648332D01*
X16016488Y34654848D01*
X16006332Y34660742D01*
X15995624Y34666012D01*
X15984355Y34670661D01*
X15972516Y34674689D01*
X15960099Y34678096D01*
X15947096Y34680882D01*
X15933497Y34683048D01*
X15919294Y34684595D01*
X15904479Y34685523D01*
X15889043Y34685832D01*
X15871243Y34685514D01*
X15854086Y34684554D01*
X15837567Y34682944D01*
X15821682Y34680674D01*
X15806425Y34677737D01*
X15791791Y34674122D01*
X15777775Y34669823D01*
X15764371Y34664829D01*
X15751575Y34659132D01*
X15739382Y34652724D01*
X15727786Y34645595D01*
X15716782Y34637738D01*
X15706365Y34629142D01*
X15696529Y34619800D01*
X15687271Y34609703D01*
X15678583Y34598842D01*
X15670463Y34587209D01*
X15662903Y34574794D01*
X15655900Y34561589D01*
X15649447Y34547585D01*
X15643541Y34532773D01*
X15638174Y34517146D01*
X15633344Y34500693D01*
X15629044Y34483407D01*
X15625269Y34465278D01*
X15622014Y34446298D01*
X15619273Y34426458D01*
X15617043Y34405750D01*
X15615317Y34384164D01*
X15614091Y34361693D01*
X15613116Y34314056D01*
X15613116Y33633708D01*
X15256328Y33633708D01*
X15256328Y34931901D01*
X15595224Y34931901D01*
X15595224Y34751125D01*
X15602893Y34751125D01*
X15611545Y34764767D01*
X15620567Y34777941D01*
X15629946Y34790650D01*
X15639669Y34802896D01*
X15649723Y34814682D01*
X15660096Y34826009D01*
X15670775Y34836879D01*
X15681746Y34847296D01*
X15692998Y34857262D01*
X15704517Y34866777D01*
X15716290Y34875846D01*
X15728306Y34884470D01*
X15753010Y34900391D01*
X15778528Y34914561D01*
X15804756Y34926995D01*
X15831592Y34937713D01*
X15858934Y34946733D01*
X15886680Y34954073D01*
X15914726Y34959750D01*
X15942971Y34963782D01*
X15971312Y34966189D01*
X15999646Y34966987D01*
X16034361Y34966365D01*
G37*
G36*
X8587462Y34966014D02*
G01*
X8623639Y34963185D01*
X8658522Y34958535D01*
X8692118Y34952116D01*
X8724434Y34943981D01*
X8755478Y34934184D01*
X8785257Y34922777D01*
X8813778Y34909812D01*
X8841049Y34895344D01*
X8867077Y34879424D01*
X8891869Y34862107D01*
X8915433Y34843443D01*
X8937775Y34823487D01*
X8958904Y34802292D01*
X8978827Y34779910D01*
X8997551Y34756393D01*
X9015083Y34731796D01*
X9031431Y34706171D01*
X9046602Y34679570D01*
X9060603Y34652047D01*
X9073442Y34623655D01*
X9085126Y34594446D01*
X9095663Y34564473D01*
X9105059Y34533789D01*
X9113322Y34502448D01*
X9120460Y34470501D01*
X9131388Y34405004D01*
X9137902Y34337722D01*
X9140060Y34269077D01*
X9137852Y34204416D01*
X9131222Y34140733D01*
X9120164Y34078467D01*
X9104671Y34018060D01*
X9084733Y33959952D01*
X9060346Y33904585D01*
X9046481Y33878067D01*
X9031501Y33852399D01*
X9015404Y33827637D01*
X8998190Y33803835D01*
X8979858Y33781049D01*
X8960407Y33759334D01*
X8939836Y33738744D01*
X8918144Y33719336D01*
X8895331Y33701163D01*
X8871394Y33684282D01*
X8846334Y33668747D01*
X8820150Y33654613D01*
X8792840Y33641936D01*
X8764404Y33630770D01*
X8734840Y33621171D01*
X8704149Y33613194D01*
X8672328Y33606893D01*
X8639377Y33602325D01*
X8605296Y33599543D01*
X8570082Y33598604D01*
X8540580Y33599397D01*
X8511497Y33601769D01*
X8482889Y33605708D01*
X8454817Y33611202D01*
X8427339Y33618240D01*
X8400512Y33626811D01*
X8374396Y33636902D01*
X8349050Y33648503D01*
X8324531Y33661601D01*
X8300899Y33676185D01*
X8278211Y33692244D01*
X8256527Y33709766D01*
X8235905Y33728739D01*
X8216403Y33749152D01*
X8198081Y33770993D01*
X8180996Y33794250D01*
X8175768Y33794250D01*
X8175768Y32859583D01*
X7819212Y33176755D01*
X7819212Y34279069D01*
X8163337Y34279069D01*
X8164292Y34239696D01*
X8167228Y34200840D01*
X8172249Y34162779D01*
X8179458Y34125793D01*
X8188961Y34090161D01*
X8200862Y34056162D01*
X8215265Y34024076D01*
X8223438Y34008837D01*
X8232275Y33994181D01*
X8241789Y33980143D01*
X8251995Y33966758D01*
X8262904Y33954060D01*
X8274530Y33942085D01*
X8286886Y33930867D01*
X8299984Y33920441D01*
X8313839Y33910843D01*
X8328463Y33902107D01*
X8343868Y33894268D01*
X8360069Y33887361D01*
X8377077Y33881420D01*
X8394907Y33876482D01*
X8413571Y33872580D01*
X8433082Y33869750D01*
X8453454Y33868026D01*
X8474698Y33867444D01*
X8496130Y33868026D01*
X8516648Y33869750D01*
X8536270Y33872580D01*
X8555009Y33876482D01*
X8572881Y33881420D01*
X8589901Y33887361D01*
X8606085Y33894268D01*
X8621448Y33902107D01*
X8636005Y33910843D01*
X8649771Y33920441D01*
X8662761Y33930867D01*
X8674991Y33942085D01*
X8686477Y33954060D01*
X8697232Y33966758D01*
X8707273Y33980143D01*
X8716614Y33994181D01*
X8725271Y34008837D01*
X8733259Y34024076D01*
X8740594Y34039862D01*
X8747290Y34056162D01*
X8753363Y34072940D01*
X8758828Y34090161D01*
X8763700Y34107790D01*
X8767994Y34125793D01*
X8774912Y34162779D01*
X8779702Y34200840D01*
X8782487Y34239696D01*
X8783388Y34279069D01*
X8782403Y34318106D01*
X8779388Y34356893D01*
X8774249Y34395117D01*
X8766894Y34432464D01*
X8757232Y34468622D01*
X8745170Y34503278D01*
X8730616Y34536119D01*
X8722375Y34551761D01*
X8713477Y34566832D01*
X8703909Y34581292D01*
X8693661Y34595103D01*
X8682721Y34608226D01*
X8671077Y34620620D01*
X8658718Y34632249D01*
X8645632Y34643071D01*
X8631807Y34653048D01*
X8617233Y34662141D01*
X8601897Y34670311D01*
X8585788Y34677518D01*
X8568895Y34683724D01*
X8551206Y34688889D01*
X8532709Y34692975D01*
X8513394Y34695942D01*
X8493247Y34697750D01*
X8472259Y34698362D01*
X8450817Y34697757D01*
X8430287Y34695968D01*
X8410655Y34693033D01*
X8391905Y34688989D01*
X8374022Y34683875D01*
X8356991Y34677727D01*
X8340797Y34670584D01*
X8325424Y34662484D01*
X8310857Y34653464D01*
X8297081Y34643562D01*
X8284081Y34632816D01*
X8271841Y34621264D01*
X8260347Y34608943D01*
X8249582Y34595891D01*
X8239533Y34582146D01*
X8230184Y34567746D01*
X8221518Y34552729D01*
X8213523Y34537132D01*
X8206181Y34520993D01*
X8199478Y34504350D01*
X8193398Y34487241D01*
X8187928Y34469703D01*
X8183050Y34451775D01*
X8178750Y34433493D01*
X8171824Y34396023D01*
X8167028Y34357593D01*
X8164239Y34318508D01*
X8163337Y34279069D01*
X7819212Y34279069D01*
X7819212Y34871470D01*
X8158341Y34931883D01*
X8158341Y34766211D01*
X8163337Y34766211D01*
X8171728Y34779165D01*
X8180407Y34791651D01*
X8189370Y34803672D01*
X8198611Y34815232D01*
X8208125Y34826334D01*
X8217908Y34836983D01*
X8227954Y34847182D01*
X8238258Y34856934D01*
X8248815Y34866245D01*
X8259621Y34875117D01*
X8270670Y34883554D01*
X8281957Y34891560D01*
X8293477Y34899139D01*
X8305226Y34906295D01*
X8317197Y34913030D01*
X8329387Y34919350D01*
X8341789Y34925258D01*
X8354400Y34930757D01*
X8380225Y34940545D01*
X8406823Y34948744D01*
X8434152Y34955386D01*
X8462172Y34960499D01*
X8490845Y34964113D01*
X8520128Y34966260D01*
X8549983Y34966969D01*
X8587462Y34966014D01*
G37*
G36*
X9941923Y34966228D02*
G01*
X9991667Y34963867D01*
X10041580Y34959581D01*
X10091129Y34953084D01*
X10139780Y34944087D01*
X10187000Y34932305D01*
X10232255Y34917449D01*
X10275011Y34899233D01*
X10295286Y34888775D01*
X10314735Y34877369D01*
X10333294Y34864980D01*
X10350894Y34851571D01*
X10367469Y34837107D01*
X10382954Y34821551D01*
X10397279Y34804869D01*
X10410380Y34787023D01*
X10422190Y34767978D01*
X10432641Y34747699D01*
X10441668Y34726149D01*
X10449202Y34703292D01*
X10455179Y34679092D01*
X10459530Y34653515D01*
X10462190Y34626523D01*
X10463092Y34598080D01*
X10463092Y33922378D01*
X10463694Y33878280D01*
X10465560Y33834937D01*
X10468777Y33793116D01*
X10473432Y33753584D01*
X10476325Y33734915D01*
X10479611Y33717107D01*
X10483300Y33700253D01*
X10487402Y33684451D01*
X10491930Y33669796D01*
X10496893Y33656384D01*
X10502302Y33644310D01*
X10508170Y33633671D01*
X10146850Y33633671D01*
X10142230Y33648865D01*
X10137906Y33664272D01*
X10133933Y33679856D01*
X10130367Y33695581D01*
X10127264Y33711409D01*
X10124680Y33727304D01*
X10122670Y33743228D01*
X10121291Y33759146D01*
X10099581Y33737891D01*
X10076764Y33718357D01*
X10052918Y33700496D01*
X10028120Y33684261D01*
X10002447Y33669602D01*
X9975976Y33656471D01*
X9948786Y33644820D01*
X9920953Y33634601D01*
X9892555Y33625765D01*
X9863670Y33618264D01*
X9834374Y33612050D01*
X9804746Y33607074D01*
X9774863Y33603288D01*
X9744801Y33600643D01*
X9714639Y33599092D01*
X9684455Y33598585D01*
X9638541Y33600031D01*
X9594126Y33604387D01*
X9551410Y33611685D01*
X9510597Y33621954D01*
X9490967Y33628212D01*
X9471888Y33635224D01*
X9453386Y33642994D01*
X9435485Y33651526D01*
X9418212Y33660823D01*
X9401591Y33670889D01*
X9385647Y33681728D01*
X9370406Y33693344D01*
X9355893Y33705741D01*
X9342134Y33718921D01*
X9329153Y33732890D01*
X9316976Y33747650D01*
X9305628Y33763206D01*
X9295134Y33779562D01*
X9285520Y33796720D01*
X9276811Y33814685D01*
X9269031Y33833461D01*
X9262207Y33853051D01*
X9256364Y33873459D01*
X9251526Y33894689D01*
X9247720Y33916745D01*
X9244970Y33939630D01*
X9243301Y33963348D01*
X9242739Y33987903D01*
X9243569Y34002775D01*
X9599063Y34002775D01*
X9599362Y33990810D01*
X9600248Y33979394D01*
X9601705Y33968516D01*
X9603717Y33958163D01*
X9606266Y33948327D01*
X9609336Y33938994D01*
X9612910Y33930155D01*
X9616973Y33921797D01*
X9621506Y33913911D01*
X9626495Y33906485D01*
X9631922Y33899508D01*
X9637771Y33892968D01*
X9644025Y33886856D01*
X9650668Y33881159D01*
X9657682Y33875867D01*
X9665053Y33870969D01*
X9672762Y33866453D01*
X9680794Y33862308D01*
X9689132Y33858525D01*
X9697759Y33855090D01*
X9706659Y33851994D01*
X9715815Y33849225D01*
X9725211Y33846772D01*
X9734830Y33844625D01*
X9754671Y33841201D01*
X9775206Y33838865D01*
X9796303Y33837528D01*
X9817829Y33837102D01*
X9843169Y33837732D01*
X9866982Y33839576D01*
X9889316Y33842570D01*
X9910218Y33846649D01*
X9929736Y33851747D01*
X9947916Y33857798D01*
X9964807Y33864738D01*
X9980455Y33872501D01*
X9994909Y33881021D01*
X10008214Y33890234D01*
X10020420Y33900074D01*
X10031572Y33910475D01*
X10041719Y33921373D01*
X10050907Y33932701D01*
X10059185Y33944396D01*
X10066599Y33956390D01*
X10073197Y33968619D01*
X10079026Y33981018D01*
X10084133Y33993521D01*
X10088567Y34006062D01*
X10095600Y34031001D01*
X10100505Y34055310D01*
X10103661Y34078467D01*
X10105446Y34099950D01*
X10106420Y34135801D01*
X10106420Y34269059D01*
X10100578Y34264249D01*
X10094370Y34259721D01*
X10087809Y34255465D01*
X10080910Y34251466D01*
X10066157Y34244192D01*
X10050229Y34237801D01*
X10033243Y34232192D01*
X10015316Y34227265D01*
X9996567Y34222920D01*
X9977112Y34219058D01*
X9810161Y34193542D01*
X9789583Y34189559D01*
X9769369Y34184993D01*
X9749652Y34179740D01*
X9730565Y34173701D01*
X9712242Y34166772D01*
X9694814Y34158853D01*
X9678416Y34149841D01*
X9670644Y34144894D01*
X9663179Y34139635D01*
X9656038Y34134052D01*
X9649237Y34128132D01*
X9642794Y34121863D01*
X9636723Y34115232D01*
X9631043Y34108226D01*
X9625770Y34100832D01*
X9620920Y34093038D01*
X9616510Y34084830D01*
X9612556Y34076197D01*
X9609076Y34067126D01*
X9606086Y34057603D01*
X9603602Y34047616D01*
X9601641Y34037153D01*
X9600220Y34026200D01*
X9599355Y34014745D01*
X9599063Y34002775D01*
X9243569Y34002775D01*
X9245678Y34040593D01*
X9253387Y34088251D01*
X9265544Y34131154D01*
X9281828Y34169579D01*
X9301916Y34203803D01*
X9325487Y34234104D01*
X9352219Y34260759D01*
X9381790Y34284044D01*
X9413878Y34304237D01*
X9448162Y34321616D01*
X9484319Y34336456D01*
X9522027Y34349036D01*
X9560966Y34359632D01*
X9600812Y34368522D01*
X9681942Y34382291D01*
X9840937Y34401544D01*
X9913652Y34411462D01*
X9978413Y34424531D01*
X10007006Y34432940D01*
X10032645Y34442968D01*
X10055008Y34454892D01*
X10073773Y34468989D01*
X10088619Y34485537D01*
X10099223Y34504812D01*
X10105264Y34527092D01*
X10106420Y34552654D01*
X10106113Y34566417D01*
X10105203Y34579463D01*
X10103706Y34591811D01*
X10101637Y34603480D01*
X10099012Y34614488D01*
X10095847Y34624852D01*
X10092158Y34634592D01*
X10087960Y34643726D01*
X10083269Y34652272D01*
X10078100Y34660248D01*
X10072470Y34667673D01*
X10066394Y34674564D01*
X10059888Y34680941D01*
X10052968Y34686822D01*
X10045648Y34692224D01*
X10037946Y34697167D01*
X10029877Y34701668D01*
X10021456Y34705746D01*
X10012699Y34709419D01*
X10003622Y34712706D01*
X9994241Y34715624D01*
X9984571Y34718193D01*
X9974628Y34720430D01*
X9964428Y34722354D01*
X9943319Y34725335D01*
X9921370Y34727283D01*
X9898706Y34728345D01*
X9875454Y34728666D01*
X9850176Y34728008D01*
X9826164Y34726005D01*
X9803447Y34722614D01*
X9782055Y34717792D01*
X9771864Y34714831D01*
X9762016Y34711496D01*
X9752514Y34707781D01*
X9743361Y34703681D01*
X9734562Y34699192D01*
X9726119Y34694306D01*
X9718037Y34689020D01*
X9710319Y34683327D01*
X9702969Y34677222D01*
X9695991Y34670700D01*
X9689388Y34663755D01*
X9683164Y34656383D01*
X9677323Y34648576D01*
X9671868Y34640331D01*
X9666803Y34631642D01*
X9662132Y34622503D01*
X9657858Y34612909D01*
X9653985Y34602854D01*
X9650517Y34592334D01*
X9647458Y34581342D01*
X9644810Y34569874D01*
X9642579Y34557923D01*
X9640766Y34545485D01*
X9639377Y34532554D01*
X9282705Y34532554D01*
X9285397Y34562963D01*
X9289670Y34592056D01*
X9295471Y34619856D01*
X9302748Y34646386D01*
X9311448Y34671668D01*
X9321519Y34695727D01*
X9332909Y34718585D01*
X9345565Y34740264D01*
X9359435Y34760789D01*
X9374467Y34780181D01*
X9390607Y34798465D01*
X9407803Y34815662D01*
X9426004Y34831796D01*
X9445157Y34846890D01*
X9465208Y34860968D01*
X9486107Y34874051D01*
X9507800Y34886163D01*
X9530235Y34897327D01*
X9553359Y34907565D01*
X9577121Y34916902D01*
X9601467Y34925360D01*
X9626346Y34932961D01*
X9651705Y34939730D01*
X9677491Y34945688D01*
X9730137Y34955267D01*
X9783863Y34961880D01*
X9838251Y34965714D01*
X9892881Y34966951D01*
X9941923Y34966228D01*
G37*
G36*
X7121486Y34965798D02*
G01*
X7173262Y34962229D01*
X7223979Y34956051D01*
X7273317Y34947075D01*
X7320958Y34935114D01*
X7366581Y34919978D01*
X7409869Y34901481D01*
X7430538Y34890912D01*
X7450502Y34879433D01*
X7469724Y34867019D01*
X7488162Y34853646D01*
X7505778Y34839292D01*
X7522530Y34823933D01*
X7538379Y34807545D01*
X7553286Y34790105D01*
X7567210Y34771588D01*
X7580112Y34751973D01*
X7591951Y34731234D01*
X7602689Y34709349D01*
X7612284Y34686295D01*
X7620697Y34662046D01*
X7627889Y34636581D01*
X7633819Y34609875D01*
X7638447Y34581905D01*
X7641734Y34552648D01*
X7302838Y34552648D01*
X7301592Y34565307D01*
X7299803Y34577389D01*
X7297484Y34588907D01*
X7294647Y34599872D01*
X7291307Y34610295D01*
X7287476Y34620187D01*
X7283167Y34629561D01*
X7278395Y34638427D01*
X7273172Y34646797D01*
X7267511Y34654682D01*
X7261426Y34662094D01*
X7254929Y34669045D01*
X7248035Y34675544D01*
X7240757Y34681605D01*
X7233107Y34687239D01*
X7225099Y34692456D01*
X7216746Y34697268D01*
X7208062Y34701688D01*
X7199060Y34705725D01*
X7189752Y34709392D01*
X7180153Y34712700D01*
X7170275Y34715660D01*
X7160132Y34718285D01*
X7149737Y34720584D01*
X7128243Y34724255D01*
X7105901Y34726763D01*
X7082815Y34728201D01*
X7059093Y34728660D01*
X7043614Y34728491D01*
X7027479Y34727900D01*
X7010915Y34726769D01*
X6994152Y34724975D01*
X6977417Y34722399D01*
X6960939Y34718919D01*
X6944947Y34714415D01*
X6929668Y34708765D01*
X6922368Y34705473D01*
X6915332Y34701849D01*
X6908588Y34697878D01*
X6902166Y34693546D01*
X6896093Y34688836D01*
X6890399Y34683735D01*
X6885112Y34678226D01*
X6880259Y34672295D01*
X6875871Y34665927D01*
X6871975Y34659106D01*
X6868601Y34651818D01*
X6865775Y34644047D01*
X6863528Y34635778D01*
X6861888Y34626996D01*
X6860883Y34617687D01*
X6860541Y34607834D01*
X6861132Y34596171D01*
X6862878Y34585127D01*
X6865741Y34574676D01*
X6869685Y34564794D01*
X6874671Y34555454D01*
X6880661Y34546630D01*
X6887617Y34538298D01*
X6895503Y34530431D01*
X6904279Y34523004D01*
X6913908Y34515991D01*
X6924353Y34509367D01*
X6935575Y34503106D01*
X6947537Y34497183D01*
X6960200Y34491572D01*
X6973528Y34486247D01*
X6987482Y34481183D01*
X7017118Y34471735D01*
X7048806Y34463023D01*
X7082243Y34454842D01*
X7117126Y34446988D01*
X7190024Y34431441D01*
X7227433Y34423338D01*
X7265079Y34414743D01*
X7304013Y34405412D01*
X7342546Y34395233D01*
X7380387Y34384004D01*
X7417246Y34371524D01*
X7452830Y34357590D01*
X7486849Y34341999D01*
X7519010Y34324550D01*
X7549023Y34305040D01*
X7563133Y34294449D01*
X7576596Y34283268D01*
X7589377Y34271470D01*
X7601438Y34259030D01*
X7612744Y34245924D01*
X7623258Y34232126D01*
X7632943Y34217610D01*
X7641763Y34202352D01*
X7649683Y34186326D01*
X7656664Y34169506D01*
X7662671Y34151869D01*
X7667668Y34133387D01*
X7671618Y34114037D01*
X7674484Y34093792D01*
X7676230Y34072628D01*
X7676821Y34050519D01*
X7675954Y34019171D01*
X7673392Y33989155D01*
X7669189Y33960450D01*
X7663402Y33933033D01*
X7656086Y33906882D01*
X7647297Y33881975D01*
X7637090Y33858290D01*
X7625522Y33835805D01*
X7612647Y33814497D01*
X7598522Y33794345D01*
X7583202Y33775327D01*
X7566743Y33757419D01*
X7549200Y33740601D01*
X7530630Y33724851D01*
X7511087Y33710145D01*
X7490628Y33696461D01*
X7469308Y33683779D01*
X7447183Y33672075D01*
X7424309Y33661328D01*
X7400740Y33651514D01*
X7376534Y33642613D01*
X7351745Y33634603D01*
X7326430Y33627460D01*
X7300643Y33621162D01*
X7247879Y33611017D01*
X7193899Y33603990D01*
X7139148Y33599903D01*
X7084071Y33598580D01*
X7027733Y33599931D01*
X6971918Y33604100D01*
X6917034Y33611260D01*
X6863489Y33621585D01*
X6811693Y33635250D01*
X6762054Y33652427D01*
X6714979Y33673291D01*
X6692531Y33685160D01*
X6670878Y33698015D01*
X6650070Y33711879D01*
X6630159Y33726774D01*
X6611195Y33742720D01*
X6593230Y33759740D01*
X6576314Y33777855D01*
X6560500Y33797087D01*
X6545837Y33817459D01*
X6532377Y33838990D01*
X6520171Y33861704D01*
X6509270Y33885622D01*
X6499725Y33910766D01*
X6491587Y33937157D01*
X6484907Y33964818D01*
X6479737Y33993769D01*
X6476126Y34024033D01*
X6474127Y34055631D01*
X6812908Y34055631D01*
X6813302Y34041532D01*
X6814467Y34027943D01*
X6816379Y34014859D01*
X6819013Y34002277D01*
X6822345Y33990193D01*
X6826351Y33978603D01*
X6831006Y33967501D01*
X6836285Y33956886D01*
X6842165Y33946751D01*
X6848620Y33937094D01*
X6855626Y33927909D01*
X6863159Y33919194D01*
X6871194Y33910944D01*
X6879707Y33903155D01*
X6888673Y33895822D01*
X6898068Y33888942D01*
X6907867Y33882511D01*
X6918046Y33876524D01*
X6928581Y33870978D01*
X6939446Y33865868D01*
X6950618Y33861190D01*
X6962072Y33856941D01*
X6973784Y33853115D01*
X6985729Y33849710D01*
X6997882Y33846720D01*
X7010220Y33844143D01*
X7035350Y33840207D01*
X7060923Y33837869D01*
X7086743Y33837097D01*
X7105908Y33837578D01*
X7125597Y33839064D01*
X7145569Y33841623D01*
X7165579Y33845320D01*
X7185385Y33850222D01*
X7204743Y33856396D01*
X7223411Y33863907D01*
X7241146Y33872822D01*
X7249588Y33877827D01*
X7257705Y33883208D01*
X7265467Y33888973D01*
X7272845Y33895130D01*
X7279806Y33901688D01*
X7286322Y33908656D01*
X7292361Y33916040D01*
X7297893Y33923851D01*
X7302888Y33932095D01*
X7307316Y33940781D01*
X7311146Y33949919D01*
X7314348Y33959515D01*
X7316891Y33969578D01*
X7318745Y33980116D01*
X7319880Y33991139D01*
X7320265Y34002653D01*
X7319825Y34012587D01*
X7318511Y34022138D01*
X7316331Y34031321D01*
X7313295Y34040152D01*
X7309411Y34048644D01*
X7304687Y34056813D01*
X7299133Y34064672D01*
X7292758Y34072237D01*
X7285569Y34079523D01*
X7277576Y34086543D01*
X7268788Y34093313D01*
X7259213Y34099846D01*
X7248860Y34106159D01*
X7237737Y34112265D01*
X7225854Y34118179D01*
X7213220Y34123916D01*
X7199842Y34129490D01*
X7185730Y34134915D01*
X7170893Y34140208D01*
X7155338Y34145382D01*
X7122114Y34155431D01*
X7086128Y34165181D01*
X7047450Y34174749D01*
X7006149Y34184251D01*
X6962295Y34193805D01*
X6915959Y34203528D01*
X6838426Y34222693D01*
X6800565Y34233503D01*
X6763695Y34245409D01*
X6728106Y34258621D01*
X6694088Y34273349D01*
X6661932Y34289803D01*
X6631929Y34308191D01*
X6617825Y34318176D01*
X6604368Y34328724D01*
X6591594Y34339860D01*
X6579539Y34351610D01*
X6568241Y34364002D01*
X6557734Y34377060D01*
X6548056Y34390812D01*
X6539243Y34405283D01*
X6531330Y34420500D01*
X6524355Y34436488D01*
X6518353Y34453274D01*
X6513361Y34470885D01*
X6509416Y34489346D01*
X6506552Y34508683D01*
X6504808Y34528923D01*
X6504218Y34550092D01*
X6505047Y34580461D01*
X6507498Y34609416D01*
X6511518Y34636987D01*
X6517053Y34663203D01*
X6524049Y34688094D01*
X6532452Y34711689D01*
X6542209Y34734018D01*
X6553266Y34755110D01*
X6565569Y34774994D01*
X6579065Y34793701D01*
X6593699Y34811260D01*
X6609419Y34827700D01*
X6626170Y34843050D01*
X6643899Y34857341D01*
X6662552Y34870601D01*
X6682075Y34882860D01*
X6702414Y34894148D01*
X6723517Y34904494D01*
X6745328Y34913928D01*
X6767795Y34922478D01*
X6790864Y34930175D01*
X6814481Y34937048D01*
X6838591Y34943127D01*
X6863143Y34948440D01*
X6913352Y34956890D01*
X6964680Y34962634D01*
X7016695Y34965907D01*
X7068968Y34966945D01*
X7121486Y34965798D01*
G37*
%TO.C,kibuzzard-656A359E*%
G36*
X20277772Y31584979D02*
G01*
X20306347Y31483538D01*
X20277772Y31383526D01*
X20176331Y31354951D01*
X19693414Y31354951D01*
X19706272Y31340663D01*
X19747706Y31252795D01*
X19697700Y31167784D01*
X19603402Y31123493D01*
X19557682Y31139924D01*
X19509105Y31183501D01*
X19346227Y31364952D01*
X19327654Y31387812D01*
X19303365Y31484967D01*
X19332654Y31584979D01*
X19434810Y31613554D01*
X20177760Y31613554D01*
X20277772Y31584979D01*
G37*
G36*
X20308491Y31932086D02*
G01*
X20272058Y31843742D01*
X20211336Y31771431D01*
X20129341Y31717853D01*
X20029091Y31685706D01*
X19910584Y31674991D01*
X19806628Y31681106D01*
X19710787Y31699451D01*
X19623062Y31730026D01*
X19543452Y31772831D01*
X19471957Y31827867D01*
X19398198Y31910109D01*
X19345513Y32003960D01*
X19313902Y32109420D01*
X19303365Y32226488D01*
X19306222Y32274351D01*
X19320510Y32312213D01*
X19359801Y32342931D01*
X19434810Y32352218D01*
X19509105Y32342217D01*
X19549110Y32309356D01*
X19562683Y32270065D01*
X19564826Y32220773D01*
X19576256Y32126654D01*
X19610546Y32055753D01*
X19658409Y32004853D01*
X19710559Y31970742D01*
X19697619Y32039322D01*
X19930586Y32039322D01*
X19949160Y31969313D01*
X19997737Y31943596D01*
X20057745Y31963598D01*
X20076319Y32030749D01*
X20058459Y32099329D01*
X20000595Y32120761D01*
X19949874Y32097901D01*
X19930586Y32039322D01*
X19697619Y32039322D01*
X19696271Y32046466D01*
X19706193Y32132111D01*
X19735959Y32209978D01*
X19785568Y32280066D01*
X19848354Y32335232D01*
X19917648Y32368331D01*
X19993451Y32379364D01*
X20080208Y32368331D01*
X20157599Y32335232D01*
X20225623Y32280066D01*
X20278408Y32208867D01*
X20310078Y32127666D01*
X20320635Y32036464D01*
X20319970Y32030749D01*
X20308491Y31932086D01*
G37*
%TO.C,kibuzzard-656A3526*%
G36*
X20229195Y49483566D02*
G01*
X20268486Y49469278D01*
X20299918Y49429273D01*
X20309919Y49353549D01*
X20299918Y49279254D01*
X20267057Y49239249D01*
X20227766Y49225676D01*
X20178474Y49223533D01*
X20029884Y49223533D01*
X20029884Y48876347D01*
X20019883Y48802052D01*
X19987022Y48762047D01*
X19947731Y48748474D01*
X19898439Y48746331D01*
X19852719Y48750617D01*
X19408378Y48860631D01*
X19314081Y48914209D01*
X19315509Y49022079D01*
X19356943Y49104947D01*
X19419808Y49124949D01*
X19784139Y49036367D01*
X19784139Y49223533D01*
X19434096Y49223533D01*
X19386947Y49225676D01*
X19349799Y49239249D01*
X19319081Y49279969D01*
X19309794Y49356407D01*
X19319796Y49430702D01*
X19352657Y49469993D01*
X19392662Y49483566D01*
X19441239Y49486423D01*
X20179903Y49486423D01*
X20229195Y49483566D01*
G37*
G36*
X20080922Y50301525D02*
G01*
X20162123Y50265092D01*
X20232052Y50204370D01*
X20285631Y50125074D01*
X20317778Y50032920D01*
X20328493Y49927907D01*
X20317778Y49830276D01*
X20285631Y49741217D01*
X20232052Y49660731D01*
X20164346Y49597231D01*
X20089812Y49559131D01*
X20008453Y49546431D01*
X19940945Y49582149D01*
X19918442Y49689306D01*
X19934158Y49767887D01*
X20001309Y49809321D01*
X20009167Y49812178D01*
X20026313Y49822894D01*
X20047744Y49844325D01*
X20064889Y49878615D01*
X20072747Y49929336D01*
X20050601Y50018633D01*
X19991308Y50052208D01*
X19929157Y50024705D01*
X19908441Y49942194D01*
X19908441Y49902904D01*
X19902011Y49870043D01*
X19884152Y49837896D01*
X19847004Y49820751D01*
X19784139Y49812178D01*
X19712702Y49821465D01*
X19675554Y49851469D01*
X19663410Y49887902D01*
X19661267Y49933622D01*
X19661267Y49943623D01*
X19651980Y50010060D01*
X19615547Y50030777D01*
X19566255Y50007203D01*
X19548396Y49942194D01*
X19562683Y49880758D01*
X19605546Y49839324D01*
X19664442Y49795827D01*
X19681111Y49735819D01*
X19655552Y49659302D01*
X19576971Y49588579D01*
X19478387Y49609296D01*
X19473386Y49611439D01*
X19457670Y49619297D01*
X19434096Y49633584D01*
X19405521Y49656444D01*
X19374802Y49687877D01*
X19345513Y49730025D01*
X19320510Y49782889D01*
X19303365Y49848611D01*
X19296936Y49927907D01*
X19307731Y50031809D01*
X19340116Y50120629D01*
X19394091Y50194369D01*
X19461242Y50249534D01*
X19533156Y50282634D01*
X19609832Y50293667D01*
X19714488Y50269021D01*
X19785568Y50195083D01*
X19862721Y50275093D01*
X19919871Y50304025D01*
X19988451Y50313669D01*
X20080922Y50301525D01*
G37*
D13*
%TO.C,R19*%
X8091141Y13715000D02*
X7783859Y13715000D01*
X8091141Y12955000D02*
X7783859Y12955000D01*
%TO.C,C7*%
X2012836Y54335000D02*
X1797164Y54335000D01*
X2012836Y53615000D02*
X1797164Y53615000D01*
D12*
%TO.C,kibuzzard-656A3591*%
G36*
X20287059Y36650692D02*
G01*
X20315634Y36549251D01*
X20287059Y36449238D01*
X20185618Y36420663D01*
X19702701Y36420663D01*
X19715559Y36406376D01*
X19756993Y36318508D01*
X19706987Y36233497D01*
X19612689Y36189206D01*
X19566969Y36205636D01*
X19518392Y36249213D01*
X19355514Y36430664D01*
X19336941Y36453524D01*
X19312652Y36550679D01*
X19341941Y36650692D01*
X19444097Y36679267D01*
X20187047Y36679267D01*
X20287059Y36650692D01*
G37*
G36*
X20320397Y37011610D02*
G01*
X20287536Y36923742D01*
X20234299Y36849288D01*
X20232767Y36847145D01*
X20161647Y36788011D01*
X20079732Y36752530D01*
X19987022Y36740703D01*
X19911774Y36751974D01*
X19842242Y36785788D01*
X19778424Y36842144D01*
X19776996Y36840716D01*
X19775567Y36842144D01*
X19699129Y36787495D01*
X19606974Y36769278D01*
X19523789Y36780391D01*
X19449494Y36813728D01*
X19400908Y36855003D01*
X19766994Y36855003D01*
X19766994Y36853574D01*
X19775567Y36842144D01*
X19776996Y36843573D01*
X19778424Y36842144D01*
X19784139Y36849288D01*
X19782711Y36849288D01*
X19776996Y36843573D01*
X19766994Y36855003D01*
X19400908Y36855003D01*
X19384089Y36869291D01*
X19333289Y36940569D01*
X19302809Y37021056D01*
X19292973Y37107892D01*
X19545538Y37107892D01*
X19560540Y37052171D01*
X19605546Y37033597D01*
X19649837Y37053599D01*
X19664747Y37106463D01*
X19907012Y37106463D01*
X19929872Y37029311D01*
X19992737Y37002164D01*
X20057745Y37030739D01*
X20081319Y37109321D01*
X20057745Y37185044D01*
X19992737Y37212191D01*
X19929158Y37184330D01*
X19907825Y37109321D01*
X19907012Y37106463D01*
X19664747Y37106463D01*
X19665553Y37109321D01*
X19650551Y37165042D01*
X19605546Y37183616D01*
X19561254Y37163613D01*
X19545538Y37107892D01*
X19292973Y37107892D01*
X19292649Y37110749D01*
X19302968Y37199332D01*
X19333924Y37278389D01*
X19385518Y37347922D01*
X19410167Y37367924D01*
X19771281Y37367924D01*
X19771281Y37365067D01*
X19776996Y37372211D01*
X19775567Y37373639D01*
X19771281Y37367924D01*
X19410167Y37367924D01*
X19452034Y37401897D01*
X19527758Y37434282D01*
X19612689Y37445077D01*
X19694128Y37427218D01*
X19775567Y37373639D01*
X19776996Y37375068D01*
X19778424Y37373639D01*
X19844147Y37429202D01*
X19913679Y37462539D01*
X19987022Y37473652D01*
X20083304Y37461111D01*
X20166409Y37423487D01*
X20236339Y37360781D01*
X20289123Y37282834D01*
X20320794Y37199491D01*
X20331351Y37110749D01*
X20331193Y37109321D01*
X20320397Y37011610D01*
G37*
D13*
%TO.C,C12*%
X18055000Y14712836D02*
X18055000Y14497164D01*
X18775000Y14712836D02*
X18775000Y14497164D01*
D12*
%TO.C,kibuzzard-656A3598*%
G36*
X20284916Y34117836D02*
G01*
X20313491Y34016394D01*
X20284916Y33916382D01*
X20183475Y33887807D01*
X19700557Y33887807D01*
X19713416Y33873519D01*
X19754850Y33785651D01*
X19704844Y33700641D01*
X19610546Y33656349D01*
X19564826Y33672780D01*
X19516249Y33716357D01*
X19353371Y33897808D01*
X19334797Y33920668D01*
X19310509Y34017823D01*
X19339798Y34117836D01*
X19441954Y34146411D01*
X20184904Y34146411D01*
X20284916Y34117836D01*
G37*
G36*
X19526607Y34913471D02*
G01*
X19624834Y34874359D01*
X19726454Y34819888D01*
X19819858Y34760773D01*
X19913620Y34701659D01*
X20016311Y34647188D01*
X20115609Y34608075D01*
X20199191Y34595038D01*
X20244197Y34592181D01*
X20277773Y34577179D01*
X20302776Y34537174D01*
X20310634Y34463593D01*
X20303490Y34388584D01*
X20277773Y34349293D01*
X20243483Y34335006D01*
X20196334Y34332148D01*
X20092928Y34342149D01*
X19985593Y34372153D01*
X19885402Y34414123D01*
X19803427Y34460021D01*
X19731633Y34507884D01*
X19661981Y34555748D01*
X19573399Y34610754D01*
X19573399Y34325004D01*
X19570541Y34276427D01*
X19556254Y34237136D01*
X19516249Y34204989D01*
X19441954Y34194988D01*
X19368373Y34204989D01*
X19329082Y34234993D01*
X19314795Y34272141D01*
X19311938Y34317861D01*
X19311938Y34796492D01*
X19321939Y34870787D01*
X19354800Y34910792D01*
X19394091Y34924365D01*
X19443382Y34926508D01*
X19526607Y34913471D01*
G37*
%TO.C,kibuzzard-6569BE57*%
G36*
X13927138Y29120306D02*
G01*
X14026356Y29050456D01*
X14017625Y28934569D01*
X13733463Y28115419D01*
X13683853Y28041600D01*
X13595350Y28016994D01*
X13527881Y28031281D01*
X13483431Y28067000D01*
X13462794Y28100338D01*
X13454063Y28123356D01*
X13304838Y28612306D01*
X13155613Y28124944D01*
X13104416Y28043981D01*
X13014325Y28016994D01*
X12934950Y28040012D01*
X12892088Y28081288D01*
X12877800Y28115419D01*
X12592050Y28934569D01*
X12584906Y29052044D01*
X12684125Y29118719D01*
X12802394Y29125862D01*
X12866688Y29028231D01*
X13031787Y28545631D01*
X13161963Y29020294D01*
X13210381Y29100066D01*
X13301663Y29126656D01*
X13347700Y29122688D01*
X13382625Y29109194D01*
X13407231Y29091731D01*
X13424694Y29071094D01*
X13435013Y29051250D01*
X13442950Y29031406D01*
X13447713Y29018706D01*
X13577888Y28542456D01*
X13742987Y29028231D01*
X13807281Y29126656D01*
X13927138Y29120306D01*
G37*
G36*
X12191603Y29120306D02*
G01*
X12258675Y29101256D01*
X12325350Y29070300D01*
X12388850Y29028231D01*
X12445405Y28972073D01*
X12491244Y28898850D01*
X12521605Y28812927D01*
X12531725Y28718669D01*
X12521803Y28624808D01*
X12492037Y28540075D01*
X12446595Y28468042D01*
X12389644Y28412281D01*
X12325350Y28370212D01*
X12257881Y28339256D01*
X12190214Y28320206D01*
X12125325Y28313856D01*
X11955462Y28313856D01*
X11955462Y28161456D01*
X11953081Y28106688D01*
X11938000Y28063825D01*
X11893550Y28028106D01*
X11809412Y28016994D01*
X11726862Y28028106D01*
X11682412Y28064619D01*
X11667331Y28108275D01*
X11664950Y28163044D01*
X11664950Y28604369D01*
X11955462Y28604369D01*
X12126912Y28604369D01*
X12205494Y28632944D01*
X12242800Y28720256D01*
X12208669Y28802806D01*
X12125325Y28836144D01*
X11955462Y28836144D01*
X11955462Y28604369D01*
X11664950Y28604369D01*
X11664950Y28982194D01*
X11667331Y29035375D01*
X11682412Y29079031D01*
X11726862Y29115544D01*
X11811000Y29126656D01*
X12126912Y29126656D01*
X12191603Y29120306D01*
G37*
G36*
X14642505Y29120306D02*
G01*
X14708981Y29101256D01*
X14775259Y29070300D01*
X14839156Y29028231D01*
X14896108Y28972073D01*
X14941550Y28898850D01*
X14971316Y28812927D01*
X14981237Y28718669D01*
X14965715Y28599783D01*
X14919149Y28497124D01*
X14841538Y28410694D01*
X14955838Y28258294D01*
X14998700Y28148756D01*
X14922500Y28055094D01*
X14809788Y28011437D01*
X14720888Y28085256D01*
X14551025Y28315444D01*
X14403388Y28315444D01*
X14403388Y28161456D01*
X14401006Y28106688D01*
X14385925Y28063825D01*
X14341475Y28028106D01*
X14257338Y28016994D01*
X14174788Y28028106D01*
X14130338Y28064619D01*
X14115256Y28108275D01*
X14112875Y28163044D01*
X14112875Y28604369D01*
X14403388Y28604369D01*
X14578013Y28604369D01*
X14654213Y28632944D01*
X14690725Y28720256D01*
X14656594Y28802806D01*
X14574838Y28836144D01*
X14403388Y28836144D01*
X14403388Y28604369D01*
X14112875Y28604369D01*
X14112875Y28982194D01*
X14115256Y29035375D01*
X14130338Y29079031D01*
X14174788Y29115544D01*
X14258925Y29126656D01*
X14578013Y29126656D01*
X14642505Y29120306D01*
G37*
%TO.C,kibuzzard-65A9990D*%
G36*
X3530203Y30084395D02*
G01*
X3551634Y29977239D01*
X3470196Y29911516D01*
X2914412Y29685774D01*
X3470196Y29460031D01*
X3550920Y29392880D01*
X3530203Y29287152D01*
X3461623Y29204999D01*
X3363039Y29221430D01*
X2618661Y29560044D01*
X2566511Y29609336D01*
X2547223Y29682916D01*
X2565082Y29762926D01*
X2618661Y29811504D01*
X3363039Y30150117D01*
X3462337Y30164405D01*
X3530203Y30084395D01*
G37*
G36*
X3465195Y29123561D02*
G01*
X3504486Y29109987D01*
X3537347Y29069982D01*
X3547348Y28994259D01*
X3537347Y28919249D01*
X3505200Y28879959D01*
X3465195Y28865671D01*
X3414474Y28862814D01*
X3015853Y28862814D01*
X2915126Y28848526D01*
X2830830Y28791376D01*
X2802434Y28742442D01*
X2792968Y28681362D01*
X2808327Y28608139D01*
X2854404Y28551346D01*
X2925842Y28514913D01*
X3017282Y28502769D01*
X3423047Y28502769D01*
X3469481Y28499911D01*
X3506629Y28485624D01*
X3537347Y28445619D01*
X3547348Y28371324D01*
X3537347Y28297029D01*
X3503771Y28257024D01*
X3463766Y28243451D01*
X3414474Y28241307D01*
X3012996Y28241307D01*
X2926556Y28248630D01*
X2841546Y28270597D01*
X2760643Y28306137D01*
X2686526Y28354179D01*
X2622768Y28416508D01*
X2572941Y28494911D01*
X2540794Y28585815D01*
X2530078Y28685649D01*
X2540972Y28785304D01*
X2573655Y28875672D01*
X2624197Y28953361D01*
X2688669Y29014976D01*
X2763322Y29062303D01*
X2844403Y29097129D01*
X2929414Y29118560D01*
X3015853Y29125704D01*
X3415903Y29125704D01*
X3465195Y29123561D01*
G37*
D13*
%TO.C,C6*%
X16785000Y25825336D02*
X16785000Y25609664D01*
X17505000Y25825336D02*
X17505000Y25609664D01*
D12*
%TO.C,kibuzzard-656A35C4*%
G36*
X20229195Y19024997D02*
G01*
X20267771Y19011424D01*
X20299918Y18971419D01*
X20309919Y18895695D01*
X20302061Y18822114D01*
X20271343Y18779966D01*
X19782711Y18409920D01*
X20179903Y18409920D01*
X20229195Y18407777D01*
X20267771Y18394204D01*
X20299918Y18354199D01*
X20309919Y18278475D01*
X20299918Y18204894D01*
X20267771Y18166318D01*
X20228481Y18152745D01*
X20178474Y18149887D01*
X19436953Y18149887D01*
X19389090Y18152745D01*
X19351228Y18167032D01*
X19320510Y18206323D01*
X19311223Y18281332D01*
X19319796Y18346341D01*
X19337655Y18382774D01*
X19366944Y18408491D01*
X19847004Y18765679D01*
X19436953Y18765679D01*
X19389804Y18768536D01*
X19351942Y18782824D01*
X19321224Y18822829D01*
X19311223Y18897124D01*
X19321224Y18971419D01*
X19354086Y19011424D01*
X19393376Y19024997D01*
X19442668Y19027140D01*
X20179903Y19027140D01*
X20229195Y19024997D01*
G37*
G36*
X19559826Y19918680D02*
G01*
X19617690Y19865102D01*
X19636978Y19815810D01*
X19604117Y19738657D01*
X19597687Y19729371D01*
X19589829Y19717226D01*
X19581971Y19703653D01*
X19574827Y19684365D01*
X19569112Y19661505D01*
X19564112Y19632930D01*
X19562683Y19598640D01*
X19576971Y19517201D01*
X19619119Y19436477D01*
X19696986Y19372897D01*
X19750564Y19354681D01*
X19811286Y19348609D01*
X19889331Y19359503D01*
X19954875Y19392186D01*
X20005060Y19438441D01*
X20037028Y19490055D01*
X20059888Y19598640D01*
X20048101Y19674007D01*
X20012739Y19745801D01*
X19984164Y19817239D01*
X20004524Y19865816D01*
X20065603Y19917251D01*
X20148471Y19948684D01*
X20200620Y19928681D01*
X20244197Y19870103D01*
X20288647Y19785330D01*
X20315317Y19696748D01*
X20324207Y19604355D01*
X20319921Y19543812D01*
X20307062Y19479339D01*
X20284023Y19411831D01*
X20249198Y19342179D01*
X20204192Y19275207D01*
X20150614Y19215735D01*
X20084713Y19164836D01*
X20002738Y19123581D01*
X19908083Y19096256D01*
X19804142Y19087147D01*
X19704129Y19096077D01*
X19612689Y19122866D01*
X19533215Y19163586D01*
X19469100Y19214306D01*
X19416951Y19273778D01*
X19373374Y19340751D01*
X19339620Y19410759D01*
X19316938Y19479339D01*
X19304079Y19545598D01*
X19299793Y19608641D01*
X19308683Y19693731D01*
X19335353Y19781361D01*
X19379803Y19871531D01*
X19406949Y19910108D01*
X19436953Y19936539D01*
X19479816Y19950113D01*
X19559826Y19918680D01*
G37*
D11*
%TO.C,U6*%
X5285600Y26987500D02*
X6144400Y26987500D01*
X6144400Y24447500D02*
X5285600Y24447500D01*
X6423800Y25985900D02*
X6423800Y25449100D01*
D10*
X4799000Y27317700D02*
G75*
G02*
X4599000Y27317700I-100000J0D01*
G01*
X4599000Y27317700D02*
G75*
G02*
X4799000Y27317700I100000J0D01*
G01*
D12*
%TO.C,kibuzzard-656A36A7*%
G36*
X3053372Y37176072D02*
G01*
X3149213Y37157727D01*
X3236938Y37127151D01*
X3316548Y37084346D01*
X3388043Y37029311D01*
X3461802Y36947068D01*
X3514487Y36853217D01*
X3546098Y36747758D01*
X3556635Y36630689D01*
X3553778Y36582826D01*
X3539490Y36544964D01*
X3500199Y36514246D01*
X3425190Y36504959D01*
X3350895Y36514961D01*
X3310890Y36547822D01*
X3297317Y36587112D01*
X3295174Y36636404D01*
X3283744Y36730523D01*
X3249454Y36801425D01*
X3201591Y36852324D01*
X3149441Y36886436D01*
X3163729Y36810712D01*
X3153807Y36725066D01*
X3124041Y36647199D01*
X3074432Y36577111D01*
X3011646Y36521946D01*
X2942352Y36488846D01*
X2866549Y36477813D01*
X2779792Y36488846D01*
X2702401Y36521946D01*
X2634377Y36577111D01*
X2581592Y36648311D01*
X2549922Y36729511D01*
X2539365Y36820713D01*
X2540030Y36826428D01*
X2783681Y36826428D01*
X2801541Y36757848D01*
X2859405Y36736417D01*
X2910126Y36759277D01*
X2929414Y36817856D01*
X2910840Y36887864D01*
X2862263Y36913582D01*
X2802255Y36893579D01*
X2783681Y36826428D01*
X2540030Y36826428D01*
X2551509Y36925091D01*
X2587942Y37013436D01*
X2648664Y37085746D01*
X2730659Y37139324D01*
X2830909Y37171471D01*
X2949416Y37182187D01*
X3053372Y37176072D01*
G37*
%TO.C,kibuzzard-65A99AA3*%
G36*
X9661525Y16297473D02*
G01*
X9712722Y16238538D01*
X9727009Y16129000D01*
X9713912Y16020653D01*
X9672241Y15962313D01*
X9553178Y15940881D01*
X8986441Y15940881D01*
X8879880Y15961122D01*
X8826897Y16021844D01*
X8814991Y16131381D01*
X8829278Y16238538D01*
X8874522Y16295688D01*
X8988822Y16317119D01*
X9555559Y16317119D01*
X9661525Y16297473D01*
G37*
%TO.C,kibuzzard-6569BF02*%
G36*
X13699331Y31022925D02*
G01*
X13743781Y30986413D01*
X13758863Y30942756D01*
X13761244Y30887987D01*
X13761244Y30068837D01*
X13758863Y30014069D01*
X13743781Y29971206D01*
X13699331Y29935487D01*
X13615194Y29924375D01*
X13532644Y29935487D01*
X13488194Y29972000D01*
X13473113Y30015656D01*
X13470731Y30070425D01*
X13470731Y30354588D01*
X13108781Y30354588D01*
X13108781Y30068837D01*
X13106400Y30014069D01*
X13091319Y29971206D01*
X13046869Y29935487D01*
X12962731Y29924375D01*
X12880181Y29935487D01*
X12835731Y29972000D01*
X12820650Y30015656D01*
X12818269Y30070425D01*
X12818269Y30889575D01*
X12820650Y30942756D01*
X12835731Y30986413D01*
X12880181Y31022925D01*
X12964319Y31034038D01*
X13046869Y31022925D01*
X13091319Y30986413D01*
X13106400Y30942756D01*
X13108781Y30887987D01*
X13108781Y30602238D01*
X13470731Y30602238D01*
X13470731Y30889575D01*
X13473113Y30942756D01*
X13488194Y30986413D01*
X13532644Y31022925D01*
X13616781Y31034038D01*
X13699331Y31022925D01*
G37*
G36*
X12468313Y31035272D02*
G01*
X12565680Y31005639D01*
X12665869Y30956250D01*
X12708731Y30926087D01*
X12738100Y30892750D01*
X12753181Y30845125D01*
X12718256Y30756225D01*
X12658725Y30691931D01*
X12603956Y30670500D01*
X12518231Y30707013D01*
X12507912Y30714156D01*
X12494419Y30722888D01*
X12479337Y30731619D01*
X12457906Y30739556D01*
X12432506Y30745906D01*
X12400756Y30751462D01*
X12362656Y30753050D01*
X12272169Y30737175D01*
X12182475Y30690344D01*
X12111831Y30603825D01*
X12091591Y30544294D01*
X12084844Y30476825D01*
X12096948Y30390108D01*
X12133262Y30317281D01*
X12184658Y30261520D01*
X12242006Y30226000D01*
X12362656Y30200600D01*
X12446397Y30213697D01*
X12526169Y30252987D01*
X12605544Y30284737D01*
X12659519Y30262116D01*
X12716669Y30194250D01*
X12751594Y30102175D01*
X12729369Y30044231D01*
X12664281Y29995813D01*
X12570090Y29946424D01*
X12471665Y29916790D01*
X12369006Y29906912D01*
X12301736Y29911675D01*
X12230100Y29925962D01*
X12155091Y29951561D01*
X12077700Y29990256D01*
X12003286Y30040263D01*
X11937206Y30099794D01*
X11880652Y30173017D01*
X11834812Y30264100D01*
X11804452Y30369272D01*
X11794331Y30484762D01*
X11804253Y30595887D01*
X11834019Y30697488D01*
X11879262Y30785792D01*
X11935619Y30857031D01*
X12001698Y30914975D01*
X12076112Y30963394D01*
X12153900Y31000898D01*
X12230100Y31026100D01*
X12303720Y31040387D01*
X12373769Y31045150D01*
X12468313Y31035272D01*
G37*
G36*
X14513520Y31047333D02*
G01*
X14601825Y31030069D01*
X14685367Y31002486D01*
X14753431Y30965775D01*
X14797881Y30934025D01*
X14827250Y30900688D01*
X14842331Y30854650D01*
X14805819Y30765750D01*
X14747081Y30702647D01*
X14688344Y30681613D01*
X14602619Y30718125D01*
X14521259Y30751463D01*
X14423231Y30762575D01*
X14318853Y30742930D01*
X14231144Y30683994D01*
X14171612Y30596483D01*
X14151769Y30491112D01*
X14172406Y30382369D01*
X14234319Y30287913D01*
X14323616Y30222428D01*
X14426406Y30200600D01*
X14517688Y30205759D01*
X14585156Y30221237D01*
X14585156Y30357762D01*
X14467681Y30357762D01*
X14424819Y30360144D01*
X14391481Y30372844D01*
X14364494Y30410150D01*
X14356556Y30481587D01*
X14365288Y30551438D01*
X14394656Y30588744D01*
X14429581Y30601444D01*
X14472444Y30603825D01*
X14750256Y30603825D01*
X14811375Y30592713D01*
X14848681Y30572075D01*
X14867731Y30540325D01*
X14874875Y30505400D01*
X14875669Y30465713D01*
X14875669Y30140275D01*
X14837569Y30048994D01*
X14792722Y30005536D01*
X14734381Y29968825D01*
X14646540Y29934429D01*
X14541765Y29913792D01*
X14420056Y29906912D01*
X14309725Y29917727D01*
X14207331Y29950172D01*
X14112875Y30004246D01*
X14026356Y30079950D01*
X13954125Y30170735D01*
X13902531Y30270053D01*
X13871575Y30377904D01*
X13861256Y30494287D01*
X13871724Y30605264D01*
X13903127Y30708005D01*
X13955464Y30802511D01*
X14028738Y30888781D01*
X14116695Y30960665D01*
X14213086Y31012011D01*
X14317911Y31042818D01*
X14431169Y31053088D01*
X14513520Y31047333D01*
G37*
D13*
%TO.C,R10*%
X16765000Y4916141D02*
X16765000Y4608859D01*
X17525000Y4916141D02*
X17525000Y4608859D01*
D12*
%TO.C,kibuzzard-656A3878*%
G36*
X3468767Y26682144D02*
G01*
X3506629Y26667857D01*
X3537347Y26628566D01*
X3546634Y26553557D01*
X3538061Y26488549D01*
X3520202Y26452116D01*
X3490913Y26426398D01*
X3010853Y26069211D01*
X3420904Y26069211D01*
X3468053Y26066353D01*
X3505914Y26052066D01*
X3536633Y26012061D01*
X3546634Y25937766D01*
X3536633Y25863471D01*
X3503771Y25823466D01*
X3464481Y25809892D01*
X3415189Y25807749D01*
X2677954Y25807749D01*
X2628662Y25809892D01*
X2590086Y25823466D01*
X2557939Y25863471D01*
X2547937Y25939194D01*
X2555796Y26012775D01*
X2586514Y26054923D01*
X3075146Y26424969D01*
X2677954Y26424969D01*
X2628662Y26427113D01*
X2590086Y26440686D01*
X2557939Y26480691D01*
X2547937Y26556414D01*
X2557939Y26629995D01*
X2590086Y26668571D01*
X2629376Y26682144D01*
X2679383Y26685002D01*
X3420904Y26685002D01*
X3468767Y26682144D01*
G37*
G36*
X3520202Y27502961D02*
G01*
X3548063Y27397948D01*
X3548063Y26875026D01*
X3545919Y26825734D01*
X3532346Y26787158D01*
X3492341Y26755011D01*
X3416618Y26745009D01*
X3342323Y26755011D01*
X3302318Y26787872D01*
X3288744Y26827163D01*
X3286601Y26876454D01*
X3286601Y27270789D01*
X3159443Y27270789D01*
X3159443Y27006471D01*
X3157299Y26960036D01*
X3145869Y26925746D01*
X3111579Y26898600D01*
X3046571Y26890742D01*
X2982992Y26898600D01*
X2950131Y26926461D01*
X2938701Y26962179D01*
X2936558Y27009328D01*
X2936558Y27270789D01*
X2809399Y27270789D01*
X2809399Y26875026D01*
X2807256Y26825734D01*
X2793682Y26787158D01*
X2753678Y26755011D01*
X2677954Y26745009D01*
X2603659Y26755011D01*
X2563654Y26787872D01*
X2550081Y26827163D01*
X2547937Y26876454D01*
X2547937Y27402234D01*
X2557939Y27476529D01*
X2590800Y27516534D01*
X2630091Y27530108D01*
X2679383Y27532251D01*
X3418046Y27532251D01*
X3520202Y27502961D01*
G37*
%TO.C,kibuzzard-656A35BC*%
G36*
X20199906Y22012196D02*
G01*
X20239018Y21971833D01*
X20272058Y21919327D01*
X20303014Y21840269D01*
X20321588Y21745972D01*
X20327779Y21636434D01*
X20318045Y21537136D01*
X20288845Y21444982D01*
X20240179Y21359971D01*
X20172045Y21282104D01*
X20090338Y21217096D01*
X20000952Y21170662D01*
X19903886Y21142801D01*
X19799141Y21133514D01*
X19699263Y21142935D01*
X19606796Y21171198D01*
X19521741Y21218302D01*
X19444097Y21284247D01*
X19379401Y21363409D01*
X19333190Y21450161D01*
X19305463Y21544503D01*
X19296221Y21646436D01*
X19301400Y21720552D01*
X19316938Y21800026D01*
X19341763Y21875214D01*
X19374803Y21936472D01*
X19403377Y21976477D01*
X19433381Y22002909D01*
X19474815Y22016482D01*
X19554825Y21983621D01*
X19611618Y21930757D01*
X19630549Y21877893D01*
X19597687Y21800741D01*
X19567684Y21727517D01*
X19557682Y21639292D01*
X19575363Y21545352D01*
X19628406Y21466413D01*
X19707165Y21412835D01*
X19801999Y21394976D01*
X19899868Y21413549D01*
X19984879Y21469271D01*
X20043815Y21549638D01*
X20063460Y21642149D01*
X20058817Y21724303D01*
X20044886Y21785024D01*
X19922014Y21785024D01*
X19922014Y21679297D01*
X19919871Y21640721D01*
X19908441Y21610717D01*
X19874865Y21586428D01*
X19810571Y21579284D01*
X19747706Y21587142D01*
X19714131Y21613574D01*
X19702701Y21645007D01*
X19700557Y21683583D01*
X19700557Y21933614D01*
X19710559Y21988621D01*
X19729133Y22022197D01*
X19757707Y22039342D01*
X19789140Y22045771D01*
X19824859Y22046486D01*
X20117753Y22046486D01*
X20199906Y22012196D01*
G37*
D13*
%TO.C,C10*%
X5607164Y28300000D02*
X5822836Y28300000D01*
X5607164Y27580000D02*
X5822836Y27580000D01*
%TO.C,C1*%
X1764420Y56072500D02*
X2045580Y56072500D01*
X1764420Y55052500D02*
X2045580Y55052500D01*
D11*
%TO.C,U1*%
X8816200Y9256600D02*
X8816200Y9793400D01*
X9095600Y10795000D02*
X9954400Y10795000D01*
X9954400Y8255000D02*
X9095600Y8255000D01*
D10*
X10641000Y7924800D02*
G75*
G02*
X10441000Y7924800I-100000J0D01*
G01*
X10441000Y7924800D02*
G75*
G02*
X10641000Y7924800I100000J0D01*
G01*
D13*
%TO.C,C13*%
X9417164Y27030000D02*
X9632836Y27030000D01*
X9417164Y26310000D02*
X9632836Y26310000D01*
%TO.C,C3*%
X6307500Y9632836D02*
X6307500Y9417164D01*
X7027500Y9632836D02*
X7027500Y9417164D01*
D12*
%TO.C,kibuzzard-656A3687*%
G36*
X3295174Y47217171D02*
G01*
X3343751Y47173594D01*
X3506629Y46992143D01*
X3525203Y46969283D01*
X3549491Y46872128D01*
X3520202Y46772116D01*
X3418046Y46743541D01*
X2675096Y46743541D01*
X2575084Y46772116D01*
X2546509Y46873557D01*
X2575084Y46973569D01*
X2676525Y47002144D01*
X3159443Y47002144D01*
X3146584Y47016432D01*
X3105150Y47104300D01*
X3155156Y47189311D01*
X3249454Y47233602D01*
X3295174Y47217171D01*
G37*
D13*
%TO.C,C14*%
X10585336Y7980000D02*
X10369664Y7980000D01*
X10585336Y7260000D02*
X10369664Y7260000D01*
D12*
%TO.C,kibuzzard-656A3552*%
G36*
X20292060Y39167832D02*
G01*
X20320635Y39066391D01*
X20292060Y38966378D01*
X20190619Y38937803D01*
X19707701Y38937803D01*
X19720560Y38923516D01*
X19761994Y38835647D01*
X19711988Y38750637D01*
X19617690Y38706346D01*
X19571970Y38722776D01*
X19523393Y38766353D01*
X19360515Y38947804D01*
X19341941Y38970664D01*
X19317653Y39067819D01*
X19346942Y39167832D01*
X19449098Y39196407D01*
X20192048Y39196407D01*
X20292060Y39167832D01*
G37*
G36*
X20264199Y40026511D02*
G01*
X20303490Y39993649D01*
X20317778Y39952930D01*
X20320635Y39903638D01*
X20320635Y39387859D01*
X20281344Y39296419D01*
X20187761Y39257843D01*
X20115252Y39270702D01*
X20049173Y39309278D01*
X19998273Y39358927D01*
X19945588Y39427864D01*
X19896475Y39503231D01*
X19856291Y39572168D01*
X19816286Y39634140D01*
X19767709Y39688611D01*
X19714131Y39726652D01*
X19659124Y39739332D01*
X19621262Y39734331D01*
X19584114Y39702899D01*
X19564826Y39630747D01*
X19594473Y39547165D01*
X19683413Y39519304D01*
X19729133Y39517161D01*
X19765566Y39503588D01*
X19795569Y39463583D01*
X19804856Y39387859D01*
X19794855Y39313564D01*
X19761994Y39273559D01*
X19722703Y39259986D01*
X19673411Y39257843D01*
X19582130Y39269273D01*
X19496881Y39303563D01*
X19417665Y39360713D01*
X19354165Y39436278D01*
X19316065Y39525813D01*
X19303365Y39629318D01*
X19315589Y39727902D01*
X19352260Y39816008D01*
X19413379Y39893637D01*
X19491960Y39953962D01*
X19581019Y39990157D01*
X19680555Y40002222D01*
X19752707Y39995257D01*
X19820573Y39974361D01*
X19881294Y39942036D01*
X19932015Y39900781D01*
X20007024Y39813627D01*
X20057745Y39727902D01*
X20057745Y39906496D01*
X20060603Y39955788D01*
X20074890Y39994364D01*
X20114895Y40026511D01*
X20190619Y40036512D01*
X20264199Y40026511D01*
G37*
D11*
%TO.C,J3*%
X810000Y20415000D02*
X810000Y16415000D01*
X4810000Y14415000D02*
X8410000Y14415000D01*
X5810000Y21415000D02*
X8410000Y21415000D01*
X5810000Y20415000D02*
X5810000Y21415000D01*
X5810000Y15415000D02*
X5810000Y16415000D01*
X8410000Y22415000D02*
X4810000Y22415000D01*
X8410000Y21415000D02*
X8410000Y22415000D01*
X8410000Y15415000D02*
X5810000Y15415000D01*
X8410000Y14415000D02*
X8410000Y15415000D01*
D12*
%TO.C,kibuzzard-656A36A2*%
G36*
X2821543Y39655750D02*
G01*
X2870121Y39567168D01*
X2822972Y39470013D01*
X2800112Y39387145D01*
X2821543Y39318565D01*
X2881551Y39294276D01*
X2940844Y39319994D01*
X2964418Y39382859D01*
X2944416Y39438580D01*
X2910126Y39518590D01*
X2938701Y39611459D01*
X2981563Y39675038D01*
X3022997Y39692898D01*
X3428762Y39640034D01*
X3468767Y39632890D01*
X3508058Y39616459D01*
X3545919Y39576454D01*
X3558778Y39508589D01*
X3557349Y39181405D01*
X3554492Y39132113D01*
X3540919Y39093537D01*
X3500914Y39061390D01*
X3423047Y39051389D01*
X3351609Y39060676D01*
X3313747Y39091394D01*
X3300889Y39128541D01*
X3298746Y39174261D01*
X3298746Y39394289D01*
X3223022Y39404290D01*
X3225879Y39380001D01*
X3225879Y39372858D01*
X3214687Y39286021D01*
X3181112Y39206488D01*
X3125152Y39134256D01*
X3054429Y39077106D01*
X2976562Y39042816D01*
X2891552Y39031386D01*
X2796857Y39042499D01*
X2712799Y39075836D01*
X2639377Y39131399D01*
X2582624Y39203312D01*
X2548572Y39285704D01*
X2537222Y39378573D01*
X2543473Y39455725D01*
X2562225Y39527163D01*
X2611517Y39624318D01*
X2637234Y39654321D01*
X2724388Y39708614D01*
X2821543Y39655750D01*
G37*
%TO.C,kibuzzard-656A4896*%
G36*
X13395246Y36736457D02*
G01*
X13432790Y36693237D01*
X13443268Y36612909D01*
X13433663Y36533455D01*
X13403104Y36490672D01*
X13315791Y36474956D01*
X12900184Y36474956D01*
X12822039Y36489799D01*
X12783185Y36534328D01*
X12774454Y36614656D01*
X12784931Y36693237D01*
X12818110Y36735147D01*
X12901930Y36750863D01*
X13317538Y36750863D01*
X13395246Y36736457D01*
G37*
G36*
X8668147Y37121941D02*
G01*
X8715296Y37105352D01*
X8754586Y37056457D01*
X8766810Y36963906D01*
X8754586Y36873101D01*
X8714422Y36824206D01*
X8666401Y36807616D01*
X8606155Y36804997D01*
X8124190Y36804997D01*
X8124190Y36649581D01*
X8447246Y36649581D01*
X8503999Y36646961D01*
X8545909Y36632991D01*
X8579088Y36591081D01*
X8588692Y36511627D01*
X8579088Y36433919D01*
X8545036Y36393755D01*
X8501380Y36379785D01*
X8443754Y36377166D01*
X8124190Y36377166D01*
X8124190Y36221749D01*
X8607901Y36221749D01*
X8668147Y36219130D01*
X8715296Y36202541D01*
X8754586Y36153646D01*
X8766810Y36061094D01*
X8754586Y35970289D01*
X8714422Y35921394D01*
X8666401Y35904805D01*
X8606155Y35902186D01*
X7963535Y35902186D01*
X7872730Y35914409D01*
X7823835Y35954573D01*
X7807246Y36002595D01*
X7804626Y36062841D01*
X7804626Y36965652D01*
X7840424Y37090509D01*
X7968774Y37124561D01*
X8607901Y37124561D01*
X8668147Y37121941D01*
G37*
G36*
X10378162Y37117576D02*
G01*
X10451941Y37096621D01*
X10525284Y37062569D01*
X10595134Y37016293D01*
X10657344Y36954520D01*
X10707767Y36873974D01*
X10741164Y36779458D01*
X10752296Y36675774D01*
X10741382Y36572527D01*
X10708640Y36479321D01*
X10658654Y36400085D01*
X10596007Y36338748D01*
X10525284Y36292473D01*
X10451068Y36258421D01*
X10376634Y36237466D01*
X10305256Y36230481D01*
X10118407Y36230481D01*
X10118407Y36062841D01*
X10115788Y36002595D01*
X10099199Y35955446D01*
X10050304Y35916156D01*
X9957752Y35903932D01*
X9866947Y35916156D01*
X9818052Y35956319D01*
X9801463Y36004341D01*
X9798844Y36064587D01*
X9798844Y36550044D01*
X10118407Y36550044D01*
X10307002Y36550044D01*
X10393442Y36581477D01*
X10434479Y36677521D01*
X10396934Y36768326D01*
X10305256Y36804997D01*
X10118407Y36804997D01*
X10118407Y36550044D01*
X9798844Y36550044D01*
X9798844Y36965652D01*
X9801463Y37024151D01*
X9818052Y37072173D01*
X9866947Y37112337D01*
X9959499Y37124561D01*
X10307002Y37124561D01*
X10378162Y37117576D01*
G37*
G36*
X12362339Y37127083D02*
G01*
X12470024Y37082263D01*
X12564904Y37007562D01*
X12638634Y36911518D01*
X12682873Y36802669D01*
X12697619Y36681013D01*
X12689106Y36592828D01*
X12663567Y36509881D01*
X12624058Y36435665D01*
X12573635Y36373673D01*
X12467114Y36281995D01*
X12362339Y36220003D01*
X12580620Y36220003D01*
X12640866Y36216511D01*
X12688014Y36199048D01*
X12727305Y36150153D01*
X12739529Y36057602D01*
X12727305Y35967670D01*
X12687141Y35919648D01*
X12637373Y35902186D01*
X12577128Y35898693D01*
X11946731Y35898693D01*
X11834971Y35946715D01*
X11787823Y36061094D01*
X11803539Y36149717D01*
X11850688Y36230481D01*
X11911370Y36292691D01*
X11995626Y36357084D01*
X12087741Y36417111D01*
X12171998Y36466224D01*
X12247741Y36515119D01*
X12314317Y36574492D01*
X12360811Y36639976D01*
X12376309Y36707207D01*
X12370197Y36753483D01*
X12331779Y36798885D01*
X12243594Y36822459D01*
X12141438Y36786225D01*
X12107386Y36677521D01*
X12104767Y36621641D01*
X12088178Y36577111D01*
X12039283Y36540440D01*
X11946731Y36529089D01*
X11855926Y36541313D01*
X11807031Y36581477D01*
X11790442Y36629499D01*
X11787823Y36689744D01*
X11801793Y36801310D01*
X11843703Y36905503D01*
X11913553Y37002323D01*
X12005910Y37079934D01*
X12115341Y37126501D01*
X12241848Y37142023D01*
X12362339Y37127083D01*
G37*
G36*
X9380520Y37132128D02*
G01*
X9491698Y37097203D01*
X9582309Y37038994D01*
X9645174Y36949063D01*
X9603264Y36841668D01*
X9500235Y36756975D01*
X9383236Y36789281D01*
X9363154Y36805870D01*
X9338707Y36825952D01*
X9304655Y36839049D01*
X9247029Y36845161D01*
X9182417Y36823333D01*
X9154477Y36770072D01*
X9185037Y36713319D01*
X9254014Y36682759D01*
X9360535Y36660931D01*
X9472295Y36633864D01*
X9571176Y36588462D01*
X9647793Y36522104D01*
X9696906Y36427370D01*
X9713277Y36296838D01*
X9705856Y36213455D01*
X9683591Y36137929D01*
X9607629Y36020058D01*
X9500235Y35942349D01*
X9380617Y35897820D01*
X9264491Y35884723D01*
X9166701Y35892581D01*
X9084627Y35911790D01*
X9017397Y35940603D01*
X8963263Y35973782D01*
X8921353Y36007834D01*
X8890794Y36038393D01*
X8871585Y36062841D01*
X8861107Y36075064D01*
X8817451Y36188571D01*
X8890794Y36300331D01*
X8963360Y36340688D01*
X9039031Y36329047D01*
X9117806Y36265406D01*
X9188529Y36201667D01*
X9257506Y36185078D01*
X9360535Y36210399D01*
X9391967Y36291599D01*
X9346565Y36345733D01*
X9209484Y36386770D01*
X9126319Y36409253D01*
X9060180Y36433046D01*
X8962390Y36488926D01*
X8892540Y36564014D01*
X8850630Y36658312D01*
X8836660Y36771818D01*
X8849660Y36872810D01*
X8888659Y36961577D01*
X8953659Y37038121D01*
X9038449Y37096815D01*
X9136821Y37132031D01*
X9248775Y37143769D01*
X9380520Y37132128D01*
G37*
G36*
X14053485Y37132128D02*
G01*
X14164663Y37097203D01*
X14255274Y37038994D01*
X14318139Y36949063D01*
X14276229Y36841668D01*
X14173200Y36756975D01*
X14056201Y36789281D01*
X14036119Y36805870D01*
X14011672Y36825952D01*
X13977620Y36839049D01*
X13919994Y36845161D01*
X13855383Y36823333D01*
X13827443Y36770072D01*
X13858002Y36713319D01*
X13926979Y36682759D01*
X14033500Y36660931D01*
X14145260Y36633864D01*
X14244141Y36588462D01*
X14320758Y36522104D01*
X14369871Y36427370D01*
X14386243Y36296838D01*
X14378821Y36213455D01*
X14356556Y36137929D01*
X14280594Y36020058D01*
X14173200Y35942349D01*
X14053582Y35897820D01*
X13937456Y35884723D01*
X13839666Y35892581D01*
X13757593Y35911790D01*
X13690362Y35940603D01*
X13636228Y35973782D01*
X13594318Y36007834D01*
X13563759Y36038393D01*
X13544550Y36062841D01*
X13534073Y36075064D01*
X13490416Y36188571D01*
X13563759Y36300331D01*
X13636325Y36340688D01*
X13711996Y36329047D01*
X13790771Y36265406D01*
X13861494Y36201667D01*
X13930471Y36185078D01*
X14033500Y36210399D01*
X14064933Y36291599D01*
X14019530Y36345733D01*
X13882449Y36386770D01*
X13799284Y36409253D01*
X13733145Y36433046D01*
X13635355Y36488926D01*
X13565505Y36564014D01*
X13523595Y36658312D01*
X13509625Y36771818D01*
X13522625Y36872810D01*
X13561624Y36961577D01*
X13626624Y37038121D01*
X13711414Y37096815D01*
X13809786Y37132031D01*
X13921740Y37143769D01*
X14053485Y37132128D01*
G37*
G36*
X11394431Y37128829D02*
G01*
X11502990Y37089248D01*
X11593116Y37023278D01*
X11660540Y36941204D01*
X11700995Y36853310D01*
X11714480Y36759594D01*
X11684357Y36631682D01*
X11593989Y36544806D01*
X11691779Y36450508D01*
X11727140Y36380658D01*
X11738928Y36296838D01*
X11724084Y36183817D01*
X11679555Y36084572D01*
X11605339Y35999103D01*
X11508423Y35933618D01*
X11395789Y35894327D01*
X11267440Y35881231D01*
X11148113Y35894327D01*
X11039263Y35933618D01*
X10940891Y35999103D01*
X10863280Y36081855D01*
X10816713Y36172951D01*
X10801191Y36272391D01*
X10844848Y36354901D01*
X10975816Y36382404D01*
X11071860Y36363196D01*
X11122501Y36281122D01*
X11125994Y36271517D01*
X11139091Y36250562D01*
X11165284Y36224369D01*
X11207194Y36203414D01*
X11269186Y36193809D01*
X11378327Y36220876D01*
X11419364Y36293346D01*
X11385748Y36369308D01*
X11284903Y36394628D01*
X11236881Y36394628D01*
X11196717Y36402486D01*
X11157426Y36424314D01*
X11136471Y36469717D01*
X11125994Y36546552D01*
X11137344Y36633864D01*
X11174016Y36679267D01*
X11218545Y36694110D01*
X11274425Y36696729D01*
X11286649Y36696729D01*
X11367849Y36708080D01*
X11393170Y36752609D01*
X11364357Y36812855D01*
X11284903Y36834683D01*
X11209814Y36817221D01*
X11159173Y36764833D01*
X11106009Y36692849D01*
X11032666Y36672476D01*
X10939145Y36703714D01*
X10852706Y36799758D01*
X10878026Y36920249D01*
X10880646Y36926361D01*
X10890250Y36945570D01*
X10907712Y36974383D01*
X10935652Y37009308D01*
X10974070Y37046853D01*
X11025584Y37082651D01*
X11090196Y37113210D01*
X11170523Y37134165D01*
X11267440Y37142023D01*
X11394431Y37128829D01*
G37*
G36*
X15028377Y37128829D02*
G01*
X15136936Y37089248D01*
X15227062Y37023278D01*
X15294487Y36941204D01*
X15334941Y36853310D01*
X15348426Y36759594D01*
X15318303Y36631682D01*
X15227935Y36544806D01*
X15325725Y36450508D01*
X15361087Y36380658D01*
X15372874Y36296838D01*
X15358031Y36183817D01*
X15313501Y36084572D01*
X15239286Y35999103D01*
X15142369Y35933618D01*
X15029736Y35894327D01*
X14901386Y35881231D01*
X14782059Y35894327D01*
X14673210Y35933618D01*
X14574838Y35999103D01*
X14497226Y36081855D01*
X14450660Y36172951D01*
X14435138Y36272391D01*
X14478794Y36354901D01*
X14609763Y36382404D01*
X14705806Y36363196D01*
X14756448Y36281122D01*
X14759940Y36271517D01*
X14773037Y36250562D01*
X14799231Y36224369D01*
X14841141Y36203414D01*
X14903133Y36193809D01*
X15012273Y36220876D01*
X15053310Y36293346D01*
X15019695Y36369308D01*
X14918849Y36394628D01*
X14870827Y36394628D01*
X14830663Y36402486D01*
X14791373Y36424314D01*
X14770418Y36469717D01*
X14759940Y36546552D01*
X14771291Y36633864D01*
X14807962Y36679267D01*
X14852491Y36694110D01*
X14908371Y36696729D01*
X14920595Y36696729D01*
X15001796Y36708080D01*
X15027116Y36752609D01*
X14998303Y36812855D01*
X14918849Y36834683D01*
X14843760Y36817221D01*
X14793119Y36764833D01*
X14739955Y36692849D01*
X14666613Y36672476D01*
X14573091Y36703714D01*
X14486652Y36799758D01*
X14511973Y36920249D01*
X14514592Y36926361D01*
X14524196Y36945570D01*
X14541659Y36974383D01*
X14569599Y37009308D01*
X14608016Y37046853D01*
X14659531Y37082651D01*
X14724142Y37113210D01*
X14804469Y37134165D01*
X14901386Y37142023D01*
X15028377Y37128829D01*
G37*
%TD*%
M02*
