%TF.GenerationSoftware,KiCad,Pcbnew,9.0.4*%
%TF.CreationDate,2025-11-12T09:57:30+01:00*%
%TF.ProjectId,SparkFun_Thing_Plus_ESP32-S3,53706172-6b46-4756-9e5f-5468696e675f,rev?*%
%TF.SameCoordinates,Original*%
%TF.FileFunction,Soldermask,Top*%
%TF.FilePolarity,Negative*%
%FSLAX46Y46*%
G04 Gerber Fmt 4.6, Leading zero omitted, Abs format (unit mm)*
G04 Created by KiCad (PCBNEW 9.0.4) date 2025-11-12 09:57:30*
%MOMM*%
%LPD*%
G01*
G04 APERTURE LIST*
G04 Aperture macros list*
%AMRoundRect*
0 Rectangle with rounded corners*
0 $1 Rounding radius*
0 $2 $3 $4 $5 $6 $7 $8 $9 X,Y pos of 4 corners*
0 Add a 4 corners polygon primitive as box body*
4,1,4,$2,$3,$4,$5,$6,$7,$8,$9,$2,$3,0*
0 Add four circle primitives for the rounded corners*
1,1,$1+$1,$2,$3*
1,1,$1+$1,$4,$5*
1,1,$1+$1,$6,$7*
1,1,$1+$1,$8,$9*
0 Add four rect primitives between the rounded corners*
20,1,$1+$1,$2,$3,$4,$5,0*
20,1,$1+$1,$4,$5,$6,$7,0*
20,1,$1+$1,$6,$7,$8,$9,0*
20,1,$1+$1,$8,$9,$2,$3,0*%
G04 Aperture macros list end*
%ADD10C,0.000000*%
%ADD11R,1.000000X0.750000*%
%ADD12R,1.800000X1.000000*%
%ADD13R,0.300000X1.300000*%
%ADD14R,0.300000X1.260000*%
%ADD15O,1.200000X1.800000*%
%ADD16O,1.200000X2.000000*%
%ADD17R,1.500000X0.900000*%
%ADD18R,0.900000X1.500000*%
%ADD19R,0.900000X0.900000*%
%ADD20RoundRect,0.140000X0.170000X-0.140000X0.170000X0.140000X-0.170000X0.140000X-0.170000X-0.140000X0*%
%ADD21RoundRect,0.140000X-0.170000X0.140000X-0.170000X-0.140000X0.170000X-0.140000X0.170000X0.140000X0*%
%ADD22RoundRect,0.150000X-0.512500X-0.150000X0.512500X-0.150000X0.512500X0.150000X-0.512500X0.150000X0*%
%ADD23RoundRect,0.150000X0.512500X0.150000X-0.512500X0.150000X-0.512500X-0.150000X0.512500X-0.150000X0*%
%ADD24RoundRect,0.135000X0.135000X0.185000X-0.135000X0.185000X-0.135000X-0.185000X0.135000X-0.185000X0*%
%ADD25RoundRect,0.140000X0.140000X0.170000X-0.140000X0.170000X-0.140000X-0.170000X0.140000X-0.170000X0*%
%ADD26RoundRect,0.225000X-0.225000X-0.250000X0.225000X-0.250000X0.225000X0.250000X-0.225000X0.250000X0*%
%ADD27RoundRect,0.135000X-0.185000X0.135000X-0.185000X-0.135000X0.185000X-0.135000X0.185000X0.135000X0*%
%ADD28R,1.100000X0.600000*%
%ADD29RoundRect,0.135000X-0.135000X-0.185000X0.135000X-0.185000X0.135000X0.185000X-0.135000X0.185000X0*%
%ADD30R,1.072000X0.532000*%
%ADD31R,0.540000X0.790000*%
%ADD32R,4.000000X1.500000*%
%ADD33R,3.200000X1.000000*%
%ADD34C,3.100000*%
%ADD35RoundRect,0.135000X0.185000X-0.135000X0.185000X0.135000X-0.185000X0.135000X-0.185000X-0.135000X0*%
%ADD36RoundRect,0.140000X-0.140000X-0.170000X0.140000X-0.170000X0.140000X0.170000X-0.140000X0.170000X0*%
%ADD37RoundRect,0.200000X-0.200000X-0.275000X0.200000X-0.275000X0.200000X0.275000X-0.200000X0.275000X0*%
%ADD38RoundRect,0.200000X0.200000X0.275000X-0.200000X0.275000X-0.200000X-0.275000X0.200000X-0.275000X0*%
G04 APERTURE END LIST*
D10*
%TO.C,U4*%
G36*
X18797500Y10055000D02*
G01*
X17957500Y10055000D01*
X17957500Y10495000D01*
X18797500Y10495000D01*
X18797500Y10055000D01*
G37*
G36*
X18797500Y9555000D02*
G01*
X17957500Y9555000D01*
X17957500Y9995000D01*
X18797500Y9995000D01*
X18797500Y9555000D01*
G37*
G36*
X18797500Y9055000D02*
G01*
X17957500Y9055000D01*
X17957500Y9495000D01*
X18797500Y9495000D01*
X18797500Y9055000D01*
G37*
G36*
X18797500Y8555000D02*
G01*
X17957500Y8555000D01*
X17957500Y8995000D01*
X18797500Y8995000D01*
X18797500Y8555000D01*
G37*
G36*
X19837500Y8765000D02*
G01*
X18897500Y8765000D01*
X18897500Y10285000D01*
X19837500Y10285000D01*
X19837500Y8765000D01*
G37*
G36*
X20797500Y10055000D02*
G01*
X19957500Y10055000D01*
X19957500Y10495000D01*
X20797500Y10495000D01*
X20797500Y10055000D01*
G37*
G36*
X20797500Y9555000D02*
G01*
X19957500Y9555000D01*
X19957500Y9995000D01*
X20797500Y9995000D01*
X20797500Y9555000D01*
G37*
G36*
X20797500Y9055000D02*
G01*
X19957500Y9055000D01*
X19957500Y9495000D01*
X20797500Y9495000D01*
X20797500Y9055000D01*
G37*
G36*
X20797500Y8555000D02*
G01*
X19957500Y8555000D01*
X19957500Y8995000D01*
X20797500Y8995000D01*
X20797500Y8555000D01*
G37*
%TD*%
D11*
%TO.C,SW1*%
X9240000Y22496000D03*
X15240000Y22496000D03*
X9240000Y18796000D03*
X15240000Y18796000D03*
%TD*%
D12*
%TO.C,X1*%
X0Y49250000D03*
X0Y46750000D03*
%TD*%
D13*
%TO.C,USB2*%
X9673000Y5964000D03*
X10173000Y5964000D03*
X10673000Y5964000D03*
X11173000Y5964000D03*
X11673000Y5964000D03*
X12173000Y5964000D03*
X12672500Y5964000D03*
X13173000Y5964000D03*
X8073000Y5964000D03*
D14*
X8373000Y5984000D03*
D13*
X8873000Y5964000D03*
X9173000Y5964000D03*
X13673000Y5964000D03*
X13973000Y5964000D03*
D14*
X14473000Y5984000D03*
D13*
X14773000Y5964000D03*
D15*
X15748000Y1016000D03*
D16*
X15748000Y5196000D03*
X7098000Y5196000D03*
D15*
X7098000Y1016000D03*
%TD*%
D17*
%TO.C,U3*%
X3810000Y57658000D03*
X3810000Y56388000D03*
X3810000Y55118000D03*
X3810000Y53848000D03*
X3810000Y52578000D03*
X3810000Y51308000D03*
X3810000Y50038000D03*
X3810000Y48768000D03*
X3810000Y47498000D03*
X3810000Y46228000D03*
X3810000Y44958000D03*
X3810000Y43688000D03*
X3810000Y42418000D03*
X3810000Y41148000D03*
D18*
X5575000Y39868000D03*
X6845000Y39868000D03*
X8115000Y39868000D03*
X9385000Y39868000D03*
X10655000Y39868000D03*
X11925000Y39868000D03*
X13195000Y39868000D03*
X14465000Y39868000D03*
X15735000Y39868000D03*
X17005000Y39868000D03*
X18275000Y39868000D03*
X19545000Y39898000D03*
D17*
X21310000Y41148000D03*
X21310000Y42418000D03*
X21310000Y43688000D03*
X21310000Y44958000D03*
X21310000Y46228000D03*
X21310000Y47498000D03*
X21310000Y48768000D03*
X21310000Y50038000D03*
X21310000Y51308000D03*
X21310000Y52578000D03*
X21310000Y53848000D03*
X21310000Y55118000D03*
X21310000Y56388000D03*
X21310000Y57658000D03*
D19*
X12460000Y48538000D03*
X11060000Y48538000D03*
X9660000Y48538000D03*
X9660000Y51338000D03*
X11060000Y51338000D03*
X12460000Y51338000D03*
X12460000Y49938000D03*
X9660000Y49938000D03*
X11060000Y49938000D03*
%TD*%
D20*
%TO.C,C9*%
X11430000Y14280000D03*
X11430000Y15240000D03*
%TD*%
D21*
%TO.C,C3*%
X6667500Y10005000D03*
X6667500Y9045000D03*
%TD*%
D22*
%TO.C,U6*%
X4577500Y26667500D03*
X4577500Y25717500D03*
X4577500Y24767500D03*
X6852500Y24767500D03*
X6852500Y26667500D03*
%TD*%
D23*
%TO.C,U1*%
X10662500Y9022000D03*
X10662500Y9972000D03*
X10662500Y10922000D03*
X8387500Y10922000D03*
X8387500Y9022000D03*
%TD*%
D24*
%TO.C,R13*%
X6225000Y23495000D03*
X5205000Y23495000D03*
%TD*%
D25*
%TO.C,C7*%
X-310000Y57658000D03*
X-1270000Y57658000D03*
%TD*%
D26*
%TO.C,C1*%
X-1524000Y59182000D03*
X26000Y59182000D03*
%TD*%
D24*
%TO.C,R19*%
X8447500Y13335000D03*
X7427500Y13335000D03*
%TD*%
D27*
%TO.C,R17*%
X9842500Y13210000D03*
X9842500Y12190000D03*
%TD*%
D25*
%TO.C,C14*%
X10957500Y7620000D03*
X9997500Y7620000D03*
%TD*%
D28*
%TO.C,U5*%
X13622500Y13655000D03*
X13622500Y15555000D03*
X16222500Y15555000D03*
X16222500Y14605000D03*
X16222500Y13655000D03*
%TD*%
D29*
%TO.C,R16*%
X14412500Y12065000D03*
X15432500Y12065000D03*
%TD*%
D21*
%TO.C,C12*%
X18415000Y15085000D03*
X18415000Y14125000D03*
%TD*%
%TO.C,C2*%
X21590000Y10005000D03*
X21590000Y9045000D03*
%TD*%
D30*
%TO.C,U2*%
X13773500Y8575000D03*
X13773500Y9525000D03*
X13773500Y10475000D03*
X16071500Y10475000D03*
X16071500Y9525000D03*
X16071500Y8575000D03*
%TD*%
D31*
%TO.C,C4*%
X-762000Y50800000D03*
X-762000Y51890000D03*
%TD*%
%TO.C,C8*%
X-762000Y45212000D03*
X-762000Y44122000D03*
%TD*%
D32*
%TO.C,J3*%
X-1016000Y21844000D03*
X-1016000Y15044000D03*
D33*
X4884000Y17444000D03*
X4884000Y19444000D03*
%TD*%
D34*
%TO.C,ST1*%
X2540000Y2540000D03*
%TD*%
%TO.C,ST3*%
X20320000Y2540000D03*
%TD*%
D35*
%TO.C,R11*%
X5715000Y4252500D03*
X5715000Y5272500D03*
%TD*%
D27*
%TO.C,R10*%
X17145000Y5272500D03*
X17145000Y4252500D03*
%TD*%
D36*
%TO.C,C11*%
X8692000Y28194000D03*
X9652000Y28194000D03*
%TD*%
%TO.C,C15*%
X16256000Y22098000D03*
X17216000Y22098000D03*
%TD*%
D35*
%TO.C,R8*%
X19812000Y29206000D03*
X19812000Y30226000D03*
%TD*%
D37*
%TO.C,R2*%
X16764000Y20574000D03*
X18414000Y20574000D03*
%TD*%
D38*
%TO.C,R1*%
X18414000Y17272000D03*
X16764000Y17272000D03*
%TD*%
D21*
%TO.C,C6*%
X18796000Y30226000D03*
X18796000Y29266000D03*
%TD*%
D25*
%TO.C,C5*%
X18232000Y18796000D03*
X17272000Y18796000D03*
%TD*%
D36*
%TO.C,C10*%
X5235000Y27940000D03*
X6195000Y27940000D03*
%TD*%
D29*
%TO.C,R3*%
X6604000Y21336000D03*
X7624000Y21336000D03*
%TD*%
D36*
%TO.C,C13*%
X9045000Y26670000D03*
X10005000Y26670000D03*
%TD*%
D11*
%TO.C,SW2*%
X11189000Y30044000D03*
X17189000Y30044000D03*
X11189000Y26344000D03*
X17189000Y26344000D03*
%TD*%
M02*
