%TF.GenerationSoftware,KiCad,Pcbnew,9.0.4*%
%TF.CreationDate,2025-10-28T22:37:09+01:00*%
%TF.ProjectId,SparkFun_Thing_Plus_ESP32-S3,53706172-6b46-4756-9e5f-5468696e675f,rev?*%
%TF.SameCoordinates,Original*%
%TF.FileFunction,Copper,L1,Top*%
%TF.FilePolarity,Positive*%
%FSLAX46Y46*%
G04 Gerber Fmt 4.6, Leading zero omitted, Abs format (unit mm)*
G04 Created by KiCad (PCBNEW 9.0.4) date 2025-10-28 22:37:09*
%MOMM*%
%LPD*%
G01*
G04 APERTURE LIST*
G04 Aperture macros list*
%AMRoundRect*
0 Rectangle with rounded corners*
0 $1 Rounding radius*
0 $2 $3 $4 $5 $6 $7 $8 $9 X,Y pos of 4 corners*
0 Add a 4 corners polygon primitive as box body*
4,1,4,$2,$3,$4,$5,$6,$7,$8,$9,$2,$3,0*
0 Add four circle primitives for the rounded corners*
1,1,$1+$1,$2,$3*
1,1,$1+$1,$4,$5*
1,1,$1+$1,$6,$7*
1,1,$1+$1,$8,$9*
0 Add four rect primitives between the rounded corners*
20,1,$1+$1,$2,$3,$4,$5,0*
20,1,$1+$1,$4,$5,$6,$7,0*
20,1,$1+$1,$6,$7,$8,$9,0*
20,1,$1+$1,$8,$9,$2,$3,0*%
%AMOutline5P*
0 Free polygon, 5 corners , with rotation*
0 The origin of the aperture is its center*
0 number of corners: always 5*
0 $1 to $10 corner X, Y*
0 $11 Rotation angle, in degrees counterclockwise*
0 create outline with 5 corners*
4,1,5,$1,$2,$3,$4,$5,$6,$7,$8,$9,$10,$1,$2,$11*%
%AMOutline6P*
0 Free polygon, 6 corners , with rotation*
0 The origin of the aperture is its center*
0 number of corners: always 6*
0 $1 to $12 corner X, Y*
0 $13 Rotation angle, in degrees counterclockwise*
0 create outline with 6 corners*
4,1,6,$1,$2,$3,$4,$5,$6,$7,$8,$9,$10,$11,$12,$1,$2,$13*%
%AMOutline7P*
0 Free polygon, 7 corners , with rotation*
0 The origin of the aperture is its center*
0 number of corners: always 7*
0 $1 to $14 corner X, Y*
0 $15 Rotation angle, in degrees counterclockwise*
0 create outline with 7 corners*
4,1,7,$1,$2,$3,$4,$5,$6,$7,$8,$9,$10,$11,$12,$13,$14,$1,$2,$15*%
%AMOutline8P*
0 Free polygon, 8 corners , with rotation*
0 The origin of the aperture is its center*
0 number of corners: always 8*
0 $1 to $16 corner X, Y*
0 $17 Rotation angle, in degrees counterclockwise*
0 create outline with 8 corners*
4,1,8,$1,$2,$3,$4,$5,$6,$7,$8,$9,$10,$11,$12,$13,$14,$15,$16,$1,$2,$17*%
G04 Aperture macros list end*
%TA.AperFunction,SMDPad,CuDef*%
%ADD10R,0.800000X0.800000*%
%TD*%
%TA.AperFunction,SMDPad,CuDef*%
%ADD11R,1.200000X1.200000*%
%TD*%
%TA.AperFunction,SMDPad,CuDef*%
%ADD12Outline5P,-0.600000X0.120000X-0.120000X0.600000X0.600000X0.600000X0.600000X-0.600000X-0.600000X-0.600000X0.000000*%
%TD*%
%TA.AperFunction,SMDPad,CuDef*%
%ADD13R,0.400000X0.800000*%
%TD*%
%TA.AperFunction,SMDPad,CuDef*%
%ADD14R,0.800000X0.400000*%
%TD*%
%TA.AperFunction,SMDPad,CuDef*%
%ADD15R,0.900000X1.000000*%
%TD*%
%TA.AperFunction,SMDPad,CuDef*%
%ADD16R,0.700000X0.300000*%
%TD*%
%TA.AperFunction,SMDPad,CuDef*%
%ADD17R,0.800000X1.380000*%
%TD*%
%TA.AperFunction,SMDPad,CuDef*%
%ADD18RoundRect,0.135000X0.185000X-0.135000X0.185000X0.135000X-0.185000X0.135000X-0.185000X-0.135000X0*%
%TD*%
%TA.AperFunction,SMDPad,CuDef*%
%ADD19R,0.300000X1.000000*%
%TD*%
%TA.AperFunction,SMDPad,CuDef*%
%ADD20R,0.600000X1.000000*%
%TD*%
%TA.AperFunction,ComponentPad*%
%ADD21O,1.000000X1.600000*%
%TD*%
%TA.AperFunction,ComponentPad*%
%ADD22O,1.000000X2.100000*%
%TD*%
%TA.AperFunction,SMDPad,CuDef*%
%ADD23RoundRect,0.135000X-0.185000X0.135000X-0.185000X-0.135000X0.185000X-0.135000X0.185000X0.135000X0*%
%TD*%
%TA.AperFunction,SMDPad,CuDef*%
%ADD24RoundRect,0.225000X0.250000X-0.225000X0.250000X0.225000X-0.250000X0.225000X-0.250000X-0.225000X0*%
%TD*%
%TA.AperFunction,SMDPad,CuDef*%
%ADD25RoundRect,0.135000X0.135000X0.185000X-0.135000X0.185000X-0.135000X-0.185000X0.135000X-0.185000X0*%
%TD*%
%TA.AperFunction,SMDPad,CuDef*%
%ADD26RoundRect,0.140000X-0.170000X0.140000X-0.170000X-0.140000X0.170000X-0.140000X0.170000X0.140000X0*%
%TD*%
%TA.AperFunction,SMDPad,CuDef*%
%ADD27RoundRect,0.135000X-0.135000X-0.185000X0.135000X-0.185000X0.135000X0.185000X-0.135000X0.185000X0*%
%TD*%
%TA.AperFunction,SMDPad,CuDef*%
%ADD28C,0.500000*%
%TD*%
%TA.AperFunction,SMDPad,CuDef*%
%ADD29R,1.200000X0.550000*%
%TD*%
%TA.AperFunction,SMDPad,CuDef*%
%ADD30RoundRect,0.140000X0.140000X0.170000X-0.140000X0.170000X-0.140000X-0.170000X0.140000X-0.170000X0*%
%TD*%
%TA.AperFunction,SMDPad,CuDef*%
%ADD31RoundRect,0.140000X-0.140000X-0.170000X0.140000X-0.170000X0.140000X0.170000X-0.140000X0.170000X0*%
%TD*%
%TA.AperFunction,SMDPad,CuDef*%
%ADD32RoundRect,0.225000X-0.225000X-0.250000X0.225000X-0.250000X0.225000X0.250000X-0.225000X0.250000X0*%
%TD*%
%TA.AperFunction,SMDPad,CuDef*%
%ADD33R,4.600000X1.000000*%
%TD*%
%TA.AperFunction,SMDPad,CuDef*%
%ADD34R,3.400000X1.600000*%
%TD*%
%TA.AperFunction,ViaPad*%
%ADD35C,0.560000*%
%TD*%
%TA.AperFunction,ViaPad*%
%ADD36C,0.609600*%
%TD*%
%TA.AperFunction,Conductor*%
%ADD37C,0.406400*%
%TD*%
%TA.AperFunction,Conductor*%
%ADD38C,0.152400*%
%TD*%
%TA.AperFunction,Conductor*%
%ADD39C,0.348996*%
%TD*%
%TA.AperFunction,Conductor*%
%ADD40C,0.228600*%
%TD*%
G04 APERTURE END LIST*
D10*
%TO.P,U3,65,GND*%
%TO.N,GND*%
X18430000Y52720000D03*
%TO.P,U3,64,GND*%
X18430000Y38720000D03*
%TO.P,U3,63,GND*%
X4430000Y38720000D03*
%TO.P,U3,62,GND*%
X4430000Y52720000D03*
D11*
%TO.P,U3,61,GND*%
X13080000Y44070000D03*
X13080000Y45720000D03*
X13080000Y47370000D03*
X11430000Y44070000D03*
X11430000Y45720000D03*
X11430000Y47370000D03*
X9780000Y44070000D03*
X9780000Y45720000D03*
D12*
X9780000Y47370000D03*
D13*
%TO.P,U3,60,GND*%
X5480000Y52720000D03*
%TO.P,U3,59,GND*%
X6330000Y52720000D03*
%TO.P,U3,58,GND*%
X7180000Y52720000D03*
%TO.P,U3,57,GND*%
X8030000Y52720000D03*
%TO.P,U3,56,GND*%
X8880000Y52720000D03*
%TO.P,U3,55,GND*%
X9730000Y52720000D03*
%TO.P,U3,54,GND*%
X10580000Y52720000D03*
%TO.P,U3,53,GND*%
X11430000Y52720000D03*
%TO.P,U3,52,GND*%
X12280000Y52720000D03*
%TO.P,U3,51,GND*%
X13130000Y52720000D03*
%TO.P,U3,50,GND*%
X13980000Y52720000D03*
%TO.P,U3,49,GND*%
X14830000Y52720000D03*
%TO.P,U3,48,GND*%
X15680000Y52720000D03*
%TO.P,U3,47,GND*%
X16530000Y52720000D03*
%TO.P,U3,46,GND*%
X17380000Y52720000D03*
D14*
%TO.P,U3,45,EN*%
%TO.N,ESP~{RST}*%
X18430000Y51670000D03*
%TO.P,U3,44,IO46*%
%TO.N,unconnected-(U3-IO46-Pad44)*%
X18430000Y50820000D03*
%TO.P,U3,43,GND*%
%TO.N,GND*%
X18430000Y49970000D03*
%TO.P,U3,42,GND*%
X18430000Y49120000D03*
%TO.P,U3,41,IO45*%
%TO.N,ESP45{slash}Q_EN*%
X18430000Y48270000D03*
%TO.P,U3,40,RXD0/IO44*%
%TO.N,unconnected-(U3-RXD0{slash}IO44-Pad40)*%
X18430000Y47420000D03*
%TO.P,U3,39,TXD0/IO43*%
%TO.N,unconnected-(U3-TXD0{slash}IO43-Pad39)*%
X18430000Y46570000D03*
%TO.P,U3,38,IO42*%
%TO.N,unconnected-(U3-IO42-Pad38)*%
X18430000Y45720000D03*
%TO.P,U3,37,IO41*%
%TO.N,unconnected-(U3-IO41-Pad37)*%
X18430000Y44870000D03*
%TO.P,U3,36,IO40*%
%TO.N,unconnected-(U3-IO40-Pad36)*%
X18430000Y44020000D03*
%TO.P,U3,35,IO39*%
%TO.N,unconnected-(U3-IO39-Pad35)*%
X18430000Y43170000D03*
%TO.P,U3,34,IO38*%
%TO.N,unconnected-(U3-IO38-Pad34)*%
X18430000Y42320000D03*
%TO.P,U3,33,IO37*%
%TO.N,unconnected-(U3-IO37-Pad33)*%
X18430000Y41470000D03*
%TO.P,U3,32,IO36*%
%TO.N,unconnected-(U3-IO36-Pad32)*%
X18430000Y40620000D03*
%TO.P,U3,31,IO35*%
%TO.N,ESP35{slash}~{ALRT}*%
X18430000Y39770000D03*
D13*
%TO.P,U3,30,IO48*%
%TO.N,unconnected-(U3-IO48-Pad30)*%
X17380000Y38720000D03*
%TO.P,U3,29,IO34*%
%TO.N,unconnected-(U3-IO34-Pad29)*%
X16530000Y38720000D03*
%TO.P,U3,28,IO33*%
%TO.N,unconnected-(U3-IO33-Pad28)*%
X15680000Y38720000D03*
%TO.P,U3,27,IO47*%
%TO.N,unconnected-(U3-IO47-Pad27)*%
X14830000Y38720000D03*
%TO.P,U3,26,IO26*%
%TO.N,unconnected-(U3-IO26-Pad26)*%
X13980000Y38720000D03*
%TO.P,U3,25,IO21*%
%TO.N,unconnected-(U3-IO21-Pad25)*%
X13130000Y38720000D03*
%TO.P,U3,24,IOA20*%
%TO.N,ESP20{slash}D+*%
X12280000Y38720000D03*
%TO.P,U3,23,IOA19*%
%TO.N,ESP19{slash}D-*%
X11430000Y38720000D03*
%TO.P,U3,22,IOA18*%
%TO.N,unconnected-(U3-IOA18-Pad22)*%
X10580000Y38720000D03*
%TO.P,U3,21,IOA17*%
%TO.N,unconnected-(U3-IOA17-Pad21)*%
X9730000Y38720000D03*
%TO.P,U3,20,IOA16*%
%TO.N,unconnected-(U3-IOA16-Pad20)*%
X8880000Y38720000D03*
%TO.P,U3,19,IOA15*%
%TO.N,unconnected-(U3-IOA15-Pad19)*%
X8030000Y38720000D03*
%TO.P,U3,18,IOA14*%
%TO.N,unconnected-(U3-IOA14-Pad18)*%
X7180000Y38720000D03*
%TO.P,U3,17,IOA13*%
%TO.N,unconnected-(U3-IOA13-Pad17)*%
X6330000Y38720000D03*
%TO.P,U3,16,IOA12*%
%TO.N,unconnected-(U3-IOA12-Pad16)*%
X5480000Y38720000D03*
D14*
%TO.P,U3,15,IOA11*%
%TO.N,unconnected-(U3-IOA11-Pad15)*%
X4430000Y39770000D03*
%TO.P,U3,14,IOA10*%
%TO.N,unconnected-(U3-IOA10-Pad14)*%
X4430000Y40620000D03*
%TO.P,U3,13,IOA9*%
%TO.N,ESP9{slash}SCL*%
X4430000Y41470000D03*
%TO.P,U3,12,IOA8*%
%TO.N,ESP8{slash}SDA*%
X4430000Y42320000D03*
%TO.P,U3,11,IOA7*%
%TO.N,unconnected-(U3-IOA7-Pad11)*%
X4430000Y43170000D03*
%TO.P,U3,10,IOA6*%
%TO.N,unconnected-(U3-IOA6-Pad10)*%
X4430000Y44020000D03*
%TO.P,U3,9,IOA5*%
%TO.N,unconnected-(U3-IOA5-Pad9)*%
X4430000Y44870000D03*
%TO.P,U3,8,IOA4*%
%TO.N,unconnected-(U3-IOA4-Pad8)*%
X4430000Y45720000D03*
%TO.P,U3,7,IOA3*%
%TO.N,unconnected-(U3-IOA3-Pad7)*%
X4430000Y46570000D03*
%TO.P,U3,6,IOA2*%
%TO.N,unconnected-(U3-IOA2-Pad6)*%
X4430000Y47420000D03*
%TO.P,U3,5,IOA1*%
%TO.N,unconnected-(U3-IOA1-Pad5)*%
X4430000Y48270000D03*
%TO.P,U3,4,IO0*%
%TO.N,unconnected-(U3-IO0-Pad4)*%
X4430000Y49120000D03*
%TO.P,U3,3,3V3*%
%TO.N,3.3V*%
X4430000Y49970000D03*
%TO.P,U3,2,GND*%
%TO.N,GND*%
X4430000Y50820000D03*
%TO.P,U3,1,GND*%
X4430000Y51670000D03*
%TD*%
D15*
%TO.P,SW2,2,2*%
%TO.N,GND*%
X15385000Y24917500D03*
X11285000Y24917500D03*
%TO.P,SW2,1,1*%
%TO.N,ESP~{RST}*%
X15385000Y26517500D03*
X11285000Y26517500D03*
%TD*%
D16*
%TO.P,U4,1,CTG*%
%TO.N,GND*%
X20357500Y8775000D03*
%TO.P,U4,2,CELL*%
%TO.N,VBATT*%
X20357500Y9275000D03*
%TO.P,U4,3,VDD*%
X20357500Y9775000D03*
%TO.P,U4,4,GND*%
%TO.N,GND*%
X20357500Y10275000D03*
%TO.P,U4,5,~{ALRT}*%
%TO.N,ESP35{slash}~{ALRT}*%
X18377500Y10275000D03*
%TO.P,U4,6,QSTRT*%
%TO.N,GND*%
X18377500Y9775000D03*
%TO.P,U4,7,SCL*%
%TO.N,ESP9{slash}SCL*%
X18377500Y9275000D03*
%TO.P,U4,8,SDA*%
%TO.N,ESP8{slash}SDA*%
X18377500Y8775000D03*
D17*
%TO.P,U4,9,GND*%
%TO.N,GND*%
X19367500Y9525000D03*
%TD*%
D18*
%TO.P,R8,1*%
%TO.N,3.3V*%
X18415000Y25207500D03*
%TO.P,R8,2*%
%TO.N,ESP~{RST}*%
X18415000Y26227500D03*
%TD*%
D19*
%TO.P,J1,A5,CC1*%
%TO.N,Net-(J1-CC1)*%
X10180000Y6006250D03*
%TO.P,J1,A6,D+*%
%TO.N,ESP20{slash}D+*%
X11180000Y6006250D03*
%TO.P,J1,A7,D-*%
%TO.N,ESP19{slash}D-*%
X11680000Y6006250D03*
%TO.P,J1,A8,NC*%
%TO.N,unconnected-(J1-NC-PadA8)*%
X12680000Y6006250D03*
%TO.P,J1,B5,CC2*%
%TO.N,Net-(J1-CC2)*%
X13180000Y6006250D03*
%TO.P,J1,B6,D+*%
%TO.N,ESP20{slash}D+*%
X12180000Y6006250D03*
%TO.P,J1,B7,D-*%
%TO.N,ESP19{slash}D-*%
X10680000Y6006250D03*
%TO.P,J1,B8,NC*%
%TO.N,unconnected-(J1-NC-PadB8)*%
X9680000Y6006250D03*
D20*
%TO.P,J1,GND,GND*%
%TO.N,GND*%
X8205000Y6006250D03*
X14655000Y6006250D03*
D21*
%TO.P,J1,NC1,NC*%
%TO.N,unconnected-(J1-NC-PadNC1)*%
X7112000Y1251250D03*
D22*
%TO.P,J1,NC2,NC*%
%TO.N,unconnected-(J1-NC-PadNC2)*%
X7112000Y5431250D03*
%TO.P,J1,NC3,NC*%
%TO.N,unconnected-(J1-NC-PadNC3)*%
X15748000Y5431250D03*
D21*
%TO.P,J1,S,SHIELD*%
%TO.N,GND*%
X15748000Y1251250D03*
D20*
%TO.P,J1,VBUS,VBUS*%
%TO.N,VUSB*%
X8980000Y6006250D03*
X13880000Y6006250D03*
%TD*%
D23*
%TO.P,R17,1*%
%TO.N,Net-(JP2-A)*%
X9842500Y13210000D03*
%TO.P,R17,2*%
%TO.N,ESP45{slash}Q_EN*%
X9842500Y12190000D03*
%TD*%
D24*
%TO.P,C9,1*%
%TO.N,VUSB*%
X11430000Y13830000D03*
%TO.P,C9,2*%
%TO.N,GND*%
X11430000Y15380000D03*
%TD*%
D25*
%TO.P,R13,1*%
%TO.N,VIN*%
X6225000Y23495000D03*
%TO.P,R13,2*%
%TO.N,EN*%
X5205000Y23495000D03*
%TD*%
D26*
%TO.P,C2,1*%
%TO.N,VBATT*%
X21590000Y10005000D03*
%TO.P,C2,2*%
%TO.N,GND*%
X21590000Y9045000D03*
%TD*%
D27*
%TO.P,R16,1*%
%TO.N,Net-(U5-PROG)*%
X14412500Y12065000D03*
%TO.P,R16,2*%
%TO.N,GND*%
X15432500Y12065000D03*
%TD*%
D28*
%TO.P,FID4,*%
%TO.N,*%
X17145000Y635000D03*
%TD*%
D18*
%TO.P,R11,1*%
%TO.N,Net-(J1-CC1)*%
X5715000Y4252500D03*
%TO.P,R11,2*%
%TO.N,GND*%
X5715000Y5272500D03*
%TD*%
D29*
%TO.P,U2,1,I/O1*%
%TO.N,unconnected-(U2-I{slash}O1-Pad1)*%
X16222600Y8575000D03*
%TO.P,U2,2,GND*%
%TO.N,GND*%
X16222600Y9525000D03*
%TO.P,U2,3,I/O2*%
%TO.N,unconnected-(U2-I{slash}O2-Pad3)*%
X16222600Y10475000D03*
%TO.P,U2,4,I/O3*%
%TO.N,ESP19{slash}D-*%
X13622400Y10475000D03*
%TO.P,U2,5,VCC*%
%TO.N,VUSB*%
X13622500Y9525000D03*
%TO.P,U2,6,I/O4*%
%TO.N,ESP20{slash}D+*%
X13622400Y8575000D03*
%TD*%
%TO.P,U5,1,STAT*%
%TO.N,unconnected-(U5-STAT-Pad1)*%
X16222600Y13655000D03*
%TO.P,U5,2,GND*%
%TO.N,GND*%
X16222600Y14605000D03*
%TO.P,U5,3,V_{BAT}*%
%TO.N,VBATT*%
X16222600Y15555000D03*
%TO.P,U5,4,VIN*%
%TO.N,VUSB*%
X13622400Y15555000D03*
%TO.P,U5,5,PROG*%
%TO.N,Net-(U5-PROG)*%
X13622400Y13655000D03*
%TD*%
D25*
%TO.P,R19,1*%
%TO.N,ESP45{slash}Q_EN*%
X8447500Y13335000D03*
%TO.P,R19,2*%
%TO.N,GND*%
X7427500Y13335000D03*
%TD*%
D30*
%TO.P,C7,1*%
%TO.N,3.3V*%
X2385000Y53975000D03*
%TO.P,C7,2*%
%TO.N,GND*%
X1425000Y53975000D03*
%TD*%
D26*
%TO.P,C12,1*%
%TO.N,VBATT*%
X18415000Y15085000D03*
%TO.P,C12,2*%
%TO.N,GND*%
X18415000Y14125000D03*
%TD*%
%TO.P,C6,1*%
%TO.N,ESP~{RST}*%
X17145000Y26197500D03*
%TO.P,C6,2*%
%TO.N,GND*%
X17145000Y25237500D03*
%TD*%
D29*
%TO.P,U6,1,VIN*%
%TO.N,VIN*%
X4414900Y26667500D03*
%TO.P,U6,2,GND*%
%TO.N,GND*%
X4414900Y25717500D03*
%TO.P,U6,3,EN*%
%TO.N,EN*%
X4414900Y24767500D03*
%TO.P,U6,4,NC*%
%TO.N,unconnected-(U6-NC-Pad4)*%
X7015100Y24767500D03*
%TO.P,U6,5,VOUT*%
%TO.N,3.3V*%
X7015100Y26667500D03*
%TD*%
D23*
%TO.P,R10,1*%
%TO.N,GND*%
X17145000Y5272500D03*
%TO.P,R10,2*%
%TO.N,Net-(J1-CC2)*%
X17145000Y4252500D03*
%TD*%
D31*
%TO.P,C10,1*%
%TO.N,VIN*%
X5235000Y27940000D03*
%TO.P,C10,2*%
%TO.N,GND*%
X6195000Y27940000D03*
%TD*%
D32*
%TO.P,C1,1*%
%TO.N,GND*%
X1130000Y55562500D03*
%TO.P,C1,2*%
%TO.N,3.3V*%
X2680000Y55562500D03*
%TD*%
D29*
%TO.P,U1,1,VIN*%
%TO.N,VIN*%
X10825100Y8575000D03*
%TO.P,U1,2,GND*%
%TO.N,GND*%
X10825100Y9525000D03*
%TO.P,U1,3,EN*%
%TO.N,ESP45{slash}Q_EN*%
X10825100Y10475000D03*
%TO.P,U1,4,NC*%
%TO.N,unconnected-(U1-NC-Pad4)*%
X8224900Y10475000D03*
%TO.P,U1,5,VOUT*%
%TO.N,3.3V_P*%
X8224900Y8575000D03*
%TD*%
D31*
%TO.P,C13,1*%
%TO.N,3.3V*%
X9045000Y26670000D03*
%TO.P,C13,2*%
%TO.N,GND*%
X10005000Y26670000D03*
%TD*%
D26*
%TO.P,C3,1*%
%TO.N,3.3V_P*%
X6667500Y10005000D03*
%TO.P,C3,2*%
%TO.N,GND*%
X6667500Y9045000D03*
%TD*%
D30*
%TO.P,C14,1*%
%TO.N,VIN*%
X10957500Y7620000D03*
%TO.P,C14,2*%
%TO.N,GND*%
X9997500Y7620000D03*
%TD*%
D33*
%TO.P,J3,1,-*%
%TO.N,GND*%
X7510000Y17415000D03*
%TO.P,J3,2,+*%
%TO.N,VBATT*%
X7510000Y19415000D03*
D34*
%TO.P,J3,NC1,NC1*%
%TO.N,unconnected-(J3-PadNC1)*%
X2310000Y15015000D03*
%TO.P,J3,NC2,NC2*%
%TO.N,unconnected-(J3-PadNC2)*%
X2310000Y21815000D03*
%TD*%
D35*
%TO.N,GND*%
X6667500Y28892500D03*
X10160000Y48768000D03*
X14986000Y4191000D03*
X14478000Y45720000D03*
X17018000Y27432000D03*
X7366000Y16510000D03*
X9907500Y11430000D03*
X12954000Y42926000D03*
X8255000Y40005000D03*
X8382000Y47244000D03*
X19812000Y48260000D03*
X6667500Y7620000D03*
X19558000Y38862000D03*
X4064000Y37592000D03*
X5588000Y51562000D03*
X7874000Y4191000D03*
X13970000Y51562000D03*
X8128000Y11181902D03*
X19812000Y45720000D03*
X16596902Y6985000D03*
X12086463Y25765618D03*
X17272000Y50546000D03*
X3556000Y38354000D03*
X16636900Y22098000D03*
X635000Y53975000D03*
X18475629Y37338600D03*
X14478000Y44450000D03*
X7112000Y51562000D03*
X5842000Y50546000D03*
X11430000Y51562000D03*
X10160000Y40322500D03*
X8382000Y43942000D03*
X12700000Y51562000D03*
X2032000Y17272000D03*
X14478000Y47498000D03*
X16827500Y51752500D03*
X11430000Y42926000D03*
X9906000Y42926000D03*
X8636000Y51562000D03*
X5842000Y25717500D03*
X19812000Y53340000D03*
X13716000Y16764000D03*
X5842000Y6350000D03*
X10160000Y51562000D03*
X10794900Y17780000D03*
X13970000Y40957500D03*
X11430000Y48768000D03*
X8382000Y45720000D03*
X12954000Y48768000D03*
X18884300Y33528000D03*
X15240000Y51562000D03*
X5080000Y11938000D03*
X16383000Y25908000D03*
%TO.N,VIN*%
X7937500Y30480000D03*
X9271900Y9398000D03*
X6985000Y23812500D03*
%TO.N,ESP8{slash}SDA*%
X5873750Y42227500D03*
X4318000Y12700000D03*
X3810000Y9048750D03*
X18034000Y6604000D03*
%TO.N,ESP9{slash}SCL*%
X17113150Y7541483D03*
X5333300Y41433750D03*
%TO.N,Net-(JP2-A)*%
X8255000Y22860000D03*
X9907500Y13970000D03*
%TO.N,ESP45{slash}Q_EN*%
X2794000Y13462000D03*
%TO.N,VUSB*%
X13462000Y4318000D03*
X9398000Y4318000D03*
D36*
%TO.N,ESP20{slash}D+*%
X12382500Y40005000D03*
D35*
X12700000Y8890000D03*
%TO.N,ESP19{slash}D-*%
X12445500Y11519729D03*
D36*
X11430000Y40005000D03*
%TO.N,ESP35{slash}~{ALRT}*%
X19533200Y39687500D03*
X18377500Y11467500D03*
D35*
%TO.N,Net-(JP2-A)*%
X14922500Y22542500D03*
%TO.N,ESP45{slash}Q_EN*%
X5514468Y48218218D03*
%TO.N,3.3V*%
X16510000Y24384000D03*
%TD*%
D37*
%TO.N,3.3V*%
X4430000Y49970000D02*
X3966800Y49970000D01*
X2919400Y48922600D02*
X2919400Y36398389D01*
X3966800Y49970000D02*
X2919400Y48922600D01*
X2919400Y36398389D02*
X8574100Y30743689D01*
X8574100Y30743689D02*
X8574100Y27878100D01*
X8574100Y27878100D02*
X8128000Y27432000D01*
X9045000Y26670000D02*
X9045000Y25494300D01*
X9045000Y25494300D02*
X10478400Y24060900D01*
X10478400Y24060900D02*
X17268400Y24060900D01*
X17268400Y24060900D02*
X18415000Y25207500D01*
D38*
%TO.N,ESP45{slash}Q_EN*%
X8932488Y48218218D02*
X5514468Y48218218D01*
%TO.N,ESP~{RST}*%
X18415000Y26227500D02*
X20321600Y28134100D01*
X20321600Y28134100D02*
X20321600Y49978400D01*
X20321600Y49978400D02*
X18630000Y51670000D01*
X18630000Y51670000D02*
X18430000Y51670000D01*
%TO.N,3.3V*%
X18607500Y25400000D02*
X18415000Y25207500D01*
D37*
%TO.N,GND*%
X11430000Y44070000D02*
X13080000Y44070000D01*
X18430000Y49120000D02*
X17428000Y49120000D01*
X15680000Y52002000D02*
X15240000Y51562000D01*
D38*
X14655000Y6006250D02*
X14655000Y5487186D01*
D37*
X11430000Y47370000D02*
X13080000Y47370000D01*
X10825100Y9525000D02*
X10188900Y9525000D01*
X9780000Y45720000D02*
X8382000Y45720000D01*
X5480000Y52720000D02*
X4430000Y52720000D01*
D38*
X6667500Y8750000D02*
X6667500Y7937500D01*
D37*
X12280000Y52720000D02*
X12280000Y51982000D01*
D38*
X14971200Y5170986D02*
X14971200Y4953000D01*
D37*
X4430000Y38720000D02*
X3668000Y38720000D01*
X14090592Y44070000D02*
X14474296Y44453704D01*
D38*
X8255000Y6734850D02*
X9112350Y6734850D01*
D37*
X9780000Y48388000D02*
X10160000Y48768000D01*
X11430000Y52720000D02*
X11430000Y51562000D01*
X19416000Y38720000D02*
X19558000Y38862000D01*
X9780000Y47370000D02*
X8508000Y47370000D01*
X13080000Y47370000D02*
X14350000Y47370000D01*
X9730000Y51992000D02*
X10160000Y51562000D01*
X9780000Y43052000D02*
X9906000Y42926000D01*
X4430000Y50820000D02*
X5568000Y50820000D01*
D38*
X18377500Y9775000D02*
X19117500Y9775000D01*
D37*
X16530000Y52050000D02*
X16827500Y51752500D01*
X13130000Y51992000D02*
X12700000Y51562000D01*
X10188900Y9525000D02*
X9398000Y10315900D01*
X17380000Y52720000D02*
X17380000Y51987500D01*
X9780000Y47370000D02*
X9780000Y45720000D01*
X13080000Y48642000D02*
X12954000Y48768000D01*
X9780000Y45720000D02*
X11430000Y45720000D01*
X11430000Y45720000D02*
X11430000Y44070000D01*
X6330000Y52720000D02*
X6330000Y52344000D01*
X13980000Y51572000D02*
X13970000Y51562000D01*
D38*
X19117500Y9775000D02*
X19367500Y9525000D01*
D37*
X8510000Y44070000D02*
X8382000Y43942000D01*
X12280000Y51982000D02*
X12700000Y51562000D01*
X4430000Y52720000D02*
X4430000Y51670000D01*
X18475629Y37338600D02*
X18430000Y37384229D01*
X17145000Y9525000D02*
X17526000Y9906000D01*
X13080000Y47370000D02*
X13080000Y48642000D01*
X8030000Y52168000D02*
X8636000Y51562000D01*
X4430000Y38720000D02*
X4430000Y37958000D01*
X14350000Y47370000D02*
X14478000Y47498000D01*
X9730000Y52720000D02*
X9730000Y51992000D01*
X8880000Y51806000D02*
X8636000Y51562000D01*
X17272000Y49276000D02*
X17272000Y50546000D01*
X15680000Y52720000D02*
X15680000Y52002000D01*
X18430000Y49120000D02*
X18430000Y49970000D01*
X14830000Y51972000D02*
X15240000Y51562000D01*
X14655000Y6965949D02*
X15069348Y7380297D01*
X11430000Y45720000D02*
X11430000Y47370000D01*
X16530000Y52720000D02*
X16530000Y52050000D01*
X10580000Y51982000D02*
X10160000Y51562000D01*
X8030000Y52720000D02*
X8030000Y52168000D01*
D38*
X6226850Y6734850D02*
X5842000Y6350000D01*
D37*
X15069348Y7380297D02*
X15983025Y7380297D01*
X3668000Y38720000D02*
X3556000Y38608000D01*
X13130000Y52720000D02*
X13130000Y51992000D01*
X9780000Y44070000D02*
X9780000Y43052000D01*
X9780000Y44070000D02*
X8510000Y44070000D01*
X14655000Y6006250D02*
X14655000Y6887429D01*
X17145000Y51752500D02*
X16827500Y51752500D01*
D38*
X8205000Y5487186D02*
X7874000Y5156186D01*
D37*
X18430000Y49970000D02*
X17848000Y49970000D01*
D38*
X18377500Y9775000D02*
X17657000Y9775000D01*
D37*
X18430000Y37384229D02*
X18430000Y38720000D01*
D38*
X17657000Y9775000D02*
X17526000Y9906000D01*
X7874000Y5156186D02*
X7874000Y5080000D01*
D37*
X9104198Y11181902D02*
X8128000Y11181902D01*
D38*
X8205000Y6006250D02*
X8205000Y5487186D01*
D37*
X17848000Y49970000D02*
X17272000Y50546000D01*
X13980000Y52720000D02*
X13980000Y51572000D01*
X7180000Y52720000D02*
X7180000Y51630000D01*
X8508000Y47370000D02*
X8382000Y47244000D01*
X5480000Y52720000D02*
X5480000Y51670000D01*
X13080000Y45720000D02*
X11430000Y45720000D01*
D38*
X8255000Y6734850D02*
X6226850Y6734850D01*
D37*
X18430000Y38720000D02*
X19416000Y38720000D01*
X11430000Y47370000D02*
X9780000Y47370000D01*
X13080000Y44070000D02*
X14090592Y44070000D01*
X14655000Y6887429D02*
X14655000Y6965949D01*
X6330000Y52344000D02*
X7112000Y51562000D01*
X5568000Y50820000D02*
X5842000Y50546000D01*
X7180000Y51630000D02*
X7112000Y51562000D01*
X11430000Y47370000D02*
X11430000Y48768000D01*
X9780000Y47370000D02*
X9780000Y48388000D01*
X17428000Y49120000D02*
X17272000Y49276000D01*
X9780000Y44070000D02*
X11430000Y44070000D01*
D38*
X8205000Y6006250D02*
X8205000Y6684850D01*
D37*
X8880000Y52720000D02*
X8880000Y51806000D01*
X5480000Y51670000D02*
X5588000Y51562000D01*
X9398000Y10315900D02*
X9398000Y10888100D01*
X17380000Y51987500D02*
X17145000Y51752500D01*
X19192000Y52720000D02*
X19812000Y53340000D01*
X14830000Y52720000D02*
X14830000Y51972000D01*
X16222600Y9525000D02*
X17145000Y9525000D01*
X4430000Y37958000D02*
X4064000Y37592000D01*
X9780000Y45720000D02*
X9780000Y44070000D01*
X17380000Y52720000D02*
X18430000Y52720000D01*
X10580000Y52720000D02*
X10580000Y51982000D01*
X13080000Y45720000D02*
X13080000Y44070000D01*
X18430000Y52720000D02*
X19192000Y52720000D01*
X11430000Y44070000D02*
X11430000Y42926000D01*
X13080000Y44070000D02*
X13080000Y43059408D01*
X13080000Y45720000D02*
X14478000Y45720000D01*
X9398000Y10888100D02*
X9104198Y11181902D01*
D38*
X14655000Y5487186D02*
X14971200Y5170986D01*
D37*
X4430000Y51670000D02*
X5480000Y51670000D01*
X13080000Y43059408D02*
X12950296Y42929704D01*
D38*
X8205000Y6684850D02*
X8255000Y6734850D01*
D37*
%TO.N,3.3V*%
X3175000Y50165000D02*
X3175000Y53975000D01*
X7015100Y26667500D02*
X8128000Y26667500D01*
X9042500Y26667500D02*
X9045000Y26670000D01*
X2385000Y53975000D02*
X3175000Y53975000D01*
X3175000Y55067500D02*
X2680000Y55562500D01*
X3175000Y53975000D02*
X3175000Y55067500D01*
X8128000Y26667500D02*
X9042500Y26667500D01*
X3370000Y49970000D02*
X3175000Y50165000D01*
D38*
%TO.N,VIN*%
X6667500Y23495000D02*
X6985000Y23812500D01*
D37*
X9310158Y9398000D02*
X10133158Y8575000D01*
X5715000Y30480000D02*
X7937500Y30480000D01*
X5235000Y30000000D02*
X5235000Y27940000D01*
X10957500Y7620000D02*
X10957500Y8442600D01*
X9271900Y9398000D02*
X9310158Y9398000D01*
X4414900Y27119900D02*
X5235000Y27940000D01*
X4414900Y26667500D02*
X4414900Y27119900D01*
X10957500Y8442600D02*
X10825100Y8575000D01*
X10133158Y8575000D02*
X10825100Y8575000D01*
D38*
X6225000Y23495000D02*
X6667500Y23495000D01*
D37*
X5715000Y30480000D02*
X5235000Y30000000D01*
D38*
%TO.N,ESP~{RST}*%
X15385000Y26517500D02*
X16825000Y26517500D01*
X17145000Y26197500D02*
X18385000Y26197500D01*
X11285000Y26517500D02*
X15385000Y26517500D01*
X16825000Y26517500D02*
X17145000Y26197500D01*
X18385000Y26197500D02*
X18415000Y26227500D01*
%TO.N,VBATT*%
X20357500Y9775000D02*
X20955000Y9775000D01*
X20955000Y9775000D02*
X21360000Y9775000D01*
X20357500Y9275000D02*
X20863750Y9275000D01*
D37*
X16222600Y16797400D02*
X16222600Y15555000D01*
X14038100Y18981900D02*
X16222600Y16797400D01*
X16222600Y15555000D02*
X17945000Y15555000D01*
X7510000Y19415000D02*
X10112500Y19415000D01*
X10112500Y19415000D02*
X10545600Y18981900D01*
X17945000Y15555000D02*
X18415000Y15085000D01*
D38*
X20863750Y9275000D02*
X20955000Y9366250D01*
X21590000Y11910000D02*
X21590000Y10005000D01*
D37*
X10545600Y18981900D02*
X14038100Y18981900D01*
D38*
X21360000Y9775000D02*
X21590000Y10005000D01*
X20955000Y9366250D02*
X20955000Y9775000D01*
X18415000Y15085000D02*
X21590000Y11910000D01*
%TO.N,ESP8{slash}SDA*%
X4318000Y12414250D02*
X3810000Y11906250D01*
X5781250Y42320000D02*
X5873750Y42227500D01*
X3810000Y11906250D02*
X3810000Y9048750D01*
X4430000Y42320000D02*
X5781250Y42320000D01*
X17621250Y8572500D02*
X17823750Y8775000D01*
X17823750Y8775000D02*
X18377500Y8775000D01*
X4318000Y12700000D02*
X4318000Y12414250D01*
X17621250Y7016750D02*
X17621250Y8572500D01*
X18034000Y6604000D02*
X17621250Y7016750D01*
%TO.N,ESP9{slash}SCL*%
X17688750Y9275000D02*
X18377500Y9275000D01*
X17316450Y7716970D02*
X17316450Y8902700D01*
X4430000Y41470000D02*
X5297050Y41470000D01*
X17140963Y7541483D02*
X17316450Y7716970D01*
X17316450Y8902700D02*
X17688750Y9275000D01*
X5297050Y41470000D02*
X5333300Y41433750D01*
X17113150Y7541483D02*
X17140963Y7541483D01*
%TO.N,Net-(JP2-A)*%
X9907500Y13970000D02*
X9842500Y13905000D01*
X14731400Y22733600D02*
X8381400Y22733600D01*
X14922500Y22542500D02*
X14731400Y22733600D01*
X9842500Y13905000D02*
X9842500Y13210000D01*
X8381400Y22733600D02*
X8255000Y22860000D01*
%TO.N,EN*%
X4414900Y23842600D02*
X4414900Y24767500D01*
X4762500Y23495000D02*
X4414900Y23842600D01*
X5205000Y23495000D02*
X4762500Y23495000D01*
%TO.N,Net-(U5-PROG)*%
X13622400Y12855100D02*
X13622400Y13655000D01*
X14412500Y12065000D02*
X13622400Y12855100D01*
%TO.N,ESP45{slash}Q_EN*%
X9207500Y13017500D02*
X9207500Y12382500D01*
X10825100Y10475000D02*
X10825100Y11717400D01*
X9400000Y12190000D02*
X9842500Y12190000D01*
X15916980Y49530000D02*
X9906000Y49530000D01*
X8447500Y13777500D02*
X8255000Y13970000D01*
X3302000Y13970000D02*
X8255000Y13970000D01*
X10825100Y11717400D02*
X10352500Y12190000D01*
X8447500Y13335000D02*
X8890000Y13335000D01*
X8447500Y13335000D02*
X8447500Y13777500D01*
X8890000Y13335000D02*
X9207500Y13017500D01*
X9906000Y49530000D02*
X9651400Y49275400D01*
X17176980Y48270000D02*
X15916980Y49530000D01*
X10352500Y12190000D02*
X9842500Y12190000D01*
X2794000Y13462000D02*
X3302000Y13970000D01*
X9651400Y49275400D02*
X9651400Y48937130D01*
X18430000Y48270000D02*
X17176980Y48270000D01*
X9207500Y12382500D02*
X9400000Y12190000D01*
X9651400Y48937130D02*
X8932488Y48218218D01*
D37*
%TO.N,3.3V_P*%
X6667500Y10005000D02*
X6962500Y10005000D01*
X7283750Y9683750D02*
X7877300Y9683750D01*
X8224900Y9336150D02*
X8224900Y8575000D01*
X7877300Y9683750D02*
X8224900Y9336150D01*
X6962500Y10005000D02*
X7283750Y9683750D01*
%TO.N,VUSB*%
X12363750Y13830000D02*
X12382500Y13811250D01*
X12382500Y13017500D02*
X12382500Y13811250D01*
X13622400Y15555000D02*
X12697500Y15555000D01*
D39*
X13462000Y5103200D02*
X13880000Y5521200D01*
D37*
X13622400Y9575000D02*
X14872500Y9575000D01*
X13880000Y7212500D02*
X13880000Y6006250D01*
X12697500Y15555000D02*
X12382500Y15240000D01*
X14922500Y9525000D02*
X14922500Y10761100D01*
D39*
X13880000Y5521200D02*
X13880000Y6006250D01*
D37*
X14922500Y8255000D02*
X14922500Y9525000D01*
X14872500Y9575000D02*
X14922500Y9525000D01*
D39*
X13462000Y4318000D02*
X13462000Y5103200D01*
X8980000Y5521200D02*
X8980000Y6006250D01*
D37*
X12382500Y15240000D02*
X12382500Y13811250D01*
X14922500Y8255000D02*
X13880000Y7212500D01*
X11430000Y13830000D02*
X12363750Y13830000D01*
X14922500Y10761100D02*
X14578000Y11105600D01*
X14578000Y11105600D02*
X14294400Y11105600D01*
D39*
X9398000Y4318000D02*
X9398000Y5103200D01*
X9398000Y5103200D02*
X8980000Y5521200D01*
D37*
X14294400Y11105600D02*
X12382500Y13017500D01*
D40*
%TO.N,ESP20{slash}D+*%
X12446000Y8636000D02*
X12446000Y7061200D01*
X12700000Y8890000D02*
X12446000Y8636000D01*
X12280000Y39902500D02*
X12382500Y40005000D01*
X12700000Y8890000D02*
X13015000Y8575000D01*
X12180000Y6795200D02*
X12180000Y6006250D01*
X11271250Y5080000D02*
X12065000Y5080000D01*
X12180000Y6006250D02*
X12180000Y5195000D01*
X12180000Y5195000D02*
X12065000Y5080000D01*
X12280000Y38720000D02*
X12280000Y39902500D01*
X11180000Y5171250D02*
X11271250Y5080000D01*
X12446000Y7061200D02*
X12180000Y6795200D01*
X13015000Y8575000D02*
X13622400Y8575000D01*
X11180000Y6006250D02*
X11180000Y5171250D01*
%TO.N,ESP19{slash}D-*%
X13622400Y10475000D02*
X12079648Y10475000D01*
X11045000Y6917500D02*
X11680000Y6917500D01*
X12065000Y10489648D02*
X12065000Y11171584D01*
X12065000Y7302500D02*
X12065000Y10489648D01*
X11680000Y6917500D02*
X12065000Y7302500D01*
X12413145Y11519729D02*
X12445500Y11519729D01*
X12065000Y11171584D02*
X12413145Y11519729D01*
X10680000Y6006250D02*
X10680000Y6552500D01*
X10680000Y6552500D02*
X11045000Y6917500D01*
X11430000Y38720000D02*
X11430000Y40005000D01*
X12079648Y10475000D02*
X12065000Y10489648D01*
X11680000Y6006250D02*
X11680000Y6917500D01*
D38*
%TO.N,Net-(J1-CC1)*%
X10180000Y6006250D02*
X10180000Y4380730D01*
X10180000Y4380730D02*
X9357270Y3558000D01*
X9357270Y3558000D02*
X5842000Y3558000D01*
X5715000Y4252500D02*
X5715000Y3685000D01*
X5715000Y3685000D02*
X5842000Y3558000D01*
%TO.N,Net-(J1-CC2)*%
X12953400Y4064600D02*
X13460000Y3558000D01*
X17145000Y3685000D02*
X17018000Y3558000D01*
X17145000Y4252500D02*
X17145000Y3685000D01*
X13460000Y3558000D02*
X17018000Y3558000D01*
X13180000Y5391267D02*
X12953400Y5164667D01*
X13180000Y6006250D02*
X13180000Y5391267D01*
X12953400Y5164667D02*
X12953400Y4064600D01*
%TO.N,ESP35{slash}~{ALRT}*%
X18377500Y11467500D02*
X18377500Y10275000D01*
X19450700Y39770000D02*
X19533200Y39687500D01*
X18430000Y39770000D02*
X19450700Y39770000D01*
D37*
%TO.N,3.3V*%
X4430000Y49970000D02*
X3370000Y49970000D01*
X8128000Y26667500D02*
X8128000Y27432000D01*
%TD*%
%TA.AperFunction,Conductor*%
%TO.N,GND*%
G36*
X7970335Y5328450D02*
G01*
X7998342Y5318087D01*
X8026366Y5307887D01*
X8026490Y5307671D01*
X8026725Y5307584D01*
X8041527Y5281628D01*
X8056430Y5255816D01*
X8056386Y5255571D01*
X8056511Y5255353D01*
X8045990Y5196601D01*
X8003718Y5123384D01*
X7963105Y4971810D01*
X7928618Y4922557D01*
X7870539Y4906994D01*
X7816046Y4932405D01*
X7790635Y4986899D01*
X7790300Y4994560D01*
X7790300Y5241040D01*
X7798186Y5262709D01*
X7802312Y5285395D01*
X7808233Y5290310D01*
X7810865Y5297541D01*
X7830835Y5309072D01*
X7848577Y5323798D01*
X7859605Y5325683D01*
X7862936Y5327605D01*
X7873138Y5327995D01*
X7878669Y5328939D01*
X7970335Y5328450D01*
G37*
%TD.AperFunction*%
%TA.AperFunction,Conductor*%
G36*
X15006020Y5320103D02*
G01*
X15031425Y5313593D01*
X15033915Y5310118D01*
X15037940Y5308677D01*
X15051172Y5286039D01*
X15066450Y5264721D01*
X15067314Y5258423D01*
X15068282Y5256767D01*
X15067871Y5254364D01*
X15069700Y5241041D01*
X15069700Y4994560D01*
X15049135Y4938059D01*
X14997064Y4907995D01*
X14937850Y4918436D01*
X14899201Y4964496D01*
X14896895Y4971810D01*
X14856281Y5123386D01*
X14856280Y5123388D01*
X14814010Y5196601D01*
X14811357Y5211640D01*
X14803651Y5224825D01*
X14806299Y5240327D01*
X14803568Y5255814D01*
X14811204Y5269041D01*
X14813776Y5284093D01*
X14825768Y5294266D01*
X14833632Y5307886D01*
X14848072Y5313186D01*
X14859628Y5322988D01*
X14889220Y5328288D01*
X14889663Y5328450D01*
X14981330Y5328940D01*
X15006020Y5320103D01*
G37*
%TD.AperFunction*%
%TA.AperFunction,Conductor*%
G36*
X3524601Y58144935D02*
G01*
X3554665Y58092864D01*
X3556000Y58077600D01*
X3556000Y55438233D01*
X3546951Y55413372D01*
X3540103Y55387816D01*
X3536810Y55385511D01*
X3535435Y55381732D01*
X3512518Y55368502D01*
X3490850Y55353328D01*
X3486845Y55353679D01*
X3483364Y55351668D01*
X3457302Y55356264D01*
X3430952Y55358569D01*
X3426483Y55361698D01*
X3424150Y55362109D01*
X3405945Y55376078D01*
X3334044Y55447979D01*
X3308633Y55502473D01*
X3308299Y55510134D01*
X3308299Y55844237D01*
X3308299Y55844238D01*
X3293342Y55938680D01*
X3235343Y56052509D01*
X3145009Y56142843D01*
X3031180Y56200842D01*
X3031178Y56200843D01*
X3031177Y56200843D01*
X2972282Y56210171D01*
X2936739Y56215800D01*
X2936737Y56215800D01*
X2423263Y56215800D01*
X2423261Y56215799D01*
X2328822Y56200843D01*
X2214992Y56142844D01*
X2124656Y56052508D01*
X2066657Y55938678D01*
X2051700Y55844238D01*
X2051700Y55280764D01*
X2051701Y55280762D01*
X2066657Y55186323D01*
X2066657Y55186322D01*
X2066658Y55186320D01*
X2124657Y55072491D01*
X2214991Y54982157D01*
X2328820Y54924158D01*
X2423261Y54909200D01*
X2705600Y54909201D01*
X2762101Y54888637D01*
X2792165Y54836565D01*
X2793500Y54821301D01*
X2793500Y54508977D01*
X2772935Y54452476D01*
X2720864Y54422412D01*
X2668452Y54429313D01*
X2608655Y54457197D01*
X2608656Y54457197D01*
X2562298Y54463300D01*
X2562296Y54463300D01*
X2207704Y54463300D01*
X2207702Y54463300D01*
X2161345Y54457197D01*
X2059613Y54409758D01*
X1980238Y54330383D01*
X1976692Y54325318D01*
X1927438Y54290832D01*
X1867540Y54296074D01*
X1832684Y54325323D01*
X1829342Y54330096D01*
X1750095Y54409343D01*
X1750093Y54409344D01*
X1648524Y54456707D01*
X1648525Y54456707D01*
X1602244Y54462800D01*
X1513901Y54462800D01*
X1513900Y54462799D01*
X1513900Y53487201D01*
X1513901Y53487200D01*
X1602244Y53487200D01*
X1648525Y53493294D01*
X1750093Y53540657D01*
X1750095Y53540658D01*
X1829341Y53619904D01*
X1832682Y53624675D01*
X1881932Y53659167D01*
X1941831Y53653932D01*
X1976694Y53624680D01*
X1980239Y53619617D01*
X1980242Y53619614D01*
X2059614Y53540242D01*
X2161347Y53492803D01*
X2195496Y53488308D01*
X2207702Y53486700D01*
X2207704Y53486700D01*
X2562298Y53486700D01*
X2573083Y53488121D01*
X2608653Y53492803D01*
X2668452Y53520689D01*
X2728349Y53525929D01*
X2777603Y53491442D01*
X2793500Y53441024D01*
X2793500Y50114776D01*
X2819497Y50017750D01*
X2869725Y49930752D01*
X3066722Y49733755D01*
X3092133Y49679261D01*
X3076570Y49621183D01*
X3066722Y49609446D01*
X2846653Y49389376D01*
X2614125Y49156849D01*
X2563897Y49069851D01*
X2537900Y48972825D01*
X2537900Y36348165D01*
X2563897Y36251139D01*
X2614125Y36164141D01*
X7749716Y31028551D01*
X7751415Y31024907D01*
X7754896Y31022897D01*
X7763942Y30998042D01*
X7775127Y30974057D01*
X7774086Y30970174D01*
X7775461Y30966396D01*
X7766412Y30941535D01*
X7759564Y30915979D01*
X7755882Y30912606D01*
X7754896Y30909895D01*
X7731511Y30890272D01*
X7702073Y30873276D01*
X7658123Y30861500D01*
X5770623Y30861500D01*
X5770607Y30861501D01*
X5765225Y30861501D01*
X5664775Y30861501D01*
X5632432Y30852835D01*
X5567745Y30835502D01*
X5530979Y30814276D01*
X5530980Y30814275D01*
X5480752Y30785276D01*
X4929725Y30234249D01*
X4879497Y30147251D01*
X4853500Y30050225D01*
X4853500Y28355054D01*
X4834193Y28302012D01*
X4834655Y28301689D01*
X4833449Y28299968D01*
X4832935Y28298553D01*
X4830917Y28296352D01*
X4830242Y28295387D01*
X4782803Y28193655D01*
X4776700Y28147298D01*
X4776700Y28057633D01*
X4756135Y28001132D01*
X4750955Y27995479D01*
X4441824Y27686347D01*
X4109625Y27354149D01*
X4059397Y27267151D01*
X4037640Y27185950D01*
X4003152Y27136696D01*
X3952736Y27120800D01*
X3797336Y27120800D01*
X3797334Y27120799D01*
X3745334Y27110457D01*
X3745333Y27110457D01*
X3686354Y27071048D01*
X3686352Y27071046D01*
X3646945Y27012069D01*
X3636600Y26960060D01*
X3636600Y26374937D01*
X3636601Y26374935D01*
X3646943Y26322935D01*
X3646943Y26322934D01*
X3646944Y26322932D01*
X3646945Y26322931D01*
X3686353Y26263953D01*
X3686356Y26263951D01*
X3692475Y26257832D01*
X3690946Y26256304D01*
X3719914Y26216795D01*
X3715980Y26156796D01*
X3691738Y26127905D01*
X3692836Y26126807D01*
X3686711Y26120683D01*
X3647416Y26061876D01*
X3637100Y26010013D01*
X3637100Y25806401D01*
X3637101Y25806400D01*
X5192698Y25806400D01*
X5192699Y25806401D01*
X5192699Y26010009D01*
X5182383Y26061876D01*
X5143088Y26120683D01*
X5136964Y26126807D01*
X5138599Y26128443D01*
X5109887Y26167598D01*
X5113816Y26227597D01*
X5138337Y26256820D01*
X5137325Y26257832D01*
X5143440Y26263949D01*
X5143447Y26263953D01*
X5182855Y26322931D01*
X5193200Y26374939D01*
X5193199Y26960060D01*
X5193199Y26960061D01*
X5193199Y26960064D01*
X5193198Y26960066D01*
X5182856Y27012066D01*
X5182856Y27012067D01*
X5182855Y27012069D01*
X5143447Y27071047D01*
X5111862Y27092152D01*
X5089905Y27106823D01*
X5054351Y27155313D01*
X5058284Y27215311D01*
X5076582Y27242061D01*
X5260477Y27425955D01*
X5314971Y27451366D01*
X5322632Y27451700D01*
X5412298Y27451700D01*
X5423083Y27453121D01*
X5458653Y27457803D01*
X5560386Y27505242D01*
X5639758Y27584614D01*
X5639759Y27584617D01*
X5643302Y27589676D01*
X5692552Y27624167D01*
X5752451Y27618931D01*
X5787314Y27589679D01*
X5790655Y27584907D01*
X5869904Y27505658D01*
X5869906Y27505657D01*
X5971475Y27458294D01*
X5971474Y27458294D01*
X6017756Y27452200D01*
X6106099Y27452200D01*
X6106100Y27452201D01*
X6106100Y27851099D01*
X6283900Y27851099D01*
X6283900Y27452201D01*
X6283901Y27452200D01*
X6372244Y27452200D01*
X6418525Y27458294D01*
X6520093Y27505657D01*
X6520095Y27505658D01*
X6599342Y27584905D01*
X6599343Y27584907D01*
X6646706Y27686475D01*
X6652800Y27732757D01*
X6652800Y27851099D01*
X6652799Y27851100D01*
X6283901Y27851100D01*
X6283900Y27851099D01*
X6106100Y27851099D01*
X6106100Y28427799D01*
X6283900Y28427799D01*
X6283900Y28028901D01*
X6283901Y28028900D01*
X6652799Y28028900D01*
X6652800Y28028901D01*
X6652800Y28147244D01*
X6646706Y28193526D01*
X6599343Y28295094D01*
X6599342Y28295096D01*
X6520095Y28374343D01*
X6520093Y28374344D01*
X6418524Y28421707D01*
X6418525Y28421707D01*
X6372244Y28427800D01*
X6283901Y28427800D01*
X6283900Y28427799D01*
X6106100Y28427799D01*
X6106099Y28427800D01*
X6017756Y28427800D01*
X5971474Y28421707D01*
X5869906Y28374344D01*
X5869904Y28374343D01*
X5790654Y28295093D01*
X5787312Y28290319D01*
X5782282Y28286798D01*
X5779914Y28281134D01*
X5758137Y28269892D01*
X5738058Y28255832D01*
X5731941Y28256368D01*
X5726487Y28253551D01*
X5702576Y28258937D01*
X5678160Y28261073D01*
X5672362Y28265743D01*
X5667830Y28266763D01*
X5650889Y28283036D01*
X5645392Y28287463D01*
X5640393Y28294023D01*
X5639758Y28295386D01*
X5638064Y28297080D01*
X5634483Y28301780D01*
X5627192Y28325180D01*
X5616834Y28347393D01*
X5616500Y28355054D01*
X5616500Y29805568D01*
X5637065Y29862069D01*
X5642245Y29867723D01*
X5847277Y30072755D01*
X5901771Y30098166D01*
X5909432Y30098500D01*
X7658123Y30098500D01*
X7702072Y30086724D01*
X7726268Y30072755D01*
X7760603Y30052932D01*
X7877164Y30021700D01*
X7997835Y30021700D01*
X7997836Y30021700D01*
X8081950Y30044238D01*
X8141848Y30038997D01*
X8184365Y29996481D01*
X8192600Y29959333D01*
X8192600Y28072533D01*
X8172035Y28016032D01*
X8166855Y28010378D01*
X7822725Y27666249D01*
X7772497Y27579251D01*
X7746500Y27482225D01*
X7746500Y27205263D01*
X7725935Y27148762D01*
X7673864Y27118698D01*
X7641458Y27119051D01*
X7632661Y27120800D01*
X6397536Y27120800D01*
X6397534Y27120799D01*
X6345534Y27110457D01*
X6345533Y27110457D01*
X6286554Y27071048D01*
X6286552Y27071046D01*
X6247145Y27012069D01*
X6236800Y26960060D01*
X6236800Y26374937D01*
X6236801Y26374935D01*
X6247143Y26322935D01*
X6247143Y26322934D01*
X6247144Y26322932D01*
X6247145Y26322931D01*
X6286553Y26263953D01*
X6345531Y26224545D01*
X6397539Y26214200D01*
X7632660Y26214201D01*
X7632663Y26214201D01*
X7632665Y26214202D01*
X7684665Y26224544D01*
X7684666Y26224544D01*
X7684666Y26224545D01*
X7684669Y26224545D01*
X7743647Y26263953D01*
X7743647Y26263954D01*
X7750845Y26268763D01*
X7752590Y26266151D01*
X7794442Y26285666D01*
X7802103Y26286000D01*
X8077775Y26286000D01*
X8178225Y26286000D01*
X8575600Y26286000D01*
X8632101Y26265435D01*
X8662165Y26213364D01*
X8663500Y26198100D01*
X8663500Y25444076D01*
X8689497Y25347050D01*
X8689498Y25347047D01*
X8689499Y25347046D01*
X8739724Y25260053D01*
X10244153Y23755624D01*
X10331147Y23705398D01*
X10428175Y23679399D01*
X10428176Y23679399D01*
X10534007Y23679399D01*
X10534023Y23679400D01*
X17318624Y23679400D01*
X17318625Y23679400D01*
X17415654Y23705399D01*
X17502647Y23755624D01*
X17573676Y23826653D01*
X17573676Y23826654D01*
X18480477Y24733457D01*
X18534971Y24758867D01*
X18542632Y24759201D01*
X18636714Y24759201D01*
X18636714Y24759202D01*
X18659524Y24762204D01*
X18682334Y24765206D01*
X18682335Y24765207D01*
X18682339Y24765207D01*
X18782474Y24811901D01*
X18860599Y24890026D01*
X18907293Y24990161D01*
X18913300Y25035789D01*
X18913299Y25379210D01*
X18913299Y25379213D01*
X18913299Y25379214D01*
X18913298Y25379216D01*
X18907294Y25424835D01*
X18907292Y25424841D01*
X18860599Y25524974D01*
X18782474Y25603099D01*
X18782472Y25603100D01*
X18782471Y25603101D01*
X18707981Y25637836D01*
X18665464Y25680352D01*
X18660224Y25740250D01*
X18694712Y25789504D01*
X18707981Y25797164D01*
X18727789Y25806401D01*
X18782474Y25831901D01*
X18860599Y25910026D01*
X18907293Y26010161D01*
X18913300Y26055789D01*
X18913299Y26329474D01*
X18933863Y26385974D01*
X18939032Y26391616D01*
X20537355Y27989937D01*
X20576101Y28083477D01*
X20576101Y28184723D01*
X20576101Y28191802D01*
X20576100Y28191816D01*
X20576100Y49917538D01*
X20576101Y49917547D01*
X20576101Y50029024D01*
X20537356Y50122561D01*
X20537355Y50122562D01*
X20537355Y50122563D01*
X19034044Y51625874D01*
X19008633Y51680368D01*
X19008299Y51688029D01*
X19008299Y51887564D01*
X19008298Y51887566D01*
X18997956Y51939566D01*
X18997956Y51939567D01*
X18958786Y51998189D01*
X18958547Y51998547D01*
X18923124Y52022216D01*
X18887572Y52070704D01*
X18891504Y52130703D01*
X18923125Y52168387D01*
X18958184Y52191814D01*
X18958188Y52191818D01*
X18997483Y52250625D01*
X19007800Y52302488D01*
X19007800Y52631099D01*
X19007799Y52631100D01*
X17836642Y52631100D01*
X17820267Y52621645D01*
X17816304Y52622344D01*
X17812657Y52620643D01*
X17787102Y52627492D01*
X17766635Y52631100D01*
X17468901Y52631100D01*
X17468900Y52631099D01*
X17468900Y52142202D01*
X17468901Y52142201D01*
X17597509Y52142201D01*
X17649375Y52152517D01*
X17708182Y52191812D01*
X17708185Y52191815D01*
X17731914Y52227326D01*
X17780404Y52262879D01*
X17840402Y52258945D01*
X17867211Y52240589D01*
X17950250Y52157400D01*
X17959484Y52137550D01*
X17972428Y52119896D01*
X17971843Y52110982D01*
X17975611Y52102883D01*
X17969926Y52081744D01*
X17968494Y52059898D01*
X17961956Y52052108D01*
X17959997Y52044819D01*
X17949948Y52037797D01*
X17936875Y52022216D01*
X17901456Y51998550D01*
X17901452Y51998546D01*
X17862045Y51939569D01*
X17851700Y51887560D01*
X17851700Y51452437D01*
X17851701Y51452435D01*
X17862043Y51400435D01*
X17862043Y51400434D01*
X17862044Y51400432D01*
X17862045Y51400431D01*
X17901453Y51341453D01*
X17934930Y51319084D01*
X17936424Y51318086D01*
X17971978Y51269596D01*
X17968045Y51209598D01*
X17936424Y51171914D01*
X17901454Y51148548D01*
X17901452Y51148546D01*
X17862045Y51089569D01*
X17851700Y51037560D01*
X17851700Y50602437D01*
X17851701Y50602435D01*
X17862043Y50550435D01*
X17862043Y50550434D01*
X17862044Y50550432D01*
X17862045Y50550431D01*
X17901453Y50491453D01*
X17901456Y50491451D01*
X17936873Y50467786D01*
X17972427Y50419297D01*
X17968495Y50359299D01*
X17936876Y50321616D01*
X17901818Y50298190D01*
X17901811Y50298183D01*
X17862516Y50239376D01*
X17852200Y50187513D01*
X17852200Y50058901D01*
X17852201Y50058900D01*
X19007798Y50058900D01*
X19007799Y50058901D01*
X19007799Y50187509D01*
X18997483Y50239376D01*
X18958188Y50298183D01*
X18958182Y50298189D01*
X18923124Y50321615D01*
X18887571Y50370105D01*
X18891505Y50430103D01*
X18923122Y50467784D01*
X18958547Y50491453D01*
X18997955Y50550431D01*
X19008300Y50602439D01*
X19008299Y50719574D01*
X19028863Y50776073D01*
X19080935Y50806137D01*
X19140148Y50795697D01*
X19158354Y50781728D01*
X20041355Y49898727D01*
X20066766Y49844233D01*
X20067100Y49836572D01*
X20067100Y40049016D01*
X20046535Y39992515D01*
X19994464Y39962451D01*
X19935250Y39972892D01*
X19917049Y39986858D01*
X19829831Y40074076D01*
X19787446Y40098547D01*
X19719668Y40137679D01*
X19596801Y40170600D01*
X19469599Y40170600D01*
X19346731Y40137679D01*
X19236570Y40074078D01*
X19212737Y40050244D01*
X19195345Y40042135D01*
X19180647Y40029801D01*
X19161747Y40026469D01*
X19158242Y40024834D01*
X19150583Y40024500D01*
X19055007Y40024500D01*
X18998506Y40045065D01*
X18981921Y40063565D01*
X18974898Y40074076D01*
X18958547Y40098547D01*
X18923574Y40121916D01*
X18888022Y40170403D01*
X18891954Y40230401D01*
X18923573Y40268085D01*
X18958547Y40291453D01*
X18997955Y40350431D01*
X19008300Y40402439D01*
X19008299Y40837560D01*
X19008299Y40837561D01*
X19008299Y40837564D01*
X19008298Y40837566D01*
X18997956Y40889566D01*
X18997956Y40889567D01*
X18980479Y40915723D01*
X18958547Y40948547D01*
X18923574Y40971916D01*
X18888022Y41020403D01*
X18891954Y41080401D01*
X18923573Y41118085D01*
X18958547Y41141453D01*
X18997955Y41200431D01*
X19008300Y41252439D01*
X19008299Y41687560D01*
X19008299Y41687561D01*
X19008299Y41687564D01*
X19008298Y41687566D01*
X18997956Y41739566D01*
X18997956Y41739567D01*
X18997955Y41739569D01*
X18958547Y41798547D01*
X18923574Y41821916D01*
X18888022Y41870403D01*
X18891954Y41930401D01*
X18923573Y41968085D01*
X18958547Y41991453D01*
X18997955Y42050431D01*
X19008300Y42102439D01*
X19008299Y42537560D01*
X19008299Y42537561D01*
X19008299Y42537564D01*
X19008298Y42537566D01*
X18997956Y42589566D01*
X18997956Y42589567D01*
X18996259Y42592107D01*
X18958547Y42648547D01*
X18923574Y42671916D01*
X18888022Y42720403D01*
X18891954Y42780401D01*
X18923573Y42818085D01*
X18958547Y42841453D01*
X18997955Y42900431D01*
X19008300Y42952439D01*
X19008299Y43387560D01*
X19008299Y43387561D01*
X19008299Y43387564D01*
X19008298Y43387566D01*
X18997956Y43439566D01*
X18997956Y43439567D01*
X18997955Y43439569D01*
X18958547Y43498547D01*
X18923574Y43521916D01*
X18888022Y43570403D01*
X18891954Y43630401D01*
X18923573Y43668085D01*
X18958547Y43691453D01*
X18997955Y43750431D01*
X19008300Y43802439D01*
X19008299Y44237560D01*
X19008299Y44237561D01*
X19008299Y44237564D01*
X19008298Y44237566D01*
X18997956Y44289566D01*
X18997956Y44289567D01*
X18997955Y44289569D01*
X18958547Y44348547D01*
X18923574Y44371916D01*
X18888022Y44420403D01*
X18891954Y44480401D01*
X18923573Y44518085D01*
X18958547Y44541453D01*
X18997955Y44600431D01*
X19008300Y44652439D01*
X19008299Y45087560D01*
X19008299Y45087561D01*
X19008299Y45087564D01*
X19008298Y45087566D01*
X18997956Y45139566D01*
X18997956Y45139567D01*
X18997955Y45139569D01*
X18958547Y45198547D01*
X18923574Y45221916D01*
X18888022Y45270403D01*
X18891954Y45330401D01*
X18923573Y45368085D01*
X18958547Y45391453D01*
X18997955Y45450431D01*
X19008300Y45502439D01*
X19008299Y45937560D01*
X19008299Y45937561D01*
X19008299Y45937564D01*
X19008298Y45937566D01*
X18997956Y45989566D01*
X18997956Y45989567D01*
X18997955Y45989569D01*
X18958547Y46048547D01*
X18923574Y46071916D01*
X18888022Y46120403D01*
X18891954Y46180401D01*
X18923573Y46218085D01*
X18958547Y46241453D01*
X18997955Y46300431D01*
X19008300Y46352439D01*
X19008299Y46787560D01*
X19008299Y46787561D01*
X19008299Y46787564D01*
X19008298Y46787566D01*
X18997956Y46839566D01*
X18997956Y46839567D01*
X18997955Y46839569D01*
X18958547Y46898547D01*
X18923574Y46921916D01*
X18888022Y46970403D01*
X18891954Y47030401D01*
X18923573Y47068085D01*
X18958547Y47091453D01*
X18997955Y47150431D01*
X19008300Y47202439D01*
X19008299Y47637560D01*
X19008299Y47637561D01*
X19008299Y47637564D01*
X19008298Y47637566D01*
X18997956Y47689566D01*
X18997956Y47689567D01*
X18997955Y47689569D01*
X18958547Y47748547D01*
X18923574Y47771916D01*
X18888022Y47820403D01*
X18891954Y47880401D01*
X18923573Y47918085D01*
X18958547Y47941453D01*
X18997955Y48000431D01*
X19008300Y48052439D01*
X19008299Y48487560D01*
X19008299Y48487561D01*
X19008299Y48487564D01*
X19008298Y48487566D01*
X18997956Y48539566D01*
X18997956Y48539567D01*
X18997955Y48539569D01*
X18958547Y48598547D01*
X18923124Y48622216D01*
X18887572Y48670704D01*
X18891504Y48730703D01*
X18923125Y48768387D01*
X18958184Y48791814D01*
X18958188Y48791818D01*
X18997483Y48850625D01*
X19007800Y48902488D01*
X19007800Y49031099D01*
X19007799Y49031100D01*
X17852202Y49031100D01*
X17852201Y49031099D01*
X17852201Y48902492D01*
X17862516Y48850625D01*
X17901811Y48791818D01*
X17901817Y48791812D01*
X17936875Y48768386D01*
X17972428Y48719896D01*
X17968494Y48659898D01*
X17950139Y48633092D01*
X17944037Y48627002D01*
X17901453Y48598547D01*
X17873247Y48556335D01*
X17867093Y48550191D01*
X17847244Y48540957D01*
X17829590Y48528012D01*
X17814917Y48525918D01*
X17812577Y48524828D01*
X17810743Y48525322D01*
X17804993Y48524500D01*
X17318807Y48524500D01*
X17262306Y48545065D01*
X17256652Y48550245D01*
X16673325Y49133572D01*
X16469384Y49337513D01*
X17852200Y49337513D01*
X17852200Y49208901D01*
X17852201Y49208900D01*
X18341099Y49208900D01*
X18341100Y49208901D01*
X18341100Y49513358D01*
X18331643Y49529737D01*
X18332341Y49533697D01*
X18330642Y49537340D01*
X18337489Y49562893D01*
X18341100Y49583371D01*
X18341100Y49881099D01*
X18518900Y49881099D01*
X18518900Y49576643D01*
X18528356Y49560265D01*
X18527657Y49556306D01*
X18529357Y49552662D01*
X18522509Y49527110D01*
X18518900Y49506638D01*
X18518900Y49208901D01*
X18518901Y49208900D01*
X19007798Y49208900D01*
X19007799Y49208901D01*
X19007799Y49337509D01*
X18997483Y49389376D01*
X18958188Y49448183D01*
X18958185Y49448186D01*
X18922674Y49471914D01*
X18887121Y49520404D01*
X18891055Y49580402D01*
X18922674Y49618086D01*
X18958185Y49641815D01*
X18958188Y49641818D01*
X18997483Y49700625D01*
X19007800Y49752488D01*
X19007800Y49881099D01*
X19007799Y49881100D01*
X18518901Y49881100D01*
X18518900Y49881099D01*
X18341100Y49881099D01*
X18341099Y49881100D01*
X17852202Y49881100D01*
X17852201Y49881099D01*
X17852201Y49752492D01*
X17862516Y49700625D01*
X17901811Y49641818D01*
X17901817Y49641812D01*
X17937325Y49618085D01*
X17972878Y49569595D01*
X17968944Y49509597D01*
X17937325Y49471915D01*
X17901817Y49448189D01*
X17901811Y49448183D01*
X17862516Y49389376D01*
X17852200Y49337513D01*
X16469384Y49337513D01*
X16061143Y49745755D01*
X16061141Y49745756D01*
X16061140Y49745757D01*
X15967604Y49784500D01*
X15967603Y49784500D01*
X9966862Y49784500D01*
X9966854Y49784501D01*
X9956623Y49784501D01*
X9855377Y49784501D01*
X9761839Y49745757D01*
X9507237Y49491155D01*
X9507236Y49491156D01*
X9435646Y49419565D01*
X9435643Y49419561D01*
X9396900Y49326025D01*
X9396900Y49078958D01*
X9376335Y49022457D01*
X9371155Y49016803D01*
X8852815Y48498463D01*
X8798321Y48473052D01*
X8790660Y48472718D01*
X5944513Y48472718D01*
X5888012Y48493283D01*
X5882358Y48498463D01*
X5795872Y48584949D01*
X5795871Y48584950D01*
X5691365Y48645286D01*
X5691364Y48645287D01*
X5691361Y48645288D01*
X5574804Y48676518D01*
X5454132Y48676518D01*
X5337574Y48645288D01*
X5233061Y48584948D01*
X5145715Y48497602D01*
X5091222Y48472191D01*
X5033143Y48487754D01*
X5015653Y48503946D01*
X5001651Y48520983D01*
X4997955Y48539569D01*
X4958547Y48598547D01*
X4912760Y48629141D01*
X4904502Y48639189D01*
X4898571Y48656015D01*
X4888022Y48670403D01*
X4888880Y48683510D01*
X4884515Y48695897D01*
X4890787Y48712598D01*
X4891954Y48730401D01*
X4901945Y48742310D01*
X4905655Y48752185D01*
X4914343Y48757084D01*
X4923573Y48768085D01*
X4958547Y48791453D01*
X4997955Y48850431D01*
X5008300Y48902439D01*
X5008299Y49337560D01*
X5008299Y49337564D01*
X5008298Y49337566D01*
X4997956Y49389566D01*
X4997956Y49389567D01*
X4997955Y49389569D01*
X4958547Y49448547D01*
X4923574Y49471916D01*
X4888022Y49520403D01*
X4891954Y49580401D01*
X4923573Y49618085D01*
X4958547Y49641453D01*
X4997955Y49700431D01*
X5008300Y49752439D01*
X5008299Y50187560D01*
X5008299Y50187564D01*
X5008298Y50187566D01*
X4997956Y50239566D01*
X4997956Y50239567D01*
X4958786Y50298189D01*
X4958547Y50298547D01*
X4923124Y50322216D01*
X4887572Y50370704D01*
X4891504Y50430703D01*
X4923125Y50468387D01*
X4958184Y50491814D01*
X4958188Y50491818D01*
X4997483Y50550625D01*
X5007800Y50602488D01*
X5007800Y50731099D01*
X5007799Y50731100D01*
X3852202Y50731100D01*
X3852201Y50731099D01*
X3852201Y50602492D01*
X3862516Y50550625D01*
X3904205Y50488236D01*
X3918498Y50429832D01*
X3891905Y50375905D01*
X3836871Y50351688D01*
X3831120Y50351500D01*
X3644400Y50351500D01*
X3587899Y50372065D01*
X3557835Y50424136D01*
X3556500Y50439400D01*
X3556500Y51037513D01*
X3852200Y51037513D01*
X3852200Y50908901D01*
X3852201Y50908900D01*
X4341099Y50908900D01*
X4341100Y50908901D01*
X4341100Y51213358D01*
X4331643Y51229737D01*
X4332341Y51233697D01*
X4330642Y51237340D01*
X4337489Y51262893D01*
X4341100Y51283371D01*
X4341100Y51581099D01*
X4518900Y51581099D01*
X4518900Y51276643D01*
X4528356Y51260265D01*
X4527657Y51256306D01*
X4529357Y51252662D01*
X4522509Y51227110D01*
X4518900Y51206638D01*
X4518900Y50908901D01*
X4518901Y50908900D01*
X5007798Y50908900D01*
X5007799Y50908901D01*
X5007799Y51037509D01*
X4997483Y51089376D01*
X4958188Y51148183D01*
X4958185Y51148186D01*
X4922674Y51171914D01*
X4887121Y51220404D01*
X4891055Y51280402D01*
X4922674Y51318086D01*
X4958185Y51341815D01*
X4958188Y51341818D01*
X4997483Y51400625D01*
X5007800Y51452488D01*
X5007800Y51581099D01*
X5007799Y51581100D01*
X4518901Y51581100D01*
X4518900Y51581099D01*
X4341100Y51581099D01*
X4341099Y51581100D01*
X3852202Y51581100D01*
X3852201Y51581099D01*
X3852201Y51452492D01*
X3862516Y51400625D01*
X3901811Y51341818D01*
X3901817Y51341812D01*
X3937325Y51318085D01*
X3972878Y51269595D01*
X3968944Y51209597D01*
X3937325Y51171915D01*
X3901817Y51148189D01*
X3901811Y51148183D01*
X3862516Y51089376D01*
X3852200Y51037513D01*
X3556500Y51037513D01*
X3556500Y51887513D01*
X3852200Y51887513D01*
X3852200Y51758901D01*
X3852201Y51758900D01*
X4341099Y51758900D01*
X4341100Y51758901D01*
X4341100Y52063358D01*
X4331643Y52079737D01*
X4332341Y52083697D01*
X4330642Y52087340D01*
X4337489Y52112893D01*
X4341100Y52133371D01*
X4341100Y52631099D01*
X4518900Y52631099D01*
X4518900Y52126643D01*
X4528356Y52110265D01*
X4527657Y52106306D01*
X4529357Y52102662D01*
X4522509Y52077110D01*
X4518900Y52056638D01*
X4518900Y51758901D01*
X4518901Y51758900D01*
X5007798Y51758900D01*
X5007799Y51758901D01*
X5007799Y51887509D01*
X4997483Y51939376D01*
X4958188Y51998183D01*
X4958185Y51998186D01*
X4922674Y52021914D01*
X4887121Y52070404D01*
X4891055Y52130402D01*
X4909355Y52157155D01*
X4992845Y52240645D01*
X5012719Y52249913D01*
X5030404Y52262879D01*
X5039278Y52262298D01*
X5047339Y52266056D01*
X5068522Y52260380D01*
X5090402Y52258945D01*
X5098156Y52252439D01*
X5105417Y52250493D01*
X5112456Y52240441D01*
X5128086Y52227326D01*
X5151814Y52191815D01*
X5151817Y52191812D01*
X5210624Y52152517D01*
X5262486Y52142201D01*
X5391100Y52142201D01*
X5391100Y52631099D01*
X5568900Y52631099D01*
X5568900Y52142202D01*
X5568901Y52142201D01*
X5697509Y52142201D01*
X5749375Y52152517D01*
X5808182Y52191812D01*
X5808185Y52191815D01*
X5831914Y52227326D01*
X5880404Y52262879D01*
X5940402Y52258945D01*
X5978086Y52227326D01*
X6001814Y52191815D01*
X6001817Y52191812D01*
X6060624Y52152517D01*
X6112486Y52142201D01*
X6241100Y52142201D01*
X6241100Y52631099D01*
X6418900Y52631099D01*
X6418900Y52142202D01*
X6418901Y52142201D01*
X6547509Y52142201D01*
X6599375Y52152517D01*
X6658182Y52191812D01*
X6658185Y52191815D01*
X6681914Y52227326D01*
X6730404Y52262879D01*
X6790402Y52258945D01*
X6828086Y52227326D01*
X6851814Y52191815D01*
X6851817Y52191812D01*
X6910624Y52152517D01*
X6962486Y52142201D01*
X7091100Y52142201D01*
X7091100Y52631099D01*
X7268900Y52631099D01*
X7268900Y52142202D01*
X7268901Y52142201D01*
X7397509Y52142201D01*
X7449375Y52152517D01*
X7508182Y52191812D01*
X7508185Y52191815D01*
X7531914Y52227326D01*
X7580404Y52262879D01*
X7640402Y52258945D01*
X7678086Y52227326D01*
X7701814Y52191815D01*
X7701817Y52191812D01*
X7760624Y52152517D01*
X7812486Y52142201D01*
X7941100Y52142201D01*
X7941100Y52631099D01*
X8118900Y52631099D01*
X8118900Y52142202D01*
X8118901Y52142201D01*
X8247509Y52142201D01*
X8299375Y52152517D01*
X8358182Y52191812D01*
X8358185Y52191815D01*
X8381914Y52227326D01*
X8430404Y52262879D01*
X8490402Y52258945D01*
X8528086Y52227326D01*
X8551814Y52191815D01*
X8551817Y52191812D01*
X8610624Y52152517D01*
X8662486Y52142201D01*
X8791100Y52142201D01*
X8791100Y52631099D01*
X8968900Y52631099D01*
X8968900Y52142202D01*
X8968901Y52142201D01*
X9097509Y52142201D01*
X9149375Y52152517D01*
X9208182Y52191812D01*
X9208185Y52191815D01*
X9231914Y52227326D01*
X9280404Y52262879D01*
X9340402Y52258945D01*
X9378086Y52227326D01*
X9401814Y52191815D01*
X9401817Y52191812D01*
X9460624Y52152517D01*
X9512486Y52142201D01*
X9641100Y52142201D01*
X9641100Y52631099D01*
X9818900Y52631099D01*
X9818900Y52142202D01*
X9818901Y52142201D01*
X9947509Y52142201D01*
X9999375Y52152517D01*
X10058182Y52191812D01*
X10058185Y52191815D01*
X10081914Y52227326D01*
X10130404Y52262879D01*
X10190402Y52258945D01*
X10228086Y52227326D01*
X10251814Y52191815D01*
X10251817Y52191812D01*
X10310624Y52152517D01*
X10362486Y52142201D01*
X10491100Y52142201D01*
X10491100Y52631099D01*
X10668900Y52631099D01*
X10668900Y52142202D01*
X10668901Y52142201D01*
X10797509Y52142201D01*
X10849375Y52152517D01*
X10908182Y52191812D01*
X10908185Y52191815D01*
X10931914Y52227326D01*
X10980404Y52262879D01*
X11040402Y52258945D01*
X11078086Y52227326D01*
X11101814Y52191815D01*
X11101817Y52191812D01*
X11160624Y52152517D01*
X11212486Y52142201D01*
X11341100Y52142201D01*
X11341100Y52631099D01*
X11518900Y52631099D01*
X11518900Y52142202D01*
X11518901Y52142201D01*
X11647509Y52142201D01*
X11699375Y52152517D01*
X11758182Y52191812D01*
X11758185Y52191815D01*
X11781914Y52227326D01*
X11830404Y52262879D01*
X11890402Y52258945D01*
X11928086Y52227326D01*
X11951814Y52191815D01*
X11951817Y52191812D01*
X12010624Y52152517D01*
X12062486Y52142201D01*
X12191100Y52142201D01*
X12191100Y52631099D01*
X12368900Y52631099D01*
X12368900Y52142202D01*
X12368901Y52142201D01*
X12497509Y52142201D01*
X12549375Y52152517D01*
X12608182Y52191812D01*
X12608185Y52191815D01*
X12631914Y52227326D01*
X12680404Y52262879D01*
X12740402Y52258945D01*
X12778086Y52227326D01*
X12801814Y52191815D01*
X12801817Y52191812D01*
X12860624Y52152517D01*
X12912486Y52142201D01*
X13041100Y52142201D01*
X13041100Y52631099D01*
X13218900Y52631099D01*
X13218900Y52142202D01*
X13218901Y52142201D01*
X13347509Y52142201D01*
X13399375Y52152517D01*
X13458182Y52191812D01*
X13458185Y52191815D01*
X13481914Y52227326D01*
X13530404Y52262879D01*
X13590402Y52258945D01*
X13628086Y52227326D01*
X13651814Y52191815D01*
X13651817Y52191812D01*
X13710624Y52152517D01*
X13762486Y52142201D01*
X13891100Y52142201D01*
X13891100Y52631099D01*
X14068900Y52631099D01*
X14068900Y52142202D01*
X14068901Y52142201D01*
X14197509Y52142201D01*
X14249375Y52152517D01*
X14308182Y52191812D01*
X14308185Y52191815D01*
X14331914Y52227326D01*
X14380404Y52262879D01*
X14440402Y52258945D01*
X14478086Y52227326D01*
X14501814Y52191815D01*
X14501817Y52191812D01*
X14560624Y52152517D01*
X14612486Y52142201D01*
X14741100Y52142201D01*
X14741100Y52631099D01*
X14918900Y52631099D01*
X14918900Y52142202D01*
X14918901Y52142201D01*
X15047509Y52142201D01*
X15099375Y52152517D01*
X15158182Y52191812D01*
X15158185Y52191815D01*
X15181914Y52227326D01*
X15230404Y52262879D01*
X15290402Y52258945D01*
X15328086Y52227326D01*
X15351814Y52191815D01*
X15351817Y52191812D01*
X15410624Y52152517D01*
X15462486Y52142201D01*
X15591100Y52142201D01*
X15591100Y52631099D01*
X15768900Y52631099D01*
X15768900Y52142202D01*
X15768901Y52142201D01*
X15897509Y52142201D01*
X15949375Y52152517D01*
X16008182Y52191812D01*
X16008185Y52191815D01*
X16031914Y52227326D01*
X16080404Y52262879D01*
X16140402Y52258945D01*
X16178086Y52227326D01*
X16201814Y52191815D01*
X16201817Y52191812D01*
X16260624Y52152517D01*
X16312486Y52142201D01*
X16441100Y52142201D01*
X16441100Y52631099D01*
X16618900Y52631099D01*
X16618900Y52142202D01*
X16618901Y52142201D01*
X16747509Y52142201D01*
X16799375Y52152517D01*
X16858182Y52191812D01*
X16858185Y52191815D01*
X16881914Y52227326D01*
X16930404Y52262879D01*
X16990402Y52258945D01*
X17028086Y52227326D01*
X17051814Y52191815D01*
X17051817Y52191812D01*
X17110624Y52152517D01*
X17162486Y52142201D01*
X17291100Y52142201D01*
X17291100Y52631099D01*
X17291099Y52631100D01*
X16986642Y52631100D01*
X16970267Y52621645D01*
X16966304Y52622344D01*
X16962657Y52620643D01*
X16937102Y52627492D01*
X16916635Y52631100D01*
X16618901Y52631100D01*
X16618900Y52631099D01*
X16441100Y52631099D01*
X16441099Y52631100D01*
X16136642Y52631100D01*
X16120267Y52621645D01*
X16116304Y52622344D01*
X16112657Y52620643D01*
X16087102Y52627492D01*
X16066635Y52631100D01*
X15768901Y52631100D01*
X15768900Y52631099D01*
X15591100Y52631099D01*
X15591099Y52631100D01*
X15286642Y52631100D01*
X15270267Y52621645D01*
X15266304Y52622344D01*
X15262657Y52620643D01*
X15237102Y52627492D01*
X15216635Y52631100D01*
X14918901Y52631100D01*
X14918900Y52631099D01*
X14741100Y52631099D01*
X14741099Y52631100D01*
X14436642Y52631100D01*
X14420267Y52621645D01*
X14416304Y52622344D01*
X14412657Y52620643D01*
X14387102Y52627492D01*
X14366635Y52631100D01*
X14068901Y52631100D01*
X14068900Y52631099D01*
X13891100Y52631099D01*
X13891099Y52631100D01*
X13586642Y52631100D01*
X13570267Y52621645D01*
X13566304Y52622344D01*
X13562657Y52620643D01*
X13537102Y52627492D01*
X13516635Y52631100D01*
X13218901Y52631100D01*
X13218900Y52631099D01*
X13041100Y52631099D01*
X13041099Y52631100D01*
X12736642Y52631100D01*
X12720267Y52621645D01*
X12716304Y52622344D01*
X12712657Y52620643D01*
X12687102Y52627492D01*
X12666635Y52631100D01*
X12368901Y52631100D01*
X12368900Y52631099D01*
X12191100Y52631099D01*
X12191099Y52631100D01*
X11886642Y52631100D01*
X11870267Y52621645D01*
X11866304Y52622344D01*
X11862657Y52620643D01*
X11837102Y52627492D01*
X11816635Y52631100D01*
X11518901Y52631100D01*
X11518900Y52631099D01*
X11341100Y52631099D01*
X11341099Y52631100D01*
X11036642Y52631100D01*
X11020267Y52621645D01*
X11016304Y52622344D01*
X11012657Y52620643D01*
X10987102Y52627492D01*
X10966635Y52631100D01*
X10668901Y52631100D01*
X10668900Y52631099D01*
X10491100Y52631099D01*
X10491099Y52631100D01*
X10186642Y52631100D01*
X10170267Y52621645D01*
X10166304Y52622344D01*
X10162657Y52620643D01*
X10137102Y52627492D01*
X10116635Y52631100D01*
X9818901Y52631100D01*
X9818900Y52631099D01*
X9641100Y52631099D01*
X9641099Y52631100D01*
X9336642Y52631100D01*
X9320267Y52621645D01*
X9316304Y52622344D01*
X9312657Y52620643D01*
X9287102Y52627492D01*
X9266635Y52631100D01*
X8968901Y52631100D01*
X8968900Y52631099D01*
X8791100Y52631099D01*
X8791099Y52631100D01*
X8486642Y52631100D01*
X8470267Y52621645D01*
X8466304Y52622344D01*
X8462657Y52620643D01*
X8437102Y52627492D01*
X8416635Y52631100D01*
X8118901Y52631100D01*
X8118900Y52631099D01*
X7941100Y52631099D01*
X7941099Y52631100D01*
X7636642Y52631100D01*
X7620267Y52621645D01*
X7616304Y52622344D01*
X7612657Y52620643D01*
X7587102Y52627492D01*
X7566635Y52631100D01*
X7268901Y52631100D01*
X7268900Y52631099D01*
X7091100Y52631099D01*
X7091099Y52631100D01*
X6786642Y52631100D01*
X6770267Y52621645D01*
X6766304Y52622344D01*
X6762657Y52620643D01*
X6737102Y52627492D01*
X6716635Y52631100D01*
X6418901Y52631100D01*
X6418900Y52631099D01*
X6241100Y52631099D01*
X6241099Y52631100D01*
X5936642Y52631100D01*
X5920267Y52621645D01*
X5916304Y52622344D01*
X5912657Y52620643D01*
X5887102Y52627492D01*
X5866635Y52631100D01*
X5568901Y52631100D01*
X5568900Y52631099D01*
X5391100Y52631099D01*
X5391099Y52631100D01*
X5086642Y52631100D01*
X5070267Y52621645D01*
X5066304Y52622344D01*
X5062657Y52620643D01*
X5037102Y52627492D01*
X5016635Y52631100D01*
X4518901Y52631100D01*
X4518900Y52631099D01*
X4341100Y52631099D01*
X4341099Y52631100D01*
X3852202Y52631100D01*
X3852201Y52631099D01*
X3852201Y52302492D01*
X3862516Y52250625D01*
X3901811Y52191818D01*
X3901817Y52191812D01*
X3937325Y52168085D01*
X3972878Y52119595D01*
X3968944Y52059597D01*
X3937325Y52021915D01*
X3901817Y51998189D01*
X3901811Y51998183D01*
X3862516Y51939376D01*
X3852200Y51887513D01*
X3556500Y51887513D01*
X3556500Y53281291D01*
X3577065Y53337792D01*
X3629136Y53367856D01*
X3688350Y53357415D01*
X3696384Y53351250D01*
X3806229Y53351250D01*
X3862730Y53330685D01*
X3892794Y53278614D01*
X3882353Y53219400D01*
X3879314Y53214514D01*
X3862516Y53189376D01*
X3852200Y53137513D01*
X3852200Y52808901D01*
X3852201Y52808900D01*
X5023355Y52808900D01*
X5039732Y52818356D01*
X5043690Y52817659D01*
X5047334Y52819357D01*
X5072892Y52812511D01*
X5093370Y52808900D01*
X5873355Y52808900D01*
X5889732Y52818356D01*
X5893690Y52817659D01*
X5897334Y52819357D01*
X5922892Y52812511D01*
X5943370Y52808900D01*
X6723355Y52808900D01*
X6739732Y52818356D01*
X6743690Y52817659D01*
X6747334Y52819357D01*
X6772892Y52812511D01*
X6793370Y52808900D01*
X7573355Y52808900D01*
X7589732Y52818356D01*
X7593690Y52817659D01*
X7597334Y52819357D01*
X7622892Y52812511D01*
X7643370Y52808900D01*
X8423355Y52808900D01*
X8439732Y52818356D01*
X8443690Y52817659D01*
X8447334Y52819357D01*
X8472892Y52812511D01*
X8493370Y52808900D01*
X9273355Y52808900D01*
X9289732Y52818356D01*
X9293690Y52817659D01*
X9297334Y52819357D01*
X9322892Y52812511D01*
X9343370Y52808900D01*
X10123355Y52808900D01*
X10139732Y52818356D01*
X10143690Y52817659D01*
X10147334Y52819357D01*
X10172892Y52812511D01*
X10193370Y52808900D01*
X10973355Y52808900D01*
X10989732Y52818356D01*
X10993690Y52817659D01*
X10997334Y52819357D01*
X11022892Y52812511D01*
X11043370Y52808900D01*
X11823355Y52808900D01*
X11839732Y52818356D01*
X11843690Y52817659D01*
X11847334Y52819357D01*
X11872892Y52812511D01*
X11893370Y52808900D01*
X12673355Y52808900D01*
X12689732Y52818356D01*
X12693690Y52817659D01*
X12697334Y52819357D01*
X12722892Y52812511D01*
X12743370Y52808900D01*
X13523355Y52808900D01*
X13539732Y52818356D01*
X13543690Y52817659D01*
X13547334Y52819357D01*
X13572892Y52812511D01*
X13593370Y52808900D01*
X14373355Y52808900D01*
X14389732Y52818356D01*
X14393690Y52817659D01*
X14397334Y52819357D01*
X14422892Y52812511D01*
X14443370Y52808900D01*
X15223355Y52808900D01*
X15239732Y52818356D01*
X15243690Y52817659D01*
X15247334Y52819357D01*
X15272892Y52812511D01*
X15293370Y52808900D01*
X16073355Y52808900D01*
X16089732Y52818356D01*
X16093690Y52817659D01*
X16097334Y52819357D01*
X16122892Y52812511D01*
X16143370Y52808900D01*
X16923355Y52808900D01*
X16939732Y52818356D01*
X16943690Y52817659D01*
X16947334Y52819357D01*
X16972892Y52812511D01*
X16993370Y52808900D01*
X17773355Y52808900D01*
X17789732Y52818356D01*
X17793690Y52817659D01*
X17797334Y52819357D01*
X17822892Y52812511D01*
X17843370Y52808900D01*
X19007798Y52808900D01*
X19007799Y52808901D01*
X19007799Y53137509D01*
X18997483Y53189376D01*
X18980686Y53214514D01*
X18966393Y53272918D01*
X18992986Y53326845D01*
X19048021Y53351062D01*
X19053771Y53351250D01*
X19161249Y53351250D01*
X19161250Y53351250D01*
X19161250Y53506100D01*
X19181815Y53562601D01*
X19233886Y53592665D01*
X19249150Y53594000D01*
X19303999Y53594000D01*
X19304000Y53594000D01*
X19304000Y58077600D01*
X19324565Y58134101D01*
X19376636Y58164165D01*
X19391900Y58165500D01*
X20275125Y58165500D01*
X20317338Y58165500D01*
X20322645Y58165340D01*
X20590187Y58149157D01*
X20600718Y58147878D01*
X20861735Y58100045D01*
X20872016Y58097512D01*
X21091161Y58029223D01*
X21125375Y58018561D01*
X21135299Y58014797D01*
X21377284Y57905889D01*
X21386667Y57900964D01*
X21560445Y57795912D01*
X21613761Y57763681D01*
X21622497Y57757651D01*
X21831378Y57594003D01*
X21839323Y57586965D01*
X22026964Y57399324D01*
X22034002Y57391379D01*
X22197650Y57182498D01*
X22203680Y57173762D01*
X22340959Y56946676D01*
X22345892Y56937277D01*
X22454796Y56695300D01*
X22458560Y56685376D01*
X22537507Y56432030D01*
X22540047Y56421723D01*
X22587876Y56160722D01*
X22589156Y56150186D01*
X22605340Y55882647D01*
X22605500Y55877339D01*
X22605500Y2542662D01*
X22605340Y2537354D01*
X22589156Y2269815D01*
X22587876Y2259279D01*
X22540047Y1998278D01*
X22537507Y1987971D01*
X22458560Y1734625D01*
X22454796Y1724701D01*
X22345892Y1482724D01*
X22340959Y1473325D01*
X22203680Y1246239D01*
X22197650Y1237503D01*
X22034002Y1028622D01*
X22026964Y1020677D01*
X21839323Y833036D01*
X21831378Y825998D01*
X21622497Y662350D01*
X21613761Y656320D01*
X21386675Y519041D01*
X21377276Y514108D01*
X21135299Y405204D01*
X21125375Y401440D01*
X20872029Y322493D01*
X20861722Y319953D01*
X20600721Y272124D01*
X20590185Y270844D01*
X20341631Y255809D01*
X20322644Y254660D01*
X20317338Y254500D01*
X17655493Y254500D01*
X17598992Y275065D01*
X17568928Y327136D01*
X17579368Y386349D01*
X17596192Y415486D01*
X17611391Y441812D01*
X17611392Y441814D01*
X17630763Y514108D01*
X17645500Y569108D01*
X17645500Y700892D01*
X17611392Y828186D01*
X17545500Y942314D01*
X17452314Y1035500D01*
X17338186Y1101392D01*
X17338185Y1101393D01*
X17338184Y1101393D01*
X17210892Y1135500D01*
X17079108Y1135500D01*
X16951815Y1101393D01*
X16837684Y1035499D01*
X16744501Y942316D01*
X16678607Y828185D01*
X16644500Y700892D01*
X16644500Y569109D01*
X16678607Y441814D01*
X16678608Y441812D01*
X16710630Y386350D01*
X16721072Y327137D01*
X16691008Y275065D01*
X16634507Y254500D01*
X16215016Y254500D01*
X16158515Y275065D01*
X16128451Y327136D01*
X16138892Y386350D01*
X16166182Y415486D01*
X16180068Y424765D01*
X16274485Y519182D01*
X16348658Y630190D01*
X16348660Y630193D01*
X16399752Y753543D01*
X16399754Y753547D01*
X16425800Y884494D01*
X16425800Y1162349D01*
X16425799Y1162350D01*
X16048000Y1162350D01*
X16048000Y1340150D01*
X16425799Y1340150D01*
X16425800Y1340151D01*
X16425800Y1618007D01*
X16399754Y1748954D01*
X16399752Y1748958D01*
X16348660Y1872308D01*
X16348658Y1872311D01*
X16274485Y1983319D01*
X16180068Y2077736D01*
X16069060Y2151909D01*
X16069057Y2151911D01*
X15945707Y2203003D01*
X15945703Y2203005D01*
X15836900Y2224647D01*
X15836900Y1838013D01*
X15787496Y1851250D01*
X15708504Y1851250D01*
X15659100Y1838013D01*
X15659100Y2224646D01*
X15659099Y2224647D01*
X15550296Y2203005D01*
X15550292Y2203003D01*
X15426942Y2151911D01*
X15426939Y2151909D01*
X15315931Y2077736D01*
X15221514Y1983319D01*
X15147341Y1872311D01*
X15147339Y1872308D01*
X15096247Y1748958D01*
X15096245Y1748954D01*
X15070200Y1618007D01*
X15070200Y1340151D01*
X15070201Y1340150D01*
X15448000Y1340150D01*
X15448000Y1162350D01*
X15070201Y1162350D01*
X15070200Y1162349D01*
X15070200Y884494D01*
X15096245Y753547D01*
X15096247Y753543D01*
X15147339Y630193D01*
X15147341Y630190D01*
X15221514Y519182D01*
X15315931Y424765D01*
X15329818Y415486D01*
X15365372Y366997D01*
X15361440Y306999D01*
X15319861Y263565D01*
X15280984Y254500D01*
X7579915Y254500D01*
X7523414Y275065D01*
X7493350Y327136D01*
X7503791Y386350D01*
X7531080Y415486D01*
X7544391Y424380D01*
X7638870Y518859D01*
X7713102Y629954D01*
X7764233Y753397D01*
X7767598Y770311D01*
X7779327Y829279D01*
X7790300Y884443D01*
X7790300Y1618057D01*
X7765655Y1741955D01*
X7764234Y1749100D01*
X7764231Y1749108D01*
X7713104Y1872541D01*
X7713104Y1872543D01*
X7713102Y1872546D01*
X7638870Y1983641D01*
X7544391Y2078120D01*
X7433296Y2152352D01*
X7433294Y2152353D01*
X7433291Y2152355D01*
X7309857Y2203482D01*
X7309849Y2203485D01*
X7211344Y2223078D01*
X7178807Y2229550D01*
X7045193Y2229550D01*
X7016249Y2223793D01*
X6914150Y2203485D01*
X6914142Y2203482D01*
X6790709Y2152355D01*
X6790707Y2152355D01*
X6679611Y2078122D01*
X6585128Y1983639D01*
X6510895Y1872543D01*
X6510895Y1872541D01*
X6459768Y1749108D01*
X6459765Y1749100D01*
X6433700Y1618056D01*
X6433700Y884445D01*
X6459765Y753401D01*
X6459768Y753393D01*
X6510895Y629960D01*
X6510895Y629958D01*
X6510898Y629954D01*
X6585130Y518859D01*
X6679609Y424380D01*
X6692920Y415486D01*
X6728473Y366997D01*
X6724541Y306998D01*
X6682962Y263565D01*
X6644085Y254500D01*
X2542662Y254500D01*
X2537355Y254660D01*
X2516746Y255907D01*
X2269814Y270844D01*
X2259278Y272124D01*
X1998277Y319953D01*
X1987970Y322493D01*
X1973070Y327136D01*
X1899223Y350148D01*
X1734624Y401440D01*
X1724700Y405204D01*
X1482723Y514108D01*
X1473324Y519041D01*
X1246238Y656320D01*
X1237502Y662350D01*
X1028621Y825998D01*
X1020676Y833036D01*
X833035Y1020677D01*
X825997Y1028622D01*
X820608Y1035500D01*
X704730Y1183408D01*
X662349Y1237503D01*
X656319Y1246239D01*
X593409Y1350305D01*
X519036Y1473333D01*
X514111Y1482716D01*
X405203Y1724701D01*
X401439Y1734625D01*
X383775Y1791310D01*
X322488Y1987984D01*
X319955Y1998265D01*
X272122Y2259282D01*
X270843Y2269816D01*
X254660Y2537355D01*
X254500Y2542662D01*
X254500Y2658013D01*
X739500Y2658013D01*
X739500Y2421988D01*
X770307Y2187986D01*
X770310Y2187974D01*
X831392Y1960014D01*
X831394Y1960007D01*
X867622Y1872546D01*
X921713Y1741957D01*
X921714Y1741955D01*
X921716Y1741951D01*
X993246Y1618057D01*
X1039728Y1537548D01*
X1092399Y1468906D01*
X1183408Y1350301D01*
X1350301Y1183408D01*
X1537550Y1039727D01*
X1741951Y921716D01*
X1960007Y831394D01*
X2187986Y770307D01*
X2367541Y746669D01*
X2421987Y739500D01*
X2421989Y739500D01*
X2658013Y739500D01*
X2706784Y745922D01*
X2892014Y770307D01*
X3119993Y831394D01*
X3338049Y921716D01*
X3542450Y1039727D01*
X3729699Y1183408D01*
X3896592Y1350301D01*
X4040273Y1537550D01*
X4158284Y1741951D01*
X4248606Y1960007D01*
X4309693Y2187986D01*
X4340500Y2421989D01*
X4340500Y2658011D01*
X4340500Y2658013D01*
X18519500Y2658013D01*
X18519500Y2421988D01*
X18550307Y2187986D01*
X18550310Y2187974D01*
X18611392Y1960014D01*
X18611394Y1960007D01*
X18647622Y1872546D01*
X18701713Y1741957D01*
X18701714Y1741955D01*
X18701716Y1741951D01*
X18773246Y1618057D01*
X18819728Y1537548D01*
X18872399Y1468906D01*
X18963408Y1350301D01*
X19130301Y1183408D01*
X19317550Y1039727D01*
X19521951Y921716D01*
X19740007Y831394D01*
X19967986Y770307D01*
X20147541Y746669D01*
X20201987Y739500D01*
X20201989Y739500D01*
X20438013Y739500D01*
X20486784Y745922D01*
X20672014Y770307D01*
X20899993Y831394D01*
X21118049Y921716D01*
X21322450Y1039727D01*
X21509699Y1183408D01*
X21676592Y1350301D01*
X21820273Y1537550D01*
X21938284Y1741951D01*
X22028606Y1960007D01*
X22089693Y2187986D01*
X22120500Y2421989D01*
X22120500Y2658011D01*
X22089693Y2892014D01*
X22028606Y3119993D01*
X21938284Y3338049D01*
X21820273Y3542450D01*
X21676592Y3729699D01*
X21509699Y3896592D01*
X21456323Y3937549D01*
X21322452Y4040272D01*
X21147800Y4141107D01*
X21118049Y4158284D01*
X21118047Y4158285D01*
X21118045Y4158286D01*
X21118043Y4158287D01*
X21010216Y4202950D01*
X20899993Y4248606D01*
X20899986Y4248608D01*
X20672026Y4309690D01*
X20672014Y4309693D01*
X20438013Y4340500D01*
X20438011Y4340500D01*
X20201989Y4340500D01*
X20201987Y4340500D01*
X19967985Y4309693D01*
X19967973Y4309690D01*
X19740013Y4248608D01*
X19740009Y4248607D01*
X19740007Y4248606D01*
X19740005Y4248605D01*
X19521956Y4158287D01*
X19521954Y4158286D01*
X19317547Y4040272D01*
X19130304Y3896595D01*
X18963405Y3729696D01*
X18819728Y3542453D01*
X18701714Y3338046D01*
X18701713Y3338044D01*
X18611395Y3119995D01*
X18611392Y3119987D01*
X18550310Y2892027D01*
X18550307Y2892015D01*
X18519500Y2658013D01*
X4340500Y2658013D01*
X4309693Y2892014D01*
X4248606Y3119993D01*
X4158284Y3338049D01*
X4040273Y3542450D01*
X3896592Y3729699D01*
X3729699Y3896592D01*
X3676323Y3937549D01*
X3542452Y4040272D01*
X3367800Y4141107D01*
X3338049Y4158284D01*
X3338047Y4158285D01*
X3338045Y4158286D01*
X3338043Y4158287D01*
X3230216Y4202950D01*
X3119993Y4248606D01*
X3119986Y4248608D01*
X2892026Y4309690D01*
X2892014Y4309693D01*
X2658013Y4340500D01*
X2658011Y4340500D01*
X2421989Y4340500D01*
X2421987Y4340500D01*
X2187985Y4309693D01*
X2187973Y4309690D01*
X1960013Y4248608D01*
X1960009Y4248607D01*
X1960007Y4248606D01*
X1960005Y4248605D01*
X1741956Y4158287D01*
X1741954Y4158286D01*
X1537547Y4040272D01*
X1350304Y3896595D01*
X1183405Y3729696D01*
X1039728Y3542453D01*
X921714Y3338046D01*
X921713Y3338044D01*
X831395Y3119995D01*
X831392Y3119987D01*
X770310Y2892027D01*
X770307Y2892015D01*
X739500Y2658013D01*
X254500Y2658013D01*
X254500Y5444151D01*
X5217200Y5444151D01*
X5217200Y5361401D01*
X5217201Y5361400D01*
X5626099Y5361400D01*
X5626100Y5361401D01*
X5626100Y5720299D01*
X5803900Y5720299D01*
X5803900Y5361401D01*
X5803901Y5361400D01*
X6212798Y5361400D01*
X6212799Y5361401D01*
X6212799Y5444152D01*
X6212798Y5444154D01*
X6206803Y5489703D01*
X6206800Y5489712D01*
X6160183Y5589681D01*
X6160182Y5589683D01*
X6082182Y5667683D01*
X6082180Y5667684D01*
X5982209Y5714302D01*
X5982211Y5714302D01*
X5936651Y5720300D01*
X5803901Y5720300D01*
X5803900Y5720299D01*
X5626100Y5720299D01*
X5626100Y5720300D01*
X5493348Y5720300D01*
X5493346Y5720299D01*
X5447797Y5714304D01*
X5447788Y5714301D01*
X5347819Y5667684D01*
X5347817Y5667683D01*
X5269817Y5589683D01*
X5269816Y5589681D01*
X5223198Y5489711D01*
X5217200Y5444151D01*
X254500Y5444151D01*
X254500Y7531099D01*
X9539700Y7531099D01*
X9539700Y7412757D01*
X9545793Y7366475D01*
X9593156Y7264907D01*
X9593157Y7264905D01*
X9672404Y7185658D01*
X9672406Y7185657D01*
X9773975Y7138294D01*
X9773974Y7138294D01*
X9820256Y7132200D01*
X9908599Y7132200D01*
X9908600Y7132201D01*
X9908600Y7531100D01*
X9539701Y7531100D01*
X9539700Y7531099D01*
X254500Y7531099D01*
X254500Y9109086D01*
X3351700Y9109086D01*
X3351700Y8988415D01*
X3382930Y8871857D01*
X3382931Y8871854D01*
X3382932Y8871853D01*
X3443268Y8767347D01*
X3528597Y8682018D01*
X3633103Y8621682D01*
X3633105Y8621682D01*
X3633106Y8621681D01*
X3749664Y8590450D01*
X3870335Y8590450D01*
X3870336Y8590450D01*
X3986897Y8621682D01*
X4091403Y8682018D01*
X4176732Y8767347D01*
X4237068Y8871853D01*
X4259641Y8956099D01*
X6179700Y8956099D01*
X6179700Y8867757D01*
X6185793Y8821475D01*
X6233156Y8719907D01*
X6233157Y8719905D01*
X6312404Y8640658D01*
X6312406Y8640657D01*
X6413975Y8593294D01*
X6413974Y8593294D01*
X6460256Y8587200D01*
X6578599Y8587200D01*
X6578600Y8587201D01*
X6578600Y8956099D01*
X6756400Y8956099D01*
X6756400Y8587201D01*
X6756401Y8587200D01*
X6874744Y8587200D01*
X6921025Y8593294D01*
X7022593Y8640657D01*
X7022595Y8640658D01*
X7101842Y8719905D01*
X7101843Y8719907D01*
X7149206Y8821475D01*
X7155300Y8867757D01*
X7155300Y8956099D01*
X7155299Y8956100D01*
X6756401Y8956100D01*
X6756400Y8956099D01*
X6578600Y8956099D01*
X6578599Y8956100D01*
X6179701Y8956100D01*
X6179700Y8956099D01*
X4259641Y8956099D01*
X4268300Y8988414D01*
X4268300Y9109086D01*
X4254618Y9160150D01*
X4237069Y9225644D01*
X4237068Y9225645D01*
X4237068Y9225647D01*
X4176732Y9330153D01*
X4091403Y9415482D01*
X4090245Y9416640D01*
X4064834Y9471134D01*
X4064500Y9478795D01*
X4064500Y11764424D01*
X4085065Y11820925D01*
X4090234Y11826568D01*
X4462161Y12198495D01*
X4462163Y12198495D01*
X4533755Y12270087D01*
X4541797Y12289505D01*
X4551706Y12300614D01*
X4563444Y12306928D01*
X4573356Y12318231D01*
X4599403Y12333268D01*
X4684732Y12418597D01*
X4745068Y12523103D01*
X4776300Y12639664D01*
X4776300Y12760336D01*
X4771121Y12779664D01*
X4745069Y12876894D01*
X4745068Y12876895D01*
X4745068Y12876897D01*
X4684732Y12981403D01*
X4599403Y13066732D01*
X4494897Y13127068D01*
X4494896Y13127069D01*
X4494893Y13127070D01*
X4378336Y13158300D01*
X4257664Y13158300D01*
X4141106Y13127070D01*
X4036595Y13066731D01*
X3951269Y12981405D01*
X3890930Y12876894D01*
X3864879Y12779664D01*
X3859700Y12760336D01*
X3859700Y12639664D01*
X3860066Y12638299D01*
X3890931Y12523105D01*
X3921629Y12469934D01*
X3932069Y12410721D01*
X3907660Y12363831D01*
X3665837Y12122006D01*
X3594246Y12050415D01*
X3594243Y12050411D01*
X3555500Y11956875D01*
X3555500Y9478795D01*
X3534935Y9422294D01*
X3529755Y9416640D01*
X3443269Y9330155D01*
X3382930Y9225644D01*
X3351700Y9109086D01*
X254500Y9109086D01*
X254500Y15832560D01*
X431700Y15832560D01*
X431700Y14197437D01*
X431701Y14197435D01*
X442043Y14145435D01*
X442043Y14145434D01*
X442044Y14145432D01*
X442045Y14145431D01*
X481453Y14086453D01*
X540431Y14047045D01*
X592439Y14036700D01*
X2544763Y14036701D01*
X2601264Y14016136D01*
X2631328Y13964065D01*
X2620887Y13904851D01*
X2588713Y13872677D01*
X2512595Y13828731D01*
X2427269Y13743405D01*
X2366930Y13638894D01*
X2335700Y13522336D01*
X2335700Y13401665D01*
X2366930Y13285107D01*
X2366931Y13285104D01*
X2366932Y13285103D01*
X2427268Y13180597D01*
X2512597Y13095268D01*
X2617103Y13034932D01*
X2617105Y13034932D01*
X2617106Y13034931D01*
X2733664Y13003700D01*
X2854335Y13003700D01*
X2854336Y13003700D01*
X2970897Y13034932D01*
X3075403Y13095268D01*
X3160732Y13180597D01*
X3198549Y13246099D01*
X6979701Y13246099D01*
X6979701Y13113347D01*
X6985696Y13067798D01*
X6985699Y13067789D01*
X7032316Y12967820D01*
X7032317Y12967818D01*
X7110317Y12889818D01*
X7110319Y12889817D01*
X7210290Y12843199D01*
X7210289Y12843199D01*
X7255849Y12837201D01*
X7338600Y12837201D01*
X7338600Y13246100D01*
X6979702Y13246100D01*
X6979701Y13246099D01*
X3198549Y13246099D01*
X3221068Y13285103D01*
X3252300Y13401664D01*
X3252300Y13522336D01*
X3252300Y13523975D01*
X3258863Y13542008D01*
X3260536Y13561124D01*
X3271542Y13576843D01*
X3272865Y13580476D01*
X3278046Y13586130D01*
X3381672Y13689755D01*
X3436165Y13715166D01*
X3443826Y13715500D01*
X6901541Y13715500D01*
X6958042Y13694935D01*
X6988106Y13642864D01*
X6986254Y13608916D01*
X6986576Y13608873D01*
X6986022Y13604669D01*
X6985932Y13603011D01*
X6985698Y13602211D01*
X6979700Y13556651D01*
X6979700Y13423901D01*
X6979701Y13423900D01*
X7339600Y13423900D01*
X7361057Y13416091D01*
X7383550Y13412124D01*
X7388648Y13406048D01*
X7396101Y13403335D01*
X7407519Y13383559D01*
X7422199Y13366064D01*
X7424212Y13354647D01*
X7426165Y13351264D01*
X7427500Y13336000D01*
X7427500Y13335000D01*
X7428500Y13335000D01*
X7485001Y13314435D01*
X7515065Y13262364D01*
X7516400Y13247100D01*
X7516400Y12837202D01*
X7516401Y12837201D01*
X7599152Y12837201D01*
X7599153Y12837202D01*
X7644702Y12843197D01*
X7644711Y12843200D01*
X7744680Y12889817D01*
X7744682Y12889818D01*
X7822681Y12967817D01*
X7857558Y13042611D01*
X7900074Y13085127D01*
X7959973Y13090368D01*
X8009226Y13055881D01*
X8016887Y13042612D01*
X8040180Y12992661D01*
X8051901Y12967526D01*
X8130026Y12889401D01*
X8230161Y12842707D01*
X8275789Y12836700D01*
X8619210Y12836701D01*
X8619213Y12836701D01*
X8619214Y12836702D01*
X8642024Y12839704D01*
X8664834Y12842706D01*
X8664835Y12842707D01*
X8664839Y12842707D01*
X8764974Y12889401D01*
X8802946Y12927374D01*
X8857439Y12952784D01*
X8915517Y12937221D01*
X8950005Y12887968D01*
X8953000Y12865218D01*
X8953000Y12331876D01*
X8991743Y12238340D01*
X8991744Y12238339D01*
X8991745Y12238337D01*
X9184244Y12045839D01*
X9184245Y12045837D01*
X9255837Y11974245D01*
X9340300Y11939260D01*
X9384631Y11898639D01*
X9386327Y11895200D01*
X9396900Y11872527D01*
X9396901Y11872526D01*
X9475026Y11794401D01*
X9575161Y11747707D01*
X9620789Y11741700D01*
X10064210Y11741701D01*
X10064213Y11741701D01*
X10064214Y11741702D01*
X10087024Y11744704D01*
X10109834Y11747706D01*
X10109835Y11747707D01*
X10109839Y11747707D01*
X10209974Y11794401D01*
X10236924Y11821352D01*
X10291415Y11846761D01*
X10349493Y11831200D01*
X10361227Y11821355D01*
X10434875Y11747708D01*
X10544855Y11637728D01*
X10570266Y11583234D01*
X10570600Y11575573D01*
X10570600Y11016200D01*
X10550035Y10959699D01*
X10497964Y10929635D01*
X10482700Y10928300D01*
X10207536Y10928300D01*
X10207534Y10928299D01*
X10155534Y10917957D01*
X10155533Y10917957D01*
X10096554Y10878548D01*
X10096552Y10878546D01*
X10062478Y10827550D01*
X10057145Y10819569D01*
X10048784Y10777532D01*
X10046800Y10767560D01*
X10046800Y10182437D01*
X10046801Y10182435D01*
X10057143Y10130435D01*
X10057143Y10130434D01*
X10057144Y10130432D01*
X10057145Y10130431D01*
X10096553Y10071453D01*
X10096556Y10071451D01*
X10102675Y10065332D01*
X10101146Y10063804D01*
X10130114Y10024295D01*
X10126180Y9964296D01*
X10101938Y9935405D01*
X10103036Y9934307D01*
X10096911Y9928183D01*
X10057616Y9869376D01*
X10047300Y9817513D01*
X10047300Y9613901D01*
X10047301Y9613900D01*
X10737200Y9613900D01*
X10758657Y9606091D01*
X10781150Y9602124D01*
X10786248Y9596048D01*
X10793701Y9593335D01*
X10805119Y9573559D01*
X10819799Y9556064D01*
X10821812Y9544647D01*
X10823765Y9541264D01*
X10825100Y9526000D01*
X10825100Y9524000D01*
X10804535Y9467499D01*
X10752464Y9437435D01*
X10737200Y9436100D01*
X10047302Y9436100D01*
X10047301Y9436099D01*
X10047301Y9412590D01*
X10026736Y9356089D01*
X9974665Y9326025D01*
X9915451Y9336466D01*
X9897246Y9350435D01*
X9725205Y9522476D01*
X9702455Y9561883D01*
X9698968Y9574897D01*
X9686817Y9595943D01*
X9638632Y9679403D01*
X9553303Y9764732D01*
X9448797Y9825068D01*
X9448796Y9825069D01*
X9448793Y9825070D01*
X9332236Y9856300D01*
X9211564Y9856300D01*
X9095006Y9825070D01*
X8990495Y9764731D01*
X8905169Y9679405D01*
X8844830Y9574894D01*
X8813600Y9458336D01*
X8813600Y9337665D01*
X8844830Y9221107D01*
X8844831Y9221105D01*
X8844832Y9221103D01*
X8880024Y9160148D01*
X8882715Y9144887D01*
X8890465Y9131464D01*
X8887773Y9116200D01*
X8890465Y9100936D01*
X8882715Y9087514D01*
X8880024Y9072250D01*
X8868150Y9062287D01*
X8860401Y9048865D01*
X8845837Y9043565D01*
X8833964Y9033601D01*
X8803900Y9028300D01*
X8694300Y9028300D01*
X8637799Y9048865D01*
X8607735Y9100936D01*
X8606400Y9116200D01*
X8606400Y9278833D01*
X8606401Y9278846D01*
X8606401Y9386375D01*
X8580402Y9483403D01*
X8569701Y9501938D01*
X8530176Y9570397D01*
X8228927Y9871646D01*
X8203516Y9926140D01*
X8219079Y9984218D01*
X8268332Y10018706D01*
X8291082Y10021701D01*
X8842464Y10021701D01*
X8842465Y10021702D01*
X8894465Y10032044D01*
X8894466Y10032044D01*
X8894466Y10032045D01*
X8894469Y10032045D01*
X8953447Y10071453D01*
X8992855Y10130431D01*
X9003200Y10182439D01*
X9003199Y10767560D01*
X9003199Y10767561D01*
X9003199Y10767564D01*
X9003198Y10767566D01*
X8992856Y10819566D01*
X8992856Y10819567D01*
X8992855Y10819569D01*
X8953447Y10878547D01*
X8894469Y10917955D01*
X8842461Y10928300D01*
X8842459Y10928300D01*
X7607336Y10928300D01*
X7607334Y10928299D01*
X7555334Y10917957D01*
X7555333Y10917957D01*
X7496354Y10878548D01*
X7496352Y10878546D01*
X7462278Y10827550D01*
X7456945Y10819569D01*
X7448584Y10777532D01*
X7446600Y10767560D01*
X7446600Y10272633D01*
X7426035Y10216132D01*
X7373964Y10186068D01*
X7314750Y10196509D01*
X7296545Y10210478D01*
X7196747Y10310276D01*
X7161133Y10330838D01*
X7161133Y10330839D01*
X7109753Y10360502D01*
X7081126Y10368172D01*
X7041722Y10390922D01*
X7022886Y10409758D01*
X6921154Y10457197D01*
X6874798Y10463300D01*
X6874796Y10463300D01*
X6460204Y10463300D01*
X6460202Y10463300D01*
X6413845Y10457197D01*
X6312113Y10409758D01*
X6232742Y10330387D01*
X6185303Y10228655D01*
X6179200Y10182298D01*
X6179200Y9827703D01*
X6185303Y9781346D01*
X6232742Y9679614D01*
X6312115Y9600241D01*
X6317178Y9596696D01*
X6351667Y9547444D01*
X6346429Y9487545D01*
X6317181Y9452688D01*
X6312407Y9449346D01*
X6233157Y9370096D01*
X6233156Y9370094D01*
X6185793Y9268526D01*
X6179700Y9222244D01*
X6179700Y9133901D01*
X6179701Y9133900D01*
X7155299Y9133900D01*
X7155300Y9133901D01*
X7155300Y9214350D01*
X7175865Y9270851D01*
X7227936Y9300915D01*
X7243200Y9302250D01*
X7333975Y9302250D01*
X7682867Y9302250D01*
X7700899Y9295687D01*
X7720015Y9294014D01*
X7735735Y9283008D01*
X7739368Y9281685D01*
X7745022Y9276505D01*
X7817655Y9203872D01*
X7843066Y9149378D01*
X7843400Y9141717D01*
X7843400Y9116200D01*
X7822835Y9059699D01*
X7770764Y9029635D01*
X7755501Y9028300D01*
X7607336Y9028300D01*
X7607334Y9028299D01*
X7555334Y9017957D01*
X7555333Y9017957D01*
X7496354Y8978548D01*
X7496352Y8978546D01*
X7479499Y8953323D01*
X7456945Y8919569D01*
X7447456Y8871861D01*
X7446600Y8867560D01*
X7446600Y8282437D01*
X7446601Y8282435D01*
X7456943Y8230435D01*
X7456943Y8230434D01*
X7456944Y8230432D01*
X7456945Y8230431D01*
X7496353Y8171453D01*
X7555331Y8132045D01*
X7607339Y8121700D01*
X8842460Y8121701D01*
X8842463Y8121701D01*
X8842465Y8121702D01*
X8894465Y8132044D01*
X8894466Y8132044D01*
X8894466Y8132045D01*
X8894469Y8132045D01*
X8953447Y8171453D01*
X8992855Y8230431D01*
X9003200Y8282439D01*
X9003199Y8867560D01*
X9003199Y8867561D01*
X9003199Y8867564D01*
X9002776Y8871861D01*
X9005119Y8872092D01*
X9005819Y8876642D01*
X9002533Y8888907D01*
X9010255Y8905467D01*
X9013033Y8923521D01*
X9022578Y8931893D01*
X9027944Y8943400D01*
X9044499Y8951121D01*
X9058236Y8963168D01*
X9071942Y8963917D01*
X9082438Y8968811D01*
X9112844Y8966152D01*
X9211564Y8939700D01*
X9211567Y8939700D01*
X9212541Y8939439D01*
X9251946Y8916689D01*
X9898911Y8269724D01*
X9903478Y8266220D01*
X9901804Y8264039D01*
X9933921Y8225771D01*
X9933927Y8165644D01*
X9895282Y8119580D01*
X9851325Y8107800D01*
X9820256Y8107800D01*
X9773974Y8101707D01*
X9672406Y8054344D01*
X9672404Y8054343D01*
X9593157Y7975096D01*
X9593156Y7975094D01*
X9545793Y7873526D01*
X9539700Y7827244D01*
X9539700Y7708901D01*
X9539701Y7708900D01*
X9909600Y7708900D01*
X9931057Y7701091D01*
X9953550Y7697124D01*
X9958648Y7691048D01*
X9966101Y7688335D01*
X9977519Y7668559D01*
X9992199Y7651064D01*
X9994212Y7639647D01*
X9996165Y7636264D01*
X9997500Y7621000D01*
X9997500Y7620000D01*
X9998500Y7620000D01*
X10055001Y7599435D01*
X10085065Y7547364D01*
X10086400Y7532100D01*
X10086400Y7132201D01*
X10086401Y7132200D01*
X10174744Y7132200D01*
X10221025Y7138294D01*
X10322593Y7185657D01*
X10322595Y7185658D01*
X10401841Y7264904D01*
X10405182Y7269675D01*
X10454432Y7304167D01*
X10514331Y7298932D01*
X10549194Y7269680D01*
X10552739Y7264617D01*
X10552742Y7264614D01*
X10632114Y7185242D01*
X10677462Y7164096D01*
X10700315Y7153439D01*
X10742831Y7110923D01*
X10748071Y7051024D01*
X10725321Y7011620D01*
X10445860Y6732159D01*
X10442570Y6726460D01*
X10396507Y6687814D01*
X10351880Y6684400D01*
X10351854Y6684127D01*
X10350307Y6684280D01*
X10349308Y6684203D01*
X10347562Y6684550D01*
X10012436Y6684550D01*
X10012434Y6684549D01*
X9951939Y6672517D01*
X9951445Y6675000D01*
X9908179Y6673117D01*
X9908060Y6672516D01*
X9905605Y6673005D01*
X9903556Y6672915D01*
X9900545Y6674011D01*
X9884125Y6677277D01*
X9847561Y6684550D01*
X9847559Y6684550D01*
X9512436Y6684550D01*
X9512434Y6684549D01*
X9460431Y6674207D01*
X9460429Y6674206D01*
X9453830Y6669796D01*
X9395426Y6655507D01*
X9356165Y6669798D01*
X9351365Y6673005D01*
X9349568Y6674206D01*
X9314816Y6681118D01*
X9297561Y6684550D01*
X9297559Y6684550D01*
X8662440Y6684550D01*
X8608363Y6673794D01*
X8574068Y6673795D01*
X8522513Y6684050D01*
X8293901Y6684050D01*
X8293900Y6684049D01*
X8293900Y6094150D01*
X8286090Y6072693D01*
X8282124Y6050200D01*
X8276047Y6045102D01*
X8273335Y6037649D01*
X8253558Y6026231D01*
X8236064Y6011551D01*
X8224646Y6009538D01*
X8221264Y6007585D01*
X8206000Y6006250D01*
X8204000Y6006250D01*
X8147499Y6026815D01*
X8117435Y6078886D01*
X8116100Y6094150D01*
X8116100Y6684049D01*
X8116099Y6684050D01*
X7887486Y6684050D01*
X7887484Y6684049D01*
X7835628Y6673736D01*
X7835624Y6673734D01*
X7776817Y6634439D01*
X7776811Y6634433D01*
X7737516Y6575626D01*
X7726357Y6519525D01*
X7695164Y6468122D01*
X7638228Y6448795D01*
X7582189Y6470587D01*
X7578006Y6474505D01*
X7544391Y6508120D01*
X7433296Y6582352D01*
X7433294Y6582353D01*
X7433291Y6582355D01*
X7309857Y6633482D01*
X7309849Y6633485D01*
X7199132Y6655507D01*
X7178807Y6659550D01*
X7045193Y6659550D01*
X7024868Y6655507D01*
X6914150Y6633485D01*
X6914142Y6633482D01*
X6790709Y6582355D01*
X6790707Y6582355D01*
X6679611Y6508122D01*
X6585128Y6413639D01*
X6510895Y6302543D01*
X6510895Y6302541D01*
X6459768Y6179108D01*
X6459765Y6179100D01*
X6433700Y6048056D01*
X6433700Y4814445D01*
X6459765Y4683401D01*
X6459768Y4683393D01*
X6510895Y4559960D01*
X6510895Y4559958D01*
X6510898Y4559954D01*
X6585130Y4448859D01*
X6679609Y4354380D01*
X6790704Y4280148D01*
X6790706Y4280147D01*
X6790708Y4280146D01*
X6914142Y4229019D01*
X6914150Y4229016D01*
X6980116Y4215895D01*
X7045193Y4202950D01*
X7045195Y4202950D01*
X7178805Y4202950D01*
X7178807Y4202950D01*
X7265380Y4220171D01*
X7309849Y4229016D01*
X7309850Y4229017D01*
X7309853Y4229017D01*
X7433291Y4280146D01*
X7433292Y4280146D01*
X7433293Y4280147D01*
X7433296Y4280148D01*
X7544391Y4354380D01*
X7638870Y4448859D01*
X7713102Y4559954D01*
X7764233Y4683397D01*
X7765701Y4690774D01*
X7772634Y4725630D01*
X7790300Y4814443D01*
X7790300Y4814454D01*
X7790578Y4817272D01*
X7791063Y4818286D01*
X7791142Y4818678D01*
X7791242Y4818658D01*
X7816576Y4871488D01*
X7871342Y4896307D01*
X7929248Y4880118D01*
X7962850Y4831007D01*
X7963009Y4831049D01*
X7963129Y4830598D01*
X7963201Y4830494D01*
X7963315Y4829904D01*
X8003718Y4679117D01*
X8072514Y4559958D01*
X8079485Y4547885D01*
X8186635Y4440735D01*
X8317865Y4364969D01*
X8464234Y4325750D01*
X8615765Y4325750D01*
X8615766Y4325750D01*
X8762135Y4364969D01*
X8807850Y4391364D01*
X8867064Y4401804D01*
X8919135Y4371740D01*
X8939700Y4315239D01*
X8939700Y4257665D01*
X8970930Y4141107D01*
X8970931Y4141104D01*
X8970932Y4141103D01*
X9029146Y4040272D01*
X9031269Y4036596D01*
X9105310Y3962555D01*
X9130721Y3908061D01*
X9115158Y3849983D01*
X9065905Y3815495D01*
X9043155Y3812500D01*
X6241439Y3812500D01*
X6184938Y3833065D01*
X6154874Y3885136D01*
X6161774Y3937548D01*
X6207293Y4035161D01*
X6213300Y4080789D01*
X6213299Y4424210D01*
X6213299Y4424213D01*
X6213299Y4424214D01*
X6213298Y4424216D01*
X6207294Y4469835D01*
X6207292Y4469841D01*
X6165271Y4559954D01*
X6160599Y4569974D01*
X6082474Y4648099D01*
X6082472Y4648100D01*
X6007388Y4683113D01*
X5964872Y4725630D01*
X5959632Y4785528D01*
X5994120Y4834781D01*
X6007389Y4842442D01*
X6082183Y4877319D01*
X6160182Y4955318D01*
X6160183Y4955320D01*
X6206801Y5055290D01*
X6212800Y5100850D01*
X6212800Y5183599D01*
X6212799Y5183600D01*
X5217202Y5183600D01*
X5217201Y5183599D01*
X5217201Y5100847D01*
X5223196Y5055298D01*
X5223199Y5055289D01*
X5269816Y4955320D01*
X5269817Y4955318D01*
X5347816Y4877319D01*
X5422610Y4842442D01*
X5465126Y4799925D01*
X5470367Y4740027D01*
X5435880Y4690774D01*
X5422611Y4683113D01*
X5347527Y4648100D01*
X5269400Y4569973D01*
X5222707Y4469841D01*
X5216700Y4424213D01*
X5216700Y4080787D01*
X5216701Y4080785D01*
X5222705Y4035166D01*
X5222707Y4035160D01*
X5256564Y3962555D01*
X5269401Y3935026D01*
X5347526Y3856901D01*
X5347527Y3856901D01*
X5347528Y3856900D01*
X5409748Y3827886D01*
X5452265Y3785370D01*
X5460500Y3748222D01*
X5460500Y3634376D01*
X5499243Y3540840D01*
X5499245Y3540837D01*
X5621231Y3418852D01*
X5621234Y3418848D01*
X5621235Y3418848D01*
X5626244Y3413839D01*
X5626245Y3413837D01*
X5697837Y3342245D01*
X5791377Y3303500D01*
X5791378Y3303500D01*
X9407892Y3303500D01*
X9407893Y3303500D01*
X9501433Y3342245D01*
X10395755Y4236567D01*
X10434501Y4330107D01*
X10434501Y4431353D01*
X10434501Y4438432D01*
X10434500Y4438446D01*
X10434500Y5240051D01*
X10455065Y5296552D01*
X10507136Y5326616D01*
X10522388Y5327951D01*
X10799500Y5327951D01*
X10817923Y5321246D01*
X10837436Y5319343D01*
X10845361Y5311259D01*
X10856001Y5307386D01*
X10865804Y5290407D01*
X10879529Y5276407D01*
X10882913Y5260774D01*
X10886065Y5255315D01*
X10887137Y5246843D01*
X10887400Y5243450D01*
X10887400Y5132728D01*
X10897370Y5095520D01*
X10899472Y5087673D01*
X10899473Y5087668D01*
X10907339Y5058313D01*
X10907340Y5058310D01*
X10945861Y4991590D01*
X11091590Y4845861D01*
X11158310Y4807340D01*
X11195519Y4797370D01*
X11232728Y4787400D01*
X12103521Y4787400D01*
X12103522Y4787400D01*
X12125002Y4793156D01*
X12140727Y4797369D01*
X12140727Y4797370D01*
X12140730Y4797370D01*
X12177940Y4807340D01*
X12244660Y4845861D01*
X12414139Y5015340D01*
X12452660Y5082061D01*
X12470769Y5149646D01*
X12472600Y5156478D01*
X12472600Y5241922D01*
X12472680Y5243797D01*
X12483484Y5269955D01*
X12493165Y5296552D01*
X12494878Y5297542D01*
X12495634Y5299370D01*
X12520714Y5312459D01*
X12545236Y5326616D01*
X12548370Y5326891D01*
X12548939Y5327187D01*
X12549741Y5327011D01*
X12560490Y5327951D01*
X12614204Y5327951D01*
X12670704Y5307386D01*
X12700768Y5255315D01*
X12700414Y5222904D01*
X12698900Y5215292D01*
X12698900Y4013976D01*
X12737643Y3920440D01*
X12737644Y3920439D01*
X12737645Y3920437D01*
X13315837Y3342245D01*
X13409377Y3303499D01*
X13520854Y3303499D01*
X13520862Y3303500D01*
X17068622Y3303500D01*
X17068623Y3303500D01*
X17162163Y3342245D01*
X17289161Y3469245D01*
X17289163Y3469245D01*
X17360755Y3540837D01*
X17399500Y3634377D01*
X17399500Y3748223D01*
X17420065Y3804724D01*
X17450248Y3827885D01*
X17512474Y3856901D01*
X17590599Y3935026D01*
X17637293Y4035161D01*
X17643300Y4080789D01*
X17643299Y4424210D01*
X17643299Y4424213D01*
X17643299Y4424214D01*
X17643298Y4424216D01*
X17637294Y4469835D01*
X17637292Y4469841D01*
X17595271Y4559954D01*
X17590599Y4569974D01*
X17512474Y4648099D01*
X17512472Y4648100D01*
X17437388Y4683113D01*
X17394872Y4725630D01*
X17389632Y4785528D01*
X17424120Y4834781D01*
X17437389Y4842442D01*
X17512183Y4877319D01*
X17590182Y4955318D01*
X17590183Y4955320D01*
X17636801Y5055290D01*
X17642800Y5100850D01*
X17642800Y5183599D01*
X17642799Y5183600D01*
X16647202Y5183600D01*
X16647201Y5183599D01*
X16647201Y5100847D01*
X16653196Y5055298D01*
X16653199Y5055289D01*
X16699816Y4955320D01*
X16699817Y4955318D01*
X16777816Y4877319D01*
X16852610Y4842442D01*
X16895126Y4799925D01*
X16900367Y4740027D01*
X16865880Y4690774D01*
X16852611Y4683113D01*
X16777527Y4648100D01*
X16699400Y4569973D01*
X16652707Y4469841D01*
X16646700Y4424213D01*
X16646700Y4080787D01*
X16646701Y4080785D01*
X16652705Y4035166D01*
X16652707Y4035161D01*
X16698225Y3937548D01*
X16703466Y3877651D01*
X16668979Y3828397D01*
X16618561Y3812500D01*
X13816845Y3812500D01*
X13760344Y3833065D01*
X13730280Y3885136D01*
X13740721Y3944350D01*
X13754690Y3962555D01*
X13828732Y4036597D01*
X13889068Y4141103D01*
X13920300Y4257664D01*
X13920300Y4315239D01*
X13940865Y4371740D01*
X13992936Y4401804D01*
X14052149Y4391364D01*
X14097865Y4364969D01*
X14244234Y4325750D01*
X14395765Y4325750D01*
X14395766Y4325750D01*
X14542135Y4364969D01*
X14673365Y4440735D01*
X14780515Y4547885D01*
X14856281Y4679115D01*
X14895500Y4825484D01*
X14895500Y4825485D01*
X14896991Y4831049D01*
X14900051Y4830229D01*
X14922550Y4873462D01*
X14978097Y4896480D01*
X15035444Y4878407D01*
X15067758Y4827701D01*
X15069420Y4817284D01*
X15069699Y4814448D01*
X15095765Y4683401D01*
X15095768Y4683393D01*
X15146895Y4559960D01*
X15146895Y4559958D01*
X15146898Y4559954D01*
X15221130Y4448859D01*
X15315609Y4354380D01*
X15426704Y4280148D01*
X15426706Y4280147D01*
X15426708Y4280146D01*
X15550142Y4229019D01*
X15550150Y4229016D01*
X15616116Y4215895D01*
X15681193Y4202950D01*
X15681195Y4202950D01*
X15814805Y4202950D01*
X15814807Y4202950D01*
X15901380Y4220171D01*
X15945849Y4229016D01*
X15945850Y4229017D01*
X15945853Y4229017D01*
X16069291Y4280146D01*
X16069292Y4280146D01*
X16069293Y4280147D01*
X16069296Y4280148D01*
X16180391Y4354380D01*
X16274870Y4448859D01*
X16349102Y4559954D01*
X16400233Y4683397D01*
X16401701Y4690774D01*
X16409079Y4727870D01*
X16426300Y4814443D01*
X16426300Y5444151D01*
X16647200Y5444151D01*
X16647200Y5361401D01*
X16647201Y5361400D01*
X17056099Y5361400D01*
X17056100Y5361401D01*
X17056100Y5720299D01*
X17233900Y5720299D01*
X17233900Y5361401D01*
X17233901Y5361400D01*
X17642798Y5361400D01*
X17642799Y5361401D01*
X17642799Y5444152D01*
X17642798Y5444154D01*
X17636803Y5489703D01*
X17636800Y5489712D01*
X17590183Y5589681D01*
X17590182Y5589683D01*
X17512182Y5667683D01*
X17512180Y5667684D01*
X17412209Y5714302D01*
X17412211Y5714302D01*
X17366651Y5720300D01*
X17233901Y5720300D01*
X17233900Y5720299D01*
X17056100Y5720299D01*
X17056100Y5720300D01*
X16923348Y5720300D01*
X16923346Y5720299D01*
X16877797Y5714304D01*
X16877788Y5714301D01*
X16777819Y5667684D01*
X16777817Y5667683D01*
X16699817Y5589683D01*
X16699816Y5589681D01*
X16653198Y5489711D01*
X16647200Y5444151D01*
X16426300Y5444151D01*
X16426300Y6048057D01*
X16417131Y6094150D01*
X16400234Y6179100D01*
X16400231Y6179108D01*
X16349104Y6302541D01*
X16349104Y6302543D01*
X16274871Y6413639D01*
X16274870Y6413641D01*
X16180391Y6508120D01*
X16069296Y6582352D01*
X16069294Y6582353D01*
X16069291Y6582355D01*
X15945857Y6633482D01*
X15945849Y6633485D01*
X15835132Y6655507D01*
X15814807Y6659550D01*
X15681193Y6659550D01*
X15660868Y6655507D01*
X15550150Y6633485D01*
X15550142Y6633482D01*
X15426709Y6582355D01*
X15426707Y6582355D01*
X15315611Y6508122D01*
X15282006Y6474517D01*
X15227512Y6449107D01*
X15169434Y6464670D01*
X15134947Y6513924D01*
X15133640Y6519528D01*
X15122483Y6575626D01*
X15083188Y6634433D01*
X15083182Y6634439D01*
X15024375Y6673734D01*
X14972513Y6684050D01*
X14743901Y6684050D01*
X14743900Y6684049D01*
X14743900Y6094150D01*
X14736090Y6072693D01*
X14732124Y6050200D01*
X14726047Y6045102D01*
X14723335Y6037649D01*
X14703558Y6026231D01*
X14686064Y6011551D01*
X14674646Y6009538D01*
X14671264Y6007585D01*
X14656000Y6006250D01*
X14654000Y6006250D01*
X14597499Y6026815D01*
X14567435Y6078886D01*
X14566100Y6094150D01*
X14566100Y6684049D01*
X14566099Y6684050D01*
X14349400Y6684050D01*
X14292899Y6704615D01*
X14262835Y6756686D01*
X14261500Y6771950D01*
X14261500Y7018067D01*
X14282065Y7074568D01*
X14287245Y7080222D01*
X14754387Y7547364D01*
X15227776Y8020753D01*
X15278002Y8107747D01*
X15301816Y8196622D01*
X15336304Y8245875D01*
X15394382Y8261437D01*
X15448876Y8236026D01*
X15459805Y8222708D01*
X15494053Y8171453D01*
X15553031Y8132045D01*
X15605039Y8121700D01*
X16840160Y8121701D01*
X16840162Y8121701D01*
X16869277Y8127492D01*
X16928705Y8118345D01*
X16968349Y8073139D01*
X16969660Y8013026D01*
X16932024Y7966134D01*
X16930399Y7965172D01*
X16860989Y7925098D01*
X16831745Y7908214D01*
X16746419Y7822888D01*
X16686080Y7718377D01*
X16654850Y7601819D01*
X16654850Y7481148D01*
X16686080Y7364590D01*
X16686081Y7364587D01*
X16686082Y7364586D01*
X16746418Y7260080D01*
X16831747Y7174751D01*
X16936253Y7114415D01*
X16936255Y7114415D01*
X16936256Y7114414D01*
X17052814Y7083183D01*
X17173484Y7083183D01*
X17173486Y7083183D01*
X17256102Y7105320D01*
X17315998Y7100080D01*
X17358514Y7057564D01*
X17366750Y7020415D01*
X17366750Y6966126D01*
X17405493Y6872590D01*
X17405494Y6872589D01*
X17405495Y6872587D01*
X17549955Y6728127D01*
X17575366Y6673634D01*
X17575700Y6665973D01*
X17575700Y6543665D01*
X17606930Y6427107D01*
X17606931Y6427104D01*
X17606932Y6427103D01*
X17667268Y6322597D01*
X17752597Y6237268D01*
X17857103Y6176932D01*
X17857105Y6176932D01*
X17857106Y6176931D01*
X17973664Y6145700D01*
X18094335Y6145700D01*
X18094336Y6145700D01*
X18210897Y6176932D01*
X18315403Y6237268D01*
X18400732Y6322597D01*
X18461068Y6427103D01*
X18492300Y6543664D01*
X18492300Y6664336D01*
X18481507Y6704615D01*
X18461069Y6780894D01*
X18461068Y6780895D01*
X18461068Y6780897D01*
X18400732Y6885403D01*
X18315403Y6970732D01*
X18210897Y7031068D01*
X18210896Y7031069D01*
X18210893Y7031070D01*
X18094336Y7062300D01*
X17973664Y7062300D01*
X17972028Y7062300D01*
X17953995Y7068864D01*
X17934880Y7070536D01*
X17919159Y7081543D01*
X17915527Y7082865D01*
X17909873Y7088045D01*
X17901495Y7096423D01*
X17876084Y7150917D01*
X17875750Y7158578D01*
X17875750Y8366286D01*
X17896315Y8422787D01*
X17948386Y8452851D01*
X17980795Y8452498D01*
X18009939Y8446700D01*
X18745060Y8446701D01*
X18745063Y8446701D01*
X18745065Y8446702D01*
X18797065Y8457044D01*
X18797066Y8457044D01*
X18797066Y8457045D01*
X18797069Y8457045D01*
X18856047Y8496453D01*
X18895455Y8555431D01*
X18901625Y8586451D01*
X18932818Y8637853D01*
X18987836Y8657201D01*
X19278600Y8657201D01*
X19278600Y10392799D01*
X19278599Y10392800D01*
X18987835Y10392800D01*
X18931334Y10413365D01*
X18901623Y10463555D01*
X18895455Y10494569D01*
X18856286Y10553189D01*
X18856047Y10553547D01*
X18797069Y10592955D01*
X18745061Y10603300D01*
X18745059Y10603300D01*
X18719900Y10603300D01*
X18663399Y10623865D01*
X18633335Y10675936D01*
X18632000Y10691200D01*
X18632000Y11005851D01*
X18652565Y11062352D01*
X18669939Y11076931D01*
X18669564Y11077420D01*
X18674127Y11080922D01*
X18674131Y11080924D01*
X18764076Y11170869D01*
X18827678Y11281030D01*
X18860600Y11403899D01*
X18860600Y11531101D01*
X18827678Y11653970D01*
X18764076Y11764131D01*
X18674131Y11854076D01*
X18661163Y11861563D01*
X18563968Y11917679D01*
X18441101Y11950600D01*
X18313899Y11950600D01*
X18191031Y11917679D01*
X18080871Y11854078D01*
X17990922Y11764129D01*
X17927321Y11653969D01*
X17894400Y11531101D01*
X17894400Y11403900D01*
X17926385Y11284524D01*
X17927322Y11281030D01*
X17944364Y11251513D01*
X17990923Y11170870D01*
X17990924Y11170869D01*
X18080865Y11080927D01*
X18085436Y11077420D01*
X18084210Y11075823D01*
X18117698Y11035918D01*
X18123000Y11005851D01*
X18123000Y10691200D01*
X18102435Y10634699D01*
X18050364Y10604635D01*
X18035103Y10603300D01*
X18009937Y10603300D01*
X18009934Y10603299D01*
X17957934Y10592957D01*
X17957933Y10592957D01*
X17898954Y10553548D01*
X17898952Y10553546D01*
X17859545Y10494569D01*
X17849200Y10442560D01*
X17849200Y10107437D01*
X17849201Y10107435D01*
X17861233Y10046939D01*
X17858993Y10046494D01*
X17860890Y10003027D01*
X17861705Y10002864D01*
X17861042Y9999535D01*
X17861114Y9997899D01*
X17860239Y9995497D01*
X17849700Y9942513D01*
X17849700Y9863901D01*
X17849701Y9863900D01*
X18289600Y9863900D01*
X18311057Y9856091D01*
X18333550Y9852124D01*
X18338648Y9846048D01*
X18346101Y9843335D01*
X18357519Y9823559D01*
X18372199Y9806064D01*
X18374212Y9794647D01*
X18376165Y9791264D01*
X18377500Y9776000D01*
X18377500Y9774000D01*
X18356935Y9717499D01*
X18304864Y9687435D01*
X18289600Y9686100D01*
X17849702Y9686100D01*
X17849701Y9686099D01*
X17849701Y9617400D01*
X17841891Y9595943D01*
X17837925Y9573450D01*
X17831848Y9568352D01*
X17829136Y9560899D01*
X17809359Y9549481D01*
X17791865Y9534801D01*
X17780447Y9532788D01*
X17777065Y9530835D01*
X17761801Y9529500D01*
X17749612Y9529500D01*
X17749604Y9529501D01*
X17739373Y9529501D01*
X17638127Y9529501D01*
X17544589Y9490757D01*
X17129064Y9075232D01*
X17074570Y9049821D01*
X17016492Y9065384D01*
X16982004Y9114637D01*
X16987067Y9172504D01*
X16986771Y9172626D01*
X16987160Y9173566D01*
X16987245Y9174535D01*
X16988443Y9176664D01*
X16990083Y9180624D01*
X17000400Y9232488D01*
X17000400Y9436099D01*
X17000399Y9436100D01*
X16310500Y9436100D01*
X16289042Y9443910D01*
X16266550Y9447876D01*
X16261451Y9453953D01*
X16253999Y9456665D01*
X16242580Y9476442D01*
X16227901Y9493936D01*
X16225887Y9505354D01*
X16223935Y9508736D01*
X16222600Y9524000D01*
X16222600Y9526000D01*
X16243165Y9582501D01*
X16295236Y9612565D01*
X16310500Y9613900D01*
X17000398Y9613900D01*
X17000399Y9613901D01*
X17000399Y9817509D01*
X16990083Y9869376D01*
X16950788Y9928183D01*
X16944664Y9934307D01*
X16946299Y9935943D01*
X16917587Y9975098D01*
X16921516Y10035097D01*
X16946037Y10064320D01*
X16945025Y10065332D01*
X16951140Y10071449D01*
X16951147Y10071453D01*
X16990555Y10130431D01*
X17000900Y10182439D01*
X17000899Y10767560D01*
X17000899Y10767561D01*
X17000899Y10767564D01*
X17000898Y10767566D01*
X16990556Y10819566D01*
X16990556Y10819567D01*
X16990555Y10819569D01*
X16951147Y10878547D01*
X16892169Y10917955D01*
X16840161Y10928300D01*
X16840159Y10928300D01*
X15605036Y10928300D01*
X15605034Y10928299D01*
X15553034Y10917957D01*
X15553033Y10917957D01*
X15494054Y10878548D01*
X15494052Y10878546D01*
X15453323Y10817591D01*
X15404833Y10782037D01*
X15344835Y10785970D01*
X15301402Y10827550D01*
X15295332Y10843676D01*
X15285988Y10878547D01*
X15278002Y10908353D01*
X15229752Y10991924D01*
X15229752Y10991925D01*
X15229749Y10991928D01*
X15227776Y10995347D01*
X15193093Y11030030D01*
X15156747Y11066377D01*
X15156747Y11066376D01*
X14812248Y11410875D01*
X14812247Y11410876D01*
X14754451Y11444244D01*
X14725254Y11461101D01*
X14725253Y11461102D01*
X14721916Y11463028D01*
X14720296Y11464958D01*
X14704219Y11484119D01*
X14683267Y11509088D01*
X14683267Y11569216D01*
X14716036Y11608268D01*
X14721916Y11615276D01*
X14728698Y11618807D01*
X14729974Y11619401D01*
X14808099Y11697526D01*
X14840972Y11768022D01*
X14843112Y11772611D01*
X14885628Y11815128D01*
X14945526Y11820368D01*
X14994780Y11785880D01*
X15002440Y11772611D01*
X15037316Y11697820D01*
X15037317Y11697818D01*
X15115317Y11619818D01*
X15115319Y11619817D01*
X15215290Y11573199D01*
X15215289Y11573199D01*
X15260849Y11567201D01*
X15343600Y11567201D01*
X15343600Y11976099D01*
X15521400Y11976099D01*
X15521400Y11567202D01*
X15521401Y11567201D01*
X15604152Y11567201D01*
X15604153Y11567202D01*
X15649702Y11573197D01*
X15649711Y11573200D01*
X15749680Y11619817D01*
X15749682Y11619818D01*
X15827682Y11697818D01*
X15827683Y11697820D01*
X15874301Y11797790D01*
X15880300Y11843350D01*
X15880300Y11976099D01*
X15880299Y11976100D01*
X15521401Y11976100D01*
X15521400Y11976099D01*
X15343600Y11976099D01*
X15343600Y12562799D01*
X15521400Y12562799D01*
X15521400Y12153901D01*
X15521401Y12153900D01*
X15880298Y12153900D01*
X15880299Y12153901D01*
X15880299Y12286652D01*
X15880298Y12286654D01*
X15874303Y12332203D01*
X15874300Y12332212D01*
X15827683Y12432181D01*
X15827682Y12432183D01*
X15749682Y12510183D01*
X15749680Y12510184D01*
X15649709Y12556802D01*
X15649711Y12556802D01*
X15604151Y12562800D01*
X15521401Y12562800D01*
X15521400Y12562799D01*
X15343600Y12562799D01*
X15343600Y12562800D01*
X15260848Y12562800D01*
X15260846Y12562799D01*
X15215297Y12556804D01*
X15215288Y12556801D01*
X15115319Y12510184D01*
X15115317Y12510183D01*
X15037317Y12432183D01*
X15002440Y12357389D01*
X14959924Y12314873D01*
X14900025Y12309633D01*
X14850772Y12344121D01*
X14843112Y12357389D01*
X14820557Y12405757D01*
X14808099Y12432474D01*
X14729974Y12510599D01*
X14729972Y12510600D01*
X14629840Y12557293D01*
X14584213Y12563300D01*
X14584211Y12563300D01*
X14310528Y12563300D01*
X14254027Y12583865D01*
X14248373Y12589045D01*
X13902645Y12934773D01*
X13894534Y12952165D01*
X13882201Y12966864D01*
X13878869Y12985761D01*
X13877234Y12989267D01*
X13876900Y12996928D01*
X13876900Y13113801D01*
X13897465Y13170302D01*
X13949536Y13200366D01*
X13964800Y13201701D01*
X14239964Y13201701D01*
X14239965Y13201702D01*
X14291965Y13212044D01*
X14291966Y13212044D01*
X14291966Y13212045D01*
X14291969Y13212045D01*
X14350947Y13251453D01*
X14390355Y13310431D01*
X14400700Y13362439D01*
X14400699Y13947560D01*
X15444300Y13947560D01*
X15444300Y13362437D01*
X15444301Y13362435D01*
X15454643Y13310435D01*
X15454643Y13310434D01*
X15454644Y13310432D01*
X15454645Y13310431D01*
X15494053Y13251453D01*
X15553031Y13212045D01*
X15605039Y13201700D01*
X16840160Y13201701D01*
X16840163Y13201701D01*
X16840165Y13201702D01*
X16892165Y13212044D01*
X16892166Y13212044D01*
X16892166Y13212045D01*
X16892169Y13212045D01*
X16951147Y13251453D01*
X16990555Y13310431D01*
X17000900Y13362439D01*
X17000899Y13947560D01*
X17000899Y13947561D01*
X17000899Y13947564D01*
X17000898Y13947566D01*
X16990556Y13999566D01*
X16990556Y13999567D01*
X16979485Y14016136D01*
X16966146Y14036099D01*
X17927200Y14036099D01*
X17927200Y13947757D01*
X17933293Y13901475D01*
X17980656Y13799907D01*
X17980657Y13799905D01*
X18059904Y13720658D01*
X18059906Y13720657D01*
X18161475Y13673294D01*
X18161474Y13673294D01*
X18207756Y13667200D01*
X18326099Y13667200D01*
X18326100Y13667201D01*
X18326100Y14036100D01*
X17927201Y14036100D01*
X17927200Y14036099D01*
X16966146Y14036099D01*
X16951147Y14058547D01*
X16951143Y14058550D01*
X16945025Y14064668D01*
X16946553Y14066197D01*
X16917584Y14105710D01*
X16921520Y14165708D01*
X16945763Y14194594D01*
X16944664Y14195693D01*
X16950788Y14201818D01*
X16990083Y14260625D01*
X17000400Y14312488D01*
X17000400Y14516099D01*
X17000399Y14516100D01*
X15444802Y14516100D01*
X15444801Y14516099D01*
X15444801Y14312492D01*
X15455116Y14260625D01*
X15494411Y14201818D01*
X15500536Y14195693D01*
X15498899Y14194057D01*
X15527611Y14154907D01*
X15523684Y14094908D01*
X15499164Y14065679D01*
X15500175Y14064668D01*
X15494052Y14058546D01*
X15454645Y13999569D01*
X15444300Y13947560D01*
X14400699Y13947560D01*
X14400699Y13947561D01*
X14400699Y13947564D01*
X14400698Y13947566D01*
X14390356Y13999566D01*
X14390356Y13999567D01*
X14379285Y14016136D01*
X14350947Y14058547D01*
X14291969Y14097955D01*
X14239961Y14108300D01*
X14239959Y14108300D01*
X13004836Y14108300D01*
X13004834Y14108299D01*
X12952834Y14097957D01*
X12952833Y14097957D01*
X12900734Y14063145D01*
X12842330Y14048855D01*
X12788404Y14075448D01*
X12764188Y14130484D01*
X12764000Y14136232D01*
X12764000Y15045568D01*
X12770562Y15063598D01*
X12772234Y15082714D01*
X12783243Y15098439D01*
X12784565Y15102069D01*
X12789743Y15107721D01*
X12797119Y15115097D01*
X12806649Y15124628D01*
X12861141Y15150039D01*
X12917639Y15135560D01*
X12952831Y15112045D01*
X13004839Y15101700D01*
X14239960Y15101701D01*
X14239963Y15101701D01*
X14239965Y15101702D01*
X14291965Y15112044D01*
X14291966Y15112044D01*
X14291966Y15112045D01*
X14291969Y15112045D01*
X14350947Y15151453D01*
X14390355Y15210431D01*
X14400700Y15262439D01*
X14400699Y15847560D01*
X14400699Y15847561D01*
X14400699Y15847564D01*
X14400698Y15847566D01*
X14390356Y15899566D01*
X14390356Y15899567D01*
X14383049Y15910503D01*
X14350947Y15958547D01*
X14291969Y15997955D01*
X14239961Y16008300D01*
X14239959Y16008300D01*
X13004836Y16008300D01*
X13004834Y16008299D01*
X12952834Y15997957D01*
X12952833Y15997957D01*
X12930385Y15982957D01*
X12893855Y15958548D01*
X12886655Y15953737D01*
X12884909Y15956350D01*
X12843058Y15936834D01*
X12835397Y15936500D01*
X12647275Y15936500D01*
X12550249Y15910503D01*
X12463251Y15860275D01*
X12397233Y15794256D01*
X12392224Y15789247D01*
X12392222Y15789246D01*
X12274641Y15671665D01*
X12226235Y15623259D01*
X12171741Y15597848D01*
X12113662Y15613411D01*
X12079175Y15662664D01*
X12077262Y15671665D01*
X12067861Y15731024D01*
X12067861Y15731025D01*
X12009936Y15844708D01*
X11919707Y15934937D01*
X11806024Y15992862D01*
X11711701Y16007800D01*
X11518901Y16007800D01*
X11518900Y16007799D01*
X11518900Y14752201D01*
X11518901Y14752200D01*
X11711700Y14752200D01*
X11711700Y14752201D01*
X11806023Y14767139D01*
X11806024Y14767139D01*
X11873194Y14801364D01*
X11932873Y14808692D01*
X11983300Y14775945D01*
X12001000Y14723045D01*
X12001000Y14487517D01*
X11980435Y14431016D01*
X11928364Y14400952D01*
X11873195Y14409197D01*
X11806178Y14443343D01*
X11806179Y14443343D01*
X11737562Y14454210D01*
X11711739Y14458300D01*
X11711737Y14458300D01*
X11148263Y14458300D01*
X11148261Y14458299D01*
X11053822Y14443343D01*
X10939992Y14385344D01*
X10849656Y14295008D01*
X10791657Y14181178D01*
X10782918Y14126000D01*
X10776778Y14087228D01*
X10776700Y14086738D01*
X10776700Y13573264D01*
X10776701Y13573262D01*
X10791657Y13478823D01*
X10791657Y13478822D01*
X10791658Y13478820D01*
X10849657Y13364991D01*
X10939991Y13274657D01*
X11053820Y13216658D01*
X11148261Y13201700D01*
X11711738Y13201701D01*
X11806180Y13216658D01*
X11873194Y13250803D01*
X11932873Y13258131D01*
X11983300Y13225383D01*
X12001000Y13172484D01*
X12001000Y12967276D01*
X12026998Y12870248D01*
X12064971Y12804475D01*
X12066548Y12801745D01*
X12068708Y12798004D01*
X12077224Y12783253D01*
X13782122Y11078355D01*
X13807533Y11023861D01*
X13791970Y10965783D01*
X13742717Y10931295D01*
X13719967Y10928300D01*
X13004836Y10928300D01*
X13004834Y10928299D01*
X12952834Y10917957D01*
X12952833Y10917957D01*
X12893854Y10878548D01*
X12893852Y10878546D01*
X12849635Y10812370D01*
X12847812Y10813588D01*
X12814775Y10777532D01*
X12774186Y10767600D01*
X12445500Y10767600D01*
X12424042Y10775410D01*
X12401550Y10779376D01*
X12396451Y10785453D01*
X12388999Y10788165D01*
X12377580Y10807942D01*
X12362901Y10825436D01*
X12360887Y10836854D01*
X12358935Y10840236D01*
X12357600Y10855500D01*
X12357600Y10973529D01*
X12378165Y11030030D01*
X12430236Y11060094D01*
X12445500Y11061429D01*
X12505835Y11061429D01*
X12505836Y11061429D01*
X12622397Y11092661D01*
X12726903Y11152997D01*
X12812232Y11238326D01*
X12872568Y11342832D01*
X12903800Y11459393D01*
X12903800Y11580065D01*
X12893148Y11619818D01*
X12872569Y11696623D01*
X12872568Y11696624D01*
X12872568Y11696626D01*
X12812232Y11801132D01*
X12726903Y11886461D01*
X12622397Y11946797D01*
X12622396Y11946798D01*
X12622393Y11946799D01*
X12505836Y11978029D01*
X12385164Y11978029D01*
X12268606Y11946799D01*
X12164095Y11886460D01*
X12078769Y11801134D01*
X12018430Y11696623D01*
X11987200Y11580065D01*
X11987200Y11543993D01*
X11966635Y11487492D01*
X11961455Y11481839D01*
X11830860Y11351244D01*
X11792339Y11284523D01*
X11789345Y11273347D01*
X11789345Y11273346D01*
X11772400Y11210106D01*
X11772400Y10810404D01*
X11751835Y10753903D01*
X11699764Y10723839D01*
X11640550Y10734280D01*
X11601901Y10780340D01*
X11598289Y10793257D01*
X11593056Y10819567D01*
X11593055Y10819569D01*
X11553647Y10878547D01*
X11494669Y10917955D01*
X11442661Y10928300D01*
X11442659Y10928300D01*
X11167500Y10928300D01*
X11110999Y10948865D01*
X11080935Y11000936D01*
X11079600Y11016200D01*
X11079600Y11768022D01*
X11079599Y11768025D01*
X11077699Y11772611D01*
X11040855Y11861563D01*
X10969263Y11933155D01*
X10969261Y11933156D01*
X10496663Y12405755D01*
X10496661Y12405756D01*
X10496660Y12405757D01*
X10403124Y12444500D01*
X10403123Y12444500D01*
X10373463Y12444500D01*
X10316962Y12465065D01*
X10293798Y12495253D01*
X10288099Y12507475D01*
X10209975Y12585598D01*
X10209974Y12585599D01*
X10135481Y12620336D01*
X10092965Y12662852D01*
X10087725Y12722751D01*
X10122213Y12772004D01*
X10135481Y12779664D01*
X10144799Y12784010D01*
X10209974Y12814401D01*
X10288099Y12892526D01*
X10334793Y12992661D01*
X10340800Y13038289D01*
X10340799Y13381710D01*
X10340799Y13381711D01*
X10340799Y13381714D01*
X10340798Y13381716D01*
X10340555Y13383559D01*
X10337953Y13403335D01*
X10334794Y13427335D01*
X10334792Y13427341D01*
X10310785Y13478823D01*
X10288099Y13527474D01*
X10262756Y13552817D01*
X10237346Y13607309D01*
X10252909Y13665387D01*
X10262746Y13677112D01*
X10274232Y13688597D01*
X10334568Y13793103D01*
X10365800Y13909664D01*
X10365800Y14030336D01*
X10356191Y14066197D01*
X10334569Y14146894D01*
X10334568Y14146895D01*
X10334568Y14146897D01*
X10274232Y14251403D01*
X10188903Y14336732D01*
X10084397Y14397068D01*
X10084396Y14397069D01*
X10084393Y14397070D01*
X9967836Y14428300D01*
X9847164Y14428300D01*
X9730606Y14397070D01*
X9626095Y14336731D01*
X9540769Y14251405D01*
X9480430Y14146894D01*
X9449200Y14030336D01*
X9449200Y13909665D01*
X9480431Y13793105D01*
X9516615Y13730431D01*
X9527055Y13671217D01*
X9496991Y13619146D01*
X9477642Y13606819D01*
X9475027Y13605600D01*
X9396900Y13527473D01*
X9350206Y13427339D01*
X9348326Y13420886D01*
X9344945Y13421872D01*
X9322911Y13380153D01*
X9267224Y13357475D01*
X9209989Y13375898D01*
X9201767Y13383151D01*
X9034163Y13550755D01*
X9034161Y13550756D01*
X9034160Y13550757D01*
X8940621Y13589501D01*
X8934881Y13590643D01*
X8883479Y13621837D01*
X8872369Y13639705D01*
X8843100Y13702472D01*
X8843099Y13702473D01*
X8843099Y13702474D01*
X8764974Y13780599D01*
X8742299Y13791173D01*
X8699784Y13833688D01*
X8698251Y13837174D01*
X8663255Y13921663D01*
X8591663Y13993255D01*
X8591661Y13993256D01*
X8399163Y14185755D01*
X8399161Y14185756D01*
X8399160Y14185757D01*
X8305624Y14224500D01*
X8305623Y14224500D01*
X4276200Y14224500D01*
X4219699Y14245065D01*
X4189635Y14297136D01*
X4188300Y14312400D01*
X4188300Y14808692D01*
X4188299Y15291099D01*
X10777200Y15291099D01*
X10777200Y15123300D01*
X10792138Y15028977D01*
X10792138Y15028976D01*
X10850063Y14915293D01*
X10940292Y14825064D01*
X11053975Y14767139D01*
X11148299Y14752201D01*
X11148300Y14752200D01*
X11341099Y14752200D01*
X11341100Y14752201D01*
X11341100Y15291099D01*
X11341099Y15291100D01*
X10777201Y15291100D01*
X10777200Y15291099D01*
X4188299Y15291099D01*
X4188299Y15636701D01*
X10777200Y15636701D01*
X10777200Y15468901D01*
X10777201Y15468900D01*
X11341099Y15468900D01*
X11341100Y15468901D01*
X11341100Y16007799D01*
X11341099Y16007800D01*
X11148299Y16007800D01*
X11053976Y15992862D01*
X11053975Y15992862D01*
X10940292Y15934937D01*
X10850063Y15844708D01*
X10792138Y15731025D01*
X10792138Y15731024D01*
X10777200Y15636701D01*
X4188299Y15636701D01*
X4188299Y15832560D01*
X4188299Y15832561D01*
X4188299Y15832564D01*
X4188298Y15832566D01*
X4177956Y15884566D01*
X4177956Y15884567D01*
X4167934Y15899566D01*
X4138547Y15943547D01*
X4079569Y15982955D01*
X4027561Y15993300D01*
X4027559Y15993300D01*
X592436Y15993300D01*
X592434Y15993299D01*
X540434Y15982957D01*
X540433Y15982957D01*
X481454Y15943548D01*
X481452Y15943546D01*
X459372Y15910501D01*
X442045Y15884569D01*
X434684Y15847560D01*
X431700Y15832560D01*
X254500Y15832560D01*
X254500Y17326099D01*
X5032201Y17326099D01*
X5032201Y16897492D01*
X5042516Y16845625D01*
X5081811Y16786818D01*
X5081817Y16786812D01*
X5140624Y16747517D01*
X5192487Y16737201D01*
X7421098Y16737201D01*
X7421100Y16737202D01*
X7421100Y17326099D01*
X7598900Y17326099D01*
X7598900Y16737202D01*
X7598901Y16737201D01*
X9827509Y16737201D01*
X9879375Y16747517D01*
X9938182Y16786812D01*
X9938188Y16786818D01*
X9977483Y16845625D01*
X9987800Y16897488D01*
X9987800Y17326099D01*
X9987799Y17326100D01*
X7598901Y17326100D01*
X7598900Y17326099D01*
X7421100Y17326099D01*
X7421099Y17326100D01*
X5032202Y17326100D01*
X5032201Y17326099D01*
X254500Y17326099D01*
X254500Y17932513D01*
X5032200Y17932513D01*
X5032200Y17503901D01*
X5032201Y17503900D01*
X7421099Y17503900D01*
X7421100Y17503901D01*
X7421100Y18092799D01*
X7598900Y18092799D01*
X7598900Y17503901D01*
X7598901Y17503900D01*
X9987798Y17503900D01*
X9987799Y17503901D01*
X9987799Y17932509D01*
X9977483Y17984376D01*
X9938188Y18043183D01*
X9938182Y18043189D01*
X9879375Y18082484D01*
X9827513Y18092800D01*
X7598901Y18092800D01*
X7598900Y18092799D01*
X7421100Y18092799D01*
X7421099Y18092800D01*
X5192491Y18092800D01*
X5140624Y18082484D01*
X5081817Y18043189D01*
X5081811Y18043183D01*
X5042516Y17984376D01*
X5032200Y17932513D01*
X254500Y17932513D01*
X254500Y19932560D01*
X5031700Y19932560D01*
X5031700Y18897437D01*
X5031701Y18897435D01*
X5042043Y18845435D01*
X5042043Y18845434D01*
X5042044Y18845432D01*
X5042045Y18845431D01*
X5081453Y18786453D01*
X5140431Y18747045D01*
X5192439Y18736700D01*
X9827560Y18736701D01*
X9827563Y18736701D01*
X9827565Y18736702D01*
X9879565Y18747044D01*
X9879566Y18747044D01*
X9879566Y18747045D01*
X9879569Y18747045D01*
X9938547Y18786453D01*
X9977955Y18845431D01*
X9977955Y18845432D01*
X9982765Y18852630D01*
X9985481Y18850815D01*
X10016416Y18884595D01*
X10076027Y18892461D01*
X10119183Y18868794D01*
X10311353Y18676624D01*
X10398347Y18626398D01*
X10398349Y18626398D01*
X10398350Y18626397D01*
X10495375Y18600400D01*
X13843667Y18600400D01*
X13900168Y18579835D01*
X13905822Y18574655D01*
X15815355Y16665123D01*
X15840766Y16610629D01*
X15841100Y16602968D01*
X15841100Y16096200D01*
X15820535Y16039699D01*
X15768464Y16009635D01*
X15753201Y16008300D01*
X15605036Y16008300D01*
X15605034Y16008299D01*
X15553034Y15997957D01*
X15553033Y15997957D01*
X15494054Y15958548D01*
X15494052Y15958546D01*
X15454645Y15899569D01*
X15444300Y15847560D01*
X15444300Y15262437D01*
X15444301Y15262435D01*
X15454643Y15210435D01*
X15454643Y15210434D01*
X15454644Y15210432D01*
X15454645Y15210431D01*
X15494053Y15151453D01*
X15494056Y15151451D01*
X15500175Y15145332D01*
X15498646Y15143804D01*
X15527614Y15104295D01*
X15523680Y15044296D01*
X15499438Y15015405D01*
X15500536Y15014307D01*
X15494411Y15008183D01*
X15455116Y14949376D01*
X15444800Y14897513D01*
X15444800Y14693901D01*
X15444801Y14693900D01*
X17000398Y14693900D01*
X17000399Y14693901D01*
X17000399Y14897509D01*
X16990083Y14949376D01*
X16950788Y15008183D01*
X16945326Y15013645D01*
X16942841Y15014663D01*
X16931720Y15035825D01*
X16917587Y15055098D01*
X16918030Y15061876D01*
X16914871Y15067888D01*
X16919953Y15091243D01*
X16921516Y15115097D01*
X16926546Y15121533D01*
X16927658Y15126640D01*
X16942204Y15141564D01*
X16945094Y15145263D01*
X16945025Y15145332D01*
X16945594Y15145902D01*
X16948194Y15149227D01*
X16950595Y15151085D01*
X16951147Y15151453D01*
X16951227Y15151574D01*
X16955823Y15155128D01*
X16957400Y15155633D01*
X16958351Y15156267D01*
X16958533Y15155995D01*
X16979454Y15162680D01*
X17001942Y15173166D01*
X17009603Y15173500D01*
X17750568Y15173500D01*
X17807069Y15152935D01*
X17812722Y15147755D01*
X17900954Y15059524D01*
X17926365Y15005030D01*
X17926700Y14997369D01*
X17926700Y14907703D01*
X17932803Y14861346D01*
X17980242Y14759614D01*
X18059615Y14680241D01*
X18064678Y14676696D01*
X18099167Y14627444D01*
X18093929Y14567545D01*
X18064681Y14532688D01*
X18059907Y14529346D01*
X17980657Y14450096D01*
X17980656Y14450094D01*
X17933293Y14348526D01*
X17927200Y14302244D01*
X17927200Y14213901D01*
X17927201Y14213900D01*
X18327100Y14213900D01*
X18348557Y14206091D01*
X18371050Y14202124D01*
X18376148Y14196048D01*
X18383601Y14193335D01*
X18395019Y14173559D01*
X18409699Y14156064D01*
X18411712Y14144647D01*
X18413665Y14141264D01*
X18415000Y14126000D01*
X18415000Y14125000D01*
X18416000Y14125000D01*
X18472501Y14104435D01*
X18502565Y14052364D01*
X18503900Y14037100D01*
X18503900Y13667201D01*
X18503901Y13667200D01*
X18622244Y13667200D01*
X18668525Y13673294D01*
X18770093Y13720657D01*
X18770095Y13720658D01*
X18849342Y13799905D01*
X18849343Y13799907D01*
X18896706Y13901475D01*
X18902800Y13947757D01*
X18902800Y14025073D01*
X18923365Y14081574D01*
X18975436Y14111638D01*
X19034650Y14101197D01*
X19052851Y14087231D01*
X19928037Y13212046D01*
X21309755Y11830328D01*
X21335166Y11775834D01*
X21335500Y11768173D01*
X21335500Y10512801D01*
X21314935Y10456300D01*
X21284749Y10433137D01*
X21234614Y10409759D01*
X21234612Y10409757D01*
X21155244Y10330390D01*
X21155242Y10330387D01*
X21107803Y10228655D01*
X21101700Y10182298D01*
X21101700Y10117400D01*
X21093890Y10095943D01*
X21089924Y10073450D01*
X21083847Y10068352D01*
X21081135Y10060899D01*
X21061358Y10049481D01*
X21043864Y10034801D01*
X21032446Y10032788D01*
X21029064Y10030835D01*
X21013800Y10029500D01*
X20973200Y10029500D01*
X20916699Y10050065D01*
X20886635Y10102136D01*
X20885300Y10117400D01*
X20885300Y10186099D01*
X20885299Y10186100D01*
X20445400Y10186100D01*
X20423942Y10193910D01*
X20401450Y10197876D01*
X20396351Y10203953D01*
X20388899Y10206665D01*
X20377480Y10226442D01*
X20362801Y10243936D01*
X20360787Y10255354D01*
X20358835Y10258736D01*
X20357500Y10274000D01*
X20357500Y10275000D01*
X20356500Y10275000D01*
X20299999Y10295565D01*
X20269935Y10347636D01*
X20268600Y10362900D01*
X20268600Y10602799D01*
X20446400Y10602799D01*
X20446400Y10363900D01*
X20885298Y10363900D01*
X20885299Y10363901D01*
X20885299Y10442509D01*
X20874983Y10494376D01*
X20835688Y10553183D01*
X20835682Y10553189D01*
X20776875Y10592484D01*
X20725013Y10602800D01*
X20446401Y10602800D01*
X20446400Y10602799D01*
X20268600Y10602799D01*
X20268599Y10602800D01*
X19989986Y10602800D01*
X19989984Y10602799D01*
X19938128Y10592486D01*
X19938124Y10592484D01*
X19879317Y10553189D01*
X19879311Y10553183D01*
X19840016Y10494375D01*
X19833885Y10463552D01*
X19802693Y10412148D01*
X19747674Y10392800D01*
X19456401Y10392800D01*
X19456400Y10392799D01*
X19456400Y8657202D01*
X19456401Y8657201D01*
X19747674Y8657201D01*
X19804175Y8636636D01*
X19833885Y8586448D01*
X19840014Y8555629D01*
X19840016Y8555625D01*
X19879311Y8496818D01*
X19879317Y8496812D01*
X19938124Y8457517D01*
X19989986Y8447201D01*
X20268600Y8447201D01*
X20268600Y8447202D01*
X20446400Y8447202D01*
X20446401Y8447201D01*
X20725009Y8447201D01*
X20776875Y8457517D01*
X20835682Y8496812D01*
X20835688Y8496818D01*
X20874983Y8555625D01*
X20885300Y8607488D01*
X20885300Y8686099D01*
X20885299Y8686100D01*
X20446400Y8686100D01*
X20446400Y8447202D01*
X20268600Y8447202D01*
X20268600Y8687100D01*
X20276409Y8708558D01*
X20280376Y8731050D01*
X20286452Y8736149D01*
X20289165Y8743601D01*
X20308941Y8755020D01*
X20326436Y8769699D01*
X20337853Y8771713D01*
X20341236Y8773665D01*
X20356500Y8775000D01*
X20357500Y8775000D01*
X20357500Y8776000D01*
X20378065Y8832501D01*
X20430136Y8862565D01*
X20445400Y8863900D01*
X20885298Y8863900D01*
X20885299Y8863901D01*
X20885299Y8867757D01*
X21102200Y8867757D01*
X21108293Y8821475D01*
X21155656Y8719907D01*
X21155657Y8719905D01*
X21234904Y8640658D01*
X21234906Y8640657D01*
X21336475Y8593294D01*
X21336474Y8593294D01*
X21382756Y8587200D01*
X21501099Y8587200D01*
X21501100Y8587201D01*
X21501100Y8956099D01*
X21678900Y8956099D01*
X21678900Y8587201D01*
X21678901Y8587200D01*
X21797244Y8587200D01*
X21843525Y8593294D01*
X21945093Y8640657D01*
X21945095Y8640658D01*
X22024342Y8719905D01*
X22024343Y8719907D01*
X22071706Y8821475D01*
X22077800Y8867757D01*
X22077800Y8956099D01*
X22077799Y8956100D01*
X21678901Y8956100D01*
X21678900Y8956099D01*
X21501100Y8956099D01*
X21501099Y8956100D01*
X21116978Y8956100D01*
X21102200Y8961479D01*
X21102200Y8867757D01*
X20885299Y8867757D01*
X20885299Y8946828D01*
X20886942Y8946828D01*
X20888012Y8951002D01*
X20885777Y8961084D01*
X20895272Y8979324D01*
X20900378Y8999243D01*
X20909491Y9006640D01*
X20913541Y9014418D01*
X20939285Y9030819D01*
X20980663Y9047959D01*
X21034214Y9050297D01*
X21040854Y9087950D01*
X21054823Y9106155D01*
X21056823Y9108155D01*
X21111317Y9133566D01*
X21118978Y9133900D01*
X22077799Y9133900D01*
X22077800Y9133901D01*
X22077800Y9222244D01*
X22071706Y9268526D01*
X22024343Y9370094D01*
X22024342Y9370096D01*
X21945093Y9449345D01*
X21940321Y9452686D01*
X21905832Y9501938D01*
X21911070Y9561837D01*
X21940324Y9596698D01*
X21945383Y9600241D01*
X21945386Y9600242D01*
X22024758Y9679614D01*
X22072197Y9781347D01*
X22078300Y9827704D01*
X22078300Y10182296D01*
X22078286Y10182400D01*
X22074896Y10208149D01*
X22072197Y10228653D01*
X22024758Y10330386D01*
X22024757Y10330387D01*
X22024755Y10330390D01*
X21945387Y10409757D01*
X21945385Y10409759D01*
X21895251Y10433137D01*
X21852735Y10475654D01*
X21844500Y10512801D01*
X21844500Y11960622D01*
X21844499Y11960625D01*
X21805756Y12054161D01*
X21805755Y12054162D01*
X21805755Y12054163D01*
X21734163Y12125755D01*
X21734161Y12125756D01*
X18929045Y14930873D01*
X18903634Y14985367D01*
X18903300Y14993028D01*
X18903300Y15262298D01*
X18899508Y15291100D01*
X18897197Y15308653D01*
X18849758Y15410386D01*
X18770386Y15489758D01*
X18668654Y15537197D01*
X18622298Y15543300D01*
X18622296Y15543300D01*
X18532632Y15543300D01*
X18476131Y15563865D01*
X18470477Y15569045D01*
X18179248Y15860275D01*
X18179247Y15860276D01*
X18092254Y15910501D01*
X18092253Y15910502D01*
X18092250Y15910503D01*
X17995225Y15936500D01*
X17009603Y15936500D01*
X16959108Y15954879D01*
X16958345Y15953737D01*
X16953678Y15956856D01*
X16953102Y15957065D01*
X16952395Y15957713D01*
X16951147Y15958547D01*
X16892169Y15997955D01*
X16840161Y16008300D01*
X16840159Y16008300D01*
X16692000Y16008300D01*
X16635499Y16028865D01*
X16605435Y16080936D01*
X16604100Y16096200D01*
X16604100Y16740083D01*
X16604101Y16740096D01*
X16604101Y16847626D01*
X16578102Y16944654D01*
X16556873Y16981422D01*
X16556871Y16981424D01*
X16527876Y17031647D01*
X16527875Y17031649D01*
X16453778Y17105745D01*
X16453777Y17105745D01*
X14272348Y19287175D01*
X14272347Y19287176D01*
X14185354Y19337401D01*
X14185353Y19337402D01*
X14185350Y19337403D01*
X14088325Y19363400D01*
X10740033Y19363400D01*
X10683532Y19383965D01*
X10677878Y19389145D01*
X10346748Y19720275D01*
X10346747Y19720276D01*
X10259754Y19770501D01*
X10259753Y19770502D01*
X10259750Y19770503D01*
X10162725Y19796500D01*
X10076199Y19796500D01*
X10019698Y19817065D01*
X9989634Y19869136D01*
X9988299Y19884400D01*
X9988299Y19932564D01*
X9988298Y19932566D01*
X9977956Y19984566D01*
X9977956Y19984567D01*
X9977955Y19984569D01*
X9938547Y20043547D01*
X9879569Y20082955D01*
X9827561Y20093300D01*
X9827559Y20093300D01*
X5192436Y20093300D01*
X5192434Y20093299D01*
X5140434Y20082957D01*
X5140433Y20082957D01*
X5081454Y20043548D01*
X5081452Y20043546D01*
X5042045Y19984569D01*
X5031700Y19932560D01*
X254500Y19932560D01*
X254500Y22632560D01*
X431700Y22632560D01*
X431700Y20997437D01*
X431701Y20997435D01*
X442043Y20945435D01*
X442043Y20945434D01*
X442044Y20945432D01*
X442045Y20945431D01*
X481453Y20886453D01*
X540431Y20847045D01*
X592439Y20836700D01*
X4027560Y20836701D01*
X4027563Y20836701D01*
X4027565Y20836702D01*
X4079565Y20847044D01*
X4079566Y20847044D01*
X4079566Y20847045D01*
X4079569Y20847045D01*
X4138547Y20886453D01*
X4177955Y20945431D01*
X4188300Y20997439D01*
X4188299Y22632560D01*
X4188299Y22632561D01*
X4188299Y22632564D01*
X4188298Y22632566D01*
X4177956Y22684566D01*
X4177956Y22684567D01*
X4177955Y22684569D01*
X4138547Y22743547D01*
X4079569Y22782955D01*
X4027561Y22793300D01*
X4027559Y22793300D01*
X592436Y22793300D01*
X592434Y22793299D01*
X540434Y22782957D01*
X540433Y22782957D01*
X481454Y22743548D01*
X481452Y22743546D01*
X442045Y22684569D01*
X431700Y22632560D01*
X254500Y22632560D01*
X254500Y22920336D01*
X7796700Y22920336D01*
X7796700Y22799664D01*
X7801177Y22782957D01*
X7827930Y22683107D01*
X7827931Y22683104D01*
X7827932Y22683103D01*
X7888268Y22578597D01*
X7973597Y22493268D01*
X8078103Y22432932D01*
X8078105Y22432932D01*
X8078106Y22432931D01*
X8194664Y22401700D01*
X8315335Y22401700D01*
X8315336Y22401700D01*
X8431897Y22432932D01*
X8476243Y22458535D01*
X8491467Y22467324D01*
X8535416Y22479100D01*
X14397573Y22479100D01*
X14454074Y22458535D01*
X14482478Y22413949D01*
X14495430Y22365608D01*
X14495431Y22365607D01*
X14495432Y22365603D01*
X14555768Y22261097D01*
X14641097Y22175768D01*
X14745603Y22115432D01*
X14745605Y22115432D01*
X14745606Y22115431D01*
X14862164Y22084200D01*
X14982835Y22084200D01*
X14982836Y22084200D01*
X15099397Y22115432D01*
X15203903Y22175768D01*
X15289232Y22261097D01*
X15349568Y22365603D01*
X15380800Y22482164D01*
X15380800Y22602836D01*
X15349568Y22719397D01*
X15289232Y22823903D01*
X15203903Y22909232D01*
X15099397Y22969568D01*
X15099396Y22969569D01*
X15099393Y22969570D01*
X14982836Y23000800D01*
X14862164Y23000800D01*
X14862162Y23000800D01*
X14820611Y22989667D01*
X14790680Y22988687D01*
X14790680Y22988100D01*
X8760989Y22988100D01*
X8704488Y23008665D01*
X8684865Y23032051D01*
X8682068Y23036895D01*
X8682068Y23036897D01*
X8621732Y23141403D01*
X8536403Y23226732D01*
X8431897Y23287068D01*
X8431896Y23287069D01*
X8431893Y23287070D01*
X8315336Y23318300D01*
X8194664Y23318300D01*
X8078106Y23287070D01*
X7973595Y23226731D01*
X7888269Y23141405D01*
X7827930Y23036894D01*
X7809892Y22969570D01*
X7796700Y22920336D01*
X254500Y22920336D01*
X254500Y25060060D01*
X3636600Y25060060D01*
X3636600Y24474937D01*
X3636601Y24474935D01*
X3646943Y24422935D01*
X3646943Y24422934D01*
X3646944Y24422932D01*
X3646945Y24422931D01*
X3686353Y24363953D01*
X3745331Y24324545D01*
X3797339Y24314200D01*
X4072500Y24314201D01*
X4129001Y24293637D01*
X4159065Y24241565D01*
X4160400Y24226301D01*
X4160400Y23791976D01*
X4199143Y23698440D01*
X4199144Y23698439D01*
X4199145Y23698437D01*
X4618337Y23279245D01*
X4618338Y23279245D01*
X4618339Y23279244D01*
X4711877Y23240499D01*
X4717613Y23239358D01*
X4769017Y23208167D01*
X4780130Y23190296D01*
X4802930Y23141403D01*
X4809401Y23127526D01*
X4887526Y23049401D01*
X4987661Y23002707D01*
X5033289Y22996700D01*
X5376710Y22996701D01*
X5376713Y22996701D01*
X5376714Y22996702D01*
X5399524Y22999704D01*
X5422334Y23002706D01*
X5422335Y23002707D01*
X5422339Y23002707D01*
X5522474Y23049401D01*
X5600599Y23127526D01*
X5635336Y23202019D01*
X5677852Y23244535D01*
X5737751Y23249775D01*
X5787004Y23215287D01*
X5794664Y23202019D01*
X5822930Y23141403D01*
X5829401Y23127526D01*
X5907526Y23049401D01*
X6007661Y23002707D01*
X6053289Y22996700D01*
X6396710Y22996701D01*
X6396713Y22996701D01*
X6396714Y22996702D01*
X6419524Y22999704D01*
X6442334Y23002706D01*
X6442336Y23002707D01*
X6442339Y23002707D01*
X6443441Y23003221D01*
X6448889Y23005761D01*
X6473547Y23017260D01*
X6542474Y23049401D01*
X6620599Y23127526D01*
X6649870Y23190299D01*
X6692385Y23232812D01*
X6712386Y23239359D01*
X6718118Y23240500D01*
X6718123Y23240500D01*
X6811663Y23279245D01*
X6860871Y23328455D01*
X6915364Y23353865D01*
X6923026Y23354200D01*
X7045335Y23354200D01*
X7045336Y23354200D01*
X7161897Y23385432D01*
X7266403Y23445768D01*
X7351732Y23531097D01*
X7412068Y23635603D01*
X7443300Y23752164D01*
X7443300Y23872836D01*
X7415452Y23976767D01*
X7412069Y23989394D01*
X7412068Y23989395D01*
X7412068Y23989397D01*
X7351732Y24093903D01*
X7281489Y24164146D01*
X7256078Y24218640D01*
X7271641Y24276718D01*
X7320894Y24311206D01*
X7343642Y24314201D01*
X7632660Y24314201D01*
X7632664Y24314201D01*
X7632665Y24314202D01*
X7684665Y24324544D01*
X7684666Y24324544D01*
X7684666Y24324545D01*
X7684669Y24324545D01*
X7743647Y24363953D01*
X7783055Y24422931D01*
X7793400Y24474939D01*
X7793399Y25060060D01*
X7793399Y25060061D01*
X7793399Y25060064D01*
X7793398Y25060066D01*
X7783056Y25112066D01*
X7783056Y25112067D01*
X7781178Y25114878D01*
X7743647Y25171047D01*
X7684669Y25210455D01*
X7632661Y25220800D01*
X7632659Y25220800D01*
X6397536Y25220800D01*
X6397534Y25220799D01*
X6345534Y25210457D01*
X6345533Y25210457D01*
X6286554Y25171048D01*
X6286552Y25171046D01*
X6247145Y25112069D01*
X6236800Y25060060D01*
X6236800Y24474937D01*
X6236801Y24474935D01*
X6247143Y24422935D01*
X6247143Y24422934D01*
X6247144Y24422932D01*
X6247145Y24422931D01*
X6286553Y24363953D01*
X6345531Y24324545D01*
X6397539Y24314200D01*
X6626357Y24314201D01*
X6682856Y24293637D01*
X6712920Y24241565D01*
X6702479Y24182351D01*
X6688510Y24164147D01*
X6618270Y24093907D01*
X6572729Y24015026D01*
X6526669Y23976377D01*
X6466541Y23976377D01*
X6459458Y23979311D01*
X6442340Y23987293D01*
X6396712Y23993300D01*
X6053286Y23993300D01*
X6053284Y23993299D01*
X6007665Y23987295D01*
X6007659Y23987293D01*
X5907527Y23940600D01*
X5829400Y23862473D01*
X5794664Y23787982D01*
X5752147Y23745466D01*
X5692249Y23740226D01*
X5642996Y23774714D01*
X5635336Y23787982D01*
X5615794Y23829887D01*
X5600599Y23862474D01*
X5522474Y23940599D01*
X5506564Y23948018D01*
X5422340Y23987293D01*
X5376712Y23993300D01*
X5033286Y23993300D01*
X5033284Y23993299D01*
X4987665Y23987295D01*
X4987659Y23987293D01*
X4887527Y23940600D01*
X4887526Y23940600D01*
X4887526Y23940599D01*
X4844326Y23897400D01*
X4823627Y23887747D01*
X4804923Y23874650D01*
X4797022Y23875342D01*
X4789834Y23871989D01*
X4767773Y23877901D01*
X4745025Y23879891D01*
X4735526Y23886542D01*
X4731756Y23887552D01*
X4720018Y23897400D01*
X4695145Y23922273D01*
X4669734Y23976767D01*
X4669400Y23984428D01*
X4669400Y24226301D01*
X4689965Y24282802D01*
X4742036Y24312866D01*
X4757300Y24314201D01*
X5032464Y24314201D01*
X5032465Y24314202D01*
X5084465Y24324544D01*
X5084466Y24324544D01*
X5084466Y24324545D01*
X5084469Y24324545D01*
X5143447Y24363953D01*
X5182855Y24422931D01*
X5193200Y24474939D01*
X5193199Y25060060D01*
X5193199Y25060061D01*
X5193199Y25060064D01*
X5193198Y25060066D01*
X5182856Y25112066D01*
X5182856Y25112067D01*
X5180978Y25114878D01*
X5143447Y25171047D01*
X5143443Y25171050D01*
X5137325Y25177168D01*
X5138853Y25178697D01*
X5109884Y25218210D01*
X5113820Y25278208D01*
X5138063Y25307094D01*
X5136964Y25308193D01*
X5143088Y25314318D01*
X5182383Y25373125D01*
X5192700Y25424988D01*
X5192700Y25628599D01*
X5192699Y25628600D01*
X3637102Y25628600D01*
X3637101Y25628599D01*
X3637101Y25424992D01*
X3647416Y25373125D01*
X3686711Y25314318D01*
X3692836Y25308193D01*
X3691199Y25306557D01*
X3719911Y25267407D01*
X3715984Y25207408D01*
X3691464Y25178179D01*
X3692475Y25177168D01*
X3686352Y25171046D01*
X3646945Y25112069D01*
X3636600Y25060060D01*
X254500Y25060060D01*
X254500Y53886099D01*
X967200Y53886099D01*
X967200Y53767757D01*
X973293Y53721475D01*
X1020656Y53619907D01*
X1020657Y53619905D01*
X1099904Y53540658D01*
X1099906Y53540657D01*
X1201475Y53493294D01*
X1201474Y53493294D01*
X1247756Y53487200D01*
X1336099Y53487200D01*
X1336100Y53487201D01*
X1336100Y53886099D01*
X1336099Y53886100D01*
X967201Y53886100D01*
X967200Y53886099D01*
X254500Y53886099D01*
X254500Y54182244D01*
X967200Y54182244D01*
X967200Y54063901D01*
X967201Y54063900D01*
X1336099Y54063900D01*
X1336100Y54063901D01*
X1336100Y54462799D01*
X1336099Y54462800D01*
X1247756Y54462800D01*
X1201474Y54456707D01*
X1099906Y54409344D01*
X1099904Y54409343D01*
X1020657Y54330096D01*
X1020656Y54330094D01*
X973293Y54228526D01*
X967200Y54182244D01*
X254500Y54182244D01*
X254500Y55473599D01*
X502200Y55473599D01*
X502200Y55280800D01*
X517138Y55186477D01*
X517138Y55186476D01*
X575063Y55072793D01*
X665292Y54982564D01*
X778975Y54924639D01*
X873299Y54909701D01*
X873300Y54909700D01*
X1041099Y54909700D01*
X1041100Y54909701D01*
X1041100Y55473599D01*
X1218900Y55473599D01*
X1218900Y54909701D01*
X1218901Y54909700D01*
X1386700Y54909700D01*
X1386700Y54909701D01*
X1481023Y54924639D01*
X1481024Y54924639D01*
X1594707Y54982564D01*
X1684936Y55072793D01*
X1742861Y55186476D01*
X1742861Y55186477D01*
X1757799Y55280800D01*
X1757800Y55280800D01*
X1757800Y55473599D01*
X1757799Y55473600D01*
X1218901Y55473600D01*
X1218900Y55473599D01*
X1041100Y55473599D01*
X1041099Y55473600D01*
X502201Y55473600D01*
X502200Y55473599D01*
X254500Y55473599D01*
X254500Y55844201D01*
X502200Y55844201D01*
X502200Y55651401D01*
X502201Y55651400D01*
X1041099Y55651400D01*
X1041100Y55651401D01*
X1041100Y56215299D01*
X1218900Y56215299D01*
X1218900Y55651401D01*
X1218901Y55651400D01*
X1757799Y55651400D01*
X1757800Y55651401D01*
X1757800Y55844201D01*
X1742861Y55938524D01*
X1742861Y55938525D01*
X1684936Y56052208D01*
X1594707Y56142437D01*
X1481024Y56200362D01*
X1386701Y56215300D01*
X1218901Y56215300D01*
X1218900Y56215299D01*
X1041100Y56215299D01*
X1041099Y56215300D01*
X873299Y56215300D01*
X778976Y56200362D01*
X778975Y56200362D01*
X665292Y56142437D01*
X575063Y56052208D01*
X517138Y55938525D01*
X517138Y55938524D01*
X502200Y55844201D01*
X254500Y55844201D01*
X254500Y55877339D01*
X254660Y55882646D01*
X258049Y55938678D01*
X270843Y56150190D01*
X272123Y56160722D01*
X319956Y56421740D01*
X322487Y56432013D01*
X401440Y56685379D01*
X405203Y56695300D01*
X514114Y56937292D01*
X519032Y56946662D01*
X656322Y57173768D01*
X662345Y57182493D01*
X826004Y57391388D01*
X833027Y57399316D01*
X1020684Y57586973D01*
X1028612Y57593996D01*
X1237507Y57757655D01*
X1246232Y57763678D01*
X1473338Y57900968D01*
X1482708Y57905886D01*
X1724703Y58014799D01*
X1734621Y58018560D01*
X1987987Y58097513D01*
X1998260Y58100044D01*
X2259283Y58147878D01*
X2269810Y58149157D01*
X2537355Y58165340D01*
X2542662Y58165500D01*
X2584875Y58165500D01*
X3468100Y58165500D01*
X3524601Y58144935D01*
G37*
%TD.AperFunction*%
%TA.AperFunction,Conductor*%
G36*
X3814217Y49175173D02*
G01*
X3848705Y49125919D01*
X3851700Y49103169D01*
X3851700Y48902437D01*
X3851701Y48902435D01*
X3862043Y48850435D01*
X3862043Y48850434D01*
X3862044Y48850432D01*
X3862045Y48850431D01*
X3901453Y48791453D01*
X3934930Y48769084D01*
X3936424Y48768086D01*
X3971978Y48719596D01*
X3968045Y48659598D01*
X3936424Y48621914D01*
X3901454Y48598548D01*
X3901452Y48598546D01*
X3869142Y48550191D01*
X3862045Y48539569D01*
X3851739Y48487754D01*
X3851700Y48487560D01*
X3851700Y48052437D01*
X3851701Y48052435D01*
X3862043Y48000435D01*
X3862043Y48000434D01*
X3862044Y48000432D01*
X3862045Y48000431D01*
X3901453Y47941453D01*
X3934930Y47919084D01*
X3936424Y47918086D01*
X3971978Y47869596D01*
X3968045Y47809598D01*
X3936424Y47771914D01*
X3901454Y47748548D01*
X3901452Y47748546D01*
X3862045Y47689569D01*
X3851700Y47637560D01*
X3851700Y47202437D01*
X3851701Y47202435D01*
X3862043Y47150435D01*
X3862043Y47150434D01*
X3862044Y47150432D01*
X3862045Y47150431D01*
X3901453Y47091453D01*
X3934930Y47069084D01*
X3936424Y47068086D01*
X3971978Y47019596D01*
X3968045Y46959598D01*
X3936424Y46921914D01*
X3901454Y46898548D01*
X3901452Y46898546D01*
X3862045Y46839569D01*
X3851700Y46787560D01*
X3851700Y46352437D01*
X3851701Y46352435D01*
X3862043Y46300435D01*
X3862043Y46300434D01*
X3862044Y46300432D01*
X3862045Y46300431D01*
X3901453Y46241453D01*
X3934930Y46219084D01*
X3936424Y46218086D01*
X3971978Y46169596D01*
X3968045Y46109598D01*
X3936424Y46071914D01*
X3901454Y46048548D01*
X3901452Y46048546D01*
X3862045Y45989569D01*
X3851700Y45937560D01*
X3851700Y45502437D01*
X3851701Y45502435D01*
X3862043Y45450435D01*
X3862043Y45450434D01*
X3862044Y45450432D01*
X3862045Y45450431D01*
X3901453Y45391453D01*
X3934930Y45369084D01*
X3936424Y45368086D01*
X3971978Y45319596D01*
X3968045Y45259598D01*
X3936424Y45221914D01*
X3901454Y45198548D01*
X3901452Y45198546D01*
X3862045Y45139569D01*
X3851700Y45087560D01*
X3851700Y44652437D01*
X3851701Y44652435D01*
X3862043Y44600435D01*
X3862043Y44600434D01*
X3862044Y44600432D01*
X3862045Y44600431D01*
X3901453Y44541453D01*
X3934930Y44519084D01*
X3936424Y44518086D01*
X3971978Y44469596D01*
X3968045Y44409598D01*
X3936424Y44371914D01*
X3901454Y44348548D01*
X3901452Y44348546D01*
X3862045Y44289569D01*
X3851700Y44237560D01*
X3851700Y43802437D01*
X3851701Y43802435D01*
X3862043Y43750435D01*
X3862043Y43750434D01*
X3862044Y43750432D01*
X3862045Y43750431D01*
X3901453Y43691453D01*
X3934930Y43669084D01*
X3936424Y43668086D01*
X3971978Y43619596D01*
X3968045Y43559598D01*
X3936424Y43521914D01*
X3901454Y43498548D01*
X3901452Y43498546D01*
X3862045Y43439569D01*
X3851700Y43387560D01*
X3851700Y42952437D01*
X3851701Y42952435D01*
X3862043Y42900435D01*
X3862043Y42900434D01*
X3862044Y42900432D01*
X3862045Y42900431D01*
X3901453Y42841453D01*
X3934930Y42819084D01*
X3936424Y42818086D01*
X3971978Y42769596D01*
X3968045Y42709598D01*
X3936424Y42671914D01*
X3901454Y42648548D01*
X3901452Y42648546D01*
X3862045Y42589569D01*
X3851700Y42537560D01*
X3851700Y42102437D01*
X3851701Y42102435D01*
X3862043Y42050435D01*
X3862043Y42050434D01*
X3862044Y42050432D01*
X3862045Y42050431D01*
X3901453Y41991453D01*
X3934930Y41969084D01*
X3936424Y41968086D01*
X3971978Y41919596D01*
X3968045Y41859598D01*
X3936424Y41821914D01*
X3901454Y41798548D01*
X3901452Y41798546D01*
X3862045Y41739569D01*
X3851700Y41687560D01*
X3851700Y41252437D01*
X3851701Y41252435D01*
X3862043Y41200435D01*
X3862043Y41200434D01*
X3862044Y41200432D01*
X3862045Y41200431D01*
X3901453Y41141453D01*
X3934930Y41119084D01*
X3936424Y41118086D01*
X3971978Y41069596D01*
X3968045Y41009598D01*
X3936424Y40971914D01*
X3901454Y40948548D01*
X3901452Y40948546D01*
X3862045Y40889569D01*
X3851700Y40837560D01*
X3851700Y40402437D01*
X3851701Y40402435D01*
X3862043Y40350435D01*
X3862043Y40350434D01*
X3862044Y40350432D01*
X3862045Y40350431D01*
X3901453Y40291453D01*
X3934930Y40269084D01*
X3936424Y40268086D01*
X3971978Y40219596D01*
X3968045Y40159598D01*
X3936424Y40121914D01*
X3901454Y40098548D01*
X3901452Y40098546D01*
X3878079Y40063565D01*
X3862045Y40039569D01*
X3852686Y39992515D01*
X3851700Y39987560D01*
X3851700Y39552437D01*
X3851701Y39552435D01*
X3862043Y39500435D01*
X3862043Y39500434D01*
X3862044Y39500432D01*
X3862045Y39500431D01*
X3901453Y39441453D01*
X3901456Y39441451D01*
X3936873Y39417786D01*
X3972427Y39369297D01*
X3968495Y39309299D01*
X3936876Y39271616D01*
X3901818Y39248190D01*
X3901811Y39248183D01*
X3862516Y39189376D01*
X3852200Y39137513D01*
X3852200Y38808901D01*
X3852201Y38808900D01*
X4342100Y38808900D01*
X4363557Y38801091D01*
X4386050Y38797124D01*
X4391148Y38791048D01*
X4398601Y38788335D01*
X4410019Y38768559D01*
X4424699Y38751064D01*
X4426712Y38739647D01*
X4428665Y38736264D01*
X4430000Y38721000D01*
X4430000Y38720000D01*
X4431000Y38720000D01*
X4487501Y38699435D01*
X4517565Y38647364D01*
X4518900Y38632100D01*
X4518900Y38142202D01*
X4518901Y38142201D01*
X4847509Y38142201D01*
X4899375Y38152517D01*
X4958182Y38191812D01*
X4958186Y38191816D01*
X4981613Y38226875D01*
X5030103Y38262429D01*
X5090101Y38258496D01*
X5127784Y38226876D01*
X5151453Y38191453D01*
X5210431Y38152045D01*
X5262439Y38141700D01*
X5697560Y38141701D01*
X5697563Y38141701D01*
X5697565Y38141702D01*
X5749565Y38152044D01*
X5749566Y38152044D01*
X5749566Y38152045D01*
X5749569Y38152045D01*
X5808547Y38191453D01*
X5831915Y38226426D01*
X5880403Y38261978D01*
X5940401Y38258046D01*
X5978084Y38226427D01*
X6001453Y38191453D01*
X6060431Y38152045D01*
X6112439Y38141700D01*
X6547560Y38141701D01*
X6547563Y38141701D01*
X6547565Y38141702D01*
X6599565Y38152044D01*
X6599566Y38152044D01*
X6599566Y38152045D01*
X6599569Y38152045D01*
X6658547Y38191453D01*
X6681915Y38226426D01*
X6730403Y38261978D01*
X6790401Y38258046D01*
X6828084Y38226427D01*
X6851453Y38191453D01*
X6910431Y38152045D01*
X6962439Y38141700D01*
X7397560Y38141701D01*
X7397563Y38141701D01*
X7397565Y38141702D01*
X7449565Y38152044D01*
X7449566Y38152044D01*
X7449566Y38152045D01*
X7449569Y38152045D01*
X7508547Y38191453D01*
X7531915Y38226426D01*
X7580403Y38261978D01*
X7640401Y38258046D01*
X7678084Y38226427D01*
X7701453Y38191453D01*
X7760431Y38152045D01*
X7812439Y38141700D01*
X8247560Y38141701D01*
X8247563Y38141701D01*
X8247565Y38141702D01*
X8299565Y38152044D01*
X8299566Y38152044D01*
X8299566Y38152045D01*
X8299569Y38152045D01*
X8358547Y38191453D01*
X8381915Y38226426D01*
X8430403Y38261978D01*
X8490401Y38258046D01*
X8528084Y38226427D01*
X8551453Y38191453D01*
X8610431Y38152045D01*
X8662439Y38141700D01*
X9097560Y38141701D01*
X9097563Y38141701D01*
X9097565Y38141702D01*
X9149565Y38152044D01*
X9149566Y38152044D01*
X9149566Y38152045D01*
X9149569Y38152045D01*
X9208547Y38191453D01*
X9231915Y38226426D01*
X9280403Y38261978D01*
X9340401Y38258046D01*
X9378084Y38226427D01*
X9401453Y38191453D01*
X9460431Y38152045D01*
X9512439Y38141700D01*
X9947560Y38141701D01*
X9947563Y38141701D01*
X9947565Y38141702D01*
X9999565Y38152044D01*
X9999566Y38152044D01*
X9999566Y38152045D01*
X9999569Y38152045D01*
X10058547Y38191453D01*
X10081915Y38226426D01*
X10130403Y38261978D01*
X10190401Y38258046D01*
X10228084Y38226427D01*
X10251453Y38191453D01*
X10310431Y38152045D01*
X10362439Y38141700D01*
X10797560Y38141701D01*
X10797563Y38141701D01*
X10797565Y38141702D01*
X10849565Y38152044D01*
X10849566Y38152044D01*
X10849566Y38152045D01*
X10849569Y38152045D01*
X10908547Y38191453D01*
X10931915Y38226426D01*
X10980403Y38261978D01*
X11040401Y38258046D01*
X11078084Y38226427D01*
X11101453Y38191453D01*
X11160431Y38152045D01*
X11212439Y38141700D01*
X11647560Y38141701D01*
X11647563Y38141701D01*
X11647565Y38141702D01*
X11699565Y38152044D01*
X11699566Y38152044D01*
X11699566Y38152045D01*
X11699569Y38152045D01*
X11758547Y38191453D01*
X11781915Y38226426D01*
X11830403Y38261978D01*
X11890401Y38258046D01*
X11928084Y38226427D01*
X11951453Y38191453D01*
X12010431Y38152045D01*
X12062439Y38141700D01*
X12497560Y38141701D01*
X12497563Y38141701D01*
X12497565Y38141702D01*
X12549565Y38152044D01*
X12549566Y38152044D01*
X12549566Y38152045D01*
X12549569Y38152045D01*
X12608547Y38191453D01*
X12631915Y38226426D01*
X12680403Y38261978D01*
X12740401Y38258046D01*
X12778084Y38226427D01*
X12801453Y38191453D01*
X12860431Y38152045D01*
X12912439Y38141700D01*
X13347560Y38141701D01*
X13347563Y38141701D01*
X13347565Y38141702D01*
X13399565Y38152044D01*
X13399566Y38152044D01*
X13399566Y38152045D01*
X13399569Y38152045D01*
X13458547Y38191453D01*
X13481915Y38226426D01*
X13530403Y38261978D01*
X13590401Y38258046D01*
X13628084Y38226427D01*
X13651453Y38191453D01*
X13710431Y38152045D01*
X13762439Y38141700D01*
X14197560Y38141701D01*
X14197563Y38141701D01*
X14197565Y38141702D01*
X14249565Y38152044D01*
X14249566Y38152044D01*
X14249566Y38152045D01*
X14249569Y38152045D01*
X14308547Y38191453D01*
X14331915Y38226426D01*
X14380403Y38261978D01*
X14440401Y38258046D01*
X14478084Y38226427D01*
X14501453Y38191453D01*
X14560431Y38152045D01*
X14612439Y38141700D01*
X15047560Y38141701D01*
X15047563Y38141701D01*
X15047565Y38141702D01*
X15099565Y38152044D01*
X15099566Y38152044D01*
X15099566Y38152045D01*
X15099569Y38152045D01*
X15158547Y38191453D01*
X15181915Y38226426D01*
X15230403Y38261978D01*
X15290401Y38258046D01*
X15328084Y38226427D01*
X15351453Y38191453D01*
X15410431Y38152045D01*
X15462439Y38141700D01*
X15897560Y38141701D01*
X15897563Y38141701D01*
X15897565Y38141702D01*
X15949565Y38152044D01*
X15949566Y38152044D01*
X15949566Y38152045D01*
X15949569Y38152045D01*
X16008547Y38191453D01*
X16031915Y38226426D01*
X16080403Y38261978D01*
X16140401Y38258046D01*
X16178084Y38226427D01*
X16201453Y38191453D01*
X16260431Y38152045D01*
X16312439Y38141700D01*
X16747560Y38141701D01*
X16747563Y38141701D01*
X16747565Y38141702D01*
X16799565Y38152044D01*
X16799566Y38152044D01*
X16799566Y38152045D01*
X16799569Y38152045D01*
X16858547Y38191453D01*
X16881915Y38226426D01*
X16930403Y38261978D01*
X16990401Y38258046D01*
X17028084Y38226427D01*
X17051453Y38191453D01*
X17110431Y38152045D01*
X17162439Y38141700D01*
X17597560Y38141701D01*
X17597563Y38141701D01*
X17597565Y38141702D01*
X17649565Y38152044D01*
X17649566Y38152044D01*
X17649566Y38152045D01*
X17649569Y38152045D01*
X17708547Y38191453D01*
X17732216Y38226877D01*
X17780702Y38262428D01*
X17840700Y38258496D01*
X17878385Y38226876D01*
X17901811Y38191818D01*
X17901817Y38191812D01*
X17960624Y38152517D01*
X18012486Y38142201D01*
X18341100Y38142201D01*
X18341100Y38142202D01*
X18518900Y38142202D01*
X18518901Y38142201D01*
X18847509Y38142201D01*
X18899375Y38152517D01*
X18958182Y38191812D01*
X18958188Y38191818D01*
X18997483Y38250625D01*
X19007800Y38302488D01*
X19007800Y38631099D01*
X19007799Y38631100D01*
X18518900Y38631100D01*
X18518900Y38142202D01*
X18341100Y38142202D01*
X18341100Y38632100D01*
X18348909Y38653558D01*
X18352876Y38676050D01*
X18358952Y38681149D01*
X18361665Y38688601D01*
X18381441Y38700020D01*
X18398936Y38714699D01*
X18410353Y38716713D01*
X18413736Y38718665D01*
X18429000Y38720000D01*
X18430000Y38720000D01*
X18430000Y38721000D01*
X18450565Y38777501D01*
X18502636Y38807565D01*
X18517900Y38808900D01*
X19007798Y38808900D01*
X19007799Y38808901D01*
X19007799Y39137509D01*
X18997483Y39189376D01*
X18958188Y39248183D01*
X18958182Y39248189D01*
X18923124Y39271615D01*
X18920687Y39274939D01*
X18916788Y39276272D01*
X18903162Y39298841D01*
X18887571Y39320105D01*
X18887840Y39324218D01*
X18885711Y39327745D01*
X18889779Y39353793D01*
X18891505Y39380103D01*
X18894533Y39384224D01*
X18894991Y39387152D01*
X18903475Y39396391D01*
X18914152Y39410917D01*
X18918409Y39414634D01*
X18958547Y39441453D01*
X18971731Y39461185D01*
X18980521Y39468858D01*
X18998331Y39475738D01*
X19013730Y39487029D01*
X19025555Y39486255D01*
X19036609Y39490524D01*
X19054674Y39484347D01*
X19073728Y39483098D01*
X19083227Y39474583D01*
X19093501Y39471069D01*
X19100997Y39458654D01*
X19114452Y39446592D01*
X19131083Y39417787D01*
X19146143Y39391701D01*
X19146624Y39390869D01*
X19236569Y39300924D01*
X19346730Y39237322D01*
X19469599Y39204400D01*
X19596800Y39204400D01*
X19596801Y39204400D01*
X19719670Y39237322D01*
X19829831Y39300924D01*
X19917046Y39388140D01*
X19971539Y39413550D01*
X20029617Y39397987D01*
X20064105Y39348734D01*
X20067100Y39325984D01*
X20067100Y28275929D01*
X20046535Y28219428D01*
X20041355Y28213774D01*
X18529125Y26701545D01*
X18474631Y26676134D01*
X18466970Y26675800D01*
X18193286Y26675800D01*
X18193284Y26675799D01*
X18147665Y26669795D01*
X18147659Y26669793D01*
X18047527Y26623100D01*
X17969400Y26544973D01*
X17949712Y26502751D01*
X17907196Y26460235D01*
X17870048Y26452000D01*
X17668811Y26452000D01*
X17612310Y26472565D01*
X17589147Y26502751D01*
X17579758Y26522886D01*
X17557670Y26544974D01*
X17500389Y26602256D01*
X17500386Y26602258D01*
X17398654Y26649697D01*
X17352298Y26655800D01*
X17352296Y26655800D01*
X17083028Y26655800D01*
X17026527Y26676365D01*
X17020874Y26681545D01*
X16969164Y26733254D01*
X16969160Y26733257D01*
X16875624Y26772000D01*
X16875623Y26772000D01*
X16101199Y26772000D01*
X16044698Y26792565D01*
X16014634Y26844636D01*
X16013299Y26859900D01*
X16013299Y27035064D01*
X16013298Y27035066D01*
X16002956Y27087066D01*
X16002956Y27087067D01*
X16002955Y27087069D01*
X15963547Y27146047D01*
X15904569Y27185455D01*
X15852561Y27195800D01*
X15852559Y27195800D01*
X14917436Y27195800D01*
X14917434Y27195799D01*
X14865434Y27185457D01*
X14865433Y27185457D01*
X14810516Y27148762D01*
X14806453Y27146047D01*
X14767045Y27087069D01*
X14759865Y27050970D01*
X14756700Y27035060D01*
X14756700Y26859900D01*
X14736135Y26803399D01*
X14684064Y26773335D01*
X14668800Y26772000D01*
X12001199Y26772000D01*
X11944698Y26792565D01*
X11914634Y26844636D01*
X11913299Y26859900D01*
X11913299Y27035064D01*
X11913298Y27035066D01*
X11902956Y27087066D01*
X11902956Y27087067D01*
X11902955Y27087069D01*
X11863547Y27146047D01*
X11804569Y27185455D01*
X11752561Y27195800D01*
X11752559Y27195800D01*
X10817436Y27195800D01*
X10817434Y27195799D01*
X10765434Y27185457D01*
X10765433Y27185457D01*
X10710516Y27148762D01*
X10706453Y27146047D01*
X10667045Y27087069D01*
X10659865Y27050970D01*
X10656700Y27035060D01*
X10656700Y25999937D01*
X10656701Y25999935D01*
X10667043Y25947935D01*
X10667043Y25947934D01*
X10667044Y25947932D01*
X10667045Y25947931D01*
X10706453Y25888953D01*
X10765431Y25849545D01*
X10817439Y25839200D01*
X11752560Y25839201D01*
X11752563Y25839201D01*
X11752565Y25839202D01*
X11804565Y25849544D01*
X11804566Y25849544D01*
X11804566Y25849545D01*
X11804569Y25849545D01*
X11863547Y25888953D01*
X11902955Y25947931D01*
X11913300Y25999939D01*
X11913300Y26175100D01*
X11933865Y26231601D01*
X11985936Y26261665D01*
X12001200Y26263000D01*
X14668801Y26263000D01*
X14725302Y26242435D01*
X14755366Y26190364D01*
X14756701Y26175100D01*
X14756701Y25999935D01*
X14767043Y25947935D01*
X14767043Y25947934D01*
X14767044Y25947932D01*
X14767045Y25947931D01*
X14806453Y25888953D01*
X14865431Y25849545D01*
X14917439Y25839200D01*
X15852560Y25839201D01*
X15852563Y25839201D01*
X15852565Y25839202D01*
X15904565Y25849544D01*
X15904566Y25849544D01*
X15904566Y25849545D01*
X15904569Y25849545D01*
X15963547Y25888953D01*
X16002955Y25947931D01*
X16013300Y25999939D01*
X16013300Y26175100D01*
X16033865Y26231601D01*
X16085936Y26261665D01*
X16101200Y26263000D01*
X16568800Y26263000D01*
X16625301Y26242435D01*
X16655365Y26190364D01*
X16656700Y26175100D01*
X16656700Y26020203D01*
X16662803Y25973846D01*
X16710242Y25872114D01*
X16789615Y25792741D01*
X16794678Y25789196D01*
X16829167Y25739944D01*
X16823929Y25680045D01*
X16794681Y25645188D01*
X16789907Y25641846D01*
X16710657Y25562596D01*
X16710656Y25562594D01*
X16663293Y25461026D01*
X16657200Y25414744D01*
X16657200Y25326401D01*
X16657201Y25326400D01*
X17632799Y25326400D01*
X17632800Y25326401D01*
X17632800Y25414744D01*
X17626706Y25461026D01*
X17579343Y25562594D01*
X17579342Y25562596D01*
X17500093Y25641845D01*
X17495321Y25645186D01*
X17460832Y25694438D01*
X17466070Y25754337D01*
X17495324Y25789198D01*
X17500383Y25792741D01*
X17500386Y25792742D01*
X17579758Y25872114D01*
X17589147Y25892250D01*
X17631663Y25934765D01*
X17668811Y25943000D01*
X17900554Y25943000D01*
X17957055Y25922435D01*
X17963690Y25915193D01*
X17963962Y25915464D01*
X18047524Y25831903D01*
X18047526Y25831901D01*
X18122018Y25797164D01*
X18164534Y25754647D01*
X18169774Y25694749D01*
X18135286Y25645496D01*
X18122018Y25637836D01*
X18047527Y25603100D01*
X17969400Y25524973D01*
X17922707Y25424841D01*
X17916700Y25379213D01*
X17916700Y25285133D01*
X17910136Y25267101D01*
X17908464Y25247985D01*
X17897457Y25232265D01*
X17896135Y25228632D01*
X17890955Y25222978D01*
X17782855Y25114878D01*
X17728361Y25089467D01*
X17670283Y25105030D01*
X17656067Y25125332D01*
X17632799Y25148600D01*
X17233901Y25148600D01*
X17233900Y25148599D01*
X17233900Y24779701D01*
X17233901Y24779700D01*
X17235467Y24779700D01*
X17291968Y24759135D01*
X17322032Y24707064D01*
X17311591Y24647850D01*
X17297622Y24629645D01*
X17136122Y24468145D01*
X17118730Y24460035D01*
X17104031Y24447701D01*
X17085134Y24444370D01*
X17081628Y24442734D01*
X17073967Y24442400D01*
X17036267Y24442400D01*
X16979766Y24462965D01*
X16951362Y24507550D01*
X16937069Y24560894D01*
X16937068Y24560895D01*
X16937068Y24560897D01*
X16886864Y24647853D01*
X16876424Y24707064D01*
X16906488Y24759135D01*
X16962989Y24779700D01*
X17056099Y24779700D01*
X17056100Y24779701D01*
X17056100Y25148599D01*
X17056099Y25148600D01*
X16657201Y25148600D01*
X16657200Y25148599D01*
X16657200Y25060257D01*
X16663293Y25013975D01*
X16688386Y24960164D01*
X16693627Y24900266D01*
X16659139Y24851013D01*
X16601061Y24835450D01*
X16585975Y24838110D01*
X16570336Y24842300D01*
X16449664Y24842300D01*
X16333106Y24811070D01*
X16228595Y24750731D01*
X16162855Y24684990D01*
X16108361Y24659579D01*
X16050283Y24675142D01*
X16015795Y24724395D01*
X16012800Y24747145D01*
X16012800Y24828599D01*
X16012799Y24828600D01*
X14757202Y24828600D01*
X14757201Y24828599D01*
X14757201Y24530300D01*
X14736636Y24473799D01*
X14684565Y24443735D01*
X14669301Y24442400D01*
X12000700Y24442400D01*
X11944199Y24462965D01*
X11914135Y24515036D01*
X11912800Y24530300D01*
X11912800Y24828599D01*
X11912799Y24828600D01*
X10657202Y24828600D01*
X10657201Y24828599D01*
X10657201Y24633832D01*
X10636636Y24577331D01*
X10584565Y24547267D01*
X10525351Y24557708D01*
X10507146Y24571677D01*
X9643810Y25435013D01*
X10657200Y25435013D01*
X10657200Y25006401D01*
X10657201Y25006400D01*
X11196099Y25006400D01*
X11196100Y25006401D01*
X11196100Y25595299D01*
X11373900Y25595299D01*
X11373900Y25006401D01*
X11373901Y25006400D01*
X11912798Y25006400D01*
X11912799Y25006401D01*
X11912799Y25435009D01*
X11912798Y25435013D01*
X14757200Y25435013D01*
X14757200Y25006401D01*
X14757201Y25006400D01*
X15296099Y25006400D01*
X15296100Y25006401D01*
X15296100Y25595299D01*
X15473900Y25595299D01*
X15473900Y25006401D01*
X15473901Y25006400D01*
X16012798Y25006400D01*
X16012799Y25006401D01*
X16012799Y25435009D01*
X16002483Y25486876D01*
X15963188Y25545683D01*
X15963182Y25545689D01*
X15904375Y25584984D01*
X15852513Y25595300D01*
X15473901Y25595300D01*
X15473900Y25595299D01*
X15296100Y25595299D01*
X15296099Y25595300D01*
X14917486Y25595300D01*
X14917484Y25595299D01*
X14865628Y25584986D01*
X14865624Y25584984D01*
X14806817Y25545689D01*
X14806811Y25545683D01*
X14767516Y25486876D01*
X14757200Y25435013D01*
X11912798Y25435013D01*
X11902483Y25486876D01*
X11863188Y25545683D01*
X11863182Y25545689D01*
X11804375Y25584984D01*
X11752513Y25595300D01*
X11373901Y25595300D01*
X11373900Y25595299D01*
X11196100Y25595299D01*
X11196099Y25595300D01*
X10817486Y25595300D01*
X10817484Y25595299D01*
X10765628Y25584986D01*
X10765624Y25584984D01*
X10706817Y25545689D01*
X10706811Y25545683D01*
X10667516Y25486876D01*
X10657200Y25435013D01*
X9643810Y25435013D01*
X9452245Y25626578D01*
X9426834Y25681072D01*
X9426500Y25688733D01*
X9426500Y26254946D01*
X9431071Y26268489D01*
X9430478Y26281091D01*
X9441455Y26299253D01*
X9444482Y26308217D01*
X9448069Y26312926D01*
X9449758Y26314614D01*
X9450392Y26315975D01*
X9455391Y26322535D01*
X9479284Y26337872D01*
X9502552Y26354167D01*
X9504416Y26354005D01*
X9505991Y26355015D01*
X9534172Y26351403D01*
X9562451Y26348931D01*
X9564072Y26347571D01*
X9565630Y26347371D01*
X9570153Y26342469D01*
X9597314Y26319679D01*
X9600655Y26314907D01*
X9679904Y26235658D01*
X9679906Y26235657D01*
X9781475Y26188294D01*
X9781474Y26188294D01*
X9827756Y26182200D01*
X9916099Y26182200D01*
X9916100Y26182201D01*
X9916100Y26581099D01*
X10093900Y26581099D01*
X10093900Y26182201D01*
X10093901Y26182200D01*
X10182244Y26182200D01*
X10228525Y26188294D01*
X10330093Y26235657D01*
X10330095Y26235658D01*
X10409342Y26314905D01*
X10409343Y26314907D01*
X10456706Y26416475D01*
X10462800Y26462757D01*
X10462800Y26581099D01*
X10462799Y26581100D01*
X10093901Y26581100D01*
X10093900Y26581099D01*
X9916100Y26581099D01*
X9916100Y27157799D01*
X10093900Y27157799D01*
X10093900Y26758901D01*
X10093901Y26758900D01*
X10462799Y26758900D01*
X10462800Y26758901D01*
X10462800Y26877244D01*
X10456706Y26923526D01*
X10409343Y27025094D01*
X10409342Y27025096D01*
X10330095Y27104343D01*
X10330093Y27104344D01*
X10228524Y27151707D01*
X10228525Y27151707D01*
X10182244Y27157800D01*
X10093901Y27157800D01*
X10093900Y27157799D01*
X9916100Y27157799D01*
X9916099Y27157800D01*
X9827756Y27157800D01*
X9781474Y27151707D01*
X9679906Y27104344D01*
X9679904Y27104343D01*
X9600654Y27025093D01*
X9597312Y27020319D01*
X9548058Y26985832D01*
X9488160Y26991073D01*
X9453304Y27020322D01*
X9449759Y27025385D01*
X9370386Y27104758D01*
X9268654Y27152197D01*
X9222298Y27158300D01*
X9222296Y27158300D01*
X8867704Y27158300D01*
X8867702Y27158300D01*
X8821345Y27152197D01*
X8719613Y27104758D01*
X8689601Y27074745D01*
X8672209Y27066635D01*
X8657510Y27054301D01*
X8638613Y27050970D01*
X8635107Y27049334D01*
X8627446Y27049000D01*
X8597400Y27049000D01*
X8540899Y27069565D01*
X8510835Y27121636D01*
X8509500Y27136900D01*
X8509500Y27237567D01*
X8530065Y27294068D01*
X8535245Y27299722D01*
X8693817Y27458294D01*
X8879376Y27643853D01*
X8929602Y27730847D01*
X8955601Y27827875D01*
X8955601Y27928325D01*
X8955601Y27933706D01*
X8955600Y27933724D01*
X8955600Y30793914D01*
X8929602Y30890940D01*
X8929601Y30890941D01*
X8929601Y30890943D01*
X8879376Y30977936D01*
X8879374Y30977938D01*
X8879373Y30977940D01*
X8805278Y31052034D01*
X8805277Y31052034D01*
X3326645Y36530667D01*
X3301234Y36585161D01*
X3300900Y36592822D01*
X3300900Y38631099D01*
X3852201Y38631099D01*
X3852201Y38302492D01*
X3862516Y38250625D01*
X3901811Y38191818D01*
X3901817Y38191812D01*
X3960624Y38152517D01*
X4012486Y38142201D01*
X4341100Y38142201D01*
X4341100Y38631100D01*
X3852202Y38631100D01*
X3852201Y38631099D01*
X3300900Y38631099D01*
X3300900Y48728168D01*
X3321465Y48784669D01*
X3326645Y48790323D01*
X3509147Y48972825D01*
X3701646Y49165325D01*
X3756139Y49190735D01*
X3814217Y49175173D01*
G37*
%TD.AperFunction*%
%TA.AperFunction,Conductor*%
G36*
X15831653Y49254935D02*
G01*
X15837307Y49249755D01*
X16403553Y48683510D01*
X16961224Y48125839D01*
X16961225Y48125837D01*
X17032817Y48054245D01*
X17032818Y48054245D01*
X17032819Y48054244D01*
X17064019Y48041321D01*
X17126357Y48015500D01*
X17804993Y48015500D01*
X17861494Y47994935D01*
X17867149Y47989753D01*
X17873269Y47983632D01*
X17901453Y47941453D01*
X17943621Y47913277D01*
X17949745Y47907153D01*
X17959011Y47887281D01*
X17971978Y47869596D01*
X17971396Y47860721D01*
X17975155Y47852659D01*
X17969479Y47831481D01*
X17968045Y47809598D01*
X17961536Y47801842D01*
X17959591Y47794581D01*
X17949537Y47787542D01*
X17936424Y47771914D01*
X17901454Y47748548D01*
X17901452Y47748546D01*
X17862045Y47689569D01*
X17851700Y47637560D01*
X17851700Y47202437D01*
X17851701Y47202435D01*
X17862043Y47150435D01*
X17862043Y47150434D01*
X17862044Y47150432D01*
X17862045Y47150431D01*
X17901453Y47091453D01*
X17934930Y47069084D01*
X17936424Y47068086D01*
X17971978Y47019596D01*
X17968045Y46959598D01*
X17936424Y46921914D01*
X17901454Y46898548D01*
X17901452Y46898546D01*
X17862045Y46839569D01*
X17851700Y46787560D01*
X17851700Y46352437D01*
X17851701Y46352435D01*
X17862043Y46300435D01*
X17862043Y46300434D01*
X17862044Y46300432D01*
X17862045Y46300431D01*
X17901453Y46241453D01*
X17934930Y46219084D01*
X17936424Y46218086D01*
X17971978Y46169596D01*
X17968045Y46109598D01*
X17936424Y46071914D01*
X17901454Y46048548D01*
X17901452Y46048546D01*
X17862045Y45989569D01*
X17851700Y45937560D01*
X17851700Y45502437D01*
X17851701Y45502435D01*
X17862043Y45450435D01*
X17862043Y45450434D01*
X17862044Y45450432D01*
X17862045Y45450431D01*
X17901453Y45391453D01*
X17934930Y45369084D01*
X17936424Y45368086D01*
X17971978Y45319596D01*
X17968045Y45259598D01*
X17936424Y45221914D01*
X17901454Y45198548D01*
X17901452Y45198546D01*
X17862045Y45139569D01*
X17851700Y45087560D01*
X17851700Y44652437D01*
X17851701Y44652435D01*
X17862043Y44600435D01*
X17862043Y44600434D01*
X17862044Y44600432D01*
X17862045Y44600431D01*
X17901453Y44541453D01*
X17934930Y44519084D01*
X17936424Y44518086D01*
X17971978Y44469596D01*
X17968045Y44409598D01*
X17936424Y44371914D01*
X17901454Y44348548D01*
X17901452Y44348546D01*
X17862045Y44289569D01*
X17851700Y44237560D01*
X17851700Y43802437D01*
X17851701Y43802435D01*
X17862043Y43750435D01*
X17862043Y43750434D01*
X17862044Y43750432D01*
X17862045Y43750431D01*
X17901453Y43691453D01*
X17934930Y43669084D01*
X17936424Y43668086D01*
X17971978Y43619596D01*
X17968045Y43559598D01*
X17936424Y43521914D01*
X17901454Y43498548D01*
X17901452Y43498546D01*
X17862045Y43439569D01*
X17851700Y43387560D01*
X17851700Y42952437D01*
X17851701Y42952435D01*
X17862043Y42900435D01*
X17862043Y42900434D01*
X17862044Y42900432D01*
X17862045Y42900431D01*
X17901453Y42841453D01*
X17934930Y42819084D01*
X17936424Y42818086D01*
X17971978Y42769596D01*
X17968045Y42709598D01*
X17936424Y42671914D01*
X17901454Y42648548D01*
X17901452Y42648546D01*
X17862045Y42589569D01*
X17851700Y42537560D01*
X17851700Y42102437D01*
X17851701Y42102435D01*
X17862043Y42050435D01*
X17862043Y42050434D01*
X17862044Y42050432D01*
X17862045Y42050431D01*
X17901453Y41991453D01*
X17934930Y41969084D01*
X17936424Y41968086D01*
X17971978Y41919596D01*
X17968045Y41859598D01*
X17936424Y41821914D01*
X17901454Y41798548D01*
X17901452Y41798546D01*
X17862045Y41739569D01*
X17851700Y41687560D01*
X17851700Y41252437D01*
X17851701Y41252435D01*
X17862043Y41200435D01*
X17862043Y41200434D01*
X17862044Y41200432D01*
X17862045Y41200431D01*
X17901453Y41141453D01*
X17934930Y41119084D01*
X17936424Y41118086D01*
X17971978Y41069596D01*
X17968045Y41009598D01*
X17936424Y40971914D01*
X17901454Y40948548D01*
X17901452Y40948546D01*
X17862045Y40889569D01*
X17851700Y40837560D01*
X17851700Y40402437D01*
X17851701Y40402435D01*
X17862043Y40350435D01*
X17862043Y40350434D01*
X17862044Y40350432D01*
X17862045Y40350431D01*
X17901453Y40291453D01*
X17934930Y40269084D01*
X17936424Y40268086D01*
X17971978Y40219596D01*
X17968045Y40159598D01*
X17936424Y40121914D01*
X17901454Y40098548D01*
X17901452Y40098546D01*
X17878079Y40063565D01*
X17862045Y40039569D01*
X17852686Y39992515D01*
X17851700Y39987560D01*
X17851700Y39552437D01*
X17851701Y39552435D01*
X17862043Y39500435D01*
X17862043Y39500434D01*
X17862044Y39500432D01*
X17862045Y39500431D01*
X17901453Y39441453D01*
X17901456Y39441451D01*
X17936873Y39417786D01*
X17972427Y39369297D01*
X17968495Y39309299D01*
X17950194Y39282545D01*
X17867455Y39199806D01*
X17847576Y39190537D01*
X17829894Y39177572D01*
X17821021Y39178154D01*
X17812961Y39174395D01*
X17791778Y39180072D01*
X17769896Y39181506D01*
X17762141Y39188013D01*
X17754883Y39189958D01*
X17747843Y39200012D01*
X17732214Y39213127D01*
X17708549Y39248544D01*
X17708547Y39248547D01*
X17649569Y39287955D01*
X17597561Y39298300D01*
X17597559Y39298300D01*
X17162436Y39298300D01*
X17162434Y39298299D01*
X17110434Y39287957D01*
X17110433Y39287957D01*
X17051454Y39248548D01*
X17051452Y39248546D01*
X17028086Y39213576D01*
X16979596Y39178022D01*
X16919598Y39181955D01*
X16881914Y39213576D01*
X16858786Y39248189D01*
X16858547Y39248547D01*
X16799569Y39287955D01*
X16747561Y39298300D01*
X16747559Y39298300D01*
X16312436Y39298300D01*
X16312434Y39298299D01*
X16260434Y39287957D01*
X16260433Y39287957D01*
X16201454Y39248548D01*
X16201452Y39248546D01*
X16178086Y39213576D01*
X16129596Y39178022D01*
X16069598Y39181955D01*
X16031914Y39213576D01*
X16008786Y39248189D01*
X16008547Y39248547D01*
X15949569Y39287955D01*
X15897561Y39298300D01*
X15897559Y39298300D01*
X15462436Y39298300D01*
X15462434Y39298299D01*
X15410434Y39287957D01*
X15410433Y39287957D01*
X15351454Y39248548D01*
X15351452Y39248546D01*
X15328086Y39213576D01*
X15279596Y39178022D01*
X15219598Y39181955D01*
X15181914Y39213576D01*
X15158786Y39248189D01*
X15158547Y39248547D01*
X15099569Y39287955D01*
X15047561Y39298300D01*
X15047559Y39298300D01*
X14612436Y39298300D01*
X14612434Y39298299D01*
X14560434Y39287957D01*
X14560433Y39287957D01*
X14501454Y39248548D01*
X14501452Y39248546D01*
X14478086Y39213576D01*
X14429596Y39178022D01*
X14369598Y39181955D01*
X14331914Y39213576D01*
X14308786Y39248189D01*
X14308547Y39248547D01*
X14249569Y39287955D01*
X14197561Y39298300D01*
X14197559Y39298300D01*
X13762436Y39298300D01*
X13762434Y39298299D01*
X13710434Y39287957D01*
X13710433Y39287957D01*
X13651454Y39248548D01*
X13651452Y39248546D01*
X13628086Y39213576D01*
X13579596Y39178022D01*
X13519598Y39181955D01*
X13481914Y39213576D01*
X13458786Y39248189D01*
X13458547Y39248547D01*
X13399569Y39287955D01*
X13347561Y39298300D01*
X13347559Y39298300D01*
X12912436Y39298300D01*
X12912434Y39298299D01*
X12860434Y39287957D01*
X12860433Y39287957D01*
X12801454Y39248548D01*
X12801452Y39248546D01*
X12778086Y39213576D01*
X12772729Y39209649D01*
X12770232Y39203494D01*
X12748987Y39192240D01*
X12729596Y39178022D01*
X12722967Y39178457D01*
X12717099Y39175348D01*
X12693594Y39180382D01*
X12669598Y39181955D01*
X12663284Y39186874D01*
X12658305Y39187940D01*
X12643685Y39202142D01*
X12635650Y39208401D01*
X12633691Y39210916D01*
X12608547Y39248547D01*
X12599867Y39254347D01*
X12591150Y39265540D01*
X12586003Y39281463D01*
X12576111Y39294955D01*
X12572600Y39319550D01*
X12572600Y39506169D01*
X12593165Y39562670D01*
X12616548Y39582292D01*
X12679131Y39618424D01*
X12769076Y39708369D01*
X12832678Y39818530D01*
X12865600Y39941399D01*
X12865600Y40068601D01*
X12832678Y40191470D01*
X12769076Y40301631D01*
X12679131Y40391576D01*
X12660319Y40402437D01*
X12568968Y40455179D01*
X12446101Y40488100D01*
X12318899Y40488100D01*
X12196031Y40455179D01*
X12085871Y40391578D01*
X11995921Y40301628D01*
X11995919Y40301625D01*
X11982373Y40278162D01*
X11936313Y40239513D01*
X11876186Y40239513D01*
X11830127Y40278162D01*
X11816580Y40301625D01*
X11816578Y40301628D01*
X11816577Y40301629D01*
X11816576Y40301631D01*
X11726631Y40391576D01*
X11707819Y40402437D01*
X11616468Y40455179D01*
X11493601Y40488100D01*
X11366399Y40488100D01*
X11243531Y40455179D01*
X11133371Y40391578D01*
X11043422Y40301629D01*
X10979821Y40191469D01*
X10948367Y40074076D01*
X10946900Y40068601D01*
X10946900Y39941399D01*
X10979822Y39818530D01*
X11043424Y39708369D01*
X11111655Y39640138D01*
X11137066Y39585645D01*
X11137400Y39577984D01*
X11137400Y39319550D01*
X11118849Y39265540D01*
X11110130Y39254346D01*
X11101453Y39248547D01*
X11076320Y39210934D01*
X11074348Y39208401D01*
X11051423Y39194028D01*
X11029595Y39178022D01*
X11026247Y39178242D01*
X11023406Y39176460D01*
X10996608Y39180185D01*
X10969597Y39181955D01*
X10966764Y39184333D01*
X10963851Y39184737D01*
X10956243Y39193161D01*
X10931914Y39213575D01*
X10908547Y39248547D01*
X10849569Y39287955D01*
X10797561Y39298300D01*
X10797559Y39298300D01*
X10362436Y39298300D01*
X10362434Y39298299D01*
X10310434Y39287957D01*
X10310433Y39287957D01*
X10251454Y39248548D01*
X10251452Y39248546D01*
X10228086Y39213576D01*
X10179596Y39178022D01*
X10119598Y39181955D01*
X10081914Y39213576D01*
X10058786Y39248189D01*
X10058547Y39248547D01*
X9999569Y39287955D01*
X9947561Y39298300D01*
X9947559Y39298300D01*
X9512436Y39298300D01*
X9512434Y39298299D01*
X9460434Y39287957D01*
X9460433Y39287957D01*
X9401454Y39248548D01*
X9401452Y39248546D01*
X9378086Y39213576D01*
X9329596Y39178022D01*
X9269598Y39181955D01*
X9231914Y39213576D01*
X9208786Y39248189D01*
X9208547Y39248547D01*
X9149569Y39287955D01*
X9097561Y39298300D01*
X9097559Y39298300D01*
X8662436Y39298300D01*
X8662434Y39298299D01*
X8610434Y39287957D01*
X8610433Y39287957D01*
X8551454Y39248548D01*
X8551452Y39248546D01*
X8528086Y39213576D01*
X8479596Y39178022D01*
X8419598Y39181955D01*
X8381914Y39213576D01*
X8358786Y39248189D01*
X8358547Y39248547D01*
X8299569Y39287955D01*
X8247561Y39298300D01*
X8247559Y39298300D01*
X7812436Y39298300D01*
X7812434Y39298299D01*
X7760434Y39287957D01*
X7760433Y39287957D01*
X7701454Y39248548D01*
X7701452Y39248546D01*
X7678086Y39213576D01*
X7629596Y39178022D01*
X7569598Y39181955D01*
X7531914Y39213576D01*
X7508786Y39248189D01*
X7508547Y39248547D01*
X7449569Y39287955D01*
X7397561Y39298300D01*
X7397559Y39298300D01*
X6962436Y39298300D01*
X6962434Y39298299D01*
X6910434Y39287957D01*
X6910433Y39287957D01*
X6851454Y39248548D01*
X6851452Y39248546D01*
X6828086Y39213576D01*
X6779596Y39178022D01*
X6719598Y39181955D01*
X6681914Y39213576D01*
X6658786Y39248189D01*
X6658547Y39248547D01*
X6599569Y39287955D01*
X6547561Y39298300D01*
X6547559Y39298300D01*
X6112436Y39298300D01*
X6112434Y39298299D01*
X6060434Y39287957D01*
X6060433Y39287957D01*
X6001454Y39248548D01*
X6001452Y39248546D01*
X5978086Y39213576D01*
X5929596Y39178022D01*
X5869598Y39181955D01*
X5831914Y39213576D01*
X5808786Y39248189D01*
X5808547Y39248547D01*
X5749569Y39287955D01*
X5697561Y39298300D01*
X5697559Y39298300D01*
X5262436Y39298300D01*
X5262434Y39298299D01*
X5210434Y39287957D01*
X5210433Y39287957D01*
X5151454Y39248548D01*
X5151450Y39248544D01*
X5127784Y39213125D01*
X5079295Y39177572D01*
X5019296Y39181506D01*
X4992544Y39199806D01*
X4909805Y39282545D01*
X4900536Y39302423D01*
X4887571Y39320105D01*
X4888152Y39328979D01*
X4884394Y39337039D01*
X4890070Y39358222D01*
X4891505Y39380103D01*
X4898011Y39387858D01*
X4899957Y39395117D01*
X4910010Y39402157D01*
X4923122Y39417784D01*
X4958547Y39441453D01*
X4997955Y39500431D01*
X5008300Y39552439D01*
X5008299Y39987560D01*
X5008299Y39987561D01*
X5008299Y39987564D01*
X5008298Y39987566D01*
X4997956Y40039566D01*
X4997956Y40039567D01*
X4996240Y40042135D01*
X4958547Y40098547D01*
X4923574Y40121916D01*
X4888022Y40170403D01*
X4891954Y40230401D01*
X4923573Y40268085D01*
X4958547Y40291453D01*
X4997955Y40350431D01*
X5008300Y40402439D01*
X5008299Y40837560D01*
X5008299Y40837561D01*
X5008299Y40837564D01*
X5008298Y40837566D01*
X4997956Y40889566D01*
X4997956Y40889567D01*
X4980479Y40915723D01*
X4966187Y40974127D01*
X4992781Y41028053D01*
X5047816Y41052270D01*
X5097511Y41040683D01*
X5156403Y41006682D01*
X5156405Y41006682D01*
X5156406Y41006681D01*
X5272964Y40975450D01*
X5393635Y40975450D01*
X5393636Y40975450D01*
X5510197Y41006682D01*
X5614703Y41067018D01*
X5700032Y41152347D01*
X5760368Y41256853D01*
X5791600Y41373414D01*
X5791600Y41494086D01*
X5760368Y41610647D01*
X5744949Y41637353D01*
X5734509Y41696564D01*
X5764573Y41748635D01*
X5821074Y41769200D01*
X5934085Y41769200D01*
X5934086Y41769200D01*
X6050647Y41800432D01*
X6155153Y41860768D01*
X6240482Y41946097D01*
X6300818Y42050603D01*
X6332050Y42167164D01*
X6332050Y42287836D01*
X6300818Y42404397D01*
X6240482Y42508903D01*
X6155153Y42594232D01*
X6050647Y42654568D01*
X6050646Y42654569D01*
X6050643Y42654570D01*
X5934086Y42685800D01*
X5813414Y42685800D01*
X5696856Y42654570D01*
X5592339Y42594228D01*
X5590297Y42592660D01*
X5588667Y42592107D01*
X5587358Y42591351D01*
X5587207Y42591612D01*
X5536793Y42574500D01*
X5055007Y42574500D01*
X4998506Y42595065D01*
X4992851Y42600246D01*
X4986732Y42606365D01*
X4958547Y42648547D01*
X4916372Y42676728D01*
X4910254Y42682846D01*
X4900986Y42702722D01*
X4888022Y42720403D01*
X4888603Y42729278D01*
X4884844Y42737341D01*
X4890520Y42758524D01*
X4891954Y42780401D01*
X4898460Y42788156D01*
X4900407Y42795419D01*
X4910463Y42802461D01*
X4923573Y42818085D01*
X4958547Y42841453D01*
X4997955Y42900431D01*
X5008300Y42952439D01*
X5008299Y43387560D01*
X5008299Y43387561D01*
X5008299Y43387564D01*
X5008298Y43387566D01*
X4997956Y43439566D01*
X4997956Y43439567D01*
X4997955Y43439569D01*
X4958547Y43498547D01*
X4923574Y43521916D01*
X4888022Y43570403D01*
X4891954Y43630401D01*
X4923573Y43668085D01*
X4958547Y43691453D01*
X4997955Y43750431D01*
X5008300Y43802439D01*
X5008300Y43981099D01*
X9002201Y43981099D01*
X9002201Y43452492D01*
X9012516Y43400625D01*
X9051811Y43341818D01*
X9051817Y43341812D01*
X9110624Y43302517D01*
X9162486Y43292201D01*
X9691098Y43292201D01*
X9691100Y43292202D01*
X9691100Y43981099D01*
X9868900Y43981099D01*
X9868900Y43292202D01*
X9868901Y43292201D01*
X10397509Y43292201D01*
X10449375Y43302517D01*
X10508182Y43341812D01*
X10508185Y43341815D01*
X10531914Y43377326D01*
X10580404Y43412879D01*
X10640402Y43408945D01*
X10678086Y43377326D01*
X10701814Y43341815D01*
X10701817Y43341812D01*
X10760624Y43302517D01*
X10812486Y43292201D01*
X11341098Y43292201D01*
X11341100Y43292202D01*
X11341100Y43981099D01*
X11518900Y43981099D01*
X11518900Y43292202D01*
X11518901Y43292201D01*
X12047509Y43292201D01*
X12099375Y43302517D01*
X12158182Y43341812D01*
X12158185Y43341815D01*
X12181914Y43377326D01*
X12230404Y43412879D01*
X12290402Y43408945D01*
X12328086Y43377326D01*
X12351814Y43341815D01*
X12351817Y43341812D01*
X12410624Y43302517D01*
X12462486Y43292201D01*
X12991098Y43292201D01*
X12991100Y43292202D01*
X12991100Y43981099D01*
X13168900Y43981099D01*
X13168900Y43292202D01*
X13168901Y43292201D01*
X13697509Y43292201D01*
X13749375Y43302517D01*
X13808182Y43341812D01*
X13808188Y43341818D01*
X13847483Y43400625D01*
X13857800Y43452488D01*
X13857800Y43981099D01*
X13857799Y43981100D01*
X13168901Y43981100D01*
X13168900Y43981099D01*
X12991100Y43981099D01*
X12991099Y43981100D01*
X12286642Y43981100D01*
X12270267Y43971645D01*
X12266304Y43972344D01*
X12262657Y43970643D01*
X12237102Y43977492D01*
X12216635Y43981100D01*
X11518901Y43981100D01*
X11518900Y43981099D01*
X11341100Y43981099D01*
X11341099Y43981100D01*
X10636642Y43981100D01*
X10620267Y43971645D01*
X10616304Y43972344D01*
X10612657Y43970643D01*
X10587102Y43977492D01*
X10566635Y43981100D01*
X9868901Y43981100D01*
X9868900Y43981099D01*
X9691100Y43981099D01*
X9691099Y43981100D01*
X9002202Y43981100D01*
X9002201Y43981099D01*
X5008300Y43981099D01*
X5008299Y44237560D01*
X5008299Y44237561D01*
X5008299Y44237564D01*
X5008298Y44237566D01*
X4997956Y44289566D01*
X4997956Y44289567D01*
X4997955Y44289569D01*
X4958547Y44348547D01*
X4923574Y44371916D01*
X4888022Y44420403D01*
X4891954Y44480401D01*
X4923573Y44518085D01*
X4958547Y44541453D01*
X4997955Y44600431D01*
X5008300Y44652439D01*
X5008300Y44687513D01*
X9002200Y44687513D01*
X9002200Y44158901D01*
X9002201Y44158900D01*
X9691099Y44158900D01*
X9691100Y44158901D01*
X9691100Y44863358D01*
X9681643Y44879737D01*
X9682341Y44883697D01*
X9680642Y44887340D01*
X9687489Y44912893D01*
X9691100Y44933371D01*
X9691100Y45631099D01*
X9868900Y45631099D01*
X9868900Y44926643D01*
X9878356Y44910265D01*
X9877657Y44906306D01*
X9879357Y44902662D01*
X9872509Y44877110D01*
X9868900Y44856638D01*
X9868900Y44158901D01*
X9868901Y44158900D01*
X10573355Y44158900D01*
X10589732Y44168356D01*
X10593690Y44167659D01*
X10597334Y44169357D01*
X10622892Y44162511D01*
X10643370Y44158900D01*
X11341099Y44158900D01*
X11341100Y44158901D01*
X11341100Y44863358D01*
X11331643Y44879737D01*
X11332341Y44883697D01*
X11330642Y44887340D01*
X11337489Y44912893D01*
X11341100Y44933371D01*
X11341100Y45631099D01*
X11518900Y45631099D01*
X11518900Y44926643D01*
X11528356Y44910265D01*
X11527657Y44906306D01*
X11529357Y44902662D01*
X11522509Y44877110D01*
X11518900Y44856638D01*
X11518900Y44158901D01*
X11518901Y44158900D01*
X12223355Y44158900D01*
X12239732Y44168356D01*
X12243690Y44167659D01*
X12247334Y44169357D01*
X12272892Y44162511D01*
X12293370Y44158900D01*
X12991099Y44158900D01*
X12991100Y44158901D01*
X12991100Y44863358D01*
X12981643Y44879737D01*
X12982341Y44883697D01*
X12980642Y44887340D01*
X12987489Y44912893D01*
X12991100Y44933371D01*
X12991100Y45631099D01*
X13168900Y45631099D01*
X13168900Y44926643D01*
X13178356Y44910265D01*
X13177657Y44906306D01*
X13179357Y44902662D01*
X13172509Y44877110D01*
X13168900Y44856638D01*
X13168900Y44158901D01*
X13168901Y44158900D01*
X13857798Y44158900D01*
X13857799Y44158901D01*
X13857799Y44687509D01*
X13847483Y44739376D01*
X13808188Y44798183D01*
X13808185Y44798186D01*
X13772674Y44821914D01*
X13737121Y44870404D01*
X13741055Y44930402D01*
X13772674Y44968086D01*
X13808185Y44991815D01*
X13808188Y44991818D01*
X13847483Y45050625D01*
X13857800Y45102488D01*
X13857800Y45631099D01*
X13857799Y45631100D01*
X13168901Y45631100D01*
X13168900Y45631099D01*
X12991100Y45631099D01*
X12991099Y45631100D01*
X12286642Y45631100D01*
X12270267Y45621645D01*
X12266304Y45622344D01*
X12262657Y45620643D01*
X12237102Y45627492D01*
X12216635Y45631100D01*
X11518901Y45631100D01*
X11518900Y45631099D01*
X11341100Y45631099D01*
X11341099Y45631100D01*
X10636642Y45631100D01*
X10620267Y45621645D01*
X10616304Y45622344D01*
X10612657Y45620643D01*
X10587102Y45627492D01*
X10566635Y45631100D01*
X9868901Y45631100D01*
X9868900Y45631099D01*
X9691100Y45631099D01*
X9691099Y45631100D01*
X9002202Y45631100D01*
X9002201Y45631099D01*
X9002201Y45102492D01*
X9012516Y45050625D01*
X9051811Y44991818D01*
X9051817Y44991812D01*
X9087325Y44968085D01*
X9122878Y44919595D01*
X9118944Y44859597D01*
X9087325Y44821915D01*
X9051817Y44798189D01*
X9051811Y44798183D01*
X9012516Y44739376D01*
X9002200Y44687513D01*
X5008300Y44687513D01*
X5008299Y44870404D01*
X5008299Y45087564D01*
X5008298Y45087566D01*
X4997956Y45139566D01*
X4997956Y45139567D01*
X4997955Y45139569D01*
X4958547Y45198547D01*
X4923574Y45221916D01*
X4888022Y45270403D01*
X4891954Y45330401D01*
X4923573Y45368085D01*
X4958547Y45391453D01*
X4997955Y45450431D01*
X5008300Y45502439D01*
X5008299Y45937560D01*
X5008299Y45937561D01*
X5008299Y45937564D01*
X5008298Y45937566D01*
X4997956Y45989566D01*
X4997956Y45989567D01*
X4997955Y45989569D01*
X4958547Y46048547D01*
X4923574Y46071916D01*
X4888022Y46120403D01*
X4891954Y46180401D01*
X4923573Y46218085D01*
X4958547Y46241453D01*
X4997955Y46300431D01*
X5008300Y46352439D01*
X5008299Y46752487D01*
X9002200Y46752487D01*
X9002201Y46752485D01*
X9012514Y46700629D01*
X9012516Y46700625D01*
X9051811Y46641818D01*
X9051817Y46641812D01*
X9087325Y46618085D01*
X9122878Y46569595D01*
X9118944Y46509597D01*
X9087325Y46471915D01*
X9051817Y46448189D01*
X9051811Y46448183D01*
X9012516Y46389376D01*
X9002200Y46337513D01*
X9002200Y45808901D01*
X9002201Y45808900D01*
X9691099Y45808900D01*
X9691100Y45808901D01*
X9691100Y46513358D01*
X9681643Y46529737D01*
X9682341Y46533697D01*
X9680642Y46537340D01*
X9687489Y46562893D01*
X9691100Y46583371D01*
X9691100Y47281099D01*
X9868900Y47281099D01*
X9868900Y46576643D01*
X9878356Y46560265D01*
X9877657Y46556306D01*
X9879357Y46552662D01*
X9872509Y46527110D01*
X9868900Y46506638D01*
X9868900Y45808901D01*
X9868901Y45808900D01*
X10573355Y45808900D01*
X10589732Y45818356D01*
X10593690Y45817659D01*
X10597334Y45819357D01*
X10622892Y45812511D01*
X10643370Y45808900D01*
X11341099Y45808900D01*
X11341100Y45808901D01*
X11341100Y46513358D01*
X11331643Y46529737D01*
X11332341Y46533697D01*
X11330642Y46537340D01*
X11337489Y46562893D01*
X11341100Y46583371D01*
X11341100Y47281099D01*
X11518900Y47281099D01*
X11518900Y46576643D01*
X11528356Y46560265D01*
X11527657Y46556306D01*
X11529357Y46552662D01*
X11522509Y46527110D01*
X11518900Y46506638D01*
X11518900Y45808901D01*
X11518901Y45808900D01*
X12223355Y45808900D01*
X12239732Y45818356D01*
X12243690Y45817659D01*
X12247334Y45819357D01*
X12272892Y45812511D01*
X12293370Y45808900D01*
X12991099Y45808900D01*
X12991100Y45808901D01*
X12991100Y46513358D01*
X12981643Y46529737D01*
X12982341Y46533697D01*
X12980642Y46537340D01*
X12987489Y46562893D01*
X12991100Y46583371D01*
X12991100Y47281099D01*
X13168900Y47281099D01*
X13168900Y46576643D01*
X13178356Y46560265D01*
X13177657Y46556306D01*
X13179357Y46552662D01*
X13172509Y46527110D01*
X13168900Y46506638D01*
X13168900Y45808901D01*
X13168901Y45808900D01*
X13857798Y45808900D01*
X13857799Y45808901D01*
X13857799Y46337509D01*
X13847483Y46389376D01*
X13808188Y46448183D01*
X13808185Y46448186D01*
X13772674Y46471914D01*
X13737121Y46520404D01*
X13741055Y46580402D01*
X13772674Y46618086D01*
X13808185Y46641815D01*
X13808188Y46641818D01*
X13847483Y46700625D01*
X13857800Y46752488D01*
X13857800Y47281099D01*
X13857799Y47281100D01*
X13168901Y47281100D01*
X13168900Y47281099D01*
X12991100Y47281099D01*
X12991099Y47281100D01*
X12286642Y47281100D01*
X12270267Y47271645D01*
X12266304Y47272344D01*
X12262657Y47270643D01*
X12237102Y47277492D01*
X12216635Y47281100D01*
X11518901Y47281100D01*
X11518900Y47281099D01*
X11341100Y47281099D01*
X11341099Y47281100D01*
X10636642Y47281100D01*
X10620267Y47271645D01*
X10616304Y47272344D01*
X10612657Y47270643D01*
X10587102Y47277492D01*
X10566635Y47281100D01*
X9868901Y47281100D01*
X9868900Y47281099D01*
X9691100Y47281099D01*
X9691099Y47281100D01*
X9002200Y47281100D01*
X9002200Y46752487D01*
X5008299Y46752487D01*
X5008299Y46787560D01*
X5008299Y46787561D01*
X5008299Y46787564D01*
X5008298Y46787566D01*
X4997956Y46839566D01*
X4997956Y46839567D01*
X4997955Y46839569D01*
X4958547Y46898547D01*
X4923574Y46921916D01*
X4888022Y46970403D01*
X4891954Y47030401D01*
X4923573Y47068085D01*
X4958547Y47091453D01*
X4997955Y47150431D01*
X5008300Y47202439D01*
X5008299Y47563647D01*
X9002200Y47563647D01*
X9002200Y47458901D01*
X9002201Y47458900D01*
X9691099Y47458900D01*
X9691100Y47458901D01*
X9691100Y48147799D01*
X9868900Y48147799D01*
X9868900Y47458901D01*
X9868901Y47458900D01*
X10573355Y47458900D01*
X10589732Y47468356D01*
X10593690Y47467659D01*
X10597334Y47469357D01*
X10622892Y47462511D01*
X10643370Y47458900D01*
X11341099Y47458900D01*
X11341100Y47458901D01*
X11341100Y48147799D01*
X11518900Y48147799D01*
X11518900Y47458901D01*
X11518901Y47458900D01*
X12223355Y47458900D01*
X12239732Y47468356D01*
X12243690Y47467659D01*
X12247334Y47469357D01*
X12272892Y47462511D01*
X12293370Y47458900D01*
X12991099Y47458900D01*
X12991100Y47458901D01*
X12991100Y48147799D01*
X13168900Y48147799D01*
X13168900Y47458901D01*
X13168901Y47458900D01*
X13857798Y47458900D01*
X13857799Y47458901D01*
X13857799Y47987509D01*
X13847483Y48039376D01*
X13808188Y48098183D01*
X13808182Y48098189D01*
X13749375Y48137484D01*
X13697513Y48147800D01*
X13168901Y48147800D01*
X13168900Y48147799D01*
X12991100Y48147799D01*
X12991099Y48147800D01*
X12462486Y48147800D01*
X12462484Y48147799D01*
X12410628Y48137486D01*
X12410624Y48137484D01*
X12351817Y48098189D01*
X12351811Y48098183D01*
X12328085Y48062675D01*
X12279595Y48027122D01*
X12219597Y48031056D01*
X12181915Y48062675D01*
X12158188Y48098183D01*
X12158182Y48098189D01*
X12099375Y48137484D01*
X12047513Y48147800D01*
X11518901Y48147800D01*
X11518900Y48147799D01*
X11341100Y48147799D01*
X11341099Y48147800D01*
X10812486Y48147800D01*
X10812484Y48147799D01*
X10760628Y48137486D01*
X10760624Y48137484D01*
X10701817Y48098189D01*
X10701811Y48098183D01*
X10678085Y48062675D01*
X10629595Y48027122D01*
X10569597Y48031056D01*
X10531915Y48062675D01*
X10508188Y48098183D01*
X10508182Y48098189D01*
X10449375Y48137484D01*
X10397513Y48147800D01*
X9868901Y48147800D01*
X9868900Y48147799D01*
X9691100Y48147799D01*
X9691099Y48147800D01*
X9586353Y48147800D01*
X9002200Y47563647D01*
X5008299Y47563647D01*
X5008299Y47637560D01*
X5008299Y47637561D01*
X5008299Y47637564D01*
X5008298Y47637566D01*
X4997956Y47689566D01*
X4997956Y47689567D01*
X4997955Y47689569D01*
X4958547Y47748547D01*
X4923574Y47771916D01*
X4888022Y47820403D01*
X4891954Y47880401D01*
X4910610Y47907508D01*
X4916583Y47913414D01*
X4958547Y47941453D01*
X4985024Y47981080D01*
X4991357Y47987340D01*
X5011070Y47996397D01*
X5028560Y48009220D01*
X5037684Y48008623D01*
X5045995Y48012440D01*
X5066915Y48006707D01*
X5088558Y48005288D01*
X5095809Y47998788D01*
X5103984Y47996547D01*
X5113249Y47983154D01*
X5129280Y47968782D01*
X5147736Y47936815D01*
X5233065Y47851486D01*
X5337571Y47791150D01*
X5337573Y47791150D01*
X5337574Y47791149D01*
X5454132Y47759918D01*
X5574803Y47759918D01*
X5574804Y47759918D01*
X5691365Y47791150D01*
X5795871Y47851486D01*
X5881200Y47936815D01*
X5881200Y47936816D01*
X5882358Y47937973D01*
X5936852Y47963384D01*
X5944513Y47963718D01*
X8983110Y47963718D01*
X8983111Y47963718D01*
X9076651Y48002463D01*
X9795561Y48721375D01*
X9795563Y48721375D01*
X9867155Y48792967D01*
X9905900Y48886507D01*
X9905900Y49133572D01*
X9912463Y49151605D01*
X9914136Y49170720D01*
X9925142Y49186441D01*
X9926465Y49190073D01*
X9931645Y49195727D01*
X9985673Y49249755D01*
X10040167Y49275166D01*
X10047828Y49275500D01*
X15775152Y49275500D01*
X15831653Y49254935D01*
G37*
%TD.AperFunction*%
%TD*%
M02*
