%TF.GenerationSoftware,KiCad,Pcbnew,9.0.4*%
%TF.CreationDate,2025-11-12T09:57:30+01:00*%
%TF.ProjectId,SparkFun_Thing_Plus_ESP32-S3,53706172-6b46-4756-9e5f-5468696e675f,rev?*%
%TF.SameCoordinates,Original*%
%TF.FileFunction,Legend,Top*%
%TF.FilePolarity,Positive*%
%FSLAX46Y46*%
G04 Gerber Fmt 4.6, Leading zero omitted, Abs format (unit mm)*
G04 Created by KiCad (PCBNEW 9.0.4) date 2025-11-12 09:57:30*
%MOMM*%
%LPD*%
G01*
G04 APERTURE LIST*
%ADD10C,0.150000*%
%ADD11C,0.254000*%
%ADD12C,0.000000*%
%ADD13C,0.120000*%
%ADD14C,0.100000*%
%ADD15C,0.152500*%
%ADD16C,0.300000*%
%ADD17C,0.200000*%
G04 APERTURE END LIST*
D10*
X10906667Y23615800D02*
X11049524Y23568181D01*
X11049524Y23568181D02*
X11287619Y23568181D01*
X11287619Y23568181D02*
X11382857Y23615800D01*
X11382857Y23615800D02*
X11430476Y23663420D01*
X11430476Y23663420D02*
X11478095Y23758658D01*
X11478095Y23758658D02*
X11478095Y23853896D01*
X11478095Y23853896D02*
X11430476Y23949134D01*
X11430476Y23949134D02*
X11382857Y23996753D01*
X11382857Y23996753D02*
X11287619Y24044372D01*
X11287619Y24044372D02*
X11097143Y24091991D01*
X11097143Y24091991D02*
X11001905Y24139610D01*
X11001905Y24139610D02*
X10954286Y24187229D01*
X10954286Y24187229D02*
X10906667Y24282467D01*
X10906667Y24282467D02*
X10906667Y24377705D01*
X10906667Y24377705D02*
X10954286Y24472943D01*
X10954286Y24472943D02*
X11001905Y24520562D01*
X11001905Y24520562D02*
X11097143Y24568181D01*
X11097143Y24568181D02*
X11335238Y24568181D01*
X11335238Y24568181D02*
X11478095Y24520562D01*
X11811429Y24568181D02*
X12049524Y23568181D01*
X12049524Y23568181D02*
X12240000Y24282467D01*
X12240000Y24282467D02*
X12430476Y23568181D01*
X12430476Y23568181D02*
X12668572Y24568181D01*
X13573333Y23568181D02*
X13001905Y23568181D01*
X13287619Y23568181D02*
X13287619Y24568181D01*
X13287619Y24568181D02*
X13192381Y24425324D01*
X13192381Y24425324D02*
X13097143Y24330086D01*
X13097143Y24330086D02*
X13001905Y24282467D01*
X1080319Y47205444D02*
X2080319Y47872110D01*
X1080319Y47872110D02*
X2080319Y47205444D01*
X2080319Y48776872D02*
X2080319Y48205444D01*
X2080319Y48491158D02*
X1080319Y48491158D01*
X1080319Y48491158D02*
X1223176Y48395920D01*
X1223176Y48395920D02*
X1318414Y48300682D01*
X1318414Y48300682D02*
X1366033Y48205444D01*
X9684905Y7859181D02*
X9684905Y7049658D01*
X9684905Y7049658D02*
X9732524Y6954420D01*
X9732524Y6954420D02*
X9780143Y6906800D01*
X9780143Y6906800D02*
X9875381Y6859181D01*
X9875381Y6859181D02*
X10065857Y6859181D01*
X10065857Y6859181D02*
X10161095Y6906800D01*
X10161095Y6906800D02*
X10208714Y6954420D01*
X10208714Y6954420D02*
X10256333Y7049658D01*
X10256333Y7049658D02*
X10256333Y7859181D01*
X10684905Y6906800D02*
X10827762Y6859181D01*
X10827762Y6859181D02*
X11065857Y6859181D01*
X11065857Y6859181D02*
X11161095Y6906800D01*
X11161095Y6906800D02*
X11208714Y6954420D01*
X11208714Y6954420D02*
X11256333Y7049658D01*
X11256333Y7049658D02*
X11256333Y7144896D01*
X11256333Y7144896D02*
X11208714Y7240134D01*
X11208714Y7240134D02*
X11161095Y7287753D01*
X11161095Y7287753D02*
X11065857Y7335372D01*
X11065857Y7335372D02*
X10875381Y7382991D01*
X10875381Y7382991D02*
X10780143Y7430610D01*
X10780143Y7430610D02*
X10732524Y7478229D01*
X10732524Y7478229D02*
X10684905Y7573467D01*
X10684905Y7573467D02*
X10684905Y7668705D01*
X10684905Y7668705D02*
X10732524Y7763943D01*
X10732524Y7763943D02*
X10780143Y7811562D01*
X10780143Y7811562D02*
X10875381Y7859181D01*
X10875381Y7859181D02*
X11113476Y7859181D01*
X11113476Y7859181D02*
X11256333Y7811562D01*
X12018238Y7382991D02*
X12161095Y7335372D01*
X12161095Y7335372D02*
X12208714Y7287753D01*
X12208714Y7287753D02*
X12256333Y7192515D01*
X12256333Y7192515D02*
X12256333Y7049658D01*
X12256333Y7049658D02*
X12208714Y6954420D01*
X12208714Y6954420D02*
X12161095Y6906800D01*
X12161095Y6906800D02*
X12065857Y6859181D01*
X12065857Y6859181D02*
X11684905Y6859181D01*
X11684905Y6859181D02*
X11684905Y7859181D01*
X11684905Y7859181D02*
X12018238Y7859181D01*
X12018238Y7859181D02*
X12113476Y7811562D01*
X12113476Y7811562D02*
X12161095Y7763943D01*
X12161095Y7763943D02*
X12208714Y7668705D01*
X12208714Y7668705D02*
X12208714Y7573467D01*
X12208714Y7573467D02*
X12161095Y7478229D01*
X12161095Y7478229D02*
X12113476Y7430610D01*
X12113476Y7430610D02*
X12018238Y7382991D01*
X12018238Y7382991D02*
X11684905Y7382991D01*
X12637286Y7763943D02*
X12684905Y7811562D01*
X12684905Y7811562D02*
X12780143Y7859181D01*
X12780143Y7859181D02*
X13018238Y7859181D01*
X13018238Y7859181D02*
X13113476Y7811562D01*
X13113476Y7811562D02*
X13161095Y7763943D01*
X13161095Y7763943D02*
X13208714Y7668705D01*
X13208714Y7668705D02*
X13208714Y7573467D01*
X13208714Y7573467D02*
X13161095Y7430610D01*
X13161095Y7430610D02*
X12589667Y6859181D01*
X12589667Y6859181D02*
X13208714Y6859181D01*
X10629580Y14593334D02*
X10677200Y14545715D01*
X10677200Y14545715D02*
X10724819Y14402858D01*
X10724819Y14402858D02*
X10724819Y14307620D01*
X10724819Y14307620D02*
X10677200Y14164763D01*
X10677200Y14164763D02*
X10581961Y14069525D01*
X10581961Y14069525D02*
X10486723Y14021906D01*
X10486723Y14021906D02*
X10296247Y13974287D01*
X10296247Y13974287D02*
X10153390Y13974287D01*
X10153390Y13974287D02*
X9962914Y14021906D01*
X9962914Y14021906D02*
X9867676Y14069525D01*
X9867676Y14069525D02*
X9772438Y14164763D01*
X9772438Y14164763D02*
X9724819Y14307620D01*
X9724819Y14307620D02*
X9724819Y14402858D01*
X9724819Y14402858D02*
X9772438Y14545715D01*
X9772438Y14545715D02*
X9820057Y14593334D01*
X10724819Y15069525D02*
X10724819Y15260001D01*
X10724819Y15260001D02*
X10677200Y15355239D01*
X10677200Y15355239D02*
X10629580Y15402858D01*
X10629580Y15402858D02*
X10486723Y15498096D01*
X10486723Y15498096D02*
X10296247Y15545715D01*
X10296247Y15545715D02*
X9915295Y15545715D01*
X9915295Y15545715D02*
X9820057Y15498096D01*
X9820057Y15498096D02*
X9772438Y15450477D01*
X9772438Y15450477D02*
X9724819Y15355239D01*
X9724819Y15355239D02*
X9724819Y15164763D01*
X9724819Y15164763D02*
X9772438Y15069525D01*
X9772438Y15069525D02*
X9820057Y15021906D01*
X9820057Y15021906D02*
X9915295Y14974287D01*
X9915295Y14974287D02*
X10153390Y14974287D01*
X10153390Y14974287D02*
X10248628Y15021906D01*
X10248628Y15021906D02*
X10296247Y15069525D01*
X10296247Y15069525D02*
X10343866Y15164763D01*
X10343866Y15164763D02*
X10343866Y15355239D01*
X10343866Y15355239D02*
X10296247Y15450477D01*
X10296247Y15450477D02*
X10248628Y15498096D01*
X10248628Y15498096D02*
X10153390Y15545715D01*
X4953095Y28662681D02*
X4953095Y27853158D01*
X4953095Y27853158D02*
X5000714Y27757920D01*
X5000714Y27757920D02*
X5048333Y27710300D01*
X5048333Y27710300D02*
X5143571Y27662681D01*
X5143571Y27662681D02*
X5334047Y27662681D01*
X5334047Y27662681D02*
X5429285Y27710300D01*
X5429285Y27710300D02*
X5476904Y27757920D01*
X5476904Y27757920D02*
X5524523Y27853158D01*
X5524523Y27853158D02*
X5524523Y28662681D01*
X6429285Y28662681D02*
X6238809Y28662681D01*
X6238809Y28662681D02*
X6143571Y28615062D01*
X6143571Y28615062D02*
X6095952Y28567443D01*
X6095952Y28567443D02*
X6000714Y28424586D01*
X6000714Y28424586D02*
X5953095Y28234110D01*
X5953095Y28234110D02*
X5953095Y27853158D01*
X5953095Y27853158D02*
X6000714Y27757920D01*
X6000714Y27757920D02*
X6048333Y27710300D01*
X6048333Y27710300D02*
X6143571Y27662681D01*
X6143571Y27662681D02*
X6334047Y27662681D01*
X6334047Y27662681D02*
X6429285Y27710300D01*
X6429285Y27710300D02*
X6476904Y27757920D01*
X6476904Y27757920D02*
X6524523Y27853158D01*
X6524523Y27853158D02*
X6524523Y28091253D01*
X6524523Y28091253D02*
X6476904Y28186491D01*
X6476904Y28186491D02*
X6429285Y28234110D01*
X6429285Y28234110D02*
X6334047Y28281729D01*
X6334047Y28281729D02*
X6143571Y28281729D01*
X6143571Y28281729D02*
X6048333Y28234110D01*
X6048333Y28234110D02*
X6000714Y28186491D01*
X6000714Y28186491D02*
X5953095Y28091253D01*
X8763095Y8117181D02*
X8763095Y7307658D01*
X8763095Y7307658D02*
X8810714Y7212420D01*
X8810714Y7212420D02*
X8858333Y7164800D01*
X8858333Y7164800D02*
X8953571Y7117181D01*
X8953571Y7117181D02*
X9144047Y7117181D01*
X9144047Y7117181D02*
X9239285Y7164800D01*
X9239285Y7164800D02*
X9286904Y7212420D01*
X9286904Y7212420D02*
X9334523Y7307658D01*
X9334523Y7307658D02*
X9334523Y8117181D01*
X10334523Y7117181D02*
X9763095Y7117181D01*
X10048809Y7117181D02*
X10048809Y8117181D01*
X10048809Y8117181D02*
X9953571Y7974324D01*
X9953571Y7974324D02*
X9858333Y7879086D01*
X9858333Y7879086D02*
X9763095Y7831467D01*
X5072142Y21870181D02*
X4738809Y22346372D01*
X4500714Y21870181D02*
X4500714Y22870181D01*
X4500714Y22870181D02*
X4881666Y22870181D01*
X4881666Y22870181D02*
X4976904Y22822562D01*
X4976904Y22822562D02*
X5024523Y22774943D01*
X5024523Y22774943D02*
X5072142Y22679705D01*
X5072142Y22679705D02*
X5072142Y22536848D01*
X5072142Y22536848D02*
X5024523Y22441610D01*
X5024523Y22441610D02*
X4976904Y22393991D01*
X4976904Y22393991D02*
X4881666Y22346372D01*
X4881666Y22346372D02*
X4500714Y22346372D01*
X6024523Y21870181D02*
X5453095Y21870181D01*
X5738809Y21870181D02*
X5738809Y22870181D01*
X5738809Y22870181D02*
X5643571Y22727324D01*
X5643571Y22727324D02*
X5548333Y22632086D01*
X5548333Y22632086D02*
X5453095Y22584467D01*
X6357857Y22870181D02*
X6976904Y22870181D01*
X6976904Y22870181D02*
X6643571Y22489229D01*
X6643571Y22489229D02*
X6786428Y22489229D01*
X6786428Y22489229D02*
X6881666Y22441610D01*
X6881666Y22441610D02*
X6929285Y22393991D01*
X6929285Y22393991D02*
X6976904Y22298753D01*
X6976904Y22298753D02*
X6976904Y22060658D01*
X6976904Y22060658D02*
X6929285Y21965420D01*
X6929285Y21965420D02*
X6881666Y21917800D01*
X6881666Y21917800D02*
X6786428Y21870181D01*
X6786428Y21870181D02*
X6500714Y21870181D01*
X6500714Y21870181D02*
X6405476Y21917800D01*
X6405476Y21917800D02*
X6357857Y21965420D01*
X-956667Y56138420D02*
X-1004286Y56090800D01*
X-1004286Y56090800D02*
X-1147143Y56043181D01*
X-1147143Y56043181D02*
X-1242381Y56043181D01*
X-1242381Y56043181D02*
X-1385238Y56090800D01*
X-1385238Y56090800D02*
X-1480476Y56186039D01*
X-1480476Y56186039D02*
X-1528095Y56281277D01*
X-1528095Y56281277D02*
X-1575714Y56471753D01*
X-1575714Y56471753D02*
X-1575714Y56614610D01*
X-1575714Y56614610D02*
X-1528095Y56805086D01*
X-1528095Y56805086D02*
X-1480476Y56900324D01*
X-1480476Y56900324D02*
X-1385238Y56995562D01*
X-1385238Y56995562D02*
X-1242381Y57043181D01*
X-1242381Y57043181D02*
X-1147143Y57043181D01*
X-1147143Y57043181D02*
X-1004286Y56995562D01*
X-1004286Y56995562D02*
X-956667Y56947943D01*
X-623333Y57043181D02*
X43333Y57043181D01*
X43333Y57043181D02*
X-385238Y56043181D01*
X-915667Y60252420D02*
X-963286Y60204800D01*
X-963286Y60204800D02*
X-1106143Y60157181D01*
X-1106143Y60157181D02*
X-1201381Y60157181D01*
X-1201381Y60157181D02*
X-1344238Y60204800D01*
X-1344238Y60204800D02*
X-1439476Y60300039D01*
X-1439476Y60300039D02*
X-1487095Y60395277D01*
X-1487095Y60395277D02*
X-1534714Y60585753D01*
X-1534714Y60585753D02*
X-1534714Y60728610D01*
X-1534714Y60728610D02*
X-1487095Y60919086D01*
X-1487095Y60919086D02*
X-1439476Y61014324D01*
X-1439476Y61014324D02*
X-1344238Y61109562D01*
X-1344238Y61109562D02*
X-1201381Y61157181D01*
X-1201381Y61157181D02*
X-1106143Y61157181D01*
X-1106143Y61157181D02*
X-963286Y61109562D01*
X-963286Y61109562D02*
X-915667Y61061943D01*
X36714Y60157181D02*
X-534714Y60157181D01*
X-249000Y60157181D02*
X-249000Y61157181D01*
X-249000Y61157181D02*
X-344238Y61014324D01*
X-344238Y61014324D02*
X-439476Y60919086D01*
X-439476Y60919086D02*
X-534714Y60871467D01*
X7294642Y11710181D02*
X6961309Y12186372D01*
X6723214Y11710181D02*
X6723214Y12710181D01*
X6723214Y12710181D02*
X7104166Y12710181D01*
X7104166Y12710181D02*
X7199404Y12662562D01*
X7199404Y12662562D02*
X7247023Y12614943D01*
X7247023Y12614943D02*
X7294642Y12519705D01*
X7294642Y12519705D02*
X7294642Y12376848D01*
X7294642Y12376848D02*
X7247023Y12281610D01*
X7247023Y12281610D02*
X7199404Y12233991D01*
X7199404Y12233991D02*
X7104166Y12186372D01*
X7104166Y12186372D02*
X6723214Y12186372D01*
X8247023Y11710181D02*
X7675595Y11710181D01*
X7961309Y11710181D02*
X7961309Y12710181D01*
X7961309Y12710181D02*
X7866071Y12567324D01*
X7866071Y12567324D02*
X7770833Y12472086D01*
X7770833Y12472086D02*
X7675595Y12424467D01*
X8723214Y11710181D02*
X8913690Y11710181D01*
X8913690Y11710181D02*
X9008928Y11757800D01*
X9008928Y11757800D02*
X9056547Y11805420D01*
X9056547Y11805420D02*
X9151785Y11948277D01*
X9151785Y11948277D02*
X9199404Y12138753D01*
X9199404Y12138753D02*
X9199404Y12519705D01*
X9199404Y12519705D02*
X9151785Y12614943D01*
X9151785Y12614943D02*
X9104166Y12662562D01*
X9104166Y12662562D02*
X9008928Y12710181D01*
X9008928Y12710181D02*
X8818452Y12710181D01*
X8818452Y12710181D02*
X8723214Y12662562D01*
X8723214Y12662562D02*
X8675595Y12614943D01*
X8675595Y12614943D02*
X8627976Y12519705D01*
X8627976Y12519705D02*
X8627976Y12281610D01*
X8627976Y12281610D02*
X8675595Y12186372D01*
X8675595Y12186372D02*
X8723214Y12138753D01*
X8723214Y12138753D02*
X8818452Y12091134D01*
X8818452Y12091134D02*
X9008928Y12091134D01*
X9008928Y12091134D02*
X9104166Y12138753D01*
X9104166Y12138753D02*
X9151785Y12186372D01*
X9151785Y12186372D02*
X9199404Y12281610D01*
X11467319Y12057143D02*
X10991128Y11723810D01*
X11467319Y11485715D02*
X10467319Y11485715D01*
X10467319Y11485715D02*
X10467319Y11866667D01*
X10467319Y11866667D02*
X10514938Y11961905D01*
X10514938Y11961905D02*
X10562557Y12009524D01*
X10562557Y12009524D02*
X10657795Y12057143D01*
X10657795Y12057143D02*
X10800652Y12057143D01*
X10800652Y12057143D02*
X10895890Y12009524D01*
X10895890Y12009524D02*
X10943509Y11961905D01*
X10943509Y11961905D02*
X10991128Y11866667D01*
X10991128Y11866667D02*
X10991128Y11485715D01*
X11467319Y13009524D02*
X11467319Y12438096D01*
X11467319Y12723810D02*
X10467319Y12723810D01*
X10467319Y12723810D02*
X10610176Y12628572D01*
X10610176Y12628572D02*
X10705414Y12533334D01*
X10705414Y12533334D02*
X10753033Y12438096D01*
X10467319Y13342858D02*
X10467319Y14009524D01*
X10467319Y14009524D02*
X11467319Y13580953D01*
X14160595Y17450181D02*
X14160595Y16640658D01*
X14160595Y16640658D02*
X14208214Y16545420D01*
X14208214Y16545420D02*
X14255833Y16497800D01*
X14255833Y16497800D02*
X14351071Y16450181D01*
X14351071Y16450181D02*
X14541547Y16450181D01*
X14541547Y16450181D02*
X14636785Y16497800D01*
X14636785Y16497800D02*
X14684404Y16545420D01*
X14684404Y16545420D02*
X14732023Y16640658D01*
X14732023Y16640658D02*
X14732023Y17450181D01*
X15684404Y17450181D02*
X15208214Y17450181D01*
X15208214Y17450181D02*
X15160595Y16973991D01*
X15160595Y16973991D02*
X15208214Y17021610D01*
X15208214Y17021610D02*
X15303452Y17069229D01*
X15303452Y17069229D02*
X15541547Y17069229D01*
X15541547Y17069229D02*
X15636785Y17021610D01*
X15636785Y17021610D02*
X15684404Y16973991D01*
X15684404Y16973991D02*
X15732023Y16878753D01*
X15732023Y16878753D02*
X15732023Y16640658D01*
X15732023Y16640658D02*
X15684404Y16545420D01*
X15684404Y16545420D02*
X15636785Y16497800D01*
X15636785Y16497800D02*
X15541547Y16450181D01*
X15541547Y16450181D02*
X15303452Y16450181D01*
X15303452Y16450181D02*
X15208214Y16497800D01*
X15208214Y16497800D02*
X15160595Y16545420D01*
X14279642Y12780181D02*
X13946309Y13256372D01*
X13708214Y12780181D02*
X13708214Y13780181D01*
X13708214Y13780181D02*
X14089166Y13780181D01*
X14089166Y13780181D02*
X14184404Y13732562D01*
X14184404Y13732562D02*
X14232023Y13684943D01*
X14232023Y13684943D02*
X14279642Y13589705D01*
X14279642Y13589705D02*
X14279642Y13446848D01*
X14279642Y13446848D02*
X14232023Y13351610D01*
X14232023Y13351610D02*
X14184404Y13303991D01*
X14184404Y13303991D02*
X14089166Y13256372D01*
X14089166Y13256372D02*
X13708214Y13256372D01*
X15232023Y12780181D02*
X14660595Y12780181D01*
X14946309Y12780181D02*
X14946309Y13780181D01*
X14946309Y13780181D02*
X14851071Y13637324D01*
X14851071Y13637324D02*
X14755833Y13542086D01*
X14755833Y13542086D02*
X14660595Y13494467D01*
X16089166Y13780181D02*
X15898690Y13780181D01*
X15898690Y13780181D02*
X15803452Y13732562D01*
X15803452Y13732562D02*
X15755833Y13684943D01*
X15755833Y13684943D02*
X15660595Y13542086D01*
X15660595Y13542086D02*
X15612976Y13351610D01*
X15612976Y13351610D02*
X15612976Y12970658D01*
X15612976Y12970658D02*
X15660595Y12875420D01*
X15660595Y12875420D02*
X15708214Y12827800D01*
X15708214Y12827800D02*
X15803452Y12780181D01*
X15803452Y12780181D02*
X15993928Y12780181D01*
X15993928Y12780181D02*
X16089166Y12827800D01*
X16089166Y12827800D02*
X16136785Y12875420D01*
X16136785Y12875420D02*
X16184404Y12970658D01*
X16184404Y12970658D02*
X16184404Y13208753D01*
X16184404Y13208753D02*
X16136785Y13303991D01*
X16136785Y13303991D02*
X16089166Y13351610D01*
X16089166Y13351610D02*
X15993928Y13399229D01*
X15993928Y13399229D02*
X15803452Y13399229D01*
X15803452Y13399229D02*
X15708214Y13351610D01*
X15708214Y13351610D02*
X15660595Y13303991D01*
X15660595Y13303991D02*
X15612976Y13208753D01*
X23109580Y9358334D02*
X23157200Y9310715D01*
X23157200Y9310715D02*
X23204819Y9167858D01*
X23204819Y9167858D02*
X23204819Y9072620D01*
X23204819Y9072620D02*
X23157200Y8929763D01*
X23157200Y8929763D02*
X23061961Y8834525D01*
X23061961Y8834525D02*
X22966723Y8786906D01*
X22966723Y8786906D02*
X22776247Y8739287D01*
X22776247Y8739287D02*
X22633390Y8739287D01*
X22633390Y8739287D02*
X22442914Y8786906D01*
X22442914Y8786906D02*
X22347676Y8834525D01*
X22347676Y8834525D02*
X22252438Y8929763D01*
X22252438Y8929763D02*
X22204819Y9072620D01*
X22204819Y9072620D02*
X22204819Y9167858D01*
X22204819Y9167858D02*
X22252438Y9310715D01*
X22252438Y9310715D02*
X22300057Y9358334D01*
X22300057Y9739287D02*
X22252438Y9786906D01*
X22252438Y9786906D02*
X22204819Y9882144D01*
X22204819Y9882144D02*
X22204819Y10120239D01*
X22204819Y10120239D02*
X22252438Y10215477D01*
X22252438Y10215477D02*
X22300057Y10263096D01*
X22300057Y10263096D02*
X22395295Y10310715D01*
X22395295Y10310715D02*
X22490533Y10310715D01*
X22490533Y10310715D02*
X22633390Y10263096D01*
X22633390Y10263096D02*
X23204819Y9691668D01*
X23204819Y9691668D02*
X23204819Y10310715D01*
X11992319Y8579971D02*
X12801842Y8579971D01*
X12801842Y8579971D02*
X12897080Y8627590D01*
X12897080Y8627590D02*
X12944700Y8675209D01*
X12944700Y8675209D02*
X12992319Y8770447D01*
X12992319Y8770447D02*
X12992319Y8960923D01*
X12992319Y8960923D02*
X12944700Y9056161D01*
X12944700Y9056161D02*
X12897080Y9103780D01*
X12897080Y9103780D02*
X12801842Y9151399D01*
X12801842Y9151399D02*
X11992319Y9151399D01*
X12087557Y9579971D02*
X12039938Y9627590D01*
X12039938Y9627590D02*
X11992319Y9722828D01*
X11992319Y9722828D02*
X11992319Y9960923D01*
X11992319Y9960923D02*
X12039938Y10056161D01*
X12039938Y10056161D02*
X12087557Y10103780D01*
X12087557Y10103780D02*
X12182795Y10151399D01*
X12182795Y10151399D02*
X12278033Y10151399D01*
X12278033Y10151399D02*
X12420890Y10103780D01*
X12420890Y10103780D02*
X12992319Y9532352D01*
X12992319Y9532352D02*
X12992319Y10151399D01*
X872330Y51178334D02*
X919950Y51130715D01*
X919950Y51130715D02*
X967569Y50987858D01*
X967569Y50987858D02*
X967569Y50892620D01*
X967569Y50892620D02*
X919950Y50749763D01*
X919950Y50749763D02*
X824711Y50654525D01*
X824711Y50654525D02*
X729473Y50606906D01*
X729473Y50606906D02*
X538997Y50559287D01*
X538997Y50559287D02*
X396140Y50559287D01*
X396140Y50559287D02*
X205664Y50606906D01*
X205664Y50606906D02*
X110426Y50654525D01*
X110426Y50654525D02*
X15188Y50749763D01*
X15188Y50749763D02*
X-32431Y50892620D01*
X-32431Y50892620D02*
X-32431Y50987858D01*
X-32431Y50987858D02*
X15188Y51130715D01*
X15188Y51130715D02*
X62807Y51178334D01*
X300902Y52035477D02*
X967569Y52035477D01*
X-80050Y51797382D02*
X634235Y51559287D01*
X634235Y51559287D02*
X634235Y52178334D01*
X-1677170Y44500334D02*
X-1629550Y44452715D01*
X-1629550Y44452715D02*
X-1581931Y44309858D01*
X-1581931Y44309858D02*
X-1581931Y44214620D01*
X-1581931Y44214620D02*
X-1629550Y44071763D01*
X-1629550Y44071763D02*
X-1724789Y43976525D01*
X-1724789Y43976525D02*
X-1820027Y43928906D01*
X-1820027Y43928906D02*
X-2010503Y43881287D01*
X-2010503Y43881287D02*
X-2153360Y43881287D01*
X-2153360Y43881287D02*
X-2343836Y43928906D01*
X-2343836Y43928906D02*
X-2439074Y43976525D01*
X-2439074Y43976525D02*
X-2534312Y44071763D01*
X-2534312Y44071763D02*
X-2581931Y44214620D01*
X-2581931Y44214620D02*
X-2581931Y44309858D01*
X-2581931Y44309858D02*
X-2534312Y44452715D01*
X-2534312Y44452715D02*
X-2486693Y44500334D01*
X-2153360Y45071763D02*
X-2200979Y44976525D01*
X-2200979Y44976525D02*
X-2248598Y44928906D01*
X-2248598Y44928906D02*
X-2343836Y44881287D01*
X-2343836Y44881287D02*
X-2391455Y44881287D01*
X-2391455Y44881287D02*
X-2486693Y44928906D01*
X-2486693Y44928906D02*
X-2534312Y44976525D01*
X-2534312Y44976525D02*
X-2581931Y45071763D01*
X-2581931Y45071763D02*
X-2581931Y45262239D01*
X-2581931Y45262239D02*
X-2534312Y45357477D01*
X-2534312Y45357477D02*
X-2486693Y45405096D01*
X-2486693Y45405096D02*
X-2391455Y45452715D01*
X-2391455Y45452715D02*
X-2343836Y45452715D01*
X-2343836Y45452715D02*
X-2248598Y45405096D01*
X-2248598Y45405096D02*
X-2200979Y45357477D01*
X-2200979Y45357477D02*
X-2153360Y45262239D01*
X-2153360Y45262239D02*
X-2153360Y45071763D01*
X-2153360Y45071763D02*
X-2105741Y44976525D01*
X-2105741Y44976525D02*
X-2058122Y44928906D01*
X-2058122Y44928906D02*
X-1962884Y44881287D01*
X-1962884Y44881287D02*
X-1772408Y44881287D01*
X-1772408Y44881287D02*
X-1677170Y44928906D01*
X-1677170Y44928906D02*
X-1629550Y44976525D01*
X-1629550Y44976525D02*
X-1581931Y45071763D01*
X-1581931Y45071763D02*
X-1581931Y45262239D01*
X-1581931Y45262239D02*
X-1629550Y45357477D01*
X-1629550Y45357477D02*
X-1677170Y45405096D01*
X-1677170Y45405096D02*
X-1772408Y45452715D01*
X-1772408Y45452715D02*
X-1962884Y45452715D01*
X-1962884Y45452715D02*
X-2058122Y45405096D01*
X-2058122Y45405096D02*
X-2105741Y45357477D01*
X-2105741Y45357477D02*
X-2153360Y45262239D01*
X-4261181Y18110667D02*
X-3546896Y18110667D01*
X-3546896Y18110667D02*
X-3404039Y18063048D01*
X-3404039Y18063048D02*
X-3308800Y17967810D01*
X-3308800Y17967810D02*
X-3261181Y17824953D01*
X-3261181Y17824953D02*
X-3261181Y17729715D01*
X-4261181Y18491620D02*
X-4261181Y19110667D01*
X-4261181Y19110667D02*
X-3880229Y18777334D01*
X-3880229Y18777334D02*
X-3880229Y18920191D01*
X-3880229Y18920191D02*
X-3832610Y19015429D01*
X-3832610Y19015429D02*
X-3784991Y19063048D01*
X-3784991Y19063048D02*
X-3689753Y19110667D01*
X-3689753Y19110667D02*
X-3451658Y19110667D01*
X-3451658Y19110667D02*
X-3356420Y19063048D01*
X-3356420Y19063048D02*
X-3308800Y19015429D01*
X-3308800Y19015429D02*
X-3261181Y18920191D01*
X-3261181Y18920191D02*
X-3261181Y18634477D01*
X-3261181Y18634477D02*
X-3308800Y18539239D01*
X-3308800Y18539239D02*
X-3356420Y18491620D01*
X4999819Y4119643D02*
X4523628Y3786310D01*
X4999819Y3548215D02*
X3999819Y3548215D01*
X3999819Y3548215D02*
X3999819Y3929167D01*
X3999819Y3929167D02*
X4047438Y4024405D01*
X4047438Y4024405D02*
X4095057Y4072024D01*
X4095057Y4072024D02*
X4190295Y4119643D01*
X4190295Y4119643D02*
X4333152Y4119643D01*
X4333152Y4119643D02*
X4428390Y4072024D01*
X4428390Y4072024D02*
X4476009Y4024405D01*
X4476009Y4024405D02*
X4523628Y3929167D01*
X4523628Y3929167D02*
X4523628Y3548215D01*
X4999819Y5072024D02*
X4999819Y4500596D01*
X4999819Y4786310D02*
X3999819Y4786310D01*
X3999819Y4786310D02*
X4142676Y4691072D01*
X4142676Y4691072D02*
X4237914Y4595834D01*
X4237914Y4595834D02*
X4285533Y4500596D01*
X4999819Y6024405D02*
X4999819Y5452977D01*
X4999819Y5738691D02*
X3999819Y5738691D01*
X3999819Y5738691D02*
X4142676Y5643453D01*
X4142676Y5643453D02*
X4237914Y5548215D01*
X4237914Y5548215D02*
X4285533Y5452977D01*
X18769819Y4119643D02*
X18293628Y3786310D01*
X18769819Y3548215D02*
X17769819Y3548215D01*
X17769819Y3548215D02*
X17769819Y3929167D01*
X17769819Y3929167D02*
X17817438Y4024405D01*
X17817438Y4024405D02*
X17865057Y4072024D01*
X17865057Y4072024D02*
X17960295Y4119643D01*
X17960295Y4119643D02*
X18103152Y4119643D01*
X18103152Y4119643D02*
X18198390Y4072024D01*
X18198390Y4072024D02*
X18246009Y4024405D01*
X18246009Y4024405D02*
X18293628Y3929167D01*
X18293628Y3929167D02*
X18293628Y3548215D01*
X18769819Y5072024D02*
X18769819Y4500596D01*
X18769819Y4786310D02*
X17769819Y4786310D01*
X17769819Y4786310D02*
X17912676Y4691072D01*
X17912676Y4691072D02*
X18007914Y4595834D01*
X18007914Y4595834D02*
X18055533Y4500596D01*
X17769819Y5691072D02*
X17769819Y5786310D01*
X17769819Y5786310D02*
X17817438Y5881548D01*
X17817438Y5881548D02*
X17865057Y5929167D01*
X17865057Y5929167D02*
X17960295Y5976786D01*
X17960295Y5976786D02*
X18150771Y6024405D01*
X18150771Y6024405D02*
X18388866Y6024405D01*
X18388866Y6024405D02*
X18579342Y5976786D01*
X18579342Y5976786D02*
X18674580Y5929167D01*
X18674580Y5929167D02*
X18722200Y5881548D01*
X18722200Y5881548D02*
X18769819Y5786310D01*
X18769819Y5786310D02*
X18769819Y5691072D01*
X18769819Y5691072D02*
X18722200Y5595834D01*
X18722200Y5595834D02*
X18674580Y5548215D01*
X18674580Y5548215D02*
X18579342Y5500596D01*
X18579342Y5500596D02*
X18388866Y5452977D01*
X18388866Y5452977D02*
X18150771Y5452977D01*
X18150771Y5452977D02*
X17960295Y5500596D01*
X17960295Y5500596D02*
X17865057Y5548215D01*
X17865057Y5548215D02*
X17817438Y5595834D01*
X17817438Y5595834D02*
X17769819Y5691072D01*
X8529142Y28994420D02*
X8481523Y28946800D01*
X8481523Y28946800D02*
X8338666Y28899181D01*
X8338666Y28899181D02*
X8243428Y28899181D01*
X8243428Y28899181D02*
X8100571Y28946800D01*
X8100571Y28946800D02*
X8005333Y29042039D01*
X8005333Y29042039D02*
X7957714Y29137277D01*
X7957714Y29137277D02*
X7910095Y29327753D01*
X7910095Y29327753D02*
X7910095Y29470610D01*
X7910095Y29470610D02*
X7957714Y29661086D01*
X7957714Y29661086D02*
X8005333Y29756324D01*
X8005333Y29756324D02*
X8100571Y29851562D01*
X8100571Y29851562D02*
X8243428Y29899181D01*
X8243428Y29899181D02*
X8338666Y29899181D01*
X8338666Y29899181D02*
X8481523Y29851562D01*
X8481523Y29851562D02*
X8529142Y29803943D01*
X9481523Y28899181D02*
X8910095Y28899181D01*
X9195809Y28899181D02*
X9195809Y29899181D01*
X9195809Y29899181D02*
X9100571Y29756324D01*
X9100571Y29756324D02*
X9005333Y29661086D01*
X9005333Y29661086D02*
X8910095Y29613467D01*
X10433904Y28899181D02*
X9862476Y28899181D01*
X10148190Y28899181D02*
X10148190Y29899181D01*
X10148190Y29899181D02*
X10052952Y29756324D01*
X10052952Y29756324D02*
X9957714Y29661086D01*
X9957714Y29661086D02*
X9862476Y29613467D01*
X16093142Y22898420D02*
X16045523Y22850800D01*
X16045523Y22850800D02*
X15902666Y22803181D01*
X15902666Y22803181D02*
X15807428Y22803181D01*
X15807428Y22803181D02*
X15664571Y22850800D01*
X15664571Y22850800D02*
X15569333Y22946039D01*
X15569333Y22946039D02*
X15521714Y23041277D01*
X15521714Y23041277D02*
X15474095Y23231753D01*
X15474095Y23231753D02*
X15474095Y23374610D01*
X15474095Y23374610D02*
X15521714Y23565086D01*
X15521714Y23565086D02*
X15569333Y23660324D01*
X15569333Y23660324D02*
X15664571Y23755562D01*
X15664571Y23755562D02*
X15807428Y23803181D01*
X15807428Y23803181D02*
X15902666Y23803181D01*
X15902666Y23803181D02*
X16045523Y23755562D01*
X16045523Y23755562D02*
X16093142Y23707943D01*
X17045523Y22803181D02*
X16474095Y22803181D01*
X16759809Y22803181D02*
X16759809Y23803181D01*
X16759809Y23803181D02*
X16664571Y23660324D01*
X16664571Y23660324D02*
X16569333Y23565086D01*
X16569333Y23565086D02*
X16474095Y23517467D01*
X17950285Y23803181D02*
X17474095Y23803181D01*
X17474095Y23803181D02*
X17426476Y23326991D01*
X17426476Y23326991D02*
X17474095Y23374610D01*
X17474095Y23374610D02*
X17569333Y23422229D01*
X17569333Y23422229D02*
X17807428Y23422229D01*
X17807428Y23422229D02*
X17902666Y23374610D01*
X17902666Y23374610D02*
X17950285Y23326991D01*
X17950285Y23326991D02*
X17997904Y23231753D01*
X17997904Y23231753D02*
X17997904Y22993658D01*
X17997904Y22993658D02*
X17950285Y22898420D01*
X17950285Y22898420D02*
X17902666Y22850800D01*
X17902666Y22850800D02*
X17807428Y22803181D01*
X17807428Y22803181D02*
X17569333Y22803181D01*
X17569333Y22803181D02*
X17474095Y22850800D01*
X17474095Y22850800D02*
X17426476Y22898420D01*
X19096819Y29549334D02*
X18620628Y29216001D01*
X19096819Y28977906D02*
X18096819Y28977906D01*
X18096819Y28977906D02*
X18096819Y29358858D01*
X18096819Y29358858D02*
X18144438Y29454096D01*
X18144438Y29454096D02*
X18192057Y29501715D01*
X18192057Y29501715D02*
X18287295Y29549334D01*
X18287295Y29549334D02*
X18430152Y29549334D01*
X18430152Y29549334D02*
X18525390Y29501715D01*
X18525390Y29501715D02*
X18573009Y29454096D01*
X18573009Y29454096D02*
X18620628Y29358858D01*
X18620628Y29358858D02*
X18620628Y28977906D01*
X18525390Y30120763D02*
X18477771Y30025525D01*
X18477771Y30025525D02*
X18430152Y29977906D01*
X18430152Y29977906D02*
X18334914Y29930287D01*
X18334914Y29930287D02*
X18287295Y29930287D01*
X18287295Y29930287D02*
X18192057Y29977906D01*
X18192057Y29977906D02*
X18144438Y30025525D01*
X18144438Y30025525D02*
X18096819Y30120763D01*
X18096819Y30120763D02*
X18096819Y30311239D01*
X18096819Y30311239D02*
X18144438Y30406477D01*
X18144438Y30406477D02*
X18192057Y30454096D01*
X18192057Y30454096D02*
X18287295Y30501715D01*
X18287295Y30501715D02*
X18334914Y30501715D01*
X18334914Y30501715D02*
X18430152Y30454096D01*
X18430152Y30454096D02*
X18477771Y30406477D01*
X18477771Y30406477D02*
X18525390Y30311239D01*
X18525390Y30311239D02*
X18525390Y30120763D01*
X18525390Y30120763D02*
X18573009Y30025525D01*
X18573009Y30025525D02*
X18620628Y29977906D01*
X18620628Y29977906D02*
X18715866Y29930287D01*
X18715866Y29930287D02*
X18906342Y29930287D01*
X18906342Y29930287D02*
X19001580Y29977906D01*
X19001580Y29977906D02*
X19049200Y30025525D01*
X19049200Y30025525D02*
X19096819Y30120763D01*
X19096819Y30120763D02*
X19096819Y30311239D01*
X19096819Y30311239D02*
X19049200Y30406477D01*
X19049200Y30406477D02*
X19001580Y30454096D01*
X19001580Y30454096D02*
X18906342Y30501715D01*
X18906342Y30501715D02*
X18715866Y30501715D01*
X18715866Y30501715D02*
X18620628Y30454096D01*
X18620628Y30454096D02*
X18573009Y30406477D01*
X18573009Y30406477D02*
X18525390Y30311239D01*
X20315580Y29579334D02*
X20363200Y29531715D01*
X20363200Y29531715D02*
X20410819Y29388858D01*
X20410819Y29388858D02*
X20410819Y29293620D01*
X20410819Y29293620D02*
X20363200Y29150763D01*
X20363200Y29150763D02*
X20267961Y29055525D01*
X20267961Y29055525D02*
X20172723Y29007906D01*
X20172723Y29007906D02*
X19982247Y28960287D01*
X19982247Y28960287D02*
X19839390Y28960287D01*
X19839390Y28960287D02*
X19648914Y29007906D01*
X19648914Y29007906D02*
X19553676Y29055525D01*
X19553676Y29055525D02*
X19458438Y29150763D01*
X19458438Y29150763D02*
X19410819Y29293620D01*
X19410819Y29293620D02*
X19410819Y29388858D01*
X19410819Y29388858D02*
X19458438Y29531715D01*
X19458438Y29531715D02*
X19506057Y29579334D01*
X19410819Y30436477D02*
X19410819Y30246001D01*
X19410819Y30246001D02*
X19458438Y30150763D01*
X19458438Y30150763D02*
X19506057Y30103144D01*
X19506057Y30103144D02*
X19648914Y30007906D01*
X19648914Y30007906D02*
X19839390Y29960287D01*
X19839390Y29960287D02*
X20220342Y29960287D01*
X20220342Y29960287D02*
X20315580Y30007906D01*
X20315580Y30007906D02*
X20363200Y30055525D01*
X20363200Y30055525D02*
X20410819Y30150763D01*
X20410819Y30150763D02*
X20410819Y30341239D01*
X20410819Y30341239D02*
X20363200Y30436477D01*
X20363200Y30436477D02*
X20315580Y30484096D01*
X20315580Y30484096D02*
X20220342Y30531715D01*
X20220342Y30531715D02*
X19982247Y30531715D01*
X19982247Y30531715D02*
X19887009Y30484096D01*
X19887009Y30484096D02*
X19839390Y30436477D01*
X19839390Y30436477D02*
X19791771Y30341239D01*
X19791771Y30341239D02*
X19791771Y30150763D01*
X19791771Y30150763D02*
X19839390Y30055525D01*
X19839390Y30055525D02*
X19887009Y30007906D01*
X19887009Y30007906D02*
X19982247Y29960287D01*
X5072142Y28740420D02*
X5024523Y28692800D01*
X5024523Y28692800D02*
X4881666Y28645181D01*
X4881666Y28645181D02*
X4786428Y28645181D01*
X4786428Y28645181D02*
X4643571Y28692800D01*
X4643571Y28692800D02*
X4548333Y28788039D01*
X4548333Y28788039D02*
X4500714Y28883277D01*
X4500714Y28883277D02*
X4453095Y29073753D01*
X4453095Y29073753D02*
X4453095Y29216610D01*
X4453095Y29216610D02*
X4500714Y29407086D01*
X4500714Y29407086D02*
X4548333Y29502324D01*
X4548333Y29502324D02*
X4643571Y29597562D01*
X4643571Y29597562D02*
X4786428Y29645181D01*
X4786428Y29645181D02*
X4881666Y29645181D01*
X4881666Y29645181D02*
X5024523Y29597562D01*
X5024523Y29597562D02*
X5072142Y29549943D01*
X6024523Y28645181D02*
X5453095Y28645181D01*
X5738809Y28645181D02*
X5738809Y29645181D01*
X5738809Y29645181D02*
X5643571Y29502324D01*
X5643571Y29502324D02*
X5548333Y29407086D01*
X5548333Y29407086D02*
X5453095Y29359467D01*
X6643571Y29645181D02*
X6738809Y29645181D01*
X6738809Y29645181D02*
X6834047Y29597562D01*
X6834047Y29597562D02*
X6881666Y29549943D01*
X6881666Y29549943D02*
X6929285Y29454705D01*
X6929285Y29454705D02*
X6976904Y29264229D01*
X6976904Y29264229D02*
X6976904Y29026134D01*
X6976904Y29026134D02*
X6929285Y28835658D01*
X6929285Y28835658D02*
X6881666Y28740420D01*
X6881666Y28740420D02*
X6834047Y28692800D01*
X6834047Y28692800D02*
X6738809Y28645181D01*
X6738809Y28645181D02*
X6643571Y28645181D01*
X6643571Y28645181D02*
X6548333Y28692800D01*
X6548333Y28692800D02*
X6500714Y28740420D01*
X6500714Y28740420D02*
X6453095Y28835658D01*
X6453095Y28835658D02*
X6405476Y29026134D01*
X6405476Y29026134D02*
X6405476Y29264229D01*
X6405476Y29264229D02*
X6453095Y29454705D01*
X6453095Y29454705D02*
X6500714Y29549943D01*
X6500714Y29549943D02*
X6548333Y29597562D01*
X6548333Y29597562D02*
X6643571Y29645181D01*
X6947333Y22051181D02*
X6614000Y22527372D01*
X6375905Y22051181D02*
X6375905Y23051181D01*
X6375905Y23051181D02*
X6756857Y23051181D01*
X6756857Y23051181D02*
X6852095Y23003562D01*
X6852095Y23003562D02*
X6899714Y22955943D01*
X6899714Y22955943D02*
X6947333Y22860705D01*
X6947333Y22860705D02*
X6947333Y22717848D01*
X6947333Y22717848D02*
X6899714Y22622610D01*
X6899714Y22622610D02*
X6852095Y22574991D01*
X6852095Y22574991D02*
X6756857Y22527372D01*
X6756857Y22527372D02*
X6375905Y22527372D01*
X7280667Y23051181D02*
X7899714Y23051181D01*
X7899714Y23051181D02*
X7566381Y22670229D01*
X7566381Y22670229D02*
X7709238Y22670229D01*
X7709238Y22670229D02*
X7804476Y22622610D01*
X7804476Y22622610D02*
X7852095Y22574991D01*
X7852095Y22574991D02*
X7899714Y22479753D01*
X7899714Y22479753D02*
X7899714Y22241658D01*
X7899714Y22241658D02*
X7852095Y22146420D01*
X7852095Y22146420D02*
X7804476Y22098800D01*
X7804476Y22098800D02*
X7709238Y22051181D01*
X7709238Y22051181D02*
X7423524Y22051181D01*
X7423524Y22051181D02*
X7328286Y22098800D01*
X7328286Y22098800D02*
X7280667Y22146420D01*
X8882142Y27470420D02*
X8834523Y27422800D01*
X8834523Y27422800D02*
X8691666Y27375181D01*
X8691666Y27375181D02*
X8596428Y27375181D01*
X8596428Y27375181D02*
X8453571Y27422800D01*
X8453571Y27422800D02*
X8358333Y27518039D01*
X8358333Y27518039D02*
X8310714Y27613277D01*
X8310714Y27613277D02*
X8263095Y27803753D01*
X8263095Y27803753D02*
X8263095Y27946610D01*
X8263095Y27946610D02*
X8310714Y28137086D01*
X8310714Y28137086D02*
X8358333Y28232324D01*
X8358333Y28232324D02*
X8453571Y28327562D01*
X8453571Y28327562D02*
X8596428Y28375181D01*
X8596428Y28375181D02*
X8691666Y28375181D01*
X8691666Y28375181D02*
X8834523Y28327562D01*
X8834523Y28327562D02*
X8882142Y28279943D01*
X9834523Y27375181D02*
X9263095Y27375181D01*
X9548809Y27375181D02*
X9548809Y28375181D01*
X9548809Y28375181D02*
X9453571Y28232324D01*
X9453571Y28232324D02*
X9358333Y28137086D01*
X9358333Y28137086D02*
X9263095Y28089467D01*
X10167857Y28375181D02*
X10786904Y28375181D01*
X10786904Y28375181D02*
X10453571Y27994229D01*
X10453571Y27994229D02*
X10596428Y27994229D01*
X10596428Y27994229D02*
X10691666Y27946610D01*
X10691666Y27946610D02*
X10739285Y27898991D01*
X10739285Y27898991D02*
X10786904Y27803753D01*
X10786904Y27803753D02*
X10786904Y27565658D01*
X10786904Y27565658D02*
X10739285Y27470420D01*
X10739285Y27470420D02*
X10691666Y27422800D01*
X10691666Y27422800D02*
X10596428Y27375181D01*
X10596428Y27375181D02*
X10310714Y27375181D01*
X10310714Y27375181D02*
X10215476Y27422800D01*
X10215476Y27422800D02*
X10167857Y27470420D01*
X12855667Y31163800D02*
X12998524Y31116181D01*
X12998524Y31116181D02*
X13236619Y31116181D01*
X13236619Y31116181D02*
X13331857Y31163800D01*
X13331857Y31163800D02*
X13379476Y31211420D01*
X13379476Y31211420D02*
X13427095Y31306658D01*
X13427095Y31306658D02*
X13427095Y31401896D01*
X13427095Y31401896D02*
X13379476Y31497134D01*
X13379476Y31497134D02*
X13331857Y31544753D01*
X13331857Y31544753D02*
X13236619Y31592372D01*
X13236619Y31592372D02*
X13046143Y31639991D01*
X13046143Y31639991D02*
X12950905Y31687610D01*
X12950905Y31687610D02*
X12903286Y31735229D01*
X12903286Y31735229D02*
X12855667Y31830467D01*
X12855667Y31830467D02*
X12855667Y31925705D01*
X12855667Y31925705D02*
X12903286Y32020943D01*
X12903286Y32020943D02*
X12950905Y32068562D01*
X12950905Y32068562D02*
X13046143Y32116181D01*
X13046143Y32116181D02*
X13284238Y32116181D01*
X13284238Y32116181D02*
X13427095Y32068562D01*
X13760429Y32116181D02*
X13998524Y31116181D01*
X13998524Y31116181D02*
X14189000Y31830467D01*
X14189000Y31830467D02*
X14379476Y31116181D01*
X14379476Y31116181D02*
X14617572Y32116181D01*
X14950905Y32020943D02*
X14998524Y32068562D01*
X14998524Y32068562D02*
X15093762Y32116181D01*
X15093762Y32116181D02*
X15331857Y32116181D01*
X15331857Y32116181D02*
X15427095Y32068562D01*
X15427095Y32068562D02*
X15474714Y32020943D01*
X15474714Y32020943D02*
X15522333Y31925705D01*
X15522333Y31925705D02*
X15522333Y31830467D01*
X15522333Y31830467D02*
X15474714Y31687610D01*
X15474714Y31687610D02*
X14903286Y31116181D01*
X14903286Y31116181D02*
X15522333Y31116181D01*
D11*
%TO.C,SW1*%
X11239000Y22447000D02*
X13139000Y22447000D01*
X13139000Y22447000D02*
X14041000Y21545000D01*
X14041000Y21545000D02*
X14041000Y19747000D01*
X14041000Y19747000D02*
X13040000Y18746000D01*
X13040000Y18746000D02*
X11341000Y18746000D01*
X11341000Y18746000D02*
X10439000Y19648000D01*
X10439000Y19648000D02*
X10439000Y21647000D01*
X10439000Y21647000D02*
X11239000Y22447000D01*
X13515000Y23196000D02*
X14410000Y22301000D01*
X14790000Y21814500D02*
X14790000Y19477500D01*
X14410000Y18991000D02*
X13515000Y18096000D01*
X9690000Y21814500D02*
X9690000Y19477500D01*
X10070000Y18991000D02*
X10965000Y18096000D01*
X10965000Y23196000D02*
X10070000Y22301000D01*
X10965000Y18096000D02*
X13515000Y18096000D01*
X10965000Y23196000D02*
X13515000Y23196000D01*
X13515000Y20646000D02*
G75*
G02*
X10965000Y20646000I-1275000J0D01*
G01*
X10965000Y20646000D02*
G75*
G02*
X13515000Y20646000I1275000J0D01*
G01*
%TO.C,X1*%
X762000Y48508000D02*
X762000Y47492000D01*
X-762000Y47492000D02*
X-762000Y48508000D01*
%TO.C,USB2*%
X6954000Y2114500D02*
X6954000Y3977000D01*
X15894000Y-1604000D02*
X6954000Y-1604000D01*
X6954000Y-1604000D02*
X6954000Y-122500D01*
X15894000Y2114000D02*
X15894000Y3977500D01*
X15894000Y-1604000D02*
X15894000Y-122500D01*
%TO.C,U3*%
X19857000Y59118500D02*
X19857000Y64003000D01*
X19857000Y64003000D02*
X17622000Y64003000D01*
X17825000Y59118500D02*
X17825000Y64003000D01*
X17825000Y64003000D02*
X14973000Y64003000D01*
X14973000Y64003000D02*
X14973000Y61844000D01*
X14973000Y61844000D02*
X12433000Y61844000D01*
X12433000Y61844000D02*
X12433000Y64003000D01*
X12433000Y64003000D02*
X9893000Y64003000D01*
X9893000Y64003000D02*
X9893000Y61844000D01*
X9893000Y61844000D02*
X7607000Y61844000D01*
X7607000Y61844000D02*
X7607000Y64003000D01*
X7607000Y64003000D02*
X5321000Y64003000D01*
X5321000Y64003000D02*
X5321000Y60320000D01*
X3560000Y59118500D02*
X21577000Y59118500D01*
X21577000Y58339000D02*
X21577000Y65146000D01*
X20226000Y39619000D02*
X21577000Y39619000D01*
X21577000Y39619000D02*
X21577000Y40467000D01*
X3560000Y40467000D02*
X3560000Y39619000D01*
X3560000Y39619000D02*
X4894000Y39619000D01*
X3560000Y65158000D02*
X3560000Y58339000D01*
X21560000Y65158000D02*
X3560000Y65158000D01*
D12*
G36*
X5031500Y57863000D02*
G01*
X5031500Y57863000D01*
G75*
G02*
X6088500Y57863000I528500J0D01*
G01*
X6088500Y57863000D01*
G75*
G02*
X5031500Y57863000I-528500J0D01*
G01*
X5031500Y57863000D01*
G37*
D13*
%TO.C,C9*%
X11070000Y14652164D02*
X11070000Y14867836D01*
X11790000Y14652164D02*
X11790000Y14867836D01*
%TO.C,C3*%
X7027500Y9632836D02*
X7027500Y9417164D01*
X6307500Y9632836D02*
X6307500Y9417164D01*
%TO.C,U6*%
X5715000Y27277500D02*
X4915000Y27277500D01*
X5715000Y27277500D02*
X6515000Y27277500D01*
X5715000Y24157500D02*
X4915000Y24157500D01*
X5715000Y24157500D02*
X6515000Y24157500D01*
X4415000Y27227500D02*
X4175000Y27557500D01*
X4655000Y27557500D01*
X4415000Y27227500D01*
G36*
X4415000Y27227500D02*
G01*
X4175000Y27557500D01*
X4655000Y27557500D01*
X4415000Y27227500D01*
G37*
%TO.C,U1*%
X9525000Y8412000D02*
X10325000Y8412000D01*
X9525000Y8412000D02*
X8725000Y8412000D01*
X9525000Y11532000D02*
X10325000Y11532000D01*
X9525000Y11532000D02*
X8725000Y11532000D01*
X11065000Y8132000D02*
X10585000Y8132000D01*
X10825000Y8462000D01*
X11065000Y8132000D01*
G36*
X11065000Y8132000D02*
G01*
X10585000Y8132000D01*
X10825000Y8462000D01*
X11065000Y8132000D01*
G37*
%TO.C,R13*%
X5868641Y23115000D02*
X5561359Y23115000D01*
X5868641Y23875000D02*
X5561359Y23875000D01*
%TO.C,C7*%
X-682164Y57298000D02*
X-897836Y57298000D01*
X-682164Y58018000D02*
X-897836Y58018000D01*
%TO.C,C1*%
X-889580Y59692000D02*
X-608420Y59692000D01*
X-889580Y58672000D02*
X-608420Y58672000D01*
%TO.C,R19*%
X8091141Y12955000D02*
X7783859Y12955000D01*
X8091141Y13715000D02*
X7783859Y13715000D01*
%TO.C,R17*%
X10222500Y12853641D02*
X10222500Y12546359D01*
X9462500Y12853641D02*
X9462500Y12546359D01*
%TO.C,C14*%
X10585336Y7260000D02*
X10369664Y7260000D01*
X10585336Y7980000D02*
X10369664Y7980000D01*
D14*
%TO.C,U5*%
X15822500Y13201000D02*
X15822500Y13055000D01*
X15822500Y14151000D02*
X15822500Y14109000D01*
X15822500Y15101000D02*
X15822500Y15059000D01*
X15822500Y16155000D02*
X15822500Y16009000D01*
X14022500Y13201000D02*
X14022500Y13055000D01*
X14022500Y15101000D02*
X14022500Y14109000D01*
X14022500Y16155000D02*
X14022500Y16009000D01*
X14022500Y16155000D02*
X15822500Y16155000D01*
X14022500Y13055000D02*
X15822500Y13055000D01*
D12*
G36*
X15126500Y13589000D02*
G01*
X15126500Y13589000D01*
G75*
G02*
X15480500Y13589000I177000J2000D01*
G01*
X15480500Y13589000D01*
G75*
G02*
X15126500Y13589000I-177000J-2000D01*
G01*
X15126500Y13589000D01*
G37*
D13*
%TO.C,R16*%
X14768859Y12445000D02*
X15076141Y12445000D01*
X14768859Y11685000D02*
X15076141Y11685000D01*
%TO.C,C12*%
X18775000Y14712836D02*
X18775000Y14497164D01*
X18055000Y14712836D02*
X18055000Y14497164D01*
%TO.C,C2*%
X21950000Y9632836D02*
X21950000Y9417164D01*
X21230000Y9632836D02*
X21230000Y9417164D01*
D15*
%TO.C,U2*%
X15811500Y11051500D02*
X14033500Y11051500D01*
X15811500Y7998500D02*
X14033500Y7998500D01*
D16*
X16374500Y7856500D02*
G75*
G02*
X16073500Y7856500I-150500J0D01*
G01*
X16073500Y7856500D02*
G75*
G02*
X16374500Y7856500I150500J0D01*
G01*
D15*
%TO.C,C4*%
X-263500Y50328500D02*
G75*
G02*
X-416000Y50176502I-151650J-350D01*
G01*
X-416000Y52513500D02*
G75*
G02*
X-263500Y52361500I-356J-152858D01*
G01*
X-1108000Y50176500D02*
G75*
G02*
X-1260498Y50328500I360J152860D01*
G01*
X-1260500Y52361500D02*
G75*
G02*
X-1108000Y52513500I151649J353D01*
G01*
X-263500Y50328500D02*
X-263500Y51119000D01*
X-263500Y52361500D02*
X-263500Y51571000D01*
X-1108000Y50176500D02*
X-416000Y50176500D01*
X-1108000Y52513500D02*
X-416000Y52513500D01*
X-1260500Y51119000D02*
X-1260500Y50328500D01*
X-1260500Y51571000D02*
X-1260500Y52361500D01*
%TO.C,C8*%
X-263500Y43650500D02*
G75*
G02*
X-416000Y43498500I-151649J-353D01*
G01*
X-416000Y45835500D02*
G75*
G02*
X-263502Y45683500I-360J-152860D01*
G01*
X-1108000Y43498500D02*
G75*
G02*
X-1260500Y43650500I356J152858D01*
G01*
X-1260500Y45683500D02*
G75*
G02*
X-1108000Y45835498I151650J350D01*
G01*
X-263500Y44441000D02*
X-263500Y43650500D01*
X-263500Y44893000D02*
X-263500Y45683500D01*
X-416000Y43498500D02*
X-1108000Y43498500D01*
X-416000Y45835500D02*
X-1108000Y45835500D01*
X-1260500Y43650500D02*
X-1260500Y44441000D01*
X-1260500Y45683500D02*
X-1260500Y44893000D01*
D11*
%TO.C,J3*%
X4601000Y20603000D02*
G75*
G02*
X4347000Y20603000I-127000J0D01*
G01*
X4347000Y20603000D02*
G75*
G02*
X4601000Y20603000I127000J0D01*
G01*
X5109000Y14380000D02*
X1215000Y14380000D01*
X5109000Y15269000D02*
X5109000Y14380000D01*
X5109000Y21619000D02*
X3585000Y21619000D01*
X5109000Y22508000D02*
X5109000Y21619000D01*
X3585000Y15269000D02*
X5109000Y15269000D01*
X3585000Y16713000D02*
X3585000Y15269000D01*
X3585000Y21619000D02*
X3585000Y20222000D01*
X1215000Y22508000D02*
X5109000Y22508000D01*
X-2511000Y20863000D02*
X-2511000Y16025000D01*
D13*
%TO.C,R11*%
X5335000Y4608859D02*
X5335000Y4916141D01*
X6095000Y4608859D02*
X6095000Y4916141D01*
%TO.C,R10*%
X17525000Y4916141D02*
X17525000Y4608859D01*
X16765000Y4916141D02*
X16765000Y4608859D01*
%TO.C,U4*%
D17*
X20455327Y8204760D02*
G75*
G02*
X20255327Y8204760I-100000J0D01*
G01*
X20255327Y8204760D02*
G75*
G02*
X20455327Y8204760I100000J0D01*
G01*
D13*
%TO.C,C11*%
X9064164Y28554000D02*
X9279836Y28554000D01*
X9064164Y27834000D02*
X9279836Y27834000D01*
%TO.C,C15*%
X16628164Y22458000D02*
X16843836Y22458000D01*
X16628164Y21738000D02*
X16843836Y21738000D01*
D12*
%TO.C,kibuzzard-65A99A9C*%
G36*
X9385300Y21742400D02*
G01*
X9444831Y21693584D01*
X9465072Y21635244D01*
X9468644Y21562616D01*
X9468644Y21407834D01*
X9625806Y21407834D01*
X9698434Y21404262D01*
X9756775Y21384022D01*
X9805591Y21323300D01*
X9821069Y21207809D01*
X9806781Y21095891D01*
X9760347Y21036359D01*
X9705578Y21016119D01*
X9637713Y21012547D01*
X9468644Y21012547D01*
X9468644Y20855384D01*
X9465072Y20782756D01*
X9444831Y20724416D01*
X9385300Y20675600D01*
X9271000Y20660122D01*
X9159081Y20675600D01*
X9099550Y20725606D01*
X9079309Y20785137D01*
X9075738Y20857766D01*
X9075738Y21012547D01*
X8904288Y21012547D01*
X8836422Y21016119D01*
X8781653Y21036359D01*
X8735219Y21095891D01*
X8720931Y21210191D01*
X8736409Y21324491D01*
X8786416Y21384022D01*
X8847137Y21404262D01*
X8920956Y21407834D01*
X9075738Y21407834D01*
X9075738Y21564997D01*
X9079309Y21637625D01*
X9099550Y21695966D01*
X9159081Y21743591D01*
X9273381Y21757878D01*
X9385300Y21742400D01*
G37*
D13*
%TO.C,R8*%
X19432000Y29562359D02*
X19432000Y29869641D01*
X20192000Y29562359D02*
X20192000Y29869641D01*
%TO.C,R2*%
X17351742Y21096500D02*
X17826258Y21096500D01*
X17351742Y20051500D02*
X17826258Y20051500D01*
%TO.C,R1*%
X17826258Y17794500D02*
X17351742Y17794500D01*
X17826258Y16749500D02*
X17351742Y16749500D01*
%TO.C,C6*%
X18436000Y29853836D02*
X18436000Y29638164D01*
X19156000Y29853836D02*
X19156000Y29638164D01*
%TO.C,C5*%
X17859836Y19156000D02*
X17644164Y19156000D01*
X17859836Y18436000D02*
X17644164Y18436000D01*
D12*
%TO.C,kibuzzard-65A99AA3*%
G36*
X9661525Y16297473D02*
G01*
X9712722Y16238538D01*
X9727009Y16129000D01*
X9713912Y16020653D01*
X9672241Y15962313D01*
X9553178Y15940881D01*
X8986441Y15940881D01*
X8879880Y15961122D01*
X8826897Y16021844D01*
X8814991Y16131381D01*
X8829278Y16238538D01*
X8874522Y16295688D01*
X8988822Y16317119D01*
X9555559Y16317119D01*
X9661525Y16297473D01*
G37*
D13*
%TO.C,C10*%
X5607164Y28300000D02*
X5822836Y28300000D01*
X5607164Y27580000D02*
X5822836Y27580000D01*
%TO.C,R3*%
X6960359Y21716000D02*
X7267641Y21716000D01*
X6960359Y20956000D02*
X7267641Y20956000D01*
%TO.C,C13*%
X9417164Y27030000D02*
X9632836Y27030000D01*
X9417164Y26310000D02*
X9632836Y26310000D01*
D11*
%TO.C,SW2*%
X13188000Y29995000D02*
X15088000Y29995000D01*
X15088000Y29995000D02*
X15990000Y29093000D01*
X15990000Y29093000D02*
X15990000Y27295000D01*
X15990000Y27295000D02*
X14989000Y26294000D01*
X14989000Y26294000D02*
X13290000Y26294000D01*
X13290000Y26294000D02*
X12388000Y27196000D01*
X12388000Y27196000D02*
X12388000Y29195000D01*
X12388000Y29195000D02*
X13188000Y29995000D01*
X15464000Y30744000D02*
X16359000Y29849000D01*
X16739000Y29362500D02*
X16739000Y27025500D01*
X16359000Y26539000D02*
X15464000Y25644000D01*
X11639000Y29362500D02*
X11639000Y27025500D01*
X12019000Y26539000D02*
X12914000Y25644000D01*
X12914000Y30744000D02*
X12019000Y29849000D01*
X12914000Y25644000D02*
X15464000Y25644000D01*
X12914000Y30744000D02*
X15464000Y30744000D01*
X15464000Y28194000D02*
G75*
G02*
X12914000Y28194000I-1275000J0D01*
G01*
X12914000Y28194000D02*
G75*
G02*
X15464000Y28194000I1275000J0D01*
G01*
%TD*%
M02*
