%TF.GenerationSoftware,KiCad,Pcbnew,9.0.4*%
%TF.CreationDate,2025-11-12T09:57:30+01:00*%
%TF.ProjectId,SparkFun_Thing_Plus_ESP32-S3,53706172-6b46-4756-9e5f-5468696e675f,rev?*%
%TF.SameCoordinates,Original*%
%TF.FileFunction,Legend,Bot*%
%TF.FilePolarity,Positive*%
%FSLAX46Y46*%
G04 Gerber Fmt 4.6, Leading zero omitted, Abs format (unit mm)*
G04 Created by KiCad (PCBNEW 9.0.4) date 2025-11-12 09:57:30*
%MOMM*%
%LPD*%
G01*
G04 APERTURE LIST*
%ADD10C,0.150000*%
%ADD11C,0.120000*%
%ADD12C,0.000000*%
G04 APERTURE END LIST*
D10*
X15986819Y26091334D02*
X16701104Y26091334D01*
X16701104Y26091334D02*
X16843961Y26138953D01*
X16843961Y26138953D02*
X16939200Y26234191D01*
X16939200Y26234191D02*
X16986819Y26377048D01*
X16986819Y26377048D02*
X16986819Y26472286D01*
X16986819Y25615143D02*
X15986819Y25615143D01*
X15986819Y25615143D02*
X15986819Y25234191D01*
X15986819Y25234191D02*
X16034438Y25138953D01*
X16034438Y25138953D02*
X16082057Y25091334D01*
X16082057Y25091334D02*
X16177295Y25043715D01*
X16177295Y25043715D02*
X16320152Y25043715D01*
X16320152Y25043715D02*
X16415390Y25091334D01*
X16415390Y25091334D02*
X16463009Y25138953D01*
X16463009Y25138953D02*
X16510628Y25234191D01*
X16510628Y25234191D02*
X16510628Y25615143D01*
X16082057Y24662762D02*
X16034438Y24615143D01*
X16034438Y24615143D02*
X15986819Y24519905D01*
X15986819Y24519905D02*
X15986819Y24281810D01*
X15986819Y24281810D02*
X16034438Y24186572D01*
X16034438Y24186572D02*
X16082057Y24138953D01*
X16082057Y24138953D02*
X16177295Y24091334D01*
X16177295Y24091334D02*
X16272533Y24091334D01*
X16272533Y24091334D02*
X16415390Y24138953D01*
X16415390Y24138953D02*
X16986819Y24710381D01*
X16986819Y24710381D02*
X16986819Y24091334D01*
D11*
%TO.C,JP2*%
X14432000Y23858000D02*
X15032000Y23858000D01*
X15732000Y24558000D02*
X15732000Y25958000D01*
X13732000Y25958000D02*
X13732000Y24558000D01*
X15032000Y26658000D02*
X14432000Y26658000D01*
X15732000Y24558000D02*
G75*
G02*
X15032000Y23858000I-699999J-1D01*
G01*
X14432000Y23858000D02*
G75*
G02*
X13732000Y24558000I-1J699999D01*
G01*
X15032000Y26658000D02*
G75*
G02*
X15732000Y25958000I0J-700000D01*
G01*
X13732000Y25958000D02*
G75*
G02*
X14432000Y26658000I700000J0D01*
G01*
D12*
%TO.C,kibuzzard-65AA9C9F*%
G36*
X14893925Y29032941D02*
G01*
X14871065Y28970076D01*
X14801215Y28940231D01*
X14735175Y28967536D01*
X14708505Y29034211D01*
X14708505Y29170101D01*
X14893925Y29170101D01*
X14893925Y29032941D01*
G37*
G36*
X15642378Y29286941D02*
G01*
X15642378Y28598601D01*
X15642378Y27529261D01*
X15642378Y26800281D01*
X15642378Y26213541D01*
X15642378Y25689031D01*
X15642378Y25424448D01*
X14202622Y25424448D01*
X14202622Y25689031D01*
X14202622Y26212271D01*
X14476095Y26212271D01*
X14484985Y26146231D01*
X14514195Y26110671D01*
X14549120Y26098606D01*
X14592935Y26096701D01*
X15166975Y26096701D01*
X15166975Y25786821D01*
X15168880Y25750626D01*
X15179040Y25721416D01*
X15208885Y25696651D01*
X15266035Y25689031D01*
X15321915Y25696651D01*
X15352395Y25721416D01*
X15363190Y25751896D01*
X15365095Y25788091D01*
X15365095Y26213541D01*
X15356205Y26279581D01*
X15326995Y26315141D01*
X15292070Y26327206D01*
X15248255Y26329111D01*
X14591665Y26329111D01*
X14549120Y26327206D01*
X14514195Y26315141D01*
X14484985Y26279581D01*
X14476095Y26212271D01*
X14202622Y26212271D01*
X14202622Y27088571D01*
X14474825Y27088571D01*
X14474825Y26508181D01*
X14476730Y26471986D01*
X14486890Y26443411D01*
X14516735Y26419281D01*
X14572615Y26411661D01*
X14628495Y26419281D01*
X14658340Y26444046D01*
X14668500Y26473256D01*
X14670405Y26509451D01*
X14670405Y26684711D01*
X15252065Y26684711D01*
X15294610Y26686616D01*
X15328265Y26698681D01*
X15356205Y26734241D01*
X15365095Y26800281D01*
X15356205Y26865686D01*
X15327630Y26899976D01*
X15293340Y26911406D01*
X15250795Y26913311D01*
X14670405Y26913311D01*
X14670405Y27089841D01*
X14668500Y27126036D01*
X14658340Y27154611D01*
X14628495Y27178741D01*
X14571345Y27186361D01*
X14516100Y27178741D01*
X14486890Y27153976D01*
X14476730Y27124766D01*
X14474825Y27088571D01*
X14202622Y27088571D01*
X14202622Y27525451D01*
X14467205Y27525451D01*
X14475107Y27449815D01*
X14498814Y27371922D01*
X14538325Y27291771D01*
X14562455Y27257481D01*
X14589125Y27233986D01*
X14627225Y27221921D01*
X14698345Y27249861D01*
X14749780Y27297486D01*
X14766925Y27341301D01*
X14737715Y27409881D01*
X14732000Y27418136D01*
X14725015Y27428931D01*
X14718030Y27440996D01*
X14711680Y27458141D01*
X14706600Y27478461D01*
X14702155Y27503861D01*
X14700885Y27534341D01*
X14713585Y27606731D01*
X14751050Y27678486D01*
X14820265Y27735001D01*
X14867890Y27751193D01*
X14921865Y27756591D01*
X14991239Y27746907D01*
X15049500Y27717856D01*
X15094109Y27676740D01*
X15122525Y27630861D01*
X15142845Y27534341D01*
X15132367Y27467348D01*
X15100935Y27403531D01*
X15075535Y27340031D01*
X15093632Y27296851D01*
X15147925Y27251131D01*
X15221585Y27223191D01*
X15267940Y27240971D01*
X15306675Y27293041D01*
X15346186Y27368394D01*
X15369893Y27447134D01*
X15377795Y27529261D01*
X15373985Y27583077D01*
X15362555Y27640386D01*
X15342076Y27700393D01*
X15311120Y27762306D01*
X15271115Y27821837D01*
X15223490Y27874701D01*
X15164911Y27919945D01*
X15092045Y27956616D01*
X15007908Y27980905D01*
X14915515Y27989001D01*
X14826615Y27981063D01*
X14745335Y27957251D01*
X14674691Y27921056D01*
X14617700Y27875971D01*
X14571345Y27823107D01*
X14532610Y27763576D01*
X14502606Y27701346D01*
X14482445Y27640386D01*
X14471015Y27581490D01*
X14467205Y27525451D01*
X14202622Y27525451D01*
X14202622Y28597331D01*
X15177135Y28597331D01*
X15177135Y28098221D01*
X15215235Y28027101D01*
X15265400Y28020751D01*
X15315565Y28026466D01*
X15342235Y28044881D01*
X15352395Y28099491D01*
X15352395Y28598601D01*
X15315565Y28669721D01*
X15264765Y28676071D01*
X15213965Y28670991D01*
X15187295Y28651941D01*
X15177135Y28597331D01*
X14202622Y28597331D01*
X14202622Y29285671D01*
X14476095Y29285671D01*
X14476095Y29032941D01*
X14481175Y28981188D01*
X14496415Y28927531D01*
X14521180Y28874191D01*
X14554835Y28823391D01*
X14599761Y28778147D01*
X14658340Y28741476D01*
X14727079Y28717187D01*
X14802485Y28709091D01*
X14877574Y28717028D01*
X14945360Y28740841D01*
X15002986Y28777195D01*
X15047595Y28822756D01*
X15081250Y28874191D01*
X15106015Y28928166D01*
X15121255Y28982300D01*
X15126335Y29034211D01*
X15126335Y29170101D01*
X15248255Y29170101D01*
X15292070Y29172006D01*
X15326360Y29184071D01*
X15354935Y29219631D01*
X15363825Y29286941D01*
X15354935Y29352981D01*
X15325725Y29388541D01*
X15290800Y29400606D01*
X15246985Y29402511D01*
X14591665Y29402511D01*
X14549120Y29400606D01*
X14514195Y29388541D01*
X14484985Y29352981D01*
X14476095Y29285671D01*
X14202622Y29285671D01*
X14202622Y29989251D01*
X14476095Y29989251D01*
X14484985Y29923211D01*
X14514195Y29887651D01*
X14549120Y29875586D01*
X14592935Y29873681D01*
X15166975Y29873681D01*
X15166975Y29563801D01*
X15168880Y29527606D01*
X15179040Y29498396D01*
X15208885Y29473631D01*
X15266035Y29466011D01*
X15321915Y29473631D01*
X15352395Y29498396D01*
X15363190Y29528876D01*
X15365095Y29565071D01*
X15365095Y29990521D01*
X15356205Y30056561D01*
X15326995Y30092121D01*
X15292070Y30104186D01*
X15248255Y30106091D01*
X14591665Y30106091D01*
X14549120Y30104186D01*
X14514195Y30092121D01*
X14484985Y30056561D01*
X14476095Y29989251D01*
X14202622Y29989251D01*
X14202622Y30106091D01*
X14202622Y30370674D01*
X14206088Y30441235D01*
X14216454Y30511115D01*
X14233619Y30579644D01*
X14257419Y30646160D01*
X14287624Y30710022D01*
X14323943Y30770617D01*
X14366027Y30827360D01*
X14413469Y30879705D01*
X14465814Y30927148D01*
X14522557Y30969231D01*
X14583152Y31005550D01*
X14647014Y31035755D01*
X14713530Y31059555D01*
X14782059Y31076720D01*
X14851940Y31087086D01*
X14922500Y31090552D01*
X14993060Y31087086D01*
X15062941Y31076720D01*
X15131470Y31059555D01*
X15197986Y31035755D01*
X15261848Y31005550D01*
X15322443Y30969231D01*
X15379186Y30927148D01*
X15431531Y30879705D01*
X15478973Y30827360D01*
X15521057Y30770617D01*
X15557376Y30710022D01*
X15587581Y30646160D01*
X15611381Y30579644D01*
X15628546Y30511115D01*
X15638912Y30441235D01*
X15642378Y30370674D01*
X15642378Y30106091D01*
X15642378Y29990521D01*
X15642378Y29286941D01*
G37*
%TD*%
M02*
