%TF.GenerationSoftware,KiCad,Pcbnew,9.0.4*%
%TF.CreationDate,2025-11-12T09:57:30+01:00*%
%TF.ProjectId,SparkFun_Thing_Plus_ESP32-S3,53706172-6b46-4756-9e5f-5468696e675f,rev?*%
%TF.SameCoordinates,Original*%
%TF.FileFunction,Copper,L2,Bot*%
%TF.FilePolarity,Positive*%
%FSLAX46Y46*%
G04 Gerber Fmt 4.6, Leading zero omitted, Abs format (unit mm)*
G04 Created by KiCad (PCBNEW 9.0.4) date 2025-11-12 09:57:30*
%MOMM*%
%LPD*%
G01*
G04 APERTURE LIST*
G04 Aperture macros list*
%AMFreePoly0*
4,1,23,0.500000,-0.750000,0.000000,-0.750000,0.000000,-0.745722,-0.065263,-0.745722,-0.191342,-0.711940,-0.304381,-0.646677,-0.396677,-0.554381,-0.461940,-0.441342,-0.495722,-0.315263,-0.495722,-0.250000,-0.500000,-0.250000,-0.500000,0.250000,-0.495722,0.250000,-0.495722,0.315263,-0.461940,0.441342,-0.396677,0.554381,-0.304381,0.646677,-0.191342,0.711940,-0.065263,0.745722,0.000000,0.745722,
0.000000,0.750000,0.500000,0.750000,0.500000,-0.750000,0.500000,-0.750000,$1*%
%AMFreePoly1*
4,1,23,0.000000,0.745722,0.065263,0.745722,0.191342,0.711940,0.304381,0.646677,0.396677,0.554381,0.461940,0.441342,0.495722,0.315263,0.495722,0.250000,0.500000,0.250000,0.500000,-0.250000,0.495722,-0.250000,0.495722,-0.315263,0.461940,-0.441342,0.396677,-0.554381,0.304381,-0.646677,0.191342,-0.711940,0.065263,-0.745722,0.000000,-0.745722,0.000000,-0.750000,-0.500000,-0.750000,
-0.500000,0.750000,0.000000,0.750000,0.000000,0.745722,0.000000,0.745722,$1*%
G04 Aperture macros list end*
%TA.AperFunction,EtchedComponent*%
%ADD10C,0.000000*%
%TD*%
%TA.AperFunction,ComponentPad*%
%ADD11O,1.200000X1.800000*%
%TD*%
%TA.AperFunction,ComponentPad*%
%ADD12O,1.200000X2.000000*%
%TD*%
%TA.AperFunction,SMDPad,CuDef*%
%ADD13FreePoly0,90.000000*%
%TD*%
%TA.AperFunction,SMDPad,CuDef*%
%ADD14FreePoly1,90.000000*%
%TD*%
%TA.AperFunction,ViaPad*%
%ADD15C,0.560000*%
%TD*%
%TA.AperFunction,ViaPad*%
%ADD16C,0.609600*%
%TD*%
%TA.AperFunction,Conductor*%
%ADD17C,0.152400*%
%TD*%
%TA.AperFunction,Conductor*%
%ADD18C,0.406400*%
%TD*%
%TA.AperFunction,Conductor*%
%ADD19C,0.228600*%
%TD*%
G04 APERTURE END LIST*
D10*
%TA.AperFunction,EtchedComponent*%
%TO.C,JP2*%
G36*
X15032000Y25008000D02*
G01*
X14432000Y25008000D01*
X14432000Y25508000D01*
X15032000Y25508000D01*
X15032000Y25008000D01*
G37*
%TD.AperFunction*%
%TD*%
D11*
%TO.P,USB2,2,SH*%
%TO.N,GND*%
X15748000Y1016000D03*
D12*
%TO.P,USB2,1,SH*%
X15748000Y5196000D03*
%TO.P,USB2,0,SH*%
X7098000Y5196000D03*
D11*
%TO.P,USB2,3,SH*%
X7098000Y1016000D03*
%TD*%
D13*
%TO.P,JP2,1,A*%
%TO.N,Net-(JP2-A)*%
X14732000Y24608000D03*
D14*
%TO.P,JP2,2,B*%
%TO.N,3.3V*%
X14732000Y25908000D03*
%TD*%
D15*
%TO.N,Net-(JP2-A)*%
X13462000Y24892000D03*
X10922000Y24892000D03*
%TO.N,GND*%
X11176000Y22098000D03*
X2540000Y58674000D03*
X20320000Y37338000D03*
X16002000Y38100000D03*
X6667500Y28892500D03*
X7366000Y16510000D03*
X6667500Y7620000D03*
X8128000Y11684000D03*
X16596902Y6985000D03*
X762000Y17414370D03*
X5842000Y25717500D03*
X5842000Y6350000D03*
X5080000Y11938000D03*
%TO.N,3.3V*%
X16510000Y24384000D03*
%TO.N,VIN*%
X7937500Y30480000D03*
X9862079Y8846079D03*
X6985000Y23812500D03*
%TO.N,ESP~{RST}*%
X10922000Y31496000D03*
X3276000Y55118000D03*
%TO.N,ESP8{slash}SDA*%
X4318000Y12700000D03*
X3810000Y8128000D03*
X9398000Y43583246D03*
X18034000Y6604000D03*
%TO.N,ESP9{slash}SCL*%
X17113150Y7541483D03*
X8128000Y38100000D03*
%TO.N,Net-(JP2-A)*%
X9907500Y13970000D03*
%TO.N,ESP45{slash}Q_EN*%
X2032000Y13462000D03*
X6604000Y32512000D03*
%TO.N,VUSB*%
X13208000Y7112000D03*
X8890000Y7112000D03*
%TO.N,ESP20{slash}D+*%
X12700000Y41148000D03*
X12700000Y8890000D03*
%TO.N,ESP19{slash}D-*%
X12065000Y11171584D03*
X12065000Y42418000D03*
%TO.N,ESP35{slash}~{ALRT}*%
X22352000Y37338000D03*
D16*
X18377500Y11467500D03*
D15*
%TO.N,ESP14{slash}BAT_ADC*%
X18414000Y22098000D03*
X14478000Y38100000D03*
%TD*%
D17*
%TO.N,Net-(JP2-A)*%
X13462000Y24892000D02*
X14448000Y24892000D01*
X14448000Y24892000D02*
X14732000Y24608000D01*
X9907500Y13970000D02*
X9907500Y15492500D01*
X9907500Y15492500D02*
X8023900Y17376100D01*
X8023900Y17376100D02*
X8023900Y22628900D01*
X8023900Y22628900D02*
X10287000Y24892000D01*
X10287000Y24892000D02*
X10922000Y24892000D01*
%TO.N,3.3V*%
X16243300Y24650700D02*
X16243300Y25151700D01*
X16243300Y25151700D02*
X15487000Y25908000D01*
X15487000Y25908000D02*
X14732000Y25908000D01*
%TO.N,ESP~{RST}*%
X10922000Y31496000D02*
X10922000Y43942000D01*
X10922000Y43942000D02*
X3276000Y51588000D01*
X3276000Y51588000D02*
X3276000Y55118000D01*
%TO.N,ESP45{slash}Q_EN*%
X2032000Y13462000D02*
X2032000Y27940000D01*
X2032000Y27940000D02*
X6604000Y32512000D01*
D18*
%TO.N,VIN*%
X5080000Y16589374D02*
X4086900Y17582474D01*
X4086900Y17582474D02*
X4086900Y20955000D01*
X5080000Y15240000D02*
X5080000Y16589374D01*
X5206100Y15113900D02*
X5080000Y15240000D01*
X9862079Y8846079D02*
X9271900Y9436258D01*
X4086900Y20955000D02*
X4246250Y21114350D01*
X9271900Y9436258D02*
X9271900Y15113900D01*
X9271900Y15113900D02*
X5206100Y15113900D01*
X4246250Y21114350D02*
X5874350Y21114350D01*
X5874350Y21114350D02*
X6807200Y22047200D01*
X6807200Y22047200D02*
X6807200Y23634700D01*
X6807200Y23634700D02*
X6985000Y23812500D01*
%TO.N,VUSB*%
X13208000Y7112000D02*
X8890000Y7112000D01*
D17*
%TO.N,ESP9{slash}SCL*%
X3350300Y17277364D02*
X3350300Y27389904D01*
%TO.N,3.3V*%
X16243300Y24650700D02*
X16510000Y24384000D01*
D18*
%TO.N,VIN*%
X7937500Y28469875D02*
X7937500Y30480000D01*
X6985000Y27517375D02*
X6985000Y23812500D01*
X7937500Y28469875D02*
X6985000Y27517375D01*
D17*
%TO.N,ESP8{slash}SDA*%
X18034000Y4318000D02*
X18034000Y6604000D01*
X6096000Y3302000D02*
X17018000Y3302000D01*
X4064000Y16994716D02*
X4064000Y12954000D01*
X3810000Y5588000D02*
X6096000Y3302000D01*
X4064000Y12954000D02*
X4318000Y12700000D01*
X17018000Y3302000D02*
X18034000Y4318000D01*
X9398000Y43583246D02*
X9398000Y33006552D01*
X9398000Y33006552D02*
X3655100Y27263652D01*
X3655100Y17403616D02*
X4064000Y16994716D01*
X3810000Y8128000D02*
X3810000Y5588000D01*
X3655100Y27263652D02*
X3655100Y17403616D01*
%TO.N,ESP9{slash}SCL*%
X6222252Y3606800D02*
X16891748Y3606800D01*
X3350300Y17277364D02*
X3556000Y17071664D01*
X17729200Y6189530D02*
X17208500Y6710230D01*
X3556000Y10325200D02*
X5080000Y8801200D01*
X16891748Y3606800D02*
X17729200Y4444252D01*
X8128000Y38100000D02*
X8128000Y32167604D01*
X8128000Y32167604D02*
X3350300Y27389904D01*
X17208500Y6710230D02*
X17208500Y7620000D01*
X5080000Y8801200D02*
X5080000Y4749052D01*
X17729200Y4444252D02*
X17729200Y6189530D01*
X3556000Y17071664D02*
X3556000Y10325200D01*
X5080000Y4749052D02*
X6222252Y3606800D01*
X17208500Y7620000D02*
X17145000Y7620000D01*
D19*
%TO.N,ESP20{slash}D+*%
X12700000Y8890000D02*
X12700000Y41148000D01*
%TO.N,ESP19{slash}D-*%
X12065000Y42418000D02*
X12065000Y11171584D01*
D17*
%TO.N,ESP35{slash}~{ALRT}*%
X22352000Y15442000D02*
X22352000Y37338000D01*
X18377500Y11467500D02*
X22352000Y15442000D01*
%TO.N,ESP14{slash}BAT_ADC*%
X18414000Y34164000D02*
X14478000Y38100000D01*
X18414000Y22098000D02*
X18414000Y34164000D01*
%TD*%
%TA.AperFunction,Conductor*%
%TO.N,GND*%
G36*
X7441717Y30587629D02*
G01*
X7476205Y30538376D01*
X7479200Y30515626D01*
X7479200Y30419665D01*
X7510431Y30303105D01*
X7544224Y30244574D01*
X7556000Y30200624D01*
X7556000Y28664308D01*
X7535435Y28607807D01*
X7530255Y28602153D01*
X6679725Y27751624D01*
X6629497Y27664626D01*
X6603500Y27567600D01*
X6603500Y24091877D01*
X6602999Y24089363D01*
X6603416Y24088042D01*
X6601278Y24080708D01*
X6596809Y24058239D01*
X6594603Y24052915D01*
X6557932Y23989397D01*
X6538951Y23918560D01*
X6536744Y23913231D01*
X6529745Y23905594D01*
X6517693Y23884717D01*
X6501924Y23868948D01*
X6451697Y23781951D01*
X6425700Y23684925D01*
X6425700Y22241633D01*
X6405135Y22185132D01*
X6399955Y22179478D01*
X5742072Y21521595D01*
X5687578Y21496184D01*
X5679917Y21495850D01*
X4196025Y21495850D01*
X4098998Y21469853D01*
X4041449Y21436627D01*
X3982236Y21426187D01*
X3930164Y21456251D01*
X3909600Y21512751D01*
X3909600Y27121826D01*
X3930165Y27178327D01*
X3935334Y27183970D01*
X7329145Y30577782D01*
X7383639Y30603192D01*
X7441717Y30587629D01*
G37*
%TD.AperFunction*%
%TA.AperFunction,Conductor*%
G36*
X4642197Y60938935D02*
G01*
X4672261Y60886864D01*
X4673596Y60871600D01*
X4673596Y53594000D01*
X4673597Y53594000D01*
X20421595Y53594000D01*
X20421596Y53594000D01*
X20421596Y60871600D01*
X20442161Y60928101D01*
X20494232Y60958165D01*
X20509496Y60959500D01*
X23025600Y60959500D01*
X23082101Y60938935D01*
X23112165Y60886864D01*
X23113500Y60871600D01*
X23113500Y-419600D01*
X23092935Y-476101D01*
X23040864Y-506165D01*
X23025600Y-507500D01*
X-3213600Y-507500D01*
X-3270101Y-486935D01*
X-3300165Y-434864D01*
X-3301500Y-419600D01*
X-3301500Y2658011D01*
X739500Y2658011D01*
X739500Y2421989D01*
X770307Y2187986D01*
X831394Y1960007D01*
X847900Y1920158D01*
X921713Y1741957D01*
X921714Y1741955D01*
X1039728Y1537548D01*
X1150946Y1392606D01*
X1183408Y1350301D01*
X1350301Y1183408D01*
X1537550Y1039727D01*
X1741951Y921716D01*
X1960007Y831394D01*
X2187986Y770307D01*
X2367541Y746669D01*
X2421987Y739500D01*
X2421989Y739500D01*
X2658013Y739500D01*
X2706784Y745922D01*
X2892014Y770307D01*
X3119993Y831394D01*
X3338049Y921716D01*
X3542450Y1039727D01*
X3729699Y1183408D01*
X3896592Y1350301D01*
X3929054Y1392606D01*
X6320200Y1392606D01*
X6320200Y1104901D01*
X6320201Y1104900D01*
X6698000Y1104900D01*
X6698000Y927100D01*
X6320201Y927100D01*
X6320200Y927099D01*
X6320200Y639395D01*
X6350088Y489133D01*
X6350090Y489128D01*
X6408724Y347573D01*
X6493842Y220185D01*
X6602184Y111843D01*
X6729573Y26725D01*
X6871123Y-31909D01*
X6871127Y-31910D01*
X7009099Y-59354D01*
X7009100Y-59354D01*
X7009100Y325711D01*
X7045339Y316000D01*
X7150661Y316000D01*
X7186900Y325711D01*
X7186900Y-59354D01*
X7324872Y-31910D01*
X7324876Y-31909D01*
X7466426Y26725D01*
X7593815Y111843D01*
X7702157Y220185D01*
X7787275Y347573D01*
X7845909Y489128D01*
X7845911Y489133D01*
X7875800Y639395D01*
X7875800Y927099D01*
X7875799Y927100D01*
X7498000Y927100D01*
X7498000Y1104900D01*
X7875799Y1104900D01*
X7875800Y1104901D01*
X7875800Y1392606D01*
X14970200Y1392606D01*
X14970200Y1104901D01*
X14970201Y1104900D01*
X15348000Y1104900D01*
X15348000Y927100D01*
X14970201Y927100D01*
X14970200Y927099D01*
X14970200Y639395D01*
X15000088Y489133D01*
X15000090Y489128D01*
X15058724Y347573D01*
X15143842Y220185D01*
X15252184Y111843D01*
X15379573Y26725D01*
X15521123Y-31909D01*
X15521127Y-31910D01*
X15659099Y-59354D01*
X15659100Y-59354D01*
X15659100Y325711D01*
X15695339Y316000D01*
X15800661Y316000D01*
X15836900Y325711D01*
X15836900Y-59354D01*
X15974872Y-31910D01*
X15974876Y-31909D01*
X16116426Y26725D01*
X16243815Y111843D01*
X16352157Y220185D01*
X16437275Y347573D01*
X16495909Y489128D01*
X16495911Y489133D01*
X16525800Y639395D01*
X16525800Y927099D01*
X16525799Y927100D01*
X16148000Y927100D01*
X16148000Y1104900D01*
X16525799Y1104900D01*
X16525800Y1104901D01*
X16525800Y1392606D01*
X16495911Y1542868D01*
X16495909Y1542873D01*
X16437275Y1684428D01*
X16352157Y1811816D01*
X16243815Y1920158D01*
X16116427Y2005276D01*
X15974876Y2063908D01*
X15974873Y2063909D01*
X15836900Y2091355D01*
X15836900Y1706290D01*
X15800661Y1716000D01*
X15695339Y1716000D01*
X15659100Y1706290D01*
X15659100Y2091355D01*
X15521126Y2063909D01*
X15521123Y2063908D01*
X15379572Y2005276D01*
X15252184Y1920158D01*
X15143842Y1811816D01*
X15058724Y1684428D01*
X15000090Y1542873D01*
X15000088Y1542868D01*
X14970200Y1392606D01*
X7875800Y1392606D01*
X7845911Y1542868D01*
X7845909Y1542873D01*
X7787275Y1684428D01*
X7702157Y1811816D01*
X7593815Y1920158D01*
X7466427Y2005276D01*
X7324876Y2063908D01*
X7324873Y2063909D01*
X7186900Y2091355D01*
X7186900Y1706290D01*
X7150661Y1716000D01*
X7045339Y1716000D01*
X7009100Y1706290D01*
X7009100Y2091355D01*
X6871126Y2063909D01*
X6871123Y2063908D01*
X6729572Y2005276D01*
X6602184Y1920158D01*
X6493842Y1811816D01*
X6408724Y1684428D01*
X6350090Y1542873D01*
X6350088Y1542868D01*
X6320200Y1392606D01*
X3929054Y1392606D01*
X4040273Y1537550D01*
X4158284Y1741951D01*
X4248606Y1960007D01*
X4309693Y2187986D01*
X4340500Y2421989D01*
X4340500Y2658011D01*
X18519500Y2658011D01*
X18519500Y2421989D01*
X18550307Y2187986D01*
X18611394Y1960007D01*
X18627900Y1920158D01*
X18701713Y1741957D01*
X18701714Y1741955D01*
X18819728Y1537548D01*
X18930946Y1392606D01*
X18963408Y1350301D01*
X19130301Y1183408D01*
X19317550Y1039727D01*
X19521951Y921716D01*
X19740007Y831394D01*
X19967986Y770307D01*
X20147541Y746669D01*
X20201987Y739500D01*
X20201989Y739500D01*
X20438013Y739500D01*
X20486784Y745922D01*
X20672014Y770307D01*
X20899993Y831394D01*
X21118049Y921716D01*
X21322450Y1039727D01*
X21509699Y1183408D01*
X21676592Y1350301D01*
X21820273Y1537550D01*
X21938284Y1741951D01*
X22028606Y1960007D01*
X22089693Y2187986D01*
X22120500Y2421989D01*
X22120500Y2658011D01*
X22089693Y2892014D01*
X22028606Y3119993D01*
X21938284Y3338049D01*
X21820273Y3542450D01*
X21676592Y3729699D01*
X21509699Y3896592D01*
X21333494Y4031799D01*
X21322452Y4040272D01*
X21254316Y4079610D01*
X21118049Y4158284D01*
X21118047Y4158285D01*
X21118045Y4158286D01*
X21118043Y4158287D01*
X21016059Y4200530D01*
X20899993Y4248606D01*
X20829939Y4267377D01*
X20672026Y4309690D01*
X20672014Y4309693D01*
X20438013Y4340500D01*
X20438011Y4340500D01*
X20201989Y4340500D01*
X20201987Y4340500D01*
X19967985Y4309693D01*
X19967973Y4309690D01*
X19740013Y4248608D01*
X19740009Y4248607D01*
X19740007Y4248606D01*
X19740005Y4248605D01*
X19521956Y4158287D01*
X19521954Y4158286D01*
X19317547Y4040272D01*
X19130304Y3896595D01*
X18963405Y3729696D01*
X18819728Y3542453D01*
X18701714Y3338046D01*
X18701713Y3338044D01*
X18611395Y3119995D01*
X18611392Y3119987D01*
X18591970Y3047501D01*
X18550307Y2892014D01*
X18519500Y2658011D01*
X4340500Y2658011D01*
X4309693Y2892014D01*
X4248606Y3119993D01*
X4158284Y3338049D01*
X4040273Y3542450D01*
X3896592Y3729699D01*
X3729699Y3896592D01*
X3553494Y4031799D01*
X3542452Y4040272D01*
X3474316Y4079610D01*
X3338049Y4158284D01*
X3338047Y4158285D01*
X3338045Y4158286D01*
X3338043Y4158287D01*
X3236059Y4200530D01*
X3119993Y4248606D01*
X3049939Y4267377D01*
X2892026Y4309690D01*
X2892014Y4309693D01*
X2658013Y4340500D01*
X2658011Y4340500D01*
X2421989Y4340500D01*
X2421987Y4340500D01*
X2187985Y4309693D01*
X2187973Y4309690D01*
X1960013Y4248608D01*
X1960009Y4248607D01*
X1960007Y4248606D01*
X1960005Y4248605D01*
X1741956Y4158287D01*
X1741954Y4158286D01*
X1537547Y4040272D01*
X1350304Y3896595D01*
X1183405Y3729696D01*
X1039728Y3542453D01*
X921714Y3338046D01*
X921713Y3338044D01*
X831395Y3119995D01*
X831392Y3119987D01*
X811970Y3047501D01*
X770307Y2892014D01*
X739500Y2658011D01*
X-3301500Y2658011D01*
X-3301500Y13522336D01*
X1573700Y13522336D01*
X1573700Y13401665D01*
X1604930Y13285107D01*
X1604931Y13285104D01*
X1604932Y13285103D01*
X1665268Y13180597D01*
X1750597Y13095268D01*
X1855103Y13034932D01*
X1855105Y13034932D01*
X1855106Y13034931D01*
X1971664Y13003700D01*
X2092335Y13003700D01*
X2092336Y13003700D01*
X2208897Y13034932D01*
X2313403Y13095268D01*
X2398732Y13180597D01*
X2459068Y13285103D01*
X2490300Y13401664D01*
X2490300Y13522336D01*
X2459068Y13638897D01*
X2398732Y13743403D01*
X2313403Y13828732D01*
X2312245Y13829890D01*
X2286834Y13884384D01*
X2286500Y13892045D01*
X2286500Y27440529D01*
X3095800Y27440529D01*
X3095800Y17226740D01*
X3134543Y17133204D01*
X3134544Y17133203D01*
X3134545Y17133201D01*
X3275755Y16991991D01*
X3301166Y16937498D01*
X3301500Y16929837D01*
X3301500Y10274576D01*
X3340243Y10181040D01*
X3340244Y10181039D01*
X3340245Y10181037D01*
X4135249Y9386034D01*
X4799755Y8721528D01*
X4825166Y8667034D01*
X4825500Y8659373D01*
X4825500Y5144628D01*
X4804935Y5088127D01*
X4752864Y5058063D01*
X4693650Y5068504D01*
X4675445Y5082473D01*
X4090245Y5667673D01*
X4064834Y5722167D01*
X4064500Y5729828D01*
X4064500Y7697955D01*
X4085065Y7754456D01*
X4090245Y7760110D01*
X4091403Y7761268D01*
X4176732Y7846597D01*
X4237068Y7951103D01*
X4268300Y8067664D01*
X4268300Y8188336D01*
X4237068Y8304897D01*
X4176732Y8409403D01*
X4091403Y8494732D01*
X3986897Y8555068D01*
X3986896Y8555069D01*
X3986893Y8555070D01*
X3870336Y8586300D01*
X3749664Y8586300D01*
X3633106Y8555070D01*
X3528595Y8494731D01*
X3443269Y8409405D01*
X3382930Y8304894D01*
X3351700Y8188336D01*
X3351700Y8067665D01*
X3382930Y7951107D01*
X3382931Y7951104D01*
X3382932Y7951103D01*
X3407693Y7908215D01*
X3443269Y7846596D01*
X3529755Y7760110D01*
X3555166Y7705616D01*
X3555500Y7697955D01*
X3555500Y5537376D01*
X3594243Y5443840D01*
X3594244Y5443839D01*
X3594245Y5443837D01*
X5880244Y3157839D01*
X5880245Y3157837D01*
X5951837Y3086245D01*
X6045377Y3047500D01*
X6045378Y3047500D01*
X17068622Y3047500D01*
X17068623Y3047500D01*
X17162163Y3086245D01*
X18249755Y4173837D01*
X18288500Y4267377D01*
X18288500Y4368623D01*
X18288500Y6173955D01*
X18309065Y6230456D01*
X18314245Y6236110D01*
X18315403Y6237268D01*
X18400732Y6322597D01*
X18461068Y6427103D01*
X18492300Y6543664D01*
X18492300Y6664336D01*
X18466439Y6760853D01*
X18461069Y6780894D01*
X18461068Y6780895D01*
X18461068Y6780897D01*
X18400732Y6885403D01*
X18315403Y6970732D01*
X18210897Y7031068D01*
X18210896Y7031069D01*
X18210893Y7031070D01*
X18094336Y7062300D01*
X17973664Y7062300D01*
X17857106Y7031070D01*
X17752595Y6970731D01*
X17667269Y6885405D01*
X17667268Y6885403D01*
X17635626Y6830596D01*
X17627024Y6815697D01*
X17580964Y6777048D01*
X17520837Y6777048D01*
X17474776Y6815697D01*
X17463000Y6859647D01*
X17463000Y7208241D01*
X17478590Y7254174D01*
X17477001Y7255091D01*
X17479880Y7260079D01*
X17479882Y7260080D01*
X17540218Y7364586D01*
X17571450Y7481147D01*
X17571450Y7601819D01*
X17540218Y7718380D01*
X17479882Y7822886D01*
X17394553Y7908215D01*
X17290047Y7968551D01*
X17290046Y7968552D01*
X17290043Y7968553D01*
X17173486Y7999783D01*
X17052814Y7999783D01*
X16936256Y7968553D01*
X16831745Y7908214D01*
X16746419Y7822888D01*
X16686080Y7718377D01*
X16654850Y7601819D01*
X16654850Y7481147D01*
X16661845Y7455039D01*
X16686080Y7364590D01*
X16686081Y7364587D01*
X16686082Y7364586D01*
X16746418Y7260080D01*
X16831747Y7174751D01*
X16910051Y7129543D01*
X16948699Y7083484D01*
X16954000Y7053420D01*
X16954000Y6659606D01*
X16992743Y6566070D01*
X16992744Y6566069D01*
X16992745Y6566067D01*
X17448955Y6109857D01*
X17474366Y6055364D01*
X17474700Y6047703D01*
X17474700Y4586080D01*
X17454135Y4529579D01*
X17448955Y4523925D01*
X16812075Y3887045D01*
X16757581Y3861634D01*
X16749920Y3861300D01*
X15928280Y3861300D01*
X15871779Y3881865D01*
X15841715Y3933936D01*
X15852156Y3993150D01*
X15898216Y4031799D01*
X15911132Y4035411D01*
X15974867Y4048089D01*
X15974872Y4048091D01*
X16116427Y4106725D01*
X16243815Y4191843D01*
X16352157Y4300185D01*
X16437275Y4427573D01*
X16495909Y4569128D01*
X16495911Y4569133D01*
X16525800Y4719395D01*
X16525800Y5107099D01*
X16525799Y5107100D01*
X16148000Y5107100D01*
X16148000Y5284900D01*
X16525799Y5284900D01*
X16525800Y5284901D01*
X16525800Y5672606D01*
X16495911Y5822868D01*
X16495909Y5822873D01*
X16437275Y5964428D01*
X16352157Y6091816D01*
X16243815Y6200158D01*
X16116427Y6285276D01*
X15974876Y6343908D01*
X15974873Y6343909D01*
X15836900Y6371355D01*
X15836900Y5986290D01*
X15800661Y5996000D01*
X15695339Y5996000D01*
X15659100Y5986290D01*
X15659100Y6371355D01*
X15521126Y6343909D01*
X15521123Y6343908D01*
X15379572Y6285276D01*
X15252184Y6200158D01*
X15143842Y6091816D01*
X15058724Y5964428D01*
X15000090Y5822873D01*
X15000088Y5822868D01*
X14970200Y5672606D01*
X14970200Y5284901D01*
X14970201Y5284900D01*
X15348000Y5284900D01*
X15348000Y5107100D01*
X14970199Y5107100D01*
X14947112Y5084013D01*
X14892618Y5058602D01*
X14834540Y5074165D01*
X14815223Y5092657D01*
X14809369Y5100286D01*
X14804002Y5107280D01*
X14734780Y5176502D01*
X14681034Y5217742D01*
X14596254Y5266689D01*
X14596250Y5266691D01*
X14596246Y5266693D01*
X14533672Y5292612D01*
X14533673Y5292612D01*
X14533670Y5292613D01*
X14461461Y5311962D01*
X14439119Y5317948D01*
X14439115Y5317949D01*
X14439111Y5317950D01*
X14416723Y5320898D01*
X14371949Y5326792D01*
X14371947Y5326792D01*
X14274053Y5326792D01*
X14274051Y5326792D01*
X14206889Y5317950D01*
X14206880Y5317948D01*
X14142846Y5300790D01*
X14112330Y5292613D01*
X14112328Y5292613D01*
X14112327Y5292612D01*
X14049753Y5266693D01*
X14049752Y5266693D01*
X14012703Y5245303D01*
X13964966Y5217742D01*
X13964962Y5217740D01*
X13964962Y5217739D01*
X13964959Y5217737D01*
X13911219Y5176502D01*
X13841998Y5107281D01*
X13804233Y5058063D01*
X13800758Y5053534D01*
X13773197Y5005797D01*
X13751807Y4968748D01*
X13751807Y4968747D01*
X13725888Y4906173D01*
X13700552Y4811620D01*
X13700550Y4811611D01*
X13691708Y4744449D01*
X13691708Y4646552D01*
X13700550Y4579390D01*
X13700552Y4579381D01*
X13725888Y4484828D01*
X13751807Y4422254D01*
X13751807Y4422253D01*
X13751810Y4422247D01*
X13751811Y4422246D01*
X13800758Y4337466D01*
X13841998Y4283720D01*
X13911220Y4214498D01*
X13964966Y4173258D01*
X14049746Y4124311D01*
X14112330Y4098387D01*
X14206889Y4073050D01*
X14260053Y4066052D01*
X14274051Y4064208D01*
X14274053Y4064208D01*
X14371949Y4064208D01*
X14384625Y4065878D01*
X14439111Y4073050D01*
X14533670Y4098387D01*
X14596254Y4124311D01*
X14681034Y4173258D01*
X14734780Y4214498D01*
X14804002Y4283720D01*
X14845242Y4337466D01*
X14894189Y4422246D01*
X14896350Y4427464D01*
X14936971Y4471794D01*
X14996583Y4479644D01*
X15047295Y4447338D01*
X15056550Y4431307D01*
X15056689Y4431380D01*
X15058722Y4427577D01*
X15143842Y4300185D01*
X15252184Y4191843D01*
X15379572Y4106725D01*
X15521127Y4048091D01*
X15521132Y4048089D01*
X15584868Y4035411D01*
X15636272Y4004219D01*
X15655599Y3947283D01*
X15633807Y3891244D01*
X15581092Y3862323D01*
X15567720Y3861300D01*
X7278280Y3861300D01*
X7221779Y3881865D01*
X7191715Y3933936D01*
X7202156Y3993150D01*
X7248216Y4031799D01*
X7261132Y4035411D01*
X7324867Y4048089D01*
X7324872Y4048091D01*
X7466427Y4106725D01*
X7593815Y4191843D01*
X7702157Y4300185D01*
X7787277Y4427577D01*
X7789311Y4431380D01*
X7790328Y4430837D01*
X7827832Y4471785D01*
X7887442Y4479648D01*
X7938161Y4447355D01*
X7949645Y4427472D01*
X7951805Y4422259D01*
X7951807Y4422253D01*
X7951810Y4422247D01*
X7951811Y4422246D01*
X8000758Y4337466D01*
X8041998Y4283720D01*
X8111220Y4214498D01*
X8164966Y4173258D01*
X8249746Y4124311D01*
X8312330Y4098387D01*
X8406889Y4073050D01*
X8460053Y4066052D01*
X8474051Y4064208D01*
X8474053Y4064208D01*
X8571949Y4064208D01*
X8584625Y4065878D01*
X8639111Y4073050D01*
X8733670Y4098387D01*
X8796254Y4124311D01*
X8881034Y4173258D01*
X8934780Y4214498D01*
X9004002Y4283720D01*
X9045242Y4337466D01*
X9094189Y4422246D01*
X9120113Y4484830D01*
X9145450Y4579389D01*
X9154292Y4646553D01*
X9154292Y4744447D01*
X9145450Y4811611D01*
X9120113Y4906170D01*
X9094192Y4968747D01*
X9094192Y4968748D01*
X9094189Y4968754D01*
X9045242Y5053534D01*
X9004002Y5107280D01*
X8934780Y5176502D01*
X8881034Y5217742D01*
X8796254Y5266689D01*
X8796250Y5266691D01*
X8796246Y5266693D01*
X8733672Y5292612D01*
X8733673Y5292612D01*
X8733670Y5292613D01*
X8661461Y5311962D01*
X8639119Y5317948D01*
X8639115Y5317949D01*
X8639111Y5317950D01*
X8616723Y5320898D01*
X8571949Y5326792D01*
X8571947Y5326792D01*
X8474053Y5326792D01*
X8474051Y5326792D01*
X8406889Y5317950D01*
X8406880Y5317948D01*
X8342846Y5300790D01*
X8312330Y5292613D01*
X8312328Y5292613D01*
X8312327Y5292612D01*
X8249753Y5266693D01*
X8249752Y5266693D01*
X8212703Y5245303D01*
X8164966Y5217742D01*
X8164962Y5217740D01*
X8164962Y5217739D01*
X8164959Y5217737D01*
X8111219Y5176502D01*
X8041997Y5107280D01*
X8030774Y5092654D01*
X7980062Y5060351D01*
X7920449Y5068202D01*
X7898886Y5084013D01*
X7875799Y5107100D01*
X7498000Y5107100D01*
X7498000Y5284900D01*
X7875799Y5284900D01*
X7875800Y5284901D01*
X7875800Y5672606D01*
X7845911Y5822868D01*
X7845909Y5822873D01*
X7787275Y5964428D01*
X7702157Y6091816D01*
X7593815Y6200158D01*
X7466427Y6285276D01*
X7324876Y6343908D01*
X7324873Y6343909D01*
X7186900Y6371355D01*
X7186900Y5986290D01*
X7150661Y5996000D01*
X7045339Y5996000D01*
X7009100Y5986290D01*
X7009100Y6371355D01*
X6871126Y6343909D01*
X6871123Y6343908D01*
X6729572Y6285276D01*
X6602184Y6200158D01*
X6493842Y6091816D01*
X6408724Y5964428D01*
X6350090Y5822873D01*
X6350088Y5822868D01*
X6320200Y5672606D01*
X6320200Y5284901D01*
X6320201Y5284900D01*
X6698000Y5284900D01*
X6698000Y5107100D01*
X6320201Y5107100D01*
X6320200Y5107099D01*
X6320200Y4719395D01*
X6350088Y4569133D01*
X6350090Y4569128D01*
X6408724Y4427573D01*
X6493842Y4300185D01*
X6602184Y4191843D01*
X6729572Y4106725D01*
X6871127Y4048091D01*
X6871132Y4048089D01*
X6934868Y4035411D01*
X6986272Y4004219D01*
X7005599Y3947283D01*
X6983807Y3891244D01*
X6931092Y3862323D01*
X6917720Y3861300D01*
X6364079Y3861300D01*
X6307578Y3881865D01*
X6301924Y3887045D01*
X5360245Y4828725D01*
X5334834Y4883219D01*
X5334500Y4890880D01*
X5334500Y7172336D01*
X8431700Y7172336D01*
X8431700Y7051665D01*
X8462930Y6935107D01*
X8462931Y6935104D01*
X8462932Y6935103D01*
X8523268Y6830597D01*
X8608597Y6745268D01*
X8713103Y6684932D01*
X8713105Y6684932D01*
X8713106Y6684931D01*
X8829664Y6653700D01*
X8950335Y6653700D01*
X8950336Y6653700D01*
X9066897Y6684932D01*
X9107753Y6708521D01*
X9125428Y6718724D01*
X9169377Y6730500D01*
X12928623Y6730500D01*
X12972572Y6718724D01*
X12999722Y6703050D01*
X13031103Y6684932D01*
X13147664Y6653700D01*
X13268335Y6653700D01*
X13268336Y6653700D01*
X13384897Y6684932D01*
X13489403Y6745268D01*
X13574732Y6830597D01*
X13635068Y6935103D01*
X13666300Y7051664D01*
X13666300Y7172336D01*
X13642790Y7260079D01*
X13635069Y7288894D01*
X13635068Y7288895D01*
X13635068Y7288897D01*
X13574732Y7393403D01*
X13489403Y7478732D01*
X13384897Y7539068D01*
X13384896Y7539069D01*
X13384893Y7539070D01*
X13268336Y7570300D01*
X13147664Y7570300D01*
X13031104Y7539069D01*
X12972572Y7505276D01*
X12928623Y7493500D01*
X9169377Y7493500D01*
X9125428Y7505276D01*
X9066895Y7539069D01*
X8950336Y7570300D01*
X8829664Y7570300D01*
X8713106Y7539070D01*
X8608595Y7478731D01*
X8523269Y7393405D01*
X8462930Y7288894D01*
X8431700Y7172336D01*
X5334500Y7172336D01*
X5334500Y8851822D01*
X5334499Y8851825D01*
X5295756Y8945361D01*
X5295755Y8945362D01*
X5295755Y8945363D01*
X5224163Y9016955D01*
X5224161Y9016956D01*
X3836245Y10404873D01*
X3810834Y10459367D01*
X3810500Y10467028D01*
X3810500Y12347155D01*
X3831065Y12403656D01*
X3883136Y12433720D01*
X3942350Y12423279D01*
X3960555Y12409310D01*
X4036597Y12333268D01*
X4141103Y12272932D01*
X4141105Y12272932D01*
X4141106Y12272931D01*
X4257664Y12241700D01*
X4378335Y12241700D01*
X4378336Y12241700D01*
X4494897Y12272932D01*
X4599403Y12333268D01*
X4684732Y12418597D01*
X4745068Y12523103D01*
X4776300Y12639664D01*
X4776300Y12760336D01*
X4768260Y12790343D01*
X4745069Y12876894D01*
X4745068Y12876895D01*
X4745068Y12876897D01*
X4684732Y12981403D01*
X4599403Y13066732D01*
X4494897Y13127068D01*
X4494896Y13127069D01*
X4494893Y13127070D01*
X4383650Y13156877D01*
X4334396Y13191365D01*
X4318500Y13241782D01*
X4318500Y16599142D01*
X4339065Y16655643D01*
X4391136Y16685707D01*
X4450350Y16675266D01*
X4468555Y16661297D01*
X4672755Y16457097D01*
X4698166Y16402603D01*
X4698500Y16394942D01*
X4698500Y15189775D01*
X4724499Y15092746D01*
X4741283Y15063675D01*
X4741284Y15063673D01*
X4741283Y15063673D01*
X4774721Y15005757D01*
X4774725Y15005752D01*
X4895810Y14884668D01*
X4895814Y14884663D01*
X4971849Y14808627D01*
X4971851Y14808626D01*
X4971853Y14808624D01*
X5058846Y14758399D01*
X5058848Y14758399D01*
X5058849Y14758398D01*
X5155875Y14732400D01*
X8802500Y14732400D01*
X8859001Y14711835D01*
X8889065Y14659764D01*
X8890400Y14644500D01*
X8890400Y9386034D01*
X8916397Y9289008D01*
X8916398Y9289005D01*
X8916399Y9289004D01*
X8960389Y9212810D01*
X8966625Y9202010D01*
X9394770Y8773865D01*
X9417520Y8734460D01*
X9435009Y8669186D01*
X9435010Y8669183D01*
X9435011Y8669182D01*
X9495347Y8564676D01*
X9580676Y8479347D01*
X9685182Y8419011D01*
X9685184Y8419011D01*
X9685185Y8419010D01*
X9801743Y8387779D01*
X9922414Y8387779D01*
X9922415Y8387779D01*
X10038976Y8419011D01*
X10143482Y8479347D01*
X10228811Y8564676D01*
X10289147Y8669182D01*
X10320379Y8785743D01*
X10320379Y8906415D01*
X10289147Y9022976D01*
X10228811Y9127482D01*
X10143482Y9212811D01*
X10038976Y9273147D01*
X10038975Y9273148D01*
X10038972Y9273149D01*
X9973698Y9290638D01*
X9934293Y9313388D01*
X9679145Y9568536D01*
X9653734Y9623030D01*
X9653400Y9630691D01*
X9653400Y13449065D01*
X9673965Y13505566D01*
X9726036Y13535630D01*
X9764050Y13533970D01*
X9847164Y13511700D01*
X9967835Y13511700D01*
X9967836Y13511700D01*
X10084397Y13542932D01*
X10188903Y13603268D01*
X10274232Y13688597D01*
X10334568Y13793103D01*
X10365800Y13909664D01*
X10365800Y14030336D01*
X10334568Y14146897D01*
X10274232Y14251403D01*
X10188903Y14336732D01*
X10187745Y14337890D01*
X10162334Y14392384D01*
X10162000Y14400045D01*
X10162000Y15431638D01*
X10162001Y15431647D01*
X10162001Y15543124D01*
X10123256Y15636661D01*
X10123255Y15636662D01*
X10123255Y15636663D01*
X8304145Y17455773D01*
X8278734Y17510267D01*
X8278400Y17517928D01*
X8278400Y22487072D01*
X8298965Y22543573D01*
X8304145Y22549227D01*
X10366673Y24611755D01*
X10384064Y24619866D01*
X10398764Y24632199D01*
X10417660Y24635531D01*
X10421167Y24637166D01*
X10428828Y24637500D01*
X10491955Y24637500D01*
X10548456Y24616935D01*
X10554110Y24611755D01*
X10555268Y24610597D01*
X10640597Y24525268D01*
X10745103Y24464932D01*
X10745105Y24464932D01*
X10745106Y24464931D01*
X10861664Y24433700D01*
X10982335Y24433700D01*
X10982336Y24433700D01*
X11098897Y24464932D01*
X11203403Y24525268D01*
X11288732Y24610597D01*
X11349068Y24715103D01*
X11380300Y24831664D01*
X11380300Y24952336D01*
X11349069Y25068894D01*
X11349068Y25068895D01*
X11349068Y25068897D01*
X11288732Y25173403D01*
X11203403Y25258732D01*
X11098897Y25319068D01*
X11098896Y25319069D01*
X11098893Y25319070D01*
X10982336Y25350300D01*
X10861664Y25350300D01*
X10745106Y25319070D01*
X10640595Y25258731D01*
X10554110Y25172245D01*
X10536718Y25164135D01*
X10522019Y25151801D01*
X10503122Y25148470D01*
X10499616Y25146834D01*
X10491955Y25146500D01*
X10347862Y25146500D01*
X10347854Y25146501D01*
X10337623Y25146501D01*
X10236377Y25146501D01*
X10142839Y25107757D01*
X7879737Y22844655D01*
X7879736Y22844656D01*
X7808146Y22773065D01*
X7808143Y22773061D01*
X7769400Y22679525D01*
X7769400Y17325476D01*
X7808143Y17231940D01*
X7808144Y17231939D01*
X7808145Y17231937D01*
X8608730Y16431352D01*
X9395322Y15644760D01*
X9420733Y15590266D01*
X9405170Y15532188D01*
X9355917Y15497700D01*
X9327886Y15495862D01*
X9327886Y15495400D01*
X5549400Y15495400D01*
X5492899Y15515965D01*
X5462835Y15568036D01*
X5461500Y15583300D01*
X5461500Y16639599D01*
X5435502Y16736625D01*
X5435501Y16736626D01*
X5435501Y16736628D01*
X5385276Y16823621D01*
X5385274Y16823623D01*
X5385273Y16823625D01*
X5311178Y16897719D01*
X5311177Y16897719D01*
X4494145Y17714752D01*
X4468734Y17769246D01*
X4468400Y17776907D01*
X4468400Y20644950D01*
X4488965Y20701451D01*
X4541036Y20731515D01*
X4556300Y20732850D01*
X5924574Y20732850D01*
X5924575Y20732850D01*
X6021604Y20758849D01*
X6108597Y20809074D01*
X6179626Y20880103D01*
X7112476Y21812953D01*
X7152481Y21882245D01*
X7162701Y21899946D01*
X7188700Y21996975D01*
X7188700Y23350158D01*
X7209265Y23406659D01*
X7232649Y23426281D01*
X7266403Y23445768D01*
X7351732Y23531097D01*
X7412068Y23635603D01*
X7443300Y23752164D01*
X7443300Y23872836D01*
X7412068Y23989397D01*
X7378276Y24047928D01*
X7366500Y24091877D01*
X7366500Y27322944D01*
X7387065Y27379445D01*
X7392234Y27385088D01*
X8164509Y28157364D01*
X8164514Y28157367D01*
X8171745Y28164599D01*
X8171747Y28164599D01*
X8242776Y28235628D01*
X8293001Y28322621D01*
X8319000Y28419650D01*
X8319000Y30200624D01*
X8330776Y30244574D01*
X8364568Y30303103D01*
X8395800Y30419664D01*
X8395800Y30540336D01*
X8364568Y30656897D01*
X8304232Y30761403D01*
X8218903Y30846732D01*
X8114397Y30907068D01*
X8114396Y30907069D01*
X8114393Y30907070D01*
X7997836Y30938300D01*
X7901874Y30938300D01*
X7845373Y30958865D01*
X7815309Y31010936D01*
X7825750Y31070150D01*
X7839719Y31088355D01*
X8677409Y31926045D01*
X9542161Y32790797D01*
X9542163Y32790797D01*
X9613755Y32862389D01*
X9652500Y32955929D01*
X9652500Y43153201D01*
X9673065Y43209702D01*
X9678245Y43215356D01*
X9679403Y43216514D01*
X9764732Y43301843D01*
X9825068Y43406349D01*
X9856300Y43522910D01*
X9856300Y43643582D01*
X9825068Y43760143D01*
X9764732Y43864649D01*
X9679403Y43949978D01*
X9574897Y44010314D01*
X9574896Y44010315D01*
X9574893Y44010316D01*
X9458336Y44041546D01*
X9337664Y44041546D01*
X9221106Y44010316D01*
X9116595Y43949977D01*
X9031269Y43864651D01*
X8970930Y43760140D01*
X8939700Y43643582D01*
X8939700Y43522911D01*
X8970930Y43406353D01*
X9031269Y43301842D01*
X9117755Y43215356D01*
X9143166Y43160862D01*
X9143500Y43153201D01*
X9143500Y33148380D01*
X9122935Y33091879D01*
X9117755Y33086225D01*
X8532555Y32501025D01*
X8478061Y32475614D01*
X8419983Y32491177D01*
X8385495Y32540430D01*
X8382500Y32563180D01*
X8382500Y37669955D01*
X8403065Y37726456D01*
X8408245Y37732110D01*
X8441205Y37765070D01*
X8494732Y37818597D01*
X8555068Y37923103D01*
X8586300Y38039664D01*
X8586300Y38160336D01*
X8555068Y38276897D01*
X8494732Y38381403D01*
X8409403Y38466732D01*
X8304897Y38527068D01*
X8304896Y38527069D01*
X8304893Y38527070D01*
X8188336Y38558300D01*
X8067664Y38558300D01*
X7951106Y38527070D01*
X7846595Y38466731D01*
X7761269Y38381405D01*
X7700930Y38276894D01*
X7669700Y38160336D01*
X7669700Y38039664D01*
X7672191Y38030367D01*
X7700930Y37923107D01*
X7761269Y37818596D01*
X7847755Y37732110D01*
X7873166Y37677616D01*
X7873500Y37669955D01*
X7873500Y32309432D01*
X7852935Y32252931D01*
X7847755Y32247278D01*
X3206137Y27605660D01*
X3206137Y27605659D01*
X3206136Y27605660D01*
X3134546Y27534069D01*
X3134543Y27534065D01*
X3095800Y27440529D01*
X2286500Y27440529D01*
X2286500Y27798174D01*
X2307065Y27854675D01*
X2312234Y27860318D01*
X6479871Y32027956D01*
X6534365Y32053366D01*
X6542026Y32053700D01*
X6664335Y32053700D01*
X6664336Y32053700D01*
X6780897Y32084932D01*
X6885403Y32145268D01*
X6970732Y32230597D01*
X7031068Y32335103D01*
X7062300Y32451664D01*
X7062300Y32572336D01*
X7031068Y32688897D01*
X6970732Y32793403D01*
X6885403Y32878732D01*
X6780897Y32939068D01*
X6780896Y32939069D01*
X6780893Y32939070D01*
X6664336Y32970300D01*
X6543664Y32970300D01*
X6427106Y32939070D01*
X6322595Y32878731D01*
X6237269Y32793405D01*
X6176930Y32688894D01*
X6145700Y32572336D01*
X6145700Y32450028D01*
X6125135Y32393527D01*
X6119955Y32387874D01*
X1887837Y28155756D01*
X1887837Y28155755D01*
X1887836Y28155756D01*
X1816246Y28084165D01*
X1816243Y28084161D01*
X1777500Y27990625D01*
X1777500Y13892045D01*
X1756935Y13835544D01*
X1751755Y13829890D01*
X1665269Y13743405D01*
X1604930Y13638894D01*
X1573700Y13522336D01*
X-3301500Y13522336D01*
X-3301500Y55178336D01*
X2817700Y55178336D01*
X2817700Y55057665D01*
X2848930Y54941107D01*
X2909269Y54836596D01*
X2995755Y54750110D01*
X3021166Y54695616D01*
X3021500Y54687955D01*
X3021500Y51537376D01*
X3060243Y51443840D01*
X3060244Y51443839D01*
X3060245Y51443837D01*
X10641755Y43862327D01*
X10667166Y43807834D01*
X10667500Y43800173D01*
X10667500Y31926045D01*
X10646935Y31869544D01*
X10641755Y31863890D01*
X10555269Y31777405D01*
X10494930Y31672894D01*
X10463700Y31556336D01*
X10463700Y31435665D01*
X10494930Y31319107D01*
X10494931Y31319104D01*
X10494932Y31319103D01*
X10555268Y31214597D01*
X10640597Y31129268D01*
X10745103Y31068932D01*
X10745105Y31068932D01*
X10745106Y31068931D01*
X10861664Y31037700D01*
X10982335Y31037700D01*
X10982336Y31037700D01*
X11098897Y31068932D01*
X11203403Y31129268D01*
X11288732Y31214597D01*
X11349068Y31319103D01*
X11380300Y31435664D01*
X11380300Y31556336D01*
X11349068Y31672897D01*
X11288732Y31777403D01*
X11203403Y31862732D01*
X11202245Y31863890D01*
X11176834Y31918384D01*
X11176500Y31926045D01*
X11176500Y42478336D01*
X11606700Y42478336D01*
X11606700Y42357665D01*
X11637930Y42241107D01*
X11698269Y42136596D01*
X11746655Y42088210D01*
X11772066Y42033716D01*
X11772400Y42026055D01*
X11772400Y11563529D01*
X11751835Y11507028D01*
X11746655Y11501374D01*
X11698269Y11452989D01*
X11637930Y11348478D01*
X11606700Y11231920D01*
X11606700Y11111249D01*
X11637930Y10994691D01*
X11637931Y10994688D01*
X11637932Y10994687D01*
X11698268Y10890181D01*
X11783597Y10804852D01*
X11888103Y10744516D01*
X11888105Y10744516D01*
X11888106Y10744515D01*
X12004664Y10713284D01*
X12125335Y10713284D01*
X12125336Y10713284D01*
X12241897Y10744516D01*
X12275551Y10763947D01*
X12334763Y10774388D01*
X12386835Y10744325D01*
X12407400Y10687824D01*
X12407400Y9281945D01*
X12386835Y9225444D01*
X12381655Y9219790D01*
X12333269Y9171405D01*
X12272930Y9066894D01*
X12241700Y8950336D01*
X12241700Y8829665D01*
X12272930Y8713107D01*
X12272931Y8713104D01*
X12272932Y8713103D01*
X12333268Y8608597D01*
X12418597Y8523268D01*
X12523103Y8462932D01*
X12523105Y8462932D01*
X12523106Y8462931D01*
X12639664Y8431700D01*
X12760335Y8431700D01*
X12760336Y8431700D01*
X12876897Y8462932D01*
X12981403Y8523268D01*
X13066732Y8608597D01*
X13127068Y8713103D01*
X13158300Y8829664D01*
X13158300Y8950336D01*
X13140450Y9016955D01*
X13127069Y9066894D01*
X13127068Y9066895D01*
X13127068Y9066897D01*
X13066732Y9171403D01*
X13018345Y9219790D01*
X12992934Y9274284D01*
X12992600Y9281945D01*
X12992600Y11531101D01*
X17894400Y11531101D01*
X17894400Y11403899D01*
X17927322Y11281030D01*
X17990924Y11170869D01*
X18080869Y11080924D01*
X18191030Y11017322D01*
X18313899Y10984400D01*
X18441100Y10984400D01*
X18441101Y10984400D01*
X18563970Y11017322D01*
X18674131Y11080924D01*
X18764076Y11170869D01*
X18827678Y11281030D01*
X18860600Y11403899D01*
X18860600Y11531101D01*
X18859848Y11536813D01*
X18861846Y11537077D01*
X18866378Y11588959D01*
X18883890Y11613974D01*
X22567755Y15297837D01*
X22606501Y15391377D01*
X22606501Y15492623D01*
X22606501Y15499702D01*
X22606500Y15499716D01*
X22606500Y36907955D01*
X22627065Y36964456D01*
X22632245Y36970110D01*
X22633403Y36971268D01*
X22718732Y37056597D01*
X22779068Y37161103D01*
X22810300Y37277664D01*
X22810300Y37398336D01*
X22779068Y37514897D01*
X22718732Y37619403D01*
X22633403Y37704732D01*
X22528897Y37765068D01*
X22528896Y37765069D01*
X22528893Y37765070D01*
X22412336Y37796300D01*
X22291664Y37796300D01*
X22175106Y37765070D01*
X22070595Y37704731D01*
X21985269Y37619405D01*
X21924930Y37514894D01*
X21893700Y37398336D01*
X21893700Y37277665D01*
X21924930Y37161107D01*
X21985269Y37056596D01*
X22071755Y36970110D01*
X22097166Y36915616D01*
X22097500Y36907955D01*
X22097500Y15583829D01*
X22076935Y15527328D01*
X22071755Y15521674D01*
X18523974Y11973894D01*
X18469480Y11948483D01*
X18446891Y11950461D01*
X18446811Y11949848D01*
X18441102Y11950600D01*
X18441101Y11950600D01*
X18313899Y11950600D01*
X18191031Y11917679D01*
X18080871Y11854078D01*
X17990922Y11764129D01*
X17927321Y11653969D01*
X17906991Y11578092D01*
X17894400Y11531101D01*
X12992600Y11531101D01*
X12992600Y24501055D01*
X13013165Y24557556D01*
X13065236Y24587620D01*
X13124450Y24577179D01*
X13142655Y24563210D01*
X13180597Y24525268D01*
X13285103Y24464932D01*
X13285105Y24464932D01*
X13285106Y24464931D01*
X13401664Y24433700D01*
X13522335Y24433700D01*
X13522336Y24433700D01*
X13638897Y24464932D01*
X13690411Y24494674D01*
X13749622Y24505114D01*
X13801693Y24475050D01*
X13819263Y24441300D01*
X13839021Y24367563D01*
X13857329Y24323365D01*
X13857329Y24323364D01*
X13857332Y24323358D01*
X13857333Y24323357D01*
X13923159Y24209343D01*
X13952288Y24171380D01*
X14045380Y24078288D01*
X14083343Y24049159D01*
X14197357Y23983333D01*
X14241565Y23965021D01*
X14368732Y23930946D01*
X14403680Y23926345D01*
X14416172Y23924700D01*
X14416174Y23924700D01*
X15047828Y23924700D01*
X15058866Y23926154D01*
X15095268Y23930946D01*
X15222435Y23965021D01*
X15266643Y23983333D01*
X15380657Y24049159D01*
X15418620Y24078288D01*
X15511712Y24171380D01*
X15540841Y24209343D01*
X15606667Y24323357D01*
X15624979Y24367565D01*
X15659054Y24494732D01*
X15665300Y24542174D01*
X15665300Y25108000D01*
X15663964Y25130094D01*
X15661912Y25135503D01*
X15661104Y25195621D01*
X15699129Y25242197D01*
X15758197Y25253434D01*
X15806255Y25228827D01*
X15963055Y25072027D01*
X15988466Y25017533D01*
X15988800Y25009872D01*
X15988800Y24600076D01*
X16027543Y24506540D01*
X16032355Y24499339D01*
X16030600Y24498167D01*
X16051366Y24453634D01*
X16051700Y24445973D01*
X16051700Y24444336D01*
X16051700Y24323664D01*
X16058695Y24297556D01*
X16082930Y24207107D01*
X16082931Y24207104D01*
X16082932Y24207103D01*
X16143268Y24102597D01*
X16228597Y24017268D01*
X16333103Y23956932D01*
X16333105Y23956932D01*
X16333106Y23956931D01*
X16449664Y23925700D01*
X16570335Y23925700D01*
X16570336Y23925700D01*
X16686897Y23956932D01*
X16791403Y24017268D01*
X16876732Y24102597D01*
X16937068Y24207103D01*
X16968300Y24323664D01*
X16968300Y24444336D01*
X16960070Y24475050D01*
X16937069Y24560894D01*
X16937068Y24560895D01*
X16937068Y24560897D01*
X16876732Y24665403D01*
X16791403Y24750732D01*
X16686897Y24811068D01*
X16686896Y24811069D01*
X16686893Y24811070D01*
X16564771Y24843791D01*
X16565456Y24846351D01*
X16558832Y24849800D01*
X16541750Y24852812D01*
X16532981Y24863262D01*
X16520885Y24869561D01*
X16514250Y24885585D01*
X16503101Y24898872D01*
X16498912Y24922629D01*
X16497883Y24925114D01*
X16497800Y24928936D01*
X16497800Y25090838D01*
X16497801Y25090847D01*
X16497801Y25202324D01*
X16459056Y25295861D01*
X16459055Y25295862D01*
X16459055Y25295863D01*
X15648402Y26106516D01*
X15625650Y26145929D01*
X15624978Y26148437D01*
X15606670Y26192636D01*
X15606670Y26192637D01*
X15606667Y26192643D01*
X15540841Y26306657D01*
X15511712Y26344620D01*
X15418620Y26437712D01*
X15380657Y26466841D01*
X15266643Y26532667D01*
X15266639Y26532669D01*
X15266635Y26532671D01*
X15222437Y26550978D01*
X15222438Y26550978D01*
X15222435Y26550979D01*
X15125330Y26576999D01*
X15095276Y26585052D01*
X15095269Y26585054D01*
X15047828Y26591300D01*
X15047826Y26591300D01*
X14416174Y26591300D01*
X14416172Y26591300D01*
X14368730Y26585054D01*
X14368723Y26585052D01*
X14282601Y26561975D01*
X14241565Y26550979D01*
X14241563Y26550979D01*
X14241562Y26550978D01*
X14197364Y26532671D01*
X14197363Y26532671D01*
X14083341Y26466840D01*
X14045384Y26437716D01*
X14045380Y26437713D01*
X13952287Y26344620D01*
X13952284Y26344616D01*
X13923160Y26306659D01*
X13857329Y26192637D01*
X13857329Y26192636D01*
X13839022Y26148438D01*
X13804948Y26021277D01*
X13804946Y26021270D01*
X13798700Y25973828D01*
X13798700Y25408001D01*
X13800187Y25383407D01*
X13783070Y25325768D01*
X13732907Y25292616D01*
X13673171Y25299465D01*
X13668498Y25301978D01*
X13638895Y25319069D01*
X13522336Y25350300D01*
X13401664Y25350300D01*
X13285106Y25319070D01*
X13180595Y25258731D01*
X13142655Y25220790D01*
X13088161Y25195379D01*
X13030083Y25210942D01*
X12995595Y25260195D01*
X12992600Y25282945D01*
X12992600Y38160336D01*
X14019700Y38160336D01*
X14019700Y38039664D01*
X14022191Y38030367D01*
X14050930Y37923107D01*
X14050931Y37923104D01*
X14050932Y37923103D01*
X14111268Y37818597D01*
X14196597Y37733268D01*
X14301103Y37672932D01*
X14301105Y37672932D01*
X14301106Y37672931D01*
X14417664Y37641700D01*
X14539972Y37641700D01*
X14596473Y37621135D01*
X14602127Y37615955D01*
X18133755Y34084327D01*
X18159166Y34029833D01*
X18159500Y34022172D01*
X18159500Y22528045D01*
X18138935Y22471544D01*
X18133755Y22465890D01*
X18047269Y22379405D01*
X17986930Y22274894D01*
X17955700Y22158336D01*
X17955700Y22037665D01*
X17986930Y21921107D01*
X17986931Y21921104D01*
X17986932Y21921103D01*
X18047268Y21816597D01*
X18132597Y21731268D01*
X18237103Y21670932D01*
X18237105Y21670932D01*
X18237106Y21670931D01*
X18353664Y21639700D01*
X18474335Y21639700D01*
X18474336Y21639700D01*
X18590897Y21670932D01*
X18695403Y21731268D01*
X18780732Y21816597D01*
X18841068Y21921103D01*
X18872300Y22037664D01*
X18872300Y22158336D01*
X18841068Y22274897D01*
X18780732Y22379403D01*
X18695403Y22464732D01*
X18694245Y22465890D01*
X18668834Y22520384D01*
X18668500Y22528045D01*
X18668500Y34103138D01*
X18668501Y34103147D01*
X18668501Y34214624D01*
X18629756Y34308161D01*
X18629755Y34308162D01*
X18629755Y34308163D01*
X14962045Y37975873D01*
X14936634Y38030367D01*
X14936300Y38038028D01*
X14936300Y38160336D01*
X14905069Y38276894D01*
X14905068Y38276895D01*
X14905068Y38276897D01*
X14844732Y38381403D01*
X14759403Y38466732D01*
X14654897Y38527068D01*
X14654896Y38527069D01*
X14654893Y38527070D01*
X14538336Y38558300D01*
X14417664Y38558300D01*
X14301106Y38527070D01*
X14196595Y38466731D01*
X14111269Y38381405D01*
X14050930Y38276894D01*
X14019700Y38160336D01*
X12992600Y38160336D01*
X12992600Y40756055D01*
X13013165Y40812556D01*
X13018345Y40818210D01*
X13042400Y40842265D01*
X13066732Y40866597D01*
X13127068Y40971103D01*
X13158300Y41087664D01*
X13158300Y41208336D01*
X13127068Y41324897D01*
X13066732Y41429403D01*
X12981403Y41514732D01*
X12876897Y41575068D01*
X12876896Y41575069D01*
X12876893Y41575070D01*
X12760336Y41606300D01*
X12639664Y41606300D01*
X12523104Y41575069D01*
X12489449Y41555638D01*
X12430235Y41545198D01*
X12378164Y41575262D01*
X12357600Y41631762D01*
X12357600Y42026055D01*
X12378165Y42082556D01*
X12383345Y42088210D01*
X12431732Y42136597D01*
X12492068Y42241103D01*
X12523300Y42357664D01*
X12523300Y42478336D01*
X12492068Y42594897D01*
X12431732Y42699403D01*
X12346403Y42784732D01*
X12241897Y42845068D01*
X12241896Y42845069D01*
X12241893Y42845070D01*
X12125336Y42876300D01*
X12004664Y42876300D01*
X11888106Y42845070D01*
X11783595Y42784731D01*
X11698269Y42699405D01*
X11637930Y42594894D01*
X11606700Y42478336D01*
X11176500Y42478336D01*
X11176500Y43881138D01*
X11176501Y43881147D01*
X11176501Y43992624D01*
X11137756Y44086161D01*
X11137755Y44086162D01*
X11137755Y44086163D01*
X3556245Y51667673D01*
X3530834Y51722167D01*
X3530500Y51729828D01*
X3530500Y54687955D01*
X3551065Y54744456D01*
X3556245Y54750110D01*
X3557403Y54751268D01*
X3642732Y54836597D01*
X3703068Y54941103D01*
X3734300Y55057664D01*
X3734300Y55178336D01*
X3703068Y55294897D01*
X3642732Y55399403D01*
X3557403Y55484732D01*
X3452897Y55545068D01*
X3452896Y55545069D01*
X3452893Y55545070D01*
X3336336Y55576300D01*
X3215664Y55576300D01*
X3099106Y55545070D01*
X2994595Y55484731D01*
X2909269Y55399405D01*
X2848930Y55294894D01*
X2817700Y55178336D01*
X-3301500Y55178336D01*
X-3301500Y60871600D01*
X-3280935Y60928101D01*
X-3228864Y60958165D01*
X-3213600Y60959500D01*
X4585696Y60959500D01*
X4642197Y60938935D01*
G37*
%TD.AperFunction*%
%TD*%
M02*
