M48
; DRILL file {KiCad 9.0.4} date 2025-10-28T22:37:09+0100
; FORMAT={-:-/ absolute / metric / decimal}
; #@! TF.CreationDate,2025-10-28T22:37:09+01:00
; #@! TF.GenerationSoftware,Kicad,Pcbnew,9.0.4
; #@! TF.FileFunction,MixedPlating,1,4
FMAT,2
METRIC
; #@! TA.AperFunction,Plated,PTH,ViaDrill
T1C0.300
; #@! TA.AperFunction,Plated,PTH,ViaDrill
T2C0.305
; #@! TA.AperFunction,Plated,PTH,ComponentDrill
T3C0.600
; #@! TA.AperFunction,NonPlated,NPTH,ComponentDrill
T4C0.650
; #@! TA.AperFunction,NonPlated,NPTH,ComponentDrill
T5C3.100
%
G90
G05
T1
X0.635Y53.975
X2.032Y17.272
X2.794Y13.462
X3.556Y38.354
X3.81Y9.049
X4.064Y37.592
X4.318Y12.7
X5.08Y11.938
X5.333Y41.434
X5.514Y48.218
X5.588Y51.562
X5.842Y50.546
X5.842Y25.717
X5.842Y6.35
X5.874Y42.227
X6.667Y28.892
X6.667Y7.62
X6.985Y23.812
X7.112Y51.562
X7.366Y16.51
X7.874Y4.191
X7.938Y30.48
X8.128Y11.182
X8.255Y40.005
X8.255Y22.86
X8.382Y47.244
X8.382Y45.72
X8.382Y43.942
X8.636Y51.562
X9.272Y9.398
X9.398Y4.318
X9.906Y42.926
X9.907Y13.97
X9.907Y11.43
X10.16Y51.562
X10.16Y48.768
X10.16Y40.322
X10.795Y17.78
X11.43Y51.562
X11.43Y48.768
X11.43Y42.926
X12.086Y25.766
X12.445Y11.52
X12.7Y51.562
X12.7Y8.89
X12.954Y48.768
X12.954Y42.926
X13.462Y4.318
X13.716Y16.764
X13.97Y51.562
X13.97Y40.957
X14.478Y47.498
X14.478Y45.72
X14.478Y44.45
X14.922Y22.543
X14.986Y4.191
X15.24Y51.562
X16.383Y25.908
X16.51Y24.384
X16.597Y6.985
X16.637Y22.098
X16.828Y51.752
X17.018Y27.432
X17.113Y7.541
X17.272Y50.546
X18.034Y6.604
X18.476Y37.339
X18.884Y33.528
X19.558Y38.862
X19.812Y53.34
X19.812Y48.26
X19.812Y45.72
T2
X11.43Y40.005
X12.383Y40.005
X18.377Y11.467
X19.533Y39.688
T4
X8.54Y4.901
X14.32Y4.901
T5
X2.54Y2.54
X20.32Y2.54
T3
G00X7.112Y5.981
M15
G01X7.112Y4.881
M16
G05
G00X7.112Y1.551
M15
G01X7.112Y0.951
M16
G05
G00X15.748Y5.981
M15
G01X15.748Y4.881
M16
G05
G00X15.748Y1.551
M15
G01X15.748Y0.951
M16
G05
M30
