%TF.GenerationSoftware,KiCad,Pcbnew,9.0.4*%
%TF.CreationDate,2025-11-04T00:18:31+01:00*%
%TF.ProjectId,SparkFun_Thing_Plus_ESP32-S3,53706172-6b46-4756-9e5f-5468696e675f,rev?*%
%TF.SameCoordinates,Original*%
%TF.FileFunction,Soldermask,Top*%
%TF.FilePolarity,Negative*%
%FSLAX46Y46*%
G04 Gerber Fmt 4.6, Leading zero omitted, Abs format (unit mm)*
G04 Created by KiCad (PCBNEW 9.0.4) date 2025-11-04 00:18:31*
%MOMM*%
%LPD*%
G01*
G04 APERTURE LIST*
G04 Aperture macros list*
%AMRoundRect*
0 Rectangle with rounded corners*
0 $1 Rounding radius*
0 $2 $3 $4 $5 $6 $7 $8 $9 X,Y pos of 4 corners*
0 Add a 4 corners polygon primitive as box body*
4,1,4,$2,$3,$4,$5,$6,$7,$8,$9,$2,$3,0*
0 Add four circle primitives for the rounded corners*
1,1,$1+$1,$2,$3*
1,1,$1+$1,$4,$5*
1,1,$1+$1,$6,$7*
1,1,$1+$1,$8,$9*
0 Add four rect primitives between the rounded corners*
20,1,$1+$1,$2,$3,$4,$5,0*
20,1,$1+$1,$4,$5,$6,$7,0*
20,1,$1+$1,$6,$7,$8,$9,0*
20,1,$1+$1,$8,$9,$2,$3,0*%
G04 Aperture macros list end*
%ADD10C,0.000000*%
%ADD11RoundRect,0.135000X0.185000X-0.135000X0.185000X0.135000X-0.185000X0.135000X-0.185000X-0.135000X0*%
%ADD12C,0.650000*%
%ADD13R,0.300000X1.000000*%
%ADD14R,0.600000X1.000000*%
%ADD15O,1.000000X1.600000*%
%ADD16O,1.000000X2.100000*%
%ADD17RoundRect,0.135000X-0.185000X0.135000X-0.185000X-0.135000X0.185000X-0.135000X0.185000X0.135000X0*%
%ADD18R,0.800000X3.000000*%
%ADD19RoundRect,0.225000X0.250000X-0.225000X0.250000X0.225000X-0.250000X0.225000X-0.250000X-0.225000X0*%
%ADD20RoundRect,0.135000X0.135000X0.185000X-0.135000X0.185000X-0.135000X-0.185000X0.135000X-0.185000X0*%
%ADD21RoundRect,0.140000X-0.170000X0.140000X-0.170000X-0.140000X0.170000X-0.140000X0.170000X0.140000X0*%
%ADD22RoundRect,0.135000X-0.135000X-0.185000X0.135000X-0.185000X0.135000X0.185000X-0.135000X0.185000X0*%
%ADD23R,0.900000X1.000000*%
%ADD24C,3.100000*%
%ADD25R,1.200000X0.550000*%
%ADD26RoundRect,0.140000X0.140000X0.170000X-0.140000X0.170000X-0.140000X-0.170000X0.140000X-0.170000X0*%
%ADD27R,0.790000X0.540000*%
%ADD28RoundRect,0.140000X-0.140000X-0.170000X0.140000X-0.170000X0.140000X0.170000X-0.140000X0.170000X0*%
%ADD29R,1.500000X0.900000*%
%ADD30R,0.900000X1.500000*%
%ADD31R,0.900000X0.900000*%
%ADD32RoundRect,0.225000X-0.225000X-0.250000X0.225000X-0.250000X0.225000X0.250000X-0.225000X0.250000X0*%
%ADD33R,3.200000X1.000000*%
%ADD34R,4.000000X1.500000*%
G04 APERTURE END LIST*
D10*
%TO.C,U4*%
G36*
X18797500Y10055000D02*
G01*
X17957500Y10055000D01*
X17957500Y10495000D01*
X18797500Y10495000D01*
X18797500Y10055000D01*
G37*
G36*
X18797500Y9555000D02*
G01*
X17957500Y9555000D01*
X17957500Y9995000D01*
X18797500Y9995000D01*
X18797500Y9555000D01*
G37*
G36*
X18797500Y9055000D02*
G01*
X17957500Y9055000D01*
X17957500Y9495000D01*
X18797500Y9495000D01*
X18797500Y9055000D01*
G37*
G36*
X18797500Y8555000D02*
G01*
X17957500Y8555000D01*
X17957500Y8995000D01*
X18797500Y8995000D01*
X18797500Y8555000D01*
G37*
G36*
X19837500Y8765000D02*
G01*
X18897500Y8765000D01*
X18897500Y10285000D01*
X19837500Y10285000D01*
X19837500Y8765000D01*
G37*
G36*
X20797500Y10055000D02*
G01*
X19957500Y10055000D01*
X19957500Y10495000D01*
X20797500Y10495000D01*
X20797500Y10055000D01*
G37*
G36*
X20797500Y9555000D02*
G01*
X19957500Y9555000D01*
X19957500Y9995000D01*
X20797500Y9995000D01*
X20797500Y9555000D01*
G37*
G36*
X20797500Y9055000D02*
G01*
X19957500Y9055000D01*
X19957500Y9495000D01*
X20797500Y9495000D01*
X20797500Y9055000D01*
G37*
G36*
X20797500Y8555000D02*
G01*
X19957500Y8555000D01*
X19957500Y8995000D01*
X20797500Y8995000D01*
X20797500Y8555000D01*
G37*
%TD*%
D11*
%TO.C,R8*%
X18415000Y25207500D03*
X18415000Y26227500D03*
%TD*%
D12*
%TO.C,J1*%
X8540000Y4901250D03*
X14320000Y4901250D03*
D13*
X10180000Y6006250D03*
X11180000Y6006250D03*
X11680000Y6006250D03*
X12680000Y6006250D03*
X13180000Y6006250D03*
X12180000Y6006250D03*
X10680000Y6006250D03*
X9680000Y6006250D03*
D14*
X8205000Y6006250D03*
X14655000Y6006250D03*
D15*
X7112000Y1251250D03*
D16*
X7112000Y5431250D03*
X15748000Y5431250D03*
D15*
X15748000Y1251250D03*
D14*
X8980000Y6006250D03*
X13880000Y6006250D03*
%TD*%
D17*
%TO.C,R17*%
X9842500Y13210000D03*
X9842500Y12190000D03*
%TD*%
D18*
%TO.C,X1*%
X0Y50800000D03*
X0Y45200000D03*
%TD*%
D19*
%TO.C,C9*%
X11430000Y13830000D03*
X11430000Y15380000D03*
%TD*%
D20*
%TO.C,R13*%
X6225000Y23495000D03*
X5205000Y23495000D03*
%TD*%
D21*
%TO.C,C2*%
X21590000Y10005000D03*
X21590000Y9045000D03*
%TD*%
D22*
%TO.C,R16*%
X14412500Y12065000D03*
X15432500Y12065000D03*
%TD*%
D11*
%TO.C,R11*%
X5715000Y4252500D03*
X5715000Y5272500D03*
%TD*%
D23*
%TO.C,SW2*%
X11285000Y26517500D03*
X15385000Y26517500D03*
X11285000Y24917500D03*
X15385000Y24917500D03*
%TD*%
D24*
%TO.C,ST1*%
X2540000Y2540000D03*
%TD*%
D25*
%TO.C,U2*%
X16222600Y8575000D03*
X16222600Y9525000D03*
X16222600Y10475000D03*
X13622400Y10475000D03*
X13622500Y9525000D03*
X13622400Y8575000D03*
%TD*%
%TO.C,U5*%
X16222600Y13655000D03*
X16222600Y14605000D03*
X16222600Y15555000D03*
X13622400Y15555000D03*
X13622400Y13655000D03*
%TD*%
D20*
%TO.C,R19*%
X8447500Y13335000D03*
X7427500Y13335000D03*
%TD*%
D26*
%TO.C,C7*%
X706000Y56896000D03*
X-254000Y56896000D03*
%TD*%
D27*
%TO.C,C4*%
X-1090000Y53594000D03*
X0Y53594000D03*
%TD*%
D21*
%TO.C,C12*%
X18415000Y15085000D03*
X18415000Y14125000D03*
%TD*%
%TO.C,C6*%
X17145000Y26197500D03*
X17145000Y25237500D03*
%TD*%
D25*
%TO.C,U6*%
X4414900Y26667500D03*
X4414900Y25717500D03*
X4414900Y24767500D03*
X7015100Y24767500D03*
X7015100Y26667500D03*
%TD*%
D27*
%TO.C,C8*%
X-1053000Y42418000D03*
X37000Y42418000D03*
%TD*%
D17*
%TO.C,R10*%
X17145000Y5272500D03*
X17145000Y4252500D03*
%TD*%
D28*
%TO.C,C10*%
X5235000Y27940000D03*
X6195000Y27940000D03*
%TD*%
D29*
%TO.C,U3*%
X3810000Y57658000D03*
X3810000Y56388000D03*
X3810000Y55118000D03*
X3810000Y53848000D03*
X3810000Y52578000D03*
X3810000Y51308000D03*
X3810000Y50038000D03*
X3810000Y48768000D03*
X3810000Y47498000D03*
X3810000Y46228000D03*
X3810000Y44958000D03*
X3810000Y43688000D03*
X3810000Y42418000D03*
X3810000Y41148000D03*
D30*
X5575000Y39868000D03*
X6845000Y39868000D03*
X8115000Y39868000D03*
X9385000Y39868000D03*
X10655000Y39868000D03*
X11925000Y39868000D03*
X13195000Y39868000D03*
X14465000Y39868000D03*
X15735000Y39868000D03*
X17005000Y39868000D03*
X18275000Y39868000D03*
X19545000Y39898000D03*
D29*
X21310000Y41148000D03*
X21310000Y42418000D03*
X21310000Y43688000D03*
X21310000Y44958000D03*
X21310000Y46228000D03*
X21310000Y47498000D03*
X21310000Y48768000D03*
X21310000Y50038000D03*
X21310000Y51308000D03*
X21310000Y52578000D03*
X21310000Y53848000D03*
X21310000Y55118000D03*
X21310000Y56388000D03*
X21310000Y57658000D03*
D31*
X9660000Y51338000D03*
X9660000Y49938000D03*
X9660000Y48538000D03*
X11060000Y51338000D03*
X11060000Y49938000D03*
X11060000Y48538000D03*
X12460000Y51338000D03*
X12460000Y49938000D03*
X12460000Y48538000D03*
%TD*%
D32*
%TO.C,C1*%
X-1016000Y58166000D03*
X534000Y58166000D03*
%TD*%
D25*
%TO.C,U1*%
X10825100Y8575000D03*
X10825100Y9525000D03*
X10825100Y10475000D03*
X8224900Y10475000D03*
X8224900Y8575000D03*
%TD*%
D28*
%TO.C,C13*%
X9045000Y26670000D03*
X10005000Y26670000D03*
%TD*%
D21*
%TO.C,C3*%
X6667500Y10005000D03*
X6667500Y9045000D03*
%TD*%
D24*
%TO.C,ST3*%
X20320000Y2540000D03*
%TD*%
D26*
%TO.C,C14*%
X10957500Y7620000D03*
X9997500Y7620000D03*
%TD*%
D33*
%TO.C,J3*%
X4884000Y19444000D03*
X4884000Y17444000D03*
D34*
X-1016000Y15044000D03*
X-1016000Y21844000D03*
%TD*%
M02*
