M48
; DRILL file {KiCad 9.0.4} date 2025-11-12T09:57:30+0100
; FORMAT={-:-/ absolute / metric / decimal}
; #@! TF.CreationDate,2025-11-12T09:57:30+01:00
; #@! TF.GenerationSoftware,Kicad,Pcbnew,9.0.4
; #@! TF.FileFunction,MixedPlating,1,2
FMAT,2
METRIC
; #@! TA.AperFunction,Plated,PTH,ViaDrill
T1C0.300
; #@! TA.AperFunction,Plated,PTH,ViaDrill
T2C0.305
; #@! TA.AperFunction,Plated,PTH,ComponentDrill
T3C0.800
; #@! TA.AperFunction,NonPlated,NPTH,ComponentDrill
T4C3.100
%
G90
G05
T1
X0.762Y17.414
X2.032Y13.462
X2.54Y58.674
X3.276Y55.118
X3.81Y8.128
X4.318Y12.7
X5.08Y11.938
X5.842Y25.717
X5.842Y6.35
X6.604Y32.512
X6.667Y28.892
X6.667Y7.62
X6.985Y23.812
X7.366Y16.51
X7.938Y30.48
X8.128Y38.1
X8.128Y11.684
X8.89Y7.112
X9.398Y43.583
X9.862Y8.846
X9.907Y13.97
X10.922Y31.496
X10.922Y24.892
X11.176Y22.098
X12.065Y42.418
X12.065Y11.172
X12.7Y41.148
X12.7Y8.89
X13.208Y7.112
X13.462Y24.892
X14.478Y38.1
X16.002Y38.1
X16.51Y24.384
X16.597Y6.985
X17.113Y7.541
X18.034Y6.604
X18.414Y22.098
X20.32Y37.338
X22.352Y37.338
T2
X18.377Y11.467
T4
X2.54Y2.54
X20.32Y2.54
T3
G00X7.098Y5.596
M15
G01X7.098Y4.796
M16
G05
G00X7.098Y1.316
M15
G01X7.098Y0.716
M16
G05
G00X15.748Y5.596
M15
G01X15.748Y4.796
M16
G05
G00X15.748Y1.316
M15
G01X15.748Y0.716
M16
G05
M30
