%TF.GenerationSoftware,KiCad,Pcbnew,9.0.4*%
%TF.CreationDate,2025-11-12T09:57:30+01:00*%
%TF.ProjectId,SparkFun_Thing_Plus_ESP32-S3,53706172-6b46-4756-9e5f-5468696e675f,rev?*%
%TF.SameCoordinates,Original*%
%TF.FileFunction,Copper,L1,Top*%
%TF.FilePolarity,Positive*%
%FSLAX46Y46*%
G04 Gerber Fmt 4.6, Leading zero omitted, Abs format (unit mm)*
G04 Created by KiCad (PCBNEW 9.0.4) date 2025-11-12 09:57:30*
%MOMM*%
%LPD*%
G01*
G04 APERTURE LIST*
G04 Aperture macros list*
%AMRoundRect*
0 Rectangle with rounded corners*
0 $1 Rounding radius*
0 $2 $3 $4 $5 $6 $7 $8 $9 X,Y pos of 4 corners*
0 Add a 4 corners polygon primitive as box body*
4,1,4,$2,$3,$4,$5,$6,$7,$8,$9,$2,$3,0*
0 Add four circle primitives for the rounded corners*
1,1,$1+$1,$2,$3*
1,1,$1+$1,$4,$5*
1,1,$1+$1,$6,$7*
1,1,$1+$1,$8,$9*
0 Add four rect primitives between the rounded corners*
20,1,$1+$1,$2,$3,$4,$5,0*
20,1,$1+$1,$4,$5,$6,$7,0*
20,1,$1+$1,$6,$7,$8,$9,0*
20,1,$1+$1,$8,$9,$2,$3,0*%
G04 Aperture macros list end*
%TA.AperFunction,SMDPad,CuDef*%
%ADD10R,1.000000X0.750000*%
%TD*%
%TA.AperFunction,SMDPad,CuDef*%
%ADD11R,1.800000X1.000000*%
%TD*%
%TA.AperFunction,SMDPad,CuDef*%
%ADD12R,0.300000X1.300000*%
%TD*%
%TA.AperFunction,SMDPad,CuDef*%
%ADD13R,0.300000X1.260000*%
%TD*%
%TA.AperFunction,ComponentPad*%
%ADD14O,1.200000X1.800000*%
%TD*%
%TA.AperFunction,ComponentPad*%
%ADD15O,1.200000X2.000000*%
%TD*%
%TA.AperFunction,SMDPad,CuDef*%
%ADD16R,1.500000X0.900000*%
%TD*%
%TA.AperFunction,SMDPad,CuDef*%
%ADD17R,0.900000X1.500000*%
%TD*%
%TA.AperFunction,SMDPad,CuDef*%
%ADD18R,0.900000X0.900000*%
%TD*%
%TA.AperFunction,SMDPad,CuDef*%
%ADD19RoundRect,0.140000X0.170000X-0.140000X0.170000X0.140000X-0.170000X0.140000X-0.170000X-0.140000X0*%
%TD*%
%TA.AperFunction,SMDPad,CuDef*%
%ADD20RoundRect,0.140000X-0.170000X0.140000X-0.170000X-0.140000X0.170000X-0.140000X0.170000X0.140000X0*%
%TD*%
%TA.AperFunction,SMDPad,CuDef*%
%ADD21RoundRect,0.150000X-0.512500X-0.150000X0.512500X-0.150000X0.512500X0.150000X-0.512500X0.150000X0*%
%TD*%
%TA.AperFunction,SMDPad,CuDef*%
%ADD22RoundRect,0.150000X0.512500X0.150000X-0.512500X0.150000X-0.512500X-0.150000X0.512500X-0.150000X0*%
%TD*%
%TA.AperFunction,SMDPad,CuDef*%
%ADD23RoundRect,0.135000X0.135000X0.185000X-0.135000X0.185000X-0.135000X-0.185000X0.135000X-0.185000X0*%
%TD*%
%TA.AperFunction,SMDPad,CuDef*%
%ADD24RoundRect,0.140000X0.140000X0.170000X-0.140000X0.170000X-0.140000X-0.170000X0.140000X-0.170000X0*%
%TD*%
%TA.AperFunction,SMDPad,CuDef*%
%ADD25RoundRect,0.225000X-0.225000X-0.250000X0.225000X-0.250000X0.225000X0.250000X-0.225000X0.250000X0*%
%TD*%
%TA.AperFunction,SMDPad,CuDef*%
%ADD26RoundRect,0.135000X-0.185000X0.135000X-0.185000X-0.135000X0.185000X-0.135000X0.185000X0.135000X0*%
%TD*%
%TA.AperFunction,SMDPad,CuDef*%
%ADD27R,1.100000X0.600000*%
%TD*%
%TA.AperFunction,SMDPad,CuDef*%
%ADD28RoundRect,0.135000X-0.135000X-0.185000X0.135000X-0.185000X0.135000X0.185000X-0.135000X0.185000X0*%
%TD*%
%TA.AperFunction,SMDPad,CuDef*%
%ADD29R,1.072000X0.532000*%
%TD*%
%TA.AperFunction,SMDPad,CuDef*%
%ADD30R,0.540000X0.790000*%
%TD*%
%TA.AperFunction,SMDPad,CuDef*%
%ADD31R,4.000000X1.500000*%
%TD*%
%TA.AperFunction,SMDPad,CuDef*%
%ADD32R,3.200000X1.000000*%
%TD*%
%TA.AperFunction,SMDPad,CuDef*%
%ADD33RoundRect,0.135000X0.185000X-0.135000X0.185000X0.135000X-0.185000X0.135000X-0.185000X-0.135000X0*%
%TD*%
%TA.AperFunction,SMDPad,CuDef*%
%ADD34R,0.700000X0.300000*%
%TD*%
%TA.AperFunction,SMDPad,CuDef*%
%ADD35R,0.800000X1.380000*%
%TD*%
%TA.AperFunction,SMDPad,CuDef*%
%ADD36RoundRect,0.140000X-0.140000X-0.170000X0.140000X-0.170000X0.140000X0.170000X-0.140000X0.170000X0*%
%TD*%
%TA.AperFunction,SMDPad,CuDef*%
%ADD37RoundRect,0.200000X-0.200000X-0.275000X0.200000X-0.275000X0.200000X0.275000X-0.200000X0.275000X0*%
%TD*%
%TA.AperFunction,SMDPad,CuDef*%
%ADD38RoundRect,0.200000X0.200000X0.275000X-0.200000X0.275000X-0.200000X-0.275000X0.200000X-0.275000X0*%
%TD*%
%TA.AperFunction,ViaPad*%
%ADD39C,0.560000*%
%TD*%
%TA.AperFunction,ViaPad*%
%ADD40C,0.609600*%
%TD*%
%TA.AperFunction,Conductor*%
%ADD41C,0.152400*%
%TD*%
%TA.AperFunction,Conductor*%
%ADD42C,0.406400*%
%TD*%
%TA.AperFunction,Conductor*%
%ADD43C,0.228600*%
%TD*%
%TA.AperFunction,Conductor*%
%ADD44C,0.203200*%
%TD*%
%TA.AperFunction,Conductor*%
%ADD45C,0.348996*%
%TD*%
G04 APERTURE END LIST*
D10*
%TO.P,SW1,1,A*%
%TO.N,ESP0{slash}BOOT*%
X9240000Y22496000D03*
%TO.P,SW1,2,B*%
X15240000Y22496000D03*
%TO.P,SW1,3,C*%
%TO.N,GND*%
X9240000Y18796000D03*
%TO.P,SW1,4,D*%
X15240000Y18796000D03*
%TD*%
D11*
%TO.P,X1,1,1*%
%TO.N,ESP15{slash}XTAL_32K_P*%
X0Y49250000D03*
%TO.P,X1,2,2*%
%TO.N,ESP16{slash}XTAL_32K_N*%
X0Y46750000D03*
%TD*%
D12*
%TO.P,USB2,B8,SBU2*%
%TO.N,unconnected-(USB2-SBU2-PadB8)*%
X9673000Y5964000D03*
%TO.P,USB2,A5,CC1*%
%TO.N,Net-(USB2-CC1)*%
X10173000Y5964000D03*
%TO.P,USB2,B7,DN2*%
%TO.N,ESP19{slash}D-*%
X10673000Y5964000D03*
%TO.P,USB2,A6,DP1*%
%TO.N,ESP20{slash}D+*%
X11173000Y5964000D03*
%TO.P,USB2,A7,DN1*%
%TO.N,ESP19{slash}D-*%
X11673000Y5964000D03*
%TO.P,USB2,B6,DP2*%
%TO.N,ESP20{slash}D+*%
X12173000Y5964000D03*
%TO.P,USB2,A8,SBU1*%
%TO.N,unconnected-(USB2-SBU1-PadA8)*%
X12672500Y5964000D03*
%TO.P,USB2,B5,CC2*%
%TO.N,Net-(USB2-CC2)*%
X13173000Y5964000D03*
%TO.P,USB2,A1,GND*%
%TO.N,GND*%
X8073000Y5964000D03*
D13*
%TO.P,USB2,B12,GND*%
X8373000Y5984000D03*
D12*
%TO.P,USB2,A4,VBUS*%
%TO.N,VUSB*%
X8873000Y5964000D03*
%TO.P,USB2,B9,VBUS*%
X9173000Y5964000D03*
%TO.P,USB2,B4,VBUS*%
X13673000Y5964000D03*
%TO.P,USB2,A9,VBUS*%
X13973000Y5964000D03*
D13*
%TO.P,USB2,B1,GND*%
%TO.N,GND*%
X14473000Y5984000D03*
D12*
%TO.P,USB2,A12,GND*%
X14773000Y5964000D03*
D14*
%TO.P,USB2,2,SH*%
X15748000Y1016000D03*
D15*
%TO.P,USB2,1,SH*%
X15748000Y5196000D03*
%TO.P,USB2,0,SH*%
X7098000Y5196000D03*
D14*
%TO.P,USB2,3,SH*%
X7098000Y1016000D03*
%TD*%
D16*
%TO.P,U3,1,GND*%
%TO.N,GND*%
X3810000Y57658000D03*
%TO.P,U3,2,3V3*%
%TO.N,3.3V*%
X3810000Y56388000D03*
%TO.P,U3,3,EN*%
%TO.N,ESP~{RST}*%
X3810000Y55118000D03*
%TO.P,U3,4,IO4*%
%TO.N,ESP4{slash}TOUCH4*%
X3810000Y53848000D03*
%TO.P,U3,5,IO5*%
%TO.N,ESP5{slash}TOUCH5*%
X3810000Y52578000D03*
%TO.P,U3,6,IO6*%
%TO.N,ESP6{slash}TOUCH6*%
X3810000Y51308000D03*
%TO.P,U3,7,IO7*%
%TO.N,ESP7{slash}TOUCH7*%
X3810000Y50038000D03*
%TO.P,U3,8,IO15*%
%TO.N,ESP15{slash}XTAL_32K_P*%
X3810000Y48768000D03*
%TO.P,U3,9,IO16*%
%TO.N,ESP16{slash}XTAL_32K_N*%
X3810000Y47498000D03*
%TO.P,U3,10,IO17*%
%TO.N,unconnected-(U3-IO17-Pad10)*%
X3810000Y46228000D03*
%TO.P,U3,11,IO18*%
%TO.N,unconnected-(U3-IO18-Pad11)*%
X3810000Y44958000D03*
%TO.P,U3,12,IO8*%
%TO.N,ESP8{slash}SDA*%
X3810000Y43688000D03*
%TO.P,U3,13,IO19*%
%TO.N,ESP19{slash}D-*%
X3810000Y42418000D03*
%TO.P,U3,14,IO20*%
%TO.N,ESP20{slash}D+*%
X3810000Y41148000D03*
D17*
%TO.P,U3,15,IO3*%
%TO.N,unconnected-(U3-IO3-Pad15)*%
X5575000Y39868000D03*
%TO.P,U3,16,IO46*%
%TO.N,unconnected-(U3-IO46-Pad16)*%
X6845000Y39868000D03*
%TO.P,U3,17,IO9*%
%TO.N,ESP9{slash}SCL*%
X8115000Y39868000D03*
%TO.P,U3,18,IO10*%
%TO.N,ESP10{slash}SPI_CS0*%
X9385000Y39868000D03*
%TO.P,U3,19,IO11*%
%TO.N,ESP11{slash}SPI0_MOSI*%
X10655000Y39868000D03*
%TO.P,U3,20,IO12*%
%TO.N,ESP12{slash}SPI0_SCK*%
X11925000Y39868000D03*
%TO.P,U3,21,IO13*%
%TO.N,ESP13{slash}SPI0_MISO*%
X13195000Y39868000D03*
%TO.P,U3,22,IO14*%
%TO.N,ESP14{slash}BAT_ADC*%
X14465000Y39868000D03*
%TO.P,U3,23,IO21*%
%TO.N,unconnected-(U3-IO21-Pad23)*%
X15735000Y39868000D03*
%TO.P,U3,24,IO47*%
%TO.N,unconnected-(U3-IO47-Pad24)*%
X17005000Y39868000D03*
%TO.P,U3,25,IO48*%
%TO.N,unconnected-(U3-IO48-Pad25)*%
X18275000Y39868000D03*
%TO.P,U3,26,IO45*%
%TO.N,ESP45{slash}Q_EN*%
X19545000Y39898000D03*
D16*
%TO.P,U3,27,IO0*%
%TO.N,ESP0{slash}BOOT*%
X21310000Y41148000D03*
%TO.P,U3,28,IO35*%
%TO.N,ESP35{slash}~{ALRT}*%
X21310000Y42418000D03*
%TO.P,U3,29,IO36*%
%TO.N,unconnected-(U3-IO36-Pad29)*%
X21310000Y43688000D03*
%TO.P,U3,30,IO37*%
%TO.N,unconnected-(U3-IO37-Pad30)*%
X21310000Y44958000D03*
%TO.P,U3,31,IO38*%
%TO.N,unconnected-(U3-IO38-Pad31)*%
X21310000Y46228000D03*
%TO.P,U3,32,IO39*%
%TO.N,unconnected-(U3-IO39-Pad32)*%
X21310000Y47498000D03*
%TO.P,U3,33,IO40*%
%TO.N,unconnected-(U3-IO40-Pad33)*%
X21310000Y48768000D03*
%TO.P,U3,34,IO41*%
%TO.N,unconnected-(U3-IO41-Pad34)*%
X21310000Y50038000D03*
%TO.P,U3,35,IO42*%
%TO.N,unconnected-(U3-IO42-Pad35)*%
X21310000Y51308000D03*
%TO.P,U3,36,RXD0*%
%TO.N,unconnected-(U3-RXD0-Pad36)*%
X21310000Y52578000D03*
%TO.P,U3,37,TXD0*%
%TO.N,unconnected-(U3-TXD0-Pad37)*%
X21310000Y53848000D03*
%TO.P,U3,38,IO2*%
%TO.N,unconnected-(U3-IO2-Pad38)*%
X21310000Y55118000D03*
%TO.P,U3,39,IO1*%
%TO.N,unconnected-(U3-IO1-Pad39)*%
X21310000Y56388000D03*
%TO.P,U3,40,GND*%
%TO.N,GND*%
X21310000Y57658000D03*
D18*
%TO.P,U3,41,EPAD*%
X12460000Y48538000D03*
X11060000Y48538000D03*
X9660000Y48538000D03*
X9660000Y51338000D03*
X11060000Y51338000D03*
X12460000Y51338000D03*
X12460000Y49938000D03*
X9660000Y49938000D03*
X11060000Y49938000D03*
%TD*%
D19*
%TO.P,C9,1*%
%TO.N,VUSB*%
X11430000Y14280000D03*
%TO.P,C9,2*%
%TO.N,GND*%
X11430000Y15240000D03*
%TD*%
D20*
%TO.P,C3,1*%
%TO.N,3.3V_P*%
X6667500Y10005000D03*
%TO.P,C3,2*%
%TO.N,GND*%
X6667500Y9045000D03*
%TD*%
D21*
%TO.P,U6,1,VIN*%
%TO.N,VIN*%
X4577500Y26667500D03*
%TO.P,U6,2,GND*%
%TO.N,GND*%
X4577500Y25717500D03*
%TO.P,U6,3,EN*%
%TO.N,EN*%
X4577500Y24767500D03*
%TO.P,U6,4,NC*%
%TO.N,unconnected-(U6-NC-Pad4)*%
X6852500Y24767500D03*
%TO.P,U6,5,VOUT*%
%TO.N,3.3V*%
X6852500Y26667500D03*
%TD*%
D22*
%TO.P,U1,1,VIN*%
%TO.N,VIN*%
X10662500Y9022000D03*
%TO.P,U1,2,GND*%
%TO.N,GND*%
X10662500Y9972000D03*
%TO.P,U1,3,EN*%
%TO.N,ESP45{slash}Q_EN*%
X10662500Y10922000D03*
%TO.P,U1,4,NC*%
%TO.N,unconnected-(U1-NC-Pad4)*%
X8387500Y10922000D03*
%TO.P,U1,5,VOUT*%
%TO.N,3.3V_P*%
X8387500Y9022000D03*
%TD*%
D23*
%TO.P,R13,1*%
%TO.N,VIN*%
X6225000Y23495000D03*
%TO.P,R13,2*%
%TO.N,EN*%
X5205000Y23495000D03*
%TD*%
D24*
%TO.P,C7,1*%
%TO.N,3.3V*%
X-310000Y57658000D03*
%TO.P,C7,2*%
%TO.N,GND*%
X-1270000Y57658000D03*
%TD*%
D25*
%TO.P,C1,1*%
%TO.N,GND*%
X-1524000Y59182000D03*
%TO.P,C1,2*%
%TO.N,3.3V*%
X26000Y59182000D03*
%TD*%
D23*
%TO.P,R19,1*%
%TO.N,ESP45{slash}Q_EN*%
X8447500Y13335000D03*
%TO.P,R19,2*%
%TO.N,GND*%
X7427500Y13335000D03*
%TD*%
D26*
%TO.P,R17,1*%
%TO.N,Net-(JP2-A)*%
X9842500Y13210000D03*
%TO.P,R17,2*%
%TO.N,ESP45{slash}Q_EN*%
X9842500Y12190000D03*
%TD*%
D24*
%TO.P,C14,1*%
%TO.N,VIN*%
X10957500Y7620000D03*
%TO.P,C14,2*%
%TO.N,GND*%
X9997500Y7620000D03*
%TD*%
D27*
%TO.P,U5,5,PROG*%
%TO.N,Net-(U5-PROG)*%
X13622500Y13655000D03*
%TO.P,U5,4,VDD*%
%TO.N,VUSB*%
X13622500Y15555000D03*
%TO.P,U5,3,VBAT*%
%TO.N,VBATT*%
X16222500Y15555000D03*
%TO.P,U5,2,VSS*%
%TO.N,GND*%
X16222500Y14605000D03*
%TO.P,U5,1,STAT*%
%TO.N,unconnected-(U5-STAT-Pad1)*%
X16222500Y13655000D03*
%TD*%
D28*
%TO.P,R16,1*%
%TO.N,Net-(U5-PROG)*%
X14412500Y12065000D03*
%TO.P,R16,2*%
%TO.N,GND*%
X15432500Y12065000D03*
%TD*%
D20*
%TO.P,C12,1*%
%TO.N,VBATT*%
X18415000Y15085000D03*
%TO.P,C12,2*%
%TO.N,GND*%
X18415000Y14125000D03*
%TD*%
%TO.P,C2,1*%
%TO.N,VBATT*%
X21590000Y10005000D03*
%TO.P,C2,2*%
%TO.N,GND*%
X21590000Y9045000D03*
%TD*%
D29*
%TO.P,U2,6,I/O*%
%TO.N,ESP20{slash}D+*%
X13773500Y8575000D03*
%TO.P,U2,5,VP*%
%TO.N,VUSB*%
X13773500Y9525000D03*
%TO.P,U2,4,I/O*%
%TO.N,ESP19{slash}D-*%
X13773500Y10475000D03*
%TO.P,U2,3,I/O*%
%TO.N,unconnected-(U2-I{slash}O-Pad3)*%
X16071500Y10475000D03*
%TO.P,U2,2,VN*%
%TO.N,GND*%
X16071500Y9525000D03*
%TO.P,U2,1,I/O*%
%TO.N,unconnected-(U2-I{slash}O-Pad1)*%
X16071500Y8575000D03*
%TD*%
D30*
%TO.P,C4,2,2*%
%TO.N,ESP15{slash}XTAL_32K_P*%
X-762000Y50800000D03*
%TO.P,C4,1,1*%
%TO.N,GND*%
X-762000Y51890000D03*
%TD*%
%TO.P,C8,2,2*%
%TO.N,ESP16{slash}XTAL_32K_N*%
X-762000Y45212000D03*
%TO.P,C8,1,1*%
%TO.N,GND*%
X-762000Y44122000D03*
%TD*%
D31*
%TO.P,J3,4*%
%TO.N,N/C*%
X-1016000Y21844000D03*
%TO.P,J3,3*%
X-1016000Y15044000D03*
D32*
%TO.P,J3,2,+*%
%TO.N,VBATT*%
X4884000Y17444000D03*
%TO.P,J3,1,-*%
%TO.N,GND*%
X4884000Y19444000D03*
%TD*%
D33*
%TO.P,R11,1*%
%TO.N,Net-(USB2-CC1)*%
X5715000Y4252500D03*
%TO.P,R11,2*%
%TO.N,GND*%
X5715000Y5272500D03*
%TD*%
D26*
%TO.P,R10,1*%
%TO.N,GND*%
X17145000Y5272500D03*
%TO.P,R10,2*%
%TO.N,Net-(USB2-CC2)*%
X17145000Y4252500D03*
%TD*%
D34*
%TO.P,U4,1,CTG*%
%TO.N,GND*%
X20357500Y8775000D03*
%TO.P,U4,2,CELL*%
%TO.N,VBATT*%
X20357500Y9275000D03*
%TO.P,U4,3,VDD*%
X20357500Y9775000D03*
%TO.P,U4,4,GND*%
%TO.N,GND*%
X20357500Y10275000D03*
%TO.P,U4,5,~{ALRT}*%
%TO.N,ESP35{slash}~{ALRT}*%
X18377500Y10275000D03*
%TO.P,U4,6,QSTRT*%
%TO.N,GND*%
X18377500Y9775000D03*
%TO.P,U4,7,SCL*%
%TO.N,ESP9{slash}SCL*%
X18377500Y9275000D03*
%TO.P,U4,8,SDA*%
%TO.N,ESP8{slash}SDA*%
X18377500Y8775000D03*
D35*
%TO.P,U4,9,GND*%
%TO.N,GND*%
X19367500Y9525000D03*
%TD*%
D36*
%TO.P,C11,1*%
%TO.N,3.3V*%
X8692000Y28194000D03*
%TO.P,C11,2*%
%TO.N,GND*%
X9652000Y28194000D03*
%TD*%
%TO.P,C15,1*%
%TO.N,ESP0{slash}BOOT*%
X16256000Y22098000D03*
%TO.P,C15,2*%
%TO.N,GND*%
X17216000Y22098000D03*
%TD*%
D33*
%TO.P,R8,1*%
%TO.N,3.3V*%
X19812000Y29206000D03*
%TO.P,R8,2*%
%TO.N,ESP~{RST}*%
X19812000Y30226000D03*
%TD*%
D37*
%TO.P,R2,1*%
%TO.N,GND*%
X16764000Y20574000D03*
%TO.P,R2,2*%
%TO.N,ESP14{slash}BAT_ADC*%
X18414000Y20574000D03*
%TD*%
D38*
%TO.P,R1,1*%
%TO.N,ESP14{slash}BAT_ADC*%
X18414000Y17272000D03*
%TO.P,R1,2*%
%TO.N,VBATT*%
X16764000Y17272000D03*
%TD*%
D20*
%TO.P,C6,1*%
%TO.N,ESP~{RST}*%
X18796000Y30226000D03*
%TO.P,C6,2*%
%TO.N,GND*%
X18796000Y29266000D03*
%TD*%
D24*
%TO.P,C5,1*%
%TO.N,ESP14{slash}BAT_ADC*%
X18232000Y18796000D03*
%TO.P,C5,2*%
%TO.N,GND*%
X17272000Y18796000D03*
%TD*%
D36*
%TO.P,C10,1*%
%TO.N,VIN*%
X5235000Y27940000D03*
%TO.P,C10,2*%
%TO.N,GND*%
X6195000Y27940000D03*
%TD*%
D28*
%TO.P,R3,1*%
%TO.N,3.3V*%
X6604000Y21336000D03*
%TO.P,R3,2*%
%TO.N,ESP0{slash}BOOT*%
X7624000Y21336000D03*
%TD*%
D36*
%TO.P,C13,1*%
%TO.N,3.3V*%
X9045000Y26670000D03*
%TO.P,C13,2*%
%TO.N,GND*%
X10005000Y26670000D03*
%TD*%
D10*
%TO.P,SW2,1,A*%
%TO.N,ESP~{RST}*%
X11189000Y30044000D03*
%TO.P,SW2,2,B*%
X17189000Y30044000D03*
%TO.P,SW2,3,C*%
%TO.N,GND*%
X11189000Y26344000D03*
%TO.P,SW2,4,D*%
X17189000Y26344000D03*
%TD*%
D39*
%TO.N,Net-(JP2-A)*%
X13462000Y24892000D03*
X10922000Y24892000D03*
%TO.N,GND*%
X11176000Y22098000D03*
X2540000Y58674000D03*
X20320000Y37338000D03*
X16002000Y38100000D03*
X6667500Y28892500D03*
X7366000Y16510000D03*
X6667500Y7620000D03*
X8128000Y11684000D03*
X16596902Y6985000D03*
X762000Y17414370D03*
X5842000Y25717500D03*
X5842000Y6350000D03*
X5080000Y11938000D03*
%TO.N,3.3V*%
X16510000Y24384000D03*
%TO.N,VIN*%
X7937500Y30480000D03*
X9862079Y8846079D03*
X6985000Y23812500D03*
%TO.N,ESP~{RST}*%
X10922000Y31496000D03*
X3276000Y55118000D03*
%TO.N,ESP8{slash}SDA*%
X4318000Y12700000D03*
X3810000Y8128000D03*
X9398000Y43583246D03*
X18034000Y6604000D03*
%TO.N,ESP9{slash}SCL*%
X17113150Y7541483D03*
X8128000Y38100000D03*
%TO.N,Net-(JP2-A)*%
X9907500Y13970000D03*
%TO.N,ESP45{slash}Q_EN*%
X2032000Y13462000D03*
X6604000Y32512000D03*
%TO.N,VUSB*%
X13208000Y7112000D03*
X8890000Y7112000D03*
%TO.N,ESP20{slash}D+*%
X12700000Y41148000D03*
X12700000Y8890000D03*
%TO.N,ESP19{slash}D-*%
X12065000Y11171584D03*
X12065000Y42418000D03*
%TO.N,ESP35{slash}~{ALRT}*%
X22352000Y37338000D03*
D40*
X18377500Y11467500D03*
D39*
%TO.N,ESP14{slash}BAT_ADC*%
X18414000Y22098000D03*
X14478000Y38100000D03*
%TD*%
D41*
%TO.N,Net-(JP2-A)*%
X10922000Y24892000D02*
X13462000Y24892000D01*
%TO.N,ESP0{slash}BOOT*%
X15240000Y22496000D02*
X15858000Y22496000D01*
X15858000Y22496000D02*
X16256000Y22098000D01*
X9240000Y22496000D02*
X9351600Y22607600D01*
X9351600Y22607600D02*
X15128400Y22607600D01*
X15128400Y22607600D02*
X15240000Y22496000D01*
X7624000Y21336000D02*
X8080000Y21336000D01*
X8080000Y21336000D02*
X9240000Y22496000D01*
%TO.N,3.3V*%
X9395650Y25143650D02*
X6604000Y22352000D01*
X6604000Y22352000D02*
X6604000Y21336000D01*
D42*
X19812000Y26666000D02*
X19812000Y29206000D01*
D41*
%TO.N,ESP~{RST}*%
X17189000Y30044000D02*
X17454000Y30044000D01*
X17454000Y30044000D02*
X17636000Y30226000D01*
X17636000Y30226000D02*
X19812000Y30226000D01*
X11189000Y30044000D02*
X17189000Y30044000D01*
X10922000Y31496000D02*
X11189000Y31229000D01*
X11189000Y31229000D02*
X11189000Y30044000D01*
%TO.N,ESP45{slash}Q_EN*%
X8255000Y13970000D02*
X8447500Y13777500D01*
X3302000Y13970000D02*
X8255000Y13970000D01*
X2032000Y13462000D02*
X2794000Y13462000D01*
X8447500Y13777500D02*
X8447500Y13335000D01*
X2794000Y13462000D02*
X3302000Y13970000D01*
%TO.N,ESP0{slash}BOOT*%
X16256000Y22098000D02*
X21310000Y27152000D01*
X21310000Y27152000D02*
X21310000Y41148000D01*
%TO.N,GND*%
X2540000Y58674000D02*
X3478800Y57735200D01*
X3478800Y57735200D02*
X3478800Y57658000D01*
D42*
%TO.N,VUSB*%
X12382500Y14224000D02*
X12382500Y13811250D01*
X12382500Y14224000D02*
X11938000Y14224000D01*
X11938000Y14224000D02*
X11877000Y14285000D01*
X11877000Y14285000D02*
X11430000Y14285000D01*
%TO.N,3.3V*%
X9045000Y25494300D02*
X9395650Y25143650D01*
D43*
%TO.N,ESP19{slash}D-*%
X11680000Y6917500D02*
X10747900Y6917500D01*
X10747900Y6917500D02*
X10673000Y6842600D01*
X10673000Y6842600D02*
X10673000Y5964000D01*
D41*
%TO.N,Net-(USB2-CC2)*%
X13460000Y3558000D02*
X13173000Y3845000D01*
X13173000Y3845000D02*
X13173000Y5964000D01*
D42*
%TO.N,VIN*%
X10133158Y8575000D02*
X10825100Y8575000D01*
X10957500Y8442600D02*
X10957500Y7620000D01*
X10825100Y8575000D02*
X10957500Y8442600D01*
X9862079Y8846079D02*
X10133158Y8575000D01*
D41*
%TO.N,GND*%
X8128000Y11684000D02*
X9144000Y11684000D01*
X9144000Y11684000D02*
X9770400Y11057600D01*
X9770400Y11057600D02*
X9770400Y10610608D01*
X9770400Y10610608D02*
X10409008Y9972000D01*
X10409008Y9972000D02*
X10662500Y9972000D01*
%TO.N,ESP45{slash}Q_EN*%
X9842500Y12190000D02*
X9908000Y12190000D01*
X9908000Y12190000D02*
X10662500Y11435500D01*
X10662500Y11435500D02*
X10662500Y10922000D01*
D42*
%TO.N,VUSB*%
X8890000Y7112000D02*
X8890000Y6247000D01*
D41*
X8890000Y6247000D02*
X9173000Y5964000D01*
%TO.N,ESP20{slash}D+*%
X11173000Y5964000D02*
X11173000Y5293000D01*
X11173000Y5293000D02*
X11381600Y5084400D01*
X11381600Y5084400D02*
X12069400Y5084400D01*
X12069400Y5084400D02*
X12180000Y5195000D01*
D42*
%TO.N,VUSB*%
X13880000Y7212500D02*
X13308500Y7212500D01*
X13308500Y7212500D02*
X13208000Y7112000D01*
D41*
X8873000Y7095000D02*
X8890000Y7112000D01*
D42*
%TO.N,3.3V*%
X18415000Y25207500D02*
X18415000Y25269000D01*
X18415000Y25269000D02*
X19812000Y26666000D01*
D41*
%TO.N,GND*%
X6667500Y8750000D02*
X6667500Y7937500D01*
X18377500Y9775000D02*
X19117500Y9775000D01*
D44*
X0Y53520000D02*
X-74000Y53594000D01*
D41*
X19117500Y9775000D02*
X19367500Y9525000D01*
D42*
X17145000Y9525000D02*
X17526000Y9906000D01*
X14655000Y6965949D02*
X15069348Y7380297D01*
X15069348Y7380297D02*
X15983025Y7380297D01*
X14655000Y6006250D02*
X14655000Y6887429D01*
D41*
X18377500Y9775000D02*
X17657000Y9775000D01*
X17657000Y9775000D02*
X17526000Y9906000D01*
D42*
X14655000Y6887429D02*
X14655000Y6965949D01*
X16222600Y9525000D02*
X17145000Y9525000D01*
D41*
%TO.N,3.3V*%
X3147600Y56719200D02*
X3478800Y56719200D01*
D42*
X7015100Y26667500D02*
X8128000Y26667500D01*
X9042500Y26667500D02*
X9045000Y26670000D01*
D41*
X2208800Y57658000D02*
X3147600Y56719200D01*
D42*
X-2032000Y39878000D02*
X-2032000Y54610000D01*
X-2032000Y54610000D02*
X-762000Y55880000D01*
X8574100Y30743689D02*
X8201189Y31116600D01*
D41*
X3478800Y56719200D02*
X3478800Y56388000D01*
D42*
X8128000Y26667500D02*
X8128000Y27432000D01*
X8201189Y31116600D02*
X6729400Y31116600D01*
X8128000Y27432000D02*
X8574100Y27878100D01*
X9395650Y25143650D02*
X10478400Y24060900D01*
X10478400Y24060900D02*
X17268400Y24060900D01*
X3048000Y56388000D02*
X3351800Y56388000D01*
X6729400Y31116600D02*
X-2032000Y39878000D01*
X-762000Y55880000D02*
X2540000Y55880000D01*
X9045000Y26670000D02*
X9045000Y25494300D01*
D41*
X2208800Y57658000D02*
X684800Y59182000D01*
X-310000Y57658000D02*
X2208800Y57658000D01*
D42*
X8128000Y26667500D02*
X9042500Y26667500D01*
X2540000Y55880000D02*
X3048000Y56388000D01*
X17268400Y24060900D02*
X18415000Y25207500D01*
X8574100Y27878100D02*
X8574100Y30743689D01*
D41*
X684800Y59182000D02*
X26000Y59182000D01*
%TO.N,VIN*%
X6667500Y23495000D02*
X6985000Y23812500D01*
D42*
X5715000Y30480000D02*
X7937500Y30480000D01*
X5235000Y30000000D02*
X5235000Y27940000D01*
X4414900Y27119900D02*
X5235000Y27940000D01*
X4414900Y26667500D02*
X4414900Y27119900D01*
D41*
X6225000Y23495000D02*
X6667500Y23495000D01*
D42*
X5715000Y30480000D02*
X5235000Y30000000D01*
D41*
%TO.N,ESP~{RST}*%
X3276000Y55118000D02*
X3478800Y55118000D01*
%TO.N,VBATT*%
X20357500Y9775000D02*
X20955000Y9775000D01*
X20955000Y9775000D02*
X21360000Y9775000D01*
X20357500Y9275000D02*
X20863750Y9275000D01*
D42*
X16222600Y15555000D02*
X17945000Y15555000D01*
X16222600Y16730600D02*
X16764000Y17272000D01*
X4884000Y17444000D02*
X14333600Y17444000D01*
X17945000Y15555000D02*
X18415000Y15085000D01*
D41*
X20863750Y9275000D02*
X20955000Y9366250D01*
X21590000Y11910000D02*
X21590000Y10005000D01*
X21360000Y9775000D02*
X21590000Y10005000D01*
D42*
X14333600Y17444000D02*
X16222600Y15555000D01*
D41*
X20955000Y9366250D02*
X20955000Y9775000D01*
X18415000Y15085000D02*
X21590000Y11910000D01*
D42*
X16222600Y15555000D02*
X16222600Y16730600D01*
D41*
%TO.N,ESP8{slash}SDA*%
X9293246Y43688000D02*
X9398000Y43583246D01*
X17621250Y8572500D02*
X17823750Y8775000D01*
X17823750Y8775000D02*
X18377500Y8775000D01*
X3810000Y11906250D02*
X4318000Y12414250D01*
X3810000Y43688000D02*
X9293246Y43688000D01*
X17621250Y7016750D02*
X17621250Y8572500D01*
X4318000Y12414250D02*
X4318000Y12700000D01*
X3810000Y8128000D02*
X3810000Y11906250D01*
X18034000Y6604000D02*
X17621250Y7016750D01*
%TO.N,ESP9{slash}SCL*%
X17688750Y9275000D02*
X18377500Y9275000D01*
X17316450Y7716970D02*
X17316450Y8902700D01*
X8115000Y38113000D02*
X8128000Y38100000D01*
X17140963Y7541483D02*
X17316450Y7716970D01*
X8115000Y39868000D02*
X8115000Y38113000D01*
X17316450Y8902700D02*
X17688750Y9275000D01*
X17113150Y7541483D02*
X17140963Y7541483D01*
%TO.N,Net-(JP2-A)*%
X9907500Y13970000D02*
X9842500Y13905000D01*
X9842500Y13905000D02*
X9842500Y13210000D01*
%TO.N,EN*%
X4414900Y23842600D02*
X4414900Y24767500D01*
X4762500Y23495000D02*
X4414900Y23842600D01*
X5205000Y23495000D02*
X4762500Y23495000D01*
%TO.N,Net-(U5-PROG)*%
X13622400Y12855100D02*
X13622400Y13655000D01*
X14412500Y12065000D02*
X13622400Y12855100D01*
%TO.N,ESP45{slash}Q_EN*%
X9207500Y13017500D02*
X9207500Y12382500D01*
X12459000Y32512000D02*
X19545000Y39598000D01*
X9400000Y12190000D02*
X9842500Y12190000D01*
X8447500Y13335000D02*
X8890000Y13335000D01*
X19545000Y39598000D02*
X19545000Y39898000D01*
X6604000Y32512000D02*
X12459000Y32512000D01*
X8890000Y13335000D02*
X9207500Y13017500D01*
X9207500Y12382500D02*
X9400000Y12190000D01*
D42*
%TO.N,3.3V_P*%
X6667500Y10005000D02*
X6962500Y10005000D01*
X7283750Y9683750D02*
X7877300Y9683750D01*
X7877300Y9683750D02*
X8224900Y9336150D01*
X6962500Y10005000D02*
X7283750Y9683750D01*
%TO.N,VUSB*%
X12363750Y13830000D02*
X12382500Y13811250D01*
X12382500Y13017500D02*
X12382500Y13811250D01*
X13622400Y15555000D02*
X12697500Y15555000D01*
X13622400Y9575000D02*
X14872500Y9575000D01*
X13880000Y7212500D02*
X13880000Y6006250D01*
X12697500Y15555000D02*
X12382500Y15240000D01*
X14922500Y9525000D02*
X14922500Y10761100D01*
D45*
X13880000Y5521200D02*
X13880000Y6006250D01*
D42*
X14922500Y8255000D02*
X14922500Y9525000D01*
X14872500Y9575000D02*
X14922500Y9525000D01*
D45*
X8980000Y5521200D02*
X8980000Y6006250D01*
D42*
X12382500Y15240000D02*
X12382500Y14224000D01*
X14922500Y8255000D02*
X13880000Y7212500D01*
X14922500Y10761100D02*
X14578000Y11105600D01*
X14578000Y11105600D02*
X14294400Y11105600D01*
X14294400Y11105600D02*
X12382500Y13017500D01*
D43*
%TO.N,ESP20{slash}D+*%
X12446000Y8636000D02*
X12446000Y7061200D01*
X12700000Y8890000D02*
X12446000Y8636000D01*
X12700000Y41148000D02*
X3810000Y41148000D01*
X12700000Y8890000D02*
X13015000Y8575000D01*
X12180000Y6795200D02*
X12180000Y6006250D01*
X12180000Y6006250D02*
X12180000Y5195000D01*
X12446000Y7061200D02*
X12180000Y6795200D01*
X13015000Y8575000D02*
X13622400Y8575000D01*
%TO.N,ESP19{slash}D-*%
X13622400Y10475000D02*
X12079648Y10475000D01*
X12065000Y11171584D02*
X12065000Y10489648D01*
X12065000Y7302500D02*
X12065000Y10489648D01*
X11680000Y6917500D02*
X12065000Y7302500D01*
X10680000Y6006250D02*
X10680000Y6552500D01*
X12079648Y10475000D02*
X12065000Y10489648D01*
X11680000Y6006250D02*
X11680000Y6917500D01*
X12065000Y42418000D02*
X3810000Y42418000D01*
D41*
%TO.N,Net-(USB2-CC1)*%
X10180000Y6006250D02*
X10180000Y4380730D01*
X10180000Y4380730D02*
X9357270Y3558000D01*
X9357270Y3558000D02*
X5842000Y3558000D01*
X5715000Y4252500D02*
X5715000Y3685000D01*
X5715000Y3685000D02*
X5842000Y3558000D01*
%TO.N,Net-(USB2-CC2)*%
X17145000Y3685000D02*
X17018000Y3558000D01*
X17145000Y4252500D02*
X17145000Y3685000D01*
X13460000Y3558000D02*
X17018000Y3558000D01*
X13180000Y6006250D02*
X13180000Y5391267D01*
%TO.N,ESP35{slash}~{ALRT}*%
X18377500Y11467500D02*
X18377500Y10275000D01*
X22352000Y37338000D02*
X22352000Y41765200D01*
X22352000Y41765200D02*
X21699200Y42418000D01*
X21699200Y42418000D02*
X21310000Y42418000D01*
%TO.N,ESP15{slash}XTAL_32K_P*%
X3810000Y48768000D02*
X482000Y48768000D01*
X0Y49276000D02*
X-762000Y50038000D01*
X-762000Y50038000D02*
X-762000Y50800000D01*
X482000Y48768000D02*
X0Y49250000D01*
X0Y49250000D02*
X0Y49276000D01*
%TO.N,ESP16{slash}XTAL_32K_N*%
X0Y46750000D02*
X0Y45974000D01*
X748000Y47498000D02*
X0Y46750000D01*
X0Y45974000D02*
X-762000Y45212000D01*
X3810000Y47498000D02*
X748000Y47498000D01*
%TO.N,ESP14{slash}BAT_ADC*%
X14478000Y38100000D02*
X14478000Y38354000D01*
X18414000Y20574000D02*
X18414000Y22098000D01*
X14478000Y38354000D02*
X14465000Y38367000D01*
X18414000Y22098000D02*
X18414000Y22226000D01*
D42*
X18414000Y17272000D02*
X18414000Y18614000D01*
X18232000Y18796000D02*
X18232000Y20392000D01*
D41*
X18414000Y18614000D02*
X18232000Y18796000D01*
X14465000Y38367000D02*
X14465000Y39868000D01*
X18232000Y20392000D02*
X18414000Y20574000D01*
%TD*%
%TA.AperFunction,Conductor*%
%TO.N,GND*%
G36*
X9447371Y5147251D02*
G01*
X9449430Y5147340D01*
X9452453Y5146240D01*
X9453429Y5146046D01*
X9453431Y5146045D01*
X9505439Y5135700D01*
X9837600Y5135701D01*
X9894101Y5115136D01*
X9924165Y5063065D01*
X9925500Y5047801D01*
X9925500Y4522558D01*
X9904935Y4466057D01*
X9899755Y4460403D01*
X9277597Y3838245D01*
X9223103Y3812834D01*
X9215442Y3812500D01*
X6241439Y3812500D01*
X6184938Y3833065D01*
X6154874Y3885136D01*
X6161774Y3937548D01*
X6207293Y4035161D01*
X6213300Y4080789D01*
X6213299Y4424210D01*
X6213299Y4424213D01*
X6213299Y4424214D01*
X6213298Y4424215D01*
X6212870Y4427463D01*
X6207293Y4469839D01*
X6160599Y4569974D01*
X6082474Y4648099D01*
X6082472Y4648100D01*
X6007388Y4683113D01*
X5964872Y4725630D01*
X5959632Y4785528D01*
X5994120Y4834781D01*
X6007389Y4842442D01*
X6082183Y4877319D01*
X6160183Y4955319D01*
X6160293Y4955475D01*
X6160449Y4955585D01*
X6165621Y4960756D01*
X6166532Y4959845D01*
X6209543Y4989966D01*
X6269442Y4984730D01*
X6311962Y4942217D01*
X6320200Y4905063D01*
X6320200Y4719395D01*
X6347132Y4583992D01*
X6377676Y4502528D01*
X6408724Y4427573D01*
X6493842Y4300185D01*
X6602184Y4191843D01*
X6729573Y4106725D01*
X6871123Y4048091D01*
X6871127Y4048090D01*
X7009099Y4020646D01*
X7009100Y4020646D01*
X7009100Y4405711D01*
X7045339Y4396000D01*
X7150661Y4396000D01*
X7186900Y4405711D01*
X7186900Y4020646D01*
X7324872Y4048090D01*
X7324876Y4048091D01*
X7466426Y4106725D01*
X7593815Y4191843D01*
X7702157Y4300185D01*
X7787277Y4427577D01*
X7789311Y4431380D01*
X7790328Y4430837D01*
X7827832Y4471785D01*
X7887442Y4479648D01*
X7938161Y4447355D01*
X7949645Y4427472D01*
X7951805Y4422259D01*
X7951807Y4422253D01*
X7951810Y4422247D01*
X7951811Y4422246D01*
X8000758Y4337466D01*
X8041998Y4283720D01*
X8111220Y4214498D01*
X8164966Y4173258D01*
X8249746Y4124311D01*
X8312330Y4098387D01*
X8406889Y4073050D01*
X8460053Y4066052D01*
X8474051Y4064208D01*
X8474053Y4064208D01*
X8571949Y4064208D01*
X8584625Y4065878D01*
X8639111Y4073050D01*
X8733670Y4098387D01*
X8796254Y4124311D01*
X8881034Y4173258D01*
X8934780Y4214498D01*
X9004002Y4283720D01*
X9045242Y4337466D01*
X9094189Y4422246D01*
X9120113Y4484830D01*
X9145450Y4579389D01*
X9154292Y4646553D01*
X9154292Y4744447D01*
X9145450Y4811611D01*
X9120113Y4906170D01*
X9094192Y4968747D01*
X9094192Y4968748D01*
X9094189Y4968754D01*
X9073924Y5003854D01*
X9063484Y5063065D01*
X9093548Y5115136D01*
X9150047Y5135701D01*
X9340560Y5135701D01*
X9340562Y5135701D01*
X9369447Y5141447D01*
X9392569Y5146045D01*
X9392569Y5146046D01*
X9401059Y5147734D01*
X9401553Y5145249D01*
X9444820Y5147139D01*
X9444939Y5147734D01*
X9447371Y5147251D01*
G37*
%TD.AperFunction*%
%TA.AperFunction,Conductor*%
G36*
X13752451Y5115136D02*
G01*
X13782515Y5063065D01*
X13772075Y5003853D01*
X13751809Y4968750D01*
X13751807Y4968747D01*
X13725888Y4906173D01*
X13725887Y4906170D01*
X13723238Y4896285D01*
X13700552Y4811620D01*
X13700550Y4811611D01*
X13691708Y4744449D01*
X13691708Y4646552D01*
X13700550Y4579390D01*
X13700552Y4579381D01*
X13725888Y4484828D01*
X13751807Y4422254D01*
X13751807Y4422253D01*
X13751810Y4422247D01*
X13751811Y4422246D01*
X13800758Y4337466D01*
X13841998Y4283720D01*
X13911220Y4214498D01*
X13964966Y4173258D01*
X14049746Y4124311D01*
X14112330Y4098387D01*
X14206889Y4073050D01*
X14260053Y4066052D01*
X14274051Y4064208D01*
X14274053Y4064208D01*
X14371949Y4064208D01*
X14384625Y4065878D01*
X14439111Y4073050D01*
X14533670Y4098387D01*
X14596254Y4124311D01*
X14681034Y4173258D01*
X14734780Y4214498D01*
X14804002Y4283720D01*
X14845242Y4337466D01*
X14894189Y4422246D01*
X14896350Y4427464D01*
X14936971Y4471794D01*
X14996583Y4479644D01*
X15047295Y4447338D01*
X15056550Y4431307D01*
X15056689Y4431380D01*
X15058722Y4427577D01*
X15143842Y4300185D01*
X15252184Y4191843D01*
X15379573Y4106725D01*
X15521123Y4048091D01*
X15521127Y4048090D01*
X15659099Y4020646D01*
X15659100Y4020646D01*
X15659100Y4405711D01*
X15695339Y4396000D01*
X15800661Y4396000D01*
X15836900Y4405711D01*
X15836900Y4020646D01*
X15974872Y4048090D01*
X15974876Y4048091D01*
X16116426Y4106725D01*
X16243815Y4191843D01*
X16352157Y4300185D01*
X16437275Y4427573D01*
X16495909Y4569128D01*
X16495911Y4569133D01*
X16525800Y4719395D01*
X16525800Y4932008D01*
X16546365Y4988509D01*
X16598436Y5018573D01*
X16657650Y5008132D01*
X16693364Y4969156D01*
X16699816Y4955320D01*
X16699817Y4955318D01*
X16777816Y4877319D01*
X16852610Y4842442D01*
X16895126Y4799925D01*
X16900367Y4740027D01*
X16865880Y4690774D01*
X16852611Y4683113D01*
X16777527Y4648100D01*
X16699400Y4569973D01*
X16652707Y4469841D01*
X16646700Y4424213D01*
X16646700Y4080787D01*
X16646701Y4080785D01*
X16652705Y4035166D01*
X16652707Y4035161D01*
X16698225Y3937548D01*
X16703466Y3877651D01*
X16668979Y3828397D01*
X16618561Y3812500D01*
X13601826Y3812500D01*
X13545325Y3833065D01*
X13539671Y3838246D01*
X13453245Y3924673D01*
X13427834Y3979167D01*
X13427500Y3986827D01*
X13427500Y5047801D01*
X13448065Y5104302D01*
X13500136Y5134366D01*
X13515388Y5135701D01*
X13695951Y5135701D01*
X13752451Y5115136D01*
G37*
%TD.AperFunction*%
%TA.AperFunction,Conductor*%
G36*
X4642197Y60938935D02*
G01*
X4672261Y60886864D01*
X4673596Y60871600D01*
X4673596Y58373320D01*
X4653031Y58316819D01*
X4600960Y58286755D01*
X4581829Y58286023D01*
X4581829Y58285800D01*
X3898901Y58285800D01*
X3898900Y58285799D01*
X3898900Y57745900D01*
X3891090Y57724443D01*
X3887124Y57701950D01*
X3881047Y57696852D01*
X3878335Y57689399D01*
X3858558Y57677981D01*
X3841064Y57663301D01*
X3829646Y57661288D01*
X3826264Y57659335D01*
X3811000Y57658000D01*
X3810000Y57658000D01*
X3810000Y57657000D01*
X3789435Y57600499D01*
X3737364Y57570435D01*
X3722100Y57569100D01*
X2882200Y57569100D01*
X2882200Y57556725D01*
X2861634Y57500225D01*
X2809562Y57470162D01*
X2750348Y57480604D01*
X2732149Y57494569D01*
X2352963Y57873755D01*
X2352961Y57873756D01*
X2101204Y58125513D01*
X2882200Y58125513D01*
X2882200Y57746901D01*
X2882201Y57746900D01*
X3721100Y57746900D01*
X3721100Y58285799D01*
X3721099Y58285800D01*
X3042486Y58285800D01*
X3042484Y58285799D01*
X2990628Y58275486D01*
X2990624Y58275484D01*
X2931817Y58236189D01*
X2931811Y58236183D01*
X2892516Y58177376D01*
X2882200Y58125513D01*
X2101204Y58125513D01*
X828963Y59397755D01*
X828961Y59397756D01*
X828960Y59397757D01*
X735424Y59436500D01*
X735423Y59436500D01*
X733687Y59436500D01*
X731596Y59437262D01*
X726931Y59438189D01*
X727073Y59438908D01*
X677186Y59457065D01*
X647122Y59509136D01*
X646869Y59510651D01*
X639342Y59558180D01*
X581343Y59672009D01*
X491009Y59762343D01*
X377180Y59820342D01*
X377178Y59820343D01*
X377177Y59820343D01*
X318282Y59829671D01*
X282739Y59835300D01*
X282737Y59835300D01*
X-230737Y59835300D01*
X-230739Y59835299D01*
X-325178Y59820343D01*
X-439008Y59762344D01*
X-529344Y59672008D01*
X-587343Y59558178D01*
X-602300Y59463738D01*
X-602300Y58900264D01*
X-602299Y58900262D01*
X-587343Y58805823D01*
X-587343Y58805822D01*
X-587342Y58805820D01*
X-529343Y58691991D01*
X-439009Y58601657D01*
X-325180Y58543658D01*
X-230739Y58528700D01*
X282738Y58528701D01*
X377180Y58543658D01*
X491009Y58601657D01*
X581343Y58691991D01*
X605248Y58738909D01*
X649221Y58779916D01*
X709266Y58783064D01*
X745723Y58761159D01*
X1444328Y58062555D01*
X1469739Y58008061D01*
X1454177Y57949983D01*
X1404923Y57915495D01*
X1382173Y57912500D01*
X197800Y57912500D01*
X141299Y57933065D01*
X118136Y57963252D01*
X94758Y58013386D01*
X15386Y58092758D01*
X-86346Y58140197D01*
X-132702Y58146300D01*
X-132704Y58146300D01*
X-487296Y58146300D01*
X-487298Y58146300D01*
X-533655Y58140197D01*
X-635387Y58092758D01*
X-714762Y58013383D01*
X-718308Y58008318D01*
X-767562Y57973832D01*
X-827460Y57979074D01*
X-862316Y58008323D01*
X-865658Y58013096D01*
X-944905Y58092343D01*
X-944907Y58092344D01*
X-1046476Y58139707D01*
X-1046475Y58139707D01*
X-1092756Y58145800D01*
X-1181099Y58145800D01*
X-1181100Y58145799D01*
X-1181100Y57170201D01*
X-1181099Y57170200D01*
X-1092756Y57170200D01*
X-1046475Y57176294D01*
X-944907Y57223657D01*
X-944905Y57223658D01*
X-865659Y57302904D01*
X-862318Y57307675D01*
X-813068Y57342167D01*
X-753169Y57336932D01*
X-718306Y57307680D01*
X-714761Y57302617D01*
X-714758Y57302614D01*
X-635386Y57223242D01*
X-533653Y57175803D01*
X-499504Y57171308D01*
X-487298Y57169700D01*
X-487296Y57169700D01*
X-132702Y57169700D01*
X-121917Y57171121D01*
X-86347Y57175803D01*
X15386Y57223242D01*
X94758Y57302614D01*
X118136Y57352748D01*
X160652Y57395264D01*
X197800Y57403500D01*
X2066972Y57403500D01*
X2123473Y57382935D01*
X2129127Y57377755D01*
X2751524Y56755358D01*
X2761175Y56734661D01*
X2774273Y56715958D01*
X2773581Y56708055D01*
X2776935Y56700864D01*
X2771025Y56678810D01*
X2769036Y56656059D01*
X2762382Y56646556D01*
X2761372Y56642786D01*
X2751527Y56631052D01*
X2742727Y56622251D01*
X2742724Y56622247D01*
X2407722Y56287245D01*
X2353228Y56261834D01*
X2345567Y56261500D01*
X-812225Y56261500D01*
X-909251Y56235503D01*
X-996249Y56185275D01*
X-2337275Y54844249D01*
X-2387503Y54757251D01*
X-2413500Y54660225D01*
X-2413500Y39827776D01*
X-2387502Y39730748D01*
X-2340092Y39648629D01*
X-2337277Y39643754D01*
X6294922Y31011555D01*
X6320333Y30957061D01*
X6304770Y30898983D01*
X6255517Y30864495D01*
X6232767Y30861500D01*
X5770623Y30861500D01*
X5770607Y30861501D01*
X5765225Y30861501D01*
X5664775Y30861501D01*
X5632432Y30852835D01*
X5567745Y30835502D01*
X5530979Y30814276D01*
X5530980Y30814275D01*
X5480752Y30785276D01*
X4929725Y30234249D01*
X4879497Y30147251D01*
X4853500Y30050225D01*
X4853500Y28355054D01*
X4834193Y28302012D01*
X4834655Y28301689D01*
X4833449Y28299968D01*
X4832935Y28298553D01*
X4830917Y28296352D01*
X4830242Y28295387D01*
X4782803Y28193655D01*
X4776700Y28147298D01*
X4776700Y28057633D01*
X4756135Y28001132D01*
X4750955Y27995479D01*
X4441824Y27686347D01*
X4109625Y27354149D01*
X4059398Y27267152D01*
X4041939Y27201993D01*
X4007451Y27152740D01*
X3981635Y27140357D01*
X3978719Y27139508D01*
X3873791Y27090578D01*
X3873789Y27090577D01*
X3791923Y27008711D01*
X3791922Y27008709D01*
X3742994Y26903785D01*
X3736700Y26855975D01*
X3736700Y26479025D01*
X3736701Y26479023D01*
X3742992Y26431224D01*
X3742995Y26431215D01*
X3791922Y26326292D01*
X3791923Y26326290D01*
X3863912Y26254301D01*
X3889323Y26199807D01*
X3873760Y26141729D01*
X3863912Y26129992D01*
X3792341Y26058421D01*
X3792338Y26058417D01*
X3743487Y25953655D01*
X3743484Y25953646D01*
X3737200Y25905913D01*
X3737200Y25806401D01*
X3737201Y25806400D01*
X5417798Y25806400D01*
X5417799Y25806401D01*
X5417799Y25905914D01*
X5417798Y25905916D01*
X5411516Y25953646D01*
X5411514Y25953652D01*
X5362660Y26058418D01*
X5291087Y26129991D01*
X5265676Y26184485D01*
X5281239Y26242563D01*
X5291088Y26254301D01*
X5363074Y26326287D01*
X5363077Y26326290D01*
X5405071Y26416347D01*
X5412005Y26431216D01*
X5412005Y26431218D01*
X5412006Y26431219D01*
X5418300Y26479027D01*
X5418299Y26855972D01*
X5418299Y26855975D01*
X5418299Y26855976D01*
X5418298Y26855978D01*
X5412007Y26903777D01*
X5412004Y26903786D01*
X5363484Y27007837D01*
X5363077Y27008710D01*
X5281210Y27090577D01*
X5276121Y27092950D01*
X5176283Y27139506D01*
X5176285Y27139506D01*
X5174875Y27139692D01*
X5174273Y27139771D01*
X5172872Y27140500D01*
X5169828Y27141387D01*
X5170004Y27141993D01*
X5120941Y27167535D01*
X5097933Y27223086D01*
X5116014Y27280430D01*
X5123595Y27289073D01*
X5260478Y27425955D01*
X5314971Y27451366D01*
X5322632Y27451700D01*
X5412298Y27451700D01*
X5423083Y27453121D01*
X5458653Y27457803D01*
X5560386Y27505242D01*
X5639758Y27584614D01*
X5639759Y27584617D01*
X5643302Y27589676D01*
X5692552Y27624167D01*
X5752451Y27618931D01*
X5787314Y27589679D01*
X5790655Y27584907D01*
X5869904Y27505658D01*
X5869906Y27505657D01*
X5971475Y27458294D01*
X5971474Y27458294D01*
X6017756Y27452200D01*
X6106099Y27452200D01*
X6106100Y27452201D01*
X6106100Y27851099D01*
X6283900Y27851099D01*
X6283900Y27452201D01*
X6283901Y27452200D01*
X6372244Y27452200D01*
X6418525Y27458294D01*
X6520093Y27505657D01*
X6520095Y27505658D01*
X6599342Y27584905D01*
X6599343Y27584907D01*
X6646706Y27686475D01*
X6652800Y27732757D01*
X6652800Y27851099D01*
X6652799Y27851100D01*
X6283901Y27851100D01*
X6283900Y27851099D01*
X6106100Y27851099D01*
X6106100Y28427799D01*
X6283900Y28427799D01*
X6283900Y28028901D01*
X6283901Y28028900D01*
X6652799Y28028900D01*
X6652800Y28028901D01*
X6652800Y28147244D01*
X6646706Y28193526D01*
X6599343Y28295094D01*
X6599342Y28295096D01*
X6520095Y28374343D01*
X6520093Y28374344D01*
X6418524Y28421707D01*
X6418525Y28421707D01*
X6372244Y28427800D01*
X6283901Y28427800D01*
X6283900Y28427799D01*
X6106100Y28427799D01*
X6106099Y28427800D01*
X6017756Y28427800D01*
X5971474Y28421707D01*
X5869906Y28374344D01*
X5869904Y28374343D01*
X5790654Y28295093D01*
X5787312Y28290319D01*
X5782282Y28286798D01*
X5779914Y28281134D01*
X5758137Y28269892D01*
X5738058Y28255832D01*
X5731941Y28256368D01*
X5726487Y28253551D01*
X5702576Y28258937D01*
X5678160Y28261073D01*
X5672362Y28265743D01*
X5667830Y28266763D01*
X5650889Y28283036D01*
X5645392Y28287463D01*
X5640393Y28294023D01*
X5639758Y28295386D01*
X5638064Y28297080D01*
X5634483Y28301780D01*
X5627192Y28325180D01*
X5616834Y28347393D01*
X5616500Y28355054D01*
X5616500Y29805568D01*
X5637065Y29862069D01*
X5642245Y29867723D01*
X5847277Y30072755D01*
X5901771Y30098166D01*
X5909432Y30098500D01*
X7658123Y30098500D01*
X7702072Y30086724D01*
X7726268Y30072755D01*
X7760603Y30052932D01*
X7877164Y30021700D01*
X7997835Y30021700D01*
X7997836Y30021700D01*
X8081950Y30044238D01*
X8141848Y30038997D01*
X8184365Y29996481D01*
X8192600Y29959333D01*
X8192600Y28072533D01*
X8172035Y28016032D01*
X8166855Y28010378D01*
X7822725Y27666249D01*
X7772497Y27579251D01*
X7746500Y27482225D01*
X7746500Y27136900D01*
X7738690Y27115443D01*
X7734724Y27092950D01*
X7728647Y27087852D01*
X7725935Y27080399D01*
X7706158Y27068981D01*
X7688664Y27054301D01*
X7677246Y27052288D01*
X7673864Y27050335D01*
X7658600Y27049000D01*
X7634197Y27049000D01*
X7577696Y27069565D01*
X7572042Y27074745D01*
X7556210Y27090577D01*
X7556208Y27090578D01*
X7451283Y27139506D01*
X7451284Y27139506D01*
X7403474Y27145800D01*
X6301524Y27145800D01*
X6301522Y27145799D01*
X6253723Y27139508D01*
X6253714Y27139505D01*
X6148791Y27090578D01*
X6148789Y27090577D01*
X6066923Y27008711D01*
X6066922Y27008709D01*
X6017994Y26903785D01*
X6011700Y26855975D01*
X6011700Y26479025D01*
X6011701Y26479023D01*
X6017992Y26431224D01*
X6017995Y26431215D01*
X6061522Y26337872D01*
X6066923Y26326290D01*
X6148790Y26244423D01*
X6167587Y26235658D01*
X6253716Y26195495D01*
X6253717Y26195495D01*
X6253719Y26195494D01*
X6301527Y26189200D01*
X7403472Y26189201D01*
X7403475Y26189201D01*
X7403476Y26189202D01*
X7427376Y26192348D01*
X7451276Y26195493D01*
X7451277Y26195494D01*
X7451281Y26195494D01*
X7556210Y26244423D01*
X7572042Y26260255D01*
X7626536Y26285666D01*
X7634197Y26286000D01*
X8077775Y26286000D01*
X8575600Y26286000D01*
X8632101Y26265435D01*
X8662165Y26213364D01*
X8663500Y26198100D01*
X8663500Y25444076D01*
X8681584Y25376583D01*
X8689499Y25347046D01*
X8705652Y25319068D01*
X8705653Y25319066D01*
X8705652Y25319066D01*
X8739722Y25260055D01*
X8883774Y25116003D01*
X8909185Y25061509D01*
X8893622Y25003431D01*
X8883774Y24991693D01*
X7593355Y23701274D01*
X7538861Y23675863D01*
X7480783Y23691426D01*
X7446295Y23740679D01*
X7443300Y23763429D01*
X7443300Y23872836D01*
X7412069Y23989394D01*
X7412068Y23989395D01*
X7412068Y23989397D01*
X7351732Y24093903D01*
X7306489Y24139146D01*
X7281078Y24193640D01*
X7296641Y24251718D01*
X7345894Y24286206D01*
X7368643Y24289201D01*
X7403472Y24289201D01*
X7403476Y24289201D01*
X7403476Y24289202D01*
X7427376Y24292348D01*
X7451276Y24295493D01*
X7451277Y24295494D01*
X7451281Y24295494D01*
X7556210Y24344423D01*
X7638077Y24426290D01*
X7684231Y24525268D01*
X7687005Y24531216D01*
X7687005Y24531218D01*
X7687006Y24531219D01*
X7693300Y24579027D01*
X7693299Y24955972D01*
X7693299Y24955975D01*
X7693299Y24955976D01*
X7693298Y24955978D01*
X7687007Y25003777D01*
X7687004Y25003786D01*
X7638077Y25108709D01*
X7638076Y25108711D01*
X7556210Y25190577D01*
X7556208Y25190578D01*
X7451283Y25239506D01*
X7451284Y25239506D01*
X7403474Y25245800D01*
X6301524Y25245800D01*
X6301522Y25245799D01*
X6253723Y25239508D01*
X6253714Y25239505D01*
X6148791Y25190578D01*
X6148789Y25190577D01*
X6066923Y25108711D01*
X6066922Y25108709D01*
X6017994Y25003785D01*
X6011700Y24955975D01*
X6011700Y24579025D01*
X6011701Y24579023D01*
X6017992Y24531224D01*
X6017995Y24531215D01*
X6051998Y24458297D01*
X6066923Y24426290D01*
X6148790Y24344423D01*
X6205339Y24318054D01*
X6253716Y24295495D01*
X6253717Y24295495D01*
X6253719Y24295494D01*
X6301527Y24289200D01*
X6601356Y24289201D01*
X6657856Y24268636D01*
X6687920Y24216565D01*
X6677479Y24157351D01*
X6672148Y24149198D01*
X6668203Y24143839D01*
X6618268Y24093903D01*
X6570291Y24010805D01*
X6567398Y24006873D01*
X6546191Y23992759D01*
X6526669Y23976377D01*
X6521579Y23976377D01*
X6517344Y23973558D01*
X6492024Y23976377D01*
X6466541Y23976377D01*
X6459458Y23979311D01*
X6442340Y23987293D01*
X6396712Y23993300D01*
X6053286Y23993300D01*
X6053284Y23993299D01*
X6007665Y23987295D01*
X6007659Y23987293D01*
X5907527Y23940600D01*
X5829400Y23862473D01*
X5794664Y23787982D01*
X5752147Y23745466D01*
X5692249Y23740226D01*
X5642996Y23774714D01*
X5635336Y23787982D01*
X5600599Y23862473D01*
X5600599Y23862474D01*
X5522474Y23940599D01*
X5451794Y23973558D01*
X5422340Y23987293D01*
X5376712Y23993300D01*
X5033286Y23993300D01*
X5033284Y23993299D01*
X4987665Y23987295D01*
X4987659Y23987293D01*
X4887527Y23940600D01*
X4887526Y23940600D01*
X4887526Y23940599D01*
X4844326Y23897400D01*
X4823627Y23887747D01*
X4804923Y23874650D01*
X4797022Y23875342D01*
X4789834Y23871989D01*
X4767773Y23877901D01*
X4745025Y23879891D01*
X4735526Y23886542D01*
X4731756Y23887552D01*
X4720018Y23897400D01*
X4695145Y23922273D01*
X4669734Y23976767D01*
X4669400Y23984428D01*
X4669400Y24201301D01*
X4689965Y24257802D01*
X4742036Y24287866D01*
X4757300Y24289201D01*
X5128476Y24289201D01*
X5128476Y24289202D01*
X5152376Y24292348D01*
X5176276Y24295493D01*
X5176277Y24295494D01*
X5176281Y24295494D01*
X5281210Y24344423D01*
X5363077Y24426290D01*
X5409231Y24525268D01*
X5412005Y24531216D01*
X5412005Y24531218D01*
X5412006Y24531219D01*
X5418300Y24579027D01*
X5418299Y24955972D01*
X5418299Y24955975D01*
X5418299Y24955976D01*
X5418298Y24955978D01*
X5412007Y25003777D01*
X5412004Y25003786D01*
X5363077Y25108709D01*
X5363076Y25108711D01*
X5291087Y25180700D01*
X5265676Y25235194D01*
X5281239Y25293272D01*
X5291088Y25305010D01*
X5362658Y25376581D01*
X5362661Y25376584D01*
X5411512Y25481346D01*
X5411515Y25481355D01*
X5417800Y25529088D01*
X5417800Y25628599D01*
X5417799Y25628600D01*
X3737202Y25628600D01*
X3737201Y25628599D01*
X3737201Y25529085D01*
X3743483Y25481355D01*
X3743485Y25481349D01*
X3792339Y25376583D01*
X3863912Y25305010D01*
X3889323Y25250516D01*
X3873760Y25192438D01*
X3863912Y25180701D01*
X3791925Y25108714D01*
X3791922Y25108709D01*
X3742994Y25003785D01*
X3736700Y24955975D01*
X3736700Y24579025D01*
X3736701Y24579023D01*
X3742992Y24531224D01*
X3742995Y24531215D01*
X3776998Y24458297D01*
X3791923Y24426290D01*
X3873790Y24344423D01*
X3930339Y24318054D01*
X3978716Y24295495D01*
X3978717Y24295495D01*
X3978719Y24295494D01*
X4026527Y24289200D01*
X4072499Y24289201D01*
X4129000Y24268637D01*
X4159064Y24216566D01*
X4160400Y24201301D01*
X4160400Y23791976D01*
X4199143Y23698440D01*
X4199144Y23698439D01*
X4199145Y23698437D01*
X4618337Y23279245D01*
X4618338Y23279245D01*
X4618339Y23279244D01*
X4711877Y23240499D01*
X4717613Y23239358D01*
X4769017Y23208167D01*
X4780130Y23190296D01*
X4809400Y23127528D01*
X4809401Y23127526D01*
X4887526Y23049401D01*
X4987661Y23002707D01*
X5033289Y22996700D01*
X5376710Y22996701D01*
X5376713Y22996701D01*
X5376714Y22996702D01*
X5399524Y22999704D01*
X5422334Y23002706D01*
X5422335Y23002707D01*
X5422339Y23002707D01*
X5522474Y23049401D01*
X5600599Y23127526D01*
X5635336Y23202019D01*
X5677852Y23244535D01*
X5737751Y23249775D01*
X5787004Y23215287D01*
X5794664Y23202019D01*
X5829401Y23127526D01*
X5907526Y23049401D01*
X6007661Y23002707D01*
X6053289Y22996700D01*
X6396710Y22996701D01*
X6396713Y22996701D01*
X6396714Y22996702D01*
X6419524Y22999704D01*
X6442334Y23002706D01*
X6442335Y23002707D01*
X6442339Y23002707D01*
X6542474Y23049401D01*
X6620599Y23127526D01*
X6649870Y23190299D01*
X6692385Y23232812D01*
X6712386Y23239359D01*
X6718118Y23240500D01*
X6718123Y23240500D01*
X6811663Y23279245D01*
X6860871Y23328455D01*
X6878260Y23336564D01*
X6892962Y23348899D01*
X6911860Y23352232D01*
X6915364Y23353865D01*
X6923026Y23354200D01*
X7034072Y23354200D01*
X7090573Y23333635D01*
X7120637Y23281564D01*
X7110196Y23222350D01*
X7096230Y23204150D01*
X6459837Y22567756D01*
X6459837Y22567755D01*
X6459836Y22567756D01*
X6388246Y22496165D01*
X6388243Y22496161D01*
X6349500Y22402625D01*
X6349500Y21866963D01*
X6328935Y21810462D01*
X6298750Y21787300D01*
X6286529Y21781602D01*
X6208400Y21703473D01*
X6161707Y21603341D01*
X6155700Y21557713D01*
X6155700Y21114287D01*
X6155701Y21114285D01*
X6161705Y21068666D01*
X6161707Y21068660D01*
X6173664Y21043019D01*
X6208401Y20968526D01*
X6286526Y20890401D01*
X6386661Y20843707D01*
X6432289Y20837700D01*
X6775710Y20837701D01*
X6775713Y20837701D01*
X6775714Y20837702D01*
X6798524Y20840704D01*
X6821334Y20843706D01*
X6821335Y20843707D01*
X6821339Y20843707D01*
X6921474Y20890401D01*
X6999599Y20968526D01*
X7034336Y21043019D01*
X7076852Y21085535D01*
X7136751Y21090775D01*
X7186004Y21056287D01*
X7193664Y21043019D01*
X7228401Y20968526D01*
X7306526Y20890401D01*
X7406661Y20843707D01*
X7452289Y20837700D01*
X7795710Y20837701D01*
X7795713Y20837701D01*
X7795714Y20837702D01*
X7818524Y20840704D01*
X7841334Y20843706D01*
X7841335Y20843707D01*
X7841339Y20843707D01*
X7929574Y20884852D01*
X16186200Y20884852D01*
X16186200Y20662901D01*
X16186201Y20662900D01*
X16675099Y20662900D01*
X16675100Y20662901D01*
X16675100Y21226799D01*
X16852900Y21226799D01*
X16852900Y20662901D01*
X16852901Y20662900D01*
X17341799Y20662900D01*
X17341800Y20662901D01*
X17341800Y20884852D01*
X17331099Y20958295D01*
X17331098Y20958297D01*
X17275726Y21071563D01*
X17186562Y21160727D01*
X17073296Y21216099D01*
X17073294Y21216100D01*
X16999852Y21226800D01*
X16852901Y21226800D01*
X16852900Y21226799D01*
X16675100Y21226799D01*
X16675099Y21226800D01*
X16528148Y21226800D01*
X16454705Y21216100D01*
X16454703Y21216099D01*
X16341437Y21160727D01*
X16252273Y21071563D01*
X16196901Y20958297D01*
X16196900Y20958295D01*
X16186200Y20884852D01*
X7929574Y20884852D01*
X7941474Y20890401D01*
X8019599Y20968526D01*
X8050744Y21035318D01*
X8053385Y21039615D01*
X8073221Y21055357D01*
X8091130Y21073265D01*
X8097596Y21074699D01*
X8100484Y21076990D01*
X8107115Y21076809D01*
X8128278Y21081500D01*
X8130622Y21081500D01*
X8130623Y21081500D01*
X8224163Y21120245D01*
X9020873Y21916957D01*
X9075367Y21942367D01*
X9083028Y21942701D01*
X9757564Y21942701D01*
X9757565Y21942702D01*
X9809565Y21953044D01*
X9809566Y21953044D01*
X9809566Y21953045D01*
X9809569Y21953045D01*
X9868547Y21992453D01*
X9907955Y22051431D01*
X9918300Y22103439D01*
X9918300Y22265200D01*
X9938865Y22321701D01*
X9990936Y22351765D01*
X10006200Y22353100D01*
X14473801Y22353100D01*
X14530302Y22332535D01*
X14560366Y22280464D01*
X14561701Y22265200D01*
X14561701Y22103435D01*
X14572043Y22051435D01*
X14572043Y22051434D01*
X14572044Y22051432D01*
X14572045Y22051431D01*
X14611453Y21992453D01*
X14670431Y21953045D01*
X14722439Y21942700D01*
X15713768Y21942701D01*
X15770269Y21922136D01*
X15800333Y21870065D01*
X15800916Y21866275D01*
X15803803Y21844346D01*
X15833062Y21781600D01*
X15851242Y21742614D01*
X15930614Y21663242D01*
X16032347Y21615803D01*
X16066496Y21611308D01*
X16078702Y21609700D01*
X16078704Y21609700D01*
X16433298Y21609700D01*
X16444083Y21611121D01*
X16479653Y21615803D01*
X16581386Y21663242D01*
X16660758Y21742614D01*
X16660759Y21742617D01*
X16664302Y21747676D01*
X16713552Y21782167D01*
X16773451Y21776931D01*
X16808314Y21747679D01*
X16811655Y21742907D01*
X16890904Y21663658D01*
X16890906Y21663657D01*
X16992475Y21616294D01*
X16992474Y21616294D01*
X17038756Y21610200D01*
X17127099Y21610200D01*
X17127100Y21610201D01*
X17304900Y21610201D01*
X17304901Y21610200D01*
X17393244Y21610200D01*
X17439525Y21616294D01*
X17541093Y21663657D01*
X17541095Y21663658D01*
X17620342Y21742905D01*
X17620343Y21742907D01*
X17667706Y21844475D01*
X17673800Y21890757D01*
X17673800Y22009099D01*
X17673799Y22009100D01*
X17304900Y22009100D01*
X17304900Y21610201D01*
X17127100Y21610201D01*
X17127100Y22010100D01*
X17134909Y22031558D01*
X17138876Y22054050D01*
X17144952Y22059149D01*
X17147665Y22066601D01*
X17167441Y22078020D01*
X17184936Y22092699D01*
X17196353Y22094713D01*
X17199736Y22096665D01*
X17215000Y22098000D01*
X17216000Y22098000D01*
X17216000Y22099000D01*
X17236565Y22155501D01*
X17288636Y22185565D01*
X17303900Y22186900D01*
X17673799Y22186900D01*
X17673800Y22186901D01*
X17673800Y22305244D01*
X17667706Y22351526D01*
X17620343Y22453094D01*
X17620342Y22453096D01*
X17541095Y22532343D01*
X17541093Y22532344D01*
X17439524Y22579707D01*
X17439525Y22579707D01*
X17393244Y22585800D01*
X17315927Y22585800D01*
X17259426Y22606365D01*
X17229362Y22658436D01*
X17239803Y22717650D01*
X17253772Y22735855D01*
X18292631Y23774714D01*
X21454161Y26936245D01*
X21454163Y26936245D01*
X21525755Y27007837D01*
X21564500Y27101377D01*
X21564500Y40431801D01*
X21585065Y40488302D01*
X21637136Y40518366D01*
X21652400Y40519701D01*
X22009600Y40519701D01*
X22066101Y40499136D01*
X22096165Y40447065D01*
X22097500Y40431801D01*
X22097500Y37768045D01*
X22076935Y37711544D01*
X22071755Y37705890D01*
X21985269Y37619405D01*
X21924930Y37514894D01*
X21893700Y37398336D01*
X21893700Y37277665D01*
X21924930Y37161107D01*
X21924931Y37161104D01*
X21924932Y37161103D01*
X21985268Y37056597D01*
X22070597Y36971268D01*
X22175103Y36910932D01*
X22175105Y36910932D01*
X22175106Y36910931D01*
X22291664Y36879700D01*
X22412335Y36879700D01*
X22412336Y36879700D01*
X22528897Y36910932D01*
X22633403Y36971268D01*
X22718732Y37056597D01*
X22779068Y37161103D01*
X22810300Y37277664D01*
X22810300Y37398336D01*
X22779068Y37514897D01*
X22718732Y37619403D01*
X22633403Y37704732D01*
X22632245Y37705890D01*
X22606834Y37760384D01*
X22606500Y37768045D01*
X22606500Y41704338D01*
X22606501Y41704347D01*
X22606501Y41815824D01*
X22567756Y41909361D01*
X22567755Y41909362D01*
X22567755Y41909363D01*
X22264044Y42213074D01*
X22238633Y42267568D01*
X22238299Y42275229D01*
X22238299Y42885564D01*
X22238298Y42885566D01*
X22227956Y42937566D01*
X22227956Y42937567D01*
X22183737Y43003745D01*
X22187164Y43006036D01*
X22168837Y43045339D01*
X22184035Y43102056D01*
X22183737Y43102255D01*
X22184324Y43103134D01*
X22184400Y43103417D01*
X22184957Y43104082D01*
X22188544Y43109452D01*
X22188547Y43109453D01*
X22227955Y43168431D01*
X22238300Y43220439D01*
X22238299Y44155560D01*
X22238299Y44155561D01*
X22238299Y44155564D01*
X22238298Y44155566D01*
X22227956Y44207566D01*
X22227956Y44207567D01*
X22225729Y44210900D01*
X22188547Y44266547D01*
X22188546Y44266548D01*
X22183737Y44273745D01*
X22187164Y44276036D01*
X22168837Y44315339D01*
X22184035Y44372056D01*
X22183737Y44372255D01*
X22184324Y44373134D01*
X22184400Y44373417D01*
X22184957Y44374082D01*
X22188544Y44379452D01*
X22188547Y44379453D01*
X22227955Y44438431D01*
X22238300Y44490439D01*
X22238299Y45425560D01*
X22238299Y45425561D01*
X22238299Y45425564D01*
X22238298Y45425566D01*
X22227956Y45477566D01*
X22227956Y45477567D01*
X22183737Y45543745D01*
X22187164Y45546036D01*
X22168837Y45585339D01*
X22184035Y45642056D01*
X22183737Y45642255D01*
X22184324Y45643134D01*
X22184400Y45643417D01*
X22184957Y45644082D01*
X22188544Y45649452D01*
X22188547Y45649453D01*
X22227955Y45708431D01*
X22238300Y45760439D01*
X22238299Y46695560D01*
X22238299Y46695561D01*
X22238299Y46695564D01*
X22238298Y46695566D01*
X22227956Y46747566D01*
X22227956Y46747567D01*
X22183737Y46813745D01*
X22187164Y46816036D01*
X22168837Y46855339D01*
X22184035Y46912056D01*
X22183737Y46912255D01*
X22184324Y46913134D01*
X22184400Y46913417D01*
X22184957Y46914082D01*
X22188544Y46919452D01*
X22188547Y46919453D01*
X22227955Y46978431D01*
X22238300Y47030439D01*
X22238299Y47965560D01*
X22238299Y47965561D01*
X22238299Y47965564D01*
X22238298Y47965566D01*
X22227956Y48017566D01*
X22227956Y48017567D01*
X22222986Y48025005D01*
X22188547Y48076547D01*
X22188546Y48076548D01*
X22183737Y48083745D01*
X22187164Y48086036D01*
X22168837Y48125339D01*
X22184035Y48182056D01*
X22183737Y48182255D01*
X22184324Y48183134D01*
X22184400Y48183417D01*
X22184957Y48184082D01*
X22188544Y48189452D01*
X22188547Y48189453D01*
X22227955Y48248431D01*
X22238300Y48300439D01*
X22238299Y49235560D01*
X22238299Y49235561D01*
X22238299Y49235564D01*
X22238298Y49235566D01*
X22227956Y49287566D01*
X22227956Y49287567D01*
X22227955Y49287569D01*
X22188547Y49346547D01*
X22188546Y49346548D01*
X22183737Y49353745D01*
X22187164Y49356036D01*
X22168837Y49395339D01*
X22184035Y49452056D01*
X22183737Y49452255D01*
X22184324Y49453134D01*
X22184400Y49453417D01*
X22184957Y49454082D01*
X22188544Y49459452D01*
X22188547Y49459453D01*
X22227955Y49518431D01*
X22238300Y49570439D01*
X22238299Y50505560D01*
X22238299Y50505561D01*
X22238299Y50505564D01*
X22238298Y50505566D01*
X22227956Y50557566D01*
X22227956Y50557567D01*
X22227955Y50557569D01*
X22188547Y50616547D01*
X22188546Y50616548D01*
X22183737Y50623745D01*
X22187164Y50626036D01*
X22168837Y50665339D01*
X22184035Y50722056D01*
X22183737Y50722255D01*
X22184324Y50723134D01*
X22184400Y50723417D01*
X22184957Y50724082D01*
X22188544Y50729452D01*
X22188547Y50729453D01*
X22227955Y50788431D01*
X22238300Y50840439D01*
X22238299Y51775560D01*
X22238299Y51775561D01*
X22238299Y51775564D01*
X22238298Y51775566D01*
X22227956Y51827566D01*
X22227956Y51827567D01*
X22227955Y51827569D01*
X22188547Y51886547D01*
X22188546Y51886548D01*
X22183737Y51893745D01*
X22187164Y51896036D01*
X22168837Y51935339D01*
X22184035Y51992056D01*
X22183737Y51992255D01*
X22184324Y51993134D01*
X22184400Y51993417D01*
X22184957Y51994082D01*
X22188544Y51999452D01*
X22188547Y51999453D01*
X22227955Y52058431D01*
X22238300Y52110439D01*
X22238299Y53045560D01*
X22238299Y53045561D01*
X22238299Y53045564D01*
X22238298Y53045566D01*
X22227956Y53097566D01*
X22227956Y53097567D01*
X22183737Y53163745D01*
X22187164Y53166036D01*
X22168837Y53205339D01*
X22184035Y53262056D01*
X22183737Y53262255D01*
X22184324Y53263134D01*
X22184400Y53263417D01*
X22184957Y53264082D01*
X22188544Y53269452D01*
X22188547Y53269453D01*
X22227955Y53328431D01*
X22238300Y53380439D01*
X22238299Y54315560D01*
X22238299Y54315561D01*
X22238299Y54315564D01*
X22238298Y54315566D01*
X22227956Y54367566D01*
X22227956Y54367567D01*
X22198403Y54411796D01*
X22188547Y54426547D01*
X22188546Y54426548D01*
X22183737Y54433745D01*
X22187164Y54436036D01*
X22168837Y54475339D01*
X22184035Y54532056D01*
X22183737Y54532255D01*
X22184324Y54533134D01*
X22184400Y54533417D01*
X22184957Y54534082D01*
X22188544Y54539452D01*
X22188547Y54539453D01*
X22227955Y54598431D01*
X22238300Y54650439D01*
X22238299Y55585560D01*
X22238299Y55585561D01*
X22238299Y55585564D01*
X22238298Y55585566D01*
X22227956Y55637566D01*
X22227956Y55637567D01*
X22227955Y55637569D01*
X22188547Y55696547D01*
X22188546Y55696548D01*
X22183737Y55703745D01*
X22187164Y55706036D01*
X22168837Y55745339D01*
X22184035Y55802056D01*
X22183737Y55802255D01*
X22184324Y55803134D01*
X22184400Y55803417D01*
X22184957Y55804082D01*
X22188544Y55809452D01*
X22188547Y55809453D01*
X22227955Y55868431D01*
X22238300Y55920439D01*
X22238299Y56855560D01*
X22238299Y56855564D01*
X22238298Y56855566D01*
X22227956Y56907566D01*
X22227956Y56907567D01*
X22183737Y56973745D01*
X22187017Y56975938D01*
X22168476Y57015700D01*
X22183674Y57072419D01*
X22183377Y57072617D01*
X22183962Y57073494D01*
X22184039Y57073778D01*
X22184597Y57074445D01*
X22227483Y57138625D01*
X22237800Y57190488D01*
X22237800Y57569099D01*
X22237799Y57569100D01*
X21397900Y57569100D01*
X21376442Y57576910D01*
X21353950Y57580876D01*
X21348851Y57586953D01*
X21341399Y57589665D01*
X21329980Y57609442D01*
X21315301Y57626936D01*
X21313287Y57638354D01*
X21311335Y57641736D01*
X21310000Y57657000D01*
X21310000Y57658000D01*
X21309000Y57658000D01*
X21252499Y57678565D01*
X21222435Y57730636D01*
X21221100Y57745900D01*
X21221100Y58285799D01*
X21398900Y58285799D01*
X21398900Y57746900D01*
X22237798Y57746900D01*
X22237799Y57746901D01*
X22237799Y58125509D01*
X22227483Y58177376D01*
X22188188Y58236183D01*
X22188182Y58236189D01*
X22129375Y58275484D01*
X22077513Y58285800D01*
X21398901Y58285800D01*
X21398900Y58285799D01*
X21221100Y58285799D01*
X21221099Y58285800D01*
X20542486Y58285800D01*
X20542484Y58285799D01*
X20526642Y58282648D01*
X20467215Y58291796D01*
X20427572Y58337003D01*
X20421596Y58368859D01*
X20421596Y60871600D01*
X20442161Y60928101D01*
X20494232Y60958165D01*
X20509496Y60959500D01*
X23025600Y60959500D01*
X23082101Y60938935D01*
X23112165Y60886864D01*
X23113500Y60871600D01*
X23113500Y-419600D01*
X23092935Y-476101D01*
X23040864Y-506165D01*
X23025600Y-507500D01*
X-3213600Y-507500D01*
X-3270101Y-486935D01*
X-3300165Y-434864D01*
X-3301500Y-419600D01*
X-3301500Y2658011D01*
X739500Y2658011D01*
X739500Y2421989D01*
X770307Y2187986D01*
X831394Y1960007D01*
X847900Y1920158D01*
X921713Y1741957D01*
X921714Y1741955D01*
X1039728Y1537548D01*
X1150946Y1392606D01*
X1183408Y1350301D01*
X1350301Y1183408D01*
X1537550Y1039727D01*
X1741951Y921716D01*
X1960007Y831394D01*
X2187986Y770307D01*
X2367541Y746669D01*
X2421987Y739500D01*
X2421989Y739500D01*
X2658013Y739500D01*
X2706784Y745922D01*
X2892014Y770307D01*
X3119993Y831394D01*
X3338049Y921716D01*
X3542450Y1039727D01*
X3729699Y1183408D01*
X3896592Y1350301D01*
X3929054Y1392606D01*
X6320200Y1392606D01*
X6320200Y1104901D01*
X6320201Y1104900D01*
X6698000Y1104900D01*
X6698000Y927100D01*
X6320201Y927100D01*
X6320200Y927099D01*
X6320200Y639395D01*
X6350088Y489133D01*
X6350090Y489128D01*
X6408724Y347573D01*
X6493842Y220185D01*
X6602184Y111843D01*
X6729573Y26725D01*
X6871123Y-31909D01*
X6871127Y-31910D01*
X7009099Y-59354D01*
X7009100Y-59354D01*
X7009100Y325711D01*
X7045339Y316000D01*
X7150661Y316000D01*
X7186900Y325711D01*
X7186900Y-59354D01*
X7324872Y-31910D01*
X7324876Y-31909D01*
X7466426Y26725D01*
X7593815Y111843D01*
X7702157Y220185D01*
X7787275Y347573D01*
X7845909Y489128D01*
X7845911Y489133D01*
X7875800Y639395D01*
X7875800Y927099D01*
X7875799Y927100D01*
X7498000Y927100D01*
X7498000Y1104900D01*
X7875799Y1104900D01*
X7875800Y1104901D01*
X7875800Y1392606D01*
X14970200Y1392606D01*
X14970200Y1104901D01*
X14970201Y1104900D01*
X15348000Y1104900D01*
X15348000Y927100D01*
X14970201Y927100D01*
X14970200Y927099D01*
X14970200Y639395D01*
X15000088Y489133D01*
X15000090Y489128D01*
X15058724Y347573D01*
X15143842Y220185D01*
X15252184Y111843D01*
X15379573Y26725D01*
X15521123Y-31909D01*
X15521127Y-31910D01*
X15659099Y-59354D01*
X15659100Y-59354D01*
X15659100Y325711D01*
X15695339Y316000D01*
X15800661Y316000D01*
X15836900Y325711D01*
X15836900Y-59354D01*
X15974872Y-31910D01*
X15974876Y-31909D01*
X16116426Y26725D01*
X16243815Y111843D01*
X16352157Y220185D01*
X16437275Y347573D01*
X16495909Y489128D01*
X16495911Y489133D01*
X16525800Y639395D01*
X16525800Y927099D01*
X16525799Y927100D01*
X16148000Y927100D01*
X16148000Y1104900D01*
X16525799Y1104900D01*
X16525800Y1104901D01*
X16525800Y1392606D01*
X16495911Y1542868D01*
X16495909Y1542873D01*
X16437275Y1684428D01*
X16352157Y1811816D01*
X16243815Y1920158D01*
X16116427Y2005276D01*
X15974876Y2063908D01*
X15974873Y2063909D01*
X15836900Y2091355D01*
X15836900Y1706290D01*
X15800661Y1716000D01*
X15695339Y1716000D01*
X15659100Y1706290D01*
X15659100Y2091355D01*
X15521126Y2063909D01*
X15521123Y2063908D01*
X15379572Y2005276D01*
X15252184Y1920158D01*
X15143842Y1811816D01*
X15058724Y1684428D01*
X15000090Y1542873D01*
X15000088Y1542868D01*
X14970200Y1392606D01*
X7875800Y1392606D01*
X7845911Y1542868D01*
X7845909Y1542873D01*
X7787275Y1684428D01*
X7702157Y1811816D01*
X7593815Y1920158D01*
X7466427Y2005276D01*
X7324876Y2063908D01*
X7324873Y2063909D01*
X7186900Y2091355D01*
X7186900Y1706290D01*
X7150661Y1716000D01*
X7045339Y1716000D01*
X7009100Y1706290D01*
X7009100Y2091355D01*
X6871126Y2063909D01*
X6871123Y2063908D01*
X6729572Y2005276D01*
X6602184Y1920158D01*
X6493842Y1811816D01*
X6408724Y1684428D01*
X6350090Y1542873D01*
X6350088Y1542868D01*
X6320200Y1392606D01*
X3929054Y1392606D01*
X4040273Y1537550D01*
X4158284Y1741951D01*
X4248606Y1960007D01*
X4309693Y2187986D01*
X4340500Y2421989D01*
X4340500Y2658011D01*
X18519500Y2658011D01*
X18519500Y2421989D01*
X18550307Y2187986D01*
X18611394Y1960007D01*
X18627900Y1920158D01*
X18701713Y1741957D01*
X18701714Y1741955D01*
X18819728Y1537548D01*
X18930946Y1392606D01*
X18963408Y1350301D01*
X19130301Y1183408D01*
X19317550Y1039727D01*
X19521951Y921716D01*
X19740007Y831394D01*
X19967986Y770307D01*
X20147541Y746669D01*
X20201987Y739500D01*
X20201989Y739500D01*
X20438013Y739500D01*
X20486784Y745922D01*
X20672014Y770307D01*
X20899993Y831394D01*
X21118049Y921716D01*
X21322450Y1039727D01*
X21509699Y1183408D01*
X21676592Y1350301D01*
X21820273Y1537550D01*
X21938284Y1741951D01*
X22028606Y1960007D01*
X22089693Y2187986D01*
X22120500Y2421989D01*
X22120500Y2658011D01*
X22089693Y2892014D01*
X22028606Y3119993D01*
X21938284Y3338049D01*
X21820273Y3542450D01*
X21676592Y3729699D01*
X21509699Y3896592D01*
X21456323Y3937549D01*
X21322452Y4040272D01*
X21252273Y4080790D01*
X21118049Y4158284D01*
X21118047Y4158285D01*
X21118045Y4158286D01*
X21118043Y4158287D01*
X21016059Y4200530D01*
X20899993Y4248606D01*
X20899986Y4248608D01*
X20672026Y4309690D01*
X20672014Y4309693D01*
X20438013Y4340500D01*
X20438011Y4340500D01*
X20201989Y4340500D01*
X20201987Y4340500D01*
X19967985Y4309693D01*
X19967973Y4309690D01*
X19740013Y4248608D01*
X19740009Y4248607D01*
X19740007Y4248606D01*
X19740005Y4248605D01*
X19521956Y4158287D01*
X19521954Y4158286D01*
X19317547Y4040272D01*
X19130304Y3896595D01*
X18963405Y3729696D01*
X18819728Y3542453D01*
X18701714Y3338046D01*
X18701713Y3338044D01*
X18687405Y3303500D01*
X18611394Y3119993D01*
X18550307Y2892014D01*
X18519500Y2658011D01*
X4340500Y2658011D01*
X4309693Y2892014D01*
X4248606Y3119993D01*
X4158284Y3338049D01*
X4040273Y3542450D01*
X3896592Y3729699D01*
X3729699Y3896592D01*
X3676323Y3937549D01*
X3542452Y4040272D01*
X3472273Y4080790D01*
X3338049Y4158284D01*
X3338047Y4158285D01*
X3338045Y4158286D01*
X3338043Y4158287D01*
X3236059Y4200530D01*
X3119993Y4248606D01*
X3119986Y4248608D01*
X2892026Y4309690D01*
X2892014Y4309693D01*
X2658013Y4340500D01*
X2658011Y4340500D01*
X2421989Y4340500D01*
X2421987Y4340500D01*
X2187985Y4309693D01*
X2187973Y4309690D01*
X1960013Y4248608D01*
X1960009Y4248607D01*
X1960007Y4248606D01*
X1960005Y4248605D01*
X1741956Y4158287D01*
X1741954Y4158286D01*
X1537547Y4040272D01*
X1350304Y3896595D01*
X1183405Y3729696D01*
X1039728Y3542453D01*
X921714Y3338046D01*
X921713Y3338044D01*
X907405Y3303500D01*
X831394Y3119993D01*
X770307Y2892014D01*
X739500Y2658011D01*
X-3301500Y2658011D01*
X-3301500Y5444151D01*
X5217200Y5444151D01*
X5217200Y5361401D01*
X5217201Y5361400D01*
X5626099Y5361400D01*
X5626100Y5361401D01*
X5626100Y5720300D01*
X5493348Y5720300D01*
X5493346Y5720299D01*
X5447797Y5714304D01*
X5447788Y5714301D01*
X5347819Y5667684D01*
X5347817Y5667683D01*
X5269817Y5589683D01*
X5269816Y5589681D01*
X5223198Y5489711D01*
X5217200Y5444151D01*
X-3301500Y5444151D01*
X-3301500Y8188336D01*
X3351700Y8188336D01*
X3351700Y8067665D01*
X3382930Y7951107D01*
X3382931Y7951104D01*
X3382932Y7951103D01*
X3443268Y7846597D01*
X3528597Y7761268D01*
X3633103Y7700932D01*
X3633105Y7700932D01*
X3633106Y7700931D01*
X3749664Y7669700D01*
X3870335Y7669700D01*
X3870336Y7669700D01*
X3986897Y7700932D01*
X4091403Y7761268D01*
X4176732Y7846597D01*
X4237068Y7951103D01*
X4268300Y8067664D01*
X4268300Y8188336D01*
X4259950Y8219498D01*
X4237069Y8304894D01*
X4237068Y8304895D01*
X4237068Y8304897D01*
X4176732Y8409403D01*
X4091403Y8494732D01*
X4090245Y8495890D01*
X4064834Y8550384D01*
X4064500Y8558045D01*
X4064500Y8956099D01*
X6179700Y8956099D01*
X6179700Y8867757D01*
X6185793Y8821475D01*
X6233156Y8719907D01*
X6233157Y8719905D01*
X6312404Y8640658D01*
X6312406Y8640657D01*
X6413975Y8593294D01*
X6413974Y8593294D01*
X6460256Y8587200D01*
X6578599Y8587200D01*
X6578600Y8587201D01*
X6578600Y8956099D01*
X6756400Y8956099D01*
X6756400Y8587201D01*
X6756401Y8587200D01*
X6874744Y8587200D01*
X6921025Y8593294D01*
X7022593Y8640657D01*
X7022595Y8640658D01*
X7101842Y8719905D01*
X7101843Y8719907D01*
X7149206Y8821475D01*
X7155300Y8867757D01*
X7155300Y8956099D01*
X7155299Y8956100D01*
X6756401Y8956100D01*
X6756400Y8956099D01*
X6578600Y8956099D01*
X6578599Y8956100D01*
X6179701Y8956100D01*
X6179700Y8956099D01*
X4064500Y8956099D01*
X4064500Y10182298D01*
X6179200Y10182298D01*
X6179200Y9827703D01*
X6185303Y9781346D01*
X6232742Y9679614D01*
X6312115Y9600241D01*
X6317178Y9596696D01*
X6351667Y9547444D01*
X6346429Y9487545D01*
X6317181Y9452688D01*
X6312407Y9449346D01*
X6233157Y9370096D01*
X6233156Y9370094D01*
X6185793Y9268526D01*
X6179700Y9222244D01*
X6179700Y9133901D01*
X6179701Y9133900D01*
X7155299Y9133900D01*
X7155300Y9133901D01*
X7155300Y9214350D01*
X7175865Y9270851D01*
X7227936Y9300915D01*
X7243200Y9302250D01*
X7333975Y9302250D01*
X7458865Y9302250D01*
X7515366Y9281685D01*
X7545430Y9229614D01*
X7546322Y9213350D01*
X7546700Y9213350D01*
X7546700Y8833525D01*
X7546701Y8833523D01*
X7552992Y8785724D01*
X7552995Y8785715D01*
X7599447Y8686100D01*
X7601923Y8680790D01*
X7683790Y8598923D01*
X7710539Y8586450D01*
X7788716Y8549995D01*
X7788717Y8549995D01*
X7788719Y8549994D01*
X7836527Y8543700D01*
X8938472Y8543701D01*
X8938475Y8543701D01*
X8938476Y8543702D01*
X8962376Y8546848D01*
X8986276Y8549993D01*
X8986277Y8549994D01*
X8986281Y8549994D01*
X9091210Y8598923D01*
X9173077Y8680790D01*
X9217474Y8776000D01*
X9222005Y8785716D01*
X9222005Y8785718D01*
X9222006Y8785719D01*
X9228300Y8833527D01*
X9228299Y9210472D01*
X9228299Y9210473D01*
X9228299Y9210476D01*
X9228298Y9210478D01*
X9227788Y9214350D01*
X9224223Y9241440D01*
X9222007Y9258277D01*
X9222004Y9258286D01*
X9194503Y9317262D01*
X9173077Y9363210D01*
X9091210Y9445077D01*
X9085208Y9447876D01*
X8986283Y9494006D01*
X8986284Y9494006D01*
X8938475Y9500300D01*
X8938473Y9500300D01*
X8621395Y9500300D01*
X8564894Y9520865D01*
X8545271Y9544251D01*
X8543238Y9547772D01*
X8530176Y9570397D01*
X8111547Y9989026D01*
X8098683Y9996453D01*
X8098681Y9996455D01*
X8024552Y10039252D01*
X7927525Y10065250D01*
X7478183Y10065250D01*
X7421682Y10085815D01*
X7416028Y10090995D01*
X7196745Y10310278D01*
X7161916Y10330387D01*
X7161916Y10330386D01*
X7109755Y10360501D01*
X7081126Y10368172D01*
X7041722Y10390922D01*
X7022886Y10409758D01*
X6921154Y10457197D01*
X6874798Y10463300D01*
X6874796Y10463300D01*
X6460204Y10463300D01*
X6460202Y10463300D01*
X6413845Y10457197D01*
X6312113Y10409758D01*
X6232742Y10330387D01*
X6185303Y10228655D01*
X6179200Y10182298D01*
X4064500Y10182298D01*
X4064500Y11110475D01*
X7546700Y11110475D01*
X7546700Y10733525D01*
X7546701Y10733523D01*
X7552992Y10685724D01*
X7552995Y10685715D01*
X7591660Y10602799D01*
X7601923Y10580790D01*
X7683790Y10498923D01*
X7733691Y10475654D01*
X7788716Y10449995D01*
X7788717Y10449995D01*
X7788719Y10449994D01*
X7836527Y10443700D01*
X8938472Y10443701D01*
X8938475Y10443701D01*
X8938476Y10443702D01*
X8962376Y10446848D01*
X8986276Y10449993D01*
X8986277Y10449994D01*
X8986281Y10449994D01*
X9091210Y10498923D01*
X9173077Y10580790D01*
X9217444Y10675936D01*
X9222005Y10685716D01*
X9222005Y10685718D01*
X9222006Y10685719D01*
X9228300Y10733527D01*
X9228299Y11110472D01*
X9228299Y11110475D01*
X9228299Y11110476D01*
X9228298Y11110478D01*
X9222007Y11158277D01*
X9222004Y11158286D01*
X9188736Y11229629D01*
X9173077Y11263210D01*
X9091210Y11345077D01*
X9083910Y11348481D01*
X8986283Y11394006D01*
X8986284Y11394006D01*
X8938474Y11400300D01*
X7836524Y11400300D01*
X7836522Y11400299D01*
X7788723Y11394008D01*
X7788714Y11394005D01*
X7683791Y11345078D01*
X7683789Y11345077D01*
X7601923Y11263211D01*
X7601922Y11263209D01*
X7552994Y11158285D01*
X7546700Y11110475D01*
X4064500Y11110475D01*
X4064500Y11764424D01*
X4085065Y11820925D01*
X4090234Y11826568D01*
X4462161Y12198495D01*
X4462163Y12198495D01*
X4533755Y12270087D01*
X4541797Y12289505D01*
X4551706Y12300614D01*
X4563444Y12306928D01*
X4573356Y12318231D01*
X4599403Y12333268D01*
X4684732Y12418597D01*
X4745068Y12523103D01*
X4776300Y12639664D01*
X4776300Y12760336D01*
X4771121Y12779664D01*
X4745069Y12876894D01*
X4745068Y12876895D01*
X4745068Y12876897D01*
X4684732Y12981403D01*
X4599403Y13066732D01*
X4494897Y13127068D01*
X4494896Y13127069D01*
X4494893Y13127070D01*
X4378336Y13158300D01*
X4257664Y13158300D01*
X4141106Y13127070D01*
X4036595Y13066731D01*
X3951269Y12981405D01*
X3890930Y12876894D01*
X3864879Y12779664D01*
X3859700Y12760336D01*
X3859700Y12639664D01*
X3860066Y12638299D01*
X3890931Y12523105D01*
X3921629Y12469934D01*
X3932069Y12410721D01*
X3907660Y12363831D01*
X3665837Y12122006D01*
X3594246Y12050415D01*
X3594243Y12050411D01*
X3555500Y11956875D01*
X3555500Y8558045D01*
X3534935Y8501544D01*
X3529755Y8495890D01*
X3443269Y8409405D01*
X3382930Y8304894D01*
X3351700Y8188336D01*
X-3301500Y8188336D01*
X-3301500Y13522336D01*
X1573700Y13522336D01*
X1573700Y13401665D01*
X1604930Y13285107D01*
X1604931Y13285104D01*
X1604932Y13285103D01*
X1665268Y13180597D01*
X1750597Y13095268D01*
X1855103Y13034932D01*
X1855105Y13034932D01*
X1855106Y13034931D01*
X1971664Y13003700D01*
X2092335Y13003700D01*
X2092336Y13003700D01*
X2208897Y13034932D01*
X2313403Y13095268D01*
X2398732Y13180597D01*
X2398732Y13180598D01*
X2399890Y13181755D01*
X2454384Y13207166D01*
X2462045Y13207500D01*
X2844622Y13207500D01*
X2844623Y13207500D01*
X2937811Y13246099D01*
X6979701Y13246099D01*
X6979701Y13113347D01*
X6985696Y13067798D01*
X6985699Y13067789D01*
X7032316Y12967820D01*
X7032317Y12967818D01*
X7110317Y12889818D01*
X7110319Y12889817D01*
X7210290Y12843199D01*
X7210289Y12843199D01*
X7255849Y12837201D01*
X7338600Y12837201D01*
X7338600Y13246100D01*
X6979702Y13246100D01*
X6979701Y13246099D01*
X2937811Y13246099D01*
X2938163Y13246245D01*
X3381672Y13689756D01*
X3436166Y13715166D01*
X3443827Y13715500D01*
X6901541Y13715500D01*
X6958042Y13694935D01*
X6988106Y13642864D01*
X6986254Y13608916D01*
X6986576Y13608873D01*
X6986022Y13604669D01*
X6985932Y13603011D01*
X6985698Y13602211D01*
X6979700Y13556651D01*
X6979700Y13423901D01*
X6979701Y13423900D01*
X7339600Y13423900D01*
X7361057Y13416091D01*
X7383550Y13412124D01*
X7388648Y13406048D01*
X7396101Y13403335D01*
X7407519Y13383559D01*
X7422199Y13366064D01*
X7424212Y13354647D01*
X7426165Y13351264D01*
X7427500Y13336000D01*
X7427500Y13335000D01*
X7428500Y13335000D01*
X7485001Y13314435D01*
X7515065Y13262364D01*
X7516400Y13247100D01*
X7516400Y12837202D01*
X7516401Y12837201D01*
X7599152Y12837201D01*
X7599153Y12837202D01*
X7644702Y12843197D01*
X7644711Y12843200D01*
X7744680Y12889817D01*
X7744682Y12889818D01*
X7822681Y12967817D01*
X7857558Y13042611D01*
X7900074Y13085127D01*
X7959973Y13090368D01*
X8009226Y13055881D01*
X8016887Y13042612D01*
X8040180Y12992661D01*
X8051901Y12967526D01*
X8130026Y12889401D01*
X8230161Y12842707D01*
X8275789Y12836700D01*
X8619210Y12836701D01*
X8619213Y12836701D01*
X8619214Y12836702D01*
X8642024Y12839704D01*
X8664834Y12842706D01*
X8664835Y12842707D01*
X8664839Y12842707D01*
X8764974Y12889401D01*
X8802946Y12927374D01*
X8857439Y12952784D01*
X8915517Y12937221D01*
X8950005Y12887968D01*
X8953000Y12865218D01*
X8953000Y12331876D01*
X8991743Y12238340D01*
X8991744Y12238339D01*
X8991745Y12238337D01*
X9184244Y12045839D01*
X9184245Y12045837D01*
X9255837Y11974245D01*
X9340300Y11939260D01*
X9384631Y11898639D01*
X9386327Y11895200D01*
X9396900Y11872527D01*
X9396901Y11872526D01*
X9475026Y11794401D01*
X9575161Y11747707D01*
X9620789Y11741700D01*
X9959971Y11741701D01*
X10016472Y11721136D01*
X10022125Y11715956D01*
X10187727Y11550355D01*
X10213138Y11495861D01*
X10197577Y11437783D01*
X10148323Y11403295D01*
X10125578Y11400300D01*
X10111526Y11400300D01*
X10111522Y11400299D01*
X10063723Y11394008D01*
X10063714Y11394005D01*
X9958791Y11345078D01*
X9958789Y11345077D01*
X9876923Y11263211D01*
X9876922Y11263209D01*
X9827994Y11158285D01*
X9821700Y11110475D01*
X9821700Y10733525D01*
X9821701Y10733523D01*
X9827992Y10685724D01*
X9827995Y10685715D01*
X9876922Y10580792D01*
X9876923Y10580790D01*
X9948912Y10508801D01*
X9974323Y10454307D01*
X9958760Y10396229D01*
X9948912Y10384492D01*
X9877341Y10312921D01*
X9877338Y10312917D01*
X9828487Y10208155D01*
X9828484Y10208146D01*
X9822200Y10160413D01*
X9822200Y10060901D01*
X9822201Y10060900D01*
X11502798Y10060900D01*
X11502799Y10060901D01*
X11502799Y10160414D01*
X11502798Y10160416D01*
X11496516Y10208146D01*
X11496514Y10208152D01*
X11447660Y10312918D01*
X11376087Y10384491D01*
X11350676Y10438985D01*
X11366239Y10497063D01*
X11376088Y10508801D01*
X11448074Y10580787D01*
X11448077Y10580790D01*
X11492444Y10675936D01*
X11497005Y10685716D01*
X11497005Y10685718D01*
X11497006Y10685719D01*
X11503300Y10733527D01*
X11503299Y10899832D01*
X11503903Y10901492D01*
X11503363Y10903173D01*
X11514112Y10929543D01*
X11523863Y10956332D01*
X11525394Y10957217D01*
X11526061Y10958851D01*
X11551239Y10972138D01*
X11575935Y10986396D01*
X11577676Y10986089D01*
X11579238Y10986913D01*
X11607082Y10980904D01*
X11635149Y10975955D01*
X11636837Y10974483D01*
X11638012Y10974229D01*
X11642633Y10969429D01*
X11660634Y10953731D01*
X11664316Y10948987D01*
X11698268Y10890181D01*
X11750552Y10837897D01*
X11753935Y10833539D01*
X11761548Y10809855D01*
X11772066Y10787300D01*
X11772400Y10779639D01*
X11772400Y7460109D01*
X11751835Y7403608D01*
X11746655Y7397954D01*
X11584546Y7235845D01*
X11530052Y7210434D01*
X11522391Y7210100D01*
X11474813Y7210100D01*
X11418312Y7230665D01*
X11388248Y7282736D01*
X11395149Y7335149D01*
X11409697Y7366347D01*
X11415800Y7412704D01*
X11415800Y7827296D01*
X11409697Y7873653D01*
X11362258Y7975386D01*
X11362257Y7975387D01*
X11357845Y7981689D01*
X11359956Y7983168D01*
X11339334Y8027393D01*
X11339000Y8035054D01*
X11339000Y8492825D01*
X11337930Y8496818D01*
X11335291Y8506667D01*
X11340529Y8566564D01*
X11362050Y8592207D01*
X11360772Y8593485D01*
X11403923Y8636636D01*
X11448077Y8680790D01*
X11492474Y8776000D01*
X11497005Y8785716D01*
X11497005Y8785718D01*
X11497006Y8785719D01*
X11503300Y8833527D01*
X11503299Y9210472D01*
X11503299Y9210473D01*
X11503299Y9210476D01*
X11503298Y9210478D01*
X11502788Y9214350D01*
X11499223Y9241440D01*
X11497007Y9258277D01*
X11497004Y9258286D01*
X11469503Y9317262D01*
X11448077Y9363210D01*
X11376087Y9435200D01*
X11350676Y9489694D01*
X11366239Y9547772D01*
X11376088Y9559510D01*
X11447658Y9631081D01*
X11447661Y9631084D01*
X11496512Y9735846D01*
X11496515Y9735855D01*
X11502800Y9783588D01*
X11502800Y9883099D01*
X11502799Y9883100D01*
X9822202Y9883100D01*
X9822201Y9883099D01*
X9822201Y9783585D01*
X9828483Y9735855D01*
X9828485Y9735849D01*
X9877339Y9631083D01*
X9948912Y9559510D01*
X9957501Y9541091D01*
X9970138Y9525176D01*
X9969852Y9514604D01*
X9974323Y9505016D01*
X9969062Y9485387D01*
X9968514Y9465071D01*
X9960240Y9452465D01*
X9958760Y9446938D01*
X9952541Y9439055D01*
X9950772Y9437060D01*
X9876923Y9363210D01*
X9867592Y9343201D01*
X9859111Y9333630D01*
X9843238Y9325030D01*
X9830472Y9312264D01*
X9807115Y9305457D01*
X9806246Y9304985D01*
X9805806Y9305075D01*
X9804806Y9304783D01*
X9801747Y9304381D01*
X9685185Y9273149D01*
X9580674Y9212810D01*
X9495348Y9127484D01*
X9435009Y9022973D01*
X9404073Y8907515D01*
X9404072Y8907513D01*
X9403779Y8906415D01*
X9403779Y8785743D01*
X9403787Y8785715D01*
X9435009Y8669186D01*
X9435010Y8669183D01*
X9435011Y8669182D01*
X9495347Y8564676D01*
X9580676Y8479347D01*
X9685182Y8419011D01*
X9750457Y8401522D01*
X9758159Y8397132D01*
X9763974Y8396687D01*
X9787496Y8380410D01*
X9789173Y8379454D01*
X9789539Y8379096D01*
X9898911Y8269724D01*
X9904871Y8266283D01*
X9912790Y8258537D01*
X9921290Y8240821D01*
X9933921Y8225771D01*
X9933922Y8214496D01*
X9938801Y8204327D01*
X9933925Y8185292D01*
X9933927Y8165644D01*
X9926679Y8157005D01*
X9923881Y8146081D01*
X9907911Y8134635D01*
X9895282Y8119580D01*
X9881910Y8115997D01*
X9875011Y8111051D01*
X9866018Y8111738D01*
X9851325Y8107800D01*
X9820256Y8107800D01*
X9773974Y8101707D01*
X9672406Y8054344D01*
X9672404Y8054343D01*
X9593157Y7975096D01*
X9593156Y7975094D01*
X9545793Y7873526D01*
X9539700Y7827244D01*
X9539700Y7708901D01*
X9539701Y7708900D01*
X9909600Y7708900D01*
X9931057Y7701091D01*
X9953550Y7697124D01*
X9958648Y7691048D01*
X9966101Y7688335D01*
X9977519Y7668559D01*
X9992199Y7651064D01*
X9994212Y7639647D01*
X9996165Y7636264D01*
X9997500Y7621000D01*
X9997500Y7620000D01*
X9998500Y7620000D01*
X10055001Y7599435D01*
X10085065Y7547364D01*
X10086400Y7532100D01*
X10086400Y7132201D01*
X10086401Y7132200D01*
X10174744Y7132200D01*
X10221025Y7138294D01*
X10322593Y7185657D01*
X10322595Y7185658D01*
X10401841Y7264904D01*
X10405182Y7269675D01*
X10408907Y7272285D01*
X10410513Y7276541D01*
X10433157Y7289268D01*
X10454432Y7304167D01*
X10458963Y7303771D01*
X10462930Y7306000D01*
X10488457Y7301194D01*
X10514331Y7298932D01*
X10518769Y7295486D01*
X10522018Y7294874D01*
X10534708Y7283110D01*
X10545175Y7274982D01*
X10551514Y7267248D01*
X10552742Y7264614D01*
X10557897Y7259459D01*
X10560654Y7256095D01*
X10569254Y7231587D01*
X10580235Y7208038D01*
X10579058Y7203647D01*
X10580563Y7199359D01*
X10571395Y7175050D01*
X10564672Y7149960D01*
X10559696Y7144030D01*
X10559346Y7143100D01*
X10558533Y7142644D01*
X10554829Y7138229D01*
X10496823Y7080222D01*
X10438859Y7022258D01*
X10400339Y6955539D01*
X10395325Y6936827D01*
X10395320Y6936806D01*
X10394864Y6935103D01*
X10380400Y6881122D01*
X10380400Y6870442D01*
X10378259Y6860918D01*
X10366980Y6843332D01*
X10359835Y6823699D01*
X10351189Y6818708D01*
X10345801Y6810305D01*
X10325860Y6804084D01*
X10307764Y6793635D01*
X10292500Y6792300D01*
X10005436Y6792300D01*
X10005434Y6792299D01*
X9944939Y6780267D01*
X9944445Y6782750D01*
X9901179Y6780867D01*
X9901060Y6780266D01*
X9898605Y6780755D01*
X9896556Y6780665D01*
X9893545Y6781761D01*
X9879911Y6784473D01*
X9840561Y6792300D01*
X9840559Y6792300D01*
X9505436Y6792300D01*
X9505434Y6792299D01*
X9444939Y6780267D01*
X9444546Y6782242D01*
X9403729Y6778731D01*
X9394184Y6780876D01*
X9392569Y6781955D01*
X9364781Y6787483D01*
X9363719Y6787721D01*
X9339276Y6803391D01*
X9314436Y6818465D01*
X9314066Y6819553D01*
X9313101Y6820172D01*
X9304449Y6847887D01*
X9295110Y6875402D01*
X9295464Y6876670D01*
X9295184Y6877568D01*
X9296794Y6881427D01*
X9306867Y6917435D01*
X9317068Y6935103D01*
X9348300Y7051664D01*
X9348300Y7172336D01*
X9324790Y7260079D01*
X9317069Y7288894D01*
X9317068Y7288895D01*
X9317068Y7288897D01*
X9256732Y7393403D01*
X9171403Y7478732D01*
X9080700Y7531099D01*
X9539700Y7531099D01*
X9539700Y7412757D01*
X9545793Y7366475D01*
X9593156Y7264907D01*
X9593157Y7264905D01*
X9672404Y7185658D01*
X9672406Y7185657D01*
X9773975Y7138294D01*
X9773974Y7138294D01*
X9820256Y7132200D01*
X9908599Y7132200D01*
X9908600Y7132201D01*
X9908600Y7531100D01*
X9539701Y7531100D01*
X9539700Y7531099D01*
X9080700Y7531099D01*
X9066897Y7539068D01*
X9066896Y7539069D01*
X9066893Y7539070D01*
X8950336Y7570300D01*
X8829664Y7570300D01*
X8713106Y7539070D01*
X8608595Y7478731D01*
X8523269Y7393405D01*
X8462930Y7288894D01*
X8431700Y7172336D01*
X8431700Y7051665D01*
X8462931Y6935105D01*
X8481283Y6903319D01*
X8491724Y6844105D01*
X8467315Y6797215D01*
X8461900Y6791800D01*
X8461900Y6071900D01*
X8454090Y6050443D01*
X8450124Y6027950D01*
X8444047Y6022852D01*
X8441335Y6015399D01*
X8421558Y6003981D01*
X8404064Y5989301D01*
X8392646Y5987288D01*
X8389264Y5985335D01*
X8374000Y5984000D01*
X8372000Y5984000D01*
X8315499Y6004565D01*
X8285435Y6056636D01*
X8284100Y6071900D01*
X8284100Y6791799D01*
X8284099Y6791800D01*
X8161901Y6791800D01*
X8161900Y6791799D01*
X8161900Y6051900D01*
X8154090Y6030443D01*
X8150124Y6007950D01*
X8144047Y6002852D01*
X8141335Y5995399D01*
X8121558Y5983981D01*
X8104064Y5969301D01*
X8092646Y5967288D01*
X8089264Y5965335D01*
X8074000Y5964000D01*
X8072000Y5964000D01*
X8015499Y5984565D01*
X7985435Y6036636D01*
X7984100Y6051900D01*
X7984100Y6791800D01*
X7905486Y6791800D01*
X7905484Y6791799D01*
X7853628Y6781486D01*
X7853624Y6781484D01*
X7794817Y6742189D01*
X7794811Y6742183D01*
X7755516Y6683376D01*
X7745200Y6631513D01*
X7745200Y6260983D01*
X7724635Y6204482D01*
X7672564Y6174418D01*
X7613350Y6184859D01*
X7595145Y6198828D01*
X7593815Y6200158D01*
X7466427Y6285276D01*
X7324876Y6343908D01*
X7324873Y6343909D01*
X7186900Y6371355D01*
X7186900Y5986290D01*
X7150661Y5996000D01*
X7045339Y5996000D01*
X7009100Y5986290D01*
X7009100Y6371355D01*
X6871126Y6343909D01*
X6871123Y6343908D01*
X6729572Y6285276D01*
X6602184Y6200158D01*
X6493842Y6091816D01*
X6408724Y5964428D01*
X6350090Y5822873D01*
X6350088Y5822868D01*
X6320200Y5672606D01*
X6320200Y5639938D01*
X6299635Y5583437D01*
X6247564Y5553373D01*
X6188350Y5563814D01*
X6165828Y5584452D01*
X6165621Y5584244D01*
X6160869Y5588996D01*
X6160296Y5589521D01*
X6160183Y5589682D01*
X6082182Y5667683D01*
X6082180Y5667684D01*
X5982209Y5714302D01*
X5982211Y5714302D01*
X5936651Y5720300D01*
X5803901Y5720300D01*
X5803900Y5720299D01*
X5803900Y5361401D01*
X5803901Y5361400D01*
X6232300Y5361400D01*
X6253757Y5353591D01*
X6276250Y5349624D01*
X6281348Y5343548D01*
X6288801Y5340835D01*
X6300219Y5321059D01*
X6314899Y5303564D01*
X6316912Y5292147D01*
X6318865Y5288764D01*
X6319203Y5284900D01*
X6698000Y5284900D01*
X6698000Y5107100D01*
X6300700Y5107100D01*
X6279242Y5114910D01*
X6256750Y5118876D01*
X6251651Y5124953D01*
X6244199Y5127665D01*
X6232780Y5147442D01*
X6218101Y5164936D01*
X6216087Y5176354D01*
X6214135Y5179736D01*
X6213797Y5183600D01*
X5217202Y5183600D01*
X5217201Y5183599D01*
X5217201Y5100847D01*
X5223196Y5055298D01*
X5223199Y5055289D01*
X5269816Y4955320D01*
X5269817Y4955318D01*
X5347816Y4877319D01*
X5422610Y4842442D01*
X5465126Y4799925D01*
X5470367Y4740027D01*
X5435880Y4690774D01*
X5422611Y4683113D01*
X5347527Y4648100D01*
X5269400Y4569973D01*
X5222707Y4469841D01*
X5216700Y4424213D01*
X5216700Y4080787D01*
X5216701Y4080785D01*
X5222705Y4035166D01*
X5222707Y4035160D01*
X5268224Y3937549D01*
X5269401Y3935026D01*
X5347526Y3856901D01*
X5347527Y3856901D01*
X5347528Y3856900D01*
X5409748Y3827886D01*
X5452265Y3785370D01*
X5460500Y3748222D01*
X5460500Y3634376D01*
X5499243Y3540840D01*
X5499245Y3540837D01*
X5621231Y3418852D01*
X5621234Y3418848D01*
X5621235Y3418848D01*
X5626244Y3413839D01*
X5626245Y3413837D01*
X5697837Y3342245D01*
X5791377Y3303500D01*
X5791378Y3303500D01*
X9407892Y3303500D01*
X9407893Y3303500D01*
X9501433Y3342245D01*
X10395755Y4236567D01*
X10434501Y4330107D01*
X10434501Y4431353D01*
X10434501Y4438432D01*
X10434500Y4438446D01*
X10434500Y5047801D01*
X10455065Y5104302D01*
X10507136Y5134366D01*
X10522389Y5135701D01*
X10840560Y5135701D01*
X10840562Y5135701D01*
X10869447Y5141447D01*
X10892569Y5146045D01*
X10892569Y5146046D01*
X10901059Y5147734D01*
X10901799Y5144010D01*
X10946018Y5145974D01*
X10981805Y5124277D01*
X11165845Y4940237D01*
X11165844Y4940237D01*
X11209797Y4896285D01*
X11237437Y4868645D01*
X11330977Y4829900D01*
X11330978Y4829900D01*
X12120022Y4829900D01*
X12120023Y4829900D01*
X12213563Y4868645D01*
X12241204Y4896287D01*
X12280609Y4919037D01*
X12292939Y4922340D01*
X12292942Y4922342D01*
X12292944Y4922342D01*
X12350521Y4955585D01*
X12359661Y4960862D01*
X12414138Y5015339D01*
X12452660Y5082061D01*
X12452660Y5082065D01*
X12455540Y5087051D01*
X12456853Y5086293D01*
X12493011Y5125763D01*
X12533606Y5135701D01*
X12830600Y5135701D01*
X12887101Y5115136D01*
X12917165Y5063065D01*
X12918500Y5047801D01*
X12918500Y3794376D01*
X12957243Y3700840D01*
X12957244Y3700839D01*
X12957245Y3700837D01*
X13244244Y3413839D01*
X13244245Y3413837D01*
X13315837Y3342245D01*
X13409377Y3303500D01*
X13409378Y3303500D01*
X17068622Y3303500D01*
X17068623Y3303500D01*
X17162163Y3342245D01*
X17289161Y3469245D01*
X17289163Y3469245D01*
X17360755Y3540837D01*
X17399500Y3634377D01*
X17399500Y3748223D01*
X17420065Y3804724D01*
X17450248Y3827885D01*
X17512474Y3856901D01*
X17590599Y3935026D01*
X17637293Y4035161D01*
X17643300Y4080789D01*
X17643299Y4424210D01*
X17643299Y4424213D01*
X17643299Y4424214D01*
X17643298Y4424216D01*
X17642869Y4427472D01*
X17640255Y4447338D01*
X17637294Y4469835D01*
X17637292Y4469841D01*
X17590599Y4569974D01*
X17512474Y4648099D01*
X17512472Y4648100D01*
X17437388Y4683113D01*
X17394872Y4725630D01*
X17389632Y4785528D01*
X17424120Y4834781D01*
X17437389Y4842442D01*
X17512183Y4877319D01*
X17590182Y4955318D01*
X17590183Y4955320D01*
X17636801Y5055290D01*
X17642800Y5100850D01*
X17642800Y5183599D01*
X17642799Y5183600D01*
X16643052Y5183600D01*
X16626636Y5138499D01*
X16574565Y5108435D01*
X16559301Y5107100D01*
X16148000Y5107100D01*
X16148000Y5284900D01*
X16529949Y5284900D01*
X16546365Y5330001D01*
X16598436Y5360065D01*
X16613700Y5361400D01*
X17056099Y5361400D01*
X17056100Y5361401D01*
X17056100Y5720299D01*
X17233900Y5720299D01*
X17233900Y5361401D01*
X17233901Y5361400D01*
X17642798Y5361400D01*
X17642799Y5361401D01*
X17642799Y5444152D01*
X17642798Y5444154D01*
X17636803Y5489703D01*
X17636800Y5489712D01*
X17590183Y5589681D01*
X17590182Y5589683D01*
X17512182Y5667683D01*
X17512180Y5667684D01*
X17412209Y5714302D01*
X17412211Y5714302D01*
X17366651Y5720300D01*
X17233901Y5720300D01*
X17233900Y5720299D01*
X17056100Y5720299D01*
X17056100Y5720300D01*
X16923348Y5720300D01*
X16923346Y5720299D01*
X16877797Y5714304D01*
X16877788Y5714301D01*
X16777819Y5667684D01*
X16777817Y5667683D01*
X16699818Y5589684D01*
X16693364Y5575843D01*
X16650846Y5533328D01*
X16590948Y5528089D01*
X16541695Y5562577D01*
X16525800Y5612993D01*
X16525800Y5672606D01*
X16495911Y5822868D01*
X16495909Y5822873D01*
X16437275Y5964428D01*
X16352157Y6091816D01*
X16243815Y6200158D01*
X16116427Y6285276D01*
X15974876Y6343908D01*
X15974873Y6343909D01*
X15836900Y6371355D01*
X15836900Y5986290D01*
X15800661Y5996000D01*
X15695339Y5996000D01*
X15659100Y5986290D01*
X15659100Y6371355D01*
X15521126Y6343909D01*
X15521123Y6343908D01*
X15379572Y6285276D01*
X15252184Y6200158D01*
X15250854Y6198827D01*
X15250180Y6198513D01*
X15248845Y6197417D01*
X15248564Y6197760D01*
X15196360Y6173416D01*
X15138282Y6188979D01*
X15103794Y6238232D01*
X15100799Y6260982D01*
X15100799Y6631509D01*
X15090483Y6683376D01*
X15051188Y6742183D01*
X15051182Y6742189D01*
X14992375Y6781484D01*
X14940513Y6791800D01*
X14861901Y6791800D01*
X14861900Y6791799D01*
X14861900Y6051900D01*
X14854090Y6030443D01*
X14850124Y6007950D01*
X14844047Y6002852D01*
X14841335Y5995399D01*
X14821558Y5983981D01*
X14804064Y5969301D01*
X14792646Y5967288D01*
X14789264Y5965335D01*
X14774000Y5964000D01*
X14772000Y5964000D01*
X14715499Y5984565D01*
X14685435Y6036636D01*
X14684100Y6051900D01*
X14684100Y6791799D01*
X14684099Y6791800D01*
X14561901Y6791800D01*
X14561900Y6791799D01*
X14561900Y6071900D01*
X14554090Y6050443D01*
X14550124Y6027950D01*
X14544047Y6022852D01*
X14541335Y6015399D01*
X14521558Y6003981D01*
X14504064Y5989301D01*
X14492646Y5987288D01*
X14489264Y5985335D01*
X14474000Y5984000D01*
X14472000Y5984000D01*
X14415499Y6004565D01*
X14385435Y6056636D01*
X14384100Y6071900D01*
X14384100Y6791800D01*
X14349400Y6791800D01*
X14327942Y6799610D01*
X14305450Y6803576D01*
X14300351Y6809653D01*
X14292899Y6812365D01*
X14281480Y6832142D01*
X14266801Y6849636D01*
X14264787Y6861054D01*
X14262835Y6864436D01*
X14261500Y6879700D01*
X14261500Y7018067D01*
X14282065Y7074568D01*
X14287245Y7080222D01*
X14808842Y7601819D01*
X16654850Y7601819D01*
X16654850Y7481147D01*
X16660487Y7460109D01*
X16686080Y7364590D01*
X16686081Y7364587D01*
X16686082Y7364586D01*
X16746418Y7260080D01*
X16831747Y7174751D01*
X16936253Y7114415D01*
X16936255Y7114415D01*
X16936256Y7114414D01*
X17052814Y7083183D01*
X17173484Y7083183D01*
X17173486Y7083183D01*
X17256102Y7105320D01*
X17315998Y7100080D01*
X17358514Y7057564D01*
X17366750Y7020415D01*
X17366750Y6966126D01*
X17405493Y6872590D01*
X17405494Y6872589D01*
X17405495Y6872587D01*
X17549955Y6728127D01*
X17575366Y6673634D01*
X17575700Y6665973D01*
X17575700Y6543665D01*
X17606930Y6427107D01*
X17606931Y6427104D01*
X17606932Y6427103D01*
X17667268Y6322597D01*
X17752597Y6237268D01*
X17857103Y6176932D01*
X17857105Y6176932D01*
X17857106Y6176931D01*
X17973664Y6145700D01*
X18094335Y6145700D01*
X18094336Y6145700D01*
X18210897Y6176932D01*
X18315403Y6237268D01*
X18400732Y6322597D01*
X18461068Y6427103D01*
X18492300Y6543664D01*
X18492300Y6664336D01*
X18466233Y6761622D01*
X18461069Y6780894D01*
X18461068Y6780895D01*
X18461068Y6780897D01*
X18400732Y6885403D01*
X18315403Y6970732D01*
X18210897Y7031068D01*
X18210896Y7031069D01*
X18210893Y7031070D01*
X18094336Y7062300D01*
X17973664Y7062300D01*
X17972028Y7062300D01*
X17953995Y7068864D01*
X17934880Y7070536D01*
X17919159Y7081543D01*
X17915527Y7082865D01*
X17909873Y7088045D01*
X17901495Y7096423D01*
X17876084Y7150917D01*
X17875750Y7158578D01*
X17875750Y8366286D01*
X17896315Y8422787D01*
X17948386Y8452851D01*
X17980795Y8452498D01*
X18009939Y8446700D01*
X18745060Y8446701D01*
X18745063Y8446701D01*
X18745065Y8446702D01*
X18797065Y8457044D01*
X18797066Y8457044D01*
X18797066Y8457045D01*
X18797069Y8457045D01*
X18856047Y8496453D01*
X18895455Y8555431D01*
X18901625Y8586451D01*
X18932818Y8637853D01*
X18987836Y8657201D01*
X19278600Y8657201D01*
X19278600Y10392799D01*
X19278599Y10392800D01*
X18987835Y10392800D01*
X18931334Y10413365D01*
X18901623Y10463555D01*
X18895455Y10494569D01*
X18856286Y10553189D01*
X18856047Y10553547D01*
X18797069Y10592955D01*
X18745061Y10603300D01*
X18745059Y10603300D01*
X18719900Y10603300D01*
X18663399Y10623865D01*
X18633335Y10675936D01*
X18632000Y10691200D01*
X18632000Y11005851D01*
X18652565Y11062352D01*
X18669939Y11076931D01*
X18669564Y11077420D01*
X18674127Y11080922D01*
X18674131Y11080924D01*
X18764076Y11170869D01*
X18827678Y11281030D01*
X18860600Y11403899D01*
X18860600Y11531101D01*
X18827678Y11653970D01*
X18764076Y11764131D01*
X18674131Y11854076D01*
X18563970Y11917678D01*
X18563969Y11917679D01*
X18563968Y11917679D01*
X18441101Y11950600D01*
X18313899Y11950600D01*
X18191031Y11917679D01*
X18080871Y11854078D01*
X17990922Y11764129D01*
X17927321Y11653969D01*
X17904073Y11567202D01*
X17894400Y11531101D01*
X17894400Y11403899D01*
X17927322Y11281030D01*
X17937611Y11263209D01*
X17990923Y11170870D01*
X17990924Y11170869D01*
X18080865Y11080927D01*
X18085436Y11077420D01*
X18084210Y11075823D01*
X18117698Y11035918D01*
X18123000Y11005851D01*
X18123000Y10691200D01*
X18102435Y10634699D01*
X18050364Y10604635D01*
X18035103Y10603300D01*
X18009937Y10603300D01*
X18009934Y10603299D01*
X17957934Y10592957D01*
X17957933Y10592957D01*
X17898954Y10553548D01*
X17898952Y10553546D01*
X17862455Y10498924D01*
X17859545Y10494569D01*
X17851537Y10454307D01*
X17849200Y10442560D01*
X17849200Y10107437D01*
X17849201Y10107435D01*
X17861233Y10046939D01*
X17858993Y10046494D01*
X17860890Y10003027D01*
X17861705Y10002864D01*
X17861042Y9999535D01*
X17861114Y9997899D01*
X17860239Y9995497D01*
X17849700Y9942513D01*
X17849700Y9863901D01*
X17849701Y9863900D01*
X18289600Y9863900D01*
X18311057Y9856091D01*
X18333550Y9852124D01*
X18338648Y9846048D01*
X18346101Y9843335D01*
X18357519Y9823559D01*
X18372199Y9806064D01*
X18374212Y9794647D01*
X18376165Y9791264D01*
X18377500Y9776000D01*
X18377500Y9774000D01*
X18356935Y9717499D01*
X18304864Y9687435D01*
X18289600Y9686100D01*
X17849702Y9686100D01*
X17849701Y9686099D01*
X17849701Y9617400D01*
X17841891Y9595943D01*
X17837925Y9573450D01*
X17831848Y9568352D01*
X17829136Y9560899D01*
X17809359Y9549481D01*
X17791865Y9534801D01*
X17780447Y9532788D01*
X17777065Y9530835D01*
X17761801Y9529500D01*
X17749612Y9529500D01*
X17749604Y9529501D01*
X17739373Y9529501D01*
X17638127Y9529501D01*
X17544589Y9490757D01*
X17172287Y9118455D01*
X17172286Y9118456D01*
X17100696Y9046865D01*
X17100693Y9046861D01*
X17061950Y8953325D01*
X17061950Y8069680D01*
X17041385Y8013179D01*
X16996801Y7984775D01*
X16936255Y7968552D01*
X16831745Y7908214D01*
X16746419Y7822888D01*
X16686080Y7718377D01*
X16659653Y7619745D01*
X16654850Y7601819D01*
X14808842Y7601819D01*
X14876758Y7669735D01*
X15034321Y7827298D01*
X15227776Y8020753D01*
X15278002Y8107747D01*
X15282358Y8124007D01*
X15316843Y8173258D01*
X15374920Y8188823D01*
X15416096Y8174344D01*
X15465931Y8141045D01*
X15517939Y8130700D01*
X16625060Y8130701D01*
X16625063Y8130701D01*
X16625065Y8130702D01*
X16677065Y8141044D01*
X16677066Y8141044D01*
X16677066Y8141045D01*
X16677069Y8141045D01*
X16736047Y8180453D01*
X16775455Y8239431D01*
X16785800Y8291439D01*
X16785799Y8858560D01*
X16785799Y8858561D01*
X16785799Y8858564D01*
X16785798Y8858566D01*
X16775456Y8910566D01*
X16775456Y8910567D01*
X16754079Y8942560D01*
X16736047Y8969547D01*
X16724569Y8977217D01*
X16689017Y9025703D01*
X16692949Y9085702D01*
X16724570Y9123387D01*
X16735684Y9130814D01*
X16735688Y9130818D01*
X16774983Y9189625D01*
X16785300Y9241488D01*
X16785300Y9436099D01*
X16785299Y9436100D01*
X16159400Y9436100D01*
X16137942Y9443910D01*
X16115450Y9447876D01*
X16110351Y9453953D01*
X16102899Y9456665D01*
X16091480Y9476442D01*
X16076801Y9493936D01*
X16074787Y9505354D01*
X16072835Y9508736D01*
X16071500Y9524000D01*
X16071500Y9526000D01*
X16092065Y9582501D01*
X16144136Y9612565D01*
X16159400Y9613900D01*
X16785298Y9613900D01*
X16785299Y9613901D01*
X16785299Y9808509D01*
X16774983Y9860376D01*
X16735688Y9919183D01*
X16735681Y9919190D01*
X16724568Y9926616D01*
X16689016Y9975106D01*
X16692950Y10035104D01*
X16724572Y10072786D01*
X16736047Y10080453D01*
X16775455Y10139431D01*
X16785800Y10191439D01*
X16785799Y10758560D01*
X16785799Y10758561D01*
X16785799Y10758564D01*
X16785798Y10758566D01*
X16775456Y10810566D01*
X16775456Y10810567D01*
X16771793Y10816049D01*
X16736047Y10869547D01*
X16677069Y10908955D01*
X16625061Y10919300D01*
X16625059Y10919300D01*
X15517936Y10919300D01*
X15517934Y10919299D01*
X15465934Y10908957D01*
X15465933Y10908957D01*
X15407599Y10869979D01*
X15382527Y10863845D01*
X15358228Y10855168D01*
X15353791Y10856814D01*
X15349195Y10855689D01*
X15326054Y10867101D01*
X15301853Y10876077D01*
X15298489Y10880695D01*
X15295269Y10882283D01*
X15282374Y10899582D01*
X15278554Y10906293D01*
X15278002Y10908353D01*
X15234096Y10984400D01*
X15227776Y10995347D01*
X15156747Y11066376D01*
X15156745Y11066378D01*
X14812247Y11410876D01*
X14754451Y11444244D01*
X14725254Y11461101D01*
X14725253Y11461102D01*
X14721916Y11463028D01*
X14683267Y11509088D01*
X14683267Y11569216D01*
X14716036Y11608268D01*
X14721916Y11615276D01*
X14728698Y11618807D01*
X14729974Y11619401D01*
X14808099Y11697526D01*
X14843112Y11772611D01*
X14885628Y11815128D01*
X14945526Y11820368D01*
X14994780Y11785880D01*
X15002440Y11772611D01*
X15037316Y11697820D01*
X15037317Y11697818D01*
X15115317Y11619818D01*
X15115319Y11619817D01*
X15215290Y11573199D01*
X15215289Y11573199D01*
X15260849Y11567201D01*
X15343600Y11567201D01*
X15343600Y11976099D01*
X15521400Y11976099D01*
X15521400Y11567202D01*
X15521401Y11567201D01*
X15604152Y11567201D01*
X15604153Y11567202D01*
X15649702Y11573197D01*
X15649711Y11573200D01*
X15749680Y11619817D01*
X15749682Y11619818D01*
X15827682Y11697818D01*
X15827683Y11697820D01*
X15874301Y11797790D01*
X15880300Y11843350D01*
X15880300Y11976099D01*
X15880299Y11976100D01*
X15521401Y11976100D01*
X15521400Y11976099D01*
X15343600Y11976099D01*
X15343600Y12562799D01*
X15521400Y12562799D01*
X15521400Y12153901D01*
X15521401Y12153900D01*
X15880298Y12153900D01*
X15880299Y12153901D01*
X15880299Y12286652D01*
X15880298Y12286654D01*
X15874303Y12332203D01*
X15874300Y12332212D01*
X15827683Y12432181D01*
X15827682Y12432183D01*
X15749682Y12510183D01*
X15749680Y12510184D01*
X15649709Y12556802D01*
X15649711Y12556802D01*
X15604151Y12562800D01*
X15521401Y12562800D01*
X15521400Y12562799D01*
X15343600Y12562799D01*
X15343600Y12562800D01*
X15260848Y12562800D01*
X15260846Y12562799D01*
X15215297Y12556804D01*
X15215288Y12556801D01*
X15115319Y12510184D01*
X15115317Y12510183D01*
X15037317Y12432183D01*
X15002440Y12357389D01*
X14959924Y12314873D01*
X14900025Y12309633D01*
X14850772Y12344121D01*
X14843112Y12357389D01*
X14838119Y12368095D01*
X14808099Y12432474D01*
X14729974Y12510599D01*
X14729972Y12510600D01*
X14629840Y12557293D01*
X14584213Y12563300D01*
X14584211Y12563300D01*
X14310528Y12563300D01*
X14254027Y12583865D01*
X14248373Y12589045D01*
X13902645Y12934773D01*
X13894534Y12952165D01*
X13882201Y12966864D01*
X13878869Y12985761D01*
X13877234Y12989267D01*
X13876900Y12996928D01*
X13876900Y13088801D01*
X13897465Y13145302D01*
X13949536Y13175366D01*
X13964800Y13176701D01*
X14190064Y13176701D01*
X14190065Y13176702D01*
X14242065Y13187044D01*
X14242066Y13187044D01*
X14242066Y13187045D01*
X14242069Y13187045D01*
X14301047Y13226453D01*
X14340455Y13285431D01*
X14350800Y13337439D01*
X14350799Y13972560D01*
X15494200Y13972560D01*
X15494200Y13337437D01*
X15494201Y13337435D01*
X15504543Y13285435D01*
X15504543Y13285434D01*
X15504544Y13285432D01*
X15504545Y13285431D01*
X15543953Y13226453D01*
X15602931Y13187045D01*
X15654939Y13176700D01*
X16790060Y13176701D01*
X16790063Y13176701D01*
X16790065Y13176702D01*
X16842065Y13187044D01*
X16842066Y13187044D01*
X16842066Y13187045D01*
X16842069Y13187045D01*
X16901047Y13226453D01*
X16940455Y13285431D01*
X16950800Y13337439D01*
X16950799Y13972560D01*
X16950799Y13972561D01*
X16950799Y13972564D01*
X16950798Y13972566D01*
X16940456Y14024566D01*
X16940456Y14024568D01*
X16932751Y14036099D01*
X17927200Y14036099D01*
X17927200Y13947757D01*
X17933293Y13901475D01*
X17980656Y13799907D01*
X17980657Y13799905D01*
X18059904Y13720658D01*
X18059906Y13720657D01*
X18161475Y13673294D01*
X18161474Y13673294D01*
X18207756Y13667200D01*
X18326099Y13667200D01*
X18326100Y13667201D01*
X18326100Y14036100D01*
X17927201Y14036100D01*
X17927200Y14036099D01*
X16932751Y14036099D01*
X16919018Y14056652D01*
X16902336Y14081617D01*
X16888045Y14140020D01*
X16902338Y14179287D01*
X16939983Y14235625D01*
X16950300Y14287488D01*
X16950300Y14516099D01*
X16950299Y14516100D01*
X15494702Y14516100D01*
X15494701Y14516099D01*
X15494701Y14287492D01*
X15505015Y14235627D01*
X15542662Y14179287D01*
X15556954Y14120883D01*
X15542663Y14081617D01*
X15504544Y14024569D01*
X15494200Y13972560D01*
X14350799Y13972560D01*
X14350799Y13972561D01*
X14350799Y13972564D01*
X14350798Y13972566D01*
X14340456Y14024566D01*
X14340456Y14024567D01*
X14340118Y14025073D01*
X14301047Y14083547D01*
X14242069Y14122955D01*
X14190061Y14133300D01*
X14190059Y14133300D01*
X13054936Y14133300D01*
X13054934Y14133299D01*
X13002934Y14122957D01*
X13002933Y14122957D01*
X12943954Y14083548D01*
X12943952Y14083546D01*
X12924986Y14055161D01*
X12876496Y14019607D01*
X12816498Y14023540D01*
X12773064Y14065120D01*
X12764000Y14103996D01*
X12764000Y15045568D01*
X12770563Y15063600D01*
X12772235Y15082715D01*
X12783242Y15098436D01*
X12784565Y15102069D01*
X12789744Y15107721D01*
X12814058Y15132036D01*
X12868551Y15157448D01*
X12926630Y15141888D01*
X12938369Y15132038D01*
X12943950Y15126457D01*
X12943953Y15126453D01*
X13002931Y15087045D01*
X13054939Y15076700D01*
X14190060Y15076701D01*
X14190063Y15076701D01*
X14190065Y15076702D01*
X14242065Y15087044D01*
X14242066Y15087044D01*
X14242066Y15087045D01*
X14242069Y15087045D01*
X14301047Y15126453D01*
X14340455Y15185431D01*
X14350800Y15237439D01*
X14350799Y15872560D01*
X14350799Y15872564D01*
X14350798Y15872566D01*
X14340456Y15924566D01*
X14340456Y15924567D01*
X14330136Y15940012D01*
X14301047Y15983547D01*
X14242069Y16022955D01*
X14190061Y16033300D01*
X14190059Y16033300D01*
X13054936Y16033300D01*
X13054934Y16033299D01*
X13002934Y16022957D01*
X13002933Y16022957D01*
X12943954Y15983548D01*
X12943952Y15983546D01*
X12938620Y15975565D01*
X12890131Y15940012D01*
X12865534Y15936500D01*
X12647275Y15936500D01*
X12550249Y15910503D01*
X12463251Y15860275D01*
X12077224Y15474248D01*
X12067320Y15457093D01*
X12021260Y15418445D01*
X11961133Y15418445D01*
X11915073Y15457095D01*
X11911533Y15463896D01*
X11864343Y15565095D01*
X11785095Y15644343D01*
X11785093Y15644344D01*
X11683524Y15691707D01*
X11683525Y15691707D01*
X11637244Y15697800D01*
X11518901Y15697800D01*
X11518900Y15697799D01*
X11518900Y15327900D01*
X11511090Y15306443D01*
X11507124Y15283950D01*
X11501047Y15278852D01*
X11498335Y15271399D01*
X11478558Y15259981D01*
X11461064Y15245301D01*
X11449646Y15243288D01*
X11446264Y15241335D01*
X11431000Y15240000D01*
X11430000Y15240000D01*
X11430000Y15239000D01*
X11409435Y15182499D01*
X11357364Y15152435D01*
X11342100Y15151100D01*
X10942201Y15151100D01*
X10942200Y15151099D01*
X10942200Y15062757D01*
X10948293Y15016475D01*
X10995656Y14914907D01*
X10995657Y14914905D01*
X11074904Y14835658D01*
X11079677Y14832316D01*
X11114167Y14783064D01*
X11108929Y14723166D01*
X11079682Y14688308D01*
X11074617Y14684762D01*
X10995242Y14605387D01*
X10947803Y14503655D01*
X10941700Y14457298D01*
X10941700Y14102703D01*
X10947803Y14056346D01*
X10963101Y14023540D01*
X10995242Y13954614D01*
X11074614Y13875242D01*
X11176347Y13827803D01*
X11210496Y13823308D01*
X11222702Y13821700D01*
X11222704Y13821700D01*
X11637298Y13821700D01*
X11650540Y13823444D01*
X11683653Y13827803D01*
X11749163Y13858352D01*
X11763296Y13859941D01*
X11774336Y13865768D01*
X11800531Y13864127D01*
X11804841Y13864611D01*
X11806968Y13864153D01*
X11887775Y13842500D01*
X11907364Y13842500D01*
X11916526Y13840524D01*
X11934519Y13829206D01*
X11954496Y13821935D01*
X11960124Y13813101D01*
X11967422Y13808510D01*
X11971881Y13794647D01*
X11982900Y13777350D01*
X11998005Y13720978D01*
X12001000Y13698228D01*
X12001000Y12967276D01*
X12026998Y12870248D01*
X12064971Y12804475D01*
X12066548Y12801745D01*
X12068708Y12798004D01*
X12077224Y12783253D01*
X13791122Y11069355D01*
X13816533Y11014861D01*
X13800970Y10956783D01*
X13751717Y10922295D01*
X13728967Y10919300D01*
X13219936Y10919300D01*
X13219934Y10919299D01*
X13167934Y10908957D01*
X13167933Y10908957D01*
X13108954Y10869548D01*
X13108952Y10869546D01*
X13105143Y10863845D01*
X13069545Y10810569D01*
X13069544Y10810568D01*
X13066937Y10806665D01*
X13018448Y10771112D01*
X12993851Y10767600D01*
X12513207Y10767600D01*
X12456706Y10788165D01*
X12426642Y10840236D01*
X12437083Y10899449D01*
X12468422Y10953731D01*
X12492068Y10994687D01*
X12523300Y11111248D01*
X12523300Y11231920D01*
X12514916Y11263211D01*
X12492069Y11348478D01*
X12492068Y11348479D01*
X12492068Y11348481D01*
X12431732Y11452987D01*
X12346403Y11538316D01*
X12241897Y11598652D01*
X12241896Y11598653D01*
X12241893Y11598654D01*
X12125336Y11629884D01*
X12004664Y11629884D01*
X11888106Y11598654D01*
X11783595Y11538315D01*
X11698269Y11452989D01*
X11637930Y11348478D01*
X11616644Y11269034D01*
X11582156Y11219780D01*
X11524078Y11204218D01*
X11469584Y11229629D01*
X11452075Y11254635D01*
X11448077Y11263210D01*
X11366210Y11345077D01*
X11358910Y11348481D01*
X11261283Y11394006D01*
X11261284Y11394006D01*
X11213475Y11400300D01*
X11213473Y11400300D01*
X11004900Y11400300D01*
X10948399Y11420865D01*
X10918335Y11472936D01*
X10917324Y11484492D01*
X10917000Y11486120D01*
X10917000Y11486123D01*
X10883417Y11567201D01*
X10878256Y11579661D01*
X10878255Y11579662D01*
X10878255Y11579663D01*
X10806663Y11651255D01*
X10806661Y11651256D01*
X10366544Y12091373D01*
X10341133Y12145867D01*
X10340799Y12153528D01*
X10340799Y12361714D01*
X10340798Y12361716D01*
X10334794Y12407335D01*
X10334792Y12407341D01*
X10323072Y12432474D01*
X10288099Y12507474D01*
X10209974Y12585599D01*
X10135481Y12620336D01*
X10092965Y12662852D01*
X10087725Y12722751D01*
X10122213Y12772004D01*
X10135481Y12779664D01*
X10144799Y12784010D01*
X10209974Y12814401D01*
X10288099Y12892526D01*
X10334793Y12992661D01*
X10340800Y13038289D01*
X10340799Y13381710D01*
X10340799Y13381711D01*
X10340799Y13381714D01*
X10340798Y13381716D01*
X10340555Y13383559D01*
X10337953Y13403335D01*
X10334794Y13427335D01*
X10334792Y13427341D01*
X10288099Y13527474D01*
X10262756Y13552817D01*
X10237346Y13607309D01*
X10252909Y13665387D01*
X10262746Y13677112D01*
X10274232Y13688597D01*
X10334568Y13793103D01*
X10365800Y13909664D01*
X10365800Y14030336D01*
X10358831Y14056346D01*
X10334569Y14146894D01*
X10334568Y14146895D01*
X10334568Y14146897D01*
X10274232Y14251403D01*
X10188903Y14336732D01*
X10084397Y14397068D01*
X10084396Y14397069D01*
X10084393Y14397070D01*
X9967836Y14428300D01*
X9847164Y14428300D01*
X9730606Y14397070D01*
X9626095Y14336731D01*
X9540769Y14251405D01*
X9480430Y14146894D01*
X9449200Y14030336D01*
X9449200Y13909665D01*
X9480431Y13793105D01*
X9516615Y13730431D01*
X9527055Y13671217D01*
X9496991Y13619146D01*
X9477642Y13606819D01*
X9475027Y13605600D01*
X9396900Y13527473D01*
X9350206Y13427339D01*
X9348326Y13420886D01*
X9344945Y13421872D01*
X9322911Y13380153D01*
X9267224Y13357475D01*
X9209989Y13375898D01*
X9201767Y13383151D01*
X9034163Y13550755D01*
X9034161Y13550756D01*
X9034160Y13550757D01*
X8940621Y13589501D01*
X8934881Y13590643D01*
X8883479Y13621837D01*
X8872369Y13639705D01*
X8843100Y13702472D01*
X8843099Y13702473D01*
X8843099Y13702474D01*
X8764974Y13780599D01*
X8742299Y13791173D01*
X8699784Y13833688D01*
X8698251Y13837174D01*
X8663255Y13921663D01*
X8591663Y13993255D01*
X8591661Y13993256D01*
X8399163Y14185755D01*
X8399161Y14185756D01*
X8399160Y14185757D01*
X8305624Y14224500D01*
X8305623Y14224500D01*
X3352623Y14224500D01*
X3251376Y14224500D01*
X3230645Y14215913D01*
X3157837Y14185756D01*
X3157835Y14185754D01*
X3086244Y14114164D01*
X3086245Y14114163D01*
X2714327Y13742245D01*
X2659833Y13716834D01*
X2652172Y13716500D01*
X2462045Y13716500D01*
X2405544Y13737065D01*
X2399890Y13742245D01*
X2313404Y13828731D01*
X2313403Y13828732D01*
X2208897Y13889068D01*
X2208896Y13889069D01*
X2208893Y13889070D01*
X2092336Y13920300D01*
X1971664Y13920300D01*
X1855106Y13889070D01*
X1750595Y13828731D01*
X1665269Y13743405D01*
X1604930Y13638894D01*
X1573700Y13522336D01*
X-3301500Y13522336D01*
X-3301500Y14110583D01*
X-3280935Y14167084D01*
X-3228864Y14197148D01*
X-3169650Y14186707D01*
X-3152036Y14170208D01*
X-3150668Y14171575D01*
X-3144550Y14165457D01*
X-3144547Y14165453D01*
X-3085569Y14126045D01*
X-3033561Y14115700D01*
X1001560Y14115701D01*
X1001563Y14115701D01*
X1001565Y14115702D01*
X1053565Y14126044D01*
X1053566Y14126044D01*
X1053566Y14126045D01*
X1053569Y14126045D01*
X1112547Y14165453D01*
X1151955Y14224431D01*
X1162300Y14276439D01*
X1162299Y15417244D01*
X10942200Y15417244D01*
X10942200Y15328901D01*
X10942201Y15328900D01*
X11341100Y15328900D01*
X11341100Y15697799D01*
X11341099Y15697800D01*
X11222756Y15697800D01*
X11176474Y15691707D01*
X11074906Y15644344D01*
X11074904Y15644343D01*
X10995657Y15565096D01*
X10995656Y15565094D01*
X10948293Y15463526D01*
X10942200Y15417244D01*
X1162299Y15417244D01*
X1162299Y15811560D01*
X1162299Y15811561D01*
X1162299Y15811564D01*
X1162298Y15811566D01*
X1151956Y15863566D01*
X1151956Y15863567D01*
X1145947Y15872560D01*
X1112547Y15922547D01*
X1053569Y15961955D01*
X1001561Y15972300D01*
X1001559Y15972300D01*
X-3033564Y15972300D01*
X-3033566Y15972299D01*
X-3085566Y15961957D01*
X-3085567Y15961957D01*
X-3144546Y15922548D01*
X-3150668Y15916425D01*
X-3153384Y15919141D01*
X-3189032Y15893021D01*
X-3249029Y15896974D01*
X-3292448Y15938568D01*
X-3301500Y15977418D01*
X-3301500Y17961560D01*
X3105700Y17961560D01*
X3105700Y16926437D01*
X3105701Y16926435D01*
X3116043Y16874435D01*
X3116043Y16874434D01*
X3116044Y16874432D01*
X3116045Y16874431D01*
X3155453Y16815453D01*
X3214431Y16776045D01*
X3266439Y16765700D01*
X6501560Y16765701D01*
X6501563Y16765701D01*
X6501565Y16765702D01*
X6553565Y16776044D01*
X6553566Y16776044D01*
X6553566Y16776045D01*
X6553569Y16776045D01*
X6612547Y16815453D01*
X6651955Y16874431D01*
X6662300Y16926439D01*
X6662300Y16974600D01*
X6682865Y17031101D01*
X6734936Y17061165D01*
X6750200Y17062500D01*
X14139167Y17062500D01*
X14195668Y17041935D01*
X14201322Y17036755D01*
X15468455Y15769623D01*
X15493866Y15715129D01*
X15494200Y15707468D01*
X15494200Y15237437D01*
X15494201Y15237435D01*
X15504543Y15185435D01*
X15504543Y15185433D01*
X15542662Y15128385D01*
X15556954Y15069980D01*
X15542662Y15030715D01*
X15505016Y14974375D01*
X15494700Y14922513D01*
X15494700Y14693901D01*
X15494701Y14693900D01*
X16950298Y14693900D01*
X16950299Y14693901D01*
X16950299Y14922509D01*
X16939983Y14974376D01*
X16902338Y15030714D01*
X16900913Y15036535D01*
X16896586Y15040678D01*
X16893904Y15065177D01*
X16888045Y15089118D01*
X16890534Y15095958D01*
X16890043Y15100448D01*
X16902338Y15128387D01*
X16906383Y15134440D01*
X16954874Y15169990D01*
X16979466Y15173500D01*
X17750568Y15173500D01*
X17807069Y15152935D01*
X17812722Y15147755D01*
X17900954Y15059524D01*
X17926365Y15005030D01*
X17926700Y14997369D01*
X17926700Y14907703D01*
X17932803Y14861346D01*
X17980242Y14759614D01*
X18059615Y14680241D01*
X18064678Y14676696D01*
X18099167Y14627444D01*
X18093929Y14567545D01*
X18064681Y14532688D01*
X18059907Y14529346D01*
X17980657Y14450096D01*
X17980656Y14450094D01*
X17933293Y14348526D01*
X17927200Y14302244D01*
X17927200Y14213901D01*
X17927201Y14213900D01*
X18327100Y14213900D01*
X18348557Y14206091D01*
X18371050Y14202124D01*
X18376148Y14196048D01*
X18383601Y14193335D01*
X18395019Y14173559D01*
X18409699Y14156064D01*
X18411712Y14144647D01*
X18413665Y14141264D01*
X18415000Y14126000D01*
X18415000Y14125000D01*
X18416000Y14125000D01*
X18472501Y14104435D01*
X18502565Y14052364D01*
X18503900Y14037100D01*
X18503900Y13667201D01*
X18503901Y13667200D01*
X18622244Y13667200D01*
X18668525Y13673294D01*
X18770093Y13720657D01*
X18770095Y13720658D01*
X18849342Y13799905D01*
X18849343Y13799907D01*
X18896706Y13901475D01*
X18902800Y13947757D01*
X18902800Y14025073D01*
X18923365Y14081574D01*
X18975436Y14111638D01*
X19034650Y14101197D01*
X19052851Y14087231D01*
X19932582Y13207501D01*
X21309755Y11830328D01*
X21335166Y11775834D01*
X21335500Y11768173D01*
X21335500Y10512801D01*
X21314935Y10456300D01*
X21284749Y10433137D01*
X21234614Y10409759D01*
X21234612Y10409757D01*
X21155244Y10330390D01*
X21155242Y10330387D01*
X21107803Y10228655D01*
X21101700Y10182298D01*
X21101700Y10117400D01*
X21093890Y10095943D01*
X21089924Y10073450D01*
X21083847Y10068352D01*
X21081135Y10060899D01*
X21061358Y10049481D01*
X21043864Y10034801D01*
X21032446Y10032788D01*
X21029064Y10030835D01*
X21013800Y10029500D01*
X20973200Y10029500D01*
X20916699Y10050065D01*
X20886635Y10102136D01*
X20885300Y10117400D01*
X20885300Y10186099D01*
X20885299Y10186100D01*
X20445400Y10186100D01*
X20423942Y10193910D01*
X20401450Y10197876D01*
X20396351Y10203953D01*
X20388899Y10206665D01*
X20377480Y10226442D01*
X20362801Y10243936D01*
X20360787Y10255354D01*
X20358835Y10258736D01*
X20357500Y10274000D01*
X20357500Y10275000D01*
X20356500Y10275000D01*
X20299999Y10295565D01*
X20269935Y10347636D01*
X20268600Y10362900D01*
X20268600Y10602799D01*
X20446400Y10602799D01*
X20446400Y10363900D01*
X20885298Y10363900D01*
X20885299Y10363901D01*
X20885299Y10442509D01*
X20874983Y10494376D01*
X20835688Y10553183D01*
X20835682Y10553189D01*
X20776875Y10592484D01*
X20725013Y10602800D01*
X20446401Y10602800D01*
X20446400Y10602799D01*
X20268600Y10602799D01*
X20268599Y10602800D01*
X19989986Y10602800D01*
X19989984Y10602799D01*
X19938128Y10592486D01*
X19938124Y10592484D01*
X19879317Y10553189D01*
X19879311Y10553183D01*
X19840016Y10494375D01*
X19833885Y10463552D01*
X19802693Y10412148D01*
X19747674Y10392800D01*
X19456401Y10392800D01*
X19456400Y10392799D01*
X19456400Y8657202D01*
X19456401Y8657201D01*
X19747674Y8657201D01*
X19804175Y8636636D01*
X19833885Y8586448D01*
X19840014Y8555629D01*
X19840016Y8555625D01*
X19879311Y8496818D01*
X19879317Y8496812D01*
X19938124Y8457517D01*
X19989986Y8447201D01*
X20268600Y8447201D01*
X20268600Y8447202D01*
X20446400Y8447202D01*
X20446401Y8447201D01*
X20725009Y8447201D01*
X20776875Y8457517D01*
X20835682Y8496812D01*
X20835688Y8496818D01*
X20874983Y8555625D01*
X20885300Y8607488D01*
X20885300Y8686099D01*
X20885299Y8686100D01*
X20446400Y8686100D01*
X20446400Y8447202D01*
X20268600Y8447202D01*
X20268600Y8687100D01*
X20276409Y8708558D01*
X20280376Y8731050D01*
X20286452Y8736149D01*
X20289165Y8743601D01*
X20308941Y8755020D01*
X20326436Y8769699D01*
X20337853Y8771713D01*
X20341236Y8773665D01*
X20356500Y8775000D01*
X20357500Y8775000D01*
X20357500Y8776000D01*
X20378065Y8832501D01*
X20430136Y8862565D01*
X20445400Y8863900D01*
X20885298Y8863900D01*
X20885299Y8863901D01*
X20885299Y8867757D01*
X21102200Y8867757D01*
X21108293Y8821475D01*
X21155656Y8719907D01*
X21155657Y8719905D01*
X21234904Y8640658D01*
X21234906Y8640657D01*
X21336475Y8593294D01*
X21336474Y8593294D01*
X21382756Y8587200D01*
X21501099Y8587200D01*
X21501100Y8587201D01*
X21501100Y8956099D01*
X21678900Y8956099D01*
X21678900Y8587201D01*
X21678901Y8587200D01*
X21797244Y8587200D01*
X21843525Y8593294D01*
X21945093Y8640657D01*
X21945095Y8640658D01*
X22024342Y8719905D01*
X22024343Y8719907D01*
X22071706Y8821475D01*
X22077800Y8867757D01*
X22077800Y8956099D01*
X22077799Y8956100D01*
X21678901Y8956100D01*
X21678900Y8956099D01*
X21501100Y8956099D01*
X21501099Y8956100D01*
X21116978Y8956100D01*
X21102200Y8961479D01*
X21102200Y8867757D01*
X20885299Y8867757D01*
X20885299Y8946828D01*
X20886942Y8946828D01*
X20888012Y8951002D01*
X20885777Y8961084D01*
X20895272Y8979324D01*
X20900378Y8999243D01*
X20909491Y9006640D01*
X20913541Y9014418D01*
X20939285Y9030819D01*
X20980663Y9047959D01*
X21034214Y9050297D01*
X21040854Y9087950D01*
X21054823Y9106155D01*
X21056823Y9108155D01*
X21111317Y9133566D01*
X21118978Y9133900D01*
X22077799Y9133900D01*
X22077800Y9133901D01*
X22077800Y9222244D01*
X22071706Y9268526D01*
X22024343Y9370094D01*
X22024342Y9370096D01*
X21945093Y9449345D01*
X21940321Y9452686D01*
X21905832Y9501938D01*
X21911070Y9561837D01*
X21940324Y9596698D01*
X21945383Y9600241D01*
X21945386Y9600242D01*
X22024758Y9679614D01*
X22072197Y9781347D01*
X22078300Y9827704D01*
X22078300Y10182296D01*
X22078286Y10182400D01*
X22075092Y10206665D01*
X22072197Y10228653D01*
X22024758Y10330386D01*
X22024757Y10330387D01*
X22024755Y10330390D01*
X21945387Y10409757D01*
X21945385Y10409759D01*
X21895251Y10433137D01*
X21852735Y10475654D01*
X21844500Y10512801D01*
X21844500Y11960622D01*
X21844499Y11960625D01*
X21805756Y12054161D01*
X21805755Y12054162D01*
X21805755Y12054163D01*
X21734163Y12125755D01*
X21734161Y12125756D01*
X18929045Y14930873D01*
X18903634Y14985367D01*
X18903300Y14993028D01*
X18903300Y15262298D01*
X18899623Y15290225D01*
X18897197Y15308653D01*
X18849758Y15410386D01*
X18770386Y15489758D01*
X18668654Y15537197D01*
X18622298Y15543300D01*
X18622296Y15543300D01*
X18532632Y15543300D01*
X18476131Y15563865D01*
X18470477Y15569045D01*
X18332054Y15707468D01*
X18179247Y15860276D01*
X18157970Y15872560D01*
X18092254Y15910501D01*
X18092253Y15910502D01*
X18092252Y15910502D01*
X17995225Y15936500D01*
X16979466Y15936500D01*
X16922965Y15957065D01*
X16906380Y15975565D01*
X16905142Y15977418D01*
X16901047Y15983547D01*
X16842069Y16022955D01*
X16790061Y16033300D01*
X16790059Y16033300D01*
X16692000Y16033300D01*
X16635499Y16053865D01*
X16605435Y16105936D01*
X16604100Y16121200D01*
X16604100Y16530800D01*
X16624665Y16587301D01*
X16676736Y16617365D01*
X16692000Y16618700D01*
X16999899Y16618700D01*
X16999904Y16618700D01*
X17073435Y16629413D01*
X17186861Y16684864D01*
X17276136Y16774139D01*
X17331587Y16887565D01*
X17342300Y16961096D01*
X17342300Y17582904D01*
X17331587Y17656435D01*
X17325416Y17669058D01*
X17276138Y17769858D01*
X17276136Y17769860D01*
X17276136Y17769861D01*
X17186861Y17859136D01*
X17186859Y17859137D01*
X17186857Y17859139D01*
X17073440Y17914585D01*
X17073438Y17914586D01*
X17073436Y17914587D01*
X17073435Y17914587D01*
X16999904Y17925300D01*
X16528096Y17925300D01*
X16454565Y17914587D01*
X16454563Y17914587D01*
X16454561Y17914586D01*
X16454559Y17914585D01*
X16341142Y17859139D01*
X16251861Y17769858D01*
X16196415Y17656441D01*
X16196414Y17656439D01*
X16196413Y17656437D01*
X16196413Y17656435D01*
X16185700Y17582904D01*
X16185700Y17582900D01*
X16185700Y17269633D01*
X16165135Y17213132D01*
X16159955Y17207478D01*
X15917325Y16964849D01*
X15867097Y16877851D01*
X15841100Y16780825D01*
X15841100Y16688233D01*
X15820535Y16631732D01*
X15768464Y16601668D01*
X15709250Y16612109D01*
X15691045Y16626078D01*
X14567847Y17749276D01*
X14532192Y17769861D01*
X14480852Y17799502D01*
X14383825Y17825500D01*
X6750199Y17825500D01*
X6693698Y17846065D01*
X6663634Y17898136D01*
X6662299Y17913400D01*
X6662299Y17961564D01*
X6662298Y17961566D01*
X6651956Y18013566D01*
X6651956Y18013567D01*
X6651955Y18013569D01*
X6612547Y18072547D01*
X6553569Y18111955D01*
X6501561Y18122300D01*
X6501559Y18122300D01*
X3266436Y18122300D01*
X3266434Y18122299D01*
X3214434Y18111957D01*
X3214433Y18111957D01*
X3155454Y18072548D01*
X3155452Y18072546D01*
X3116045Y18013569D01*
X3105700Y17961560D01*
X-3301500Y17961560D01*
X-3301500Y18707099D01*
X8562201Y18707099D01*
X8562201Y18403492D01*
X8572516Y18351625D01*
X8611811Y18292818D01*
X8611817Y18292812D01*
X8670624Y18253517D01*
X8722486Y18243201D01*
X9151100Y18243201D01*
X9151100Y18707099D01*
X9328900Y18707099D01*
X9328900Y18243202D01*
X9328901Y18243201D01*
X9757509Y18243201D01*
X9809375Y18253517D01*
X9868182Y18292812D01*
X9868188Y18292818D01*
X9907483Y18351625D01*
X9917800Y18403488D01*
X9917800Y18707099D01*
X14562201Y18707099D01*
X14562201Y18403492D01*
X14572516Y18351625D01*
X14611811Y18292818D01*
X14611817Y18292812D01*
X14670624Y18253517D01*
X14722486Y18243201D01*
X15151100Y18243201D01*
X15151100Y18707099D01*
X15328900Y18707099D01*
X15328900Y18243202D01*
X15328901Y18243201D01*
X15757509Y18243201D01*
X15809375Y18253517D01*
X15868182Y18292812D01*
X15868188Y18292818D01*
X15907483Y18351625D01*
X15917800Y18403488D01*
X15917800Y18707099D01*
X16814200Y18707099D01*
X16814200Y18588757D01*
X16820293Y18542475D01*
X16867656Y18440907D01*
X16867657Y18440905D01*
X16946904Y18361658D01*
X16946906Y18361657D01*
X17048475Y18314294D01*
X17048474Y18314294D01*
X17094756Y18308200D01*
X17183099Y18308200D01*
X17183100Y18308201D01*
X17183100Y18707099D01*
X17183099Y18707100D01*
X16814201Y18707100D01*
X16814200Y18707099D01*
X15917800Y18707099D01*
X15917799Y18707100D01*
X15328901Y18707100D01*
X15328900Y18707099D01*
X15151100Y18707099D01*
X15151099Y18707100D01*
X14562202Y18707100D01*
X14562201Y18707099D01*
X9917800Y18707099D01*
X9917799Y18707100D01*
X9328901Y18707100D01*
X9328900Y18707099D01*
X9151100Y18707099D01*
X9151099Y18707100D01*
X8562202Y18707100D01*
X8562201Y18707099D01*
X-3301500Y18707099D01*
X-3301500Y19355099D01*
X3106201Y19355099D01*
X3106201Y18926492D01*
X3116516Y18874625D01*
X3155811Y18815818D01*
X3155817Y18815812D01*
X3214624Y18776517D01*
X3266487Y18766201D01*
X4795098Y18766201D01*
X4795100Y18766202D01*
X4795100Y19355099D01*
X4972900Y19355099D01*
X4972900Y18766202D01*
X4972901Y18766201D01*
X6501509Y18766201D01*
X6553375Y18776517D01*
X6612183Y18815813D01*
X6612188Y18815818D01*
X6651483Y18874625D01*
X6661800Y18926488D01*
X6661800Y19188513D01*
X8562200Y19188513D01*
X8562200Y18884901D01*
X8562201Y18884900D01*
X9151099Y18884900D01*
X9151100Y18884901D01*
X9151100Y19348799D01*
X9328900Y19348799D01*
X9328900Y18884901D01*
X9328901Y18884900D01*
X9917798Y18884900D01*
X9917799Y18884901D01*
X9917799Y19188509D01*
X9917798Y19188513D01*
X14562200Y19188513D01*
X14562200Y18884901D01*
X14562201Y18884900D01*
X15151099Y18884900D01*
X15151100Y18884901D01*
X15151100Y19348799D01*
X15328900Y19348799D01*
X15328900Y18884901D01*
X15328901Y18884900D01*
X15917798Y18884900D01*
X15917799Y18884901D01*
X15917799Y19003244D01*
X16814200Y19003244D01*
X16814200Y18884901D01*
X16814201Y18884900D01*
X17183099Y18884900D01*
X17183100Y18884901D01*
X17183100Y19283799D01*
X17360900Y19283799D01*
X17360900Y18308201D01*
X17360901Y18308200D01*
X17449244Y18308200D01*
X17495525Y18314294D01*
X17597093Y18361657D01*
X17597095Y18361658D01*
X17676341Y18440904D01*
X17679682Y18445675D01*
X17728932Y18480167D01*
X17788831Y18474932D01*
X17823694Y18445680D01*
X17827239Y18440617D01*
X17827242Y18440614D01*
X17906614Y18361242D01*
X17927238Y18351625D01*
X17981748Y18326206D01*
X18024265Y18283690D01*
X18032500Y18246542D01*
X18032500Y17933914D01*
X18011935Y17877413D01*
X17995679Y17862378D01*
X17991136Y17859135D01*
X17901862Y17769860D01*
X17846415Y17656441D01*
X17846414Y17656439D01*
X17846413Y17656437D01*
X17846413Y17656435D01*
X17835700Y17582904D01*
X17835700Y16961096D01*
X17846413Y16887565D01*
X17846413Y16887564D01*
X17846414Y16887562D01*
X17846415Y16887560D01*
X17901861Y16774143D01*
X17901863Y16774141D01*
X17901864Y16774139D01*
X17991139Y16684864D01*
X17991140Y16684864D01*
X17991142Y16684862D01*
X18091942Y16635584D01*
X18104565Y16629413D01*
X18178096Y16618700D01*
X18178100Y16618700D01*
X18649899Y16618700D01*
X18649904Y16618700D01*
X18723435Y16629413D01*
X18836861Y16684864D01*
X18926136Y16774139D01*
X18981587Y16887565D01*
X18992300Y16961096D01*
X18992300Y17582904D01*
X18981587Y17656435D01*
X18975178Y17669544D01*
X18926137Y17769860D01*
X18836863Y17859135D01*
X18832321Y17862378D01*
X18798289Y17911947D01*
X18795500Y17933914D01*
X18795500Y18664225D01*
X18769502Y18761251D01*
X18769501Y18761252D01*
X18769501Y18761254D01*
X18719276Y18848247D01*
X18716045Y18851478D01*
X18690634Y18905972D01*
X18690300Y18913633D01*
X18690300Y19003298D01*
X18688692Y19015504D01*
X18684197Y19049653D01*
X18636758Y19151386D01*
X18636757Y19151387D01*
X18632345Y19157689D01*
X18634456Y19159168D01*
X18613834Y19203393D01*
X18613500Y19211054D01*
X18613500Y19839376D01*
X18634065Y19895877D01*
X18686136Y19925941D01*
X18688633Y19926343D01*
X18723435Y19931413D01*
X18836861Y19986864D01*
X18926136Y20076139D01*
X18981587Y20189565D01*
X18992300Y20263096D01*
X18992300Y20884904D01*
X18981587Y20958435D01*
X18962661Y20997148D01*
X18926138Y21071858D01*
X18926136Y21071860D01*
X18926136Y21071861D01*
X18836861Y21161136D01*
X18836859Y21161137D01*
X18836857Y21161139D01*
X18717794Y21219346D01*
X18676066Y21262636D01*
X18668500Y21298314D01*
X18668500Y21667955D01*
X18689065Y21724456D01*
X18694245Y21730110D01*
X18711814Y21747679D01*
X18780732Y21816597D01*
X18841068Y21921103D01*
X18872300Y22037664D01*
X18872300Y22158336D01*
X18864646Y22186901D01*
X18841069Y22274894D01*
X18841068Y22274895D01*
X18841068Y22274897D01*
X18780732Y22379403D01*
X18695403Y22464732D01*
X18590897Y22525068D01*
X18590896Y22525069D01*
X18590893Y22525070D01*
X18474336Y22556300D01*
X18353664Y22556300D01*
X18237106Y22525070D01*
X18132595Y22464731D01*
X18047269Y22379405D01*
X17986930Y22274894D01*
X17955700Y22158336D01*
X17955700Y22037665D01*
X17986930Y21921107D01*
X17986931Y21921104D01*
X17986932Y21921103D01*
X18040515Y21828293D01*
X18047269Y21816596D01*
X18133755Y21730110D01*
X18159166Y21675616D01*
X18159500Y21667955D01*
X18159500Y21298314D01*
X18138935Y21241813D01*
X18110206Y21219346D01*
X17991142Y21161139D01*
X17901861Y21071858D01*
X17846415Y20958441D01*
X17846414Y20958439D01*
X17846413Y20958437D01*
X17846413Y20958435D01*
X17835700Y20884904D01*
X17835700Y20263096D01*
X17846393Y20189704D01*
X17846414Y20189561D01*
X17846583Y20189015D01*
X17850500Y20163068D01*
X17850500Y19211054D01*
X17845927Y19197509D01*
X17846520Y19184902D01*
X17835539Y19166738D01*
X17832514Y19157777D01*
X17828930Y19153075D01*
X17827242Y19151386D01*
X17826608Y19150028D01*
X17821604Y19143460D01*
X17797696Y19128117D01*
X17774438Y19111832D01*
X17772575Y19111995D01*
X17771002Y19110985D01*
X17742830Y19114599D01*
X17714540Y19117074D01*
X17712918Y19118435D01*
X17711363Y19118634D01*
X17706846Y19123530D01*
X17679684Y19146323D01*
X17676342Y19151096D01*
X17597095Y19230343D01*
X17597093Y19230344D01*
X17495524Y19277707D01*
X17495525Y19277707D01*
X17449244Y19283800D01*
X17360901Y19283800D01*
X17360900Y19283799D01*
X17183100Y19283799D01*
X17183099Y19283800D01*
X17094756Y19283800D01*
X17048474Y19277707D01*
X16946906Y19230344D01*
X16946904Y19230343D01*
X16867657Y19151096D01*
X16867656Y19151094D01*
X16820293Y19049526D01*
X16814200Y19003244D01*
X15917799Y19003244D01*
X15917799Y19188509D01*
X15907483Y19240376D01*
X15868188Y19299183D01*
X15868182Y19299189D01*
X15809375Y19338484D01*
X15757513Y19348800D01*
X15328901Y19348800D01*
X15328900Y19348799D01*
X15151100Y19348799D01*
X15151099Y19348800D01*
X14722486Y19348800D01*
X14722484Y19348799D01*
X14670628Y19338486D01*
X14670624Y19338484D01*
X14611817Y19299189D01*
X14611811Y19299183D01*
X14572516Y19240376D01*
X14562200Y19188513D01*
X9917798Y19188513D01*
X9907483Y19240376D01*
X9868188Y19299183D01*
X9868182Y19299189D01*
X9809375Y19338484D01*
X9757513Y19348800D01*
X9328901Y19348800D01*
X9328900Y19348799D01*
X9151100Y19348799D01*
X9151099Y19348800D01*
X8722486Y19348800D01*
X8722484Y19348799D01*
X8670628Y19338486D01*
X8670624Y19338484D01*
X8611817Y19299189D01*
X8611811Y19299183D01*
X8572516Y19240376D01*
X8562200Y19188513D01*
X6661800Y19188513D01*
X6661800Y19355099D01*
X6661799Y19355100D01*
X4972901Y19355100D01*
X4972900Y19355099D01*
X4795100Y19355099D01*
X4795099Y19355100D01*
X3106202Y19355100D01*
X3106201Y19355099D01*
X-3301500Y19355099D01*
X-3301500Y19961513D01*
X3106200Y19961513D01*
X3106200Y19532901D01*
X3106201Y19532900D01*
X4795099Y19532900D01*
X4795100Y19532901D01*
X4795100Y20121799D01*
X4972900Y20121799D01*
X4972900Y19532901D01*
X4972901Y19532900D01*
X6661798Y19532900D01*
X6661799Y19532901D01*
X6661799Y19961509D01*
X6651483Y20013376D01*
X6612188Y20072183D01*
X6612182Y20072189D01*
X6553375Y20111484D01*
X6501513Y20121800D01*
X4972901Y20121800D01*
X4972900Y20121799D01*
X4795100Y20121799D01*
X4795099Y20121800D01*
X3266491Y20121800D01*
X3214624Y20111484D01*
X3155817Y20072189D01*
X3155811Y20072183D01*
X3116516Y20013376D01*
X3106200Y19961513D01*
X-3301500Y19961513D01*
X-3301500Y20485099D01*
X16186200Y20485099D01*
X16186200Y20263149D01*
X16196900Y20189706D01*
X16196901Y20189704D01*
X16252273Y20076438D01*
X16341437Y19987274D01*
X16454703Y19931902D01*
X16454705Y19931901D01*
X16528148Y19921200D01*
X16675099Y19921200D01*
X16675100Y19921201D01*
X16675100Y20485099D01*
X16852900Y20485099D01*
X16852900Y19921201D01*
X16852901Y19921200D01*
X16999851Y19921200D01*
X17073294Y19931901D01*
X17073296Y19931902D01*
X17186562Y19987274D01*
X17275726Y20076438D01*
X17331098Y20189704D01*
X17331099Y20189706D01*
X17341800Y20263149D01*
X17341800Y20485099D01*
X17341799Y20485100D01*
X16852901Y20485100D01*
X16852900Y20485099D01*
X16675100Y20485099D01*
X16675099Y20485100D01*
X16186201Y20485100D01*
X16186200Y20485099D01*
X-3301500Y20485099D01*
X-3301500Y20910583D01*
X-3280935Y20967084D01*
X-3228864Y20997148D01*
X-3169650Y20986707D01*
X-3152036Y20970208D01*
X-3150668Y20971575D01*
X-3144550Y20965457D01*
X-3144547Y20965453D01*
X-3085569Y20926045D01*
X-3033561Y20915700D01*
X1001560Y20915701D01*
X1001563Y20915701D01*
X1001565Y20915702D01*
X1053565Y20926044D01*
X1053566Y20926044D01*
X1053566Y20926045D01*
X1053569Y20926045D01*
X1112547Y20965453D01*
X1151955Y21024431D01*
X1162300Y21076439D01*
X1162299Y22611560D01*
X1162299Y22611561D01*
X1162299Y22611564D01*
X1162298Y22611566D01*
X1151956Y22663566D01*
X1151956Y22663567D01*
X1151955Y22663569D01*
X1112547Y22722547D01*
X1053569Y22761955D01*
X1001561Y22772300D01*
X1001559Y22772300D01*
X-3033564Y22772300D01*
X-3033566Y22772299D01*
X-3085566Y22761957D01*
X-3085567Y22761957D01*
X-3144546Y22722548D01*
X-3150668Y22716425D01*
X-3153384Y22719141D01*
X-3189032Y22693021D01*
X-3249029Y22696974D01*
X-3292448Y22738568D01*
X-3301500Y22777418D01*
X-3301500Y57569099D01*
X-1727800Y57569099D01*
X-1727800Y57450757D01*
X-1721707Y57404475D01*
X-1674344Y57302907D01*
X-1674343Y57302905D01*
X-1595096Y57223658D01*
X-1595094Y57223657D01*
X-1493525Y57176294D01*
X-1493526Y57176294D01*
X-1447244Y57170200D01*
X-1358901Y57170200D01*
X-1358900Y57170201D01*
X-1358900Y57569099D01*
X-1358901Y57569100D01*
X-1727799Y57569100D01*
X-1727800Y57569099D01*
X-3301500Y57569099D01*
X-3301500Y57865244D01*
X-1727800Y57865244D01*
X-1727800Y57746901D01*
X-1727799Y57746900D01*
X-1358901Y57746900D01*
X-1358900Y57746901D01*
X-1358900Y58145799D01*
X-1358901Y58145800D01*
X-1447244Y58145800D01*
X-1493526Y58139707D01*
X-1595094Y58092344D01*
X-1595096Y58092343D01*
X-1674343Y58013096D01*
X-1674344Y58013094D01*
X-1721707Y57911526D01*
X-1727800Y57865244D01*
X-3301500Y57865244D01*
X-3301500Y59093099D01*
X-2151800Y59093099D01*
X-2151800Y58900300D01*
X-2136862Y58805977D01*
X-2136862Y58805976D01*
X-2078937Y58692293D01*
X-1988708Y58602064D01*
X-1875025Y58544139D01*
X-1780701Y58529201D01*
X-1780700Y58529200D01*
X-1612901Y58529200D01*
X-1612900Y58529201D01*
X-1612900Y59093099D01*
X-1435100Y59093099D01*
X-1435100Y58529201D01*
X-1435099Y58529200D01*
X-1267300Y58529200D01*
X-1267300Y58529201D01*
X-1172977Y58544139D01*
X-1172976Y58544139D01*
X-1059293Y58602064D01*
X-969064Y58692293D01*
X-911139Y58805976D01*
X-911139Y58805977D01*
X-896201Y58900300D01*
X-896200Y58900300D01*
X-896200Y59093099D01*
X-896201Y59093100D01*
X-1435099Y59093100D01*
X-1435100Y59093099D01*
X-1612900Y59093099D01*
X-1612901Y59093100D01*
X-2151799Y59093100D01*
X-2151800Y59093099D01*
X-3301500Y59093099D01*
X-3301500Y59463701D01*
X-2151800Y59463701D01*
X-2151800Y59270901D01*
X-2151799Y59270900D01*
X-1612901Y59270900D01*
X-1612900Y59270901D01*
X-1612900Y59834799D01*
X-1435100Y59834799D01*
X-1435100Y59270901D01*
X-1435099Y59270900D01*
X-896201Y59270900D01*
X-896200Y59270901D01*
X-896200Y59463701D01*
X-911139Y59558024D01*
X-911139Y59558025D01*
X-969064Y59671708D01*
X-1059293Y59761937D01*
X-1172976Y59819862D01*
X-1267299Y59834800D01*
X-1435099Y59834800D01*
X-1435100Y59834799D01*
X-1612900Y59834799D01*
X-1612901Y59834800D01*
X-1780701Y59834800D01*
X-1875024Y59819862D01*
X-1875025Y59819862D01*
X-1988708Y59761937D01*
X-2078937Y59671708D01*
X-2136862Y59558025D01*
X-2136862Y59558024D01*
X-2151800Y59463701D01*
X-3301500Y59463701D01*
X-3301500Y60871600D01*
X-3280935Y60928101D01*
X-3228864Y60958165D01*
X-3213600Y60959500D01*
X4585696Y60959500D01*
X4642197Y60938935D01*
G37*
%TD.AperFunction*%
%TA.AperFunction,Conductor*%
G36*
X20315258Y53586191D02*
G01*
X20337751Y53582224D01*
X20342849Y53576148D01*
X20350302Y53573435D01*
X20361720Y53553659D01*
X20376400Y53536164D01*
X20378413Y53524747D01*
X20380366Y53521364D01*
X20381701Y53506100D01*
X20381701Y53380435D01*
X20392043Y53328435D01*
X20392043Y53328434D01*
X20436263Y53262255D01*
X20432835Y53259965D01*
X20451163Y53220661D01*
X20435964Y53163945D01*
X20436263Y53163745D01*
X20435675Y53162867D01*
X20435600Y53162583D01*
X20435042Y53161919D01*
X20392045Y53097569D01*
X20381700Y53045560D01*
X20381700Y52110437D01*
X20381701Y52110435D01*
X20392043Y52058435D01*
X20392043Y52058434D01*
X20436263Y51992255D01*
X20432835Y51989965D01*
X20451163Y51950661D01*
X20435964Y51893945D01*
X20436263Y51893745D01*
X20435675Y51892867D01*
X20435600Y51892583D01*
X20435042Y51891919D01*
X20431453Y51886547D01*
X20392045Y51827569D01*
X20381701Y51775563D01*
X20381700Y51775560D01*
X20381700Y50840437D01*
X20381701Y50840435D01*
X20392043Y50788435D01*
X20392043Y50788434D01*
X20436263Y50722255D01*
X20432835Y50719965D01*
X20451163Y50680661D01*
X20435964Y50623945D01*
X20436263Y50623745D01*
X20435675Y50622867D01*
X20435600Y50622583D01*
X20435042Y50621919D01*
X20392045Y50557569D01*
X20381700Y50505560D01*
X20381700Y49570437D01*
X20381701Y49570435D01*
X20392043Y49518435D01*
X20392043Y49518434D01*
X20392044Y49518432D01*
X20392045Y49518431D01*
X20427006Y49466108D01*
X20436263Y49452255D01*
X20432835Y49449965D01*
X20451163Y49410661D01*
X20435964Y49353945D01*
X20436263Y49353745D01*
X20435675Y49352867D01*
X20435600Y49352583D01*
X20435042Y49351919D01*
X20392045Y49287569D01*
X20381700Y49235560D01*
X20381700Y48300437D01*
X20381701Y48300435D01*
X20392043Y48248435D01*
X20392043Y48248434D01*
X20436263Y48182255D01*
X20432835Y48179965D01*
X20451163Y48140661D01*
X20435964Y48083945D01*
X20436263Y48083745D01*
X20435675Y48082867D01*
X20435600Y48082583D01*
X20435042Y48081919D01*
X20392045Y48017569D01*
X20381700Y47965560D01*
X20381700Y47030437D01*
X20381701Y47030435D01*
X20392043Y46978435D01*
X20392043Y46978434D01*
X20436263Y46912255D01*
X20432835Y46909965D01*
X20451163Y46870661D01*
X20435964Y46813945D01*
X20436263Y46813745D01*
X20435675Y46812867D01*
X20435600Y46812583D01*
X20435042Y46811919D01*
X20392045Y46747569D01*
X20381700Y46695560D01*
X20381700Y45760437D01*
X20381701Y45760435D01*
X20392043Y45708435D01*
X20392043Y45708434D01*
X20436263Y45642255D01*
X20432835Y45639965D01*
X20451163Y45600661D01*
X20435964Y45543945D01*
X20436263Y45543745D01*
X20435675Y45542867D01*
X20435600Y45542583D01*
X20435042Y45541919D01*
X20392045Y45477569D01*
X20381700Y45425560D01*
X20381700Y44490437D01*
X20381701Y44490435D01*
X20392043Y44438435D01*
X20392043Y44438434D01*
X20436263Y44372255D01*
X20432835Y44369965D01*
X20451163Y44330661D01*
X20435964Y44273945D01*
X20436263Y44273745D01*
X20435675Y44272867D01*
X20435600Y44272583D01*
X20435042Y44271919D01*
X20392045Y44207569D01*
X20381700Y44155560D01*
X20381700Y43220437D01*
X20381701Y43220435D01*
X20392043Y43168435D01*
X20392043Y43168434D01*
X20436263Y43102255D01*
X20432835Y43099965D01*
X20451163Y43060661D01*
X20435964Y43003945D01*
X20436263Y43003745D01*
X20435675Y43002867D01*
X20435600Y43002583D01*
X20435042Y43001919D01*
X20392045Y42937569D01*
X20381700Y42885560D01*
X20381700Y41950437D01*
X20381701Y41950435D01*
X20392043Y41898435D01*
X20392043Y41898434D01*
X20436263Y41832255D01*
X20432835Y41829965D01*
X20451163Y41790661D01*
X20435964Y41733945D01*
X20436263Y41733745D01*
X20435675Y41732867D01*
X20435600Y41732583D01*
X20435042Y41731919D01*
X20392045Y41667569D01*
X20381700Y41615560D01*
X20381700Y40680437D01*
X20381701Y40680435D01*
X20392043Y40628435D01*
X20392043Y40628434D01*
X20392044Y40628432D01*
X20392045Y40628431D01*
X20431453Y40569453D01*
X20490431Y40530045D01*
X20542439Y40519700D01*
X20967600Y40519701D01*
X21024101Y40499136D01*
X21054165Y40447065D01*
X21055500Y40431801D01*
X21055500Y27293828D01*
X21034935Y27237327D01*
X21029755Y27231673D01*
X20343193Y26545112D01*
X20288699Y26519701D01*
X20230621Y26535264D01*
X20196133Y26584517D01*
X20194463Y26610014D01*
X20193500Y26610014D01*
X20193500Y28788018D01*
X20214065Y28844519D01*
X20219234Y28850162D01*
X20257599Y28888526D01*
X20304293Y28988661D01*
X20310300Y29034289D01*
X20310299Y29377710D01*
X20310299Y29377711D01*
X20310299Y29377714D01*
X20310298Y29377716D01*
X20304294Y29423335D01*
X20304292Y29423341D01*
X20268057Y29501046D01*
X20257599Y29523474D01*
X20179474Y29601599D01*
X20104981Y29636336D01*
X20062465Y29678852D01*
X20057225Y29738751D01*
X20091713Y29788004D01*
X20104981Y29795664D01*
X20114299Y29800010D01*
X20179474Y29830401D01*
X20257599Y29908526D01*
X20304293Y30008661D01*
X20310300Y30054289D01*
X20310299Y30397710D01*
X20310299Y30397714D01*
X20310298Y30397716D01*
X20304294Y30443335D01*
X20304292Y30443341D01*
X20283203Y30488566D01*
X20257599Y30543474D01*
X20179474Y30621599D01*
X20159833Y30630758D01*
X20079340Y30668293D01*
X20033712Y30674300D01*
X19590286Y30674300D01*
X19590284Y30674299D01*
X19544665Y30668295D01*
X19544659Y30668293D01*
X19444526Y30621599D01*
X19444524Y30621598D01*
X19363951Y30541026D01*
X19309457Y30515615D01*
X19251379Y30531178D01*
X19236401Y30546156D01*
X19236195Y30545949D01*
X19151389Y30630756D01*
X19151386Y30630758D01*
X19049654Y30678197D01*
X19003298Y30684300D01*
X19003296Y30684300D01*
X18588704Y30684300D01*
X18588702Y30684300D01*
X18542345Y30678197D01*
X18440613Y30630758D01*
X18440610Y30630756D01*
X18361243Y30551388D01*
X18361242Y30551386D01*
X18351853Y30531251D01*
X18309337Y30488735D01*
X18272189Y30480500D01*
X17909330Y30480500D01*
X17852829Y30501065D01*
X17836244Y30519565D01*
X17828484Y30531178D01*
X17817547Y30547547D01*
X17758569Y30586955D01*
X17706561Y30597300D01*
X17706559Y30597300D01*
X16671436Y30597300D01*
X16671434Y30597299D01*
X16619434Y30586957D01*
X16619433Y30586957D01*
X16560454Y30547548D01*
X16560452Y30547546D01*
X16529395Y30501065D01*
X16521045Y30488569D01*
X16512048Y30443335D01*
X16510700Y30436560D01*
X16510700Y30386400D01*
X16490135Y30329899D01*
X16438064Y30299835D01*
X16422800Y30298500D01*
X11955199Y30298500D01*
X11898698Y30319065D01*
X11868634Y30371136D01*
X11867299Y30386400D01*
X11867299Y30436564D01*
X11867298Y30436566D01*
X11856956Y30488566D01*
X11856956Y30488567D01*
X11828484Y30531178D01*
X11817547Y30547547D01*
X11758569Y30586955D01*
X11706561Y30597300D01*
X11706559Y30597300D01*
X11531400Y30597300D01*
X11474899Y30617865D01*
X11444835Y30669936D01*
X11443500Y30685200D01*
X11443500Y31279622D01*
X11443499Y31279625D01*
X11404756Y31373161D01*
X11399945Y31380361D01*
X11401576Y31381452D01*
X11380634Y31426376D01*
X11380300Y31434028D01*
X11380300Y31556336D01*
X11349069Y31672894D01*
X11349068Y31672895D01*
X11349068Y31672897D01*
X11288732Y31777403D01*
X11203403Y31862732D01*
X11098897Y31923068D01*
X11098896Y31923069D01*
X11098893Y31923070D01*
X10982336Y31954300D01*
X10861664Y31954300D01*
X10745106Y31923070D01*
X10640595Y31862731D01*
X10555269Y31777405D01*
X10494930Y31672894D01*
X10463700Y31556336D01*
X10463700Y31435664D01*
X10470695Y31409556D01*
X10494930Y31319107D01*
X10494931Y31319104D01*
X10494932Y31319103D01*
X10555268Y31214597D01*
X10640597Y31129268D01*
X10745103Y31068932D01*
X10745105Y31068932D01*
X10745106Y31068931D01*
X10867229Y31036209D01*
X10866569Y31033748D01*
X10911400Y31010416D01*
X10934416Y30954869D01*
X10934500Y30951025D01*
X10934500Y30685200D01*
X10913935Y30628699D01*
X10861864Y30598635D01*
X10846600Y30597300D01*
X10671436Y30597300D01*
X10671434Y30597299D01*
X10619434Y30586957D01*
X10619433Y30586957D01*
X10560454Y30547548D01*
X10560452Y30547546D01*
X10529395Y30501065D01*
X10521045Y30488569D01*
X10512048Y30443335D01*
X10510700Y30436560D01*
X10510700Y29651437D01*
X10510701Y29651435D01*
X10521043Y29599435D01*
X10521043Y29599434D01*
X10521044Y29599432D01*
X10521045Y29599431D01*
X10560453Y29540453D01*
X10619431Y29501045D01*
X10671439Y29490700D01*
X11706560Y29490701D01*
X11706563Y29490701D01*
X11706565Y29490702D01*
X11758565Y29501044D01*
X11758566Y29501044D01*
X11758566Y29501045D01*
X11758569Y29501045D01*
X11817547Y29540453D01*
X11856955Y29599431D01*
X11867300Y29651439D01*
X11867300Y29701600D01*
X11887865Y29758101D01*
X11939936Y29788165D01*
X11955200Y29789500D01*
X16422801Y29789500D01*
X16479302Y29768935D01*
X16509366Y29716864D01*
X16510701Y29701600D01*
X16510701Y29651435D01*
X16521043Y29599435D01*
X16521043Y29599434D01*
X16521044Y29599432D01*
X16521045Y29599431D01*
X16560453Y29540453D01*
X16619431Y29501045D01*
X16671439Y29490700D01*
X17706560Y29490701D01*
X17706563Y29490701D01*
X17706565Y29490702D01*
X17758565Y29501044D01*
X17758566Y29501044D01*
X17758566Y29501045D01*
X17758569Y29501045D01*
X17817547Y29540453D01*
X17856955Y29599431D01*
X17867300Y29651439D01*
X17867300Y29883600D01*
X17887865Y29940101D01*
X17939936Y29970165D01*
X17955200Y29971500D01*
X18272189Y29971500D01*
X18328690Y29950935D01*
X18351852Y29920750D01*
X18361242Y29900614D01*
X18361243Y29900613D01*
X18440612Y29821243D01*
X18445678Y29817696D01*
X18480167Y29768444D01*
X18474929Y29708545D01*
X18445681Y29673688D01*
X18440907Y29670346D01*
X18361657Y29591096D01*
X18361656Y29591094D01*
X18314293Y29489526D01*
X18308200Y29443244D01*
X18308200Y29354901D01*
X18308201Y29354900D01*
X18708100Y29354900D01*
X18729557Y29347091D01*
X18752050Y29343124D01*
X18757148Y29337048D01*
X18764601Y29334335D01*
X18776019Y29314559D01*
X18790699Y29297064D01*
X18792712Y29285647D01*
X18794665Y29282264D01*
X18796000Y29267000D01*
X18796000Y29266000D01*
X18797000Y29266000D01*
X18853501Y29245435D01*
X18883565Y29193364D01*
X18884900Y29178100D01*
X18884900Y28808201D01*
X18884901Y28808200D01*
X19003244Y28808200D01*
X19049525Y28814294D01*
X19151093Y28861657D01*
X19151098Y28861660D01*
X19217709Y28928271D01*
X19272202Y28953682D01*
X19330281Y28938121D01*
X19348392Y28921165D01*
X19355040Y28912889D01*
X19366401Y28888526D01*
X19408134Y28846793D01*
X19411128Y28843066D01*
X19419356Y28818860D01*
X19430166Y28795679D01*
X19430500Y28788018D01*
X19430500Y26860433D01*
X19409935Y26803932D01*
X19404755Y26798279D01*
X18788677Y26182200D01*
X18109725Y25503249D01*
X18059497Y25416252D01*
X18056540Y25405215D01*
X18033791Y25365815D01*
X17136122Y24468145D01*
X17118730Y24460035D01*
X17104031Y24447701D01*
X17085134Y24444370D01*
X17081628Y24442734D01*
X17073967Y24442400D01*
X17036267Y24442400D01*
X16979766Y24462965D01*
X16951362Y24507550D01*
X16949356Y24515036D01*
X16937068Y24560897D01*
X16876732Y24665403D01*
X16791403Y24750732D01*
X16686897Y24811068D01*
X16686896Y24811069D01*
X16686893Y24811070D01*
X16570336Y24842300D01*
X16449664Y24842300D01*
X16333106Y24811070D01*
X16228595Y24750731D01*
X16143269Y24665405D01*
X16143268Y24665403D01*
X16082932Y24560897D01*
X16082931Y24560895D01*
X16082931Y24560894D01*
X16068638Y24507550D01*
X16034151Y24458297D01*
X15983733Y24442400D01*
X13872745Y24442400D01*
X13816244Y24462965D01*
X13786180Y24515036D01*
X13796621Y24574250D01*
X13810590Y24592455D01*
X13828732Y24610597D01*
X13889068Y24715103D01*
X13920300Y24831664D01*
X13920300Y24952336D01*
X13914695Y24973253D01*
X13889069Y25068894D01*
X13889068Y25068895D01*
X13889068Y25068897D01*
X13828732Y25173403D01*
X13743403Y25258732D01*
X13638897Y25319068D01*
X13638896Y25319069D01*
X13638893Y25319070D01*
X13522336Y25350300D01*
X13401664Y25350300D01*
X13285106Y25319070D01*
X13180595Y25258731D01*
X13094110Y25172245D01*
X13039616Y25146834D01*
X13031955Y25146500D01*
X11352045Y25146500D01*
X11295544Y25167065D01*
X11289890Y25172245D01*
X11203404Y25258731D01*
X11203403Y25258732D01*
X11098897Y25319068D01*
X11098896Y25319069D01*
X11098893Y25319070D01*
X10982336Y25350300D01*
X10861664Y25350300D01*
X10745106Y25319070D01*
X10640595Y25258731D01*
X10555269Y25173405D01*
X10494930Y25068894D01*
X10463700Y24952336D01*
X10463700Y24827333D01*
X10443135Y24770832D01*
X10391064Y24740768D01*
X10331850Y24751209D01*
X10313645Y24765178D01*
X9452245Y25626578D01*
X9426834Y25681072D01*
X9426500Y25688733D01*
X9426500Y26254946D01*
X9431071Y26268489D01*
X9430478Y26281091D01*
X9441455Y26299253D01*
X9444482Y26308217D01*
X9448069Y26312926D01*
X9449758Y26314614D01*
X9450392Y26315975D01*
X9455391Y26322535D01*
X9479284Y26337872D01*
X9502552Y26354167D01*
X9504416Y26354005D01*
X9505991Y26355015D01*
X9534172Y26351403D01*
X9562451Y26348931D01*
X9564072Y26347571D01*
X9565630Y26347371D01*
X9570153Y26342469D01*
X9597314Y26319679D01*
X9600655Y26314907D01*
X9679904Y26235658D01*
X9679906Y26235657D01*
X9781475Y26188294D01*
X9781474Y26188294D01*
X9827756Y26182200D01*
X9916099Y26182200D01*
X9916100Y26182201D01*
X9916100Y27157799D01*
X10093900Y27157799D01*
X10093900Y26182201D01*
X10093901Y26182200D01*
X10182244Y26182200D01*
X10228525Y26188294D01*
X10330093Y26235657D01*
X10330094Y26235657D01*
X10361144Y26266707D01*
X10415638Y26292118D01*
X10473716Y26276557D01*
X10508205Y26227304D01*
X10511200Y26204553D01*
X10511200Y25951487D01*
X10511201Y25951485D01*
X10521514Y25899629D01*
X10521516Y25899625D01*
X10560811Y25840818D01*
X10560817Y25840812D01*
X10619624Y25801517D01*
X10671486Y25791201D01*
X11100100Y25791201D01*
X11100100Y26255099D01*
X11277900Y26255099D01*
X11277900Y25791202D01*
X11277901Y25791201D01*
X11706509Y25791201D01*
X11758375Y25801517D01*
X11817182Y25840812D01*
X11817188Y25840818D01*
X11856483Y25899625D01*
X11866800Y25951488D01*
X11866800Y26255099D01*
X16511201Y26255099D01*
X16511201Y25951492D01*
X16521516Y25899625D01*
X16560811Y25840818D01*
X16560817Y25840812D01*
X16619624Y25801517D01*
X16671486Y25791201D01*
X17100100Y25791201D01*
X17100100Y26255099D01*
X17277900Y26255099D01*
X17277900Y25791202D01*
X17277901Y25791201D01*
X17706509Y25791201D01*
X17758375Y25801517D01*
X17817182Y25840812D01*
X17817188Y25840818D01*
X17856483Y25899625D01*
X17866800Y25951488D01*
X17866800Y26255099D01*
X17866799Y26255100D01*
X17277901Y26255100D01*
X17277900Y26255099D01*
X17100100Y26255099D01*
X17100099Y26255100D01*
X16511202Y26255100D01*
X16511201Y26255099D01*
X11866800Y26255099D01*
X11866799Y26255100D01*
X11277901Y26255100D01*
X11277900Y26255099D01*
X11100100Y26255099D01*
X11100100Y26896799D01*
X11277900Y26896799D01*
X11277900Y26432901D01*
X11277901Y26432900D01*
X11866798Y26432900D01*
X11866799Y26432901D01*
X11866799Y26736509D01*
X11866798Y26736513D01*
X16511200Y26736513D01*
X16511200Y26432901D01*
X16511201Y26432900D01*
X17100099Y26432900D01*
X17100100Y26432901D01*
X17100100Y26896799D01*
X17277900Y26896799D01*
X17277900Y26432901D01*
X17277901Y26432900D01*
X17866798Y26432900D01*
X17866799Y26432901D01*
X17866799Y26736509D01*
X17856483Y26788376D01*
X17817188Y26847183D01*
X17817182Y26847189D01*
X17758375Y26886484D01*
X17706513Y26896800D01*
X17277901Y26896800D01*
X17277900Y26896799D01*
X17100100Y26896799D01*
X17100099Y26896800D01*
X16671486Y26896800D01*
X16671484Y26896799D01*
X16619628Y26886486D01*
X16619624Y26886484D01*
X16560817Y26847189D01*
X16560811Y26847183D01*
X16521516Y26788376D01*
X16511200Y26736513D01*
X11866798Y26736513D01*
X11856483Y26788376D01*
X11817188Y26847183D01*
X11817182Y26847189D01*
X11758375Y26886484D01*
X11706513Y26896800D01*
X11277901Y26896800D01*
X11277900Y26896799D01*
X11100100Y26896799D01*
X11100099Y26896800D01*
X10671486Y26896800D01*
X10671484Y26896799D01*
X10619628Y26886486D01*
X10619625Y26886485D01*
X10591894Y26867954D01*
X10533491Y26853662D01*
X10479564Y26880255D01*
X10461499Y26917918D01*
X10458588Y26917069D01*
X10456706Y26923525D01*
X10409343Y27025094D01*
X10409342Y27025096D01*
X10330095Y27104343D01*
X10330093Y27104344D01*
X10228524Y27151707D01*
X10228525Y27151707D01*
X10182244Y27157800D01*
X10093901Y27157800D01*
X10093900Y27157799D01*
X9916100Y27157799D01*
X9916099Y27157800D01*
X9827756Y27157800D01*
X9781474Y27151707D01*
X9679906Y27104344D01*
X9679904Y27104343D01*
X9600654Y27025093D01*
X9597312Y27020319D01*
X9548058Y26985832D01*
X9488160Y26991073D01*
X9453304Y27020322D01*
X9449759Y27025385D01*
X9370386Y27104758D01*
X9268654Y27152197D01*
X9222298Y27158300D01*
X9222296Y27158300D01*
X8867704Y27158300D01*
X8867702Y27158300D01*
X8821345Y27152197D01*
X8719613Y27104758D01*
X8689601Y27074745D01*
X8672209Y27066635D01*
X8657510Y27054301D01*
X8638613Y27050970D01*
X8635107Y27049334D01*
X8627446Y27049000D01*
X8597400Y27049000D01*
X8540899Y27069565D01*
X8510835Y27121636D01*
X8509500Y27136900D01*
X8509500Y27237567D01*
X8530065Y27294068D01*
X8535245Y27299722D01*
X8693817Y27458294D01*
X8879376Y27643853D01*
X8905839Y27689690D01*
X8944809Y27725400D01*
X9017386Y27759242D01*
X9096758Y27838614D01*
X9096759Y27838617D01*
X9100302Y27843676D01*
X9149552Y27878167D01*
X9209451Y27872931D01*
X9244314Y27843679D01*
X9247655Y27838907D01*
X9326904Y27759658D01*
X9326906Y27759657D01*
X9428475Y27712294D01*
X9428474Y27712294D01*
X9474756Y27706200D01*
X9563099Y27706200D01*
X9563100Y27706201D01*
X9563100Y28105099D01*
X9740900Y28105099D01*
X9740900Y27706201D01*
X9740901Y27706200D01*
X9829244Y27706200D01*
X9875525Y27712294D01*
X9977093Y27759657D01*
X9977095Y27759658D01*
X10056342Y27838905D01*
X10056343Y27838907D01*
X10103706Y27940475D01*
X10109800Y27986757D01*
X10109800Y28105099D01*
X10109799Y28105100D01*
X9740901Y28105100D01*
X9740900Y28105099D01*
X9563100Y28105099D01*
X9563100Y28681799D01*
X9740900Y28681799D01*
X9740900Y28282901D01*
X9740901Y28282900D01*
X10109799Y28282900D01*
X10109800Y28282901D01*
X10109800Y28401244D01*
X10103706Y28447526D01*
X10056343Y28549094D01*
X10056342Y28549096D01*
X9977095Y28628343D01*
X9977093Y28628344D01*
X9875524Y28675707D01*
X9875525Y28675707D01*
X9829244Y28681800D01*
X9740901Y28681800D01*
X9740900Y28681799D01*
X9563100Y28681799D01*
X9563099Y28681800D01*
X9474756Y28681800D01*
X9428474Y28675707D01*
X9326906Y28628344D01*
X9326904Y28628343D01*
X9247654Y28549093D01*
X9244312Y28544319D01*
X9195058Y28509832D01*
X9135160Y28515073D01*
X9112707Y28530130D01*
X9100475Y28541415D01*
X9096758Y28549386D01*
X9017386Y28628758D01*
X8993952Y28639686D01*
X8983898Y28648961D01*
X8976002Y28664255D01*
X8963835Y28676422D01*
X8959406Y28696399D01*
X8956314Y28702388D01*
X8957203Y28706337D01*
X8955600Y28713568D01*
X8955600Y29177099D01*
X18308200Y29177099D01*
X18308200Y29088757D01*
X18314293Y29042475D01*
X18361656Y28940907D01*
X18361657Y28940905D01*
X18440904Y28861658D01*
X18440906Y28861657D01*
X18542475Y28814294D01*
X18542474Y28814294D01*
X18588756Y28808200D01*
X18707099Y28808200D01*
X18707100Y28808201D01*
X18707100Y29177100D01*
X18308201Y29177100D01*
X18308200Y29177099D01*
X8955600Y29177099D01*
X8955600Y30686372D01*
X8955601Y30686385D01*
X8955601Y30793914D01*
X8929602Y30890942D01*
X8879376Y30977936D01*
X8435436Y31421876D01*
X8435434Y31421878D01*
X8395809Y31444756D01*
X8395809Y31444755D01*
X8348441Y31472102D01*
X8251414Y31498100D01*
X6923833Y31498100D01*
X6867332Y31518665D01*
X6861678Y31523845D01*
X6481878Y31903645D01*
X6456467Y31958139D01*
X6472030Y32016217D01*
X6521283Y32050705D01*
X6544033Y32053700D01*
X6664335Y32053700D01*
X6664336Y32053700D01*
X6780897Y32084932D01*
X6885403Y32145268D01*
X6970732Y32230597D01*
X6970732Y32230598D01*
X6971890Y32231755D01*
X7026384Y32257166D01*
X7034045Y32257500D01*
X12509622Y32257500D01*
X12509623Y32257500D01*
X12603163Y32296245D01*
X19250872Y38943957D01*
X19305366Y38969367D01*
X19313027Y38969701D01*
X20012564Y38969701D01*
X20012565Y38969702D01*
X20064565Y38980044D01*
X20064566Y38980044D01*
X20064566Y38980045D01*
X20064569Y38980045D01*
X20123547Y39019453D01*
X20162955Y39078431D01*
X20173300Y39130439D01*
X20173299Y40665560D01*
X20173299Y40665561D01*
X20173299Y40665564D01*
X20173298Y40665566D01*
X20162956Y40717566D01*
X20162956Y40717567D01*
X20162955Y40717569D01*
X20123547Y40776547D01*
X20064569Y40815955D01*
X20012561Y40826300D01*
X20012559Y40826300D01*
X19077436Y40826300D01*
X19077434Y40826299D01*
X19025434Y40815957D01*
X19025433Y40815957D01*
X18966454Y40776548D01*
X18960332Y40770425D01*
X18959334Y40771423D01*
X18918078Y40741180D01*
X18858080Y40745121D01*
X18844661Y40752484D01*
X18794569Y40785955D01*
X18742561Y40796300D01*
X18742559Y40796300D01*
X17807436Y40796300D01*
X17807434Y40796299D01*
X17755434Y40785957D01*
X17755433Y40785957D01*
X17727811Y40767500D01*
X17705342Y40752486D01*
X17689255Y40741737D01*
X17686964Y40745165D01*
X17647661Y40726837D01*
X17590944Y40742036D01*
X17590745Y40741737D01*
X17589866Y40742325D01*
X17589583Y40742400D01*
X17588918Y40742958D01*
X17583547Y40746547D01*
X17524569Y40785955D01*
X17472561Y40796300D01*
X17472559Y40796300D01*
X16537436Y40796300D01*
X16537434Y40796299D01*
X16485434Y40785957D01*
X16485433Y40785957D01*
X16457811Y40767500D01*
X16435342Y40752486D01*
X16419255Y40741737D01*
X16416964Y40745165D01*
X16377661Y40726837D01*
X16320944Y40742036D01*
X16320745Y40741737D01*
X16319866Y40742325D01*
X16319583Y40742400D01*
X16318918Y40742958D01*
X16313547Y40746547D01*
X16254569Y40785955D01*
X16202561Y40796300D01*
X16202559Y40796300D01*
X15267436Y40796300D01*
X15267434Y40796299D01*
X15215434Y40785957D01*
X15215433Y40785957D01*
X15187811Y40767500D01*
X15165342Y40752486D01*
X15149255Y40741737D01*
X15146964Y40745165D01*
X15107661Y40726837D01*
X15050944Y40742036D01*
X15050745Y40741737D01*
X15049866Y40742325D01*
X15049583Y40742400D01*
X15048918Y40742958D01*
X15043547Y40746547D01*
X14984569Y40785955D01*
X14932561Y40796300D01*
X14932559Y40796300D01*
X13997436Y40796300D01*
X13997434Y40796299D01*
X13945434Y40785957D01*
X13945433Y40785957D01*
X13917811Y40767500D01*
X13895342Y40752486D01*
X13879255Y40741737D01*
X13876964Y40745165D01*
X13837661Y40726837D01*
X13780944Y40742036D01*
X13780745Y40741737D01*
X13779866Y40742325D01*
X13779583Y40742400D01*
X13778918Y40742958D01*
X13773547Y40746547D01*
X13714569Y40785955D01*
X13662561Y40796300D01*
X13662559Y40796300D01*
X13178392Y40796300D01*
X13121891Y40816865D01*
X13091827Y40868936D01*
X13102267Y40928147D01*
X13127068Y40971103D01*
X13158300Y41087664D01*
X13158300Y41208336D01*
X13127068Y41324897D01*
X13066732Y41429403D01*
X12981403Y41514732D01*
X12876897Y41575068D01*
X12876896Y41575069D01*
X12876893Y41575070D01*
X12760336Y41606300D01*
X12639664Y41606300D01*
X12523106Y41575070D01*
X12418595Y41514731D01*
X12370210Y41466345D01*
X12315716Y41440934D01*
X12308055Y41440600D01*
X4826199Y41440600D01*
X4769698Y41461165D01*
X4739634Y41513236D01*
X4738299Y41528500D01*
X4738299Y41615564D01*
X4738298Y41615566D01*
X4727956Y41667566D01*
X4727956Y41667567D01*
X4727955Y41667569D01*
X4688547Y41726547D01*
X4688546Y41726548D01*
X4683737Y41733745D01*
X4687164Y41736036D01*
X4668837Y41775339D01*
X4684035Y41832056D01*
X4683737Y41832255D01*
X4684324Y41833134D01*
X4684400Y41833417D01*
X4684957Y41834082D01*
X4688544Y41839452D01*
X4688547Y41839453D01*
X4727955Y41898431D01*
X4738300Y41950439D01*
X4738300Y42037500D01*
X4758865Y42094001D01*
X4810936Y42124065D01*
X4826200Y42125400D01*
X11673055Y42125400D01*
X11729556Y42104835D01*
X11735210Y42099655D01*
X11783597Y42051268D01*
X11888103Y41990932D01*
X11888105Y41990932D01*
X11888106Y41990931D01*
X12004664Y41959700D01*
X12125335Y41959700D01*
X12125336Y41959700D01*
X12241897Y41990932D01*
X12346403Y42051268D01*
X12431732Y42136597D01*
X12492068Y42241103D01*
X12523300Y42357664D01*
X12523300Y42478336D01*
X12492068Y42594897D01*
X12431732Y42699403D01*
X12346403Y42784732D01*
X12241897Y42845068D01*
X12241896Y42845069D01*
X12241893Y42845070D01*
X12125336Y42876300D01*
X12004664Y42876300D01*
X11888106Y42845070D01*
X11783595Y42784731D01*
X11735210Y42736345D01*
X11680716Y42710934D01*
X11673055Y42710600D01*
X4826199Y42710600D01*
X4769698Y42731165D01*
X4739634Y42783236D01*
X4738299Y42798500D01*
X4738299Y42885564D01*
X4738298Y42885566D01*
X4727956Y42937566D01*
X4727956Y42937567D01*
X4683737Y43003745D01*
X4687164Y43006036D01*
X4668837Y43045339D01*
X4684035Y43102056D01*
X4683737Y43102255D01*
X4684324Y43103134D01*
X4684400Y43103417D01*
X4684957Y43104082D01*
X4688544Y43109452D01*
X4688547Y43109453D01*
X4727955Y43168431D01*
X4738300Y43220439D01*
X4738300Y43345600D01*
X4758865Y43402101D01*
X4810936Y43432165D01*
X4826200Y43433500D01*
X8904508Y43433500D01*
X8961009Y43412935D01*
X8980630Y43389552D01*
X9031268Y43301843D01*
X9116597Y43216514D01*
X9221103Y43156178D01*
X9221105Y43156178D01*
X9221106Y43156177D01*
X9337664Y43124946D01*
X9458335Y43124946D01*
X9458336Y43124946D01*
X9574897Y43156178D01*
X9679403Y43216514D01*
X9764732Y43301843D01*
X9825068Y43406349D01*
X9856300Y43522910D01*
X9856300Y43643582D01*
X9825068Y43760143D01*
X9764732Y43864649D01*
X9679403Y43949978D01*
X9574897Y44010314D01*
X9574896Y44010315D01*
X9574893Y44010316D01*
X9458336Y44041546D01*
X9337664Y44041546D01*
X9221106Y44010316D01*
X9221103Y44010314D01*
X9124040Y43954276D01*
X9080093Y43942500D01*
X4826199Y43942500D01*
X4769698Y43963065D01*
X4739634Y44015136D01*
X4738299Y44030400D01*
X4738299Y44155564D01*
X4738298Y44155566D01*
X4727956Y44207566D01*
X4727956Y44207567D01*
X4725729Y44210900D01*
X4688547Y44266547D01*
X4688546Y44266548D01*
X4683737Y44273745D01*
X4687164Y44276036D01*
X4668837Y44315339D01*
X4684035Y44372056D01*
X4683737Y44372255D01*
X4684324Y44373134D01*
X4684400Y44373417D01*
X4684957Y44374082D01*
X4688544Y44379452D01*
X4688547Y44379453D01*
X4727955Y44438431D01*
X4738300Y44490439D01*
X4738299Y45425560D01*
X4738299Y45425561D01*
X4738299Y45425564D01*
X4738298Y45425566D01*
X4727956Y45477566D01*
X4727956Y45477567D01*
X4683737Y45543745D01*
X4687164Y45546036D01*
X4668837Y45585339D01*
X4684035Y45642056D01*
X4683737Y45642255D01*
X4684324Y45643134D01*
X4684400Y45643417D01*
X4684957Y45644082D01*
X4688544Y45649452D01*
X4688547Y45649453D01*
X4727955Y45708431D01*
X4738300Y45760439D01*
X4738299Y46695560D01*
X4738299Y46695561D01*
X4738299Y46695564D01*
X4738298Y46695566D01*
X4727956Y46747566D01*
X4727956Y46747567D01*
X4683737Y46813745D01*
X4687164Y46816036D01*
X4668837Y46855339D01*
X4684035Y46912056D01*
X4683737Y46912255D01*
X4684324Y46913134D01*
X4684400Y46913417D01*
X4684957Y46914082D01*
X4688544Y46919452D01*
X4688547Y46919453D01*
X4727955Y46978431D01*
X4738300Y47030439D01*
X4738299Y47965560D01*
X4738299Y47965561D01*
X4738299Y47965564D01*
X4738298Y47965566D01*
X4727956Y48017566D01*
X4727956Y48017567D01*
X4722986Y48025005D01*
X4688547Y48076547D01*
X4688546Y48076548D01*
X4683737Y48083745D01*
X4687164Y48086036D01*
X4668837Y48125339D01*
X4684035Y48182056D01*
X4683737Y48182255D01*
X4684324Y48183134D01*
X4684400Y48183417D01*
X4684957Y48184082D01*
X4688544Y48189452D01*
X4688547Y48189453D01*
X4727955Y48248431D01*
X4738300Y48300439D01*
X4738300Y48449099D01*
X9032201Y48449099D01*
X9032201Y48070492D01*
X9042516Y48018625D01*
X9081811Y47959818D01*
X9081817Y47959812D01*
X9140624Y47920517D01*
X9192486Y47910201D01*
X9571100Y47910201D01*
X9571100Y48449099D01*
X9748900Y48449099D01*
X9748900Y47910202D01*
X9748901Y47910201D01*
X10127509Y47910201D01*
X10179375Y47920517D01*
X10238182Y47959812D01*
X10238188Y47959818D01*
X10277481Y48018622D01*
X10278787Y48021774D01*
X10281746Y48025005D01*
X10282295Y48025825D01*
X10282421Y48025741D01*
X10319405Y48066108D01*
X10379017Y48073961D01*
X10429730Y48041659D01*
X10441206Y48021786D01*
X10442514Y48018627D01*
X10481811Y47959818D01*
X10481817Y47959812D01*
X10540624Y47920517D01*
X10592486Y47910201D01*
X10971100Y47910201D01*
X10971100Y48449099D01*
X11148900Y48449099D01*
X11148900Y47910202D01*
X11148901Y47910201D01*
X11527509Y47910201D01*
X11579375Y47920517D01*
X11638182Y47959812D01*
X11638188Y47959818D01*
X11677481Y48018622D01*
X11678787Y48021774D01*
X11681746Y48025005D01*
X11682295Y48025825D01*
X11682421Y48025741D01*
X11719405Y48066108D01*
X11779017Y48073961D01*
X11829730Y48041659D01*
X11841206Y48021786D01*
X11842514Y48018627D01*
X11881811Y47959818D01*
X11881817Y47959812D01*
X11940624Y47920517D01*
X11992486Y47910201D01*
X12371100Y47910201D01*
X12371100Y48449099D01*
X12548900Y48449099D01*
X12548900Y47910202D01*
X12548901Y47910201D01*
X12927509Y47910201D01*
X12979375Y47920517D01*
X13038182Y47959812D01*
X13038188Y47959818D01*
X13077483Y48018625D01*
X13087800Y48070488D01*
X13087800Y48449099D01*
X13087799Y48449100D01*
X12548901Y48449100D01*
X12548900Y48449099D01*
X12371100Y48449099D01*
X12371099Y48449100D01*
X11832201Y48449100D01*
X11822154Y48439053D01*
X11798169Y48427870D01*
X11775265Y48414645D01*
X11771305Y48415344D01*
X11767660Y48413643D01*
X11742099Y48420493D01*
X11716051Y48425085D01*
X11711269Y48428754D01*
X11709582Y48429206D01*
X11708307Y48431027D01*
X11697845Y48439054D01*
X11687799Y48449100D01*
X11148901Y48449100D01*
X11148900Y48449099D01*
X10971100Y48449099D01*
X10971099Y48449100D01*
X10432201Y48449100D01*
X10422154Y48439053D01*
X10398169Y48427870D01*
X10375265Y48414645D01*
X10371305Y48415344D01*
X10367660Y48413643D01*
X10342099Y48420493D01*
X10316051Y48425085D01*
X10311269Y48428754D01*
X10309582Y48429206D01*
X10308307Y48431027D01*
X10297845Y48439054D01*
X10287799Y48449100D01*
X9748901Y48449100D01*
X9748900Y48449099D01*
X9571100Y48449099D01*
X9571099Y48449100D01*
X9032202Y48449100D01*
X9032201Y48449099D01*
X4738300Y48449099D01*
X4738299Y49005513D01*
X9032200Y49005513D01*
X9032200Y48626901D01*
X9032201Y48626900D01*
X9571099Y48626900D01*
X9571100Y48626901D01*
X9571100Y49165799D01*
X9561053Y49175846D01*
X9549870Y49199827D01*
X9536643Y49222737D01*
X9537341Y49226697D01*
X9535642Y49230340D01*
X9542489Y49255893D01*
X9547084Y49281951D01*
X9550753Y49286734D01*
X9551205Y49288418D01*
X9553023Y49289692D01*
X9561054Y49300157D01*
X9571100Y49310203D01*
X9571100Y49849099D01*
X9748900Y49849099D01*
X9748900Y49310202D01*
X9758946Y49300156D01*
X9770128Y49276176D01*
X9783356Y49253265D01*
X9782657Y49249306D01*
X9784357Y49245662D01*
X9777509Y49220110D01*
X9772915Y49194051D01*
X9769834Y49191466D01*
X9768794Y49187584D01*
X9758947Y49175847D01*
X9748900Y49165800D01*
X9748900Y48626901D01*
X9748901Y48626900D01*
X10287797Y48626900D01*
X10297843Y48636946D01*
X10321823Y48648129D01*
X10344734Y48661356D01*
X10348693Y48660658D01*
X10352337Y48662357D01*
X10377892Y48655510D01*
X10403948Y48650916D01*
X10406532Y48647837D01*
X10410415Y48646796D01*
X10422154Y48636947D01*
X10432201Y48626900D01*
X10971099Y48626900D01*
X10971100Y48626901D01*
X10971100Y49165799D01*
X10961053Y49175846D01*
X10949870Y49199827D01*
X10936643Y49222737D01*
X10937341Y49226697D01*
X10935642Y49230340D01*
X10942489Y49255893D01*
X10947084Y49281951D01*
X10950753Y49286734D01*
X10951205Y49288418D01*
X10953023Y49289692D01*
X10961054Y49300157D01*
X10971100Y49310203D01*
X10971100Y49849099D01*
X11148900Y49849099D01*
X11148900Y49310202D01*
X11158946Y49300156D01*
X11170128Y49276176D01*
X11183356Y49253265D01*
X11182657Y49249306D01*
X11184357Y49245662D01*
X11177509Y49220110D01*
X11172915Y49194051D01*
X11169834Y49191466D01*
X11168794Y49187584D01*
X11158947Y49175847D01*
X11148900Y49165800D01*
X11148900Y48626901D01*
X11148901Y48626900D01*
X11687797Y48626900D01*
X11697843Y48636946D01*
X11721823Y48648129D01*
X11744734Y48661356D01*
X11748693Y48660658D01*
X11752337Y48662357D01*
X11777892Y48655510D01*
X11803948Y48650916D01*
X11806532Y48647837D01*
X11810415Y48646796D01*
X11822154Y48636947D01*
X11832201Y48626900D01*
X12371099Y48626900D01*
X12371100Y48626901D01*
X12371100Y49165799D01*
X12361053Y49175846D01*
X12349870Y49199827D01*
X12336643Y49222737D01*
X12337341Y49226697D01*
X12335642Y49230340D01*
X12342489Y49255893D01*
X12347084Y49281951D01*
X12350753Y49286734D01*
X12351205Y49288418D01*
X12353023Y49289692D01*
X12361054Y49300157D01*
X12371100Y49310203D01*
X12371100Y49849099D01*
X12548900Y49849099D01*
X12548900Y49310202D01*
X12558946Y49300156D01*
X12570128Y49276176D01*
X12583356Y49253265D01*
X12582657Y49249306D01*
X12584357Y49245662D01*
X12577509Y49220110D01*
X12572915Y49194051D01*
X12569834Y49191466D01*
X12568794Y49187584D01*
X12558947Y49175847D01*
X12548900Y49165800D01*
X12548900Y48626901D01*
X12548901Y48626900D01*
X13087798Y48626900D01*
X13087799Y48626901D01*
X13087799Y49005509D01*
X13077483Y49057376D01*
X13038188Y49116183D01*
X13038182Y49116189D01*
X12979373Y49155485D01*
X12976220Y49156791D01*
X12972990Y49159750D01*
X12972175Y49160295D01*
X12972258Y49160421D01*
X12931889Y49197411D01*
X12924040Y49257024D01*
X12956346Y49307735D01*
X12976220Y49319209D01*
X12979373Y49320516D01*
X13038182Y49359812D01*
X13038188Y49359818D01*
X13077483Y49418625D01*
X13087800Y49470488D01*
X13087800Y49849099D01*
X13087799Y49849100D01*
X12548901Y49849100D01*
X12548900Y49849099D01*
X12371100Y49849099D01*
X12371099Y49849100D01*
X11832201Y49849100D01*
X11822154Y49839053D01*
X11798169Y49827870D01*
X11775265Y49814645D01*
X11771305Y49815344D01*
X11767660Y49813643D01*
X11742099Y49820493D01*
X11716051Y49825085D01*
X11711269Y49828754D01*
X11709582Y49829206D01*
X11708307Y49831027D01*
X11697845Y49839054D01*
X11687799Y49849100D01*
X11148901Y49849100D01*
X11148900Y49849099D01*
X10971100Y49849099D01*
X10971099Y49849100D01*
X10432201Y49849100D01*
X10422154Y49839053D01*
X10398169Y49827870D01*
X10375265Y49814645D01*
X10371305Y49815344D01*
X10367660Y49813643D01*
X10342099Y49820493D01*
X10316051Y49825085D01*
X10311269Y49828754D01*
X10309582Y49829206D01*
X10308307Y49831027D01*
X10297845Y49839054D01*
X10287799Y49849100D01*
X9748901Y49849100D01*
X9748900Y49849099D01*
X9571100Y49849099D01*
X9571099Y49849100D01*
X9032202Y49849100D01*
X9032201Y49849099D01*
X9032201Y49470492D01*
X9042516Y49418625D01*
X9081811Y49359818D01*
X9081817Y49359812D01*
X9140623Y49320518D01*
X9143775Y49319212D01*
X9147003Y49316254D01*
X9147825Y49315705D01*
X9147740Y49315579D01*
X9188108Y49278593D01*
X9195959Y49218981D01*
X9163656Y49168268D01*
X9143788Y49156795D01*
X9140627Y49155486D01*
X9081817Y49116189D01*
X9081811Y49116183D01*
X9042516Y49057376D01*
X9032200Y49005513D01*
X4738299Y49005513D01*
X4738299Y49235560D01*
X4738299Y49235561D01*
X4738299Y49235564D01*
X4738298Y49235566D01*
X4727956Y49287566D01*
X4727956Y49287567D01*
X4727955Y49287569D01*
X4688547Y49346547D01*
X4688546Y49346548D01*
X4683737Y49353745D01*
X4687164Y49356036D01*
X4668837Y49395339D01*
X4684035Y49452056D01*
X4683737Y49452255D01*
X4684324Y49453134D01*
X4684400Y49453417D01*
X4684957Y49454082D01*
X4688544Y49459452D01*
X4688547Y49459453D01*
X4727955Y49518431D01*
X4738300Y49570439D01*
X4738299Y50405513D01*
X9032200Y50405513D01*
X9032200Y50026901D01*
X9032201Y50026900D01*
X9571099Y50026900D01*
X9571100Y50026901D01*
X9571100Y50565799D01*
X9561053Y50575846D01*
X9549870Y50599827D01*
X9536643Y50622737D01*
X9537341Y50626697D01*
X9535642Y50630340D01*
X9542489Y50655893D01*
X9547084Y50681951D01*
X9550753Y50686734D01*
X9551205Y50688418D01*
X9553023Y50689692D01*
X9561054Y50700157D01*
X9571100Y50710203D01*
X9571100Y51249099D01*
X9748900Y51249099D01*
X9748900Y50710202D01*
X9758946Y50700156D01*
X9770128Y50676176D01*
X9783356Y50653265D01*
X9782657Y50649306D01*
X9784357Y50645662D01*
X9777509Y50620110D01*
X9772915Y50594051D01*
X9769834Y50591466D01*
X9768794Y50587584D01*
X9758947Y50575847D01*
X9748900Y50565800D01*
X9748900Y50026901D01*
X9748901Y50026900D01*
X10287797Y50026900D01*
X10297843Y50036946D01*
X10321823Y50048129D01*
X10344734Y50061356D01*
X10348693Y50060658D01*
X10352337Y50062357D01*
X10377892Y50055510D01*
X10403948Y50050916D01*
X10406532Y50047837D01*
X10410415Y50046796D01*
X10422154Y50036947D01*
X10432201Y50026900D01*
X10971099Y50026900D01*
X10971100Y50026901D01*
X10971100Y50565799D01*
X10961053Y50575846D01*
X10949870Y50599827D01*
X10936643Y50622737D01*
X10937341Y50626697D01*
X10935642Y50630340D01*
X10942489Y50655893D01*
X10947084Y50681951D01*
X10950753Y50686734D01*
X10951205Y50688418D01*
X10953023Y50689692D01*
X10961054Y50700157D01*
X10971100Y50710203D01*
X10971100Y51249099D01*
X11148900Y51249099D01*
X11148900Y50710202D01*
X11158946Y50700156D01*
X11170128Y50676176D01*
X11183356Y50653265D01*
X11182657Y50649306D01*
X11184357Y50645662D01*
X11177509Y50620110D01*
X11172915Y50594051D01*
X11169834Y50591466D01*
X11168794Y50587584D01*
X11158947Y50575847D01*
X11148900Y50565800D01*
X11148900Y50026901D01*
X11148901Y50026900D01*
X11687797Y50026900D01*
X11697843Y50036946D01*
X11721823Y50048129D01*
X11744734Y50061356D01*
X11748693Y50060658D01*
X11752337Y50062357D01*
X11777892Y50055510D01*
X11803948Y50050916D01*
X11806532Y50047837D01*
X11810415Y50046796D01*
X11822154Y50036947D01*
X11832201Y50026900D01*
X12371099Y50026900D01*
X12371100Y50026901D01*
X12371100Y50565799D01*
X12361053Y50575846D01*
X12349870Y50599827D01*
X12336643Y50622737D01*
X12337341Y50626697D01*
X12335642Y50630340D01*
X12342489Y50655893D01*
X12347084Y50681951D01*
X12350753Y50686734D01*
X12351205Y50688418D01*
X12353023Y50689692D01*
X12361054Y50700157D01*
X12371100Y50710203D01*
X12371100Y51249099D01*
X12548900Y51249099D01*
X12548900Y50710202D01*
X12558946Y50700156D01*
X12570128Y50676176D01*
X12583356Y50653265D01*
X12582657Y50649306D01*
X12584357Y50645662D01*
X12577509Y50620110D01*
X12572915Y50594051D01*
X12569834Y50591466D01*
X12568794Y50587584D01*
X12558947Y50575847D01*
X12548900Y50565800D01*
X12548900Y50026901D01*
X12548901Y50026900D01*
X13087798Y50026900D01*
X13087799Y50026901D01*
X13087799Y50405509D01*
X13077483Y50457376D01*
X13038188Y50516183D01*
X13038182Y50516189D01*
X12979373Y50555485D01*
X12976220Y50556791D01*
X12972990Y50559750D01*
X12972175Y50560295D01*
X12972258Y50560421D01*
X12931889Y50597411D01*
X12924040Y50657024D01*
X12956346Y50707735D01*
X12976220Y50719209D01*
X12979373Y50720516D01*
X13038182Y50759812D01*
X13038188Y50759818D01*
X13077483Y50818625D01*
X13087800Y50870488D01*
X13087800Y51249099D01*
X13087799Y51249100D01*
X12548901Y51249100D01*
X12548900Y51249099D01*
X12371100Y51249099D01*
X12371099Y51249100D01*
X11832201Y51249100D01*
X11822154Y51239053D01*
X11798169Y51227870D01*
X11775265Y51214645D01*
X11771305Y51215344D01*
X11767660Y51213643D01*
X11742099Y51220493D01*
X11716051Y51225085D01*
X11711269Y51228754D01*
X11709582Y51229206D01*
X11708307Y51231027D01*
X11697845Y51239054D01*
X11687799Y51249100D01*
X11148901Y51249100D01*
X11148900Y51249099D01*
X10971100Y51249099D01*
X10971099Y51249100D01*
X10432201Y51249100D01*
X10422154Y51239053D01*
X10398169Y51227870D01*
X10375265Y51214645D01*
X10371305Y51215344D01*
X10367660Y51213643D01*
X10342099Y51220493D01*
X10316051Y51225085D01*
X10311269Y51228754D01*
X10309582Y51229206D01*
X10308307Y51231027D01*
X10297845Y51239054D01*
X10287799Y51249100D01*
X9748901Y51249100D01*
X9748900Y51249099D01*
X9571100Y51249099D01*
X9571099Y51249100D01*
X9032202Y51249100D01*
X9032201Y51249099D01*
X9032201Y50870492D01*
X9042516Y50818625D01*
X9081811Y50759818D01*
X9081817Y50759812D01*
X9140623Y50720518D01*
X9143775Y50719212D01*
X9147003Y50716254D01*
X9147825Y50715705D01*
X9147740Y50715579D01*
X9188108Y50678593D01*
X9195959Y50618981D01*
X9163656Y50568268D01*
X9143788Y50556795D01*
X9140627Y50555486D01*
X9081817Y50516189D01*
X9081811Y50516183D01*
X9042516Y50457376D01*
X9032200Y50405513D01*
X4738299Y50405513D01*
X4738299Y50505560D01*
X4738299Y50505561D01*
X4738299Y50505564D01*
X4738298Y50505566D01*
X4727956Y50557566D01*
X4727956Y50557567D01*
X4727955Y50557569D01*
X4688547Y50616547D01*
X4688546Y50616548D01*
X4683737Y50623745D01*
X4687164Y50626036D01*
X4668837Y50665339D01*
X4684035Y50722056D01*
X4683737Y50722255D01*
X4684324Y50723134D01*
X4684400Y50723417D01*
X4684957Y50724082D01*
X4688544Y50729452D01*
X4688547Y50729453D01*
X4727955Y50788431D01*
X4738300Y50840439D01*
X4738299Y51775560D01*
X4738299Y51775561D01*
X4738299Y51775563D01*
X4737100Y51781590D01*
X4737099Y51781592D01*
X4732342Y51805513D01*
X9032200Y51805513D01*
X9032200Y51426901D01*
X9032201Y51426900D01*
X9571099Y51426900D01*
X9571100Y51426901D01*
X9571100Y51965799D01*
X9748900Y51965799D01*
X9748900Y51426901D01*
X9748901Y51426900D01*
X10287797Y51426900D01*
X10297843Y51436946D01*
X10321823Y51448129D01*
X10344734Y51461356D01*
X10348693Y51460658D01*
X10352337Y51462357D01*
X10377892Y51455510D01*
X10403948Y51450916D01*
X10406532Y51447837D01*
X10410415Y51446796D01*
X10422154Y51436947D01*
X10432201Y51426900D01*
X10971099Y51426900D01*
X10971100Y51426901D01*
X10971100Y51965799D01*
X11148900Y51965799D01*
X11148900Y51426901D01*
X11148901Y51426900D01*
X11687797Y51426900D01*
X11697843Y51436946D01*
X11721823Y51448129D01*
X11744734Y51461356D01*
X11748693Y51460658D01*
X11752337Y51462357D01*
X11777892Y51455510D01*
X11803948Y51450916D01*
X11806532Y51447837D01*
X11810415Y51446796D01*
X11822154Y51436947D01*
X11832201Y51426900D01*
X12371099Y51426900D01*
X12371100Y51426901D01*
X12371100Y51965799D01*
X12548900Y51965799D01*
X12548900Y51426901D01*
X12548901Y51426900D01*
X13087798Y51426900D01*
X13087799Y51426901D01*
X13087799Y51805509D01*
X13077483Y51857376D01*
X13038188Y51916183D01*
X13038182Y51916189D01*
X12979375Y51955484D01*
X12927513Y51965800D01*
X12548901Y51965800D01*
X12548900Y51965799D01*
X12371100Y51965799D01*
X12371099Y51965800D01*
X11992486Y51965800D01*
X11992484Y51965799D01*
X11940628Y51955486D01*
X11940624Y51955484D01*
X11881817Y51916189D01*
X11881811Y51916183D01*
X11842515Y51857374D01*
X11841208Y51854218D01*
X11838248Y51850989D01*
X11837705Y51850175D01*
X11837579Y51850259D01*
X11800586Y51809889D01*
X11740973Y51802042D01*
X11690263Y51834349D01*
X11678792Y51854218D01*
X11677484Y51857374D01*
X11638188Y51916183D01*
X11638182Y51916189D01*
X11579375Y51955484D01*
X11527513Y51965800D01*
X11148901Y51965800D01*
X11148900Y51965799D01*
X10971100Y51965799D01*
X10971099Y51965800D01*
X10592486Y51965800D01*
X10592484Y51965799D01*
X10540628Y51955486D01*
X10540624Y51955484D01*
X10481817Y51916189D01*
X10481811Y51916183D01*
X10442515Y51857374D01*
X10441208Y51854218D01*
X10438248Y51850989D01*
X10437705Y51850175D01*
X10437579Y51850259D01*
X10400586Y51809889D01*
X10340973Y51802042D01*
X10290263Y51834349D01*
X10278792Y51854218D01*
X10277484Y51857374D01*
X10238188Y51916183D01*
X10238182Y51916189D01*
X10179375Y51955484D01*
X10127513Y51965800D01*
X9748901Y51965800D01*
X9748900Y51965799D01*
X9571100Y51965799D01*
X9571099Y51965800D01*
X9192486Y51965800D01*
X9192484Y51965799D01*
X9140628Y51955486D01*
X9140624Y51955484D01*
X9081817Y51916189D01*
X9081811Y51916183D01*
X9042516Y51857376D01*
X9032200Y51805513D01*
X4732342Y51805513D01*
X4727955Y51827569D01*
X4688547Y51886547D01*
X4684932Y51888963D01*
X4677341Y51904587D01*
X4675674Y51920677D01*
X4668837Y51935339D01*
X4672672Y51949654D01*
X4671146Y51964394D01*
X4680213Y51977793D01*
X4684035Y51992056D01*
X4683737Y51992255D01*
X4684324Y51993134D01*
X4684400Y51993417D01*
X4684957Y51994082D01*
X4688544Y51999452D01*
X4688547Y51999453D01*
X4727955Y52058431D01*
X4738300Y52110439D01*
X4738299Y53045560D01*
X4738299Y53045561D01*
X4738299Y53045564D01*
X4738298Y53045566D01*
X4727956Y53097566D01*
X4727956Y53097567D01*
X4683737Y53163745D01*
X4687164Y53166036D01*
X4668837Y53205339D01*
X4684035Y53262056D01*
X4683737Y53262255D01*
X4684324Y53263134D01*
X4684400Y53263417D01*
X4684957Y53264082D01*
X4688544Y53269452D01*
X4688547Y53269453D01*
X4727955Y53328431D01*
X4738300Y53380439D01*
X4738300Y53506100D01*
X4758865Y53562601D01*
X4810936Y53592665D01*
X4826200Y53594000D01*
X20293801Y53594000D01*
X20315258Y53586191D01*
G37*
%TD.AperFunction*%
%TA.AperFunction,Conductor*%
G36*
X2861135Y55541017D02*
G01*
X2881700Y55484516D01*
X2881700Y55375207D01*
X2869924Y55331258D01*
X2848933Y55294901D01*
X2848931Y55294898D01*
X2817700Y55178336D01*
X2817700Y55057665D01*
X2848931Y54941104D01*
X2848932Y54941103D01*
X2869924Y54904743D01*
X2881700Y54860794D01*
X2881700Y54650437D01*
X2881701Y54650435D01*
X2892043Y54598435D01*
X2892043Y54598434D01*
X2936263Y54532255D01*
X2932835Y54529965D01*
X2951163Y54490661D01*
X2935964Y54433945D01*
X2936263Y54433745D01*
X2935675Y54432867D01*
X2935600Y54432583D01*
X2935042Y54431919D01*
X2892045Y54367569D01*
X2881700Y54315560D01*
X2881700Y53380437D01*
X2881701Y53380435D01*
X2892043Y53328435D01*
X2892043Y53328434D01*
X2936263Y53262255D01*
X2932835Y53259965D01*
X2951163Y53220661D01*
X2935964Y53163945D01*
X2936263Y53163745D01*
X2935675Y53162867D01*
X2935600Y53162583D01*
X2935042Y53161919D01*
X2892045Y53097569D01*
X2881700Y53045560D01*
X2881700Y52110437D01*
X2881701Y52110435D01*
X2892043Y52058435D01*
X2892043Y52058434D01*
X2936263Y51992255D01*
X2932835Y51989965D01*
X2951163Y51950661D01*
X2935964Y51893945D01*
X2936263Y51893745D01*
X2935675Y51892867D01*
X2935600Y51892583D01*
X2935042Y51891919D01*
X2931453Y51886547D01*
X2892045Y51827569D01*
X2881701Y51775563D01*
X2881700Y51775560D01*
X2881700Y50840437D01*
X2881701Y50840435D01*
X2892043Y50788435D01*
X2892043Y50788434D01*
X2936263Y50722255D01*
X2932835Y50719965D01*
X2951163Y50680661D01*
X2935964Y50623945D01*
X2936263Y50623745D01*
X2935675Y50622867D01*
X2935600Y50622583D01*
X2935042Y50621919D01*
X2892045Y50557569D01*
X2881700Y50505560D01*
X2881700Y49570437D01*
X2881701Y49570435D01*
X2892043Y49518435D01*
X2892043Y49518434D01*
X2892044Y49518432D01*
X2892045Y49518431D01*
X2927006Y49466108D01*
X2936263Y49452255D01*
X2932835Y49449965D01*
X2951163Y49410661D01*
X2935964Y49353945D01*
X2936263Y49353745D01*
X2935675Y49352867D01*
X2935600Y49352583D01*
X2935042Y49351919D01*
X2892045Y49287569D01*
X2881700Y49235560D01*
X2881700Y49110400D01*
X2861135Y49053899D01*
X2809064Y49023835D01*
X2793800Y49022500D01*
X1166200Y49022500D01*
X1109699Y49043065D01*
X1079635Y49095136D01*
X1078300Y49110400D01*
X1078299Y49767564D01*
X1078298Y49767566D01*
X1067956Y49819566D01*
X1067956Y49819567D01*
X1067955Y49819569D01*
X1028547Y49878547D01*
X969569Y49917955D01*
X917561Y49928300D01*
X917559Y49928300D01*
X-255972Y49928300D01*
X-312473Y49948865D01*
X-318127Y49954045D01*
X-455767Y50091685D01*
X-481178Y50146179D01*
X-465615Y50204257D01*
X-427250Y50235049D01*
X-422433Y50237045D01*
X-422431Y50237045D01*
X-363453Y50276453D01*
X-324045Y50335431D01*
X-313700Y50387439D01*
X-313701Y51212560D01*
X-313701Y51212561D01*
X-313701Y51212564D01*
X-313702Y51212566D01*
X-324044Y51264566D01*
X-324046Y51264571D01*
X-345458Y51296617D01*
X-359749Y51355021D01*
X-345457Y51394288D01*
X-324516Y51425627D01*
X-314200Y51477488D01*
X-314200Y51801099D01*
X-314201Y51801100D01*
X-1209798Y51801100D01*
X-1209799Y51801099D01*
X-1209799Y51477492D01*
X-1199485Y51425627D01*
X-1178543Y51394287D01*
X-1164251Y51335883D01*
X-1178542Y51296618D01*
X-1199955Y51264570D01*
X-1210300Y51212560D01*
X-1210300Y50387437D01*
X-1210299Y50387435D01*
X-1199957Y50335435D01*
X-1199957Y50335434D01*
X-1199956Y50335432D01*
X-1199955Y50335431D01*
X-1160547Y50276453D01*
X-1101569Y50237045D01*
X-1087251Y50234197D01*
X-1035850Y50203008D01*
X-1016500Y50147987D01*
X-1016500Y49987378D01*
X-1010629Y49973204D01*
X-1008006Y49913134D01*
X-1024369Y49886167D01*
X-1023737Y49885745D01*
X-1028547Y49878548D01*
X-1028547Y49878547D01*
X-1054935Y49839054D01*
X-1067955Y49819569D01*
X-1078300Y49767560D01*
X-1078300Y48732437D01*
X-1078299Y48732435D01*
X-1067957Y48680435D01*
X-1067957Y48680434D01*
X-1067956Y48680432D01*
X-1067955Y48680431D01*
X-1028547Y48621453D01*
X-969569Y48582045D01*
X-917561Y48571700D01*
X282055Y48571701D01*
X330892Y48556886D01*
X337835Y48552247D01*
X337837Y48552245D01*
X431377Y48513499D01*
X542854Y48513499D01*
X542862Y48513500D01*
X2793801Y48513500D01*
X2850302Y48492935D01*
X2880366Y48440864D01*
X2881701Y48425600D01*
X2881701Y48300435D01*
X2892043Y48248435D01*
X2892043Y48248434D01*
X2936263Y48182255D01*
X2932835Y48179965D01*
X2951163Y48140661D01*
X2935964Y48083945D01*
X2936263Y48083745D01*
X2935675Y48082867D01*
X2935600Y48082583D01*
X2935042Y48081919D01*
X2892045Y48017569D01*
X2881700Y47965560D01*
X2881700Y47840400D01*
X2861135Y47783899D01*
X2809064Y47753835D01*
X2793800Y47752500D01*
X808862Y47752500D01*
X808854Y47752501D01*
X798623Y47752501D01*
X697377Y47752501D01*
X603838Y47713756D01*
X603835Y47713754D01*
X344125Y47454045D01*
X289632Y47428634D01*
X281971Y47428300D01*
X-917564Y47428300D01*
X-917566Y47428299D01*
X-969566Y47417957D01*
X-969567Y47417957D01*
X-1028546Y47378548D01*
X-1028548Y47378546D01*
X-1067955Y47319569D01*
X-1078300Y47267560D01*
X-1078300Y46232437D01*
X-1078299Y46232435D01*
X-1067957Y46180435D01*
X-1067957Y46180434D01*
X-1067956Y46180432D01*
X-1067955Y46180431D01*
X-1028547Y46121453D01*
X-969569Y46082045D01*
X-917561Y46071700D01*
X-474429Y46071701D01*
X-449568Y46062653D01*
X-424012Y46055804D01*
X-421707Y46052512D01*
X-417928Y46051136D01*
X-404698Y46028220D01*
X-389524Y46006551D01*
X-389875Y46002547D01*
X-387864Y45999065D01*
X-392460Y45973004D01*
X-394765Y45946653D01*
X-397894Y45942185D01*
X-398305Y45939851D01*
X-412274Y45921646D01*
X-522875Y45811045D01*
X-577369Y45785634D01*
X-585030Y45785300D01*
X-1049564Y45785300D01*
X-1049566Y45785299D01*
X-1101566Y45774957D01*
X-1101567Y45774957D01*
X-1160546Y45735548D01*
X-1160548Y45735546D01*
X-1199955Y45676569D01*
X-1206605Y45643134D01*
X-1210300Y45624560D01*
X-1210300Y44799437D01*
X-1210299Y44799435D01*
X-1199957Y44747435D01*
X-1199957Y44747434D01*
X-1178542Y44715384D01*
X-1164252Y44656980D01*
X-1178543Y44617715D01*
X-1199484Y44586375D01*
X-1209800Y44534513D01*
X-1209800Y44210901D01*
X-1209799Y44210900D01*
X-314202Y44210900D01*
X-314201Y44210901D01*
X-314201Y44534509D01*
X-324517Y44586376D01*
X-345457Y44617714D01*
X-359750Y44676118D01*
X-345458Y44715385D01*
X-324045Y44747431D01*
X-313700Y44799439D01*
X-313701Y45263974D01*
X-293136Y45320474D01*
X-287968Y45326116D01*
X215755Y45829837D01*
X254501Y45923377D01*
X254501Y45983801D01*
X275066Y46040302D01*
X327137Y46070366D01*
X342401Y46071701D01*
X917564Y46071701D01*
X917565Y46071702D01*
X969565Y46082044D01*
X969566Y46082044D01*
X969566Y46082045D01*
X969569Y46082045D01*
X1028547Y46121453D01*
X1067955Y46180431D01*
X1078300Y46232439D01*
X1078299Y47155601D01*
X1098864Y47212101D01*
X1150935Y47242165D01*
X1166199Y47243500D01*
X2793801Y47243500D01*
X2850302Y47222935D01*
X2880366Y47170864D01*
X2881701Y47155600D01*
X2881701Y47030435D01*
X2892043Y46978435D01*
X2892043Y46978434D01*
X2936263Y46912255D01*
X2932835Y46909965D01*
X2951163Y46870661D01*
X2935964Y46813945D01*
X2936263Y46813745D01*
X2935675Y46812867D01*
X2935600Y46812583D01*
X2935042Y46811919D01*
X2892045Y46747569D01*
X2881700Y46695560D01*
X2881700Y45760437D01*
X2881701Y45760435D01*
X2892043Y45708435D01*
X2892043Y45708434D01*
X2936263Y45642255D01*
X2932835Y45639965D01*
X2951163Y45600661D01*
X2935964Y45543945D01*
X2936263Y45543745D01*
X2935675Y45542867D01*
X2935600Y45542583D01*
X2935042Y45541919D01*
X2892045Y45477569D01*
X2881700Y45425560D01*
X2881700Y44490437D01*
X2881701Y44490435D01*
X2892043Y44438435D01*
X2892043Y44438434D01*
X2936263Y44372255D01*
X2932835Y44369965D01*
X2951163Y44330661D01*
X2935964Y44273945D01*
X2936263Y44273745D01*
X2935675Y44272867D01*
X2935600Y44272583D01*
X2935042Y44271919D01*
X2892045Y44207569D01*
X2881700Y44155560D01*
X2881700Y43220437D01*
X2881701Y43220435D01*
X2892043Y43168435D01*
X2892043Y43168434D01*
X2936263Y43102255D01*
X2932835Y43099965D01*
X2951163Y43060661D01*
X2935964Y43003945D01*
X2936263Y43003745D01*
X2935675Y43002867D01*
X2935600Y43002583D01*
X2935042Y43001919D01*
X2892045Y42937569D01*
X2881700Y42885560D01*
X2881700Y41950437D01*
X2881701Y41950435D01*
X2892043Y41898435D01*
X2892043Y41898434D01*
X2936263Y41832255D01*
X2932835Y41829965D01*
X2951163Y41790661D01*
X2935964Y41733945D01*
X2936263Y41733745D01*
X2935675Y41732867D01*
X2935600Y41732583D01*
X2935042Y41731919D01*
X2892045Y41667569D01*
X2881700Y41615560D01*
X2881700Y40680437D01*
X2881701Y40680435D01*
X2892043Y40628435D01*
X2892043Y40628434D01*
X2892044Y40628432D01*
X2892045Y40628431D01*
X2931453Y40569453D01*
X2990431Y40530045D01*
X3042439Y40519700D01*
X4577560Y40519701D01*
X4577563Y40519701D01*
X4577565Y40519702D01*
X4629565Y40530044D01*
X4629566Y40530044D01*
X4629566Y40530045D01*
X4629569Y40530045D01*
X4688547Y40569453D01*
X4727955Y40628431D01*
X4738300Y40680439D01*
X4738300Y40767500D01*
X4746109Y40788958D01*
X4750076Y40811450D01*
X4756152Y40816549D01*
X4758865Y40824001D01*
X4778641Y40835420D01*
X4796136Y40850099D01*
X4807553Y40852113D01*
X4810936Y40854065D01*
X4826200Y40855400D01*
X4904737Y40855400D01*
X4961238Y40834835D01*
X4991302Y40782764D01*
X4980861Y40723550D01*
X4977826Y40718671D01*
X4967762Y40703608D01*
X4957045Y40687569D01*
X4946700Y40635560D01*
X4946700Y39100437D01*
X4946701Y39100435D01*
X4957043Y39048435D01*
X4957043Y39048434D01*
X4957044Y39048432D01*
X4957045Y39048431D01*
X4996453Y38989453D01*
X5055431Y38950045D01*
X5107439Y38939700D01*
X6042560Y38939701D01*
X6042563Y38939701D01*
X6042565Y38939702D01*
X6094565Y38950044D01*
X6094566Y38950044D01*
X6094566Y38950045D01*
X6094569Y38950045D01*
X6153547Y38989453D01*
X6153547Y38989454D01*
X6160745Y38994263D01*
X6163035Y38990836D01*
X6202339Y39009163D01*
X6259055Y38993965D01*
X6259255Y38994263D01*
X6260133Y38993676D01*
X6260417Y38993600D01*
X6261081Y38993043D01*
X6266452Y38989455D01*
X6266453Y38989453D01*
X6325431Y38950045D01*
X6377439Y38939700D01*
X7312560Y38939701D01*
X7312563Y38939701D01*
X7312565Y38939702D01*
X7364565Y38950044D01*
X7364566Y38950044D01*
X7364566Y38950045D01*
X7364569Y38950045D01*
X7423547Y38989453D01*
X7423547Y38989454D01*
X7430745Y38994263D01*
X7433035Y38990836D01*
X7472339Y39009163D01*
X7529055Y38993965D01*
X7529255Y38994263D01*
X7530133Y38993676D01*
X7530417Y38993600D01*
X7531081Y38993043D01*
X7536452Y38989455D01*
X7536453Y38989453D01*
X7595431Y38950045D01*
X7647439Y38939700D01*
X7772600Y38939701D01*
X7829101Y38919137D01*
X7859164Y38867065D01*
X7860500Y38851801D01*
X7860500Y38517045D01*
X7839935Y38460544D01*
X7834755Y38454890D01*
X7761269Y38381405D01*
X7700930Y38276894D01*
X7669700Y38160336D01*
X7669700Y38039665D01*
X7700930Y37923107D01*
X7700931Y37923104D01*
X7700932Y37923103D01*
X7761268Y37818597D01*
X7846597Y37733268D01*
X7951103Y37672932D01*
X7951105Y37672932D01*
X7951106Y37672931D01*
X8067664Y37641700D01*
X8188335Y37641700D01*
X8188336Y37641700D01*
X8304897Y37672932D01*
X8409403Y37733268D01*
X8494732Y37818597D01*
X8555068Y37923103D01*
X8586300Y38039664D01*
X8586300Y38160336D01*
X8555068Y38276897D01*
X8494732Y38381403D01*
X8409403Y38466732D01*
X8409402Y38466733D01*
X8404836Y38470236D01*
X8406608Y38472546D01*
X8374798Y38510464D01*
X8369500Y38540519D01*
X8369500Y38851801D01*
X8390065Y38908302D01*
X8442136Y38938366D01*
X8457400Y38939701D01*
X8582564Y38939701D01*
X8582565Y38939702D01*
X8634565Y38950044D01*
X8634566Y38950044D01*
X8634566Y38950045D01*
X8634569Y38950045D01*
X8693547Y38989453D01*
X8693547Y38989454D01*
X8700745Y38994263D01*
X8703035Y38990836D01*
X8742339Y39009163D01*
X8799055Y38993965D01*
X8799255Y38994263D01*
X8800133Y38993676D01*
X8800417Y38993600D01*
X8801081Y38993043D01*
X8806452Y38989455D01*
X8806453Y38989453D01*
X8865431Y38950045D01*
X8917439Y38939700D01*
X9852560Y38939701D01*
X9852563Y38939701D01*
X9852565Y38939702D01*
X9904565Y38950044D01*
X9904566Y38950044D01*
X9904566Y38950045D01*
X9904569Y38950045D01*
X9963547Y38989453D01*
X9963547Y38989454D01*
X9970745Y38994263D01*
X9973035Y38990836D01*
X10012339Y39009163D01*
X10069055Y38993965D01*
X10069255Y38994263D01*
X10070133Y38993676D01*
X10070417Y38993600D01*
X10071081Y38993043D01*
X10076452Y38989455D01*
X10076453Y38989453D01*
X10135431Y38950045D01*
X10187439Y38939700D01*
X11122560Y38939701D01*
X11122563Y38939701D01*
X11122565Y38939702D01*
X11174565Y38950044D01*
X11174566Y38950044D01*
X11174566Y38950045D01*
X11174569Y38950045D01*
X11233547Y38989453D01*
X11233547Y38989454D01*
X11240745Y38994263D01*
X11243035Y38990836D01*
X11282339Y39009163D01*
X11339055Y38993965D01*
X11339255Y38994263D01*
X11340133Y38993676D01*
X11340417Y38993600D01*
X11341081Y38993043D01*
X11346452Y38989455D01*
X11346453Y38989453D01*
X11405431Y38950045D01*
X11457439Y38939700D01*
X12392560Y38939701D01*
X12392563Y38939701D01*
X12392565Y38939702D01*
X12444565Y38950044D01*
X12444566Y38950044D01*
X12444566Y38950045D01*
X12444569Y38950045D01*
X12503547Y38989453D01*
X12503547Y38989454D01*
X12510745Y38994263D01*
X12513035Y38990836D01*
X12552339Y39009163D01*
X12609055Y38993965D01*
X12609255Y38994263D01*
X12610133Y38993676D01*
X12610417Y38993600D01*
X12611081Y38993043D01*
X12616452Y38989455D01*
X12616453Y38989453D01*
X12675431Y38950045D01*
X12727439Y38939700D01*
X13662560Y38939701D01*
X13662563Y38939701D01*
X13662565Y38939702D01*
X13714565Y38950044D01*
X13714566Y38950044D01*
X13714566Y38950045D01*
X13714569Y38950045D01*
X13773547Y38989453D01*
X13773547Y38989454D01*
X13780745Y38994263D01*
X13783035Y38990836D01*
X13822339Y39009163D01*
X13879055Y38993965D01*
X13879255Y38994263D01*
X13880133Y38993676D01*
X13880417Y38993600D01*
X13881081Y38993043D01*
X13886452Y38989455D01*
X13886453Y38989453D01*
X13945431Y38950045D01*
X13997439Y38939700D01*
X14122600Y38939701D01*
X14179101Y38919137D01*
X14209164Y38867065D01*
X14210500Y38851801D01*
X14210500Y38517045D01*
X14189935Y38460544D01*
X14184755Y38454890D01*
X14111269Y38381405D01*
X14050930Y38276894D01*
X14019700Y38160336D01*
X14019700Y38039665D01*
X14050930Y37923107D01*
X14050931Y37923104D01*
X14050932Y37923103D01*
X14111268Y37818597D01*
X14196597Y37733268D01*
X14301103Y37672932D01*
X14301105Y37672932D01*
X14301106Y37672931D01*
X14417664Y37641700D01*
X14538335Y37641700D01*
X14538336Y37641700D01*
X14654897Y37672932D01*
X14759403Y37733268D01*
X14844732Y37818597D01*
X14905068Y37923103D01*
X14936300Y38039664D01*
X14936300Y38160336D01*
X14905068Y38276897D01*
X14844732Y38381403D01*
X14759403Y38466732D01*
X14759402Y38466733D01*
X14754836Y38470236D01*
X14756608Y38472546D01*
X14724798Y38510464D01*
X14719500Y38540519D01*
X14719500Y38851801D01*
X14740065Y38908302D01*
X14792136Y38938366D01*
X14807400Y38939701D01*
X14932564Y38939701D01*
X14932565Y38939702D01*
X14984565Y38950044D01*
X14984566Y38950044D01*
X14984566Y38950045D01*
X14984569Y38950045D01*
X15043547Y38989453D01*
X15043547Y38989454D01*
X15050745Y38994263D01*
X15053035Y38990836D01*
X15092339Y39009163D01*
X15149055Y38993965D01*
X15149255Y38994263D01*
X15150133Y38993676D01*
X15150417Y38993600D01*
X15151081Y38993043D01*
X15156452Y38989455D01*
X15156453Y38989453D01*
X15215431Y38950045D01*
X15267439Y38939700D01*
X16202560Y38939701D01*
X16202563Y38939701D01*
X16202565Y38939702D01*
X16254565Y38950044D01*
X16254566Y38950044D01*
X16254566Y38950045D01*
X16254569Y38950045D01*
X16313547Y38989453D01*
X16313547Y38989454D01*
X16320745Y38994263D01*
X16323035Y38990836D01*
X16362339Y39009163D01*
X16419055Y38993965D01*
X16419255Y38994263D01*
X16420133Y38993676D01*
X16420417Y38993600D01*
X16421081Y38993043D01*
X16426452Y38989455D01*
X16426453Y38989453D01*
X16485431Y38950045D01*
X16537439Y38939700D01*
X17472560Y38939701D01*
X17472563Y38939701D01*
X17472565Y38939702D01*
X17524565Y38950044D01*
X17524566Y38950044D01*
X17524566Y38950045D01*
X17524569Y38950045D01*
X17583547Y38989453D01*
X17583547Y38989454D01*
X17590745Y38994263D01*
X17593035Y38990836D01*
X17632339Y39009163D01*
X17689055Y38993965D01*
X17689255Y38994263D01*
X17690133Y38993676D01*
X17690417Y38993600D01*
X17691081Y38993043D01*
X17696452Y38989455D01*
X17696453Y38989453D01*
X17755431Y38950045D01*
X17807439Y38939700D01*
X18314572Y38939701D01*
X18371073Y38919136D01*
X18401137Y38867065D01*
X18390696Y38807851D01*
X18376727Y38789646D01*
X12379327Y32792245D01*
X12324833Y32766834D01*
X12317172Y32766500D01*
X7034045Y32766500D01*
X6977544Y32787065D01*
X6971890Y32792245D01*
X6885404Y32878731D01*
X6885403Y32878732D01*
X6780897Y32939068D01*
X6780896Y32939069D01*
X6780893Y32939070D01*
X6664336Y32970300D01*
X6543664Y32970300D01*
X6427106Y32939070D01*
X6322595Y32878731D01*
X6237269Y32793405D01*
X6176930Y32688894D01*
X6145700Y32572336D01*
X6145700Y32452033D01*
X6125135Y32395532D01*
X6073064Y32365468D01*
X6013850Y32375909D01*
X5995645Y32389878D01*
X-1624755Y40010278D01*
X-1650166Y40064772D01*
X-1650500Y40072433D01*
X-1650500Y44033099D01*
X-1209799Y44033099D01*
X-1209799Y43709492D01*
X-1199484Y43657625D01*
X-1160189Y43598818D01*
X-1160183Y43598812D01*
X-1101376Y43559517D01*
X-1049514Y43549201D01*
X-850900Y43549201D01*
X-850900Y44033099D01*
X-673100Y44033099D01*
X-673100Y43549202D01*
X-673099Y43549201D01*
X-474491Y43549201D01*
X-422625Y43559517D01*
X-363818Y43598812D01*
X-363812Y43598818D01*
X-324517Y43657625D01*
X-314200Y43709488D01*
X-314200Y44033099D01*
X-314201Y44033100D01*
X-673099Y44033100D01*
X-673100Y44033099D01*
X-850900Y44033099D01*
X-850901Y44033100D01*
X-1209798Y44033100D01*
X-1209799Y44033099D01*
X-1650500Y44033099D01*
X-1650500Y52302513D01*
X-1209800Y52302513D01*
X-1209800Y51978901D01*
X-1209799Y51978900D01*
X-850901Y51978900D01*
X-850900Y51978901D01*
X-850900Y52462799D01*
X-673100Y52462799D01*
X-673100Y51978901D01*
X-673099Y51978900D01*
X-314202Y51978900D01*
X-314201Y51978901D01*
X-314201Y52302509D01*
X-324517Y52354376D01*
X-363812Y52413183D01*
X-363818Y52413189D01*
X-422625Y52452484D01*
X-474487Y52462800D01*
X-673099Y52462800D01*
X-673100Y52462799D01*
X-850900Y52462799D01*
X-850900Y52462800D01*
X-1049514Y52462800D01*
X-1049516Y52462799D01*
X-1101372Y52452486D01*
X-1101376Y52452484D01*
X-1160183Y52413189D01*
X-1160189Y52413183D01*
X-1199484Y52354376D01*
X-1209800Y52302513D01*
X-1650500Y52302513D01*
X-1650500Y54415567D01*
X-1629935Y54472068D01*
X-1624755Y54477722D01*
X-629722Y55472755D01*
X-575228Y55498166D01*
X-567567Y55498500D01*
X2590224Y55498500D01*
X2590225Y55498500D01*
X2687254Y55524499D01*
X2749853Y55560641D01*
X2809063Y55571081D01*
X2861135Y55541017D01*
G37*
%TD.AperFunction*%
%TD*%
M02*
