%TF.GenerationSoftware,KiCad,Pcbnew,9.0.4*%
%TF.CreationDate,2025-11-04T00:18:31+01:00*%
%TF.ProjectId,SparkFun_Thing_Plus_ESP32-S3,53706172-6b46-4756-9e5f-5468696e675f,rev?*%
%TF.SameCoordinates,Original*%
%TF.FileFunction,Legend,Top*%
%TF.FilePolarity,Positive*%
%FSLAX46Y46*%
G04 Gerber Fmt 4.6, Leading zero omitted, Abs format (unit mm)*
G04 Created by KiCad (PCBNEW 9.0.4) date 2025-11-04 00:18:31*
%MOMM*%
%LPD*%
G01*
G04 APERTURE LIST*
%ADD10C,0.150000*%
%ADD11C,0.200000*%
%ADD12C,0.000000*%
%ADD13C,0.120000*%
%ADD14C,0.203200*%
%ADD15C,0.254000*%
%ADD16C,0.152500*%
G04 APERTURE END LIST*
D10*
X1881819Y47190477D02*
X2881819Y47857143D01*
X1881819Y47857143D02*
X2881819Y47190477D01*
X2881819Y48761905D02*
X2881819Y48190477D01*
X2881819Y48476191D02*
X1881819Y48476191D01*
X1881819Y48476191D02*
X2024676Y48380953D01*
X2024676Y48380953D02*
X2119914Y48285715D01*
X2119914Y48285715D02*
X2167533Y48190477D01*
X-711667Y54509170D02*
X-759286Y54461550D01*
X-759286Y54461550D02*
X-902143Y54413931D01*
X-902143Y54413931D02*
X-997381Y54413931D01*
X-997381Y54413931D02*
X-1140238Y54461550D01*
X-1140238Y54461550D02*
X-1235476Y54556789D01*
X-1235476Y54556789D02*
X-1283095Y54652027D01*
X-1283095Y54652027D02*
X-1330714Y54842503D01*
X-1330714Y54842503D02*
X-1330714Y54985360D01*
X-1330714Y54985360D02*
X-1283095Y55175836D01*
X-1283095Y55175836D02*
X-1235476Y55271074D01*
X-1235476Y55271074D02*
X-1140238Y55366312D01*
X-1140238Y55366312D02*
X-997381Y55413931D01*
X-997381Y55413931D02*
X-902143Y55413931D01*
X-902143Y55413931D02*
X-759286Y55366312D01*
X-759286Y55366312D02*
X-711667Y55318693D01*
X145476Y55080598D02*
X145476Y54413931D01*
X-92619Y55461550D02*
X-330714Y54747265D01*
X-330714Y54747265D02*
X288333Y54747265D01*
X-674667Y43333170D02*
X-722286Y43285550D01*
X-722286Y43285550D02*
X-865143Y43237931D01*
X-865143Y43237931D02*
X-960381Y43237931D01*
X-960381Y43237931D02*
X-1103238Y43285550D01*
X-1103238Y43285550D02*
X-1198476Y43380789D01*
X-1198476Y43380789D02*
X-1246095Y43476027D01*
X-1246095Y43476027D02*
X-1293714Y43666503D01*
X-1293714Y43666503D02*
X-1293714Y43809360D01*
X-1293714Y43809360D02*
X-1246095Y43999836D01*
X-1246095Y43999836D02*
X-1198476Y44095074D01*
X-1198476Y44095074D02*
X-1103238Y44190312D01*
X-1103238Y44190312D02*
X-960381Y44237931D01*
X-960381Y44237931D02*
X-865143Y44237931D01*
X-865143Y44237931D02*
X-722286Y44190312D01*
X-722286Y44190312D02*
X-674667Y44142693D01*
X-103238Y43809360D02*
X-198476Y43856979D01*
X-198476Y43856979D02*
X-246095Y43904598D01*
X-246095Y43904598D02*
X-293714Y43999836D01*
X-293714Y43999836D02*
X-293714Y44047455D01*
X-293714Y44047455D02*
X-246095Y44142693D01*
X-246095Y44142693D02*
X-198476Y44190312D01*
X-198476Y44190312D02*
X-103238Y44237931D01*
X-103238Y44237931D02*
X87238Y44237931D01*
X87238Y44237931D02*
X182476Y44190312D01*
X182476Y44190312D02*
X230095Y44142693D01*
X230095Y44142693D02*
X277714Y44047455D01*
X277714Y44047455D02*
X277714Y43999836D01*
X277714Y43999836D02*
X230095Y43904598D01*
X230095Y43904598D02*
X182476Y43856979D01*
X182476Y43856979D02*
X87238Y43809360D01*
X87238Y43809360D02*
X-103238Y43809360D01*
X-103238Y43809360D02*
X-198476Y43761741D01*
X-198476Y43761741D02*
X-246095Y43714122D01*
X-246095Y43714122D02*
X-293714Y43618884D01*
X-293714Y43618884D02*
X-293714Y43428408D01*
X-293714Y43428408D02*
X-246095Y43333170D01*
X-246095Y43333170D02*
X-198476Y43285550D01*
X-198476Y43285550D02*
X-103238Y43237931D01*
X-103238Y43237931D02*
X87238Y43237931D01*
X87238Y43237931D02*
X182476Y43285550D01*
X182476Y43285550D02*
X230095Y43333170D01*
X230095Y43333170D02*
X277714Y43428408D01*
X277714Y43428408D02*
X277714Y43618884D01*
X277714Y43618884D02*
X230095Y43714122D01*
X230095Y43714122D02*
X182476Y43761741D01*
X182476Y43761741D02*
X87238Y43809360D01*
X11798095Y66530181D02*
X11798095Y65720658D01*
X11798095Y65720658D02*
X11845714Y65625420D01*
X11845714Y65625420D02*
X11893333Y65577800D01*
X11893333Y65577800D02*
X11988571Y65530181D01*
X11988571Y65530181D02*
X12179047Y65530181D01*
X12179047Y65530181D02*
X12274285Y65577800D01*
X12274285Y65577800D02*
X12321904Y65625420D01*
X12321904Y65625420D02*
X12369523Y65720658D01*
X12369523Y65720658D02*
X12369523Y66530181D01*
X12750476Y66530181D02*
X13369523Y66530181D01*
X13369523Y66530181D02*
X13036190Y66149229D01*
X13036190Y66149229D02*
X13179047Y66149229D01*
X13179047Y66149229D02*
X13274285Y66101610D01*
X13274285Y66101610D02*
X13321904Y66053991D01*
X13321904Y66053991D02*
X13369523Y65958753D01*
X13369523Y65958753D02*
X13369523Y65720658D01*
X13369523Y65720658D02*
X13321904Y65625420D01*
X13321904Y65625420D02*
X13274285Y65577800D01*
X13274285Y65577800D02*
X13179047Y65530181D01*
X13179047Y65530181D02*
X12893333Y65530181D01*
X12893333Y65530181D02*
X12798095Y65577800D01*
X12798095Y65577800D02*
X12750476Y65625420D01*
X-4261181Y18110667D02*
X-3546896Y18110667D01*
X-3546896Y18110667D02*
X-3404039Y18063048D01*
X-3404039Y18063048D02*
X-3308800Y17967810D01*
X-3308800Y17967810D02*
X-3261181Y17824953D01*
X-3261181Y17824953D02*
X-3261181Y17729715D01*
X-4261181Y18491620D02*
X-4261181Y19110667D01*
X-4261181Y19110667D02*
X-3880229Y18777334D01*
X-3880229Y18777334D02*
X-3880229Y18920191D01*
X-3880229Y18920191D02*
X-3832610Y19015429D01*
X-3832610Y19015429D02*
X-3784991Y19063048D01*
X-3784991Y19063048D02*
X-3689753Y19110667D01*
X-3689753Y19110667D02*
X-3451658Y19110667D01*
X-3451658Y19110667D02*
X-3356420Y19063048D01*
X-3356420Y19063048D02*
X-3308800Y19015429D01*
X-3308800Y19015429D02*
X-3261181Y18920191D01*
X-3261181Y18920191D02*
X-3261181Y18634477D01*
X-3261181Y18634477D02*
X-3308800Y18539239D01*
X-3308800Y18539239D02*
X-3356420Y18491620D01*
%TO.C,U4*%
D11*
X20455327Y8204760D02*
G75*
G02*
X20255327Y8204760I-100000J0D01*
G01*
X20255327Y8204760D02*
G75*
G02*
X20455327Y8204760I100000J0D01*
G01*
D12*
%TO.C,kibuzzard-65A99A9C*%
G36*
X9385300Y21742400D02*
G01*
X9444831Y21693584D01*
X9465072Y21635244D01*
X9468644Y21562616D01*
X9468644Y21407834D01*
X9625806Y21407834D01*
X9698434Y21404262D01*
X9756775Y21384022D01*
X9805591Y21323300D01*
X9821069Y21207809D01*
X9806781Y21095891D01*
X9760347Y21036359D01*
X9705578Y21016119D01*
X9637713Y21012547D01*
X9468644Y21012547D01*
X9468644Y20855384D01*
X9465072Y20782756D01*
X9444831Y20724416D01*
X9385300Y20675600D01*
X9271000Y20660122D01*
X9159081Y20675600D01*
X9099550Y20725606D01*
X9079309Y20785137D01*
X9075738Y20857766D01*
X9075738Y21012547D01*
X8904288Y21012547D01*
X8836422Y21016119D01*
X8781653Y21036359D01*
X8735219Y21095891D01*
X8720931Y21210191D01*
X8736409Y21324491D01*
X8786416Y21384022D01*
X8847137Y21404262D01*
X8920956Y21407834D01*
X9075738Y21407834D01*
X9075738Y21564997D01*
X9079309Y21637625D01*
X9099550Y21695966D01*
X9159081Y21743591D01*
X9273381Y21757878D01*
X9385300Y21742400D01*
G37*
D13*
%TO.C,R8*%
X18035000Y25563859D02*
X18035000Y25871141D01*
X18795000Y25563859D02*
X18795000Y25871141D01*
D12*
%TO.C,kibuzzard-6569BE28*%
G36*
X14637544Y23731538D02*
G01*
X14673263Y23718837D01*
X14703425Y23681531D01*
X14712950Y23611681D01*
X14703425Y23541831D01*
X14672469Y23504525D01*
X14635956Y23491825D01*
X14590713Y23489444D01*
X14371638Y23489444D01*
X14371638Y22762369D01*
X14369256Y22709187D01*
X14354175Y22667119D01*
X14309725Y22632194D01*
X14227175Y22621081D01*
X14145419Y22632194D01*
X14102556Y22667912D01*
X14088269Y22710775D01*
X14085888Y22763956D01*
X14085888Y23489444D01*
X13865225Y23489444D01*
X13819981Y23491825D01*
X13784263Y23504525D01*
X13754100Y23541831D01*
X13744575Y23613269D01*
X13754100Y23682325D01*
X13785056Y23718837D01*
X13821569Y23731538D01*
X13866813Y23733919D01*
X14592300Y23733919D01*
X14637544Y23731538D01*
G37*
G36*
X12486680Y23725981D02*
G01*
X12553156Y23706931D01*
X12619434Y23675975D01*
X12683331Y23633906D01*
X12740283Y23577748D01*
X12785725Y23504525D01*
X12815491Y23418602D01*
X12825412Y23324344D01*
X12809890Y23205458D01*
X12763324Y23102799D01*
X12685712Y23016369D01*
X12800012Y22863969D01*
X12842875Y22754431D01*
X12766675Y22660769D01*
X12653962Y22617113D01*
X12565062Y22690931D01*
X12395200Y22921119D01*
X12247562Y22921119D01*
X12247562Y22767131D01*
X12245181Y22712363D01*
X12230100Y22669500D01*
X12185650Y22633781D01*
X12101512Y22622669D01*
X12018962Y22633781D01*
X11974512Y22670294D01*
X11959431Y22713950D01*
X11957050Y22768719D01*
X11957050Y23210044D01*
X12247562Y23210044D01*
X12422187Y23210044D01*
X12498387Y23238619D01*
X12534900Y23325931D01*
X12500769Y23408481D01*
X12419012Y23441819D01*
X12247562Y23441819D01*
X12247562Y23210044D01*
X11957050Y23210044D01*
X11957050Y23587869D01*
X11959431Y23641050D01*
X11974512Y23684706D01*
X12018962Y23721219D01*
X12103100Y23732331D01*
X12422187Y23732331D01*
X12486680Y23725981D01*
G37*
G36*
X13396031Y23739210D02*
G01*
X13497101Y23707460D01*
X13579475Y23654544D01*
X13636625Y23572788D01*
X13598525Y23475156D01*
X13504863Y23398163D01*
X13398500Y23427531D01*
X13380244Y23442613D01*
X13358019Y23460869D01*
X13327062Y23472775D01*
X13274675Y23478331D01*
X13215937Y23458488D01*
X13190537Y23410069D01*
X13218319Y23358475D01*
X13281025Y23330694D01*
X13377862Y23310850D01*
X13479463Y23286244D01*
X13569355Y23244969D01*
X13639006Y23184644D01*
X13683655Y23098522D01*
X13698537Y22979856D01*
X13691791Y22904053D01*
X13671550Y22835394D01*
X13602494Y22728237D01*
X13504863Y22657594D01*
X13396119Y22617113D01*
X13290550Y22605206D01*
X13201650Y22612350D01*
X13127037Y22629812D01*
X13065919Y22656006D01*
X13016706Y22686169D01*
X12978606Y22717125D01*
X12950825Y22744906D01*
X12933363Y22767131D01*
X12923837Y22778244D01*
X12884150Y22881431D01*
X12950825Y22983031D01*
X13016794Y23019720D01*
X13085586Y23009137D01*
X13157200Y22951281D01*
X13221494Y22893337D01*
X13284200Y22878256D01*
X13377862Y22901275D01*
X13406438Y22975094D01*
X13365162Y23024306D01*
X13240544Y23061612D01*
X13164939Y23082052D01*
X13104812Y23103681D01*
X13015912Y23154481D01*
X12952412Y23222744D01*
X12914312Y23308469D01*
X12901612Y23411656D01*
X12913431Y23503467D01*
X12948885Y23584165D01*
X13007975Y23653750D01*
X13085057Y23707108D01*
X13174486Y23739122D01*
X13276262Y23749794D01*
X13396031Y23739210D01*
G37*
D14*
%TO.C,J1*%
X7110000Y4146250D02*
X7110000Y2346250D01*
X15750000Y4146250D02*
X15750000Y2346250D01*
D13*
%TO.C,R17*%
X9462500Y12853641D02*
X9462500Y12546359D01*
X10222500Y12853641D02*
X10222500Y12546359D01*
D15*
%TO.C,X1*%
X-1600000Y51500000D02*
X-1600000Y44500000D01*
X-631000Y51500000D02*
X-1600000Y51500000D01*
X-631000Y44500000D02*
X-1600000Y44500000D01*
X1600000Y51500000D02*
X631000Y51500000D01*
X1600000Y51500000D02*
X1600000Y44500000D01*
X1600000Y44500000D02*
X631000Y44500000D01*
D13*
%TO.C,C9*%
X10920000Y14464420D02*
X10920000Y14745580D01*
X11940000Y14464420D02*
X11940000Y14745580D01*
D12*
%TO.C,kibuzzard-6569F8A4*%
G36*
X15359856Y18654713D02*
G01*
X15395575Y18642013D01*
X15425738Y18604706D01*
X15435263Y18534856D01*
X15425738Y18465006D01*
X15394781Y18427700D01*
X15358269Y18415000D01*
X15313025Y18412619D01*
X15093950Y18412619D01*
X15093950Y17685544D01*
X15091569Y17632362D01*
X15076488Y17590294D01*
X15032038Y17555369D01*
X14949488Y17544256D01*
X14867731Y17555369D01*
X14824869Y17591088D01*
X14810581Y17633950D01*
X14808200Y17687131D01*
X14808200Y18412619D01*
X14587538Y18412619D01*
X14542294Y18415000D01*
X14506575Y18427700D01*
X14476413Y18465006D01*
X14466888Y18536444D01*
X14476413Y18605500D01*
X14507369Y18642013D01*
X14543881Y18654713D01*
X14589125Y18657094D01*
X15314613Y18657094D01*
X15359856Y18654713D01*
G37*
G36*
X11841692Y18645893D02*
G01*
X11921596Y18612291D01*
X11991975Y18556288D01*
X12046656Y18484938D01*
X12079464Y18405299D01*
X12090400Y18317369D01*
X12077303Y18224500D01*
X12038012Y18139569D01*
X12101116Y18028047D01*
X12122150Y17906206D01*
X12109715Y17810780D01*
X12074525Y17725584D01*
X12016581Y17650619D01*
X11942762Y17592410D01*
X11859948Y17557485D01*
X11768137Y17545844D01*
X11525250Y17545844D01*
X11379200Y17545844D01*
X11296650Y17556956D01*
X11252200Y17593469D01*
X11237119Y17637919D01*
X11234737Y17693481D01*
X11234737Y17836356D01*
X11525250Y17836356D01*
X11752262Y17836356D01*
X11774487Y17837944D01*
X11799094Y17846675D01*
X11822906Y17873662D01*
X11831637Y17923669D01*
X11811000Y17989550D01*
X11744325Y18004631D01*
X11723687Y18004631D01*
X11633200Y18032413D01*
X11606212Y18126869D01*
X11634787Y18218150D01*
X11731625Y18244344D01*
X11750675Y18244344D01*
X11788775Y18255456D01*
X11799887Y18304669D01*
X11783219Y18353881D01*
X11717337Y18366581D01*
X11525250Y18366581D01*
X11525250Y17836356D01*
X11234737Y17836356D01*
X11234737Y18512631D01*
X11237119Y18565813D01*
X11252200Y18609469D01*
X11296650Y18645981D01*
X11380787Y18657094D01*
X11752262Y18657094D01*
X11841692Y18645893D01*
G37*
G36*
X12832159Y18657838D02*
G01*
X12934950Y18626733D01*
X13029009Y18574891D01*
X13114337Y18502313D01*
X13185180Y18414752D01*
X13235781Y18317964D01*
X13266142Y18211949D01*
X13276262Y18096706D01*
X13266291Y17983448D01*
X13236377Y17878623D01*
X13186519Y17782232D01*
X13116719Y17694275D01*
X13032929Y17621002D01*
X12941102Y17568664D01*
X12841238Y17537261D01*
X12733337Y17526794D01*
X12725400Y17527532D01*
X12622411Y17537112D01*
X12519819Y17568069D01*
X12425561Y17619662D01*
X12339637Y17691894D01*
X12268101Y17778710D01*
X12217003Y17874059D01*
X12186345Y17977941D01*
X12176125Y18090356D01*
X12176668Y18096706D01*
X12466637Y18096706D01*
X12485886Y17990344D01*
X12543631Y17899856D01*
X12627570Y17837944D01*
X12725400Y17817306D01*
X12826405Y17837348D01*
X12910344Y17897475D01*
X12966898Y17987367D01*
X12985750Y18096706D01*
X12966700Y18205252D01*
X12909550Y18295938D01*
X12825809Y18357255D01*
X12726987Y18377694D01*
X12626975Y18357255D01*
X12542837Y18295938D01*
X12485687Y18205252D01*
X12466637Y18096706D01*
X12176668Y18096706D01*
X12186047Y18206442D01*
X12215812Y18313400D01*
X12265422Y18411230D01*
X12334875Y18499931D01*
X12418516Y18573552D01*
X12510691Y18626138D01*
X12611398Y18657689D01*
X12720637Y18668206D01*
X12832159Y18657838D01*
G37*
G36*
X13976747Y18657838D02*
G01*
X14079538Y18626733D01*
X14173597Y18574891D01*
X14258925Y18502313D01*
X14329767Y18414752D01*
X14380369Y18317964D01*
X14410730Y18211949D01*
X14420850Y18096706D01*
X14410879Y17983448D01*
X14380964Y17878623D01*
X14331107Y17782232D01*
X14261306Y17694275D01*
X14177516Y17621002D01*
X14085689Y17568664D01*
X13985825Y17537261D01*
X13877925Y17526794D01*
X13869988Y17527532D01*
X13766998Y17537112D01*
X13664406Y17568069D01*
X13570148Y17619662D01*
X13484225Y17691894D01*
X13412688Y17778710D01*
X13361591Y17874059D01*
X13330932Y17977941D01*
X13320712Y18090356D01*
X13321255Y18096706D01*
X13611225Y18096706D01*
X13630473Y17990344D01*
X13688219Y17899856D01*
X13772158Y17837944D01*
X13869988Y17817306D01*
X13970992Y17837348D01*
X14054931Y17897475D01*
X14111486Y17987367D01*
X14130338Y18096706D01*
X14111287Y18205252D01*
X14054138Y18295938D01*
X13970397Y18357255D01*
X13871575Y18377694D01*
X13771563Y18357255D01*
X13687425Y18295938D01*
X13630275Y18205252D01*
X13611225Y18096706D01*
X13321255Y18096706D01*
X13330634Y18206442D01*
X13360400Y18313400D01*
X13410009Y18411230D01*
X13479462Y18499931D01*
X13563104Y18573552D01*
X13655278Y18626138D01*
X13755985Y18657689D01*
X13865225Y18668206D01*
X13976747Y18657838D01*
G37*
D13*
%TO.C,R13*%
X5868641Y23875000D02*
X5561359Y23875000D01*
X5868641Y23115000D02*
X5561359Y23115000D01*
%TO.C,C2*%
X21230000Y9632836D02*
X21230000Y9417164D01*
X21950000Y9632836D02*
X21950000Y9417164D01*
%TO.C,R16*%
X14768859Y12445000D02*
X15076141Y12445000D01*
X14768859Y11685000D02*
X15076141Y11685000D01*
%TO.C,R11*%
X5335000Y4608859D02*
X5335000Y4916141D01*
X6095000Y4608859D02*
X6095000Y4916141D01*
D14*
%TO.C,SW2*%
X11235000Y25847500D02*
X11235000Y25587500D01*
X11997000Y27117500D02*
X14673000Y27117500D01*
X14673000Y24317500D02*
X11997000Y24317500D01*
X15435000Y25587500D02*
X15435000Y25847500D01*
X14140000Y25717500D02*
G75*
G02*
X12530000Y25717500I-805000J0D01*
G01*
X12530000Y25717500D02*
G75*
G02*
X14140000Y25717500I805000J0D01*
G01*
D12*
%TO.C,kibuzzard-6569BE4A*%
G36*
X13846572Y32923163D02*
G01*
X13900944Y32858869D01*
X14299406Y32034956D01*
X14320838Y31922244D01*
X14232731Y31844456D01*
X14115256Y31821437D01*
X14037469Y31912719D01*
X13964444Y32063531D01*
X13692981Y32063531D01*
X13573919Y32063531D01*
X13500894Y31911131D01*
X13421519Y31823025D01*
X13305631Y31846044D01*
X13216731Y31923038D01*
X13237369Y32034956D01*
X13370701Y32311181D01*
X13692981Y32311181D01*
X13842206Y32311181D01*
X13767594Y32465169D01*
X13692981Y32311181D01*
X13370701Y32311181D01*
X13635831Y32860456D01*
X13691394Y32921575D01*
X13769181Y32944594D01*
X13846572Y32923163D01*
G37*
G36*
X13104813Y32943800D02*
G01*
X13140531Y32931100D01*
X13170694Y32893794D01*
X13180219Y32823944D01*
X13170694Y32754094D01*
X13139738Y32716788D01*
X13103225Y32704088D01*
X13057981Y32701706D01*
X12838906Y32701706D01*
X12838906Y31974631D01*
X12836525Y31921450D01*
X12821444Y31879381D01*
X12776994Y31844456D01*
X12694444Y31833344D01*
X12612688Y31844456D01*
X12569825Y31880175D01*
X12555537Y31923038D01*
X12553156Y31976219D01*
X12553156Y32701706D01*
X12332494Y32701706D01*
X12287250Y32704088D01*
X12251531Y32716788D01*
X12221369Y32754094D01*
X12211844Y32825531D01*
X12221369Y32894588D01*
X12252325Y32931100D01*
X12288838Y32943800D01*
X12334081Y32946181D01*
X13059569Y32946181D01*
X13104813Y32943800D01*
G37*
G36*
X15249525Y32943800D02*
G01*
X15285244Y32931100D01*
X15315406Y32893794D01*
X15324931Y32823944D01*
X15315406Y32754094D01*
X15284450Y32716788D01*
X15247938Y32704088D01*
X15202694Y32701706D01*
X14983619Y32701706D01*
X14983619Y31974631D01*
X14981238Y31921450D01*
X14966156Y31879381D01*
X14921706Y31844456D01*
X14839156Y31833344D01*
X14757400Y31844456D01*
X14714538Y31880175D01*
X14700250Y31923038D01*
X14697869Y31976219D01*
X14697869Y32701706D01*
X14477206Y32701706D01*
X14431963Y32704088D01*
X14396244Y32716788D01*
X14366081Y32754094D01*
X14356556Y32825531D01*
X14366081Y32894588D01*
X14397038Y32931100D01*
X14433550Y32943800D01*
X14478794Y32946181D01*
X15204281Y32946181D01*
X15249525Y32943800D01*
G37*
G36*
X11863299Y32951473D02*
G01*
X11964370Y32919723D01*
X12046744Y32866806D01*
X12103894Y32785050D01*
X12065794Y32687419D01*
X11972131Y32610425D01*
X11865769Y32639794D01*
X11847512Y32654875D01*
X11825288Y32673131D01*
X11794331Y32685038D01*
X11741944Y32690594D01*
X11683206Y32670750D01*
X11657806Y32622331D01*
X11685587Y32570738D01*
X11748294Y32542956D01*
X11845131Y32523113D01*
X11946731Y32498506D01*
X12036623Y32457231D01*
X12106275Y32396906D01*
X12150923Y32310784D01*
X12165806Y32192119D01*
X12159059Y32116316D01*
X12138819Y32047656D01*
X12069762Y31940500D01*
X11972131Y31869856D01*
X11863388Y31829375D01*
X11757819Y31817469D01*
X11668919Y31824613D01*
X11594306Y31842075D01*
X11533188Y31868269D01*
X11483975Y31898431D01*
X11445875Y31929388D01*
X11418094Y31957169D01*
X11400631Y31979394D01*
X11391106Y31990506D01*
X11351419Y32093694D01*
X11418094Y32195294D01*
X11484063Y32231983D01*
X11552855Y32221399D01*
X11624469Y32163544D01*
X11688763Y32105600D01*
X11751469Y32090519D01*
X11845131Y32113538D01*
X11873706Y32187356D01*
X11832431Y32236569D01*
X11707813Y32273875D01*
X11632208Y32294314D01*
X11572081Y32315944D01*
X11483181Y32366744D01*
X11419681Y32435006D01*
X11381581Y32520731D01*
X11368881Y32623919D01*
X11380699Y32715729D01*
X11416153Y32796427D01*
X11475244Y32866013D01*
X11552326Y32919370D01*
X11641755Y32951385D01*
X11743531Y32962056D01*
X11863299Y32951473D01*
G37*
D14*
%TO.C,U2*%
X14493100Y10795000D02*
X15351900Y10795000D01*
X15351900Y8255000D02*
X14493100Y8255000D01*
D11*
X16038500Y7924800D02*
G75*
G02*
X15838500Y7924800I-100000J0D01*
G01*
X15838500Y7924800D02*
G75*
G02*
X16038500Y7924800I100000J0D01*
G01*
D14*
%TO.C,U5*%
X14213700Y14336600D02*
X14213700Y14873400D01*
X14493100Y15875000D02*
X15351900Y15875000D01*
X15351900Y13335000D02*
X14493100Y13335000D01*
D11*
X16038500Y13004800D02*
G75*
G02*
X15838500Y13004800I-100000J0D01*
G01*
X15838500Y13004800D02*
G75*
G02*
X16038500Y13004800I100000J0D01*
G01*
D13*
%TO.C,R19*%
X8091141Y13715000D02*
X7783859Y13715000D01*
X8091141Y12955000D02*
X7783859Y12955000D01*
%TO.C,C7*%
X333836Y57256000D02*
X118164Y57256000D01*
X333836Y56536000D02*
X118164Y56536000D01*
D16*
%TO.C,C4*%
X-1713500Y53248000D02*
X-1713500Y53940000D01*
X-1561500Y54092500D02*
X-771000Y54092500D01*
X-771000Y53095500D02*
X-1561500Y53095500D01*
X-319000Y53095500D02*
X471500Y53095500D01*
X471500Y54092500D02*
X-319000Y54092500D01*
X623500Y53248000D02*
X623500Y53940000D01*
X-1713500Y53940000D02*
G75*
G02*
X-1561500Y54092500I152858J-356D01*
G01*
X-1561500Y53095500D02*
G75*
G02*
X-1713500Y53248000I-353J151649D01*
G01*
X471500Y54092500D02*
G75*
G02*
X623498Y53940000I350J-151650D01*
G01*
X623500Y53248000D02*
G75*
G02*
X471500Y53095502I-152860J360D01*
G01*
D13*
%TO.C,C12*%
X18055000Y14712836D02*
X18055000Y14497164D01*
X18775000Y14712836D02*
X18775000Y14497164D01*
D12*
%TO.C,kibuzzard-6569BE57*%
G36*
X13927138Y29120306D02*
G01*
X14026356Y29050456D01*
X14017625Y28934569D01*
X13733463Y28115419D01*
X13683853Y28041600D01*
X13595350Y28016994D01*
X13527881Y28031281D01*
X13483431Y28067000D01*
X13462794Y28100338D01*
X13454063Y28123356D01*
X13304838Y28612306D01*
X13155613Y28124944D01*
X13104416Y28043981D01*
X13014325Y28016994D01*
X12934950Y28040012D01*
X12892088Y28081288D01*
X12877800Y28115419D01*
X12592050Y28934569D01*
X12584906Y29052044D01*
X12684125Y29118719D01*
X12802394Y29125862D01*
X12866688Y29028231D01*
X13031787Y28545631D01*
X13161963Y29020294D01*
X13210381Y29100066D01*
X13301663Y29126656D01*
X13347700Y29122688D01*
X13382625Y29109194D01*
X13407231Y29091731D01*
X13424694Y29071094D01*
X13435013Y29051250D01*
X13442950Y29031406D01*
X13447713Y29018706D01*
X13577888Y28542456D01*
X13742987Y29028231D01*
X13807281Y29126656D01*
X13927138Y29120306D01*
G37*
G36*
X12191603Y29120306D02*
G01*
X12258675Y29101256D01*
X12325350Y29070300D01*
X12388850Y29028231D01*
X12445405Y28972073D01*
X12491244Y28898850D01*
X12521605Y28812927D01*
X12531725Y28718669D01*
X12521803Y28624808D01*
X12492037Y28540075D01*
X12446595Y28468042D01*
X12389644Y28412281D01*
X12325350Y28370212D01*
X12257881Y28339256D01*
X12190214Y28320206D01*
X12125325Y28313856D01*
X11955462Y28313856D01*
X11955462Y28161456D01*
X11953081Y28106688D01*
X11938000Y28063825D01*
X11893550Y28028106D01*
X11809412Y28016994D01*
X11726862Y28028106D01*
X11682412Y28064619D01*
X11667331Y28108275D01*
X11664950Y28163044D01*
X11664950Y28604369D01*
X11955462Y28604369D01*
X12126912Y28604369D01*
X12205494Y28632944D01*
X12242800Y28720256D01*
X12208669Y28802806D01*
X12125325Y28836144D01*
X11955462Y28836144D01*
X11955462Y28604369D01*
X11664950Y28604369D01*
X11664950Y28982194D01*
X11667331Y29035375D01*
X11682412Y29079031D01*
X11726862Y29115544D01*
X11811000Y29126656D01*
X12126912Y29126656D01*
X12191603Y29120306D01*
G37*
G36*
X14642505Y29120306D02*
G01*
X14708981Y29101256D01*
X14775259Y29070300D01*
X14839156Y29028231D01*
X14896108Y28972073D01*
X14941550Y28898850D01*
X14971316Y28812927D01*
X14981237Y28718669D01*
X14965715Y28599783D01*
X14919149Y28497124D01*
X14841538Y28410694D01*
X14955838Y28258294D01*
X14998700Y28148756D01*
X14922500Y28055094D01*
X14809788Y28011437D01*
X14720888Y28085256D01*
X14551025Y28315444D01*
X14403388Y28315444D01*
X14403388Y28161456D01*
X14401006Y28106688D01*
X14385925Y28063825D01*
X14341475Y28028106D01*
X14257338Y28016994D01*
X14174788Y28028106D01*
X14130338Y28064619D01*
X14115256Y28108275D01*
X14112875Y28163044D01*
X14112875Y28604369D01*
X14403388Y28604369D01*
X14578013Y28604369D01*
X14654213Y28632944D01*
X14690725Y28720256D01*
X14656594Y28802806D01*
X14574838Y28836144D01*
X14403388Y28836144D01*
X14403388Y28604369D01*
X14112875Y28604369D01*
X14112875Y28982194D01*
X14115256Y29035375D01*
X14130338Y29079031D01*
X14174788Y29115544D01*
X14258925Y29126656D01*
X14578013Y29126656D01*
X14642505Y29120306D01*
G37*
D13*
%TO.C,C6*%
X16785000Y25825336D02*
X16785000Y25609664D01*
X17505000Y25825336D02*
X17505000Y25609664D01*
D14*
%TO.C,U6*%
X5285600Y26987500D02*
X6144400Y26987500D01*
X6144400Y24447500D02*
X5285600Y24447500D01*
X6423800Y25985900D02*
X6423800Y25449100D01*
D11*
X4799000Y27317700D02*
G75*
G02*
X4599000Y27317700I-100000J0D01*
G01*
X4599000Y27317700D02*
G75*
G02*
X4799000Y27317700I100000J0D01*
G01*
D16*
%TO.C,C8*%
X-1676500Y42072000D02*
X-1676500Y42764000D01*
X-1524500Y42916500D02*
X-734000Y42916500D01*
X-734000Y41919500D02*
X-1524500Y41919500D01*
X-282000Y41919500D02*
X508500Y41919500D01*
X508500Y42916500D02*
X-282000Y42916500D01*
X660500Y42072000D02*
X660500Y42764000D01*
X-1676500Y42764000D02*
G75*
G02*
X-1524500Y42916500I152858J-356D01*
G01*
X-1524500Y41919500D02*
G75*
G02*
X-1676500Y42072000I-353J151649D01*
G01*
X508500Y42916500D02*
G75*
G02*
X660498Y42764000I350J-151650D01*
G01*
X660500Y42072000D02*
G75*
G02*
X508500Y41919502I-152860J360D01*
G01*
D12*
%TO.C,kibuzzard-65A99AA3*%
G36*
X9661525Y16297473D02*
G01*
X9712722Y16238538D01*
X9727009Y16129000D01*
X9713912Y16020653D01*
X9672241Y15962313D01*
X9553178Y15940881D01*
X8986441Y15940881D01*
X8879880Y15961122D01*
X8826897Y16021844D01*
X8814991Y16131381D01*
X8829278Y16238538D01*
X8874522Y16295688D01*
X8988822Y16317119D01*
X9555559Y16317119D01*
X9661525Y16297473D01*
G37*
%TO.C,kibuzzard-6569BF02*%
G36*
X13699331Y31022925D02*
G01*
X13743781Y30986413D01*
X13758863Y30942756D01*
X13761244Y30887987D01*
X13761244Y30068837D01*
X13758863Y30014069D01*
X13743781Y29971206D01*
X13699331Y29935487D01*
X13615194Y29924375D01*
X13532644Y29935487D01*
X13488194Y29972000D01*
X13473113Y30015656D01*
X13470731Y30070425D01*
X13470731Y30354588D01*
X13108781Y30354588D01*
X13108781Y30068837D01*
X13106400Y30014069D01*
X13091319Y29971206D01*
X13046869Y29935487D01*
X12962731Y29924375D01*
X12880181Y29935487D01*
X12835731Y29972000D01*
X12820650Y30015656D01*
X12818269Y30070425D01*
X12818269Y30889575D01*
X12820650Y30942756D01*
X12835731Y30986413D01*
X12880181Y31022925D01*
X12964319Y31034038D01*
X13046869Y31022925D01*
X13091319Y30986413D01*
X13106400Y30942756D01*
X13108781Y30887987D01*
X13108781Y30602238D01*
X13470731Y30602238D01*
X13470731Y30889575D01*
X13473113Y30942756D01*
X13488194Y30986413D01*
X13532644Y31022925D01*
X13616781Y31034038D01*
X13699331Y31022925D01*
G37*
G36*
X12468313Y31035272D02*
G01*
X12565680Y31005639D01*
X12665869Y30956250D01*
X12708731Y30926087D01*
X12738100Y30892750D01*
X12753181Y30845125D01*
X12718256Y30756225D01*
X12658725Y30691931D01*
X12603956Y30670500D01*
X12518231Y30707013D01*
X12507912Y30714156D01*
X12494419Y30722888D01*
X12479337Y30731619D01*
X12457906Y30739556D01*
X12432506Y30745906D01*
X12400756Y30751462D01*
X12362656Y30753050D01*
X12272169Y30737175D01*
X12182475Y30690344D01*
X12111831Y30603825D01*
X12091591Y30544294D01*
X12084844Y30476825D01*
X12096948Y30390108D01*
X12133262Y30317281D01*
X12184658Y30261520D01*
X12242006Y30226000D01*
X12362656Y30200600D01*
X12446397Y30213697D01*
X12526169Y30252987D01*
X12605544Y30284737D01*
X12659519Y30262116D01*
X12716669Y30194250D01*
X12751594Y30102175D01*
X12729369Y30044231D01*
X12664281Y29995813D01*
X12570090Y29946424D01*
X12471665Y29916790D01*
X12369006Y29906912D01*
X12301736Y29911675D01*
X12230100Y29925962D01*
X12155091Y29951561D01*
X12077700Y29990256D01*
X12003286Y30040263D01*
X11937206Y30099794D01*
X11880652Y30173017D01*
X11834812Y30264100D01*
X11804452Y30369272D01*
X11794331Y30484762D01*
X11804253Y30595887D01*
X11834019Y30697488D01*
X11879262Y30785792D01*
X11935619Y30857031D01*
X12001698Y30914975D01*
X12076112Y30963394D01*
X12153900Y31000898D01*
X12230100Y31026100D01*
X12303720Y31040387D01*
X12373769Y31045150D01*
X12468313Y31035272D01*
G37*
G36*
X14513520Y31047333D02*
G01*
X14601825Y31030069D01*
X14685367Y31002486D01*
X14753431Y30965775D01*
X14797881Y30934025D01*
X14827250Y30900688D01*
X14842331Y30854650D01*
X14805819Y30765750D01*
X14747081Y30702647D01*
X14688344Y30681613D01*
X14602619Y30718125D01*
X14521259Y30751463D01*
X14423231Y30762575D01*
X14318853Y30742930D01*
X14231144Y30683994D01*
X14171612Y30596483D01*
X14151769Y30491112D01*
X14172406Y30382369D01*
X14234319Y30287913D01*
X14323616Y30222428D01*
X14426406Y30200600D01*
X14517688Y30205759D01*
X14585156Y30221237D01*
X14585156Y30357762D01*
X14467681Y30357762D01*
X14424819Y30360144D01*
X14391481Y30372844D01*
X14364494Y30410150D01*
X14356556Y30481587D01*
X14365288Y30551438D01*
X14394656Y30588744D01*
X14429581Y30601444D01*
X14472444Y30603825D01*
X14750256Y30603825D01*
X14811375Y30592713D01*
X14848681Y30572075D01*
X14867731Y30540325D01*
X14874875Y30505400D01*
X14875669Y30465713D01*
X14875669Y30140275D01*
X14837569Y30048994D01*
X14792722Y30005536D01*
X14734381Y29968825D01*
X14646540Y29934429D01*
X14541765Y29913792D01*
X14420056Y29906912D01*
X14309725Y29917727D01*
X14207331Y29950172D01*
X14112875Y30004246D01*
X14026356Y30079950D01*
X13954125Y30170735D01*
X13902531Y30270053D01*
X13871575Y30377904D01*
X13861256Y30494287D01*
X13871724Y30605264D01*
X13903127Y30708005D01*
X13955464Y30802511D01*
X14028738Y30888781D01*
X14116695Y30960665D01*
X14213086Y31012011D01*
X14317911Y31042818D01*
X14431169Y31053088D01*
X14513520Y31047333D01*
G37*
D13*
%TO.C,R10*%
X16765000Y4916141D02*
X16765000Y4608859D01*
X17525000Y4916141D02*
X17525000Y4608859D01*
%TO.C,C10*%
X5607164Y28300000D02*
X5822836Y28300000D01*
X5607164Y27580000D02*
X5822836Y27580000D01*
D15*
%TO.C,U3*%
X3560000Y65158000D02*
X3560000Y58339000D01*
X3560000Y59118500D02*
X21577000Y59118500D01*
X3560000Y40467000D02*
X3560000Y39619000D01*
X3560000Y39619000D02*
X4894000Y39619000D01*
X5321000Y64003000D02*
X5321000Y60320000D01*
X7607000Y64003000D02*
X5321000Y64003000D01*
X7607000Y61844000D02*
X7607000Y64003000D01*
X9893000Y64003000D02*
X9893000Y61844000D01*
X9893000Y61844000D02*
X7607000Y61844000D01*
X12433000Y64003000D02*
X9893000Y64003000D01*
X12433000Y61844000D02*
X12433000Y64003000D01*
X14973000Y64003000D02*
X14973000Y61844000D01*
X14973000Y61844000D02*
X12433000Y61844000D01*
X17825000Y64003000D02*
X14973000Y64003000D01*
X17825000Y59118500D02*
X17825000Y64003000D01*
X19857000Y64003000D02*
X17622000Y64003000D01*
X19857000Y59118500D02*
X19857000Y64003000D01*
X20226000Y39619000D02*
X21577000Y39619000D01*
X21560000Y65158000D02*
X3560000Y65158000D01*
X21577000Y58339000D02*
X21577000Y65146000D01*
X21577000Y39619000D02*
X21577000Y40467000D01*
D12*
G36*
X5031500Y57863000D02*
G01*
X5031500Y57863000D01*
G75*
G02*
X6088500Y57863000I528500J0D01*
G01*
X6088500Y57863000D01*
G75*
G02*
X5031500Y57863000I-528500J0D01*
G01*
X5031500Y57863000D01*
G37*
D13*
%TO.C,C1*%
X-381580Y58676000D02*
X-100420Y58676000D01*
X-381580Y57656000D02*
X-100420Y57656000D01*
D14*
%TO.C,U1*%
X8816200Y9256600D02*
X8816200Y9793400D01*
X9095600Y10795000D02*
X9954400Y10795000D01*
X9954400Y8255000D02*
X9095600Y8255000D01*
D11*
X10641000Y7924800D02*
G75*
G02*
X10441000Y7924800I-100000J0D01*
G01*
X10441000Y7924800D02*
G75*
G02*
X10641000Y7924800I100000J0D01*
G01*
D13*
%TO.C,C13*%
X9417164Y27030000D02*
X9632836Y27030000D01*
X9417164Y26310000D02*
X9632836Y26310000D01*
%TO.C,C3*%
X6307500Y9632836D02*
X6307500Y9417164D01*
X7027500Y9632836D02*
X7027500Y9417164D01*
%TO.C,C14*%
X10585336Y7980000D02*
X10369664Y7980000D01*
X10585336Y7260000D02*
X10369664Y7260000D01*
D15*
%TO.C,J3*%
X-2511000Y20863000D02*
X-2511000Y16025000D01*
X1215000Y22508000D02*
X5109000Y22508000D01*
X3585000Y21619000D02*
X3585000Y20222000D01*
X3585000Y16713000D02*
X3585000Y15269000D01*
X3585000Y15269000D02*
X5109000Y15269000D01*
X5109000Y22508000D02*
X5109000Y21619000D01*
X5109000Y21619000D02*
X3585000Y21619000D01*
X5109000Y15269000D02*
X5109000Y14380000D01*
X5109000Y14380000D02*
X1215000Y14380000D01*
X4601000Y20603000D02*
G75*
G02*
X4347000Y20603000I-127000J0D01*
G01*
X4347000Y20603000D02*
G75*
G02*
X4601000Y20603000I127000J0D01*
G01*
%TD*%
M02*
