%TF.GenerationSoftware,KiCad,Pcbnew,9.0.4*%
%TF.CreationDate,2025-10-28T22:37:09+01:00*%
%TF.ProjectId,SparkFun_Thing_Plus_ESP32-S3,53706172-6b46-4756-9e5f-5468696e675f,rev?*%
%TF.SameCoordinates,Original*%
%TF.FileFunction,Soldermask,Top*%
%TF.FilePolarity,Negative*%
%FSLAX46Y46*%
G04 Gerber Fmt 4.6, Leading zero omitted, Abs format (unit mm)*
G04 Created by KiCad (PCBNEW 9.0.4) date 2025-10-28 22:37:09*
%MOMM*%
%LPD*%
G01*
G04 APERTURE LIST*
G04 Aperture macros list*
%AMRoundRect*
0 Rectangle with rounded corners*
0 $1 Rounding radius*
0 $2 $3 $4 $5 $6 $7 $8 $9 X,Y pos of 4 corners*
0 Add a 4 corners polygon primitive as box body*
4,1,4,$2,$3,$4,$5,$6,$7,$8,$9,$2,$3,0*
0 Add four circle primitives for the rounded corners*
1,1,$1+$1,$2,$3*
1,1,$1+$1,$4,$5*
1,1,$1+$1,$6,$7*
1,1,$1+$1,$8,$9*
0 Add four rect primitives between the rounded corners*
20,1,$1+$1,$2,$3,$4,$5,0*
20,1,$1+$1,$4,$5,$6,$7,0*
20,1,$1+$1,$6,$7,$8,$9,0*
20,1,$1+$1,$8,$9,$2,$3,0*%
%AMOutline5P*
0 Free polygon, 5 corners , with rotation*
0 The origin of the aperture is its center*
0 number of corners: always 5*
0 $1 to $10 corner X, Y*
0 $11 Rotation angle, in degrees counterclockwise*
0 create outline with 5 corners*
4,1,5,$1,$2,$3,$4,$5,$6,$7,$8,$9,$10,$1,$2,$11*%
%AMOutline6P*
0 Free polygon, 6 corners , with rotation*
0 The origin of the aperture is its center*
0 number of corners: always 6*
0 $1 to $12 corner X, Y*
0 $13 Rotation angle, in degrees counterclockwise*
0 create outline with 6 corners*
4,1,6,$1,$2,$3,$4,$5,$6,$7,$8,$9,$10,$11,$12,$1,$2,$13*%
%AMOutline7P*
0 Free polygon, 7 corners , with rotation*
0 The origin of the aperture is its center*
0 number of corners: always 7*
0 $1 to $14 corner X, Y*
0 $15 Rotation angle, in degrees counterclockwise*
0 create outline with 7 corners*
4,1,7,$1,$2,$3,$4,$5,$6,$7,$8,$9,$10,$11,$12,$13,$14,$1,$2,$15*%
%AMOutline8P*
0 Free polygon, 8 corners , with rotation*
0 The origin of the aperture is its center*
0 number of corners: always 8*
0 $1 to $16 corner X, Y*
0 $17 Rotation angle, in degrees counterclockwise*
0 create outline with 8 corners*
4,1,8,$1,$2,$3,$4,$5,$6,$7,$8,$9,$10,$11,$12,$13,$14,$15,$16,$1,$2,$17*%
G04 Aperture macros list end*
%ADD10C,0.000000*%
%ADD11R,0.800000X0.800000*%
%ADD12R,1.200000X1.200000*%
%ADD13Outline5P,-0.600000X0.120000X-0.120000X0.600000X0.600000X0.600000X0.600000X-0.600000X-0.600000X-0.600000X0.000000*%
%ADD14R,0.400000X0.800000*%
%ADD15R,0.800000X0.400000*%
%ADD16R,0.900000X1.000000*%
%ADD17RoundRect,0.135000X0.185000X-0.135000X0.185000X0.135000X-0.185000X0.135000X-0.185000X-0.135000X0*%
%ADD18C,0.650000*%
%ADD19R,0.300000X1.000000*%
%ADD20R,0.600000X1.000000*%
%ADD21O,1.000000X1.600000*%
%ADD22O,1.000000X2.100000*%
%ADD23RoundRect,0.135000X-0.185000X0.135000X-0.185000X-0.135000X0.185000X-0.135000X0.185000X0.135000X0*%
%ADD24RoundRect,0.225000X0.250000X-0.225000X0.250000X0.225000X-0.250000X0.225000X-0.250000X-0.225000X0*%
%ADD25RoundRect,0.135000X0.135000X0.185000X-0.135000X0.185000X-0.135000X-0.185000X0.135000X-0.185000X0*%
%ADD26RoundRect,0.140000X-0.170000X0.140000X-0.170000X-0.140000X0.170000X-0.140000X0.170000X0.140000X0*%
%ADD27RoundRect,0.135000X-0.135000X-0.185000X0.135000X-0.185000X0.135000X0.185000X-0.135000X0.185000X0*%
%ADD28C,0.500000*%
%ADD29C,3.100000*%
%ADD30R,1.200000X0.550000*%
%ADD31RoundRect,0.140000X0.140000X0.170000X-0.140000X0.170000X-0.140000X-0.170000X0.140000X-0.170000X0*%
%ADD32RoundRect,0.140000X-0.140000X-0.170000X0.140000X-0.170000X0.140000X0.170000X-0.140000X0.170000X0*%
%ADD33RoundRect,0.225000X-0.225000X-0.250000X0.225000X-0.250000X0.225000X0.250000X-0.225000X0.250000X0*%
%ADD34R,4.600000X1.000000*%
%ADD35R,3.400000X1.600000*%
G04 APERTURE END LIST*
D10*
%TO.C,U4*%
G36*
X18797500Y10055000D02*
G01*
X17957500Y10055000D01*
X17957500Y10495000D01*
X18797500Y10495000D01*
X18797500Y10055000D01*
G37*
G36*
X18797500Y9555000D02*
G01*
X17957500Y9555000D01*
X17957500Y9995000D01*
X18797500Y9995000D01*
X18797500Y9555000D01*
G37*
G36*
X18797500Y9055000D02*
G01*
X17957500Y9055000D01*
X17957500Y9495000D01*
X18797500Y9495000D01*
X18797500Y9055000D01*
G37*
G36*
X18797500Y8555000D02*
G01*
X17957500Y8555000D01*
X17957500Y8995000D01*
X18797500Y8995000D01*
X18797500Y8555000D01*
G37*
G36*
X19837500Y8765000D02*
G01*
X18897500Y8765000D01*
X18897500Y10285000D01*
X19837500Y10285000D01*
X19837500Y8765000D01*
G37*
G36*
X20797500Y10055000D02*
G01*
X19957500Y10055000D01*
X19957500Y10495000D01*
X20797500Y10495000D01*
X20797500Y10055000D01*
G37*
G36*
X20797500Y9555000D02*
G01*
X19957500Y9555000D01*
X19957500Y9995000D01*
X20797500Y9995000D01*
X20797500Y9555000D01*
G37*
G36*
X20797500Y9055000D02*
G01*
X19957500Y9055000D01*
X19957500Y9495000D01*
X20797500Y9495000D01*
X20797500Y9055000D01*
G37*
G36*
X20797500Y8555000D02*
G01*
X19957500Y8555000D01*
X19957500Y8995000D01*
X20797500Y8995000D01*
X20797500Y8555000D01*
G37*
%TD*%
D11*
%TO.C,U3*%
X18430000Y52720000D03*
X18430000Y38720000D03*
X4430000Y38720000D03*
X4430000Y52720000D03*
D12*
X13080000Y44070000D03*
X13080000Y45720000D03*
X13080000Y47370000D03*
X11430000Y44070000D03*
X11430000Y45720000D03*
X11430000Y47370000D03*
X9780000Y44070000D03*
X9780000Y45720000D03*
D13*
X9780000Y47370000D03*
D14*
X5480000Y52720000D03*
X6330000Y52720000D03*
X7180000Y52720000D03*
X8030000Y52720000D03*
X8880000Y52720000D03*
X9730000Y52720000D03*
X10580000Y52720000D03*
X11430000Y52720000D03*
X12280000Y52720000D03*
X13130000Y52720000D03*
X13980000Y52720000D03*
X14830000Y52720000D03*
X15680000Y52720000D03*
X16530000Y52720000D03*
X17380000Y52720000D03*
D15*
X18430000Y51670000D03*
X18430000Y50820000D03*
X18430000Y49970000D03*
X18430000Y49120000D03*
X18430000Y48270000D03*
X18430000Y47420000D03*
X18430000Y46570000D03*
X18430000Y45720000D03*
X18430000Y44870000D03*
X18430000Y44020000D03*
X18430000Y43170000D03*
X18430000Y42320000D03*
X18430000Y41470000D03*
X18430000Y40620000D03*
X18430000Y39770000D03*
D14*
X17380000Y38720000D03*
X16530000Y38720000D03*
X15680000Y38720000D03*
X14830000Y38720000D03*
X13980000Y38720000D03*
X13130000Y38720000D03*
X12280000Y38720000D03*
X11430000Y38720000D03*
X10580000Y38720000D03*
X9730000Y38720000D03*
X8880000Y38720000D03*
X8030000Y38720000D03*
X7180000Y38720000D03*
X6330000Y38720000D03*
X5480000Y38720000D03*
D15*
X4430000Y39770000D03*
X4430000Y40620000D03*
X4430000Y41470000D03*
X4430000Y42320000D03*
X4430000Y43170000D03*
X4430000Y44020000D03*
X4430000Y44870000D03*
X4430000Y45720000D03*
X4430000Y46570000D03*
X4430000Y47420000D03*
X4430000Y48270000D03*
X4430000Y49120000D03*
X4430000Y49970000D03*
X4430000Y50820000D03*
X4430000Y51670000D03*
%TD*%
D16*
%TO.C,SW2*%
X15385000Y24917500D03*
X11285000Y24917500D03*
X15385000Y26517500D03*
X11285000Y26517500D03*
%TD*%
D17*
%TO.C,R8*%
X18415000Y25207500D03*
X18415000Y26227500D03*
%TD*%
D18*
%TO.C,J1*%
X8540000Y4901250D03*
X14320000Y4901250D03*
D19*
X10180000Y6006250D03*
X11180000Y6006250D03*
X11680000Y6006250D03*
X12680000Y6006250D03*
X13180000Y6006250D03*
X12180000Y6006250D03*
X10680000Y6006250D03*
X9680000Y6006250D03*
D20*
X8205000Y6006250D03*
X14655000Y6006250D03*
D21*
X7112000Y1251250D03*
D22*
X7112000Y5431250D03*
X15748000Y5431250D03*
D21*
X15748000Y1251250D03*
D20*
X8980000Y6006250D03*
X13880000Y6006250D03*
%TD*%
D23*
%TO.C,R17*%
X9842500Y13210000D03*
X9842500Y12190000D03*
%TD*%
D24*
%TO.C,C9*%
X11430000Y13830000D03*
X11430000Y15380000D03*
%TD*%
D25*
%TO.C,R13*%
X6225000Y23495000D03*
X5205000Y23495000D03*
%TD*%
D26*
%TO.C,C2*%
X21590000Y10005000D03*
X21590000Y9045000D03*
%TD*%
D27*
%TO.C,R16*%
X14412500Y12065000D03*
X15432500Y12065000D03*
%TD*%
D28*
%TO.C,FID4*%
X17145000Y635000D03*
%TD*%
D17*
%TO.C,R11*%
X5715000Y4252500D03*
X5715000Y5272500D03*
%TD*%
D29*
%TO.C,ST1*%
X2540000Y2540000D03*
%TD*%
D30*
%TO.C,U2*%
X16222600Y8575000D03*
X16222600Y9525000D03*
X16222600Y10475000D03*
X13622400Y10475000D03*
X13622500Y9525000D03*
X13622400Y8575000D03*
%TD*%
%TO.C,U5*%
X16222600Y13655000D03*
X16222600Y14605000D03*
X16222600Y15555000D03*
X13622400Y15555000D03*
X13622400Y13655000D03*
%TD*%
D25*
%TO.C,R19*%
X8447500Y13335000D03*
X7427500Y13335000D03*
%TD*%
D31*
%TO.C,C7*%
X2385000Y53975000D03*
X1425000Y53975000D03*
%TD*%
D26*
%TO.C,C12*%
X18415000Y15085000D03*
X18415000Y14125000D03*
%TD*%
%TO.C,C6*%
X17145000Y26197500D03*
X17145000Y25237500D03*
%TD*%
D30*
%TO.C,U6*%
X4414900Y26667500D03*
X4414900Y25717500D03*
X4414900Y24767500D03*
X7015100Y24767500D03*
X7015100Y26667500D03*
%TD*%
D23*
%TO.C,R10*%
X17145000Y5272500D03*
X17145000Y4252500D03*
%TD*%
D32*
%TO.C,C10*%
X5235000Y27940000D03*
X6195000Y27940000D03*
%TD*%
D33*
%TO.C,C1*%
X1130000Y55562500D03*
X2680000Y55562500D03*
%TD*%
D30*
%TO.C,U1*%
X10825100Y8575000D03*
X10825100Y9525000D03*
X10825100Y10475000D03*
X8224900Y10475000D03*
X8224900Y8575000D03*
%TD*%
D32*
%TO.C,C13*%
X9045000Y26670000D03*
X10005000Y26670000D03*
%TD*%
D26*
%TO.C,C3*%
X6667500Y10005000D03*
X6667500Y9045000D03*
%TD*%
D29*
%TO.C,ST3*%
X20320000Y2540000D03*
%TD*%
D31*
%TO.C,C14*%
X10957500Y7620000D03*
X9997500Y7620000D03*
%TD*%
D34*
%TO.C,J3*%
X7510000Y17415000D03*
X7510000Y19415000D03*
D35*
X2310000Y15015000D03*
X2310000Y21815000D03*
%TD*%
M02*
