M48
; DRILL file {KiCad 9.0.4} date 2025-11-04T00:18:31+0100
; FORMAT={-:-/ absolute / metric / decimal}
; #@! TF.CreationDate,2025-11-04T00:18:31+01:00
; #@! TF.GenerationSoftware,Kicad,Pcbnew,9.0.4
; #@! TF.FileFunction,MixedPlating,1,2
FMAT,2
METRIC
; #@! TA.AperFunction,Plated,PTH,ViaDrill
T1C0.300
; #@! TA.AperFunction,Plated,PTH,ViaDrill
T2C0.305
; #@! TA.AperFunction,Plated,PTH,ComponentDrill
T3C0.600
; #@! TA.AperFunction,NonPlated,NPTH,ComponentDrill
T4C0.650
; #@! TA.AperFunction,NonPlated,NPTH,ComponentDrill
T5C3.100
%
G90
G05
T1
X2.032Y52.832
X2.032Y17.272
X2.794Y13.462
X3.81Y9.049
X4.318Y12.7
X5.08Y11.938
X5.842Y25.717
X5.842Y6.35
X6.667Y28.892
X6.667Y7.62
X6.985Y23.812
X7.112Y32.004
X7.366Y16.51
X7.874Y4.191
X7.938Y30.48
X8.128Y38.1
X8.128Y11.182
X8.255Y22.86
X8.89Y43.688
X9.272Y9.398
X9.398Y4.318
X9.907Y13.97
X9.907Y11.43
X11.285Y29.863
X12.065Y42.418
X12.065Y11.172
X12.7Y41.148
X12.7Y8.89
X13.462Y4.318
X14.922Y22.543
X14.986Y4.191
X16.51Y24.384
X16.597Y6.985
X17.113Y7.541
X18.034Y6.604
X22.352Y37.338
T2
X18.377Y11.467
T4
X8.54Y4.901
X14.32Y4.901
T5
X2.54Y2.54
X20.32Y2.54
T3
G00X7.112Y5.981
M15
G01X7.112Y4.881
M16
G05
G00X7.112Y1.551
M15
G01X7.112Y0.951
M16
G05
G00X15.748Y5.981
M15
G01X15.748Y4.881
M16
G05
G00X15.748Y1.551
M15
G01X15.748Y0.951
M16
G05
M30
